<svg width="345" height="764" viewBox="0 0 345 764" fill="none" xmlns="http://www.w3.org/2000/svg">
<rect width="345" height="763" transform="translate(0 1)" fill="white"/>
<path d="M11.088 23.64H2.144V25.32H5.584V35H7.648V25.32H11.088V23.64ZM12.1614 38.2C13.8734 38.2 14.9454 37.48 15.6654 35.448L18.6734 27H16.6734L15.0894 32.232C14.9614 32.648 14.8814 32.936 14.8494 33.176H14.8174C14.7694 32.904 14.7054 32.6 14.5774 32.232L12.8334 27H10.7214L13.8414 34.92L13.6814 35.4C13.3774 36.28 12.8814 36.664 11.9534 36.664C11.7614 36.664 11.5694 36.664 11.2814 36.6V38.12C11.6014 38.168 11.9214 38.2 12.1614 38.2ZM20.0613 38.12H21.9813V33.848C22.4133 34.632 23.2133 35.192 24.3493 35.192C26.3173 35.192 27.6613 33.56 27.6613 30.984C27.6613 28.456 26.3653 26.808 24.4453 26.808C23.3093 26.808 22.3813 27.352 21.8853 28.392V27H20.0613V38.12ZM23.7893 33.72C22.6533 33.72 21.9333 32.744 21.9333 31.208V30.808C21.9333 29.192 22.6533 28.28 23.8053 28.28C24.9733 28.28 25.6613 29.272 25.6613 30.984C25.6613 32.696 24.9413 33.72 23.7893 33.72ZM36.4081 30.6C36.4081 28.152 35.0801 26.808 32.7601 26.808C30.3761 26.808 28.9361 28.44 28.9361 31.08C28.9361 33.704 30.4081 35.192 32.8561 35.192C34.4881 35.192 35.7521 34.424 36.3441 33.032L34.8721 32.36C34.5041 33.224 33.8321 33.688 32.9201 33.688C31.6561 33.688 30.8081 32.824 30.7921 31.48H36.4081V30.6ZM34.5201 30.216H30.7921C30.8241 28.888 31.5121 28.088 32.7281 28.088C33.8641 28.088 34.5201 28.776 34.5201 30.088V30.216Z" fill="#362B26"/>
<path d="M10.784 102.272V100.64H3.408V112H5.472V107.056H10.512V105.424H5.472V102.272H10.784ZM15.778 112.192C18.082 112.192 19.698 110.672 19.698 107.984C19.698 105.312 18.082 103.808 15.778 103.808C13.474 103.808 11.858 105.312 11.858 107.984C11.858 110.672 13.474 112.192 15.778 112.192ZM15.778 110.736C14.546 110.736 13.81 109.808 13.81 107.984C13.81 106.16 14.546 105.264 15.778 105.264C17.01 105.264 17.73 106.16 17.73 107.984C17.73 109.808 17.01 110.736 15.778 110.736ZM23.3845 105.936V104H21.5925V112H23.5125V108.64C23.5125 107.76 23.5925 106.848 24.2325 106.224C24.6005 105.872 25.1285 105.648 25.8965 105.648C25.9925 105.648 26.0725 105.664 26.1525 105.664V103.824C26.0725 103.808 26.0085 103.808 25.9285 103.808C24.6325 103.808 23.7845 104.672 23.3845 105.936ZM34.455 107.6C34.455 105.152 33.127 103.808 30.807 103.808C28.423 103.808 26.983 105.44 26.983 108.08C26.983 110.704 28.455 112.192 30.903 112.192C32.535 112.192 33.799 111.424 34.391 110.032L32.919 109.36C32.551 110.224 31.879 110.688 30.967 110.688C29.703 110.688 28.855 109.824 28.839 108.48H34.455V107.6ZM32.567 107.216H28.839C28.871 105.888 29.559 105.088 30.775 105.088C31.911 105.088 32.567 105.776 32.567 107.088V107.216ZM39.3014 112.192C41.3814 112.192 42.5814 111.168 42.5814 109.664C42.5814 108.4 41.9094 107.632 40.3734 107.36L38.8054 107.072C38.1014 106.944 37.7334 106.704 37.7334 106.16C37.7334 105.536 38.2454 105.2 39.1414 105.2C40.1974 105.2 40.9014 105.648 41.2854 106.368L42.6134 105.648C42.2294 104.496 40.9494 103.808 39.2374 103.808C37.2054 103.808 35.9734 104.832 35.9734 106.272C35.9734 107.552 36.7734 108.336 38.2614 108.608L39.6854 108.864C40.4854 108.992 40.8374 109.216 40.8374 109.792C40.8374 110.368 40.3254 110.784 39.3334 110.784C38.1974 110.784 37.3974 110.272 37.0454 109.376L35.6054 110.016C36.1174 111.424 37.4774 112.192 39.3014 112.192ZM43.4729 105.392H44.9129V109.52C44.9129 111.136 45.5529 112.144 47.4729 112.144C47.9689 112.144 48.3209 112.096 48.7849 112V110.384C48.5289 110.432 48.3209 110.48 48.0009 110.48C47.2009 110.48 46.8329 110.064 46.8329 109.216V105.392H48.7849V104H46.8329V101.216L44.9129 101.984V104H43.4729V105.392ZM62.1921 112H64.2881L60.0641 100.64H57.8241L53.6001 112H55.6961L56.7201 109.008H61.1681L62.1921 112ZM57.2641 107.44L58.5921 103.6C58.7201 103.232 58.8321 102.832 58.9281 102.384H58.9601C59.0561 102.832 59.1681 103.232 59.2961 103.6L60.6241 107.44H57.2641ZM72.7173 104.064C72.9573 104.064 73.1653 104.096 73.3733 104.144V102.704C73.2133 102.672 73.0853 102.656 72.9253 102.656C71.7733 102.656 71.0853 103.248 70.8293 104.128C70.3493 103.92 69.7893 103.808 69.1333 103.808C67.1013 103.808 65.8533 104.912 65.8533 106.496C65.8533 107.328 66.2053 108.048 66.8293 108.544C66.0453 108.848 65.5653 109.408 65.5653 110.24C65.5653 110.864 65.8693 111.392 66.5733 111.68C65.7093 111.968 65.2453 112.544 65.2453 113.248C65.2453 114.384 66.2533 115.312 69.0052 115.312C71.8853 115.312 73.2773 114.24 73.2773 112.592C73.2773 111.104 72.3173 110.288 70.4453 110.288H68.3493C67.4693 110.288 67.1332 109.984 67.1332 109.552C67.1332 109.264 67.2933 109.072 67.5333 108.944C67.9813 109.136 68.5253 109.232 69.1333 109.232C71.1813 109.232 72.4293 108.08 72.4293 106.496C72.4293 105.712 72.1253 105.056 71.5813 104.576C71.8053 104.24 72.2053 104.064 72.7173 104.064ZM69.1333 108.064C68.2373 108.064 67.6613 107.408 67.6613 106.496C67.6613 105.6 68.2373 104.976 69.1333 104.976C70.0293 104.976 70.6053 105.6 70.6053 106.512C70.6053 107.408 70.0293 108.064 69.1333 108.064ZM70.1573 111.936C71.0693 111.936 71.5333 112.272 71.5333 112.912C71.5333 113.568 70.9573 114.064 69.1333 114.064C67.7573 114.064 66.8453 113.744 66.8453 112.896C66.8453 112.512 67.0213 112.144 67.4053 111.904C67.6133 111.92 67.8373 111.936 68.0773 111.936H70.1573ZM81.455 107.6C81.455 105.152 80.127 103.808 77.807 103.808C75.423 103.808 73.983 105.44 73.983 108.08C73.983 110.704 75.455 112.192 77.903 112.192C79.535 112.192 80.799 111.424 81.391 110.032L79.919 109.36C79.551 110.224 78.879 110.688 77.967 110.688C76.703 110.688 75.855 109.824 75.839 108.48H81.455V107.6ZM79.567 107.216H75.839C75.871 105.888 76.559 105.088 77.775 105.088C78.911 105.088 79.567 105.776 79.567 107.088V107.216Z" fill="#362B26"/>
<path d="M191.784 102.272V100.64H184.408V112H186.472V107.056H191.512V105.424H186.472V102.272H191.784ZM196.778 112.192C199.082 112.192 200.698 110.672 200.698 107.984C200.698 105.312 199.082 103.808 196.778 103.808C194.474 103.808 192.858 105.312 192.858 107.984C192.858 110.672 194.474 112.192 196.778 112.192ZM196.778 110.736C195.546 110.736 194.81 109.808 194.81 107.984C194.81 106.16 195.546 105.264 196.778 105.264C198.01 105.264 198.73 106.16 198.73 107.984C198.73 109.808 198.01 110.736 196.778 110.736ZM204.385 105.936V104H202.593V112H204.513V108.64C204.513 107.76 204.593 106.848 205.233 106.224C205.601 105.872 206.129 105.648 206.897 105.648C206.993 105.648 207.073 105.664 207.153 105.664V103.824C207.073 103.808 207.009 103.808 206.929 103.808C205.633 103.808 204.785 104.672 204.385 105.936ZM215.455 107.6C215.455 105.152 214.127 103.808 211.807 103.808C209.423 103.808 207.983 105.44 207.983 108.08C207.983 110.704 209.455 112.192 211.903 112.192C213.535 112.192 214.799 111.424 215.391 110.032L213.919 109.36C213.551 110.224 212.879 110.688 211.967 110.688C210.703 110.688 209.855 109.824 209.839 108.48H215.455V107.6ZM213.567 107.216H209.839C209.871 105.888 210.559 105.088 211.775 105.088C212.911 105.088 213.567 105.776 213.567 107.088V107.216ZM220.301 112.192C222.381 112.192 223.581 111.168 223.581 109.664C223.581 108.4 222.909 107.632 221.373 107.36L219.805 107.072C219.101 106.944 218.733 106.704 218.733 106.16C218.733 105.536 219.245 105.2 220.141 105.2C221.197 105.2 221.901 105.648 222.285 106.368L223.613 105.648C223.229 104.496 221.949 103.808 220.237 103.808C218.205 103.808 216.973 104.832 216.973 106.272C216.973 107.552 217.773 108.336 219.261 108.608L220.685 108.864C221.485 108.992 221.837 109.216 221.837 109.792C221.837 110.368 221.325 110.784 220.333 110.784C219.197 110.784 218.397 110.272 218.045 109.376L216.605 110.016C217.117 111.424 218.477 112.192 220.301 112.192ZM224.473 105.392H225.913V109.52C225.913 111.136 226.553 112.144 228.473 112.144C228.969 112.144 229.321 112.096 229.785 112V110.384C229.529 110.432 229.321 110.48 229.001 110.48C228.201 110.48 227.833 110.064 227.833 109.216V105.392H229.785V104H227.833V101.216L225.913 101.984V104H224.473V105.392ZM239.336 112.272C242.232 112.272 243.704 110.736 243.704 108.784C243.704 106.768 242.456 105.904 240.584 105.504L238.936 105.152C237.688 104.88 237.176 104.4 237.176 103.472C237.176 102.512 238.008 101.936 239.24 101.936C240.744 101.936 241.688 102.688 242.056 104L243.704 103.136C243.208 101.248 241.496 100.368 239.336 100.368C236.776 100.368 235.176 101.664 235.176 103.632C235.176 105.568 236.36 106.528 238.152 106.896L239.736 107.232C240.984 107.488 241.656 107.872 241.656 108.976C241.656 110.16 240.568 110.624 239.4 110.624C237.64 110.624 236.712 109.6 236.328 108.32L234.568 109.088C235.032 110.944 236.648 112.272 239.336 112.272ZM245.418 102.672H247.498V100.672H245.418V102.672ZM245.514 112H247.434V104H245.514V112ZM249.167 110.736V112H255.775V110.512H251.503L255.535 105.216V104H249.343V105.456H253.279L249.167 110.736ZM264.002 107.6C264.002 105.152 262.674 103.808 260.354 103.808C257.97 103.808 256.53 105.44 256.53 108.08C256.53 110.704 258.002 112.192 260.45 112.192C262.082 112.192 263.346 111.424 263.938 110.032L262.466 109.36C262.098 110.224 261.426 110.688 260.514 110.688C259.25 110.688 258.402 109.824 258.386 108.48H264.002V107.6ZM262.114 107.216H258.386C258.418 105.888 259.106 105.088 260.322 105.088C261.458 105.088 262.114 105.776 262.114 107.088V107.216Z" fill="#362B26"/>
<path d="M7.904 269.64H3.408V281H5.472V276.6H7.888C10.336 276.6 11.872 275.24 11.872 273.096C11.872 271 10.32 269.64 7.904 269.64ZM7.52 275.032H5.472V271.224H7.52C8.864 271.224 9.696 271.96 9.696 273.128C9.696 274.312 8.864 275.032 7.52 275.032ZM13.5006 281H15.4206V276.76C15.4206 275.224 16.0766 274.344 17.2286 274.344C18.2046 274.344 18.7166 274.968 18.7166 276.184V281H20.6366V276.024C20.6366 273.912 19.7246 272.808 17.9966 272.808C16.7806 272.808 15.9006 273.368 15.4206 274.472V269.4H13.5006V281ZM25.0151 281.192C26.2951 281.192 27.3031 280.6 27.6871 279.624C27.7031 280.12 27.7511 280.6 27.8151 281H29.7351C29.5751 280.44 29.4951 279.608 29.4951 278.52V276.136C29.4951 273.816 28.4391 272.808 26.0711 272.808C24.0071 272.808 22.6631 273.864 22.5351 275.576H24.5031C24.5671 274.664 25.1271 274.168 26.0711 274.168C27.0951 274.168 27.5591 274.68 27.5591 275.88V276.088L25.8631 276.296C24.5991 276.472 23.8311 276.68 23.2551 277.016C22.6151 277.416 22.2791 278.056 22.2791 278.824C22.2791 280.248 23.3671 281.192 25.0151 281.192ZM25.6231 279.832C24.7751 279.832 24.2631 279.4 24.2631 278.728C24.2631 278.04 24.7431 277.656 25.7991 277.48L27.6071 277.208V277.72C27.6071 278.984 26.8071 279.832 25.6231 279.832ZM34.7701 281.192C36.8501 281.192 38.0501 280.168 38.0501 278.664C38.0501 277.4 37.3781 276.632 35.8421 276.36L34.2741 276.072C33.5701 275.944 33.2021 275.704 33.2021 275.16C33.2021 274.536 33.7141 274.2 34.6101 274.2C35.6661 274.2 36.3701 274.648 36.7541 275.368L38.0821 274.648C37.6981 273.496 36.4181 272.808 34.7061 272.808C32.6741 272.808 31.4421 273.832 31.4421 275.272C31.4421 276.552 32.2421 277.336 33.7301 277.608L35.1541 277.864C35.9541 277.992 36.3061 278.216 36.3061 278.792C36.3061 279.368 35.7941 279.784 34.8021 279.784C33.6661 279.784 32.8661 279.272 32.5141 278.376L31.0741 279.016C31.5861 280.424 32.9461 281.192 34.7701 281.192ZM46.7987 276.6C46.7987 274.152 45.4708 272.808 43.1508 272.808C40.7668 272.808 39.3268 274.44 39.3268 277.08C39.3268 279.704 40.7988 281.192 43.2468 281.192C44.8788 281.192 46.1428 280.424 46.7348 279.032L45.2628 278.36C44.8948 279.224 44.2228 279.688 43.3108 279.688C42.0468 279.688 41.1988 278.824 41.1828 277.48H46.7987V276.6ZM44.9108 276.216H41.1828C41.2148 274.888 41.9028 274.088 43.1188 274.088C44.2548 274.088 44.9108 274.776 44.9108 276.088V276.216Z" fill="#362B26"/>
<path d="M17.21 58.406C19.446 57.86 20.538 56.196 20.538 54.324C20.538 51.906 18.874 49.54 14.298 49.54H4.47V68H14.61C19.29 68 21.032 65.53 21.032 62.852C21.032 60.434 19.706 58.796 17.21 58.406ZM13.622 52.192C16.17 52.192 16.872 53.466 16.872 54.714C16.872 55.962 16.3 57.314 13.622 57.314H8.084V52.192H13.622ZM13.934 65.348H8.084V59.862H14.038C16.378 59.862 17.366 61.006 17.366 62.566C17.366 64.126 16.43 65.348 13.934 65.348ZM30.9965 68.39C35.5985 68.39 38.7445 65.764 38.7445 61.5C38.7445 57.21 35.5985 54.61 30.9965 54.61C26.3685 54.61 23.2225 57.21 23.2225 61.5C23.2225 65.764 26.3685 68.39 30.9965 68.39ZM30.9965 65.92C28.3445 65.92 26.7065 64.334 26.7065 61.5C26.7065 58.64 28.3445 57.08 30.9965 57.08C33.6225 57.08 35.2605 58.64 35.2605 61.5C35.2605 64.334 33.6225 65.92 30.9965 65.92ZM44.9583 58.406V55H41.8903V68H45.2443V62.93C45.2443 61.37 45.4783 59.888 46.5183 58.848C47.2203 58.146 48.2083 57.756 49.7163 57.756C50.0803 57.756 50.3923 57.782 50.7303 57.834V54.74C50.4183 54.688 50.1583 54.662 49.7943 54.662C47.3503 54.662 45.6343 56.17 44.9583 58.406ZM66.6596 61.136C66.6596 56.976 63.9556 54.61 59.3016 54.61C54.6996 54.61 51.7616 57.21 51.7616 61.63C51.7616 65.92 54.6736 68.39 59.4316 68.39C62.7336 68.39 65.1516 67.142 66.4516 64.854L63.8256 63.658C63.0196 65.114 61.5376 65.92 59.5616 65.92C56.8576 65.92 55.1676 64.516 55.0376 62.332H66.6596V61.136ZM63.3316 60.226H55.0376C55.1676 58.068 56.7276 56.742 59.2496 56.742C61.6676 56.742 63.3056 57.964 63.3316 60.096V60.226ZM74.1831 68.39C77.0431 68.39 79.0711 67.376 79.9551 65.634C79.9811 66.466 80.0331 67.324 80.1631 68H83.5431C83.3091 66.96 83.2051 65.738 83.2051 63.814V60.148C83.2051 56.378 81.0731 54.61 76.4711 54.61C72.3631 54.61 69.6331 56.43 69.3211 59.264H72.8311C73.0391 57.73 74.3391 56.898 76.4711 56.898C78.6551 56.898 79.8251 57.782 79.8251 59.68V59.966L75.1711 60.356C72.7271 60.59 71.4271 60.954 70.4911 61.552C69.4511 62.202 68.9051 63.242 68.9051 64.49C68.9051 66.908 70.9591 68.39 74.1831 68.39ZM75.3011 66.154C73.4551 66.154 72.3891 65.478 72.3891 64.308C72.3891 63.112 73.2211 62.514 75.4831 62.28L79.8771 61.838V62.514C79.8771 64.724 78.0051 66.154 75.3011 66.154ZM90.8489 49.15H87.4949V68H90.8489V49.15Z" fill="#054217"/>
<path d="M8.736 145.494C13.494 145.494 16.484 142.894 16.484 138.89C16.484 134.912 14.04 132.572 9.958 132.572C7.54 132.572 5.668 133.404 4.732 134.912L5.382 129.634H15.444V126.93H2.756L1.612 137.512L4.784 137.798C5.46 136.056 6.786 135.094 8.944 135.094C11.544 135.094 13 136.55 13 138.994C13 141.412 11.44 142.842 8.788 142.842C6.474 142.842 4.966 141.646 4.576 139.852L1.118 140.32C1.716 143.518 4.602 145.494 8.736 145.494ZM27.2181 145.494C32.5221 145.494 35.7461 141.828 35.7461 135.978C35.7461 130.102 32.5221 126.436 27.2181 126.436C21.9141 126.436 18.6641 130.102 18.6641 135.978C18.6641 141.828 21.9141 145.494 27.2181 145.494ZM27.2181 142.816C24.0461 142.816 22.2001 140.294 22.2001 135.978C22.2001 131.61 24.0461 129.114 27.2181 129.114C30.3901 129.114 32.2361 131.61 32.2361 135.978C32.2361 140.294 30.3901 142.816 27.2181 142.816ZM50.4489 145H54.0629V138.188L61.6549 126.54H57.6769L52.8149 134.262C52.5289 134.73 52.3729 135.042 52.2949 135.354H52.2429C52.1649 135.042 52.0089 134.73 51.7489 134.262L46.9389 126.54H42.8829L50.4489 138.188V145ZM74.6889 138.136C74.6889 133.976 71.9849 131.61 67.3309 131.61C62.7289 131.61 59.7909 134.21 59.7909 138.63C59.7909 142.92 62.7029 145.39 67.4609 145.39C70.7629 145.39 73.1809 144.142 74.4809 141.854L71.8549 140.658C71.0489 142.114 69.5669 142.92 67.5909 142.92C64.8869 142.92 63.1969 141.516 63.0669 139.332H74.6889V138.136ZM71.3609 137.226H63.0669C63.1969 135.068 64.7569 133.742 67.2789 133.742C69.6969 133.742 71.3349 134.964 71.3609 137.096V137.226ZM82.2124 145.39C85.0724 145.39 87.1004 144.376 87.9844 142.634C88.0104 143.466 88.0624 144.324 88.1924 145H91.5724C91.3384 143.96 91.2344 142.738 91.2344 140.814V137.148C91.2344 133.378 89.1024 131.61 84.5004 131.61C80.3924 131.61 77.6624 133.43 77.3504 136.264H80.8604C81.0684 134.73 82.3684 133.898 84.5004 133.898C86.6844 133.898 87.8544 134.782 87.8544 136.68V136.966L83.2004 137.356C80.7564 137.59 79.4564 137.954 78.5204 138.552C77.4804 139.202 76.9344 140.242 76.9344 141.49C76.9344 143.908 78.9884 145.39 82.2124 145.39ZM83.3304 143.154C81.4844 143.154 80.4184 142.478 80.4184 141.308C80.4184 140.112 81.2504 139.514 83.5124 139.28L87.9064 138.838V139.514C87.9064 141.724 86.0344 143.154 83.3304 143.154ZM98.4368 135.406V132H95.3688V145H98.7228V139.93C98.7228 138.37 98.9568 136.888 99.9968 135.848C100.699 135.146 101.687 134.756 103.195 134.756C103.559 134.756 103.871 134.782 104.209 134.834V131.74C103.897 131.688 103.637 131.662 103.273 131.662C100.829 131.662 99.1128 133.17 98.4368 135.406ZM112.548 145.39C116.838 145.39 118.97 143.778 118.97 141.126C118.97 138.942 117.774 137.616 114.706 137.33L110.936 136.992C109.48 136.836 108.83 136.368 108.83 135.484C108.83 134.444 109.896 133.898 111.872 133.898C114.316 133.898 115.824 134.704 116.786 136.134L118.918 134.782C117.878 132.806 115.434 131.61 112.054 131.61C108.024 131.61 105.684 133.092 105.684 135.666C105.684 137.85 107.14 139.202 110.156 139.514L113.77 139.826C115.304 139.982 115.85 140.398 115.85 141.386C115.85 142.478 114.836 143.05 112.782 143.05C110.026 143.05 108.258 142.114 107.322 140.398L105.034 141.672C106.282 144.09 108.804 145.39 112.548 145.39Z" fill="#054217"/>
<path d="M186.356 145H189.788V126.93H186.876C186.226 128.906 184.588 130.024 182.3 130.05H181.702V133.04H182.664C184.198 133.04 185.68 132.546 186.356 131.74V145ZM202.531 145.494C207.835 145.494 211.059 141.828 211.059 135.978C211.059 130.102 207.835 126.436 202.531 126.436C197.227 126.436 193.977 130.102 193.977 135.978C193.977 141.828 197.227 145.494 202.531 145.494ZM202.531 142.816C199.359 142.816 197.513 140.294 197.513 135.978C197.513 131.61 199.359 129.114 202.531 129.114C205.703 129.114 207.549 131.61 207.549 135.978C207.549 140.294 205.703 142.816 202.531 142.816ZM222.056 145.494C227.36 145.494 230.584 141.828 230.584 135.978C230.584 130.102 227.36 126.436 222.056 126.436C216.752 126.436 213.502 130.102 213.502 135.978C213.502 141.828 216.752 145.494 222.056 145.494ZM222.056 142.816C218.884 142.816 217.038 140.294 217.038 135.978C217.038 131.61 218.884 129.114 222.056 129.114C225.228 129.114 227.074 131.61 227.074 135.978C227.074 140.294 225.228 142.816 222.056 142.816ZM255.764 145H259.534L251.474 126.54H247.392L239.332 145H243.102L244.922 140.502H253.944L255.764 145ZM245.962 137.876L248.25 132.208C248.796 131.038 249.134 130.284 249.42 129.244H249.472C249.732 130.284 250.07 131.038 250.616 132.208L252.904 137.876H245.962ZM268.292 145.39C272.14 145.39 274.844 143.596 275.494 140.632L272.166 140.06C271.698 141.88 270.372 142.842 268.292 142.842C265.692 142.842 264.08 141.204 264.08 138.448C264.08 135.744 265.64 134.132 268.24 134.132C270.346 134.132 271.698 135.12 272.088 136.914L275.52 136.42C274.896 133.326 272.322 131.61 268.344 131.61C263.586 131.61 260.596 134.236 260.596 138.474C260.596 142.686 263.612 145.39 268.292 145.39ZM281.697 135.406V132H278.629V145H281.983V139.93C281.983 138.37 282.217 136.888 283.257 135.848C283.959 135.146 284.947 134.756 286.455 134.756C286.819 134.756 287.131 134.782 287.469 134.834V131.74C287.157 131.688 286.897 131.662 286.533 131.662C284.089 131.662 282.373 133.17 281.697 135.406ZM303.398 138.136C303.398 133.976 300.694 131.61 296.04 131.61C291.438 131.61 288.5 134.21 288.5 138.63C288.5 142.92 291.412 145.39 296.17 145.39C299.472 145.39 301.89 144.142 303.19 141.854L300.564 140.658C299.758 142.114 298.276 142.92 296.3 142.92C293.596 142.92 291.906 141.516 291.776 139.332H303.398V138.136ZM300.07 137.226H291.776C291.906 135.068 293.466 133.742 295.988 133.742C298.406 133.742 300.044 134.964 300.07 137.096V137.226ZM312.718 145.39C317.008 145.39 319.14 143.778 319.14 141.126C319.14 138.942 317.944 137.616 314.876 137.33L311.106 136.992C309.65 136.836 309 136.368 309 135.484C309 134.444 310.066 133.898 312.042 133.898C314.486 133.898 315.994 134.704 316.956 136.134L319.088 134.782C318.048 132.806 315.604 131.61 312.224 131.61C308.194 131.61 305.854 133.092 305.854 135.666C305.854 137.85 307.31 139.202 310.326 139.514L313.94 139.826C315.474 139.982 316.02 140.398 316.02 141.386C316.02 142.478 315.006 143.05 312.952 143.05C310.196 143.05 308.428 142.114 307.492 140.398L305.204 141.672C306.452 144.09 308.974 145.39 312.718 145.39Z" fill="#054217"/>
<path d="M188.008 35.272C190.904 35.272 192.376 33.736 192.376 31.784C192.376 29.768 191.128 28.904 189.256 28.504L187.608 28.152C186.36 27.88 185.848 27.4 185.848 26.472C185.848 25.512 186.68 24.936 187.912 24.936C189.416 24.936 190.36 25.688 190.728 27L192.376 26.136C191.88 24.248 190.168 23.368 188.008 23.368C185.448 23.368 183.848 24.664 183.848 26.632C183.848 28.568 185.032 29.528 186.824 29.896L188.408 30.232C189.656 30.488 190.328 30.872 190.328 31.976C190.328 33.16 189.24 33.624 188.072 33.624C186.312 33.624 185.384 32.6 185 31.32L183.24 32.088C183.704 33.944 185.32 35.272 188.008 35.272ZM201.033 30.6C201.033 28.152 199.705 26.808 197.385 26.808C195.001 26.808 193.561 28.44 193.561 31.08C193.561 33.704 195.033 35.192 197.481 35.192C199.113 35.192 200.377 34.424 200.969 33.032L199.497 32.36C199.129 33.224 198.457 33.688 197.545 33.688C196.281 33.688 195.433 32.824 195.417 31.48H201.033V30.6ZM199.145 30.216H195.417C195.449 28.888 196.137 28.088 197.353 28.088C198.489 28.088 199.145 28.776 199.145 30.088V30.216ZM209.846 30.6C209.846 28.152 208.518 26.808 206.198 26.808C203.814 26.808 202.374 28.44 202.374 31.08C202.374 33.704 203.846 35.192 206.294 35.192C207.926 35.192 209.19 34.424 209.782 33.032L208.31 32.36C207.942 33.224 207.27 33.688 206.358 33.688C205.094 33.688 204.246 32.824 204.23 31.48H209.846V30.6ZM207.958 30.216H204.23C204.262 28.888 204.95 28.088 206.166 28.088C207.302 28.088 207.958 28.776 207.958 30.088V30.216ZM214.434 35.192C215.634 35.192 216.546 34.584 216.994 33.56V35H218.802V23.4H216.882V28.136C216.434 27.24 215.634 26.808 214.578 26.808C212.578 26.808 211.202 28.504 211.202 31.016C211.202 33.512 212.498 35.192 214.434 35.192ZM215.09 33.72C213.922 33.72 213.202 32.696 213.202 30.984C213.202 29.272 213.906 28.28 215.074 28.28C216.226 28.28 216.93 29.192 216.93 30.76V31.272C216.93 32.776 216.21 33.72 215.09 33.72ZM223.436 23.4H221.516V35H223.436V23.4ZM225.965 25.672H228.045V23.672H225.965V25.672ZM226.061 35H227.981V27H226.061V35ZM230.53 35H232.45V30.76C232.45 29.24 233.122 28.344 234.242 28.344C235.25 28.344 235.746 28.968 235.746 30.232V35H237.666V30.04C237.666 27.896 236.754 26.808 235.01 26.808C233.778 26.808 232.898 27.384 232.354 28.552V27H230.53V35ZM246.67 27.064C246.91 27.064 247.118 27.096 247.326 27.144V25.704C247.166 25.672 247.038 25.656 246.878 25.656C245.726 25.656 245.038 26.248 244.782 27.128C244.302 26.92 243.742 26.808 243.086 26.808C241.054 26.808 239.806 27.912 239.806 29.496C239.806 30.328 240.158 31.048 240.782 31.544C239.998 31.848 239.518 32.408 239.518 33.24C239.518 33.864 239.822 34.392 240.526 34.68C239.662 34.968 239.198 35.544 239.198 36.248C239.198 37.384 240.206 38.312 242.958 38.312C245.838 38.312 247.23 37.24 247.23 35.592C247.23 34.104 246.27 33.288 244.398 33.288H242.302C241.422 33.288 241.086 32.984 241.086 32.552C241.086 32.264 241.246 32.072 241.486 31.944C241.934 32.136 242.478 32.232 243.086 32.232C245.134 32.232 246.382 31.08 246.382 29.496C246.382 28.712 246.078 28.056 245.534 27.576C245.758 27.24 246.158 27.064 246.67 27.064ZM243.086 31.064C242.19 31.064 241.614 30.408 241.614 29.496C241.614 28.6 242.19 27.976 243.086 27.976C243.982 27.976 244.558 28.6 244.558 29.512C244.558 30.408 243.982 31.064 243.086 31.064ZM244.11 34.936C245.022 34.936 245.486 35.272 245.486 35.912C245.486 36.568 244.91 37.064 243.086 37.064C241.71 37.064 240.798 36.744 240.798 35.896C240.798 35.512 240.974 35.144 241.358 34.904C241.566 34.92 241.79 34.936 242.03 34.936H244.11ZM251.645 35.192C253.725 35.192 254.925 34.168 254.925 32.664C254.925 31.4 254.253 30.632 252.717 30.36L251.149 30.072C250.445 29.944 250.077 29.704 250.077 29.16C250.077 28.536 250.589 28.2 251.485 28.2C252.541 28.2 253.245 28.648 253.629 29.368L254.957 28.648C254.573 27.496 253.293 26.808 251.581 26.808C249.549 26.808 248.317 27.832 248.317 29.272C248.317 30.552 249.117 31.336 250.605 31.608L252.029 31.864C252.829 31.992 253.181 32.216 253.181 32.792C253.181 33.368 252.669 33.784 251.677 33.784C250.541 33.784 249.741 33.272 249.389 32.376L247.949 33.016C248.461 34.424 249.821 35.192 251.645 35.192ZM265.513 23.64H261.017V35H263.081V30.6H265.497C267.945 30.6 269.481 29.24 269.481 27.096C269.481 25 267.929 23.64 265.513 23.64ZM265.129 29.032H263.081V25.224H265.129C266.473 25.224 267.305 25.96 267.305 27.128C267.305 28.312 266.473 29.032 265.129 29.032ZM273.03 23.4H271.11V35H273.03V23.4ZM277.687 35.192C278.967 35.192 279.975 34.6 280.359 33.624C280.375 34.12 280.423 34.6 280.487 35H282.407C282.247 34.44 282.167 33.608 282.167 32.52V30.136C282.167 27.816 281.111 26.808 278.743 26.808C276.679 26.808 275.335 27.864 275.207 29.576H277.175C277.239 28.664 277.799 28.168 278.743 28.168C279.767 28.168 280.231 28.68 280.231 29.88V30.088L278.535 30.296C277.271 30.472 276.503 30.68 275.927 31.016C275.287 31.416 274.951 32.056 274.951 32.824C274.951 34.248 276.039 35.192 277.687 35.192ZM278.295 33.832C277.447 33.832 276.935 33.4 276.935 32.728C276.935 32.04 277.415 31.656 278.471 31.48L280.279 31.208V31.72C280.279 32.984 279.479 33.832 278.295 33.832ZM284.53 35H286.45V30.76C286.45 29.24 287.122 28.344 288.242 28.344C289.25 28.344 289.746 28.968 289.746 30.232V35H291.666V30.04C291.666 27.896 290.754 26.808 289.01 26.808C287.778 26.808 286.898 27.384 286.354 28.552V27H284.53V35ZM292.754 28.392H294.194V32.52C294.194 34.136 294.834 35.144 296.754 35.144C297.25 35.144 297.602 35.096 298.066 35V33.384C297.81 33.432 297.602 33.48 297.282 33.48C296.482 33.48 296.114 33.064 296.114 32.216V28.392H298.066V27H296.114V24.216L294.194 24.984V27H292.754V28.392ZM306.549 30.6C306.549 28.152 305.221 26.808 302.901 26.808C300.517 26.808 299.077 28.44 299.077 31.08C299.077 33.704 300.549 35.192 302.997 35.192C304.629 35.192 305.893 34.424 306.485 33.032L305.013 32.36C304.645 33.224 303.973 33.688 303.061 33.688C301.797 33.688 300.949 32.824 300.933 31.48H306.549V30.6ZM304.661 30.216H300.933C300.965 28.888 301.653 28.088 302.869 28.088C304.005 28.088 304.661 28.776 304.661 30.088V30.216ZM311.137 35.192C312.337 35.192 313.249 34.584 313.697 33.56V35H315.505V23.4H313.585V28.136C313.137 27.24 312.337 26.808 311.281 26.808C309.281 26.808 307.905 28.504 307.905 31.016C307.905 33.512 309.201 35.192 311.137 35.192ZM311.793 33.72C310.625 33.72 309.905 32.696 309.905 30.984C309.905 29.272 310.609 28.28 311.777 28.28C312.929 28.28 313.633 29.192 313.633 30.76V31.272C313.633 32.776 312.913 33.72 311.793 33.72Z" fill="#362B26"/>
<path d="M186.356 68H189.788V49.93H186.876C186.226 51.906 184.588 53.024 182.3 53.05H181.702V56.04H182.664C184.198 56.04 185.68 55.546 186.356 54.74V68ZM202.531 68.494C207.835 68.494 211.059 64.828 211.059 58.978C211.059 53.102 207.835 49.436 202.531 49.436C197.227 49.436 193.977 53.102 193.977 58.978C193.977 64.828 197.227 68.494 202.531 68.494ZM202.531 65.816C199.359 65.816 197.513 63.294 197.513 58.978C197.513 54.61 199.359 52.114 202.531 52.114C205.703 52.114 207.549 54.61 207.549 58.978C207.549 63.294 205.703 65.816 202.531 65.816ZM222.056 68.494C227.36 68.494 230.584 64.828 230.584 58.978C230.584 53.102 227.36 49.436 222.056 49.436C216.752 49.436 213.502 53.102 213.502 58.978C213.502 64.828 216.752 68.494 222.056 68.494ZM222.056 65.816C218.884 65.816 217.038 63.294 217.038 58.978C217.038 54.61 218.884 52.114 222.056 52.114C225.228 52.114 227.074 54.61 227.074 58.978C227.074 63.294 225.228 65.816 222.056 65.816ZM233.798 71.9C236.138 71.25 236.944 69.898 236.944 67.714V64.23H232.992V68H235.02V68.078C235.02 69.248 234.63 69.95 233.174 70.392L233.798 71.9ZM247.853 68.494C253.157 68.494 256.381 64.828 256.381 58.978C256.381 53.102 253.157 49.436 247.853 49.436C242.549 49.436 239.299 53.102 239.299 58.978C239.299 64.828 242.549 68.494 247.853 68.494ZM247.853 65.816C244.681 65.816 242.835 63.294 242.835 58.978C242.835 54.61 244.681 52.114 247.853 52.114C251.025 52.114 252.871 54.61 252.871 58.978C252.871 63.294 251.025 65.816 247.853 65.816ZM267.378 68.494C272.682 68.494 275.906 64.828 275.906 58.978C275.906 53.102 272.682 49.436 267.378 49.436C262.074 49.436 258.824 53.102 258.824 58.978C258.824 64.828 262.074 68.494 267.378 68.494ZM267.378 65.816C264.206 65.816 262.36 63.294 262.36 58.978C262.36 54.61 264.206 52.114 267.378 52.114C270.55 52.114 272.396 54.61 272.396 58.978C272.396 63.294 270.55 65.816 267.378 65.816ZM286.904 68.494C292.208 68.494 295.432 64.828 295.432 58.978C295.432 53.102 292.208 49.436 286.904 49.436C281.6 49.436 278.35 53.102 278.35 58.978C278.35 64.828 281.6 68.494 286.904 68.494ZM286.904 65.816C283.732 65.816 281.886 63.294 281.886 58.978C281.886 54.61 283.732 52.114 286.904 52.114C290.076 52.114 291.922 54.61 291.922 58.978C291.922 63.294 290.076 65.816 286.904 65.816Z" fill="#054217"/>
<path d="M278 293H333C338.523 293 343 297.477 343 303V326C343 331.523 338.523 336 333 336H278V293Z" fill="#FF4D24"/>
<rect x="209" y="293" width="65" height="43" fill="#00823B"/>
<rect x="140" y="293" width="65" height="43" fill="#00823B"/>
<rect x="71" y="293" width="65" height="43" fill="#00823B"/>
<path d="M2 303C2 297.477 6.47715 293 12 293H67V336H12C6.47715 336 2 331.523 2 326V303Z" fill="#00823B"/>
<path d="M11.7945 346.9H7.92449V354H9.71449V351.55H11.7345C13.4345 351.55 14.5045 350.64 14.5045 349.18C14.5045 347.78 13.4545 346.9 11.7945 346.9ZM11.3545 350.31H9.71449V348.16H11.3545C12.1645 348.16 12.6145 348.55 12.6145 349.23C12.6145 349.92 12.1545 350.31 11.3545 350.31ZM20.2833 354H22.2633L20.5633 351.11C21.6133 350.78 22.0533 349.95 22.0533 349.1C22.0533 347.89 21.3033 346.9 19.3333 346.9H15.4733V354H17.2633V351.35H18.7833L20.2833 354ZM17.2633 348.14H18.9433C19.8333 348.14 20.1733 348.56 20.1733 349.12C20.1733 349.71 19.8333 350.15 18.9433 350.15H17.2633V348.14ZM26.707 354.2C29.157 354.2 30.747 352.74 30.747 350.45C30.747 348.16 29.157 346.7 26.707 346.7C24.257 346.7 22.667 348.16 22.667 350.45C22.667 352.74 24.257 354.2 26.707 354.2ZM26.707 352.82C25.377 352.82 24.537 351.9 24.537 350.45C24.537 348.99 25.377 348.08 26.707 348.08C28.037 348.08 28.877 348.99 28.877 350.45C28.877 351.91 28.037 352.82 26.707 352.82ZM35.4751 354.2C37.4551 354.2 38.7751 353.27 39.2251 351.71L37.3951 351.32C37.1851 352.26 36.5251 352.78 35.5151 352.78C34.1751 352.78 33.3551 351.86 33.3551 350.45C33.3551 349.01 34.1551 348.11 35.4751 348.11C36.5251 348.11 37.1851 348.66 37.3651 349.63L39.2051 349.31C38.8951 347.69 37.5351 346.7 35.5151 346.7C33.0851 346.7 31.4951 348.21 31.4951 350.47C31.4951 352.74 32.9751 354.2 35.4751 354.2ZM40.0978 346.9V351.21C40.0978 353.01 41.3778 354.2 43.5978 354.2C45.8178 354.2 47.0978 353.02 47.0978 351.22V346.9H45.2978V351.1C45.2978 352.09 44.6778 352.77 43.5978 352.77C42.5178 352.77 41.8978 352.09 41.8978 351.1V346.9H40.0978ZM53.3595 354H55.3395L53.6395 351.11C54.6895 350.78 55.1295 349.95 55.1295 349.1C55.1295 347.89 54.3795 346.9 52.4095 346.9H48.5495V354H50.3395V351.35H51.8595L53.3595 354ZM50.3395 348.14H52.0195C52.9095 348.14 53.2495 348.56 53.2495 349.12C53.2495 349.71 52.9095 350.15 52.0195 350.15H50.3395V348.14ZM58.2496 352.69V351.01H62.1096V349.75H58.2496V348.2H62.2796V346.9H56.4596V354H62.3496V352.69H58.2496Z" fill="#054217"/>
<path d="M81.73 346.9H77.86V354H79.65V351.55H81.67C83.37 351.55 84.44 350.64 84.44 349.18C84.44 347.78 83.39 346.9 81.73 346.9ZM81.29 350.31H79.65V348.16H81.29C82.1 348.16 82.55 348.55 82.55 349.23C82.55 349.92 82.09 350.31 81.29 350.31ZM90.2189 354H92.1989L90.4989 351.11C91.5489 350.78 91.9889 349.95 91.9889 349.1C91.9889 347.89 91.2389 346.9 89.2689 346.9H85.4089V354H87.1989V351.35H88.7189L90.2189 354ZM87.1989 348.14H88.8789C89.7689 348.14 90.1089 348.56 90.1089 349.12C90.1089 349.71 89.7689 350.15 88.8789 350.15H87.1989V348.14ZM95.109 352.69V351.01H98.969V349.75H95.109V348.2H99.139V346.9H93.319V354H99.209V352.69H95.109ZM104.445 346.9H100.575V354H102.365V351.55H104.385C106.085 351.55 107.155 350.64 107.155 349.18C107.155 347.78 106.105 346.9 104.445 346.9ZM104.005 350.31H102.365V348.16H104.005C104.815 348.16 105.265 348.55 105.265 349.23C105.265 349.92 104.805 350.31 104.005 350.31ZM112.806 354H114.666L111.656 346.9H109.526L106.506 354H108.366L108.966 352.45H112.216L112.806 354ZM109.436 351.23L110.116 349.45C110.336 348.94 110.476 348.61 110.576 348.13H110.596C110.706 348.61 110.846 348.94 111.066 349.45L111.746 351.23H109.436ZM120.424 354H122.404L120.704 351.11C121.754 350.78 122.194 349.95 122.194 349.1C122.194 347.89 121.444 346.9 119.474 346.9H115.614V354H117.404V351.35H118.924L120.424 354ZM117.404 348.14H119.084C119.974 348.14 120.314 348.56 120.314 349.12C120.314 349.71 119.974 350.15 119.084 350.15H117.404V348.14ZM125.314 352.69V351.01H129.174V349.75H125.314V348.2H129.344V346.9H123.524V354H129.414V352.69H125.314Z" fill="#054217"/>
<path d="M158.044 346.9H154.174V354H155.964V351.55H157.984C159.684 351.55 160.754 350.64 160.754 349.18C160.754 347.78 159.704 346.9 158.044 346.9ZM157.604 350.31H155.964V348.16H157.604C158.414 348.16 158.864 348.55 158.864 349.23C158.864 349.92 158.404 350.31 157.604 350.31ZM161.723 354H167.233V352.56H163.513V346.9H161.723V354ZM174.101 354H175.961L172.951 346.9H170.821L167.801 354H169.661L170.261 352.45H173.511L174.101 354ZM170.731 351.23L171.411 349.45C171.631 348.94 171.771 348.61 171.871 348.13H171.891C172.001 348.61 172.141 348.94 172.361 349.45L173.041 351.23H170.731ZM176.909 354H178.549V350C178.549 349.66 178.549 349.35 178.539 349.05H178.569C178.669 349.29 178.869 349.61 179.039 349.88L182.099 354H183.959V346.9H182.319V350.89V351.83H182.299C182.189 351.57 182.009 351.25 181.819 350.97L178.869 346.9H176.909V354ZM191.57 346.9H184.86V348.32H187.32V354H189.11V348.32H191.57V346.9Z" fill="#054217"/>
<path d="M216.185 346.9H212.315V354H214.105V351.55H216.125C217.825 351.55 218.895 350.64 218.895 349.18C218.895 347.78 217.845 346.9 216.185 346.9ZM215.745 350.31H214.105V348.16H215.745C216.555 348.16 217.005 348.55 217.005 349.23C217.005 349.92 216.545 350.31 215.745 350.31ZM224.674 354H226.654L224.954 351.11C226.004 350.78 226.444 349.95 226.444 349.1C226.444 347.89 225.694 346.9 223.724 346.9H219.864V354H221.654V351.35H223.174L224.674 354ZM221.654 348.14H223.334C224.224 348.14 224.564 348.56 224.564 349.12C224.564 349.71 224.224 350.15 223.334 350.15H221.654V348.14ZM229.564 352.69V351.01H233.424V349.75H229.564V348.2H233.594V346.9H227.774V354H233.664V352.69H229.564ZM237.871 354.2C240.021 354.2 241.241 353.31 241.241 351.86C241.241 350.61 240.521 350.01 238.961 349.76L237.531 349.55C236.681 349.41 236.391 349.21 236.391 348.75C236.391 348.27 236.901 348 237.771 348C238.821 348 239.631 348.41 240.071 349.12L241.241 348.14C240.571 347.17 239.391 346.7 237.871 346.7C235.871 346.7 234.681 347.51 234.681 348.86C234.681 350.09 235.431 350.76 236.891 350.99L238.361 351.21C239.161 351.33 239.471 351.53 239.471 352.02C239.471 352.59 238.911 352.85 237.951 352.85C236.781 352.85 235.961 352.35 235.501 351.55L234.181 352.47C234.771 353.55 236.091 354.2 237.871 354.2ZM244.144 352.69V351.01H248.004V349.75H244.144V348.2H248.174V346.9H242.354V354H248.244V352.69H244.144ZM254.42 354H256.4L254.7 351.11C255.75 350.78 256.19 349.95 256.19 349.1C256.19 347.89 255.44 346.9 253.47 346.9H249.61V354H251.4V351.35H252.92L254.42 354ZM251.4 348.14H253.08C253.97 348.14 254.31 348.56 254.31 349.12C254.31 349.71 253.97 350.15 253.08 350.15H251.4V348.14ZM259.258 354H261.378L264.248 346.9H262.288L260.558 351.58C260.438 351.94 260.378 352.18 260.338 352.44H260.298C260.258 352.18 260.188 351.94 260.068 351.58L258.348 346.9H256.388L259.258 354ZM266.859 352.69V351.01H270.719V349.75H266.859V348.2H270.889V346.9H265.069V354H270.959V352.69H266.859Z" fill="#054217"/>
<path d="M288.916 346.9H285.046V354H286.836V351.55H288.856C290.556 351.55 291.626 350.64 291.626 349.18C291.626 347.78 290.576 346.9 288.916 346.9ZM288.476 350.31H286.836V348.16H288.476C289.286 348.16 289.736 348.55 289.736 349.23C289.736 349.92 289.276 350.31 288.476 350.31ZM297.404 354H299.384L297.684 351.11C298.734 350.78 299.174 349.95 299.174 349.1C299.174 347.89 298.424 346.9 296.454 346.9H292.594V354H294.384V351.35H295.904L297.404 354ZM294.384 348.14H296.064C296.954 348.14 297.294 348.56 297.294 349.12C297.294 349.71 296.954 350.15 296.064 350.15H294.384V348.14ZM303.828 354.2C306.278 354.2 307.868 352.74 307.868 350.45C307.868 348.16 306.278 346.7 303.828 346.7C301.378 346.7 299.788 348.16 299.788 350.45C299.788 352.74 301.378 354.2 303.828 354.2ZM303.828 352.82C302.498 352.82 301.658 351.9 301.658 350.45C301.658 348.99 302.498 348.08 303.828 348.08C305.158 348.08 305.998 348.99 305.998 350.45C305.998 351.91 305.158 352.82 303.828 352.82ZM314.58 346.9H307.87V348.32H310.33V354H312.12V348.32H314.58V346.9ZM317.265 352.69V351.01H321.125V349.75H317.265V348.2H321.295V346.9H315.475V354H321.365V352.69H317.265ZM326.043 354.2C328.023 354.2 329.343 353.27 329.793 351.71L327.963 351.32C327.753 352.26 327.093 352.78 326.083 352.78C324.743 352.78 323.923 351.86 323.923 350.45C323.923 349.01 324.723 348.11 326.043 348.11C327.093 348.11 327.753 348.66 327.933 349.63L329.773 349.31C329.463 347.69 328.103 346.7 326.083 346.7C323.653 346.7 322.063 348.21 322.063 350.47C322.063 352.74 323.543 354.2 326.043 354.2ZM336.699 346.9H329.989V348.32H332.449V354H334.239V348.32H336.699V346.9Z" fill="#054217"/>
<path fill-rule="evenodd" clip-rule="evenodd" d="M312 313V306H308L308 313L301 313V317L308 317L308 324H312V317L319 317V313L312 313Z" fill="white"/>
<path fill-rule="evenodd" clip-rule="evenodd" d="M249.69 310.519L239.525 321.731L233 315.988L235.478 313.173L239.229 316.475L246.912 308L249.69 310.519Z" fill="white"/>
<path fill-rule="evenodd" clip-rule="evenodd" d="M180.69 310.519L170.525 321.731L164 315.988L166.478 313.173L170.229 316.475L177.912 308L180.69 310.519Z" fill="white"/>
<path fill-rule="evenodd" clip-rule="evenodd" d="M111.69 310.519L101.525 321.731L95 315.988L97.4777 313.173L101.229 316.475L108.912 308L111.69 310.519Z" fill="white"/>
<path fill-rule="evenodd" clip-rule="evenodd" d="M42.6905 310.519L32.5252 321.731L26 315.988L28.4777 313.173L32.229 316.475L39.9122 308L42.6905 310.519Z" fill="white"/>
<path d="M189.92 395.272C192.688 395.272 194.24 393.656 194.72 391.384L192.672 390.968C192.384 392.568 191.392 393.544 189.936 393.544C187.856 393.544 186.736 391.768 186.736 389.288C186.736 386.744 187.888 385.064 189.888 385.064C191.456 385.064 192.4 386.088 192.592 387.704L194.704 387.4C194.4 384.984 192.784 383.368 189.952 383.368C186.544 383.368 184.608 385.768 184.608 389.304C184.608 392.744 186.352 395.272 189.92 395.272ZM201.297 395.272C204.561 395.272 206.673 392.984 206.673 389.32C206.673 385.624 204.561 383.368 201.297 383.368C198.033 383.368 195.921 385.624 195.921 389.32C195.921 392.952 198.033 395.272 201.297 395.272ZM201.297 393.608C199.265 393.608 198.065 391.944 198.065 389.32C198.065 386.648 199.265 385.032 201.297 385.032C203.345 385.032 204.529 386.648 204.529 389.32C204.529 391.992 203.345 393.608 201.297 393.608ZM207.793 395H215.601V393.352H210.465C211.569 392.664 212.417 392.024 213.217 391.304C214.769 389.896 215.489 388.584 215.489 387.048C215.489 384.872 214.097 383.64 211.745 383.64C209.345 383.64 207.857 384.936 207.857 386.968C207.857 387.24 207.889 387.544 207.969 387.848L209.953 388.04C209.873 387.672 209.841 387.336 209.841 387.064C209.841 385.96 210.513 385.256 211.649 385.256C212.769 385.256 213.393 385.928 213.393 387.144C213.393 388.36 212.945 389.256 211.681 390.44C210.465 391.592 209.057 392.664 207.793 393.496V395ZM223.831 393.384V389.976H228.871V388.376H223.831V385.256H229.143V383.64H221.767V395H229.255V393.384H223.831ZM236.335 398.12H238.255V387H236.687L236.431 388.232C235.967 387.272 235.183 386.808 234.047 386.808C232.063 386.808 230.655 388.44 230.655 391.016C230.655 393.544 231.967 395.192 233.887 395.192C235.039 395.192 235.903 394.6 236.335 393.688V398.12ZM234.527 393.72C233.343 393.72 232.655 392.696 232.655 390.984C232.655 389.256 233.359 388.28 234.511 388.28C235.663 388.28 236.383 389.224 236.383 390.712V391.304C236.383 392.808 235.647 393.72 234.527 393.72ZM243.323 395.192C244.475 395.192 245.435 394.504 245.819 393.512V395H247.643V387H245.707V391.432C245.707 392.776 245.003 393.656 243.947 393.656C243.019 393.656 242.539 393.016 242.539 391.848V387H240.619V392.136C240.619 394.008 241.371 395.192 243.323 395.192ZM250.09 385.672H252.17V383.672H250.09V385.672ZM250.186 395H252.106V387H250.186V395ZM256.335 395H258.415L261.263 387H259.247L257.695 392.072C257.567 392.488 257.471 392.888 257.407 393.256H257.359C257.295 392.888 257.199 392.488 257.071 392.072L255.503 387H253.487L256.335 395ZM264.562 395.192C265.842 395.192 266.85 394.6 267.234 393.624C267.25 394.12 267.298 394.6 267.362 395H269.282C269.122 394.44 269.042 393.608 269.042 392.52V390.136C269.042 387.816 267.986 386.808 265.618 386.808C263.554 386.808 262.21 387.864 262.082 389.576H264.05C264.114 388.664 264.674 388.168 265.618 388.168C266.642 388.168 267.106 388.68 267.106 389.88V390.088L265.41 390.296C264.146 390.472 263.378 390.68 262.802 391.016C262.162 391.416 261.826 392.056 261.826 392.824C261.826 394.248 262.914 395.192 264.562 395.192ZM265.17 393.832C264.322 393.832 263.81 393.4 263.81 392.728C263.81 392.04 264.29 391.656 265.346 391.48L267.154 391.208V391.72C267.154 392.984 266.354 393.832 265.17 393.832ZM273.405 383.4H271.485V395H273.405V383.4ZM282.83 390.6C282.83 388.152 281.502 386.808 279.182 386.808C276.798 386.808 275.358 388.44 275.358 391.08C275.358 393.704 276.83 395.192 279.278 395.192C280.91 395.192 282.174 394.424 282.766 393.032L281.294 392.36C280.926 393.224 280.254 393.688 279.342 393.688C278.078 393.688 277.23 392.824 277.214 391.48H282.83V390.6ZM280.942 390.216H277.214C277.246 388.888 277.934 388.088 279.15 388.088C280.286 388.088 280.942 388.776 280.942 390.088V390.216ZM284.796 395H286.716V390.76C286.716 389.24 287.388 388.344 288.508 388.344C289.516 388.344 290.012 388.968 290.012 390.232V395H291.932V390.04C291.932 387.896 291.02 386.808 289.276 386.808C288.044 386.808 287.164 387.384 286.62 388.552V387H284.796V395ZM297.528 395.192C299.432 395.192 300.776 394.104 301.064 392.328L299.256 391.96C299.08 393.08 298.488 393.672 297.528 393.672C296.296 393.672 295.576 392.68 295.576 390.952C295.576 389.304 296.312 388.312 297.496 388.312C298.44 388.312 299.064 388.904 299.192 389.992L301.064 389.688C300.824 387.864 299.528 386.808 297.544 386.808C295.112 386.808 293.608 388.392 293.608 391C293.608 393.544 295.144 395.192 297.528 395.192ZM309.767 390.6C309.767 388.152 308.44 386.808 306.12 386.808C303.736 386.808 302.296 388.44 302.296 391.08C302.296 393.704 303.768 395.192 306.216 395.192C307.848 395.192 309.112 394.424 309.704 393.032L308.232 392.36C307.864 393.224 307.192 393.688 306.28 393.688C305.016 393.688 304.168 392.824 304.152 391.48H309.767V390.6ZM307.88 390.216H304.152C304.184 388.888 304.872 388.088 306.088 388.088C307.224 388.088 307.88 388.776 307.88 390.088V390.216Z" fill="#362B26"/>
<path d="M189.356 428H192.788V409.93H189.876C189.226 411.906 187.588 413.024 185.3 413.05H184.702V416.04H185.664C187.198 416.04 188.68 415.546 189.356 414.74V428ZM208.755 418.198C211.043 417.6 212.291 416.222 212.291 414.194C212.291 411.308 209.405 409.436 204.881 409.436C200.331 409.436 197.393 411.386 197.393 414.376C197.393 416.508 198.459 417.886 200.929 418.77C198.225 419.446 196.795 420.98 196.795 423.32C196.795 426.518 199.915 428.494 204.959 428.494C209.899 428.494 212.967 426.388 212.967 423.06C212.967 420.642 211.719 419.134 208.755 418.198ZM204.855 411.776C207.377 411.776 208.859 412.764 208.859 414.506C208.859 415.91 208.079 416.794 206.051 417.522L204.387 417.158C201.917 416.612 200.851 415.78 200.851 414.376C200.851 412.738 202.333 411.776 204.855 411.776ZM204.985 425.972C202.073 425.972 200.331 424.802 200.331 422.904C200.331 421.24 201.319 420.2 203.633 419.498L205.583 419.94C208.339 420.564 209.457 421.448 209.457 423.008C209.457 424.854 207.767 425.972 204.985 425.972ZM231.405 423.71V421.214H228.051V409.93H224.177L214.323 421.448V423.71H224.697V428H228.051V423.71H231.405ZM224.749 415.26V421.214H217.807C218.379 420.694 218.821 420.2 219.549 419.29L223.293 414.87C224.073 413.934 224.437 413.414 224.749 412.764H224.827C224.749 413.44 224.749 413.882 224.749 415.26ZM255.294 409.54H238.316V412.426H244.998V428H248.612V412.426H255.294V409.54ZM261.975 428.39C266.577 428.39 269.723 425.764 269.723 421.5C269.723 417.21 266.577 414.61 261.975 414.61C257.347 414.61 254.201 417.21 254.201 421.5C254.201 425.764 257.347 428.39 261.975 428.39ZM261.975 425.92C259.323 425.92 257.685 424.334 257.685 421.5C257.685 418.64 259.323 417.08 261.975 417.08C264.601 417.08 266.239 418.64 266.239 421.5C266.239 424.334 264.601 425.92 261.975 425.92ZM272.869 428H276.223V421.682C276.223 418.874 277.783 417.236 280.331 417.236C282.723 417.236 283.867 418.536 283.867 421.136V428H287.221V420.694C287.221 416.69 285.297 414.584 281.631 414.584C279.031 414.584 277.159 415.676 276.119 417.782V415H272.869V428ZM291.302 428H294.656V421.682C294.656 418.874 296.216 417.236 298.764 417.236C301.156 417.236 302.3 418.536 302.3 421.136V428H305.654V420.694C305.654 416.69 303.73 414.584 300.064 414.584C297.464 414.584 295.592 415.676 294.552 417.782V415H291.302V428ZM323.41 421.136C323.41 416.976 320.706 414.61 316.052 414.61C311.45 414.61 308.512 417.21 308.512 421.63C308.512 425.92 311.424 428.39 316.182 428.39C319.484 428.39 321.902 427.142 323.202 424.854L320.576 423.658C319.77 425.114 318.288 425.92 316.312 425.92C313.608 425.92 311.918 424.516 311.788 422.332H323.41V421.136ZM320.082 420.226H311.788C311.918 418.068 313.478 416.742 316 416.742C318.418 416.742 320.056 417.964 320.082 420.096V420.226ZM332.73 428.39C337.02 428.39 339.152 426.778 339.152 424.126C339.152 421.942 337.956 420.616 334.888 420.33L331.118 419.992C329.662 419.836 329.012 419.368 329.012 418.484C329.012 417.444 330.078 416.898 332.054 416.898C334.498 416.898 336.006 417.704 336.968 419.134L339.1 417.782C338.06 415.806 335.616 414.61 332.236 414.61C328.206 414.61 325.866 416.092 325.866 418.666C325.866 420.85 327.322 422.202 330.338 422.514L333.952 422.826C335.486 422.982 336.032 423.398 336.032 424.386C336.032 425.478 335.018 426.05 332.964 426.05C330.208 426.05 328.44 425.114 327.504 423.398L325.216 424.672C326.464 427.09 328.986 428.39 332.73 428.39Z" fill="#054217"/>
<path d="M188.18 451.2C190.14 451.2 191.34 450.24 191.76 448.74L190.37 448.47C190.11 449.49 189.35 450.08 188.22 450.08C186.68 450.08 185.77 448.99 185.77 447.44C185.77 445.84 186.68 444.81 188.19 444.81C189.38 444.81 190.13 445.44 190.33 446.49L191.76 446.28C191.45 444.7 190.21 443.7 188.23 443.7C185.82 443.7 184.33 445.22 184.33 447.45C184.33 449.65 185.71 451.2 188.18 451.2ZM196.953 451.2C199.323 451.2 200.873 449.74 200.873 447.45C200.873 445.15 199.323 443.7 196.953 443.7C194.583 443.7 193.033 445.15 193.033 447.45C193.033 449.73 194.583 451.2 196.953 451.2ZM196.953 450.11C195.433 450.11 194.483 449.06 194.483 447.45C194.483 445.82 195.433 444.79 196.953 444.79C198.473 444.79 199.423 445.82 199.423 447.45C199.423 449.08 198.473 450.11 196.953 450.11ZM202.049 451H207.949V449.92H203.979C204.969 449.5 205.679 449.09 206.299 448.64C207.269 447.9 207.829 447.13 207.829 446.11C207.829 444.73 206.829 443.86 205.009 443.86C203.249 443.86 202.119 444.76 202.119 446.1C202.119 446.28 202.139 446.43 202.179 446.6L203.529 446.73C203.489 446.54 203.469 446.36 203.469 446.22C203.469 445.4 204.039 444.9 204.969 444.9C205.949 444.9 206.419 445.43 206.419 446.18C206.419 446.9 206.139 447.42 205.279 448.1C204.409 448.78 203.279 449.43 202.049 450V451ZM209.174 447.69V448.75H213.114V447.69H209.174ZM216.455 449.94V447.89H220.475V446.86H216.455V444.96H220.645V443.9H215.065V451H220.715V449.94H216.455ZM227.634 450.92C229.044 450.4 229.904 449.15 229.904 447.45C229.904 445.15 228.354 443.7 225.984 443.7C223.614 443.7 222.064 445.15 222.064 447.45C222.064 449.73 223.614 451.2 225.984 451.2C226.174 451.2 226.354 451.19 226.534 451.17C226.964 452.03 227.784 452.51 228.894 452.51C229.184 452.51 229.374 452.49 229.624 452.45V451.33C229.404 451.37 229.244 451.4 228.984 451.4C228.604 451.4 228.074 451.35 227.634 450.92ZM223.514 447.45C223.514 445.82 224.464 444.79 225.984 444.79C227.504 444.79 228.454 445.82 228.454 447.45C228.454 449.08 227.504 450.11 225.984 450.11C224.464 450.11 223.514 449.06 223.514 447.45ZM238.964 443.9H235.384V451H236.774V448.38H238.904C240.534 448.38 241.574 447.5 241.574 446.11C241.574 444.76 240.564 443.9 238.964 443.9ZM238.684 447.36H236.774V444.93H238.684C239.584 444.93 240.124 445.39 240.124 446.14C240.124 446.89 239.574 447.36 238.684 447.36ZM244.608 449.94V447.89H248.628V446.86H244.608V444.96H248.798V443.9H243.218V451H248.868V449.94H244.608ZM255.834 451H257.394L255.564 448.04C256.724 447.74 257.154 446.86 257.154 446.05C257.154 444.95 256.544 443.9 254.584 443.9H250.954V451H252.344V448.22H254.134L255.834 451ZM252.344 444.93H254.324C255.364 444.93 255.704 445.44 255.704 446.06C255.704 446.69 255.354 447.22 254.324 447.22H252.344V444.93ZM263.972 451H265.362V448.38L268.282 443.9H266.752L264.882 446.87C264.772 447.05 264.712 447.17 264.682 447.29H264.662C264.632 447.17 264.572 447.05 264.472 446.87L262.622 443.9H261.062L263.972 448.38V451ZM271.09 449.94V447.89H275.11V446.86H271.09V444.96H275.28V443.9H269.7V451H275.35V449.94H271.09ZM283.084 451H284.534L281.434 443.9H279.864L276.764 451H278.214L278.914 449.27H282.384L283.084 451ZM279.314 448.26L280.194 446.08C280.404 445.63 280.534 445.34 280.644 444.94H280.664C280.764 445.34 280.894 445.63 281.104 446.08L281.984 448.26H279.314ZM291.019 451H292.579L290.749 448.04C291.909 447.74 292.339 446.86 292.339 446.05C292.339 444.95 291.729 443.9 289.769 443.9H286.139V451H287.529V448.22H289.319L291.019 451ZM287.529 444.93H289.509C290.549 444.93 290.889 445.44 290.889 446.06C290.889 446.69 290.539 447.22 289.509 447.22H287.529V444.93Z" fill="#00823B"/>
<path d="M5.184 389.384C6.912 389.384 8.096 388.232 8.096 386.44C8.096 384.648 6.912 383.464 5.168 383.464C3.408 383.464 2.24 384.632 2.256 386.408C2.24 388.232 3.408 389.384 5.184 389.384ZM4.208 395.24H5.712L12.912 383.544H11.44L4.208 395.24ZM5.184 388.168C4.304 388.168 3.728 387.576 3.728 386.408C3.728 385.288 4.304 384.696 5.168 384.696C6.032 384.696 6.592 385.304 6.592 386.44C6.592 387.576 6.032 388.168 5.184 388.168ZM12 395.24C13.728 395.24 14.928 394.088 14.912 392.296C14.928 390.488 13.728 389.32 12 389.32C10.224 389.32 9.056 390.472 9.072 392.264C9.056 394.088 10.224 395.24 12 395.24ZM12 394.024C11.12 394.024 10.544 393.416 10.544 392.264C10.544 391.144 11.12 390.536 12 390.536C12.848 390.536 13.408 391.16 13.408 392.296C13.408 393.416 12.848 394.024 12 394.024ZM28.3224 383.64H19.3784V385.32H22.8184V395H24.8824V385.32H28.3224V383.64ZM31.9343 395.192C34.2383 395.192 35.8542 393.672 35.8542 390.984C35.8542 388.312 34.2383 386.808 31.9343 386.808C29.6303 386.808 28.0143 388.312 28.0143 390.984C28.0143 393.672 29.6303 395.192 31.9343 395.192ZM31.9343 393.736C30.7023 393.736 29.9663 392.808 29.9663 390.984C29.9663 389.16 30.7023 388.264 31.9343 388.264C33.1663 388.264 33.8863 389.16 33.8863 390.984C33.8863 392.808 33.1663 393.736 31.9343 393.736ZM41.9393 395H43.8113V387.608C43.8113 386.984 43.8113 386.536 43.7793 386.104H43.8113C43.9873 386.568 44.1953 386.984 44.4993 387.528L48.8353 395H51.1553V383.64H49.2833V391.064C49.2833 391.672 49.2993 392.12 49.3153 392.536H49.2833C49.1233 392.088 48.8833 391.592 48.5793 391.08L44.3073 383.64H41.9393V395ZM60.6425 390.6C60.6425 388.152 59.3145 386.808 56.9945 386.808C54.6105 386.808 53.1705 388.44 53.1705 391.08C53.1705 393.704 54.6425 395.192 57.0905 395.192C58.7225 395.192 59.9865 394.424 60.5785 393.032L59.1065 392.36C58.7385 393.224 58.0665 393.688 57.1545 393.688C55.8905 393.688 55.0425 392.824 55.0265 391.48H60.6425V390.6ZM58.7545 390.216H55.0265C55.0585 388.888 55.7465 388.088 56.9625 388.088C58.0985 388.088 58.7545 388.776 58.7545 390.088V390.216ZM61.4729 388.392H62.9129V392.52C62.9129 394.136 63.5529 395.144 65.4729 395.144C65.9689 395.144 66.3209 395.096 66.7849 395V393.384C66.5289 393.432 66.3209 393.48 66.0009 393.48C65.2009 393.48 64.8329 393.064 64.8329 392.216V388.392H66.7849V387H64.8329V384.216L62.9129 384.984V387H61.4729V388.392ZM67.5645 389.704V391.4H72.4765V389.704H67.5645ZM73.2319 393.336V395H81.7279V393.352H75.5359L81.4879 385.304V383.64H73.4559V385.304H79.1839L73.2319 393.336ZM90.0331 390.6C90.0331 388.152 88.7051 386.808 86.3851 386.808C84.0011 386.808 82.5611 388.44 82.5611 391.08C82.5611 393.704 84.0331 395.192 86.4811 395.192C88.1131 395.192 89.3771 394.424 89.9691 393.032L88.4971 392.36C88.1291 393.224 87.4571 393.688 86.5451 393.688C85.2811 393.688 84.4331 392.824 84.4171 391.48H90.0331V390.6ZM88.1451 390.216H84.4171C84.4491 388.888 85.1371 388.088 86.3531 388.088C87.4891 388.088 88.1451 388.776 88.1451 390.088V390.216ZM93.7908 388.936V387H91.9988V395H93.9188V391.64C93.9188 390.76 93.9988 389.848 94.6388 389.224C95.0068 388.872 95.5348 388.648 96.3028 388.648C96.3988 388.648 96.4788 388.664 96.5588 388.664V386.824C96.4788 386.808 96.4148 386.808 96.3348 386.808C95.0388 386.808 94.1908 387.672 93.7908 388.936ZM101.309 395.192C103.613 395.192 105.229 393.672 105.229 390.984C105.229 388.312 103.613 386.808 101.309 386.808C99.0053 386.808 97.3893 388.312 97.3893 390.984C97.3893 393.672 99.0053 395.192 101.309 395.192ZM101.309 393.736C100.077 393.736 99.3413 392.808 99.3413 390.984C99.3413 389.16 100.077 388.264 101.309 388.264C102.541 388.264 103.261 389.16 103.261 390.984C103.261 392.808 102.541 393.736 101.309 393.736Z" fill="#362B26"/>
<path d="M7.356 428H10.788V409.93H7.876C7.226 411.906 5.588 413.024 3.3 413.05H2.702V416.04H3.664C5.198 416.04 6.68 415.546 7.356 414.74V428ZM23.5306 428.494C28.8346 428.494 32.0586 424.828 32.0586 418.978C32.0586 413.102 28.8346 409.436 23.5306 409.436C18.2266 409.436 14.9766 413.102 14.9766 418.978C14.9766 424.828 18.2266 428.494 23.5306 428.494ZM23.5306 425.816C20.3586 425.816 18.5126 423.294 18.5126 418.978C18.5126 414.61 20.3586 412.114 23.5306 412.114C26.7026 412.114 28.5486 414.61 28.5486 418.978C28.5486 423.294 26.7026 425.816 23.5306 425.816ZM43.056 428.494C48.36 428.494 51.584 424.828 51.584 418.978C51.584 413.102 48.36 409.436 43.056 409.436C37.752 409.436 34.502 413.102 34.502 418.978C34.502 424.828 37.752 428.494 43.056 428.494ZM43.056 425.816C39.884 425.816 38.038 423.294 38.038 418.978C38.038 414.61 39.884 412.114 43.056 412.114C46.228 412.114 48.074 414.61 48.074 418.978C48.074 423.294 46.228 425.816 43.056 425.816ZM58.6833 418.978C61.8293 418.978 64.0393 417.08 64.0393 414.168C64.0393 411.23 61.8293 409.306 58.6573 409.306C55.4333 409.306 53.2753 411.204 53.3013 414.09C53.2753 417.08 55.4333 418.978 58.6833 418.978ZM56.4993 428.442H59.2812L73.5813 409.332H70.8253L56.4993 428.442ZM58.6833 416.924C57.0193 416.924 55.9273 415.91 55.9273 414.09C55.9273 412.374 57.0193 411.36 58.6573 411.36C60.2953 411.36 61.3613 412.4 61.3613 414.168C61.3613 415.91 60.2953 416.924 58.6833 416.924ZM71.4493 428.442C74.5953 428.442 76.8053 426.544 76.8053 423.632C76.8053 420.694 74.5953 418.77 71.4233 418.77C68.1993 418.77 66.0413 420.668 66.0673 423.554C66.0413 426.544 68.1993 428.442 71.4493 428.442ZM71.4493 426.388C69.7853 426.388 68.6933 425.374 68.6933 423.554C68.6933 421.838 69.7853 420.824 71.4233 420.824C73.0613 420.824 74.1273 421.864 74.1273 423.632C74.1273 425.374 73.0613 426.388 71.4493 426.388Z" fill="#054217"/>
<path d="M8.008 185.272C10.904 185.272 12.376 183.736 12.376 181.784C12.376 179.768 11.128 178.904 9.256 178.504L7.608 178.152C6.36 177.88 5.848 177.4 5.848 176.472C5.848 175.512 6.68 174.936 7.912 174.936C9.416 174.936 10.36 175.688 10.728 177L12.376 176.136C11.88 174.248 10.168 173.368 8.008 173.368C5.448 173.368 3.848 174.664 3.848 176.632C3.848 178.568 5.032 179.528 6.824 179.896L8.408 180.232C9.656 180.488 10.328 180.872 10.328 181.976C10.328 183.16 9.24 183.624 8.072 183.624C6.312 183.624 5.384 182.6 5 181.32L3.24 182.088C3.704 183.944 5.32 185.272 8.008 185.272ZM14.1863 188.12H16.1063V183.848C16.5383 184.632 17.3383 185.192 18.4743 185.192C20.4423 185.192 21.7863 183.56 21.7863 180.984C21.7863 178.456 20.4903 176.808 18.5703 176.808C17.4343 176.808 16.5063 177.352 16.0103 178.392V177H14.1863V188.12ZM17.9143 183.72C16.7783 183.72 16.0583 182.744 16.0583 181.208V180.808C16.0583 179.192 16.7783 178.28 17.9303 178.28C19.0983 178.28 19.7863 179.272 19.7863 180.984C19.7863 182.696 19.0663 183.72 17.9143 183.72ZM30.5331 180.6C30.5331 178.152 29.2051 176.808 26.8851 176.808C24.5011 176.808 23.0611 178.44 23.0611 181.08C23.0611 183.704 24.5331 185.192 26.9811 185.192C28.6131 185.192 29.8771 184.424 30.4691 183.032L28.9971 182.36C28.6291 183.224 27.9571 183.688 27.0451 183.688C25.7811 183.688 24.9331 182.824 24.9171 181.48H30.5331V180.6ZM28.6451 180.216H24.9171C24.9491 178.888 25.6371 178.088 26.8531 178.088C27.9891 178.088 28.6451 178.776 28.6451 180.088V180.216ZM35.7936 185.192C37.6976 185.192 39.0416 184.104 39.3296 182.328L37.5216 181.96C37.3456 183.08 36.7536 183.672 35.7936 183.672C34.5616 183.672 33.8416 182.68 33.8416 180.952C33.8416 179.304 34.5776 178.312 35.7616 178.312C36.7056 178.312 37.3296 178.904 37.4576 179.992L39.3296 179.688C39.0896 177.864 37.7936 176.808 35.8096 176.808C33.3776 176.808 31.8736 178.392 31.8736 181C31.8736 183.544 33.4096 185.192 35.7936 185.192ZM41.0903 175.672H43.1703V173.672H41.0903V175.672ZM41.1863 185H43.1063V177H41.1863V185ZM52.455 180.6C52.455 178.152 51.127 176.808 48.807 176.808C46.423 176.808 44.983 178.44 44.983 181.08C44.983 183.704 46.455 185.192 48.903 185.192C50.535 185.192 51.799 184.424 52.391 183.032L50.919 182.36C50.551 183.224 49.879 183.688 48.967 183.688C47.703 183.688 46.855 182.824 46.839 181.48H52.455V180.6ZM50.567 180.216H46.839C46.871 178.888 47.559 178.088 48.775 178.088C49.911 178.088 50.567 178.776 50.567 180.088V180.216ZM57.3014 185.192C59.3814 185.192 60.5814 184.168 60.5814 182.664C60.5814 181.4 59.9094 180.632 58.3734 180.36L56.8054 180.072C56.1014 179.944 55.7334 179.704 55.7334 179.16C55.7334 178.536 56.2454 178.2 57.1414 178.2C58.1974 178.2 58.9014 178.648 59.2854 179.368L60.6134 178.648C60.2294 177.496 58.9494 176.808 57.2374 176.808C55.2054 176.808 53.9734 177.832 53.9734 179.272C53.9734 180.552 54.7734 181.336 56.2614 181.608L57.6854 181.864C58.4854 181.992 58.8374 182.216 58.8374 182.792C58.8374 183.368 58.3254 183.784 57.3334 183.784C56.1974 183.784 55.3974 183.272 55.0454 182.376L53.6054 183.016C54.1174 184.424 55.4774 185.192 57.3014 185.192Z" fill="#362B26"/>
<path d="M6.704 216H10.106L13.256 205.206C13.361 204.87 13.445 204.534 13.445 204.219H13.55C13.571 204.534 13.655 204.87 13.76 205.206L16.91 216H20.291L24.533 201.09H21.572L18.8 212.01C18.695 212.43 18.611 212.766 18.59 213.102H18.527C18.485 212.787 18.38 212.43 18.254 212.01L14.978 201.09H12.017L8.741 212.01C8.615 212.43 8.51 212.787 8.489 213.102H8.426C8.384 212.766 8.321 212.43 8.216 212.01L5.423 201.09H2.462L6.704 216ZM26.9003 216H29.6093V210.876C29.6093 208.629 30.8483 207.285 32.8853 207.285C34.7963 207.285 35.7833 208.398 35.7833 210.54V216H38.4923V210.267C38.4923 206.928 36.9173 205.164 33.9353 205.164C31.9403 205.164 30.4073 206.025 29.6093 207.621V200.775H26.9003V216ZM41.6605 203.757H44.6215V201.048H41.6605V203.757ZM41.7865 216H44.4955V205.5H41.7865V216ZM46.5279 207.411H48.9639V212.43C48.9639 214.74 50.0139 216.231 53.0169 216.231C53.9199 216.231 54.6549 216.105 55.2429 215.937V213.774C54.8019 213.879 54.2979 213.963 53.6889 213.963C52.3239 213.963 51.6729 213.354 51.6729 212.01V207.411H55.2429V205.5H51.6729V201.825L48.9639 202.875V205.5H46.5279V207.411ZM68.3959 210.456C68.3959 207.096 66.2119 205.185 62.4529 205.185C58.7359 205.185 56.3629 207.285 56.3629 210.855C56.3629 214.32 58.7149 216.315 62.5579 216.315C65.2249 216.315 67.1779 215.307 68.2279 213.459L66.1069 212.493C65.4559 213.669 64.2589 214.32 62.6629 214.32C60.4789 214.32 59.1139 213.186 59.0089 211.422H68.3959V210.456ZM65.7079 209.721H59.0089C59.1139 207.978 60.3739 206.907 62.4109 206.907C64.3639 206.907 65.6869 207.894 65.7079 209.616V209.721ZM83.8462 216.42C88.2352 216.42 90.5452 214.509 90.5452 211.716C90.5452 209.049 88.8652 207.894 85.7782 207.432L82.7122 206.97C80.8222 206.676 80.1082 206.109 80.1082 204.87C80.1082 203.589 81.3682 202.833 83.4892 202.833C85.9882 202.833 87.5422 203.841 88.2142 205.626L90.4822 204.408C89.4952 201.867 86.9962 200.67 83.6152 200.67C79.6042 200.67 77.2102 202.35 77.2102 205.08C77.2102 207.642 78.8482 208.923 81.6622 209.364L84.8542 209.805C86.7232 210.099 87.6052 210.603 87.6052 211.989C87.6052 213.543 86.1562 214.194 83.9512 214.194C81.1372 214.194 79.4992 212.871 78.7852 211.002L76.3492 212.094C77.2102 214.74 79.7722 216.42 83.8462 216.42ZM93.138 220.095H95.847V214.362C96.603 215.496 98.136 216.315 100.047 216.315C103.218 216.315 105.444 214.11 105.444 210.729C105.444 207.39 103.344 205.185 100.152 205.185C98.241 205.185 96.624 205.962 95.763 207.411V205.5H93.138V220.095ZM99.207 214.32C97.149 214.32 95.784 212.997 95.784 210.96V210.519C95.784 208.461 97.191 207.18 99.27 207.18C101.37 207.18 102.609 208.503 102.609 210.729C102.609 212.955 101.307 214.32 99.207 214.32ZM110.484 208.251V205.5H108.006V216H110.715V211.905C110.715 210.645 110.904 209.448 111.744 208.608C112.311 208.041 113.109 207.726 114.327 207.726C114.621 207.726 114.873 207.747 115.146 207.789V205.29C114.894 205.248 114.684 205.227 114.39 205.227C112.416 205.227 111.03 206.445 110.484 208.251ZM121.516 216.315C123.469 216.315 125.128 215.37 125.8 213.774V216H128.425V205.5H125.716V210.771C125.716 212.64 124.603 214.236 122.377 214.236C120.865 214.236 119.71 213.417 119.71 211.275V205.5H117.001V211.737C117.001 214.656 118.45 216.315 121.516 216.315ZM137.186 216.315C140.294 216.315 142.478 214.866 143.003 212.472L140.315 212.01C139.937 213.48 138.866 214.257 137.186 214.257C135.086 214.257 133.784 212.934 133.784 210.708C133.784 208.524 135.044 207.222 137.144 207.222C138.845 207.222 139.937 208.02 140.252 209.469L143.024 209.07C142.52 206.571 140.441 205.185 137.228 205.185C133.385 205.185 130.97 207.306 130.97 210.729C130.97 214.131 133.406 216.315 137.186 216.315ZM156.785 210.456C156.785 207.096 154.601 205.185 150.842 205.185C147.125 205.185 144.752 207.285 144.752 210.855C144.752 214.32 147.104 216.315 150.947 216.315C153.614 216.315 155.567 215.307 156.617 213.459L154.496 212.493C153.845 213.669 152.648 214.32 151.052 214.32C148.868 214.32 147.503 213.186 147.398 211.422H156.785V210.456ZM154.097 209.721H147.398C147.503 207.978 148.763 206.907 150.8 206.907C152.753 206.907 154.076 207.894 154.097 209.616V209.721ZM159.468 219.15C161.358 218.625 162.009 217.533 162.009 215.769V212.955H158.817V216H160.455V216.063C160.455 217.008 160.14 217.575 158.964 217.932L159.468 219.15ZM182.49 208.251C184.296 207.81 185.178 206.466 185.178 204.954C185.178 203.001 183.834 201.09 180.138 201.09H172.2V216H180.39C184.17 216 185.577 214.005 185.577 211.842C185.577 209.889 184.506 208.566 182.49 208.251ZM179.592 203.232C181.65 203.232 182.217 204.261 182.217 205.269C182.217 206.277 181.755 207.369 179.592 207.369H175.119V203.232H179.592ZM179.844 213.858H175.119V209.427H179.928C181.818 209.427 182.616 210.351 182.616 211.611C182.616 212.871 181.86 213.858 179.844 213.858ZM191.231 200.775H188.522V216H191.231V200.775ZM198.299 216.315C200.609 216.315 202.247 215.496 202.961 214.089C202.982 214.761 203.024 215.454 203.129 216H205.859C205.67 215.16 205.586 214.173 205.586 212.619V209.658C205.586 206.613 203.864 205.185 200.147 205.185C196.829 205.185 194.624 206.655 194.372 208.944H197.207C197.375 207.705 198.425 207.033 200.147 207.033C201.911 207.033 202.856 207.747 202.856 209.28V209.511L199.097 209.826C197.123 210.015 196.073 210.309 195.317 210.792C194.477 211.317 194.036 212.157 194.036 213.165C194.036 215.118 195.695 216.315 198.299 216.315ZM199.202 214.509C197.711 214.509 196.85 213.963 196.85 213.018C196.85 212.052 197.522 211.569 199.349 211.38L202.898 211.023V211.569C202.898 213.354 201.386 214.509 199.202 214.509ZM214.05 216.315C217.158 216.315 219.342 214.866 219.867 212.472L217.179 212.01C216.801 213.48 215.73 214.257 214.05 214.257C211.95 214.257 210.648 212.934 210.648 210.708C210.648 208.524 211.908 207.222 214.008 207.222C215.709 207.222 216.801 208.02 217.116 209.469L219.888 209.07C219.384 206.571 217.305 205.185 214.092 205.185C210.249 205.185 207.834 207.306 207.834 210.729C207.834 214.131 210.27 216.315 214.05 216.315ZM231.072 216H234.243L229.665 209.427L234.033 205.5H230.526L225.213 210.309V200.775H222.504V216H225.213V212.997L227.649 211.002L231.072 216ZM248.278 216.42C252.667 216.42 254.977 214.509 254.977 211.716C254.977 209.049 253.297 207.894 250.21 207.432L247.144 206.97C245.254 206.676 244.54 206.109 244.54 204.87C244.54 203.589 245.8 202.833 247.921 202.833C250.42 202.833 251.974 203.841 252.646 205.626L254.914 204.408C253.927 201.867 251.428 200.67 248.047 200.67C244.036 200.67 241.642 202.35 241.642 205.08C241.642 207.642 243.28 208.923 246.094 209.364L249.286 209.805C251.155 210.099 252.037 210.603 252.037 211.989C252.037 213.543 250.588 214.194 248.383 214.194C245.569 214.194 243.931 212.871 243.217 211.002L240.781 212.094C241.642 214.74 244.204 216.42 248.278 216.42ZM257.57 220.095H260.279V214.362C261.035 215.496 262.568 216.315 264.479 216.315C267.65 216.315 269.876 214.11 269.876 210.729C269.876 207.39 267.776 205.185 264.584 205.185C262.673 205.185 261.056 205.962 260.195 207.411V205.5H257.57V220.095ZM263.639 214.32C261.581 214.32 260.216 212.997 260.216 210.96V210.519C260.216 208.461 261.623 207.18 263.702 207.18C265.802 207.18 267.041 208.503 267.041 210.729C267.041 212.955 265.739 214.32 263.639 214.32ZM274.916 208.251V205.5H272.438V216H275.147V211.905C275.147 210.645 275.336 209.448 276.176 208.608C276.743 208.041 277.541 207.726 278.759 207.726C279.053 207.726 279.305 207.747 279.578 207.789V205.29C279.326 205.248 279.116 205.227 278.822 205.227C276.848 205.227 275.462 206.445 274.916 208.251ZM285.948 216.315C287.901 216.315 289.56 215.37 290.232 213.774V216H292.857V205.5H290.148V210.771C290.148 212.64 289.035 214.236 286.809 214.236C285.297 214.236 284.142 213.417 284.142 211.275V205.5H281.433V211.737C281.433 214.656 282.882 216.315 285.948 216.315ZM301.618 216.315C304.726 216.315 306.91 214.866 307.435 212.472L304.747 212.01C304.369 213.48 303.298 214.257 301.618 214.257C299.518 214.257 298.216 212.934 298.216 210.708C298.216 208.524 299.476 207.222 301.576 207.222C303.277 207.222 304.369 208.02 304.684 209.469L307.456 209.07C306.952 206.571 304.873 205.185 301.66 205.185C297.817 205.185 295.402 207.306 295.402 210.729C295.402 214.131 297.838 216.315 301.618 216.315ZM321.216 210.456C321.216 207.096 319.032 205.185 315.273 205.185C311.556 205.185 309.183 207.285 309.183 210.855C309.183 214.32 311.535 216.315 315.378 216.315C318.045 216.315 319.998 215.307 321.048 213.459L318.927 212.493C318.276 213.669 317.079 214.32 315.483 214.32C313.299 214.32 311.934 213.186 311.829 211.422H321.216V210.456ZM318.528 209.721H311.829C311.934 207.978 313.194 206.907 315.231 206.907C317.184 206.907 318.507 207.894 318.528 209.616V209.721ZM323.9 219.15C325.79 218.625 326.441 217.533 326.441 215.769V212.955H323.249V216H324.887V216.063C324.887 217.008 324.572 217.575 323.396 217.932L323.9 219.15ZM9.875 236.317V226.09H6.977V235.918C6.977 238.207 5.843 238.816 4.268 238.816C3.617 238.816 2.966 238.774 2.378 238.69V241.126C2.987 241.273 3.785 241.315 4.667 241.315C7.67 241.315 9.875 240.034 9.875 236.317ZM16.4971 241.315C18.8071 241.315 20.4451 240.496 21.1591 239.089C21.1801 239.761 21.2221 240.454 21.3271 241H24.0571C23.8681 240.16 23.7841 239.173 23.7841 237.619V234.658C23.7841 231.613 22.0621 230.185 18.3451 230.185C15.0271 230.185 12.8221 231.655 12.5701 233.944H15.4051C15.5731 232.705 16.6231 232.033 18.3451 232.033C20.1091 232.033 21.0541 232.747 21.0541 234.28V234.511L17.2951 234.826C15.3211 235.015 14.2711 235.309 13.5151 235.792C12.6751 236.317 12.2341 237.157 12.2341 238.165C12.2341 240.118 13.8931 241.315 16.4971 241.315ZM17.4001 239.509C15.9091 239.509 15.0481 238.963 15.0481 238.018C15.0481 237.052 15.7201 236.569 17.5471 236.38L21.0961 236.023V236.569C21.0961 238.354 19.5841 239.509 17.4001 239.509ZM32.2479 241.315C35.3559 241.315 37.5399 239.866 38.0649 237.472L35.3769 237.01C34.9989 238.48 33.9279 239.257 32.2479 239.257C30.1479 239.257 28.8459 237.934 28.8459 235.708C28.8459 233.524 30.1059 232.222 32.2059 232.222C33.9069 232.222 34.9989 233.02 35.3139 234.469L38.0859 234.07C37.5819 231.571 35.5029 230.185 32.2899 230.185C28.4469 230.185 26.0319 232.306 26.0319 235.729C26.0319 239.131 28.4679 241.315 32.2479 241.315ZM49.27 241H52.441L47.863 234.427L52.231 230.5H48.724L43.411 235.309V225.775H40.702V241H43.411V237.997L45.847 236.002L49.27 241ZM68.1351 226.09H60.6171V241H63.5361V235.498H68.0091C71.4321 235.498 73.6161 233.65 73.6161 230.731C73.6161 227.896 71.4951 226.09 68.1351 226.09ZM67.5471 233.356H63.5361V228.253H67.5471C69.4371 228.253 70.5711 229.219 70.5711 230.794C70.5711 232.369 69.4161 233.356 67.5471 233.356ZM75.7034 228.757H78.6644V226.048H75.7034V228.757ZM75.8294 241H78.5384V230.5H75.8294V241ZM82.1458 241H84.8548V235.897C84.8548 233.629 86.1148 232.306 88.1728 232.306C90.1048 232.306 91.0288 233.356 91.0288 235.456V241H93.7378V235.099C93.7378 231.865 92.1838 230.164 89.2228 230.164C87.1228 230.164 85.6108 231.046 84.7708 232.747V230.5H82.1458V241ZM108.079 235.456C108.079 232.096 105.895 230.185 102.136 230.185C98.4185 230.185 96.0455 232.285 96.0455 235.855C96.0455 239.32 98.3975 241.315 102.241 241.315C104.908 241.315 106.861 240.307 107.911 238.459L105.79 237.493C105.139 238.669 103.942 239.32 102.346 239.32C100.162 239.32 98.7965 238.186 98.6915 236.422H108.079V235.456ZM105.391 234.721H98.6915C98.7965 232.978 100.057 231.907 102.094 231.907C104.047 231.907 105.37 232.894 105.391 234.616V234.721Z" fill="#054217"/>
<line y1="0.875" x2="345" y2="0.875" stroke="black" stroke-opacity="0.5" stroke-width="0.25"/>
</svg>
