<svg width="538" height="426" viewBox="0 0 538 426" fill="none" xmlns="http://www.w3.org/2000/svg">
<g style="mix-blend-mode:multiply" opacity="0.15">
<path d="M352.617 426C488.737 396.128 538 315.604 538 206.506L538 6.10352e-05L303.354 4.05218e-05L303.354 220.793L417.436 220.793L417.436 224.689C417.436 281.835 395.398 315.604 316.318 336.384L352.617 426ZM49.2626 426C185.383 396.128 234.646 315.604 234.646 206.506L234.646 3.45151e-05L-2.37931e-05 1.40017e-05L-4.30954e-05 220.793L114.082 220.793L114.082 224.689C114.082 281.835 92.0433 315.604 12.9638 336.384L49.2626 426Z" fill="#362B26"/>
</g>
</svg>
