<?xml version="1.0" encoding="utf-8"?>
<!-- Generator: Adobe Illustrator 25.1.0, SVG Export Plug-In . SVG Version: 6.00 Build 0)  -->
<svg version="1.1" id="Layer_1" xmlns="http://www.w3.org/2000/svg" xmlns:xlink="http://www.w3.org/1999/xlink" x="0px" y="0px"
	 viewBox="0 0 389 382" style="enable-background:new 0 0 389 382;" xml:space="preserve">
<style type="text/css">
	.st0{fill:#FF4D24;}
	.st1{fill:#362B26;}
	.st2{fill:#00823B;}
</style>
<g>
	<path class="st0" d="M118.3,299.3c-9.3,0-16.8,7.4-16.8,16.4c0,9.1,7.5,16.4,16.8,16.4s16.8-7.4,16.8-16.4
		C135.1,306.7,127.6,299.3,118.3,299.3z"/>
	<path class="st0" d="M372.2,249.4c-9.3,0-16.8,7.4-16.8,16.4c0,9,7.5,16.4,16.8,16.4s16.8-7.4,16.8-16.4
		C389,256.8,381.5,249.4,372.2,249.4z"/>
	<path class="st1" d="M67.6,199.5c-9.3,0-16.8,7.4-16.8,16.4c0,9.1,7.5,16.4,16.8,16.4c9.3,0,16.8-7.4,16.8-16.4
		C84.4,206.9,76.8,199.5,67.6,199.5z"/>
	<path class="st2" d="M67.6,99.8c-9.3,0-16.8,7.4-16.8,16.4s7.5,16.4,16.8,16.4c9.3,0,16.8-7.4,16.8-16.4S76.8,99.8,67.6,99.8z"/>
	<path class="st2" d="M270.7,49.9c-9.3,0-16.8,7.4-16.8,16.4c0,9.1,7.5,16.4,16.8,16.4c9.3,0,16.8-7.4,16.8-16.4
		C287.5,57.2,279.9,49.9,270.7,49.9z"/>
	<path class="st1" d="M270.7,249.4c-9.3,0-16.8,7.4-16.8,16.4c0,9,7.5,16.4,16.8,16.4c9.3,0,16.8-7.4,16.8-16.4
		C287.5,256.8,279.9,249.4,270.7,249.4z"/>
</g>
<path class="st1" d="M16.8,25.9c5.4,0,9.7-4.2,9.7-9.5c0-5.2-4.3-9.5-9.7-9.5s-9.7,4.2-9.7,9.5C7.1,21.6,11.4,25.9,16.8,25.9z"/>
<path class="st2" d="M372.2,356.1c-5.3,0-9.7,4.2-9.7,9.5c0,5.2,4.4,9.5,9.7,9.5c5.4,0,9.7-4.2,9.7-9.5
	C381.9,360.4,377.5,356.1,372.2,356.1z"/>
<path class="st2" d="M372.2,306.2c-5.3,0-9.7,4.2-9.7,9.5c0,5.2,4.4,9.5,9.7,9.5c5.4,0,9.7-4.2,9.7-9.5
	C381.9,310.5,377.5,306.2,372.2,306.2z"/>
<path class="st2" d="M169.1,225.4c5.4,0,9.7-4.2,9.7-9.5c0-5.2-4.3-9.5-9.7-9.5s-9.7,4.2-9.7,9.5
	C159.4,221.2,163.8,225.4,169.1,225.4z"/>
<path class="st1" d="M372.2,206.5c-5.3,0-9.7,4.2-9.7,9.5c0,5.2,4.4,9.5,9.7,9.5c5.4,0,9.7-4.2,9.7-9.5
	C381.9,210.7,377.5,206.5,372.2,206.5z"/>
</svg>
