<svg id="efc6lzgN9pD1" xmlns="http://www.w3.org/2000/svg" xmlns:xlink="http://www.w3.org/1999/xlink" viewBox="0 0 389 382" shape-rendering="geometricPrecision" text-rendering="geometricPrecision" style="background-color:transparent"><style><![CDATA[#efc6lzgN9pD3 {animation: efc6lzgN9pD3_f_p 17857.142857142855ms linear infinite alternate forwards}@keyframes efc6lzgN9pD3_f_p { 0% {fill: rgb(255,77,36);animation-timing-function: cubic-bezier(0.950000,0.050000,0.795000,0.035000)} 40% {fill: rgb(54,43,38);animation-timing-function: cubic-bezier(0.950000,0.050000,0.795000,0.035000)} 62% {fill: rgb(0,130,59)} 100% {fill: rgb(0,130,59)}} #efc6lzgN9pD4 {animation: efc6lzgN9pD4_f_p 17857.142857142855ms linear infinite alternate forwards}@keyframes efc6lzgN9pD4_f_p { 0% {fill: rgb(255,77,36);animation-timing-function: cubic-bezier(0.950000,0.050000,0.795000,0.035000)} 20% {fill: rgb(54,43,38);animation-timing-function: cubic-bezier(0.950000,0.050000,0.795000,0.035000)} 40% {fill: rgb(0,130,59)} 100% {fill: rgb(0,130,59)}} #efc6lzgN9pD5 {animation: efc6lzgN9pD5_f_p 17857.142857142855ms linear infinite alternate forwards}@keyframes efc6lzgN9pD5_f_p { 0% {fill: rgb(255,77,36);animation-timing-function: cubic-bezier(0.950000,0.050000,0.795000,0.035000)} 40% {fill: rgb(54,43,38);animation-timing-function: cubic-bezier(0.950000,0.050000,0.795000,0.035000)} 82% {fill: rgb(0,130,59)} 100% {fill: rgb(0,130,59)}} #efc6lzgN9pD6 {animation: efc6lzgN9pD6_f_p 17857.142857142855ms linear infinite alternate forwards}@keyframes efc6lzgN9pD6_f_p { 0% {fill: rgb(255,77,36);animation-timing-function: cubic-bezier(0.950000,0.050000,0.795000,0.035000)} 20% {fill: rgb(54,43,38);animation-timing-function: cubic-bezier(0.950000,0.050000,0.795000,0.035000)} 50% {fill: rgb(0,130,59)} 100% {fill: rgb(0,130,59)}} #efc6lzgN9pD7 {animation: efc6lzgN9pD7_f_p 17857.142857142855ms linear infinite alternate forwards}@keyframes efc6lzgN9pD7_f_p { 0% {fill: rgb(255,77,36);animation-timing-function: cubic-bezier(0.950000,0.050000,0.795000,0.035000)} 20% {fill: rgb(54,43,38);animation-timing-function: cubic-bezier(0.950000,0.050000,0.795000,0.035000)} 70% {fill: rgb(0,130,59)} 100% {fill: rgb(0,130,59)}} #efc6lzgN9pD8 {animation: efc6lzgN9pD8_f_p 17857.142857142855ms linear infinite alternate forwards}@keyframes efc6lzgN9pD8_f_p { 0% {fill: rgb(255,77,36);animation-timing-function: cubic-bezier(0.950000,0.050000,0.795000,0.035000)} 40% {fill: rgb(0,130,59)} 100% {fill: rgb(0,130,59)}} #efc6lzgN9pD9 {animation: efc6lzgN9pD9_f_p 17857.142857142855ms linear infinite alternate forwards}@keyframes efc6lzgN9pD9_f_p { 0% {fill: rgb(255,77,36);animation-timing-function: cubic-bezier(0.950000,0.050000,0.795000,0.035000)} 20% {fill: rgb(54,43,38);animation-timing-function: cubic-bezier(0.950000,0.050000,0.795000,0.035000)} 86% {fill: rgb(0,130,59)} 100% {fill: rgb(0,130,59)}} #efc6lzgN9pD10 {animation: efc6lzgN9pD10_f_p 17857.142857142855ms linear infinite alternate forwards}@keyframes efc6lzgN9pD10_f_p { 0% {fill: rgb(255,77,36);animation-timing-function: cubic-bezier(0.950000,0.050000,0.795000,0.035000)} 26% {fill: rgb(54,43,38);animation-timing-function: cubic-bezier(0.950000,0.050000,0.795000,0.035000)} 40% {fill: rgb(0,130,59)} 100% {fill: rgb(0,130,59)}} #efc6lzgN9pD11 {animation: efc6lzgN9pD11_f_p 17857.142857142855ms linear infinite alternate forwards}@keyframes efc6lzgN9pD11_f_p { 0% {fill: rgb(255,77,36);animation-timing-function: cubic-bezier(0.950000,0.050000,0.795000,0.035000)} 20% {fill: rgb(54,43,38);animation-timing-function: cubic-bezier(0.950000,0.050000,0.795000,0.035000)} 40% {fill: rgb(0,130,59)} 100% {fill: rgb(0,130,59)}} #efc6lzgN9pD12 {animation: efc6lzgN9pD12_f_p 17857.142857142855ms linear infinite alternate forwards}@keyframes efc6lzgN9pD12_f_p { 0% {fill: rgb(255,77,36);animation-timing-function: cubic-bezier(0.950000,0.050000,0.795000,0.035000)} 40% {fill: rgb(54,43,38);animation-timing-function: cubic-bezier(0.950000,0.050000,0.795000,0.035000)} 76% {fill: rgb(0,130,59)} 100% {fill: rgb(0,130,59)}} #efc6lzgN9pD13 {animation: efc6lzgN9pD13_f_p 17857.142857142855ms linear infinite alternate forwards}@keyframes efc6lzgN9pD13_f_p { 0% {fill: rgb(255,77,36);animation-timing-function: cubic-bezier(0.950000,0.050000,0.795000,0.035000)} 16% {fill: rgb(54,43,38);animation-timing-function: cubic-bezier(0.950000,0.050000,0.795000,0.035000)} 56% {fill: rgb(0,130,59)} 100% {fill: rgb(0,130,59)}} #efc6lzgN9pD14 {animation: efc6lzgN9pD14_f_p 17857.142857142855ms linear infinite alternate forwards}@keyframes efc6lzgN9pD14_f_p { 0% {fill: rgb(255,77,36);animation-timing-function: cubic-bezier(0.950000,0.050000,0.795000,0.035000)} 40% {fill: rgb(54,43,38);animation-timing-function: cubic-bezier(0.950000,0.050000,0.795000,0.035000)} 50% {fill: rgb(0,130,59)} 100% {fill: rgb(0,130,59)}} #efc6lzgN9pD15 {animation: efc6lzgN9pD15_f_p 17857.142857142855ms linear infinite alternate forwards}@keyframes efc6lzgN9pD15_f_p { 0% {fill: rgb(255,77,36);animation-timing-function: cubic-bezier(0.950000,0.050000,0.795000,0.035000)} 26% {fill: rgb(54,43,38);animation-timing-function: cubic-bezier(0.950000,0.050000,0.795000,0.035000)} 62% {fill: rgb(0,130,59)} 100% {fill: rgb(0,130,59)}} #efc6lzgN9pD16 {animation: efc6lzgN9pD16_f_p 17857.142857142855ms linear infinite alternate forwards}@keyframes efc6lzgN9pD16_f_p { 0% {fill: rgb(255,77,36);animation-timing-function: cubic-bezier(0.950000,0.050000,0.795000,0.035000)} 56% {fill: rgb(54,43,38);animation-timing-function: cubic-bezier(0.950000,0.050000,0.795000,0.035000)} 82% {fill: rgb(0,130,59)} 100% {fill: rgb(0,130,59)}} #efc6lzgN9pD17 {animation: efc6lzgN9pD17_f_p 17857.142857142855ms linear infinite alternate forwards}@keyframes efc6lzgN9pD17_f_p { 0% {fill: rgb(255,77,36);animation-timing-function: cubic-bezier(0.950000,0.050000,0.795000,0.035000)} 56% {fill: rgb(54,43,38);animation-timing-function: cubic-bezier(0.950000,0.050000,0.795000,0.035000)} 92% {fill: rgb(0,130,59)} 100% {fill: rgb(0,130,59)}} #efc6lzgN9pD18 {animation: efc6lzgN9pD18_f_p 17857.142857142855ms linear infinite alternate forwards}@keyframes efc6lzgN9pD18_f_p { 0% {fill: rgb(255,77,36);animation-timing-function: cubic-bezier(0.950000,0.050000,0.795000,0.035000)} 20% {fill: rgb(54,43,38);animation-timing-function: cubic-bezier(0.950000,0.050000,0.795000,0.035000)} 76% {fill: rgb(0,130,59)} 100% {fill: rgb(0,130,59)}} #efc6lzgN9pD19 {animation: efc6lzgN9pD19_f_p 17857.142857142855ms linear infinite alternate forwards}@keyframes efc6lzgN9pD19_f_p { 0% {fill: rgb(255,77,36);animation-timing-function: cubic-bezier(0.950000,0.050000,0.795000,0.035000)} 34% {fill: rgb(54,43,38);animation-timing-function: cubic-bezier(0.950000,0.050000,0.795000,0.035000)} 70% {fill: rgb(0,130,59)} 100% {fill: rgb(0,130,59)}} #efc6lzgN9pD20 {animation: efc6lzgN9pD20_f_p 17857.142857142855ms linear infinite alternate forwards}@keyframes efc6lzgN9pD20_f_p { 0% {fill: rgb(255,77,36);animation-timing-function: cubic-bezier(0.950000,0.050000,0.795000,0.035000)} 20% {fill: rgb(54,43,38);animation-timing-function: cubic-bezier(0.950000,0.050000,0.795000,0.035000)} 70% {fill: rgb(0,130,59)} 100% {fill: rgb(0,130,59)}} #efc6lzgN9pD21 {animation: efc6lzgN9pD21_f_p 17857.142857142855ms linear infinite alternate forwards}@keyframes efc6lzgN9pD21_f_p { 0% {fill: rgb(255,77,36);animation-timing-function: cubic-bezier(0.950000,0.050000,0.795000,0.035000)} 34% {fill: rgb(0,130,59)} 100% {fill: rgb(0,130,59)}} #efc6lzgN9pD22 {animation: efc6lzgN9pD22_f_p 17857.142857142855ms linear infinite alternate forwards}@keyframes efc6lzgN9pD22_f_p { 0% {fill: rgb(255,77,36);animation-timing-function: cubic-bezier(0.950000,0.050000,0.795000,0.035000)} 26% {fill: rgb(54,43,38);animation-timing-function: cubic-bezier(0.950000,0.050000,0.795000,0.035000)} 56% {fill: rgb(0,130,59)} 100% {fill: rgb(0,130,59)}} #efc6lzgN9pD23 {animation: efc6lzgN9pD23_f_p 17857.142857142855ms linear infinite alternate forwards}@keyframes efc6lzgN9pD23_f_p { 0% {fill: rgb(255,77,36);animation-timing-function: cubic-bezier(0.950000,0.050000,0.795000,0.035000)} 20% {fill: rgb(54,43,38);animation-timing-function: cubic-bezier(0.950000,0.050000,0.795000,0.035000)} 76% {fill: rgb(0,130,59)} 100% {fill: rgb(0,130,59)}} #efc6lzgN9pD24 {animation: efc6lzgN9pD24_f_p 17857.142857142855ms linear infinite alternate forwards}@keyframes efc6lzgN9pD24_f_p { 0% {fill: rgb(255,77,36);animation-timing-function: cubic-bezier(0.950000,0.050000,0.795000,0.035000)} 16% {fill: rgb(54,43,38);animation-timing-function: cubic-bezier(0.950000,0.050000,0.795000,0.035000)} 26% {fill: rgb(169,110,84);animation-timing-function: cubic-bezier(0.950000,0.050000,0.795000,0.035000)} 30% {fill: rgb(0,130,59)} 100% {fill: rgb(0,130,59)}} #efc6lzgN9pD25 {animation: efc6lzgN9pD25_f_p 17857.142857142855ms linear infinite alternate forwards}@keyframes efc6lzgN9pD25_f_p { 0% {fill: rgb(255,77,36);animation-timing-function: cubic-bezier(0.950000,0.050000,0.795000,0.035000)} 26% {fill: rgb(54,43,38);animation-timing-function: cubic-bezier(0.950000,0.050000,0.795000,0.035000)} 56% {fill: rgb(0,130,59)} 100% {fill: rgb(0,130,59)}} #efc6lzgN9pD26 {animation: efc6lzgN9pD26_f_p 17857.142857142855ms linear infinite alternate forwards}@keyframes efc6lzgN9pD26_f_p { 0% {fill: rgb(255,77,36);animation-timing-function: cubic-bezier(0.950000,0.050000,0.795000,0.035000)} 62% {fill: rgb(54,43,38);animation-timing-function: cubic-bezier(0.950000,0.050000,0.795000,0.035000)} 76% {fill: rgb(0,130,59)} 100% {fill: rgb(0,130,59)}} #efc6lzgN9pD27 {animation: efc6lzgN9pD27_f_p 17857.142857142855ms linear infinite alternate forwards}@keyframes efc6lzgN9pD27_f_p { 0% {fill: rgb(255,77,36);animation-timing-function: cubic-bezier(0.950000,0.050000,0.795000,0.035000)} 26% {fill: rgb(54,43,38);animation-timing-function: cubic-bezier(0.950000,0.050000,0.795000,0.035000)} 62% {fill: rgb(0,130,59)} 100% {fill: rgb(0,130,59)}} #efc6lzgN9pD28 {animation: efc6lzgN9pD28_f_p 17857.142857142855ms linear infinite alternate forwards}@keyframes efc6lzgN9pD28_f_p { 0% {fill: rgb(255,77,36);animation-timing-function: cubic-bezier(0.950000,0.050000,0.795000,0.035000)} 16% {fill: rgb(54,43,38);animation-timing-function: cubic-bezier(0.950000,0.050000,0.795000,0.035000)} 26% {fill: rgb(169,110,84);animation-timing-function: cubic-bezier(0.950000,0.050000,0.795000,0.035000)} 30% {fill: rgb(0,130,59)} 100% {fill: rgb(0,130,59)}} #efc6lzgN9pD29 {animation: efc6lzgN9pD29_f_p 17857.142857142855ms linear infinite alternate forwards}@keyframes efc6lzgN9pD29_f_p { 0% {fill: rgb(255,77,36);animation-timing-function: cubic-bezier(0.950000,0.050000,0.795000,0.035000)} 26% {fill: rgb(54,43,38);animation-timing-function: cubic-bezier(0.950000,0.050000,0.795000,0.035000)} 86% {fill: rgb(0,130,59)} 100% {fill: rgb(0,130,59)}} #efc6lzgN9pD30 {animation: efc6lzgN9pD30_f_p 17857.142857142855ms linear infinite alternate forwards}@keyframes efc6lzgN9pD30_f_p { 0% {fill: rgb(255,77,36);animation-timing-function: cubic-bezier(0.950000,0.050000,0.795000,0.035000)} 50% {fill: rgb(54,43,38);animation-timing-function: cubic-bezier(0.950000,0.050000,0.795000,0.035000)} 62% {fill: rgb(0,130,59)} 100% {fill: rgb(0,130,59)}} #efc6lzgN9pD31 {animation: efc6lzgN9pD31_f_p 17857.142857142855ms linear infinite alternate forwards}@keyframes efc6lzgN9pD31_f_p { 0% {fill: rgb(255,77,36);animation-timing-function: cubic-bezier(0.950000,0.050000,0.795000,0.035000)} 10% {fill: rgb(54,43,38);animation-timing-function: cubic-bezier(0.950000,0.050000,0.795000,0.035000)} 34% {fill: rgb(0,130,59)} 100% {fill: rgb(0,130,59)}} #efc6lzgN9pD32 {animation: efc6lzgN9pD32_f_p 17857.142857142855ms linear infinite alternate forwards}@keyframes efc6lzgN9pD32_f_p { 0% {fill: rgb(255,77,36);animation-timing-function: cubic-bezier(0.950000,0.050000,0.795000,0.035000)} 20% {fill: rgb(54,43,38);animation-timing-function: cubic-bezier(0.950000,0.050000,0.795000,0.035000)} 62% {fill: rgb(0,130,59)} 100% {fill: rgb(0,130,59)}} #efc6lzgN9pD33 {animation: efc6lzgN9pD33_f_p 17857.142857142855ms linear infinite alternate forwards}@keyframes efc6lzgN9pD33_f_p { 0% {fill: rgb(255,77,36);animation-timing-function: cubic-bezier(0.950000,0.050000,0.795000,0.035000)} 50% {fill: rgb(54,43,38);animation-timing-function: cubic-bezier(0.950000,0.050000,0.795000,0.035000)} 92% {fill: rgb(0,130,59)} 100% {fill: rgb(0,130,59)}} #efc6lzgN9pD34 {animation: efc6lzgN9pD34_f_p 17857.142857142855ms linear infinite alternate forwards}@keyframes efc6lzgN9pD34_f_p { 0% {fill: rgb(255,77,36);animation-timing-function: cubic-bezier(0.950000,0.050000,0.795000,0.035000)} 50% {fill: rgb(54,43,38);animation-timing-function: cubic-bezier(0.950000,0.050000,0.795000,0.035000)} 82% {fill: rgb(0,130,59)} 100% {fill: rgb(0,130,59)}} #efc6lzgN9pD35 {animation: efc6lzgN9pD35_f_p 17857.142857142855ms linear infinite alternate forwards}@keyframes efc6lzgN9pD35_f_p { 0% {fill: rgb(255,77,36);animation-timing-function: cubic-bezier(0.950000,0.050000,0.795000,0.035000)} 20% {fill: rgb(54,43,38);animation-timing-function: cubic-bezier(0.950000,0.050000,0.795000,0.035000)} 50% {fill: rgb(0,130,59)} 100% {fill: rgb(0,130,59)}} #efc6lzgN9pD36 {animation: efc6lzgN9pD36_f_p 17857.142857142855ms linear infinite alternate forwards}@keyframes efc6lzgN9pD36_f_p { 0% {fill: rgb(255,77,36);animation-timing-function: cubic-bezier(0.950000,0.050000,0.795000,0.035000)} 40% {fill: rgb(54,43,38);animation-timing-function: cubic-bezier(0.950000,0.050000,0.795000,0.035000)} 56% {fill: rgb(0,130,59)} 100% {fill: rgb(0,130,59)}} #efc6lzgN9pD37 {animation: efc6lzgN9pD37_f_p 17857.142857142855ms linear infinite alternate forwards}@keyframes efc6lzgN9pD37_f_p { 0% {fill: rgb(255,77,36);animation-timing-function: cubic-bezier(0.950000,0.050000,0.795000,0.035000)} 20% {fill: rgb(54,43,38);animation-timing-function: cubic-bezier(0.950000,0.050000,0.795000,0.035000)} 92% {fill: rgb(0,130,59)} 100% {fill: rgb(0,130,59)}} #efc6lzgN9pD38 {animation: efc6lzgN9pD38_f_p 17857.142857142855ms linear infinite alternate forwards}@keyframes efc6lzgN9pD38_f_p { 0% {fill: rgb(255,77,36);animation-timing-function: cubic-bezier(0.950000,0.050000,0.795000,0.035000)} 56% {fill: rgb(54,43,38);animation-timing-function: cubic-bezier(0.950000,0.050000,0.795000,0.035000)} 70% {fill: rgb(0,130,59)} 100% {fill: rgb(0,130,59)}} #efc6lzgN9pD39 {animation: efc6lzgN9pD39_f_p 17857.142857142855ms linear infinite alternate forwards}@keyframes efc6lzgN9pD39_f_p { 0% {fill: rgb(255,77,36);animation-timing-function: cubic-bezier(0.950000,0.050000,0.795000,0.035000)} 20% {fill: rgb(54,43,38);animation-timing-function: cubic-bezier(0.950000,0.050000,0.795000,0.035000)} 40% {fill: rgb(0,130,59)} 100% {fill: rgb(0,130,59)}} #efc6lzgN9pD40 {animation: efc6lzgN9pD40_f_p 17857.142857142855ms linear infinite alternate forwards}@keyframes efc6lzgN9pD40_f_p { 0% {fill: rgb(255,77,36);animation-timing-function: cubic-bezier(0.950000,0.050000,0.795000,0.035000)} 26% {fill: rgb(54,43,38);animation-timing-function: cubic-bezier(0.950000,0.050000,0.795000,0.035000)} 34% {fill: rgb(0,130,59)} 100% {fill: rgb(0,130,59)}} #efc6lzgN9pD41 {animation: efc6lzgN9pD41_f_p 17857.142857142855ms linear infinite alternate forwards}@keyframes efc6lzgN9pD41_f_p { 0% {fill: rgb(255,77,36);animation-timing-function: cubic-bezier(0.950000,0.050000,0.795000,0.035000)} 20% {fill: rgb(54,43,38);animation-timing-function: cubic-bezier(0.950000,0.050000,0.795000,0.035000)} 86% {fill: rgb(0,130,59)} 100% {fill: rgb(0,130,59)}} #efc6lzgN9pD42 {animation: efc6lzgN9pD42_f_p 17857.142857142855ms linear infinite alternate forwards}@keyframes efc6lzgN9pD42_f_p { 0% {fill: rgb(255,77,36);animation-timing-function: cubic-bezier(0.950000,0.050000,0.795000,0.035000)} 20% {fill: rgb(54,43,38);animation-timing-function: cubic-bezier(0.950000,0.050000,0.795000,0.035000)} 56% {fill: rgb(0,130,59)} 100% {fill: rgb(0,130,59)}} #efc6lzgN9pD43 {animation: efc6lzgN9pD43_f_p 17857.142857142855ms linear infinite alternate forwards}@keyframes efc6lzgN9pD43_f_p { 0% {fill: rgb(255,77,36);animation-timing-function: cubic-bezier(0.950000,0.050000,0.795000,0.035000)} 20% {fill: rgb(54,43,38);animation-timing-function: cubic-bezier(0.950000,0.050000,0.795000,0.035000)} 26% {fill: rgb(169,110,84);animation-timing-function: cubic-bezier(0.950000,0.050000,0.795000,0.035000)} 30% {fill: rgb(0,130,59)} 100% {fill: rgb(0,130,59)}} #efc6lzgN9pD44 {animation: efc6lzgN9pD44_f_p 17857.142857142855ms linear infinite alternate forwards}@keyframes efc6lzgN9pD44_f_p { 0% {fill: rgb(255,77,36);animation-timing-function: cubic-bezier(0.950000,0.050000,0.795000,0.035000)} 16% {fill: rgb(54,43,38);animation-timing-function: cubic-bezier(0.950000,0.050000,0.795000,0.035000)} 82% {fill: rgb(0,130,59)} 100% {fill: rgb(0,130,59)}} #efc6lzgN9pD45 {animation: efc6lzgN9pD45_f_p 17857.142857142855ms linear infinite alternate forwards}@keyframes efc6lzgN9pD45_f_p { 0% {fill: rgb(255,77,36);animation-timing-function: cubic-bezier(0.950000,0.050000,0.795000,0.035000)} 4% {fill: rgb(54,43,38);animation-timing-function: cubic-bezier(0.950000,0.050000,0.795000,0.035000)} 26% {fill: rgb(169,110,84);animation-timing-function: cubic-bezier(0.950000,0.050000,0.795000,0.035000)} 30% {fill: rgb(0,130,59)} 100% {fill: rgb(0,130,59)}} #efc6lzgN9pD46 {animation: efc6lzgN9pD46_f_p 17857.142857142855ms linear infinite alternate forwards}@keyframes efc6lzgN9pD46_f_p { 0% {fill: rgb(255,77,36);animation-timing-function: cubic-bezier(0.950000,0.050000,0.795000,0.035000)} 26% {fill: rgb(54,43,38);animation-timing-function: cubic-bezier(0.950000,0.050000,0.795000,0.035000)} 40% {fill: rgb(0,130,59)} 100% {fill: rgb(0,130,59)}} #efc6lzgN9pD47 {animation: efc6lzgN9pD47_f_p 17857.142857142855ms linear infinite alternate forwards}@keyframes efc6lzgN9pD47_f_p { 0% {fill: rgb(255,77,36);animation-timing-function: cubic-bezier(0.950000,0.050000,0.795000,0.035000)} 16% {fill: rgb(54,43,38);animation-timing-function: cubic-bezier(0.950000,0.050000,0.795000,0.035000)} 56% {fill: rgb(0,130,59)} 100% {fill: rgb(0,130,59)}} #efc6lzgN9pD48 {animation: efc6lzgN9pD48_f_p 17857.142857142855ms linear infinite alternate forwards}@keyframes efc6lzgN9pD48_f_p { 0% {fill: rgb(255,77,36);animation-timing-function: cubic-bezier(0.950000,0.050000,0.795000,0.035000)} 34% {fill: rgb(54,43,38);animation-timing-function: cubic-bezier(0.950000,0.050000,0.795000,0.035000)} 82% {fill: rgb(0,130,59)} 100% {fill: rgb(0,130,59)}} #efc6lzgN9pD49 {animation: efc6lzgN9pD49_f_p 17857.142857142855ms linear infinite alternate forwards}@keyframes efc6lzgN9pD49_f_p { 0% {fill: rgb(255,77,36);animation-timing-function: cubic-bezier(0.950000,0.050000,0.795000,0.035000)} 40% {fill: rgb(54,43,38);animation-timing-function: cubic-bezier(0.950000,0.050000,0.795000,0.035000)} 50% {fill: rgb(0,130,59)} 100% {fill: rgb(0,130,59)}} #efc6lzgN9pD50 {animation: efc6lzgN9pD50_f_p 17857.142857142855ms linear infinite alternate forwards}@keyframes efc6lzgN9pD50_f_p { 0% {fill: rgb(255,77,36);animation-timing-function: cubic-bezier(0.950000,0.050000,0.795000,0.035000)} 20% {fill: rgb(54,43,38);animation-timing-function: cubic-bezier(0.950000,0.050000,0.795000,0.035000)} 34% {fill: rgb(0,130,59)} 100% {fill: rgb(0,130,59)}} #efc6lzgN9pD51 {animation: efc6lzgN9pD51_f_p 17857.142857142855ms linear infinite alternate forwards}@keyframes efc6lzgN9pD51_f_p { 0% {fill: rgb(255,77,36);animation-timing-function: cubic-bezier(0.950000,0.050000,0.795000,0.035000)} 50% {fill: rgb(54,43,38);animation-timing-function: cubic-bezier(0.950000,0.050000,0.795000,0.035000)} 70% {fill: rgb(0,130,59)} 100% {fill: rgb(0,130,59)}} #efc6lzgN9pD52 {animation: efc6lzgN9pD52_f_p 17857.142857142855ms linear infinite alternate forwards}@keyframes efc6lzgN9pD52_f_p { 0% {fill: rgb(255,77,36);animation-timing-function: cubic-bezier(0.950000,0.050000,0.795000,0.035000)} 26% {fill: rgb(54,43,38);animation-timing-function: cubic-bezier(0.950000,0.050000,0.795000,0.035000)} 56% {fill: rgb(0,130,59)} 100% {fill: rgb(0,130,59)}} #efc6lzgN9pD53 {animation: efc6lzgN9pD53_f_p 17857.142857142855ms linear infinite alternate forwards}@keyframes efc6lzgN9pD53_f_p { 0% {fill: rgb(255,77,36);animation-timing-function: cubic-bezier(0.950000,0.050000,0.795000,0.035000)} 40% {fill: rgb(54,43,38);animation-timing-function: cubic-bezier(0.950000,0.050000,0.795000,0.035000)} 62% {fill: rgb(0,130,59)} 100% {fill: rgb(0,130,59)}} #efc6lzgN9pD54 {animation: efc6lzgN9pD54_f_p 17857.142857142855ms linear infinite alternate forwards}@keyframes efc6lzgN9pD54_f_p { 0% {fill: rgb(255,77,36);animation-timing-function: cubic-bezier(0.950000,0.050000,0.795000,0.035000)} 20% {fill: rgb(54,43,38);animation-timing-function: cubic-bezier(0.950000,0.050000,0.795000,0.035000)} 100% {fill: rgb(0,130,59)}} #efc6lzgN9pD55 {animation: efc6lzgN9pD55_f_p 17857.142857142855ms linear infinite alternate forwards}@keyframes efc6lzgN9pD55_f_p { 0% {fill: rgb(255,77,36);animation-timing-function: cubic-bezier(0.950000,0.050000,0.795000,0.035000)} 26% {fill: rgb(54,43,38);animation-timing-function: cubic-bezier(0.950000,0.050000,0.795000,0.035000)} 34% {fill: rgb(0,130,59)} 100% {fill: rgb(0,130,59)}} #efc6lzgN9pD56 {animation: efc6lzgN9pD56_f_p 17857.142857142855ms linear infinite alternate forwards}@keyframes efc6lzgN9pD56_f_p { 0% {fill: rgb(255,77,36);animation-timing-function: cubic-bezier(0.950000,0.050000,0.795000,0.035000)} 16% {fill: rgb(54,43,38);animation-timing-function: cubic-bezier(0.950000,0.050000,0.795000,0.035000)} 62% {fill: rgb(0,130,59)} 100% {fill: rgb(0,130,59)}} #efc6lzgN9pD57 {animation: efc6lzgN9pD57_f_p 17857.142857142855ms linear infinite alternate forwards}@keyframes efc6lzgN9pD57_f_p { 0% {fill: rgb(255,77,36);animation-timing-function: cubic-bezier(0.950000,0.050000,0.795000,0.035000)} 26% {fill: rgb(54,43,38);animation-timing-function: cubic-bezier(0.950000,0.050000,0.795000,0.035000)} 62% {fill: rgb(0,130,59)} 100% {fill: rgb(0,130,59)}} #efc6lzgN9pD58 {animation: efc6lzgN9pD58_f_p 17857.142857142855ms linear infinite alternate forwards}@keyframes efc6lzgN9pD58_f_p { 0% {fill: rgb(255,77,36);animation-timing-function: cubic-bezier(0.950000,0.050000,0.795000,0.035000)} 34% {fill: rgb(54,43,38);animation-timing-function: cubic-bezier(0.950000,0.050000,0.795000,0.035000)} 56% {fill: rgb(0,130,59)} 100% {fill: rgb(0,130,59)}} #efc6lzgN9pD59 {animation: efc6lzgN9pD59_f_p 17857.142857142855ms linear infinite alternate forwards}@keyframes efc6lzgN9pD59_f_p { 0% {fill: rgb(255,77,36);animation-timing-function: cubic-bezier(0.950000,0.050000,0.795000,0.035000)} 16% {fill: rgb(54,43,38);animation-timing-function: cubic-bezier(0.950000,0.050000,0.795000,0.035000)} 34% {fill: rgb(0,130,59)} 100% {fill: rgb(0,130,59)}} #efc6lzgN9pD60 {animation: efc6lzgN9pD60_f_p 17857.142857142855ms linear infinite alternate forwards}@keyframes efc6lzgN9pD60_f_p { 0% {fill: rgb(255,77,36);animation-timing-function: cubic-bezier(0.950000,0.050000,0.795000,0.035000)} 40% {fill: rgb(54,43,38);animation-timing-function: cubic-bezier(0.950000,0.050000,0.795000,0.035000)} 76% {fill: rgb(0,130,59)} 100% {fill: rgb(0,130,59)}} #efc6lzgN9pD61 {animation: efc6lzgN9pD61_f_p 17857.142857142855ms linear infinite alternate forwards}@keyframes efc6lzgN9pD61_f_p { 0% {fill: rgb(255,77,36);animation-timing-function: cubic-bezier(0.950000,0.050000,0.795000,0.035000)} 26% {fill: rgb(54,43,38);animation-timing-function: cubic-bezier(0.950000,0.050000,0.795000,0.035000)} 56% {fill: rgb(0,130,59)} 100% {fill: rgb(0,130,59)}} #efc6lzgN9pD62 {animation: efc6lzgN9pD62_f_p 17857.142857142855ms linear infinite alternate forwards}@keyframes efc6lzgN9pD62_f_p { 0% {fill: rgb(255,77,36);animation-timing-function: cubic-bezier(0.950000,0.050000,0.795000,0.035000)} 20% {fill: rgb(54,43,38);animation-timing-function: cubic-bezier(0.950000,0.050000,0.795000,0.035000)} 62% {fill: rgb(0,130,59)} 100% {fill: rgb(0,130,59)}} #efc6lzgN9pD63 {animation: efc6lzgN9pD63_f_p 17857.142857142855ms linear infinite alternate forwards}@keyframes efc6lzgN9pD63_f_p { 0% {fill: rgb(255,77,36);animation-timing-function: cubic-bezier(0.950000,0.050000,0.795000,0.035000)} 34% {fill: rgb(54,43,38);animation-timing-function: cubic-bezier(0.950000,0.050000,0.795000,0.035000)} 56% {fill: rgb(0,130,59)} 100% {fill: rgb(0,130,59)}} #efc6lzgN9pD64 {animation: efc6lzgN9pD64_f_p 17857.142857142855ms linear infinite alternate forwards}@keyframes efc6lzgN9pD64_f_p { 0% {fill: rgb(255,77,36);animation-timing-function: cubic-bezier(0.950000,0.050000,0.795000,0.035000)} 50% {fill: rgb(54,43,38);animation-timing-function: cubic-bezier(0.950000,0.050000,0.795000,0.035000)} 70% {fill: rgb(0,130,59)} 100% {fill: rgb(0,130,59)}} #efc6lzgN9pD65 {animation: efc6lzgN9pD65_f_p 17857.142857142855ms linear infinite alternate forwards}@keyframes efc6lzgN9pD65_f_p { 0% {fill: rgb(255,77,36);animation-timing-function: cubic-bezier(0.950000,0.050000,0.795000,0.035000)} 10% {fill: rgb(54,43,38);animation-timing-function: cubic-bezier(0.950000,0.050000,0.795000,0.035000)} 26% {fill: rgb(169,110,84);animation-timing-function: cubic-bezier(0.950000,0.050000,0.795000,0.035000)} 30% {fill: rgb(0,130,59)} 100% {fill: rgb(0,130,59)}} #efc6lzgN9pD66 {animation: efc6lzgN9pD66_f_p 17857.142857142855ms linear infinite alternate forwards}@keyframes efc6lzgN9pD66_f_p { 0% {fill: rgb(255,77,36);animation-timing-function: cubic-bezier(0.950000,0.050000,0.795000,0.035000)} 40% {fill: rgb(54,43,38);animation-timing-function: cubic-bezier(0.950000,0.050000,0.795000,0.035000)} 70% {fill: rgb(0,130,59)} 100% {fill: rgb(0,130,59)}}]]></style><g id="efc6lzgN9pD2"><path id="efc6lzgN9pD3" d="M16.801800,25.891300C22.158900,25.891300,26.501600,21.647800,26.501600,16.413300C26.501600,11.178700,22.158900,6.935300,16.801800,6.935300C11.444600,6.935300,7.101560,11.178700,7.101560,16.413300C7.101560,21.647800,11.444600,25.891300,16.801800,25.891300Z" fill="rgb(255,77,36)" stroke="none" stroke-width="1"/><path id="efc6lzgN9pD4" d="M67.575000,25.891300C72.921100,25.891300,77.274700,21.643400,77.274700,16.413300C77.274700,11.183200,72.921100,6.935300,67.575000,6.935300C62.223000,6.935300,57.875000,11.183200,57.875000,16.413300C57.875000,21.643400,62.223000,25.891300,67.575000,25.891300Z" fill="rgb(255,77,36)" stroke="none" stroke-width="1"/><path id="efc6lzgN9pD5" d="M118.340000,0C109.073000,0,101.538000,7.363070,101.538000,16.413300C101.538000,25.463400,109.073000,32.826500,118.340000,32.826500C127.607000,32.826500,135.142000,25.463400,135.142000,16.413300C135.148000,7.363070,127.607000,0,118.340000,0Z" fill="rgb(255,77,36)" stroke="none" stroke-width="1"/><path id="efc6lzgN9pD6" d="M169.113000,0C159.846000,0,152.311000,7.363070,152.311000,16.413300C152.311000,25.463400,159.846000,32.826500,169.113000,32.826500C178.380000,32.826500,185.915000,25.463400,185.915000,16.413300C185.915000,7.363070,178.380000,0,169.113000,0Z" fill="rgb(255,77,36)" stroke="none" stroke-width="1"/><path id="efc6lzgN9pD7" d="M219.886000,0C210.619000,0,203.084000,7.363070,203.084000,16.413300C203.084000,25.463400,210.619000,32.826500,219.886000,32.826500C229.153000,32.826500,236.688000,25.463400,236.688000,16.413300C236.688000,7.363070,229.147000,0,219.886000,0Z" fill="rgb(255,77,36)" stroke="none" stroke-width="1"/><path id="efc6lzgN9pD8" d="M270.653000,0C261.386000,0,253.851000,7.363070,253.851000,16.413300C253.851000,25.463400,261.386000,32.826500,270.653000,32.826500C279.920000,32.826500,287.454000,25.463400,287.454000,16.413300C287.460000,7.363070,279.920000,0,270.653000,0Z" fill="rgb(255,77,36)" stroke="none" stroke-width="1"/><path id="efc6lzgN9pD9" d="M321.425000,25.891300C326.771000,25.891300,331.125000,21.643400,331.125000,16.413300C331.125000,11.183200,326.771000,6.935300,321.425000,6.935300C316.073000,6.935300,311.725000,11.183200,311.725000,16.413300C311.725000,21.643400,316.073000,25.891300,321.425000,25.891300Z" fill="rgb(255,77,36)" stroke="none" stroke-width="1"/><path id="efc6lzgN9pD10" d="M372.198000,25.891300C377.550000,25.891300,381.897000,21.643400,381.897000,16.413300C381.897000,11.183200,377.544000,6.935300,372.198000,6.935300C366.852000,6.935300,362.498000,11.183200,362.498000,16.413300C362.498000,21.643400,366.846000,25.891300,372.198000,25.891300Z" fill="rgb(255,77,36)" stroke="none" stroke-width="1"/><path id="efc6lzgN9pD11" d="M16.801800,375.064000C22.158900,375.064000,26.501600,370.821000,26.501600,365.586000C26.501600,360.352000,22.158900,356.108000,16.801800,356.108000C11.444600,356.108000,7.101560,360.352000,7.101560,365.586000C7.101560,370.821000,11.444600,375.064000,16.801800,375.064000Z" fill="rgb(255,77,36)" stroke="none" stroke-width="1"/><path id="efc6lzgN9pD12" d="M67.575000,356.108000C62.223000,356.108000,57.875000,360.356000,57.875000,365.586000C57.875000,370.816000,62.229000,375.064000,67.575000,375.064000C72.921100,375.064000,77.274700,370.816000,77.274700,365.586000C77.274700,360.356000,72.921100,356.108000,67.575000,356.108000Z" fill="rgb(255,77,36)" stroke="none" stroke-width="1"/><path id="efc6lzgN9pD13" d="M118.340000,349.174000C109.073000,349.174000,101.538000,356.537000,101.538000,365.587000C101.538000,374.637000,109.073000,382,118.340000,382C127.607000,382,135.142000,374.637000,135.142000,365.587000C135.148000,356.537000,127.607000,349.174000,118.340000,349.174000Z" fill="rgb(255,77,36)" stroke="none" stroke-width="1"/><path id="efc6lzgN9pD14" d="M169.113000,349.174000C159.846000,349.174000,152.311000,356.537000,152.311000,365.587000C152.311000,374.637000,159.846000,382,169.113000,382C178.380000,382,185.915000,374.637000,185.915000,365.587000C185.915000,356.537000,178.380000,349.174000,169.113000,349.174000Z" fill="rgb(255,77,36)" stroke="none" stroke-width="1"/><path id="efc6lzgN9pD15" d="M219.886000,349.174000C210.619000,349.174000,203.084000,356.537000,203.084000,365.587000C203.084000,374.637000,210.619000,382,219.886000,382C229.153000,382,236.688000,374.637000,236.688000,365.587000C236.688000,356.537000,229.147000,349.174000,219.886000,349.174000Z" fill="rgb(255,77,36)" stroke="none" stroke-width="1"/><path id="efc6lzgN9pD16" d="M270.653000,349.174000C261.386000,349.174000,253.851000,356.537000,253.851000,365.587000C253.851000,374.637000,261.386000,382,270.653000,382C279.920000,382,287.454000,374.637000,287.454000,365.587000C287.460000,356.537000,279.920000,349.174000,270.653000,349.174000Z" fill="rgb(255,77,36)" stroke="none" stroke-width="1"/><path id="efc6lzgN9pD17" d="M321.425000,356.108000C316.073000,356.108000,311.725000,360.356000,311.725000,365.586000C311.725000,370.816000,316.079000,375.064000,321.425000,375.064000C326.771000,375.064000,331.125000,370.816000,331.125000,365.586000C331.125000,360.356000,326.771000,356.108000,321.425000,356.108000Z" fill="rgb(255,77,36)" stroke="none" stroke-width="1"/><path id="efc6lzgN9pD18" d="M372.198000,356.109000C366.852000,356.109000,362.498000,360.357000,362.498000,365.587000C362.498000,370.817000,366.852000,375.065000,372.198000,375.065000C377.550000,375.065000,381.897000,370.817000,381.897000,365.587000C381.897000,360.357000,377.544000,356.109000,372.198000,356.109000Z" fill="rgb(255,77,36)" stroke="none" stroke-width="1"/><path id="efc6lzgN9pD19" d="M16.801800,325.180000C22.158900,325.180000,26.501600,320.937000,26.501600,315.702000C26.501600,310.468000,22.158900,306.224000,16.801800,306.224000C11.444600,306.224000,7.101560,310.468000,7.101560,315.702000C7.101560,320.937000,11.444600,325.180000,16.801800,325.180000Z" fill="rgb(255,77,36)" stroke="none" stroke-width="1"/><path id="efc6lzgN9pD20" d="M67.574500,299.289000C58.307500,299.289000,50.772500,306.652000,50.772500,315.702000C50.772500,324.753000,58.307500,332.116000,67.574500,332.116000C76.841400,332.116000,84.376500,324.753000,84.376500,315.702000C84.376500,306.652000,76.841400,299.289000,67.574500,299.289000Z" fill="rgb(255,77,36)" stroke="none" stroke-width="1"/><path id="efc6lzgN9pD21" d="M118.340000,299.289000C109.073000,299.289000,101.538000,306.652000,101.538000,315.702000C101.538000,324.753000,109.073000,332.116000,118.340000,332.116000C127.607000,332.116000,135.142000,324.753000,135.142000,315.702000C135.148000,306.652000,127.607000,299.289000,118.340000,299.289000Z" fill="rgb(255,77,36)" stroke="none" stroke-width="1"/><path id="efc6lzgN9pD22" d="M169.113000,299.289000C159.846000,299.289000,152.311000,306.652000,152.311000,315.702000C152.311000,324.753000,159.846000,332.116000,169.113000,332.116000C178.380000,332.116000,185.915000,324.753000,185.915000,315.702000C185.915000,306.652000,178.380000,299.289000,169.113000,299.289000Z" fill="rgb(255,77,36)" stroke="none" stroke-width="1"/><path id="efc6lzgN9pD23" d="M219.886000,299.289000C210.619000,299.289000,203.084000,306.652000,203.084000,315.702000C203.084000,324.753000,210.619000,332.116000,219.886000,332.116000C229.153000,332.116000,236.688000,324.753000,236.688000,315.702000C236.688000,306.652000,229.147000,299.289000,219.886000,299.289000Z" fill="rgb(255,77,36)" stroke="none" stroke-width="1"/><path id="efc6lzgN9pD24" d="M270.653000,299.289000C261.386000,299.289000,253.851000,306.652000,253.851000,315.702000C253.851000,324.753000,261.386000,332.116000,270.653000,332.116000C279.920000,332.116000,287.454000,324.753000,287.454000,315.702000C287.460000,306.652000,279.920000,299.289000,270.653000,299.289000Z" fill="rgb(255,77,36)" stroke="none" stroke-width="1"/><path id="efc6lzgN9pD25" d="M321.425000,299.289000C312.159000,299.289000,304.624000,306.652000,304.624000,315.702000C304.624000,324.753000,312.159000,332.116000,321.425000,332.116000C330.692000,332.116000,338.227000,324.753000,338.227000,315.702000C338.227000,306.652000,330.692000,299.289000,321.425000,299.289000Z" fill="rgb(255,77,36)" stroke="none" stroke-width="1"/><path id="efc6lzgN9pD26" d="M372.198000,306.230000C366.852000,306.230000,362.498000,310.478000,362.498000,315.708000C362.498000,320.939000,366.852000,325.186000,372.198000,325.186000C377.550000,325.186000,381.897000,320.939000,381.897000,315.708000C381.897000,310.478000,377.544000,306.230000,372.198000,306.230000Z" fill="rgb(255,77,36)" stroke="none" stroke-width="1"/><path id="efc6lzgN9pD27" d="M16.801800,282.237000C26.081200,282.237000,33.603700,274.889000,33.603700,265.824000C33.603700,256.759000,26.081200,249.411000,16.801800,249.411000C7.522460,249.411000,0,256.759000,0,265.824000C0,274.889000,7.522460,282.237000,16.801800,282.237000Z" fill="rgb(255,77,36)" stroke="none" stroke-width="1"/><path id="efc6lzgN9pD28" d="M67.574500,249.411000C58.307500,249.411000,50.772500,256.774000,50.772500,265.824000C50.772500,274.874000,58.307500,282.237000,67.574500,282.237000C76.841400,282.237000,84.376500,274.874000,84.376500,265.824000C84.376500,256.774000,76.841400,249.411000,67.574500,249.411000Z" fill="rgb(255,77,36)" stroke="none" stroke-width="1"/><path id="efc6lzgN9pD29" d="M118.340000,249.411000C109.073000,249.411000,101.538000,256.774000,101.538000,265.824000C101.538000,274.874000,109.073000,282.237000,118.340000,282.237000C127.607000,282.237000,135.142000,274.874000,135.142000,265.824000C135.148000,256.774000,127.607000,249.411000,118.340000,249.411000Z" fill="rgb(255,77,36)" stroke="none" stroke-width="1"/><path id="efc6lzgN9pD30" d="M169.114000,275.302000C174.471000,275.302000,178.814000,271.058000,178.814000,265.824000C178.814000,260.589000,174.471000,256.346000,169.114000,256.346000C163.757000,256.346000,159.414000,260.589000,159.414000,265.824000C159.414000,271.058000,163.757000,275.302000,169.114000,275.302000Z" fill="rgb(255,77,36)" stroke="none" stroke-width="1"/><path id="efc6lzgN9pD31" d="M219.886000,275.296000C225.238000,275.296000,229.586000,271.048000,229.586000,265.818000C229.586000,260.594000,225.232000,256.340000,219.886000,256.340000C214.540000,256.340000,210.186000,260.588000,210.186000,265.818000C210.180000,271.048000,214.534000,275.296000,219.886000,275.296000Z" fill="rgb(255,77,36)" stroke="none" stroke-width="1"/><path id="efc6lzgN9pD32" d="M321.425000,249.411000C312.159000,249.411000,304.624000,256.774000,304.624000,265.824000C304.624000,274.874000,312.159000,282.237000,321.425000,282.237000C330.692000,282.237000,338.227000,274.874000,338.227000,265.824000C338.227000,256.774000,330.692000,249.411000,321.425000,249.411000Z" fill="rgb(255,77,36)" stroke="none" stroke-width="1"/><path id="efc6lzgN9pD33" d="M372.198000,249.411000C362.931000,249.411000,355.396000,256.774000,355.396000,265.824000C355.396000,274.874000,362.931000,282.237000,372.198000,282.237000C381.465000,282.237000,389,274.874000,389,265.824000C389,256.774000,381.459000,249.411000,372.198000,249.411000Z" fill="rgb(255,77,36)" stroke="none" stroke-width="1"/><path id="efc6lzgN9pD34" d="M16.801800,232.353000C26.081200,232.353000,33.603700,225.004000,33.603700,215.940000C33.603700,206.875000,26.081200,199.526000,16.801800,199.526000C7.522460,199.526000,0,206.875000,0,215.940000C0,225.004000,7.522460,232.353000,16.801800,232.353000Z" fill="rgb(255,77,36)" stroke="none" stroke-width="1"/><path id="efc6lzgN9pD35" d="M67.574500,199.526000C58.307500,199.526000,50.772500,206.889000,50.772500,215.940000C50.772500,224.990000,58.307500,232.353000,67.574500,232.353000C76.841400,232.353000,84.376500,224.990000,84.376500,215.940000C84.376500,206.889000,76.841400,199.526000,67.574500,199.526000Z" fill="rgb(255,77,36)" stroke="none" stroke-width="1"/><path id="efc6lzgN9pD36" d="M118.341000,225.417000C123.698000,225.417000,128.041000,221.174000,128.041000,215.939000C128.041000,210.705000,123.698000,206.461000,118.341000,206.461000C112.984000,206.461000,108.641000,210.705000,108.641000,215.939000C108.641000,221.174000,112.984000,225.417000,118.341000,225.417000Z" fill="rgb(255,77,36)" stroke="none" stroke-width="1"/><path id="efc6lzgN9pD37" d="M169.114000,225.417000C174.471000,225.417000,178.814000,221.174000,178.814000,215.939000C178.814000,210.705000,174.471000,206.461000,169.114000,206.461000C163.757000,206.461000,159.414000,210.705000,159.414000,215.939000C159.414000,221.174000,163.757000,225.417000,169.114000,225.417000Z" fill="rgb(255,77,36)" stroke="none" stroke-width="1"/><path id="efc6lzgN9pD38" d="M219.886000,225.417000C225.238000,225.417000,229.586000,221.169000,229.586000,215.939000C229.586000,210.715000,225.232000,206.461000,219.886000,206.461000C214.540000,206.461000,210.186000,210.709000,210.186000,215.939000C210.180000,221.163000,214.534000,225.417000,219.886000,225.417000Z" fill="rgb(255,77,36)" stroke="none" stroke-width="1"/><path id="efc6lzgN9pD39" d="M270.653000,225.417000C276.010000,225.417000,280.353000,221.174000,280.353000,215.939000C280.353000,210.705000,276.010000,206.461000,270.653000,206.461000C265.296000,206.461000,260.953000,210.705000,260.953000,215.939000C260.953000,221.174000,265.296000,225.417000,270.653000,225.417000Z" fill="rgb(255,77,36)" stroke="none" stroke-width="1"/><path id="efc6lzgN9pD40" d="M321.425000,225.417000C326.771000,225.417000,331.125000,221.169000,331.125000,215.939000C331.125000,210.715000,326.771000,206.461000,321.425000,206.461000C316.073000,206.461000,311.725000,210.709000,311.725000,215.939000C311.725000,221.163000,316.073000,225.417000,321.425000,225.417000Z" fill="rgb(255,77,36)" stroke="none" stroke-width="1"/><path id="efc6lzgN9pD41" d="M372.198000,206.467000C366.852000,206.467000,362.498000,210.715000,362.498000,215.945000C362.498000,221.169000,366.852000,225.423000,372.198000,225.423000C377.550000,225.423000,381.897000,221.175000,381.897000,215.945000C381.897000,210.715000,377.544000,206.467000,372.198000,206.467000Z" fill="rgb(255,77,36)" stroke="none" stroke-width="1"/><path id="efc6lzgN9pD42" d="M16.801800,182.474000C26.081200,182.474000,33.603700,175.126000,33.603700,166.061000C33.603700,156.996000,26.081200,149.648000,16.801800,149.648000C7.522460,149.648000,0,156.996000,0,166.061000C0,175.126000,7.522460,182.474000,16.801800,182.474000Z" fill="rgb(255,77,36)" stroke="none" stroke-width="1"/><path id="efc6lzgN9pD43" d="M67.574500,149.648000C58.307500,149.648000,50.772500,157.011000,50.772500,166.061000C50.772500,175.111000,58.307500,182.474000,67.574500,182.474000C76.841400,182.474000,84.376500,175.111000,84.376500,166.061000C84.376500,157.011000,76.841400,149.648000,67.574500,149.648000Z" fill="rgb(255,77,36)" stroke="none" stroke-width="1"/><path id="efc6lzgN9pD44" d="M118.341000,175.539000C123.698000,175.539000,128.041000,171.296000,128.041000,166.061000C128.041000,160.827000,123.698000,156.583000,118.341000,156.583000C112.984000,156.583000,108.641000,160.827000,108.641000,166.061000C108.641000,171.296000,112.984000,175.539000,118.341000,175.539000Z" fill="rgb(255,77,36)" stroke="none" stroke-width="1"/><path id="efc6lzgN9pD45" d="M169.114000,175.539000C174.471000,175.539000,178.814000,171.296000,178.814000,166.061000C178.814000,160.827000,174.471000,156.583000,169.114000,156.583000C163.757000,156.583000,159.414000,160.827000,159.414000,166.061000C159.414000,171.296000,163.757000,175.539000,169.114000,175.539000Z" fill="rgb(255,77,36)" stroke="none" stroke-width="1"/><path id="efc6lzgN9pD46" d="M219.886000,175.533000C225.238000,175.533000,229.586000,171.285000,229.586000,166.055000C229.586000,160.831000,225.232000,156.577000,219.886000,156.577000C214.540000,156.577000,210.186000,160.825000,210.186000,166.055000C210.180000,171.285000,214.534000,175.533000,219.886000,175.533000Z" fill="rgb(255,77,36)" stroke="none" stroke-width="1"/><path id="efc6lzgN9pD47" d="M270.653000,175.539000C276.010000,175.539000,280.353000,171.295000,280.353000,166.061000C280.353000,160.826000,276.010000,156.583000,270.653000,156.583000C265.296000,156.583000,260.953000,160.826000,260.953000,166.061000C260.953000,171.295000,265.296000,175.539000,270.653000,175.539000Z" fill="rgb(255,77,36)" stroke="none" stroke-width="1"/><path id="efc6lzgN9pD48" d="M321.425000,175.533000C326.771000,175.533000,331.125000,171.285000,331.125000,166.055000C331.125000,160.831000,326.771000,156.577000,321.425000,156.577000C316.073000,156.577000,311.725000,160.825000,311.725000,166.055000C311.725000,171.285000,316.073000,175.533000,321.425000,175.533000Z" fill="rgb(255,77,36)" stroke="none" stroke-width="1"/><path id="efc6lzgN9pD49" d="M372.198000,156.583000C366.852000,156.583000,362.498000,160.831000,362.498000,166.061000C362.498000,171.285000,366.852000,175.539000,372.198000,175.539000C377.550000,175.539000,381.897000,171.291000,381.897000,166.061000C381.897000,160.831000,377.544000,156.583000,372.198000,156.583000Z" fill="rgb(255,77,36)" stroke="none" stroke-width="1"/><path id="efc6lzgN9pD50" d="M16.801800,132.589000C26.081200,132.589000,33.603700,125.241000,33.603700,116.176000C33.603700,107.111000,26.081200,99.762800,16.801800,99.762800C7.522460,99.762800,0,107.111000,0,116.176000C0,125.241000,7.522460,132.589000,16.801800,132.589000Z" fill="rgb(255,77,36)" stroke="none" stroke-width="1"/><path id="efc6lzgN9pD51" d="M67.574500,99.762800C58.307500,99.762800,50.772500,107.126000,50.772500,116.176000C50.772500,125.226000,58.307500,132.589000,67.574500,132.589000C76.841400,132.589000,84.376500,125.226000,84.376500,116.176000C84.376500,107.126000,76.841400,99.762800,67.574500,99.762800Z" fill="rgb(255,77,36)" stroke="none" stroke-width="1"/><path id="efc6lzgN9pD52" d="M118.340000,99.762800C109.073000,99.762800,101.538000,107.126000,101.538000,116.176000C101.538000,125.226000,109.073000,132.589000,118.340000,132.589000C127.607000,132.589000,135.142000,125.226000,135.142000,116.176000C135.142000,107.126000,127.607000,99.762800,118.340000,99.762800Z" fill="rgb(255,77,36)" stroke="none" stroke-width="1"/><path id="efc6lzgN9pD53" d="M169.114000,125.654000C174.471000,125.654000,178.814000,121.411000,178.814000,116.176000C178.814000,110.942000,174.471000,106.698000,169.114000,106.698000C163.757000,106.698000,159.414000,110.942000,159.414000,116.176000C159.414000,121.411000,163.757000,125.654000,169.114000,125.654000Z" fill="rgb(255,77,36)" stroke="none" stroke-width="1"/><path id="efc6lzgN9pD54" d="M219.886000,125.654000C225.238000,125.654000,229.586000,121.407000,229.586000,116.176000C229.586000,110.952000,225.232000,106.698000,219.886000,106.698000C214.540000,106.698000,210.186000,110.946000,210.186000,116.176000C210.180000,121.401000,214.534000,125.654000,219.886000,125.654000Z" fill="rgb(255,77,36)" stroke="none" stroke-width="1"/><path id="efc6lzgN9pD55" d="M321.425000,99.762800C312.159000,99.762800,304.624000,107.126000,304.624000,116.176000C304.624000,125.226000,312.159000,132.589000,321.425000,132.589000C330.692000,132.589000,338.227000,125.226000,338.227000,116.176000C338.227000,107.126000,330.692000,99.762800,321.425000,99.762800Z" fill="rgb(255,77,36)" stroke="none" stroke-width="1"/><path id="efc6lzgN9pD56" d="M372.198000,132.589000C381.465000,132.589000,389,125.226000,389,116.176000C389,107.126000,381.465000,99.762800,372.198000,99.762800C362.931000,99.762800,355.396000,107.126000,355.396000,116.176000C355.396000,125.226000,362.931000,132.589000,372.198000,132.589000Z" fill="rgb(255,77,36)" stroke="none" stroke-width="1"/><path id="efc6lzgN9pD57" d="M16.801800,75.769900C22.158900,75.769900,26.501600,71.526500,26.501600,66.292000C26.501600,61.057400,22.158900,56.814000,16.801800,56.814000C11.444600,56.814000,7.101560,61.057400,7.101560,66.292000C7.101560,71.526500,11.444600,75.769900,16.801800,75.769900Z" fill="rgb(255,77,36)" stroke="none" stroke-width="1"/><path id="efc6lzgN9pD58" d="M67.574500,49.884600C58.307500,49.884600,50.772500,57.247700,50.772500,66.297900C50.772500,75.348100,58.307500,82.711200,67.574500,82.711200C76.841400,82.711200,84.376500,75.348100,84.376500,66.297900C84.376500,57.247700,76.841400,49.884600,67.574500,49.884600Z" fill="rgb(255,77,36)" stroke="none" stroke-width="1"/><path id="efc6lzgN9pD59" d="M118.340000,49.884600C109.073000,49.884600,101.538000,57.247700,101.538000,66.297900C101.538000,75.348100,109.073000,82.711200,118.340000,82.711200C127.607000,82.711200,135.142000,75.348100,135.142000,66.297900C135.148000,57.247700,127.607000,49.884600,118.340000,49.884600Z" fill="rgb(255,77,36)" stroke="none" stroke-width="1"/><path id="efc6lzgN9pD60" d="M169.113000,49.884600C159.846000,49.884600,152.311000,57.247700,152.311000,66.297900C152.311000,75.348100,159.846000,82.711200,169.113000,82.711200C178.380000,82.711200,185.915000,75.348100,185.915000,66.297900C185.915000,57.247700,178.380000,49.884600,169.113000,49.884600Z" fill="rgb(255,77,36)" stroke="none" stroke-width="1"/><path id="efc6lzgN9pD61" d="M219.886000,49.884600C210.619000,49.884600,203.084000,57.247700,203.084000,66.297900C203.084000,75.348100,210.619000,82.711200,219.886000,82.711200C229.153000,82.711200,236.688000,75.348100,236.688000,66.297900C236.688000,57.247700,229.147000,49.884600,219.886000,49.884600Z" fill="rgb(255,77,36)" stroke="none" stroke-width="1"/><path id="efc6lzgN9pD62" d="M270.653000,49.884600C261.386000,49.884600,253.851000,57.247700,253.851000,66.297900C253.851000,75.348100,261.386000,82.711200,270.653000,82.711200C279.920000,82.711200,287.454000,75.348100,287.454000,66.297900C287.460000,57.247700,279.920000,49.884600,270.653000,49.884600Z" fill="rgb(255,77,36)" stroke="none" stroke-width="1"/><path id="efc6lzgN9pD63" d="M321.425000,49.884600C312.159000,49.884600,304.624000,57.247700,304.624000,66.297900C304.624000,75.348100,312.159000,82.711200,321.425000,82.711200C330.692000,82.711200,338.227000,75.348100,338.227000,66.297900C338.227000,57.247700,330.692000,49.884600,321.425000,49.884600Z" fill="rgb(255,77,36)" stroke="none" stroke-width="1"/><path id="efc6lzgN9pD64" d="M372.198000,75.769800C377.550000,75.769800,381.897000,71.521900,381.897000,66.291800C381.897000,61.061800,377.544000,56.813800,372.198000,56.813800C366.852000,56.813800,362.498000,61.061800,362.498000,66.291800C362.498000,71.521900,366.846000,75.769800,372.198000,75.769800Z" fill="rgb(255,77,36)" stroke="none" stroke-width="1"/><path id="efc6lzgN9pD65" d="M270.653000,99.762800C261.386000,99.762800,253.851000,107.126000,253.851000,116.176000C253.851000,125.226000,261.386000,132.589000,270.653000,132.589000C279.920000,132.589000,287.454000,125.226000,287.454000,116.176000C287.460000,107.126000,279.920000,99.762800,270.653000,99.762800Z" fill="rgb(255,77,36)" stroke="none" stroke-width="1"/><path id="efc6lzgN9pD66" d="M270.653000,249.411000C261.386000,249.411000,253.851000,256.774000,253.851000,265.824000C253.851000,274.874000,261.386000,282.237000,270.653000,282.237000C279.920000,282.237000,287.454000,274.874000,287.454000,265.824000C287.460000,256.774000,279.920000,249.411000,270.653000,249.411000Z" fill="rgb(255,77,36)" stroke="none" stroke-width="1"/></g></svg>