<?xml version="1.0" encoding="utf-8"?>
<!-- Generator: Adobe Illustrator 25.1.0, SVG Export Plug-In . SVG Version: 6.00 Build 0)  -->
<svg version="1.1" id="Layer_1" xmlns="http://www.w3.org/2000/svg" xmlns:xlink="http://www.w3.org/1999/xlink" x="0px" y="0px"
	 viewBox="0 0 389 382" style="enable-background:new 0 0 389 382;" xml:space="preserve">
<style type="text/css">
	.st0{fill:#362B26;}
	.st1{fill:#FFFFFF;}
	.st2{fill:#00823B;}
	.st3{fill:#FF4D24;}
	.st4{display:none;}
	.st5{display:inline;fill:#FF4D24;}
	.st6{display:inline;fill:#362B26;}
	.st7{display:inline;fill:#00823B;}
</style>
<g>
	<path class="st0" d="M118.3,0c-9.3,0-16.8,7.4-16.8,16.4c0,9.1,7.5,16.4,16.8,16.4s16.8-7.4,16.8-16.4C135.1,7.4,127.6,0,118.3,0z"
		/>
	<path class="st0" d="M169.1,0c-9.3,0-16.8,7.4-16.8,16.4c0,9.1,7.5,16.4,16.8,16.4c9.3,0,16.8-7.4,16.8-16.4
		C185.9,7.4,178.4,0,169.1,0z"/>
	<path class="st1" d="M219.9,0c-9.3,0-16.8,7.4-16.8,16.4c0,9.1,7.5,16.4,16.8,16.4s16.8-7.4,16.8-16.4C236.7,7.4,229.1,0,219.9,0z"
		/>
	<path class="st2" d="M270.7,0c-9.3,0-16.8,7.4-16.8,16.4c0,9.1,7.5,16.4,16.8,16.4c9.3,0,16.8-7.4,16.8-16.4
		C287.5,7.4,279.9,0,270.7,0z"/>
	<path class="st2" d="M118.3,349.2c-9.3,0-16.8,7.4-16.8,16.4c0,9,7.5,16.4,16.8,16.4s16.8-7.4,16.8-16.4
		C135.1,356.5,127.6,349.2,118.3,349.2z"/>
	<path class="st0" d="M169.1,349.2c-9.3,0-16.8,7.4-16.8,16.4c0,9,7.5,16.4,16.8,16.4c9.3,0,16.8-7.4,16.8-16.4
		C185.9,356.5,178.4,349.2,169.1,349.2z"/>
	<path class="st0" d="M219.9,349.2c-9.3,0-16.8,7.4-16.8,16.4c0,9,7.5,16.4,16.8,16.4s16.8-7.4,16.8-16.4
		C236.7,356.5,229.1,349.2,219.9,349.2z"/>
	<path class="st2" d="M270.7,349.2c-9.3,0-16.8,7.4-16.8,16.4c0,9,7.5,16.4,16.8,16.4c9.3,0,16.8-7.4,16.8-16.4
		C287.5,356.5,279.9,349.2,270.7,349.2z"/>
	<path class="st2" d="M67.6,299.3c-9.3,0-16.8,7.4-16.8,16.4c0,9.1,7.5,16.4,16.8,16.4c9.3,0,16.8-7.4,16.8-16.4
		C84.4,306.7,76.8,299.3,67.6,299.3z"/>
	<path class="st1" d="M169.1,299.3c-9.3,0-16.8,7.4-16.8,16.4c0,9.1,7.5,16.4,16.8,16.4c9.3,0,16.8-7.4,16.8-16.4
		C185.9,306.7,178.4,299.3,169.1,299.3z"/>
	<path class="st2" d="M219.9,299.3c-9.3,0-16.8,7.4-16.8,16.4c0,9.1,7.5,16.4,16.8,16.4s16.8-7.4,16.8-16.4
		C236.7,306.7,229.1,299.3,219.9,299.3z"/>
	<path class="st1" d="M270.7,299.3c-9.3,0-16.8,7.4-16.8,16.4c0,9.1,7.5,16.4,16.8,16.4c9.3,0,16.8-7.4,16.8-16.4
		C287.5,306.7,279.9,299.3,270.7,299.3z"/>
	<path class="st0" d="M321.4,299.3c-9.3,0-16.8,7.4-16.8,16.4c0,9.1,7.5,16.4,16.8,16.4c9.3,0,16.8-7.4,16.8-16.4
		C338.2,306.7,330.7,299.3,321.4,299.3z"/>
	<path class="st0" d="M16.8,282.2c9.3,0,16.8-7.3,16.8-16.4s-7.5-16.4-16.8-16.4c-9.3,0-16.8,7.3-16.8,16.4S7.5,282.2,16.8,282.2z"
		/>
	<path class="st0" d="M67.6,249.4c-9.3,0-16.8,7.4-16.8,16.4c0,9,7.5,16.4,16.8,16.4c9.3,0,16.8-7.4,16.8-16.4
		C84.4,256.8,76.8,249.4,67.6,249.4z"/>
	<path class="st2" d="M118.3,249.4c-9.3,0-16.8,7.4-16.8,16.4c0,9,7.5,16.4,16.8,16.4s16.8-7.4,16.8-16.4
		C135.1,256.8,127.6,249.4,118.3,249.4z"/>
	<path class="st2" d="M321.4,249.4c-9.3,0-16.8,7.4-16.8,16.4c0,9,7.5,16.4,16.8,16.4c9.3,0,16.8-7.4,16.8-16.4
		C338.2,256.8,330.7,249.4,321.4,249.4z"/>
	<path class="st2" d="M16.8,232.4c9.3,0,16.8-7.3,16.8-16.4c0-9.1-7.5-16.4-16.8-16.4c-9.3,0-16.8,7.3-16.8,16.4
		C0,225,7.5,232.4,16.8,232.4z"/>
	<path class="st3" d="M16.8,182.5c9.3,0,16.8-7.3,16.8-16.4s-7.5-16.4-16.8-16.4C7.5,149.6,0,157,0,166.1S7.5,182.5,16.8,182.5z"/>
	<path class="st1" d="M67.6,149.6c-9.3,0-16.8,7.4-16.8,16.4c0,9,7.5,16.4,16.8,16.4c9.3,0,16.8-7.4,16.8-16.4
		C84.4,157,76.8,149.6,67.6,149.6z"/>
	<path class="st0" d="M16.8,132.6c9.3,0,16.8-7.3,16.8-16.4s-7.5-16.4-16.8-16.4C7.5,99.8,0,107.1,0,116.2S7.5,132.6,16.8,132.6z"/>
	<path class="st0" d="M118.3,99.8c-9.3,0-16.8,7.4-16.8,16.4s7.5,16.4,16.8,16.4s16.8-7.4,16.8-16.4S127.6,99.8,118.3,99.8z"/>
	<path class="st3" d="M321.4,99.8c-9.3,0-16.8,7.4-16.8,16.4s7.5,16.4,16.8,16.4c9.3,0,16.8-7.4,16.8-16.4S330.7,99.8,321.4,99.8z"
		/>
	<path class="st2" d="M372.2,132.6c9.3,0,16.8-7.4,16.8-16.4s-7.5-16.4-16.8-16.4s-16.8,7.4-16.8,16.4S362.9,132.6,372.2,132.6z"/>
	<path class="st0" d="M67.6,49.9c-9.3,0-16.8,7.4-16.8,16.4c0,9.1,7.5,16.4,16.8,16.4c9.3,0,16.8-7.4,16.8-16.4
		C84.4,57.2,76.8,49.9,67.6,49.9z"/>
	<path class="st2" d="M118.3,49.9c-9.3,0-16.8,7.4-16.8,16.4c0,9.1,7.5,16.4,16.8,16.4s16.8-7.4,16.8-16.4
		C135.1,57.2,127.6,49.9,118.3,49.9z"/>
	<path class="st3" d="M169.1,49.9c-9.3,0-16.8,7.4-16.8,16.4c0,9.1,7.5,16.4,16.8,16.4c9.3,0,16.8-7.4,16.8-16.4
		C185.9,57.2,178.4,49.9,169.1,49.9z"/>
	<path class="st0" d="M219.9,49.9c-9.3,0-16.8,7.4-16.8,16.4c0,9.1,7.5,16.4,16.8,16.4s16.8-7.4,16.8-16.4
		C236.7,57.2,229.1,49.9,219.9,49.9z"/>
	<path class="st2" d="M321.4,49.9c-9.3,0-16.8,7.4-16.8,16.4c0,9.1,7.5,16.4,16.8,16.4c9.3,0,16.8-7.4,16.8-16.4
		C338.2,57.2,330.7,49.9,321.4,49.9z"/>
	<g class="st4">
		<path class="st5" d="M118.3,299.3c-9.3,0-16.8,7.4-16.8,16.4c0,9.1,7.5,16.4,16.8,16.4s16.8-7.4,16.8-16.4
			C135.1,306.7,127.6,299.3,118.3,299.3z"/>
		<path class="st5" d="M372.2,249.4c-9.3,0-16.8,7.4-16.8,16.4c0,9,7.5,16.4,16.8,16.4s16.8-7.4,16.8-16.4
			C389,256.8,381.5,249.4,372.2,249.4z"/>
		<path class="st6" d="M67.6,199.5c-9.3,0-16.8,7.4-16.8,16.4c0,9.1,7.5,16.4,16.8,16.4c9.3,0,16.8-7.4,16.8-16.4
			C84.4,206.9,76.8,199.5,67.6,199.5z"/>
		<path class="st7" d="M67.6,99.8c-9.3,0-16.8,7.4-16.8,16.4s7.5,16.4,16.8,16.4c9.3,0,16.8-7.4,16.8-16.4S76.8,99.8,67.6,99.8z"/>
		<path class="st7" d="M270.7,49.9c-9.3,0-16.8,7.4-16.8,16.4c0,9.1,7.5,16.4,16.8,16.4c9.3,0,16.8-7.4,16.8-16.4
			C287.5,57.2,279.9,49.9,270.7,49.9z"/>
		<path class="st6" d="M270.7,249.4c-9.3,0-16.8,7.4-16.8,16.4c0,9,7.5,16.4,16.8,16.4c9.3,0,16.8-7.4,16.8-16.4
			C287.5,256.8,279.9,249.4,270.7,249.4z"/>
	</g>
</g>
</svg>
