<svg id="elmwquk6ctc1" xmlns="http://www.w3.org/2000/svg" xmlns:xlink="http://www.w3.org/1999/xlink" viewBox="0 0 389 382" shape-rendering="geometricPrecision" text-rendering="geometricPrecision"><style><![CDATA[#elmwquk6ctc2 {animation: elmwquk6ctc2_f_p 10000ms linear infinite alternate forwards}@keyframes elmwquk6ctc2_f_p { 0% {fill: rgb(0,130,59)} 100% {fill: rgb(255,77,36)} }#elmwquk6ctc3 {animation: elmwquk6ctc3_f_p 10000ms linear infinite alternate forwards}@keyframes elmwquk6ctc3_f_p { 0% {fill: rgb(54,43,38)} 100% {fill: rgb(0,130,59)} }#elmwquk6ctc12 {animation: elmwquk6ctc12_f_p 10000ms linear infinite alternate forwards}@keyframes elmwquk6ctc12_f_p { 0% {fill: rgb(255,77,36)} 100% {fill: rgb(54,43,38)} }#elmwquk6ctc16 {animation: elmwquk6ctc16_f_p 10000ms linear infinite alternate forwards}@keyframes elmwquk6ctc16_f_p { 0% {fill: rgb(54,43,38)} 100% {fill: rgb(255,77,36)} }#elmwquk6ctc20 {animation: elmwquk6ctc20_f_p 10000ms linear infinite alternate forwards}@keyframes elmwquk6ctc20_f_p { 0% {fill: rgb(54,43,38)} 100% {fill: rgb(0,130,59)} }]]></style><path id="elmwquk6ctc2" d="M67.600000,25.900000C72.900000,25.900000,77.300000,21.700000,77.300000,16.400000C77.300000,11.200000,72.900000,6.900000,67.600000,6.900000C62.200000,6.900000,57.900000,11.100000,57.900000,16.400000C57.900000,21.600000,62.200000,25.900000,67.600000,25.900000Z" fill="rgb(0,130,59)" stroke="none" stroke-width="1"/><path id="elmwquk6ctc3" d="M321.400000,25.900000C326.700000,25.900000,331.100000,21.700000,331.100000,16.400000C331.100000,11.200000,326.700000,6.900000,321.400000,6.900000C316,6.900000,311.700000,11.100000,311.700000,16.400000C311.700000,21.600000,316.100000,25.900000,321.400000,25.900000Z" fill="rgb(54,43,38)" stroke="none" stroke-width="1"/><path id="elmwquk6ctc4" d="M372.200000,25.900000C377.600000,25.900000,381.900000,21.700000,381.900000,16.400000C381.900000,11.200000,377.500000,6.900000,372.200000,6.900000C366.900000,6.900000,362.500000,11.100000,362.500000,16.400000C362.500000,21.600000,366.800000,25.900000,372.200000,25.900000Z" fill="rgb(0,130,59)" stroke="none" stroke-width="1"/><path id="elmwquk6ctc5" d="M16.800000,375.100000C22.200000,375.100000,26.500000,370.900000,26.500000,365.600000C26.500000,360.400000,22.200000,356.100000,16.800000,356.100000C11.400000,356.100000,7.100000,360.300000,7.100000,365.600000C7.100000,370.800000,11.400000,375.100000,16.800000,375.100000Z" fill="rgb(255,255,255)" stroke="none" stroke-width="1"/><path id="elmwquk6ctc6" d="M67.600000,356.100000C62.200000,356.100000,57.900000,360.300000,57.900000,365.600000C57.900000,370.900000,62.300000,375.100000,67.600000,375.100000C72.900000,375.100000,77.300000,370.900000,77.300000,365.600000C77.300000,360.300000,72.900000,356.100000,67.600000,356.100000Z" fill="rgb(54,43,38)" stroke="none" stroke-width="1"/><path id="elmwquk6ctc7" d="M321.400000,356.100000C316,356.100000,311.700000,360.300000,311.700000,365.600000C311.700000,370.900000,316.100000,375.100000,321.400000,375.100000C326.700000,375.100000,331.100000,370.900000,331.100000,365.600000C331.100000,360.300000,326.800000,356.100000,321.400000,356.100000Z" fill="rgb(54,43,38)" stroke="none" stroke-width="1"/><path id="elmwquk6ctc8" d="M16.800000,325.200000C22.200000,325.200000,26.500000,321,26.500000,315.700000C26.500000,310.500000,22.200000,306.200000,16.800000,306.200000C11.400000,306.200000,7.100000,310.400000,7.100000,315.700000C7.100000,320.900000,11.400000,325.200000,16.800000,325.200000Z" fill="rgb(54,43,38)" stroke="none" stroke-width="1"/><path id="elmwquk6ctc9" d="M169.100000,275.300000C174.500000,275.300000,178.800000,271.100000,178.800000,265.800000C178.800000,260.600000,174.500000,256.300000,169.100000,256.300000C163.700000,256.300000,159.400000,260.500000,159.400000,265.800000C159.400000,271.100000,163.800000,275.300000,169.100000,275.300000Z" fill="rgb(54,43,38)" stroke="none" stroke-width="1"/><path id="elmwquk6ctc10" d="M219.900000,275.300000C225.300000,275.300000,229.600000,271.100000,229.600000,265.800000C229.600000,260.600000,225.200000,256.300000,219.900000,256.300000C214.600000,256.300000,210.200000,260.500000,210.200000,265.800000C210.200000,271,214.500000,275.300000,219.900000,275.300000Z" fill="rgb(0,130,59)" stroke="none" stroke-width="1"/><path id="elmwquk6ctc11" d="M118.300000,225.400000C123.700000,225.400000,128,221.200000,128,215.900000C128,210.700000,123.700000,206.400000,118.300000,206.400000C112.900000,206.400000,108.600000,210.600000,108.600000,215.900000C108.600000,221.200000,113,225.400000,118.300000,225.400000Z" fill="rgb(255,255,255)" stroke="none" stroke-width="1"/><path id="elmwquk6ctc12" d="M219.900000,225.400000C225.300000,225.400000,229.600000,221.200000,229.600000,215.900000C229.600000,210.700000,225.200000,206.400000,219.900000,206.400000C214.600000,206.400000,210.200000,210.600000,210.200000,215.900000C210.200000,221.200000,214.500000,225.400000,219.900000,225.400000Z" fill="rgb(255,77,36)" stroke="none" stroke-width="1"/><path id="elmwquk6ctc13" d="M270.700000,225.400000C276.100000,225.400000,280.400000,221.200000,280.400000,215.900000C280.400000,210.700000,276.100000,206.400000,270.700000,206.400000C265.300000,206.400000,261,210.600000,261,215.900000C261,221.200000,265.300000,225.400000,270.700000,225.400000Z" fill="rgb(0,130,59)" stroke="none" stroke-width="1"/><path id="elmwquk6ctc14" d="M321.400000,225.400000C326.700000,225.400000,331.100000,221.200000,331.100000,215.900000C331.100000,210.700000,326.700000,206.400000,321.400000,206.400000C316,206.400000,311.700000,210.600000,311.700000,215.900000C311.700000,221.200000,316.100000,225.400000,321.400000,225.400000Z" fill="rgb(54,43,38)" stroke="none" stroke-width="1"/><path id="elmwquk6ctc15" d="M118.300000,175.500000C123.700000,175.500000,128,171.300000,128,166C128,160.800000,123.700000,156.500000,118.300000,156.500000C112.900000,156.500000,108.600000,160.700000,108.600000,166C108.600000,171.300000,113,175.500000,118.300000,175.500000Z" fill="rgb(54,43,38)" stroke="none" stroke-width="1"/><path id="elmwquk6ctc16" d="M169.100000,175.500000C174.500000,175.500000,178.800000,171.300000,178.800000,166C178.800000,160.800000,174.500000,156.500000,169.100000,156.500000C163.700000,156.500000,159.400000,160.700000,159.400000,166C159.400000,171.300000,163.800000,175.500000,169.100000,175.500000Z" fill="rgb(54,43,38)" stroke="none" stroke-width="1"/><path id="elmwquk6ctc17" d="M219.900000,175.500000C225.300000,175.500000,229.600000,171.300000,229.600000,166C229.600000,160.800000,225.200000,156.500000,219.900000,156.500000C214.600000,156.500000,210.200000,160.700000,210.200000,166C210.200000,171.300000,214.500000,175.500000,219.900000,175.500000Z" fill="rgb(0,130,59)" stroke="none" stroke-width="1"/><path id="elmwquk6ctc18" d="M270.700000,175.500000C276.100000,175.500000,280.400000,171.300000,280.400000,166C280.400000,160.800000,276.100000,156.500000,270.700000,156.500000C265.300000,156.500000,261,160.700000,261,166C261,171.300000,265.300000,175.500000,270.700000,175.500000Z" fill="rgb(0,130,59)" stroke="none" stroke-width="1"/><path id="elmwquk6ctc19" d="M321.400000,175.500000C326.700000,175.500000,331.100000,171.300000,331.100000,166C331.100000,160.800000,326.700000,156.500000,321.400000,156.500000C316,156.500000,311.700000,160.700000,311.700000,166C311.700000,171.300000,316.100000,175.500000,321.400000,175.500000Z" fill="rgb(255,255,255)" stroke="none" stroke-width="1"/><path id="elmwquk6ctc20" d="M372.200000,156.600000C366.900000,156.600000,362.500000,160.800000,362.500000,166.100000C362.500000,171.300000,366.900000,175.600000,372.200000,175.600000C377.600000,175.600000,381.900000,171.400000,381.900000,166.100000C381.900000,160.800000,377.500000,156.600000,372.200000,156.600000Z" fill="rgb(54,43,38)" stroke="none" stroke-width="1"/><path id="elmwquk6ctc21" d="M169.100000,125.700000C174.500000,125.700000,178.800000,121.500000,178.800000,116.200000C178.800000,111,174.500000,106.700000,169.100000,106.700000C163.700000,106.700000,159.400000,110.900000,159.400000,116.200000C159.400000,121.400000,163.800000,125.700000,169.100000,125.700000Z" fill="rgb(255,255,255)" stroke="none" stroke-width="1"/><path id="elmwquk6ctc22" d="M219.900000,125.700000C225.300000,125.700000,229.600000,121.500000,229.600000,116.200000C229.600000,111,225.200000,106.700000,219.900000,106.700000C214.600000,106.700000,210.200000,110.900000,210.200000,116.200000C210.200000,121.400000,214.500000,125.700000,219.900000,125.700000Z" fill="rgb(54,43,38)" stroke="none" stroke-width="1"/><path id="elmwquk6ctc23" d="M16.800000,75.800000C22.200000,75.800000,26.500000,71.600000,26.500000,66.300000C26.500000,61.100000,22.200000,56.800000,16.800000,56.800000C11.400000,56.800000,7.100000,61,7.100000,66.300000C7.100000,71.500000,11.400000,75.800000,16.800000,75.800000Z" fill="rgb(255,255,255)" stroke="none" stroke-width="1"/><path id="elmwquk6ctc24" d="M372.200000,75.800000C377.600000,75.800000,381.900000,71.600000,381.900000,66.300000C381.900000,61.100000,377.500000,56.800000,372.200000,56.800000C366.900000,56.800000,362.500000,61,362.500000,66.300000C362.500000,71.500000,366.800000,75.800000,372.200000,75.800000Z" fill="rgb(255,255,255)" stroke="none" stroke-width="1"/><path id="elmwquk6ctc25" d="M270.700000,99.800000C261.400000,99.800000,253.900000,107.200000,253.900000,116.200000C253.900000,125.200000,261.400000,132.600000,270.700000,132.600000C280,132.600000,287.500000,125.200000,287.500000,116.200000C287.500000,107.100000,279.900000,99.800000,270.700000,99.800000Z" fill="rgb(255,255,255)" stroke="none" stroke-width="1"/></svg>