<svg width="967" height="851" viewBox="0 0 967 851" fill="none" xmlns="http://www.w3.org/2000/svg">
<rect width="800" height="695.814" transform="translate(52 153)" fill="#362B26"/>
<g style="mix-blend-mode:multiply" opacity="0.2">
<path d="M294.766 799.654C255.116 801.147 259.518 801.422 255.858 797.229L252.774 793.697L251.952 785.666C251.086 777.197 250.383 775.201 247.018 771.669C245.876 770.47 242.655 767.088 239.861 764.154C237.067 761.22 233.534 757.07 232.01 754.932C230.485 752.793 227.93 749.961 226.333 748.637C224.735 747.313 222.885 745.179 222.221 743.895C221.557 742.611 219.823 740.816 218.368 739.906C216.913 738.995 215.623 737.923 215.501 737.523C215.379 737.123 214.363 736.091 213.245 735.23C212.068 734.324 210.343 731.804 209.151 729.251C207.854 726.47 206.208 724.134 204.703 722.935C203.389 721.889 201.744 720.29 201.048 719.383C200.351 718.476 198.479 717.36 196.887 716.904C194.035 716.087 192.387 713.841 193.616 712.443C193.922 712.095 193.65 710.097 193.012 708.003C191.876 704.279 192.437 689.998 197.383 596.574L197.83 588.127L214.553 588.548C223.75 588.78 237.661 588.901 245.466 588.817C253.271 588.732 267.024 588.581 276.029 588.481C285.034 588.38 292.5 588.351 292.622 588.416C293.212 588.73 293.789 599.554 293.251 600.212C292.911 600.629 291.949 601.394 291.112 601.913C289.531 602.894 284.502 612.203 284.857 613.491C284.969 613.896 286.322 614.417 287.865 614.649C290.563 615.054 290.727 614.994 292.209 613.069C293.056 611.968 293.758 610.375 293.767 609.527C293.777 608.679 293.969 608.084 294.195 608.205C294.421 608.325 294.93 613.843 295.327 620.468C296.264 636.107 297.298 653.04 298.734 676.282C299.371 686.597 300.09 698.349 300.332 702.397C301.551 722.808 302.655 741.036 303.272 750.959C306.529 803.35 306.324 799.153 305.635 799.217C305.361 799.243 300.47 799.439 294.766 799.654Z" fill="#362B26"/>
<path d="M138.128 808.217C132.9 806.766 123.681 800.153 122.783 797.211C122.285 795.576 121.707 795.134 119.914 795.017C117.644 794.869 115.273 792.676 113.077 788.695C112.493 787.636 110.99 785.902 109.737 784.842C108.484 783.781 106.495 781.689 105.318 780.193C104.141 778.697 101.289 775.767 98.9805 773.682C96.4469 771.393 93.923 768.301 92.613 765.88C91.4194 763.675 89.7208 760.985 88.8382 759.903C87.3022 758.019 87.2991 757.837 88.7676 755.642C89.6113 754.382 90.8914 753.158 91.6122 752.924C92.9603 752.485 98.2437 755.168 107.197 760.838C110.006 762.617 112.719 764.312 113.226 764.605C113.734 764.898 115.64 766.2 117.462 767.5C119.284 768.799 121 769.962 121.275 770.084C122.486 770.623 126.073 776.144 127.731 780.023C129.317 783.735 130.13 784.685 134.298 787.705C139.846 791.725 140.417 792.394 142.709 797.552C143.656 799.683 145.199 802.47 146.139 803.745C147.079 805.02 147.721 806.301 147.566 806.592C146.851 807.935 140.841 808.97 138.128 808.217Z" fill="#362B26"/>
<path d="M254.686 800.945C254.005 800.953 238.545 800.868 226.54 800.79C222.4 800.763 177.76 797.952 159.311 796.557C156.147 796.318 152.53 796.065 151.273 795.996C148.361 795.836 147.707 795.277 146.728 792.113C146.18 790.341 145.369 789.303 144.128 788.784C139.135 786.696 137.2 785.477 136.801 784.167C136.56 783.376 136.096 782.809 135.77 782.908C134.107 783.415 130.599 780.5 129.213 777.459C126.967 772.536 123.319 768.768 118.023 765.903C113.281 763.338 113.221 763.272 112.62 759.869C112.128 757.08 111.815 756.488 110.971 756.745C110.397 756.92 109.752 756.851 109.535 756.593C109.319 756.334 107.418 755.719 105.31 755.226C103.202 754.733 101.34 753.964 101.172 753.517C101.005 753.071 100.552 752.127 100.166 751.42C99.2186 749.687 98.8104 748.479 96.673 741.089C94.8886 734.919 94.881 734.684 96.3878 732.361C97.8126 730.164 97.824 729.819 96.5314 728.051C95.7587 726.994 94.7556 724.914 94.3023 723.427C93.6776 721.378 92.5168 719.973 89.5038 717.619C86.1735 715.017 85.4774 714.117 85.2079 712.065C85.0309 710.718 85.3565 708.892 85.9312 708.007C87.0908 706.222 86.6169 705.19 82.8281 701.251C80.9206 699.268 80.2104 697.649 77.9114 690.045C75.3124 681.448 75.2641 681.082 76.4387 678.878C77.1065 677.625 79.1034 675.483 80.8762 674.119C85.2391 670.76 88.0486 666.058 87.2523 663.446C86.4174 660.708 86.9171 657.037 88.6122 653.454C89.8799 650.774 89.8943 649.995 88.7464 646.23C87.5818 642.411 87.2127 641.896 84.8578 640.811C81.8705 639.433 75.4063 632.928 72.9075 628.783C71.4371 626.345 71.1393 624.848 70.6998 617.687C70.2512 610.377 69.9669 608.983 68.2666 605.761C67.2078 603.754 65.2731 599.234 63.9674 595.717C62.6616 592.199 61.259 588.714 60.8505 587.973C60.4421 587.231 59.5661 585.474 58.9038 584.07C58.2416 582.665 55.6068 577.938 53.0488 573.566C50.4907 569.194 48.0336 564.971 47.5886 564.181C47.0828 563.284 45.7151 562.64 43.9396 562.462C38.5193 561.918 37.8972 562.133 37.2574 564.776C36.8275 566.551 35.6614 567.965 32.9603 569.985C30.9213 571.511 28.2149 573.708 26.946 574.869C25.6771 576.03 24.5674 577.001 24.4801 577.028C24.3928 577.054 24.2871 575.991 24.2454 574.664C24.1285 570.953 21.002 562.88 19.0523 561.254C16.9865 559.532 15.2347 553.11 16.7969 552.985C17.331 552.943 25.5857 555.186 35.1407 557.971C61.1873 565.563 89.3211 572.768 102.702 575.273C109.258 576.501 114.996 577.628 115.455 577.779C117.721 578.526 142.133 582.79 151.07 584C156.658 584.757 168.642 585.908 177.701 586.56C186.76 587.211 194.483 587.882 194.863 588.05C195.243 588.218 195.468 589.192 195.362 590.214C195.256 591.237 194.672 602.172 194.065 614.516C193.458 626.86 192.759 640.562 192.513 644.964C189.824 693.029 189.481 703.827 190.531 707.271C191.16 709.333 191.377 711.599 191.044 712.621C190.206 715.193 191.955 717.9 195.014 718.765C198.837 719.846 205.325 726.271 207.281 730.914C208.352 733.455 209.849 735.553 211.769 737.202C213.353 738.563 214.743 739.985 214.858 740.362C214.973 740.739 216.033 741.614 217.214 742.307C218.395 743 220.207 744.92 221.241 746.574C222.274 748.227 223.443 749.665 223.838 749.769C224.871 750.042 229.523 755.06 230.826 757.309C231.435 758.36 235.488 763 239.833 767.62C244.401 772.478 248.009 776.91 248.385 778.128C248.743 779.287 249.38 783.291 249.799 787.027C250.585 794.029 251.635 796.83 254.311 799.06C255.87 800.359 255.983 800.929 254.686 800.945Z" fill="#362B26"/>
<path d="M58.0474 719.474C53.2975 713.876 49.934 706.522 47.0405 695.408C45.3564 688.939 44.638 684.978 44.9944 684.127C45.2965 683.406 45.3965 682.317 45.2165 681.706C44.6888 679.916 47.6737 679.086 50.9807 680.104C54.9396 681.323 60.6417 684.34 60.9601 685.384C61.0979 685.836 59.3162 689.945 57.0007 694.515C52.0816 704.224 52.1047 704.644 58.0778 714.05C60.0498 717.155 61.8318 720.235 62.0377 720.893C62.7852 723.284 60.6295 722.517 58.0474 719.474Z" fill="#362B26"/>
<path d="M372.782 579.397L373.609 583.876C374.064 586.346 374.491 588.866 374.563 589.463C374.635 590.059 374.985 592.313 375.341 594.471C375.697 596.63 376.049 598.883 376.119 599.48C376.189 600.077 376.929 604.709 377.759 609.775C379.184 618.463 379.371 619.092 381.044 620.624C382.78 622.214 382.79 622.299 381.618 625.273C380.96 626.943 380.228 628.932 379.988 629.68C379.748 630.428 380.546 635.112 381.782 640.093C383.017 645.075 384.309 650.414 384.65 651.958C384.992 653.503 385.913 657.606 386.704 661.074C387.494 664.543 388.587 669.268 389.111 671.581C391.29 681.203 392.174 685.195 393.385 690.511C394.086 693.595 395.002 697.699 395.417 699.634C395.831 701.568 396.928 706.292 397.846 710.134C398.763 713.976 399.779 718.388 400.108 719.936C400.438 721.484 401.5 726.05 402.454 730.087C403.408 734.123 404.415 738.537 404.695 739.895C404.975 741.252 406.064 745.978 407.124 750.395C408.184 754.812 409.111 758.913 409.178 759.511C409.397 761.489 413.194 777.309 414.539 781.857L415.855 786.326L420.093 785.48C426.894 784.139 433.405 782.929 435.337 782.636C436.322 782.487 438.88 782.031 441.024 781.629C445.159 780.853 447.512 780.426 453.803 779.303C455.953 778.919 460.705 777.916 464.362 777.068C468.019 776.221 474.173 774.656 478.034 773.603L485.042 771.702L484.464 768.271C484.137 766.387 482.898 761.096 481.72 756.509C480.543 751.922 479.06 745.967 478.413 743.279C477.765 740.591 476.003 733.709 474.499 727.986C469.288 708.161 468.887 706.061 469.684 702.827C470.093 701.171 473.251 694.103 476.722 687.123C480.193 680.143 483.93 672.483 485.019 670.099C486.107 667.714 487.197 665.309 487.445 664.769C491.775 655.319 493.837 650.709 496.094 645.366C497.587 641.83 500.222 635.927 501.952 632.246C503.681 628.565 505.788 624.032 506.633 622.178C507.477 620.324 509.204 616.636 510.479 613.98C511.754 611.325 512.714 608.814 512.599 608.416C512.376 607.645 508.326 607.257 505.072 607.69C500.092 608.352 498.648 608.3 497.519 607.416C496.566 606.671 495.401 606.759 492.165 607.83C489.899 608.58 487.941 609.602 487.799 610.098C487.505 611.117 479.875 614.519 478.151 614.397C477.367 614.341 477.059 613.827 477.124 612.719C477.218 611.106 476.841 610.296 472.101 601.698C468.696 595.523 467.74 593.666 466.11 590.035C464.241 585.874 462.083 585.085 454.457 585.765C449.575 586.201 447.833 586.052 446.885 585.123C445.55 583.814 443.915 578.388 442.564 570.797L441.71 565.999L438.02 567.03C435.999 567.594 434.102 568.064 433.798 568.083C433.495 568.101 430.86 568.583 427.939 569.142C425.019 569.701 422.142 570.219 421.547 570.295C420.951 570.37 418.25 570.852 415.553 571.372C412.855 571.892 409.978 572.41 409.16 572.524C408.342 572.639 405.77 573.109 403.436 573.567C401.103 574.024 396.644 574.882 393.524 575.464C390.404 576.045 385.947 576.909 383.618 577.382C381.29 577.856 377.887 578.498 376.071 578.816L372.782 579.397ZM428.319 691.268C430.971 690.484 433.119 691.184 435.243 693.396C436.508 694.713 437.811 695.873 438.138 695.979C439.696 696.485 445.374 703.862 445.077 704.988C444.889 705.701 447.274 709.106 449.355 711.108C450.083 711.808 451.099 714.027 451.63 716.035C452.648 719.888 457.477 727.596 460.769 730.648C462.094 731.877 463.227 734.166 464.803 738.809C466.962 745.171 466.958 745.276 465.404 746.003C464.537 746.408 463.481 747.658 463.043 748.783C462.135 751.121 460.948 751.705 459.089 750.714C457.56 749.899 456.424 744.883 457.174 742.282C457.439 741.363 457.554 739.682 457.419 738.554C457.284 737.426 457.411 735.924 457.711 735.21C458.577 733.143 458.029 731.534 456.308 731.071C454.964 730.71 454.656 730.894 454.286 732.273C453.807 734.056 452.258 734.914 451.864 733.62C451.728 733.176 451.681 731.723 451.748 730.4C452.038 724.731 447.687 721.24 443.841 724.052C442.272 725.199 441.74 725.241 440.199 724.319C439.212 723.728 437.497 721.939 436.362 720.337C435.228 718.734 433.229 716.646 431.926 715.694C430.251 714.47 429.449 713.332 429.22 711.812C428.925 709.852 428.564 709.591 425.015 708.925C419.845 707.955 418.243 709.182 419.334 713.256C419.752 714.817 420.461 717.666 420.914 719.589C423.176 729.197 423.178 729.21 426.653 730.579C434.118 733.52 434.786 733.986 437.036 737.906C438.244 740.01 439.556 742.849 439.963 744.203C440.37 745.557 441.994 748.003 443.564 749.639C447.234 753.462 448.4 756.949 446.426 758.18C444.348 759.477 443.463 759.663 442.658 758.954C441.958 758.339 437.406 750.18 433.798 743.108C431.759 739.11 430.361 738.101 424.631 736.465C420.083 735.165 417.658 733.804 417.457 732.445C417.385 731.952 417.18 730.936 417.005 730.194C416.831 729.453 416.989 728.305 417.348 727.631C417.773 726.833 417.492 724.82 416.575 721.872C415.168 717.347 415.187 717.351 412.111 716.676C408.675 715.921 407.128 714.696 406.333 712.09C405.903 710.677 406.133 710.231 407.49 709.817C410.031 709.043 410.224 706.596 407.885 704.967C406.85 704.246 405.905 703.314 405.777 702.893C405.502 701.991 408.291 699.6 410.175 699.117C411.843 698.689 416.432 700.974 416.884 702.458C417.073 703.076 418.15 704.037 419.267 704.588L421.282 705.59L421.445 702.824C421.685 698.123 423.395 693.76 425.48 692.555C426.496 691.967 427.435 691.529 428.319 691.268Z" fill="#362B26"/>
<path d="M841.222 699.202C839.54 699.28 837.012 697.723 835.084 695.423C834.324 694.516 832.963 693.811 832.061 693.856C829.067 694.005 821.183 683.901 819.11 677.258C818.398 674.976 817.638 673.923 816.176 673.196C812.739 671.483 808.586 670.729 806.344 671.409L804.176 672.067L802.602 667.863C801.736 665.551 801.069 663.394 801.118 663.07C801.168 662.746 803.111 661.875 805.437 661.135C810.459 659.536 812.978 657.753 815.054 654.326C815.995 652.772 818.386 650.659 821.259 648.843C825.6 646.099 826.138 645.91 828.815 646.178C831.564 646.454 831.74 646.38 832.613 644.592C834.486 640.753 841.773 635.93 842.376 638.13C842.507 638.605 842.408 639.9 842.156 641.007C841.479 643.988 843.4 649.777 845.57 651.294C846.549 651.978 847.883 653.489 848.535 654.652C849.26 655.945 851.315 657.572 853.832 658.845C857.781 660.842 858.111 660.874 862.127 659.65C864.428 658.948 866.543 658.499 866.828 658.65C867.113 658.802 866.292 660.991 865.003 663.516C863.715 666.04 862.382 669.992 862.04 672.298C861.168 678.192 855.235 689.478 852.584 690.286C851.084 690.743 850.549 691.408 850.348 693.063C849.961 696.249 845.892 698.986 841.222 699.202Z" fill="#362B26"/>
<path d="M894.748 600.569C892.117 598.737 891.277 595.795 892.437 592.474C893.668 588.949 892.834 585.375 890.775 585.352C888.837 585.329 888.423 583.893 889.346 580.391C890.005 577.888 889.845 576.981 887.822 571.774C884.179 562.399 880.964 551.074 878.68 539.575C878.525 538.798 877.885 535.631 877.257 532.537C875.932 526.015 876.493 523.323 880.271 518.062C882.337 515.184 882.973 514.695 884.058 515.15C887.279 516.5 888.547 518.776 890.792 527.232C891.989 531.742 892.882 535.76 892.777 536.161C892.671 536.561 892.947 538.79 893.39 541.113L894.195 545.338L895.306 542.751C895.917 541.328 896.364 539.95 896.299 539.689C896.039 538.643 898.804 537.518 901.32 537.647C904.144 537.791 904.249 537.897 905.122 541.445L905.68 543.711L909.12 542.663C911.012 542.086 912.643 541.298 912.745 540.911C912.847 540.524 914.28 539.352 915.929 538.306C917.578 537.259 920.253 535.221 921.873 533.776C924.801 531.165 927.867 530.173 931.161 530.771C932.887 531.085 934.682 534.562 934.147 536.555C933.791 537.882 934.015 538.302 935.501 539.094C937.034 539.911 937.737 539.82 940.569 538.443C944.737 536.416 945.545 536.458 946.241 538.739C946.833 540.681 946.176 543.595 944.538 546.294C944 547.179 943.916 547.795 944.351 547.662C944.794 547.527 945.456 548.452 945.856 549.765C946.249 551.054 946.907 552.54 947.318 553.067C948.182 554.175 949.404 554.028 949.048 552.859C948.659 551.585 950.815 546.442 951.871 546.119C952.404 545.957 953.581 546.942 954.495 548.317C956.383 551.155 957.393 551.117 959.614 548.122C960.475 546.962 961.486 546.177 961.862 546.379C962.238 546.581 963.244 548.78 964.098 551.265C964.952 553.75 966.052 556.919 966.542 558.306C967.83 561.949 966.272 566.816 963.468 567.91C961.785 568.567 961.096 568.433 960.048 567.246C958.402 565.382 957.918 565.528 957.422 568.034C956.619 572.087 954.432 570.394 951.404 563.376C949.187 558.238 947.766 556.363 946.405 556.778C946.074 556.879 946.147 558.09 946.567 559.468C947.184 561.493 946.963 562.625 945.417 565.362C943.684 568.428 943.581 569.243 944.332 573.946C945.436 580.863 944.333 583.128 938.992 584.909C934.39 586.445 933.699 585.445 936.26 580.958C937.653 578.516 937.817 577.462 937.143 575.251C936.363 572.694 936.246 572.61 935.088 573.772C932.912 575.957 930.117 577.486 929.087 577.054C928.057 576.623 927.045 577.505 921.416 583.739C919.715 585.623 917.51 587.559 916.516 588.043C915.523 588.526 913.707 589.422 912.481 590.034C911.255 590.645 907.524 593.337 904.189 596.015C900.854 598.693 897.82 601.129 897.445 601.429C897.071 601.729 895.858 601.342 894.748 600.569Z" fill="#362B26"/>
<path d="M794.487 577.246C794.332 577.17 792.982 577.311 791.488 577.559C789.994 577.807 788.014 577.654 787.088 577.218C785.753 576.59 784.604 576.747 781.555 577.973C776.67 579.937 776.088 579.886 774.786 577.382C772.626 573.227 772.374 572.721 772.081 571.944C771.917 571.509 771.164 570.823 770.409 570.42C769.174 569.762 768.854 569.892 767.241 571.704C766.254 572.813 764.801 573.918 764.011 574.161C762.271 574.694 759.141 573.033 760.015 572.039C760.649 571.318 759.59 567.182 758.201 564.957C757.672 564.11 756.164 563.515 754.167 563.367C748.514 562.948 740.658 556.289 741.399 552.544C741.569 551.687 742.013 550.892 742.386 550.779C743.093 550.563 743.486 547.568 743.13 545.116C743.016 544.335 743.423 542.992 744.034 542.132C744.646 541.273 745.202 539.657 745.27 538.541C745.389 536.601 745.534 536.5 748.546 536.257C750.28 536.117 752.631 536.299 753.772 536.661C756.694 537.588 759.04 536.326 759.902 533.364C760.595 530.981 760.777 530.852 764.2 530.312C766.166 530.001 768.313 529.56 768.971 529.33C769.942 528.992 770.256 529.378 770.631 531.373C770.886 532.726 771.001 533.949 770.885 534.09C768.461 537.068 766.755 539.877 766.74 540.919C766.73 541.644 765.983 543.137 765.08 544.236C763.16 546.576 763.266 547.443 765.608 548.544C767.704 549.53 771.593 547.774 772.367 545.492C773.292 542.761 776.354 540.471 779.083 540.469C782.617 540.466 784.745 538.545 785.206 534.943C785.595 531.903 784.655 528.312 783.278 527.578C782.833 527.341 782.067 527.97 781.496 529.041C780.87 530.216 779.619 531.187 778.152 531.634C772.989 533.207 772.11 531.976 773.468 525.073C773.953 522.608 774.135 519.889 773.873 519.031C773.242 516.96 769.385 512.438 767.619 511.698C766.845 511.374 766.059 510.604 765.871 509.987C765.288 508.074 760.046 503.157 757.238 501.888C755.4 501.058 754.121 499.808 753.145 497.89C752.365 496.355 750.757 493.202 749.573 490.884C748.39 488.566 746.791 484.669 746.02 482.225C744.398 477.075 742.28 474.703 739.515 474.939C738.475 475.027 736.431 474.781 734.973 474.391C732.024 473.603 730.991 471.68 731.945 468.752C732.351 467.507 732.2 466.538 731.448 465.552C730.339 464.102 730.17 463.461 729.855 459.517C729.654 456.997 729.23 456.973 723.069 459.14C721.606 459.654 720.523 459.862 720.662 459.6C720.801 459.339 719.712 457.053 718.242 454.52C716.145 450.909 715.267 449.959 714.175 450.121C713.41 450.234 712.278 449.887 711.661 449.349C710.209 448.084 704.248 438.663 704.546 438.104C705.045 437.168 715.176 441.805 719.117 444.772C721.422 446.509 723.835 447.77 724.479 447.574C725.122 447.377 726.568 447.925 727.691 448.79C728.815 449.655 730.967 450.688 732.473 451.085C734.262 451.556 736.087 452.84 737.729 454.781C739.347 456.694 740.668 457.63 741.429 457.405C742.08 457.211 743.595 457.882 744.797 458.895C746.489 460.321 747.642 460.646 749.907 460.333C752.431 459.984 753.16 460.264 755.228 462.376C756.545 463.723 758.171 465.995 758.84 467.427C759.98 469.865 760.273 470.025 763.491 469.958C765.38 469.919 767.629 470.308 768.488 470.822C769.913 471.675 770.053 472.083 770.078 475.436C770.101 478.524 770.333 479.336 771.526 480.5C772.307 481.263 773.344 482.608 773.831 483.49C774.596 484.877 775.823 485.137 782.893 485.412C787.39 485.587 791.622 485.562 792.297 485.356C792.972 485.15 795.096 485.901 797.016 487.025L800.508 489.068L806.683 487.492C810.079 486.626 814.166 486.009 815.764 486.121C818.749 486.331 820.303 485.449 821.756 482.723C822.211 481.869 823.501 481.601 827.76 481.476C830.744 481.389 833.459 481.553 833.793 481.84C835.101 482.962 834.72 485.821 833.084 487.168C832.157 487.931 830.321 490.92 829.003 493.811C827.686 496.703 825.982 500.331 825.216 501.874C824.45 503.418 822.847 506.646 821.654 509.048C819.435 513.515 819.172 518.093 821.127 518.231C822.756 518.347 827.544 508.767 827.237 506.005C827.047 504.289 828.039 501.359 830.514 496.328C833.723 489.805 834.308 489.038 836.61 488.336C838.72 487.693 839.543 487.867 841.416 489.354C843.306 490.854 843.931 490.982 845.241 490.136C848.184 488.235 851.68 487.462 853.745 488.256C854.859 488.684 857.933 489.492 860.576 490.052C863.22 490.612 865.49 491.104 865.62 491.144C865.751 491.185 865.736 492.141 865.587 493.269C865.205 496.155 867.821 499.883 871.667 501.932C874.601 503.495 879.005 507.488 879.467 509.002C879.812 510.133 877.323 518.701 875.72 521.902L874.304 524.731L870.42 522.019C868.284 520.528 866.176 519.19 865.736 519.046C865.295 518.902 864.004 519.671 862.866 520.756C861.729 521.84 859.297 523.6 857.463 524.667C855.628 525.735 852.151 528.152 849.734 530.039C847.318 531.927 842.339 535.79 838.67 538.624C835 541.459 830.712 544.84 829.139 546.138C823.43 550.85 810.683 560.12 808.149 561.402C806.043 562.468 804.723 562.582 801.164 562.006C798.751 561.615 796.522 561.6 796.212 561.971C795.901 562.343 795.985 563.893 796.397 565.416C797.322 568.834 798.446 575.182 798.208 575.643C797.982 576.083 794.859 577.428 794.487 577.246Z" fill="#362B26"/>
<path d="M871.37 714.294C867.098 714.649 864.46 712.977 861.107 707.793C859.466 705.256 858.847 703.69 858.941 702.309C859.14 699.358 861.637 691.273 863.629 687.127C864.609 685.089 865.644 682.704 865.93 681.828C866.215 680.952 867.167 679.803 868.044 679.275C869.844 678.192 874.575 672.366 874.324 671.543C874.107 670.829 871.394 672.96 868.396 676.201C863.185 681.833 862.242 675.553 866.792 665.52C868.792 661.11 869.373 660.409 871.499 659.833C878.095 658.048 885.076 654.646 886.976 652.29C888.155 650.828 889.387 649.957 890.157 650.041C890.848 650.117 892.858 649.795 894.622 649.327C898.277 648.357 901.616 649.074 903.53 651.242C904.751 652.624 904.628 653.127 901.77 658.484C900.081 661.65 898.385 664.872 898.002 665.643C896.352 668.965 891.722 675.396 890.413 676.184C889.578 676.686 888.593 678.706 888.031 681.068C887.152 684.764 886.89 685.122 884.832 685.427C882.977 685.703 882.546 686.092 882.335 687.684C882.195 688.743 882.177 689.924 882.295 690.31C882.412 690.695 882.26 693.524 881.957 696.595C881.54 700.815 880.652 703.636 878.322 708.142C876.627 711.422 875.165 714.082 875.073 714.053C874.982 714.024 873.315 714.132 871.37 714.294Z" fill="#362B26"/>
<path d="M901.645 648.143C900.93 647.859 898.354 646.466 895.921 645.047C892.677 643.155 891.614 642.18 891.936 641.39C892.178 640.798 892.457 637.167 892.557 633.321C892.76 625.525 893.538 620.101 894.495 619.809C895.706 619.44 898.197 622.029 898.939 624.429C900.146 628.334 901.235 629.58 903.345 629.466C905.914 629.328 910.058 631.44 910.58 633.153C910.808 633.898 910.491 636.292 909.877 638.473C909.067 641.35 908.322 642.573 907.164 642.925C906.173 643.227 905.251 644.361 904.731 645.915C903.802 648.691 903.526 648.891 901.645 648.143Z" fill="#362B26"/>
<path d="M98.1463 369.661C96.9769 369.996 95.3724 370.716 93.0688 371.748C89.528 373.333 86.2672 374.897 85.8223 375.244C85.2405 375.698 85.39 376.775 86.361 379.085C87.9328 382.823 87.3661 384.102 84.9931 382.124C84.0765 381.36 83.11 380.801 82.857 380.878C81.7138 381.227 77.2488 402.303 77.0009 408.517C76.851 412.273 76.4871 416.168 76.197 417.17C75.358 420.065 75.9427 420.636 81.3996 422.329C92.9898 425.925 93.4501 426.5 91.9715 435.804C91.4551 439.053 91.2647 443.05 91.5656 444.686C92.0751 447.458 92.3424 447.751 95.4298 448.988C97.2524 449.719 98.6848 450.593 98.5968 450.927C98.5087 451.261 98.8915 453.343 99.4695 455.556C100.589 459.841 100.199 461.484 97.6476 463.019C95.8554 464.098 95.2829 466.092 96.051 468.611C96.346 469.579 96.3016 470.455 95.9654 470.558C95.6291 470.66 95.4109 471.61 95.4644 472.678C95.5354 474.092 96.0561 474.911 97.4133 475.69C98.7103 476.434 99.5626 477.686 100.213 479.802C100.764 481.597 102.241 484.019 103.822 485.727C105.667 487.72 106.607 489.355 106.826 490.97C107.04 492.544 107.883 494.07 109.385 495.6C111.587 497.842 111.613 497.945 111.621 502.319C111.633 508.243 112.734 517.813 114.092 523.86C114.698 526.561 115.2 529.454 115.209 530.288C115.22 531.259 115.947 532.249 117.221 533.047C119.684 534.59 121.581 536.858 124.213 541.384C126.581 545.458 128.778 547.933 131.415 549.493L133.3 550.605L132.305 552.641C131.641 553.988 131.555 555.558 132.073 557.255C132.504 558.67 132.711 560.533 132.54 561.398C132.26 562.811 132.73 563.037 137.152 563.622C139.86 563.981 143.517 564.725 145.265 565.271C147.787 566.06 148.897 566.021 150.647 565.106C153.264 563.739 152.855 563.096 156.301 574.202L158.925 582.653L167.394 583.397C194.888 585.826 226.772 586.867 257.08 586.319C265.892 586.16 277.986 586.011 283.957 585.996C289.929 585.982 295.796 585.871 296.988 585.725C298.18 585.579 304.067 584.98 310.074 584.406C316.08 583.832 321.892 583.249 322.981 583.119C324.07 582.988 328.321 582.552 332.424 582.138C336.526 581.723 340.846 581.252 342.037 581.104C343.228 580.957 348.793 580.407 354.398 579.866C365.879 578.759 369.867 577.891 369.554 576.582C369.439 576.102 369.283 575.101 369.2 574.348C369.117 573.595 368.436 570.261 367.691 566.939C366.945 563.617 366.221 560.081 366.072 559.096C365.922 558.111 365.361 555.247 364.833 552.729C363.323 545.538 360.993 534.03 360.325 530.497C360.104 529.328 359.287 525.53 358.502 522.06C357.716 518.59 357.046 515.253 357.013 514.645C356.98 514.036 356.334 510.861 355.587 507.586C354.84 504.31 353.755 498.986 353.171 495.746C352.586 492.507 351.854 489.623 351.55 489.355C351.245 489.087 345.906 487.919 339.678 486.744C326.506 484.258 312.977 481.644 302.902 479.639L295.796 478.222L283.173 467.082L274.914 467.796L266.648 468.488L257.276 461.556C252.115 457.736 243.943 451.592 239.112 447.912C234.281 444.232 224.77 437.069 217.982 431.987C211.194 426.906 204.946 422.159 204.089 421.444C202.635 420.232 202.565 419.671 203.002 413.041C204.644 388.102 204.661 388.219 198.693 383.933C196.885 382.635 195.317 381.311 195.219 380.988C195.12 380.665 194.705 380.512 194.292 380.638C193.879 380.764 192.545 380.537 191.329 380.136C190.113 379.734 187.838 379.636 186.276 379.919C183.845 380.36 183.133 380.899 181.313 383.61C179.476 386.345 178.906 386.745 177.175 386.628C174.619 386.455 174.496 385.933 176.261 382.785C177.052 381.373 177.389 379.942 177.001 379.608C176.614 379.274 175.802 377.41 175.195 375.451C173.359 369.52 172.427 369.799 168.282 377.582C166.275 381.349 164.485 384.477 164.312 384.529C163.817 384.68 161.023 383.077 160.737 382.481C160.595 382.186 159.234 377.997 157.71 373.17C154.962 364.463 154.913 364.393 152.94 364.132C150.138 363.76 149.037 364.226 147.489 366.449C146.488 367.885 145.28 368.625 142.818 369.254C140.565 369.83 139.605 369.794 139.844 369.177C140.037 368.676 140.086 367.353 139.955 366.239C139.741 364.424 139.332 364.154 136.055 363.587C132.391 362.954 127.27 364.139 123.361 366.496C122.49 367.021 118.588 368.617 114.703 370.048C109.552 371.947 107.584 372.971 107.399 373.82C107.26 374.461 106.22 375.257 105.107 375.596C103.186 376.181 103.059 376.06 102.205 373.295C101.182 369.982 100.719 368.925 98.1463 369.661ZM184.248 448.451C202.098 443.081 203.605 442.893 204.476 445.752C204.68 446.421 203.756 448.643 202.429 450.709C200.82 453.212 200.313 454.625 200.909 454.942C201.97 455.507 212.586 456.445 217.707 456.426C221.225 456.414 221.314 456.483 221.508 458.757C221.724 461.27 221.22 463.107 220.234 463.408C219.895 463.511 218.658 464.761 217.476 466.192L215.319 468.793L210.794 468.159C208.297 467.812 205.575 467.398 204.752 467.237C202.757 466.844 202.116 468.278 202.033 473.217C201.954 477.918 201.759 478.224 196.912 481.687C194.807 483.19 192.768 484.519 192.379 484.637C191.09 485.03 191.045 482.88 192.278 480.008C194.843 474.032 194.826 474.149 192.51 474.855C191.27 475.233 189.81 476.459 188.889 477.879C186.38 481.749 183.935 482.951 180.299 482.113C178.599 481.722 176.623 480.728 175.906 479.916C174.687 478.536 174.816 478.059 178.028 472.361C179.917 469.007 182.634 465.186 184.063 463.894C185.492 462.601 186.634 460.929 186.603 460.169C186.517 458.031 183.132 456.737 179.952 457.629C178.458 458.049 175.055 458.327 172.39 458.248C168.409 458.13 167.399 457.82 166.78 456.515C166.365 455.641 166.298 454.616 166.626 454.244C166.953 453.872 174.887 451.268 184.248 448.451ZM234.445 529.52C234.727 529.434 236.419 530.467 238.191 531.82C239.963 533.174 242.789 534.926 244.482 535.711C249.177 537.889 252.827 540.138 255.384 542.435C257.42 544.264 258.279 544.476 262.592 544.266C267.167 544.043 267.751 543.873 271.169 541.675C273.643 540.084 275.131 538.543 275.747 536.954C277.022 533.667 279.242 531.733 283.489 530.168C287.103 528.837 287.14 528.849 287.584 530.771C288.23 533.57 286.457 537.465 283.745 539.224C282.456 540.06 280.477 542.418 279.345 544.452C278.213 546.486 275.556 549.659 273.445 551.52C271.333 553.38 268.622 555.883 267.413 557.082C266.145 558.339 264.444 559.343 263.384 559.457C262.079 559.597 261.085 560.396 259.962 562.21C259.092 563.614 257.334 565.62 256.056 566.679C254.777 567.737 252.906 568.789 251.893 569.001C238.89 571.724 237.564 571.654 229.794 567.868C222.795 564.458 222.455 563.15 228.153 561.413C230.264 560.77 232.684 560.378 233.532 560.546C235.342 560.905 236.969 559.55 239.043 555.963C240.122 554.096 240.977 553.491 243.215 552.982C246.431 552.25 247.737 550.765 247.07 548.575C246.448 546.536 241.205 539.346 237.173 535.011C234.121 531.73 233.206 529.897 234.445 529.52Z" fill="#362B26"/>
<path d="M267.394 375.591C262.056 375.657 253.649 375.733 248.712 375.76C243.775 375.787 237.055 375.865 233.778 375.933C228.177 376.049 227.958 375.99 230.103 374.937C231.358 374.322 235.819 372.918 240.017 371.818C246.202 370.197 248.335 369.936 251.265 370.442C254.895 371.068 264.022 370.981 264.375 370.317C264.479 370.121 262.186 368.766 259.28 367.304C253.751 364.524 249.883 363.716 246.666 364.671C244.224 365.397 232.571 365.872 227.666 365.447C224.098 365.138 223.772 364.93 221.401 361.454C220.026 359.437 218.782 357.415 218.638 356.961C218.402 356.218 221.262 354.102 229.635 348.828L232.463 347.046L229.895 347.224C228.483 347.322 226.427 347.591 225.328 347.821C223.182 348.27 220.028 345.85 220.168 343.863C220.209 343.281 219.789 342.68 219.235 342.529C218.681 342.378 217.41 341.554 216.411 340.699C214.018 338.649 213.841 335.95 215.837 331.924C217.676 328.214 218.19 326.039 217.648 324.26C216.585 320.776 225.063 312.131 234.592 306.982C238.079 305.097 242.303 302.931 243.978 302.168C246.907 300.834 247.075 300.85 248.355 302.601C249.953 304.786 250.397 308.954 249.528 313.609C249.195 315.393 249.164 316.98 249.458 317.137C249.752 317.294 251.044 315.847 252.328 313.923L254.662 310.424L259.683 311.566C262.445 312.195 265.647 313.118 266.799 313.618L268.894 314.526L268.119 321.969L270.742 320.481C272.184 319.663 273.505 318.717 273.677 318.379C273.849 318.041 273.122 316.564 272.061 315.095C271.001 313.627 270.212 312.332 270.309 312.218C272.649 309.455 273.565 308.645 273.957 308.989C274.516 309.481 277.917 374.044 277.429 374.896C277.247 375.213 272.731 375.526 267.394 375.591Z" fill="#362B26"/>
<path d="M185.946 351.617C185.617 351.158 184.227 348.215 182.859 345.077C180.589 339.875 179.863 338.914 174.629 334.187C171.472 331.336 168.79 328.655 168.669 328.229C168.364 327.153 169.688 324.212 171.339 322.297C172.101 321.414 173.584 317.443 174.636 313.472C175.688 309.501 176.944 305.457 177.426 304.485C177.908 303.514 179.653 298.996 181.303 294.445C184.172 286.529 184.254 286.001 183.196 282.252C182.588 280.097 181.906 277.935 181.681 277.448C181.138 276.271 182.552 273.348 183.654 273.369C184.133 273.378 185.707 273.174 187.153 272.914C188.598 272.655 191.614 272.592 193.854 272.774C196.095 272.957 199.314 273.033 201.009 272.944C203.529 272.811 204.353 273.143 205.528 274.764C206.318 275.855 209.14 277.923 211.8 279.361C216.613 281.962 216.654 281.968 220.594 280.652C226.146 278.799 227.163 279.403 233.34 288.226C241.191 299.441 241.042 300.869 231.422 306.546C227.002 309.154 222.895 312.661 222.153 314.462C222.034 314.75 221.111 315.652 220.102 316.468C219.092 317.284 217.718 318.864 217.047 319.98C216.377 321.095 214.225 324.182 212.266 326.84C209.424 330.696 208.494 332.758 207.663 337.042C207.09 339.996 206.054 342.982 205.36 343.679C204.665 344.376 204.069 344.852 204.034 344.738C203.976 344.547 203.196 344.95 198.53 347.577C197.651 348.072 194.595 349.372 191.738 350.465C187.715 352.004 186.409 352.264 185.946 351.617Z" fill="#362B26"/>
<path d="M249.857 275.984C247.531 274.6 245.457 272.91 245.25 272.229C244.732 270.531 246.942 268.076 250.98 265.864C257.476 262.305 258.824 259.445 253.196 261.16C250.917 261.855 249.918 261.765 248.504 260.736C246.776 259.48 246.67 259.492 245.739 261.046C244.56 263.017 240.758 264.693 238.53 264.225C236.197 263.735 227.505 258.075 226.445 256.356C225.481 254.793 226.469 251.696 228.089 251.202C228.596 251.047 228.964 250.682 228.907 250.391C228.471 248.176 228.661 246.834 229.705 244.769C230.366 243.462 230.721 241.785 230.495 241.043C229.938 239.216 232.438 233.39 233.981 232.919C234.664 232.711 235.494 231.615 235.824 230.484C236.327 228.759 236.959 228.265 239.744 227.416C244.142 226.076 247.254 227.198 248.257 230.486C248.852 232.438 249.492 232.981 252.12 233.762C256.338 235.015 259.03 237.996 260.815 243.392C262.395 248.166 263.838 249.289 267.134 248.306C270.519 247.296 270.718 247.744 271.302 257.703C271.704 264.559 271.575 267.174 270.822 267.404C270.255 267.577 268.408 269.489 266.718 271.652C263.845 275.33 263.332 275.682 258.865 277.043L254.086 278.5L249.857 275.984Z" fill="#362B26"/>
<path d="M219.385 251.845C218.68 251.873 217.451 250.862 216.637 249.584C214.647 246.461 215.516 244.19 220.135 240.441C224.146 237.187 225.616 236.553 226.97 237.493C228.703 238.697 228.648 240.664 226.808 243.231C225.802 244.634 224.186 247.119 223.215 248.755C222.245 250.39 221.273 251.743 221.055 251.761C220.838 251.78 220.086 251.818 219.385 251.845Z" fill="#362B26"/>
<path d="M209.542 242.191C208.769 241.779 207.908 240.693 207.629 239.777C207.153 238.216 206.886 238.183 203.35 239.261C197.258 241.118 194.379 238.724 196.071 233.207C196.69 231.19 197.683 229.986 199.771 228.719C201.341 227.766 203.856 225.708 205.358 224.145C206.861 222.582 208.399 221.384 208.775 221.483C209.152 221.582 211.047 218.903 212.987 215.529C217.484 207.706 218.372 206.856 223.585 205.393C225.944 204.731 228.604 203.816 229.495 203.359C231.416 202.375 234.961 202.845 236.038 204.226C238.399 207.254 238.125 211.507 235.385 214.364C234.775 214.999 234.703 216.604 235.179 218.95C235.865 222.33 235.756 222.728 233.458 225.22C232.109 226.684 230.87 228.564 230.705 229.397C230.313 231.378 228.196 232.799 226.62 232.139C224.722 231.343 223.54 226.61 224.76 224.693C225.317 223.817 225.701 222.864 225.613 222.574C225.358 221.74 223.517 224.722 218.793 233.617C214.212 242.245 212.544 243.791 209.542 242.191Z" fill="#362B26"/>
<path d="M257.143 207.155C254.62 206.838 253.572 206.186 251.449 203.612C250.018 201.878 248.72 200.039 248.563 199.527C248.407 199.015 247.526 198.401 246.606 198.163C242.224 197.029 238.68 191.017 241.828 190.058C243.23 189.631 245.971 191.024 246.382 192.374C246.577 193.012 247.222 192.931 248.728 192.079C251.433 190.548 263.131 186.346 264.432 186.438C265.215 186.493 265.488 187.212 265.661 189.676C265.783 191.418 265.95 193.497 266.032 194.297C266.598 199.806 266.497 202.816 265.7 204.148C264.395 206.329 260.752 207.609 257.143 207.155Z" fill="#362B26"/>
<path d="M263.203 183.643C263.102 183.312 262.002 182.942 260.759 182.821C259.515 182.7 257.771 182.166 256.883 181.635C255.72 180.939 254.783 180.941 253.531 181.645C252.576 182.182 251.501 182.363 251.142 182.048C249.573 180.667 253.359 174.557 255.444 175.106C255.878 175.22 256.571 174.801 256.984 174.174C257.632 173.19 262.925 171.698 263.821 172.247C264.619 172.736 265.035 183.744 264.265 183.978C263.782 184.125 263.304 183.975 263.203 183.643Z" fill="#362B26"/>
<path d="M332.333 399.33C328.724 399.546 322.786 398.163 318.17 396.031C316.778 395.388 314.228 394.681 312.504 394.459C310.78 394.238 309.203 393.652 309.001 393.158C308.799 392.664 308.477 391.886 308.287 391.429C307.666 389.944 304.845 390.928 304.825 392.636C304.8 394.862 301.814 397.474 297.177 399.326C294.971 400.207 292.891 401.444 292.556 402.074C291.141 404.73 287.56 406.366 277.634 408.891C262.858 412.65 258.305 413.216 257.662 411.373C257.496 410.898 256.858 409.314 256.243 407.853C255.628 406.392 254.431 403.422 253.581 401.253C251.801 396.707 250.051 395.43 246.256 395.904C241.95 396.442 231.914 393.159 231.255 390.997C231.158 390.678 230.957 390.202 230.809 389.938C230.661 389.674 229.228 387.16 227.626 384.351C226.023 381.542 224.64 379.036 224.552 378.783C224.374 378.269 224.543 378.266 256.797 378.041C269.488 377.953 279.946 377.742 280.037 377.572C280.127 377.402 279.444 362.499 278.518 344.456C277.592 326.412 276.849 311.141 276.868 310.521C276.886 309.9 279.07 312.101 281.722 315.411C286.408 321.262 286.592 321.618 288.29 328.19C290.342 336.134 291.74 337.989 293.369 334.931C294.19 333.389 294.075 332.413 292.564 328.13C291.593 325.38 289.49 319.347 287.89 314.724L284.981 306.318L286.461 303.378C287.842 300.634 288.132 300.425 290.808 300.24C292.466 300.125 294.616 300.645 295.909 301.474C298.067 302.858 298.088 302.856 296.503 301.437C295.602 300.629 294.318 299.125 293.65 298.096C291.93 295.442 293.358 292.3 297.205 290.275C300.657 288.458 303.748 288.889 307.712 291.74C311.325 294.337 311.534 297.394 308.596 304.675L306.254 310.476L309.035 319.018C312.151 328.59 314.502 334.032 317.078 337.634C318.676 339.87 318.776 340.412 318.287 344.236C317.901 347.255 318.072 349.049 318.908 350.751C320.671 354.338 326.694 358.656 334.591 361.996C343.694 365.845 347.667 369.692 347.479 374.473C347.39 376.733 347.351 376.762 343.39 377.498C341.19 377.907 339.012 378.053 338.55 377.822C338.089 377.591 337.342 377.515 336.893 377.652C335.092 378.201 336.08 380.371 339.43 383.226C345.01 387.983 345.374 391.907 340.633 396.205C338.399 398.23 336.071 399.107 332.333 399.33Z" fill="#362B26"/>
<path d="M618.09 651.79C614.143 651.455 613.307 651.124 612.881 649.727C612.308 647.848 612.624 647.544 617.193 645.591C620.241 644.288 620.648 644.301 623.094 645.788C626.473 647.842 627.182 650.601 624.572 651.545C623.593 651.9 620.676 652.01 618.09 651.79Z" fill="#362B26"/>
<path d="M435.024 565.52C434.822 565.422 432.123 565.876 429.025 566.528C425.928 567.181 423.211 567.672 422.989 567.62C422.766 567.567 420.05 568.058 416.952 568.71C413.854 569.362 411.138 569.854 410.916 569.804C410.694 569.754 408.446 570.124 405.92 570.626C403.394 571.127 399.892 571.806 398.137 572.133C391.467 573.378 389.046 573.848 381.159 575.432C372.951 577.081 371.674 577.185 371.934 576.182C372.013 575.877 371.402 572.63 370.576 568.966C369.75 565.302 369.02 561.815 368.954 561.217C368.888 560.618 368.237 557.445 367.507 554.164C366.777 550.883 366.073 547.388 365.941 546.397C365.81 545.407 365.219 542.383 364.628 539.678C363.343 533.798 362.17 528.164 361.326 523.823C360.985 522.072 360.376 519.054 359.972 517.116C357.324 504.425 356.718 501.434 355.395 494.53C354.947 492.194 354.415 489.56 354.211 488.678C353.905 487.35 352.749 486.862 347.468 485.831C339.398 484.256 324.644 481.415 312.838 479.162C307.806 478.201 302.249 477.119 300.49 476.755C297.397 476.117 295.437 474.764 287.578 467.847L283.886 464.596L267.224 466.083L261.823 462.04C258.853 459.817 247.507 451.273 236.611 443.053C225.714 434.833 214.262 426.208 211.162 423.885C208.061 421.563 205.421 419.332 205.295 418.929C205.086 418.264 206.496 391.117 206.774 390.447C207.292 389.196 215.761 393.164 219.732 396.518C222.41 398.781 228.738 401.504 232.45 401.99C234.019 402.196 234.791 401.964 235.753 400.998C236.849 399.898 237.49 399.935 240.77 401.286C242.838 402.137 245.376 403.495 246.411 404.302C248.733 406.114 253.154 411.216 253.562 412.555C254.1 414.319 252.661 415.911 249.073 417.523C245.487 419.134 242.827 421.582 243.23 422.902C243.353 423.307 244.436 424.423 245.637 425.383C247.493 426.866 248.947 427.127 255.348 427.126C267.178 427.124 269.353 426.82 274.09 424.507C276.405 423.376 279.004 421.829 279.865 421.069C281.272 419.826 281.593 419.822 283.043 421.03C283.931 421.77 287.25 424.243 290.419 426.526C297.909 431.922 300.722 434.815 301.162 437.575C301.425 439.226 301.605 439.456 301.897 438.518C302.137 437.748 301.316 434.666 299.738 430.412L297.193 423.548L303.334 417.741C306.861 414.405 309.453 411.392 309.424 410.661C309.376 409.465 309.224 409.513 306.907 411.462C305.551 412.603 302.946 414.444 301.118 415.554C298.023 417.433 297.637 417.514 295.485 416.74C289.802 414.694 291.71 406.954 298.532 404.381C299.951 403.846 302.545 402.401 304.297 401.17C306.049 399.939 308.37 398.778 309.454 398.589C311.806 398.179 314.457 400.169 315.533 403.153C315.955 404.32 317.152 406.148 318.193 407.215C320.907 409.993 327.67 413.411 329.532 412.945C330.404 412.727 331.447 412.526 331.851 412.499C332.255 412.471 332.949 412.39 333.393 412.317C333.838 412.244 336.079 413.757 338.373 415.68L342.544 419.175L346.874 418.335C349.255 417.873 353.242 416.873 355.733 416.114C358.224 415.355 362.608 414.693 365.476 414.643C368.343 414.594 370.691 414.552 370.691 414.552C370.691 414.552 370.412 413.408 370.068 412.01C369.724 410.612 369.556 408.127 369.695 406.488C369.834 404.849 369.702 402.7 369.401 401.714C368.872 399.977 368.958 399.904 372.141 399.391C376.228 398.734 380.896 398.862 386.256 399.781C388.526 400.169 390.519 400.55 390.684 400.627C390.923 400.737 391.281 410.866 391.215 415.628C391.208 416.159 392.013 416.648 393.006 416.715C394.003 416.782 395.508 417.737 396.372 418.85L397.933 420.863L397.772 418.664C397.667 417.249 397.013 415.846 395.935 414.728C394.94 413.695 393.672 411.105 392.812 408.347C391.279 403.432 391.604 402.03 394.298 401.922C396.939 401.816 401.019 397.896 402.31 394.225C403.327 391.331 403.333 390.122 402.347 386.887C401.432 383.885 400.773 382.829 399.416 382.191C397.405 381.245 395.557 376.391 396.52 374.582C397.335 373.052 391.956 370.534 387.66 370.435C385.068 370.375 383.738 369.769 380.9 367.35C377.885 364.78 377.191 363.752 376.169 360.34C375.51 358.141 375.11 355.636 375.281 354.773C375.523 353.55 374.901 352.394 372.454 349.52L369.318 345.834L369.472 341.581C369.602 337.995 370.002 336.942 372.026 334.865C374.224 332.61 374.322 332.284 373.191 331.003C372.126 329.798 372.154 329.113 373.397 326.041C376.743 317.77 376.368 318.304 379.004 318.052C380.705 317.889 381.86 318.304 382.791 319.413C383.529 320.29 385.604 321.671 387.403 322.481C393.322 325.147 394.427 326.391 396.723 332.97C398.744 338.762 398.951 339.063 404.078 343.683C410.53 349.497 412.172 353.214 408.17 352.943C406.623 352.839 406.559 352.996 407.409 354.795C407.921 355.876 408.308 358.13 408.27 359.802C408.205 362.653 408.318 362.891 410.09 363.608C411.66 364.244 412.371 364.125 414.294 362.906C416.698 361.381 419.135 361.108 425.052 361.702C427.503 361.948 427.838 362.176 427.269 363.214C426.9 363.886 425.269 365.053 423.644 365.806C419.021 367.951 419.016 369.194 423.614 372.864C427.253 375.767 428.382 377.457 430.313 382.891C431.334 385.766 431.557 382.647 430.669 377.912C429.286 370.541 429.547 368.075 431.917 366.112L434.021 364.369L440.164 368.008C444.461 370.553 446.791 372.444 447.915 374.299C450.321 378.268 450.916 380.927 449.848 382.933C449.324 383.917 449.163 385.602 449.491 386.677C450.102 388.68 452.686 392.638 453.633 393.02C453.924 393.138 455.681 394.541 457.537 396.14C459.393 397.738 461.12 398.982 461.374 398.905C462.434 398.581 464.308 395.488 464.417 393.882C464.481 392.93 464.165 390.278 463.714 387.989C463.263 385.7 463.052 382.768 463.244 381.473C463.437 380.178 463.554 376.751 463.505 373.859C463.456 370.967 463.927 366.945 464.551 364.922C465.899 360.557 465.564 358.961 462.989 357.484C460.826 356.243 456.329 348.614 456.326 346.181C456.323 342.984 457.52 341.625 461.377 340.45C464.15 339.605 466.158 339.546 469.537 340.211C472.002 340.696 474.633 340.906 475.384 340.677C476.134 340.448 478.056 341.008 479.654 341.92C481.251 342.832 484.109 343.854 486.003 344.191C489.339 344.784 492.57 346.355 492.999 347.591C493.113 347.923 492.813 348.72 492.331 349.363C491.526 350.436 491.623 350.661 493.496 352.088C494.619 352.944 496.076 354.702 496.735 355.994C497.845 358.174 497.798 358.441 496.087 359.692C495.073 360.433 494.096 361.786 493.915 362.698C493.735 363.61 492.981 364.541 492.24 364.767C490.421 365.321 490.945 366.592 493.719 368.349C494.984 369.151 496.523 370.769 497.137 371.945C497.88 373.368 499.16 374.369 500.959 374.935C506.83 376.783 508.931 383.663 506.608 393.432C503.857 405 503.592 405.556 500.519 406.175C499.021 406.477 496.815 406.437 495.617 406.087L493.438 405.451L495.3 407.699C497.368 410.196 496.994 411.65 494.288 411.633C491.502 411.616 490.525 411.956 489.736 413.221C489.05 414.32 488.549 414.467 486.298 414.233C484.848 414.082 483 413.446 482.19 412.818C480.949 411.856 480.311 411.879 478.114 412.966C476.682 413.675 475.051 414.709 474.49 415.263C473.577 416.166 473.805 416.438 476.662 417.855C479.65 419.336 479.88 419.633 480.248 422.473C480.531 424.66 479.983 427.029 478.286 430.961C476.991 433.961 475.973 437.25 476.024 438.27C476.075 439.29 475.765 440.234 475.335 440.367C474.905 440.5 475.646 441.044 476.981 441.576C479.031 442.392 479.504 442.975 480.028 445.327C480.369 446.859 480.388 449.034 480.07 450.161C479.752 451.289 479.161 453.323 478.757 454.683C478.352 456.043 477.376 459.959 476.588 463.384C474.957 470.475 474.037 471.485 467.359 473.52C462.451 475.016 461.383 476.425 462.187 480.342C462.686 482.771 462.644 482.825 459.596 483.708C457.892 484.202 455.596 484.672 454.494 484.753C451.557 484.969 451.725 486.166 454.831 487.155C456.32 487.63 457.681 488.071 457.855 488.134C458.738 488.456 460.475 493.872 460.423 496.139C460.354 499.164 458.21 501.264 453.508 502.913C448.192 504.777 448.413 504.581 450.087 505.95C451.501 507.108 451.487 507.363 449.837 510.361C447.394 514.803 444.996 521.312 444.252 525.527C443.906 527.487 443.129 529.916 442.525 530.923C441.215 533.108 440.498 536.577 441.009 538.252C441.211 538.916 440.81 543.324 440.118 548.048C439.061 555.257 439.05 557.221 440.05 560.276L441.241 563.915L438.315 564.807C436.707 565.297 435.225 565.618 435.024 565.52Z" fill="#362B26"/>
<path d="M561.919 485.379C557.575 484.225 555.68 477.482 558.222 472.218C559.254 470.081 561.032 469.666 563.798 470.918C566.583 472.177 567.922 480.455 565.905 483.939C564.651 486.105 564.651 486.105 561.919 485.379Z" fill="#362B26"/>
<path d="M524.067 488.534C521.568 486.044 521.76 478.609 524.408 475.31C526.53 472.667 527.233 472.276 532.566 470.781C535.813 469.87 536.228 469.936 537.578 471.576C538.917 473.204 538.948 473.723 537.916 477.385C536.417 482.708 533.155 486.61 528.728 488.375C525.744 489.564 525.123 489.585 524.067 488.534Z" fill="#362B26"/>
<path d="M504.195 478.192C503.196 478.274 502.699 477.585 501.927 475.056C501.384 473.273 500.456 471.557 499.866 471.242C499.275 470.928 497.07 471.162 494.966 471.762C486.827 474.083 485.036 472.719 488.043 466.486C489.771 462.905 489.849 461.535 488.548 457.681C484.039 444.331 483.14 439.927 482.615 428.628C482.451 425.099 482.614 424.708 484.702 423.617C486.672 422.589 487.248 422.626 489.119 423.905C490.302 424.714 492.211 426.521 493.36 427.921C495.148 430.099 495.748 430.381 497.519 429.879C498.883 429.492 501.994 430.072 506.655 431.582C510.543 432.842 516.046 434.603 518.886 435.496C521.725 436.388 524.197 437.579 524.38 438.141C524.562 438.704 525.847 440.167 527.236 441.392C528.625 442.618 529.937 444.16 530.151 444.82C530.489 445.863 530.994 445.822 534.014 444.509C537.135 443.153 537.805 443.119 540.615 444.177C543.331 445.2 543.807 445.68 544.238 447.826C544.971 451.473 544.731 452.385 542.397 454.843C540.281 457.073 540.279 457.073 536.788 456.678C534.544 456.424 532.43 456.675 530.876 457.378C528.956 458.247 528.054 458.243 526.508 457.357C525.437 456.742 524.492 455.661 524.408 454.954C524.183 453.063 517.041 451.788 515.951 453.444C515.526 454.09 515.396 455.332 515.662 456.204C516.406 458.644 515.993 461.754 514.571 464.413C513.862 465.74 512.872 467.944 512.372 469.31C511.089 472.813 509.276 476.451 508.662 476.751C507.023 477.551 505.32 478.101 504.195 478.192Z" fill="#362B26"/>
<path d="M381.189 397.608C378.664 397.561 375.141 396.516 371.389 394.698C369.938 393.995 368.49 393.499 368.17 393.594C366.812 394 362.709 392.036 362.332 390.799C361.806 389.076 368.205 371.098 369.482 370.709C371.204 370.184 379.542 374.908 382.525 378.097C387.04 382.925 390.612 387.704 391.236 389.749C391.663 391.15 391.282 392.244 389.701 394.158C387.536 396.78 385.305 397.684 381.189 397.608Z" fill="#362B26"/>
<path d="M667.325 423.369C667.16 423.281 662.726 424.321 657.472 425.679C649.953 427.623 647.538 427.994 646.128 427.422C645.143 427.022 643.105 426.162 641.6 425.512C639.303 424.52 638.328 424.528 635.538 425.556C631.861 426.912 629.431 426.953 621.243 425.798C616.32 425.103 615.523 424.751 614.007 422.605C612.498 420.466 612.414 420.078 613.267 419.188C614.326 418.084 614.24 416.757 613.131 417.095C612.745 417.213 610.573 416.722 608.305 416.004C606.038 415.285 603.187 414.777 601.971 414.874C600.573 414.986 599.173 414.448 598.161 413.411C595.755 410.945 591.596 409.853 587.606 410.64C584.631 411.226 583.936 411.636 583.031 413.342C582.251 414.811 581.161 415.598 578.988 416.261C576.464 417.03 575.693 417.719 573.908 420.806L571.803 424.446L566.117 426.179C556.663 429.06 554.004 427.977 550.547 419.838C549.345 417.008 549.361 416.466 550.718 414.058C551.874 412.006 552.035 410.81 551.425 408.81C550.887 407.043 550.955 405.901 551.641 405.216C552.194 404.665 556.295 403.052 560.754 401.632C568.106 399.292 569.017 398.841 570.518 396.792C572.867 393.588 575.641 391.052 577.372 390.524C578.59 390.153 578.69 389.82 577.929 388.668C576.838 387.017 575.935 385.527 575.681 384.956C575.581 384.733 573.972 384.096 572.105 383.541C568.915 382.593 568.684 382.368 568.261 379.787C568.013 378.277 567.995 376.038 568.22 374.811C568.446 373.584 569.27 368.955 570.051 364.525L571.471 356.47L568.651 352.032C565.964 347.807 560.016 342.649 555.785 340.875C554.965 340.532 553.204 339.31 551.871 338.16C550.486 336.965 547.751 335.705 545.492 335.222C542.335 334.545 541.274 333.926 540.23 332.15C539.057 330.153 538.723 330.013 536.967 330.778C535.891 331.248 534.669 332.171 534.252 332.83C533.835 333.489 532.408 335.063 531.083 336.327C529.02 338.294 528.513 338.521 527.566 337.897C525.995 336.863 526.177 334.166 528.016 331.208C529.548 328.746 529.545 328.676 527.915 328.078C525.774 327.293 524.851 327.576 522.696 329.68C520.438 331.883 518.934 331.745 518.179 329.267C517.775 327.944 517.974 326.948 518.78 326.247C519.901 325.273 519.692 325.051 515.731 323.005C508.501 319.272 504.587 317.737 503.789 318.323C503.368 318.632 503.345 319.939 503.738 321.227L504.452 323.57L497.474 325.873C493.636 327.14 488.44 328.758 485.928 329.469C482.077 330.558 481.427 330.935 481.788 331.866C482.156 332.816 481.401 333.207 476.366 334.674C473.149 335.611 467.205 337.128 463.157 338.045C458.648 339.067 454.925 340.268 453.545 341.148C450.771 342.915 448.053 342.186 445.807 339.07C444.544 337.317 444.053 337.135 442.398 337.8C434.524 340.968 434.119 341.057 431.603 340.168C426.043 338.202 420.705 333.983 419.729 330.783C419.416 329.756 419.974 329.188 422.381 328.077C424.057 327.304 426.686 326.289 428.223 325.82C430.619 325.09 430.833 324.879 429.726 324.336C427.816 323.4 423.692 323.454 420.392 324.46C418.265 325.108 417.253 325.064 416.627 324.296C414.511 321.701 411.777 316.287 411.05 313.255C407.603 298.874 407.383 297.189 407.71 287.714C408.187 273.941 409.607 267.206 412.77 263.725C417.783 258.205 428.024 256.194 430.542 260.234C431.518 261.801 431.459 262.563 430.143 265.368C429.251 267.269 428.729 269.83 428.909 271.422C429.08 272.94 428.976 275.028 428.677 276.063C428.019 278.343 428.461 286.015 429.292 286.746C429.621 287.035 430.672 289.514 431.63 292.255C433.575 297.827 434.113 298.545 435.921 297.994C436.72 297.751 437.139 296.874 437.073 295.582C437.015 294.466 437.301 292.842 437.708 291.973C438.303 290.7 438.217 290.215 437.264 289.485C434.809 287.604 433.392 285.538 432.363 282.338C431.545 279.795 431.544 278.676 432.358 277.469C432.94 276.607 433.457 275.298 433.509 274.561C433.56 273.824 433.92 273.124 434.309 273.006C434.698 272.887 434.826 272.166 434.593 271.402C433.847 268.955 436.804 259.944 439.164 257.476C441.673 254.851 447.858 251.634 450.141 251.768C451.515 251.849 453.211 253.246 459.704 259.645C463.801 263.683 467.371 268.434 467.447 269.949C467.553 272.046 471.078 274.541 473.071 273.928C473.892 273.675 475.636 272.786 476.947 271.952C478.913 270.701 479.183 270.222 478.492 269.218C477.034 267.102 480.156 262.461 484.726 259.947C488.348 257.955 488.813 257.856 491.411 258.524C492.947 258.919 494.979 259.019 495.926 258.747C498.077 258.128 501.853 259.684 503.211 261.748C504.597 263.854 506.816 265.146 508.282 264.699C509.153 264.433 509.846 265.052 510.786 266.933C511.501 268.364 512.354 269.453 512.681 269.353C513.008 269.254 515.513 270.352 518.247 271.795C522.342 273.956 523.22 274.184 523.225 273.088C523.229 272.357 523.362 270.615 523.522 269.219C523.843 266.413 524.483 266.181 531.076 266.486C533.836 266.614 534.68 267.07 536.801 269.577C538.261 271.303 540.221 272.743 541.545 273.064C542.786 273.365 544.354 274.161 545.028 274.832C547.286 277.082 549.12 277.108 550.65 274.911C552.31 272.527 554.071 272.338 558.965 274.02C562.087 275.093 562.57 275.512 562.661 277.224C562.932 282.337 563.161 283.255 564.041 282.769C564.522 282.503 565.194 281.273 565.534 280.036C566.429 276.778 568.626 276.439 573.008 278.882C577.152 281.192 579.366 283.156 580.082 285.156C581.431 288.923 581.774 289.284 584.377 289.676C585.869 289.9 587.85 290.862 588.778 291.813L590.465 293.542L587.894 296.331C585.779 298.625 585 299.077 583.498 298.878C581.076 298.557 580.794 299.318 582.734 300.936C584.255 302.204 585.075 305.051 584.821 308.179C584.684 309.86 587.62 311.25 591.272 311.233C592.847 311.225 595.587 311.671 597.36 312.223C599.134 312.775 601.679 312.947 603.018 312.606C604.356 312.264 606.32 312.071 607.383 312.178C608.446 312.284 611.062 311.69 613.198 310.859L617.08 309.348L621.928 312.057C626.18 314.432 627.124 314.671 629.604 313.997C631.159 313.574 632.816 313.154 633.286 313.062C633.757 312.97 634.66 313.85 635.295 315.017C635.929 316.184 636.709 317.279 637.03 317.449C637.35 317.62 639.529 316.363 641.871 314.657L646.13 311.553L649.163 312.239C651.994 312.878 652.283 313.159 653.507 316.463C655.12 320.82 655.232 322.551 654.069 325.165C653.222 327.071 653.261 327.257 654.692 328.114C655.921 328.849 656.171 329.4 655.969 330.925C655.831 331.968 656.222 333.847 656.838 335.1C658.289 338.052 657.065 342.254 654.529 343.027C653.068 343.472 652.955 343.755 653.763 344.947C655.219 347.094 658.7 350.592 659.624 350.835C661.327 351.284 660.933 352.957 658.609 355.146C656.246 357.371 656.164 357.398 653.419 356.853C651.885 356.548 648.995 356.372 646.997 356.462C643.857 356.603 642.904 356.245 639.956 353.818C636.127 350.664 629.948 347.521 628.465 347.973C627.928 348.137 626.959 347.997 626.312 347.662C622.712 345.797 617.56 345.552 618.084 347.27C618.18 347.587 617.557 348.466 616.698 349.224L615.137 350.603L617.597 351.983C620.534 353.629 621.477 356.754 619.577 358.545C618.662 359.407 618.594 359.995 619.304 360.894C619.824 361.553 620.2 361.851 620.139 361.555C619.956 360.674 625.597 361.505 626.942 362.557C627.625 363.091 629.854 364.541 631.895 365.778C635.508 367.968 636.568 368.143 644.317 367.827C646.625 367.733 647.616 368.087 648.322 369.26C648.838 370.117 649.979 370.961 650.858 371.135C651.736 371.309 653.58 372.422 654.954 373.608C656.329 374.794 660.306 377.32 663.793 379.223L670.131 382.681L672.901 392.271C674.425 397.545 675.492 402.064 675.274 402.313C674.669 403.001 661.02 402.813 653.554 402.013C649.907 401.623 645.722 400.773 644.254 400.125C641.784 399.034 639.734 399.273 635.812 401.109C634.691 401.634 635.834 402.559 637.843 402.754C639.029 402.869 640.874 403.831 641.945 404.892C643.542 406.475 644.939 406.891 649.741 407.216C652.959 407.434 659.562 408.743 664.415 410.126L673.238 412.64L675.402 420.973L671.513 422.251C669.375 422.954 667.49 423.457 667.325 423.369Z" fill="#362B26"/>
<path d="M566.787 451.209C563.681 450.257 562.326 448.694 563.07 446.92C563.787 445.207 565.18 444.912 568.036 445.868C570.585 446.72 571.827 448.926 570.821 450.813C570.092 452.182 569.994 452.192 566.787 451.209Z" fill="#362B26"/>
<path d="M571.902 441.107C570.574 441.25 570.155 440.894 569.88 439.39C569.616 437.951 569.944 437.313 571.237 436.749C573.46 435.778 576.793 437.089 576.667 438.885C576.575 440.184 575.402 440.731 571.902 441.107Z" fill="#362B26"/>
<path d="M537.579 368.296C531.554 365.086 528.732 350.378 533.129 345.102C535.077 342.765 539.062 342.483 542.378 344.448C544.951 345.972 545.069 346.19 547.335 353.622C549.924 362.114 549.816 362.806 545.256 366.835C542.218 369.52 540.493 369.848 537.579 368.296Z" fill="#362B26"/>
<path d="M552.591 349.965C550.254 349.63 547.74 347.536 548.088 346.216C548.504 344.638 554.054 343.363 555.605 344.49C557.453 345.832 557.494 346.979 555.752 348.657C554.657 349.711 553.668 350.12 552.591 349.965Z" fill="#362B26"/>
<path d="M506.033 344.323C505.096 343.824 505.123 343.366 506.243 340.819C506.897 339.334 507.065 337.06 506.69 334.793C506.11 331.294 506.653 327.398 507.768 327.058C508.793 326.746 509.783 328.814 509.435 330.538C509.242 331.495 509.458 333.267 509.914 334.476C511.297 338.141 508.369 345.568 506.033 344.323Z" fill="#362B26"/>
<path d="M350.996 338.095C348.787 337.174 346.765 335.883 346.503 335.224C343.637 328.028 341.973 326.497 334.444 324.127C332.999 323.672 330.278 321.762 328.397 319.882C325.064 316.549 324.978 316.378 325.008 313.082C325.024 311.222 325.616 308.905 326.324 307.934C327.603 306.178 327.636 306.178 332.116 307.817C336.445 309.402 336.651 309.404 337.375 307.864C337.79 306.983 338.095 305.017 338.055 303.495C337.992 301.121 337.725 300.576 336.182 299.668C331.808 297.094 330.315 295.119 329.994 291.479C329.647 287.534 330.719 283.613 332.277 283.139C332.865 282.959 335.248 283.246 337.572 283.775C341.198 284.6 341.871 284.56 342.319 283.49C343.384 280.95 350.427 277.066 352.45 277.903C353.061 278.155 353.997 279.901 354.624 281.96C355.48 284.767 355.49 285.759 354.668 286.404C353.661 287.196 353.68 287.26 355.079 287.753C357.236 288.513 357.224 289.324 354.986 294.203C353.871 296.631 353.056 298.931 353.173 299.316C353.29 299.7 354.41 300.055 355.661 300.104C357.413 300.174 358.066 300.612 358.501 302.01C358.812 303.008 359.746 304.461 360.577 305.238C363.698 308.155 364.719 309.739 366.501 314.432C368.131 318.727 368.235 319.605 367.447 322.483C366.53 325.834 363.6 329.796 361.585 330.41C360.947 330.604 360.686 330.993 361.005 331.273C362.006 332.153 359.552 336.704 357.233 338.269C355.133 339.687 354.794 339.677 350.996 338.095Z" fill="#362B26"/>
<path d="M375.353 316.417C373.544 315.714 372.937 314.97 372.201 312.555C371.699 310.91 370.715 308.824 370.014 307.919C367.108 304.169 363.57 288.051 364.311 281.936C364.556 279.908 364.587 277.016 364.378 275.51C363.85 271.688 365.581 269.861 372.873 266.545C374.858 265.642 376.452 265.467 378.825 265.888C380.607 266.205 382.704 266.269 383.485 266.031C385.465 265.428 390.046 265.972 393.362 267.204C396.144 268.238 396.152 268.25 395.712 270.773C395.469 272.166 394.984 273.942 394.634 274.719C394.285 275.496 394.11 277.067 394.246 278.21C394.382 279.352 393.926 282.146 393.233 284.418C392.523 286.743 392.129 290.418 392.332 292.824C392.53 295.176 392.393 297.3 392.028 297.545C391.662 297.791 389.432 298.767 387.071 299.715C384.71 300.663 382.621 301.746 382.429 302.122C382.146 302.676 382.999 307.789 384.095 312.101C384.378 313.218 381.352 316.141 379.248 316.782C378.337 317.06 376.584 316.895 375.353 316.417Z" fill="#362B26"/>
<path d="M467.514 263.458C462.755 259.254 455.175 250.779 455.248 249.744C455.37 248.016 469.231 243.989 472.626 244.694C477.225 245.65 483.661 249.248 487.278 252.885C489.396 255.015 487.808 256.839 482.638 258.212C479.329 259.091 477.744 259.916 475.916 261.712C472.398 265.167 470.011 265.663 467.514 263.458Z" fill="#362B26"/>
<path d="M389.298 251.878C387.507 251.409 385.097 251.311 383.942 251.66C380.43 252.725 379.017 251.753 377.318 247.105C376.486 244.828 375.32 242.482 374.727 241.891C373.043 240.213 370.676 233.941 371.038 232.113C371.216 231.213 370.894 228.744 370.322 226.626C369.445 223.378 368.875 222.489 366.68 220.945C365.249 219.939 363.782 218.531 363.421 217.817C362.855 216.697 362.039 216.677 357.503 217.669C354.609 218.302 351.675 218.755 350.982 218.676C349.219 218.475 340.491 212.424 339.447 210.679C338.973 209.886 338.554 208.077 338.516 206.66C338.434 203.564 339.922 202.463 345.568 201.443C351.431 200.383 355.456 201.49 357.66 204.77C358.79 206.451 360.7 206.424 365.16 204.664C370.502 202.557 373.286 203.164 374.379 206.675C374.76 207.898 375.54 208.528 376.895 208.708C379.888 209.104 381.287 211.101 381.155 214.786C381.045 217.86 381.063 217.888 384.017 219.42C385.652 220.268 387.2 221.65 387.457 222.492C387.846 223.767 388.43 223.946 390.968 223.564C392.643 223.312 396.792 222.817 400.188 222.465L406.362 221.826L409.644 218.835C411.449 217.19 413.252 215.744 413.651 215.622C414.051 215.501 415.354 213.907 416.547 212.081C418.672 208.829 418.835 208.727 424.309 207.199C430.769 205.396 432.904 205.363 438.553 206.98C445.347 208.925 449.938 213.106 448.417 215.962C448.105 216.548 448.445 217.498 449.422 218.765C450.662 220.373 450.781 220.935 450.165 222.255C449.761 223.12 449.647 224.942 449.913 226.304C450.334 228.461 450.036 229.121 447.593 231.438C442.767 236.014 434.463 238.522 432.316 236.052C431.382 234.978 431.125 234.978 430.504 236.056C430.105 236.747 428.607 238.415 427.174 239.765C424.918 241.89 423.205 242.672 414.365 245.615C403.457 249.245 400.755 249.5 399.07 247.054C397.897 245.351 397.452 245.63 395.608 249.225C394.732 250.935 393.686 252.423 393.285 252.533C392.884 252.642 391.09 252.348 389.298 251.878Z" fill="#362B26"/>
<path d="M365.314 256.792C363.798 256.874 354.634 254.02 352.127 252.684C349.94 251.519 349.655 249.243 350.9 242.889C351.886 237.861 352.385 236.78 354.399 235.318C357.177 233.301 360.669 233.042 364.33 234.58C366.56 235.517 366.811 235.942 369.565 243.416C372.447 251.237 372.453 251.277 371.221 253.59C370.04 255.809 368.549 256.617 365.314 256.792Z" fill="#362B26"/>
<path d="M334.627 252.392C331.061 251.906 326.739 249.476 326.18 247.643C325.985 247.002 326.548 245.309 327.433 243.881L329.041 241.284L322.723 243.438C315.576 245.874 314.314 245.59 312.989 241.245C311.991 237.97 310.731 236.969 306.081 235.753C303.835 235.165 301.94 234.498 301.87 234.27C301.801 234.042 301.996 232.814 302.304 231.542C302.824 229.392 303.095 229.19 306.115 228.682C309.975 228.034 312.042 228.308 312.41 229.516C312.558 230.001 314.502 231.42 316.731 232.669C319.737 234.354 321.297 234.784 322.776 234.333C324.558 233.79 324.72 233.451 324.301 231.145C323.799 228.387 322.417 227.312 317.96 226.214C316.734 225.912 315.613 225.276 315.468 224.8C315.323 224.325 316.371 222.253 317.796 220.195C319.737 217.395 320.886 216.378 322.369 216.148C323.459 215.979 326.067 215.488 328.164 215.058C330.262 214.627 332.874 214.537 333.969 214.857L335.96 215.438L339.457 228.27C341.531 235.883 342.762 241.558 342.484 242.223C342.212 242.873 342.507 244.286 343.186 245.587C345.008 249.075 344.28 251.023 340.786 252.012C339.187 252.465 336.416 252.635 334.627 252.392Z" fill="#362B26"/>
<path d="M283.435 263.227C280.091 262.355 278.207 262.9 276.875 265.127C276.428 265.873 275.632 266.37 275.104 266.231C273.85 265.9 272.812 249.1 274.04 249.003C274.576 248.961 274.474 247.646 273.752 245.277C272.351 240.681 270.611 223.455 271.299 220.988C272.357 217.193 278.551 218.187 277.79 222.03C277.587 223.057 277.859 224.039 278.574 224.86C279.81 226.278 280.925 230.727 280.564 232.794C280.432 233.546 280.732 235.386 281.231 236.882C282.007 239.212 282.384 239.565 283.852 239.335C284.795 239.187 286.815 238.268 288.341 237.292C290.844 235.692 291.283 235.608 292.828 236.431C296.134 238.192 299.637 247.509 298.35 251.118C298.014 252.062 297.409 254.019 297.007 255.468C295.345 261.453 289.482 264.805 283.435 263.227Z" fill="#362B26"/>
<path d="M302.15 257.405C301.273 256.273 301.128 255.34 301.572 253.687C301.899 252.473 302.173 251.411 302.182 251.327C302.19 251.243 303.123 250.704 304.254 250.129C306.194 249.143 306.447 249.242 308.711 251.862C310.169 253.551 310.938 254.963 310.672 255.462C310.431 255.915 308.679 256.877 306.778 257.6C303.611 258.806 303.223 258.79 302.15 257.405Z" fill="#362B26"/>
<path d="M428.984 195.226C428.516 194.548 428.212 193.697 428.307 193.336C428.571 192.333 427.348 191.56 424.735 191.079C422.475 190.663 422.322 190.742 421.303 192.843C420.516 194.467 419.803 195.041 418.584 195.034C417.675 195.029 416.111 195.099 415.108 195.19C414.106 195.281 412.37 194.765 411.251 194.044C409.529 192.932 409.094 192.918 408.413 193.952C407.972 194.623 407.858 195.986 408.161 196.981C408.88 199.337 407.12 201.387 404.176 201.622C402.952 201.72 398.137 202.91 393.475 204.268C386.049 206.43 384.705 206.631 382.635 205.889C380.611 205.163 380.076 204.501 378.896 201.262C378 198.799 377.673 196.645 377.96 195.078C378.635 191.395 381.544 186.448 383.359 185.894C386.292 185 386.229 183.271 383.208 181.758C378.288 179.295 375.939 175.775 376.666 171.96C377.147 169.443 377.807 168.876 381.624 167.701C385.788 166.419 389.155 167.596 391.387 171.115C392.201 172.397 393.837 173.963 395.023 174.595C396.795 175.539 397.388 175.536 398.344 174.577C399.451 173.466 399.312 173.301 395.496 171.198C393.29 169.982 390.848 168.213 390.07 167.268C388.81 165.737 388.776 165.225 389.755 162.589L390.854 159.63L386.172 161.057C380.336 162.835 378.106 162.305 377.064 158.889C376.664 157.576 376.593 155.055 376.907 153.287C377.221 151.519 377.264 149.959 377.004 149.82C375.594 149.069 377.674 144.913 381.143 141.551L384.966 137.845L390.24 138.847C396.95 140.123 396.558 140.108 396.284 139.074C396.155 138.586 396.109 137.579 396.182 136.836C396.254 136.092 396.04 135.534 395.705 135.595C395.371 135.656 394.18 135.9 393.059 136.137C390.158 136.75 383.906 132.956 380.968 128.8C379.688 126.989 377.196 124.467 375.43 123.194C373.663 121.922 372.144 120.637 372.053 120.34C371.963 120.042 371.24 119.791 370.447 119.782C368.312 119.758 366.624 116.943 365.601 111.704C364.403 105.573 364.871 104.576 369.39 103.623C374.082 102.633 375.601 103.161 382.628 108.224C385.877 110.564 388.605 112.348 388.691 112.188C389.219 111.197 386.092 107.583 383.115 105.744C378.531 102.913 378.044 100.803 381.262 97.7074C382.537 96.4813 384.553 94.2651 385.742 92.7826C386.931 91.3001 388.449 89.9209 389.116 89.7177C389.878 89.4852 390.17 88.83 389.901 87.9498C389.667 87.1807 390.354 84.9389 391.43 82.9682L393.384 79.385L390.987 77.8297C389.668 76.9743 388.422 75.761 388.218 75.1336C388.013 74.5062 387.564 75.5963 387.22 77.5561C385.525 87.1902 383.148 91.1239 378.013 92.7888C376.263 93.3561 373.194 94.7811 371.192 95.9554C366.15 98.9133 363.689 98.784 362.375 95.4923C361.843 94.157 361.532 91.813 361.685 90.2832C361.839 88.7534 361.784 87.5565 361.565 87.6234C360.832 87.8469 359.502 91.4655 359.798 92.4341C359.958 92.96 359.524 94.3608 358.833 95.547C357.823 97.2819 357.166 97.7104 355.475 97.7383C350.482 97.8208 345.977 94.9953 347.043 92.4497C347.51 91.3356 347.37 91.2004 346.14 91.5753C345.34 91.8192 344.44 92.0428 344.139 92.0721C342.936 92.1898 341.215 90.3154 340.529 88.1405C339.953 86.3142 340.212 85.1501 341.782 82.4968C343.904 78.9097 344.054 77.9729 342.427 78.4689C341.861 78.6413 340.593 78.3533 339.609 77.8289C338.625 77.3045 337.107 77.0926 336.237 77.358C330.293 79.1695 329.967 72.296 335.78 67.73C336.944 66.8159 338.659 64.5525 339.592 62.7001C341.032 59.8387 341.723 59.1994 344.184 58.4494C346.903 57.6205 347.024 57.4732 346.161 56.0384C345.447 54.8528 345.583 53.9821 346.768 52.1546C347.608 50.8591 348.113 49.1998 347.89 48.4674C347.366 46.7492 348.415 45.1808 350.223 44.9784C351.007 44.8908 351.998 44.7383 352.425 44.6395C352.853 44.5407 354.53 44.871 356.151 45.3735C359.314 46.3533 359.818 45.8092 358.809 42.5003C358.559 41.6814 358.971 39.1634 359.725 36.9047C360.479 34.646 360.928 32.2482 360.723 31.5762C360.518 30.9043 361.181 28.6965 362.196 26.6701C363.683 23.7024 364.413 22.9459 365.951 22.7808C367.541 22.6101 367.874 22.2201 367.944 20.4469C368.036 18.1289 370.473 15.8551 373.227 15.5177C378.696 14.8478 380.289 14.2073 382.851 11.6466C385.705 8.79392 390.788 6.4969 393.226 6.95761C394.303 7.16104 395.777 6.54465 398.379 4.80326C401.018 3.03678 402.504 2.42009 403.769 2.56756C404.729 2.67956 407.178 2.14563 409.212 1.38103C414.21 -0.49815 415.6 -0.471766 417.323 1.535C418.914 3.38879 421.139 4.03267 424.447 3.5962C427.228 3.22917 428.744 4.11504 430.482 7.12455C432.699 10.9617 433.617 14.6439 433.765 20.2967C433.869 24.2777 433.511 26.0829 432.225 28.0561C431.304 29.4704 430.185 30.7389 429.738 30.875C428.501 31.2519 426.305 36.6204 425.527 41.1686C425.144 43.4041 424.875 45.3764 424.928 45.5516C425.199 46.4387 427.665 42.1168 427.845 40.4406C427.959 39.3731 428.784 37.6043 429.677 36.5099C430.57 35.4155 431.231 34.2885 431.146 34.0053C430.912 33.2272 434.244 32.3874 434.984 33.038C435.339 33.3502 436.154 35.3251 436.795 37.4267C437.679 40.3274 437.743 41.9779 437.06 44.2794C435.677 48.9377 434.894 54.0512 435.446 54.8275C435.719 55.2121 435.492 59.2184 434.941 63.7305C434.391 68.2425 433.857 72.8026 433.755 73.864C433.529 76.2247 434.35 84.2212 435.209 88.0291C436.043 91.7246 433.753 95.8098 430.486 96.4545C428.494 96.8477 428.304 97.1215 428.51 99.3046C428.635 100.633 428.271 102.666 427.7 103.822C426.728 105.793 421.836 109.965 421.012 109.526C420.806 109.417 420.248 110.162 419.772 111.183C418.917 113.017 418.93 113.046 420.764 113.6C422.977 114.268 424.012 116.964 422.934 119.256C422.33 120.541 422.376 120.813 423.169 120.641C423.712 120.523 424.487 120.404 424.891 120.377C425.294 120.35 426.21 120.2 426.924 120.045C427.639 119.89 429.411 120.449 430.862 121.287C434.196 123.212 436.032 128.023 434.224 130.099C432.771 131.766 433.032 132.387 435.601 133.386C436.77 133.84 437.906 134.801 438.125 135.52C438.376 136.344 437.938 137.182 436.941 137.781C435.664 138.55 435.488 139.159 436.03 140.936C436.969 144.016 434.92 148.25 431.885 149.499L429.566 150.454L431.373 155.54C432.998 160.117 433.071 160.846 432.092 162.815C429.235 168.565 429.232 168.593 431.138 170.183C432.093 170.978 433.981 171.832 435.335 172.08C436.689 172.328 438.287 172.898 438.887 173.347C440.34 174.435 441.011 178.068 440.51 182.141C439.554 189.912 431.568 198.978 428.984 195.226Z" fill="#362B26"/>
<path d="M292.929 208.648C290.463 207.334 289.214 204.442 289.373 200.413C289.489 197.459 290.703 197.01 293.256 198.976C297.106 201.94 298.524 206.459 296.305 208.688C295.37 209.626 294.752 209.619 292.929 208.648Z" fill="#362B26"/>
<path d="M343.125 192.325C337.465 191.279 336.198 188.974 338.881 184.601C341.067 181.036 344.763 179.596 348.917 180.692C353.473 181.893 354.459 184.899 351.695 189.161C349.969 191.822 346.779 193 343.125 192.325Z" fill="#362B26"/>
<path d="M333.627 182.729C331.059 182.434 329.385 180.771 329.41 178.541C329.419 177.718 328.371 176.556 326.628 175.455C323.231 173.309 322.23 171.771 321.431 167.472C320.723 163.662 322.133 160.762 324.706 160.738C325.573 160.729 328.472 161.371 331.148 162.164C333.824 162.956 336.224 163.541 336.482 163.462C337.582 163.127 339.71 166.667 341.051 171.063L342.495 175.799L340.052 179.201C337.328 182.994 337.087 183.127 333.627 182.729Z" fill="#362B26"/>
<path d="M318.395 185.966C317.297 185.344 314.942 183.929 313.162 182.822C307.463 179.279 305.005 178.77 300.762 180.253C297.399 181.428 296.729 181.417 294.345 180.147C291.562 178.664 290.335 176.33 290.883 173.562C291.051 172.714 291.64 171.882 292.193 171.713C292.745 171.545 293.612 170.628 294.12 169.675C294.915 168.181 294.834 167.611 293.532 165.545C292.632 164.116 290.843 162.653 289.103 161.922C283.592 159.608 283.741 153.306 289.347 151.598C292.402 150.667 297.075 152.181 297.725 154.312C298.114 155.589 299.395 156.242 301.037 156.002C302.786 155.746 306.97 157.904 309.323 160.277C310.643 161.608 312.432 163.107 313.298 163.609C316.424 165.42 317.118 166.578 316.993 169.78C316.825 174.098 317.229 174.955 320.343 176.883C321.867 177.826 323.262 179.083 323.443 179.676C324.044 181.648 323.285 184.543 321.83 185.828C320.605 186.91 320.096 186.931 318.395 185.966Z" fill="#362B26"/>
<path d="M355.484 166.555C353.458 165.423 351.447 163.985 351.016 163.359C350.586 162.734 349.198 161.621 347.933 160.886C344.661 158.987 340.487 154.451 339.731 151.973C338.904 149.261 340.737 145.681 343.362 144.88C345.143 144.338 347.065 141.623 346.645 140.245C346.459 139.633 342.583 138.854 341.456 139.201C341.08 139.317 339.384 140.101 337.688 140.942C333.747 142.897 331.459 142.995 329.94 141.274C329.034 140.249 328.832 139.366 329.136 137.754C329.378 136.474 329.256 135.691 328.835 135.819C328.446 135.938 327.322 135.606 326.338 135.081C324.328 134.01 323.096 130.852 323.242 127.144C323.326 125.006 323.622 124.669 326.058 123.926C328.566 123.162 328.704 122.988 327.821 121.706C327.294 120.942 325.703 119.795 324.285 119.159C322.1 118.178 321.679 117.656 321.526 115.739C321.311 113.048 322.294 111.35 324.672 110.301C328.792 108.486 328.763 107.944 324.416 105.462L321.229 103.643L321.787 100.502C322.093 98.775 323.106 96.6189 324.036 95.711C325.38 94.3992 325.61 93.5178 325.155 91.42C324.621 88.955 324.74 88.7175 326.942 87.8381C329.381 86.8646 334.02 87.7436 335.733 89.5034C338.15 91.9877 341.354 95.8619 341.566 96.5571C342.014 98.0266 346.261 101.636 350.277 103.96C353.215 105.661 354.44 106.833 354.918 108.398C355.409 110.011 356.664 111.15 360.1 113.106C364.07 115.366 364.743 116.046 365.517 118.587C366.454 121.657 366.812 121.912 375.05 125.38C378.121 126.673 378.63 127.185 379.422 129.785C380.194 132.317 379.979 133.657 377.879 139.398C376.536 143.067 374.785 146.724 373.988 147.525C373.037 148.48 372.716 149.565 373.054 150.676C373.339 151.608 372.885 154.219 372.047 156.477C370.353 161.038 369.985 161.384 366.817 161.389C365.393 161.391 365.243 161.691 365.654 163.718C366.115 165.988 366.042 166.075 362.647 167.329C359.331 168.554 358.997 168.518 355.484 166.555Z" fill="#362B26"/>
<path d="M267.294 181.557C267.217 180.551 267.01 178.506 266.835 177.014C266.66 175.522 266.799 174.215 267.145 174.109C268.13 173.809 269.002 180.527 268.175 182.038C267.514 183.245 267.421 183.194 267.294 181.557Z" fill="#362B26"/>
<path d="M310.13 136.063C307.226 134.908 304.754 132.619 304.664 131C304.521 128.457 305.221 127.279 307.241 126.664C308.651 126.234 309.733 126.634 311.783 128.344C315.003 131.03 315.364 131.958 314.11 134.312C313.024 136.351 311.993 136.804 310.13 136.063Z" fill="#362B26"/>
<path d="M676.923 848.789C677.222 847.162 677.981 846.253 679.797 845.35C681.155 844.674 682.585 843.745 682.974 843.283C683.997 842.07 683.197 837.087 681.925 836.751C681.209 836.563 680.988 836.04 681.18 834.993C681.331 834.173 681.311 832.291 681.136 830.811C680.961 829.33 681.261 827.553 681.801 826.861C683.743 824.374 684.678 819.72 683.709 817.364C683.2 816.125 681.971 812.623 680.978 809.58C679.288 804.401 679.245 803.719 680.294 798.891L681.414 793.734L679.358 791.395C678.227 790.108 676.463 788.669 675.436 788.197C673.616 787.359 672.482 785.654 673.533 785.334C673.821 785.246 676.426 786.465 679.321 788.043C684.1 790.649 688.537 791.911 692.541 791.805C696.613 791.697 696.761 784.765 692.76 781.59C690.147 779.517 680.208 773.69 677.844 772.846C676.966 772.532 674.14 772.662 671.563 773.135C668.986 773.607 665.042 774.021 662.799 774.053C659.904 774.095 655.789 775.005 648.623 777.189C639.206 780.059 638.432 780.192 637.107 779.155C636.326 778.544 633.802 777.699 631.498 777.277C628.095 776.654 627.189 776.17 626.669 774.697C626.316 773.7 624.858 772.228 623.427 771.427C621.196 770.176 620.969 769.858 621.831 769.186C623.173 768.139 622.636 766.687 620.218 764.826C619.121 763.981 617.206 762.111 615.962 760.671C613.982 758.379 613.356 758.1 610.939 758.434C608.175 758.816 599.827 757.553 597.545 756.408C596.879 756.074 595.891 754.638 595.351 753.218C594.811 751.798 593.864 749.822 593.247 748.826L592.126 747.014L586.701 749.065C581.673 750.965 580.94 751.057 576.699 750.322L572.122 749.528L569.838 752.176C567.76 754.585 567.681 754.891 568.963 755.574C570.245 756.258 570.041 756.721 566.691 760.72C564.666 763.138 562.257 766.65 561.337 768.525C559.465 772.338 559.145 772.474 548.813 773.85C545.842 774.246 541.209 775.174 538.517 775.913C533.877 777.187 528.782 776.968 528.326 775.475C528.236 775.18 527.371 775.179 526.403 775.474C525.332 775.801 523.369 775.375 521.388 774.386C518.156 772.774 518.086 772.776 511.837 774.674C507.305 776.051 505.185 776.396 504.265 775.906C503.563 775.532 501.72 775.375 500.171 775.557C496.19 776.026 495.639 775.642 493.654 771.009C492.033 767.227 491.678 766.849 489.369 766.451C486.949 766.034 486.806 765.859 485.691 761.952C484.434 757.545 479.644 738.916 478.026 732.142C477.475 729.837 475.727 722.988 474.141 716.921C470.519 703.073 469.991 705.582 481.154 683.603C483.507 678.97 486.732 672.291 488.32 668.761C489.909 665.23 491.423 661.902 491.686 661.365C491.949 660.828 494.537 654.944 497.436 648.29C500.336 641.636 503.732 634.013 504.983 631.35C511.111 618.309 513.83 612.405 514.607 610.458L515.458 608.326L518.136 608.924C521.42 609.658 527.362 612.57 527.676 613.599C527.803 614.014 529.221 615.028 530.827 615.852C532.984 616.959 534.879 617.23 538.075 616.891C541.06 616.575 543.229 616.839 545.064 617.744C547.587 618.987 549.523 619.118 552.741 618.264C553.522 618.056 556.299 618.869 558.912 620.071L563.662 622.256L576.64 618.77C587.945 615.732 590.04 615.358 592.893 615.865L596.168 616.447L597.515 622.532C598.256 625.878 598.678 628.964 598.454 629.389C598.226 629.82 598.904 630.928 599.988 631.895C601.056 632.848 602.547 634.968 603.301 636.606C605.721 641.863 606.01 642.394 607.046 643.479C607.606 644.066 608.399 645.995 608.809 647.765C609.411 650.364 610.135 651.482 612.573 653.576C616.492 656.942 627.775 664.392 628.582 664.146C630.15 663.668 636.253 667.994 638.585 671.237L641.094 674.725L649.378 671.502L650.881 674.875C653.258 680.208 654.302 682.615 655.936 686.533C656.775 688.544 657.83 690.921 658.281 691.814C658.731 692.707 659.851 695.232 660.769 697.425C661.687 699.618 662.786 702.149 663.212 703.05C664.23 705.203 666.542 710.474 668.287 714.617C669.057 716.444 670.15 718.977 670.717 720.246C674.263 728.189 676.645 733.605 678.093 737.022C679.003 739.17 681.306 742.717 683.21 744.904C686.131 748.259 687.43 749.131 691.511 750.476C696.894 752.25 703.752 752.559 710.17 751.316C713.105 750.748 715.575 750.819 718.173 751.546C720.24 752.124 722.523 752.423 723.247 752.212C723.981 751.997 725.75 752.747 727.247 753.908L729.932 755.989L735.753 753.858C740.794 752.013 742.056 751.232 745.175 748.031C748.786 744.324 751.919 742.176 752.318 743.133C752.742 744.15 753.664 745.769 754.56 747.07C755.28 748.114 755.061 749.041 753.537 751.409C750.361 756.343 747.955 761.195 744.797 769.035C743.154 773.111 741.51 776.564 741.142 776.708C740.013 777.151 738.059 780.571 738.641 781.084C739.832 782.131 734.972 785.891 730.459 787.415C722.349 790.153 712.038 798.597 710.792 803.52C709.557 808.399 709.881 809.391 712.806 809.684C714.259 809.83 715.999 809.609 716.673 809.194C717.601 808.623 718.352 808.935 719.762 810.476C721.949 812.866 721.612 813.394 717.007 814.798C714.231 815.644 707.603 820.754 706.211 823.121C705.56 824.23 705.721 824.472 707.561 825.15L709.65 825.919L707.912 826.965C706.955 827.541 704.704 828.084 702.908 828.173C695.906 828.517 694.587 829.708 689.077 840.655C686.057 846.655 685.25 847.717 683.196 848.399C681.886 848.834 679.848 849.597 678.666 850.095L676.518 851L676.923 848.789Z" fill="#362B26"/>
<path d="M880.574 653.532C880.315 653.394 877.502 653.954 874.323 654.775C871.143 655.597 866.693 656.288 864.433 656.31C859.428 656.361 858.416 656.42 857.071 656.742C854.224 657.422 853.624 656.504 854.216 652.37C854.528 650.186 855.188 648.277 855.683 648.126C856.177 647.975 858.387 648.765 860.594 649.881C863.821 651.513 864.701 651.685 865.088 650.759C865.372 650.082 866.964 649.184 868.96 648.576C870.824 648.007 872.785 647.108 873.317 646.578C875.155 644.746 880.809 641.309 881.29 641.731C881.555 641.964 881.593 643.122 881.375 644.304C881.156 645.487 881.324 647.844 881.748 649.543C882.434 652.299 881.868 654.221 880.574 653.532Z" fill="#362B26"/>
<path d="M757.62 746.395C756.686 745.54 755.473 743.802 754.924 742.533C753.981 740.353 753.766 740.262 751.036 740.878C748.146 741.531 744.902 744.067 741.711 748.168C740.624 749.565 739.057 750.378 735.163 751.565C730.083 753.113 730.026 753.11 727.682 751.227C726.384 750.183 724.738 749.504 724.024 749.719C723.311 749.933 720.872 749.624 718.605 749.031C715.728 748.278 713.303 748.205 710.58 748.789C704.643 750.06 697.559 749.898 692.78 748.382C689.256 747.263 687.843 746.295 684.984 743.043C682.874 740.642 680.781 737.361 679.694 734.748C678.704 732.371 677.488 729.537 676.992 728.452C676.495 727.367 674.856 723.652 673.348 720.196C671.84 716.739 670.147 712.872 669.586 711.6C669.025 710.328 667.975 707.951 667.253 706.316C666.531 704.681 662.572 695.602 658.455 686.141C654.338 676.679 650.556 668.182 650.05 667.259C649.243 665.785 649.377 665.447 651.146 664.496C653.01 663.494 653.078 663.264 652.058 661.448C651.194 659.912 651.176 658.737 651.974 656.049C652.535 654.159 652.754 651.837 652.461 650.887C652.168 649.938 649.877 646.921 647.369 644.182C644.86 641.443 642.101 638.069 641.236 636.683C640.371 635.298 638.908 633.576 637.985 632.857C636.847 631.969 636.039 630.466 635.473 628.181C634.569 624.534 631.564 621.185 628.683 620.615C627.767 620.433 626.927 619.573 626.576 618.456C626.256 617.435 625.155 616.012 624.13 615.294C623.105 614.575 622.165 613.681 622.042 613.305C621.707 612.29 624.152 608.299 627.293 604.73C628.818 602.999 630.686 600.109 631.444 598.308C632.202 596.507 633.74 593.107 634.86 590.752C636.224 587.885 637.108 584.188 637.536 579.559C638.116 573.291 637.999 572.11 636.28 566.889C634.89 562.665 633.424 559.787 630.78 556.086C628.798 553.312 626.741 550.278 626.208 549.345C624.523 546.393 616.393 541.675 611.25 540.665C605.098 539.458 599.777 536.629 598.761 534.026C598.335 532.933 598.139 530.682 598.327 529.023C598.515 527.365 598.611 525.52 598.541 524.923C598.471 524.327 598.89 523.133 599.473 522.271C600.273 521.086 600.288 519.903 599.534 517.429C598.83 515.12 598.803 513.612 599.443 512.313C600.285 510.607 600.217 510.286 598.509 507.933C597.496 506.537 596.297 504.675 595.844 503.795C594.826 501.817 591.937 498.81 589.044 496.717C587.07 495.289 586.627 494.381 584.478 487.357C582.761 481.746 581.737 479.344 580.804 478.735C580.092 478.27 577.989 476.043 576.129 473.784L572.749 469.678L573.416 465.541C574.052 461.6 574.23 461.338 577.186 459.974C582.12 457.699 586.54 456.555 589.839 456.698C594.182 456.886 599.802 455.707 601.749 454.198C602.663 453.489 604.269 451.319 605.317 449.374C606.365 447.429 607.55 445.746 607.949 445.634C609.161 445.293 624.535 448.231 629.828 449.815C633.859 451.021 634.865 451.629 635.188 453.052C635.406 454.016 636.345 455.433 637.274 456.201C638.791 457.455 639.712 457.465 646.262 456.305C650.276 455.594 655.204 455.041 657.214 455.075L660.868 455.138L661.543 459.028C662.201 462.823 663.431 465.033 669.322 472.999C670.068 474.008 670.906 475.69 671.184 476.737C671.498 477.914 672.551 479.099 673.949 479.843C675.191 480.505 677.24 482.242 678.503 483.704L680.799 486.363L684.051 484.922C687.183 483.534 687.472 483.555 691.878 485.476C694.394 486.573 697.361 487.425 698.47 487.37C699.579 487.314 700.571 487.544 700.673 487.88C701.063 489.157 702.28 487.95 704.337 484.247C705.925 481.39 706.367 479.656 706.073 477.446C705.794 475.357 706.069 474.133 707.002 473.309C707.82 472.587 708.337 470.886 708.356 468.865C708.389 465.155 706.102 458.066 704.317 456.346C703.664 455.717 703.126 454.872 703.122 454.47C703.118 454.068 702.913 451.954 702.665 449.773C702.257 446.185 703.132 443.24 704.5 443.601C704.79 443.677 705.594 444.836 706.286 446.175C707.841 449.187 712.387 453.504 713.61 453.131C714.445 452.877 718.487 459.138 718.664 460.958C718.857 462.943 719.498 463.035 723.197 461.608L727.052 460.122L728.276 464.509C728.949 466.922 729.489 470.039 729.476 471.435C729.461 473.077 729.815 474.334 730.48 474.996C731.728 476.24 736.093 477.452 738.824 477.312C741.301 477.184 741.682 477.734 744.595 485.638C745.884 489.137 747.84 493.424 748.942 495.166C750.043 496.907 751.464 499.377 752.098 500.655C752.877 502.225 754.092 503.278 755.839 503.897C758.357 504.79 763.527 509.775 764.211 511.97C764.398 512.57 765.284 513.406 766.179 513.828C767.075 514.249 768.706 515.619 769.804 516.872C771.736 519.077 771.786 519.271 771.355 522.836L770.909 526.521L767.193 527.245C765.149 527.643 762.47 528.053 761.24 528.156C759.256 528.322 758.898 528.678 758.079 531.307C757.067 534.559 756.004 535.249 753.687 534.159C752.849 533.764 750.162 533.628 747.716 533.855C742.854 534.306 742.471 534.634 742.687 538.156C742.759 539.317 742.181 540.761 741.353 541.493C740.224 542.49 740.052 543.301 740.594 545.078C741.092 546.71 740.876 548.203 739.846 550.244C738.578 552.757 738.55 553.444 739.623 555.771C740.297 557.233 741.517 559.113 742.336 559.95C744.825 562.494 750.151 565.342 753.386 565.859C756.801 566.404 757.794 567.898 757.633 572.242C757.546 574.607 757.71 574.855 760.046 575.883C762.574 576.995 764.999 576.436 768.578 573.916C769.76 573.084 770.024 573.314 771.432 576.402C772.503 578.751 773.681 580.177 775.234 581.005C777.287 582.099 777.803 582.061 781.124 580.578C784.115 579.241 785.07 579.096 786.484 579.762C787.431 580.207 788.76 580.507 789.438 580.429C792.804 580.041 799.87 578.081 800.504 577.361C800.899 576.911 800.943 575.142 800.602 573.429C799.807 569.441 798.909 564.705 798.899 564.447C798.895 564.337 800.365 564.509 802.166 564.829C804.58 565.258 806.152 565.085 808.148 564.172C811.001 562.866 820.845 555.783 830.956 547.762C846.469 535.456 856.103 528.164 859.83 525.907C862.066 524.553 864.21 522.967 864.595 522.383C865.006 521.758 865.592 521.51 866.018 521.78C868.191 523.159 872.849 526.647 872.947 526.97C873.01 527.176 871.582 529.405 869.774 531.921C864.95 538.634 862.502 544.037 862.942 547.004C863.146 548.384 862.776 552.713 862.119 556.622C861.462 560.532 860.882 564.587 860.829 565.634C860.709 567.999 851.437 577.337 845.01 581.564C842.607 583.145 837.266 586.638 833.14 589.328C808.967 605.088 797.628 613.814 796.213 617.747C795.796 618.905 795.636 621.44 795.857 623.379C796.078 625.318 796.253 629.183 796.246 631.967C796.234 636.364 796.018 637.095 794.6 637.527C791.34 638.521 786.952 648.218 786.536 655.347C786.414 657.445 785.805 661.012 785.183 663.274C784.56 665.536 784.233 668.502 784.455 669.866C785.429 675.848 780.103 696.084 775.965 702.131C770.152 710.622 763.009 725.095 764.297 725.771C764.493 725.874 766.39 722.258 768.514 717.735C770.638 713.213 773.939 707.367 775.85 704.746C779.133 700.241 782.293 693.891 784.015 688.34C785.552 683.385 787.527 671.961 787.093 670.537C786.848 669.735 786.795 668.297 786.976 667.342C787.497 664.58 791.435 654.876 793.332 651.681C794.285 650.075 796.167 646.879 797.515 644.577C798.864 642.276 801.481 638.695 803.331 636.62C805.182 634.544 808.522 630.541 810.754 627.724C813.581 624.156 816.07 621.853 818.958 620.132C822.849 617.814 823.372 617.664 827.502 617.681C831.105 617.696 832.25 618.053 833.832 619.654C838.137 624.01 838.784 627.669 836.308 633.638C833.905 639.432 832.774 640.767 828.881 642.405C821.261 645.611 815.275 649.446 813.741 652.104C811.753 655.551 809.704 657.031 804.344 658.894C797.933 661.122 797.689 661.7 800.323 668.404L802.475 673.884L799.961 675.112C798.578 675.787 796.579 676.441 795.518 676.566C794.089 676.733 793.428 677.279 792.967 678.673C792.204 680.981 792.181 691.376 792.929 695.74C793.231 697.502 793.791 701.041 794.174 703.603C794.556 706.166 795.141 709.633 795.473 711.308C796.552 716.76 795.89 721.909 793.755 724.663C792.68 726.049 791.412 728.403 790.937 729.894C790.462 731.385 789.462 732.934 788.715 733.337C787.968 733.74 782.699 736.689 777.004 739.892C771.31 743.094 765.001 746.217 762.985 746.832C759.707 747.831 759.138 747.785 757.62 746.395Z" fill="#362B26"/>
<path d="M837.529 607.351C836.545 607.484 834.801 607.295 833.655 606.933C832.508 606.57 829.695 606.429 827.403 606.619C822.179 607.053 820.689 605.579 822.944 602.207C824.116 600.452 825.31 599.71 828.838 598.541C838.139 595.459 841.636 594.838 848.564 595.035C855.466 595.231 855.565 595.262 856.235 597.461C857.034 600.079 856.813 600.264 849.377 603.231C841.282 606.461 839.48 607.088 837.529 607.351Z" fill="#362B26"/>
<path d="M411.149 787.101C410.947 787.003 408.25 787.467 405.156 788.131C402.062 788.796 398.724 789.461 397.739 789.61C396.754 789.758 393.882 790.294 391.358 790.801C388.834 791.307 385.964 791.848 384.981 792.003C383.997 792.157 381.125 792.69 378.598 793.188C376.071 793.685 365.927 794.698 356.055 795.439C346.184 796.181 337.615 796.829 337.012 796.88C333.693 797.164 331.808 797.303 327.486 797.585C324.859 797.757 322.061 797.978 321.266 798.076C320.472 798.175 317.253 798.437 314.113 798.659C309.475 798.987 308.406 798.832 308.411 797.83C308.418 796.679 307.055 772.884 306.845 770.474C306.792 769.872 306.495 765.073 306.184 759.81C305.873 754.547 305.309 745.276 304.932 739.209C304.554 733.142 303.852 721.385 303.372 713.082C302.892 704.779 302.434 697.335 302.356 696.538C302.277 695.742 301.966 690.947 301.664 685.883C301.363 680.819 300.73 670.386 300.259 662.699C299.787 655.012 299.126 644.086 298.789 638.418C298.452 632.751 297.876 623.089 297.509 616.948L296.841 605.782L300.479 604.995C302.479 604.561 305.7 603.975 307.637 603.691C309.573 603.407 313.466 602.161 316.289 600.921C321.132 598.793 321.687 598.7 326.159 599.267C330.575 599.826 332.264 599.45 331.824 598.006C331.589 597.235 314.859 594.581 310.957 594.695C309.323 594.743 307.292 594.992 306.443 595.249C305.594 595.505 304.094 595.286 303.11 594.762C301.137 593.711 299.079 594.079 297.378 595.786C296.069 597.1 295.97 596.886 295.541 591.832C295.293 588.916 295.491 588.11 296.46 588.09C297.564 588.068 302.713 587.588 307.558 587.056C308.526 586.949 309.975 586.803 310.777 586.731C313.211 586.513 343.341 583.381 345.277 583.145C346.27 583.024 351.01 582.533 355.809 582.054C360.608 581.574 365.805 580.924 367.357 580.608C370.076 580.056 370.203 580.123 370.794 582.423C371.131 583.736 372.355 590.76 373.513 598.032C374.671 605.304 375.894 612.856 376.231 614.814C376.831 618.306 376.54 620.34 375.391 620.69C374.339 621.01 371.623 626.816 371.388 629.247C371.216 631.015 371.521 632.167 372.563 633.685C375.563 638.057 376.017 640.507 374.41 643.642C373.367 645.674 373.184 646.795 373.805 647.341C374.53 647.978 374.999 647.659 376.31 645.637C377.198 644.268 378.381 643.009 378.939 642.839C379.968 642.525 380.614 644.69 383.654 658.637C384.117 660.763 385.166 665.333 385.986 668.792C386.805 672.252 387.77 676.51 388.129 678.255C388.489 680.001 389.54 684.57 390.466 688.409C391.392 692.248 392.358 696.506 392.612 697.871C392.867 699.236 393.916 703.806 394.944 708.026C395.972 712.247 396.94 716.504 397.096 717.487C397.251 718.47 398.295 723.042 399.416 727.646C400.536 732.25 401.511 736.505 401.582 737.102C401.653 737.698 402.663 742.112 403.827 746.909C404.99 751.706 405.999 756.12 406.068 756.717C406.137 757.314 407.146 761.728 408.309 766.525C409.473 771.322 410.489 775.828 410.567 776.537C410.645 777.246 411.253 779.843 411.918 782.307C412.998 786.308 412.746 787.878 411.149 787.101Z" fill="#362B26"/>
<path d="M154.233 582.21C153.354 581.951 150.005 581.405 146.789 580.997C141.88 580.374 124.628 577.182 96.2241 571.642C87.1949 569.88 53.3352 560.865 28.0651 553.493C19.116 550.883 14.9923 549.325 14.7268 548.454C14.1977 546.719 15.3006 542.749 16.9828 540.333C20.0056 535.993 17.0941 534.674 9.20282 536.809C7.63931 537.232 6.8139 537.038 6.24598 536.116C5.81267 535.412 5.22152 534.984 4.93231 535.166C3.75568 535.905 1.02385 535.309 0.216557 534.137C-0.425855 533.205 0.3101 529.797 3.10997 520.742C8.30267 503.947 17.87 472.792 25.2442 448.665C31.1176 429.449 38.7212 404.664 49.0003 371.228L53.6202 356.2L56.0316 356.287C61.0017 356.467 62.7739 357.613 64.6207 361.845C65.5582 363.993 67.4792 366.954 68.8896 368.425C70.3 369.895 72.0174 372.226 72.7061 373.605C73.6261 375.446 74.894 376.52 77.4845 377.653C80.7012 379.059 80.9529 379.327 80.3538 380.715C79.4316 382.85 75.9399 396.263 75.319 400.056C75.0349 401.791 74.7721 405.075 74.735 407.353C74.698 409.631 74.4023 413.093 74.078 415.047C72.9261 421.986 72.616 421.579 81.5224 424.817C87.6562 427.047 89.6861 428.122 90.0572 429.34C90.325 430.218 90.0847 433.386 89.5233 436.38C88.8569 439.933 88.7778 443.171 89.2954 445.707C90.0724 449.513 90.1504 449.615 93.1672 450.735C96.4613 451.959 96.1809 451.426 97.8447 459.637C97.8975 459.897 97.0982 460.583 96.0686 461.162C94.0442 462.3 92.7932 465.346 93.4566 467.521C93.684 468.267 93.5685 470.126 93.1997 471.652C92.4768 474.644 93.5001 476.813 96.1604 477.928C97.1402 478.339 97.6554 479.285 98.0065 481.319C98.3803 483.484 99.0017 484.532 100.676 485.821C102.239 487.024 103.216 488.576 104.12 491.287C104.817 493.379 106.236 495.949 107.289 497.029C109.124 498.909 109.2 499.186 109.282 504.28C109.39 511.053 110.001 516.181 111.503 522.904C112.163 525.857 112.66 529.354 112.607 530.674C112.523 532.808 112.765 533.221 114.787 534.391C117.825 536.149 118.876 537.308 121.823 542.142C123.195 544.393 125.668 547.574 127.319 549.211C129.511 551.384 130.113 552.349 129.551 552.787C129.128 553.117 129.079 554.922 129.442 556.797C129.806 558.673 130.144 561.139 130.194 562.277C130.302 564.744 131.437 565.328 137.774 566.174C140.137 566.49 143.506 567.206 145.262 567.765C147.017 568.324 149.277 568.547 150.283 568.26L152.113 567.738L154.105 574.958C155.201 578.929 156.038 582.291 155.964 582.43C155.89 582.568 155.111 582.469 154.233 582.21Z" fill="#362B26"/>
</g>
</svg>
