<svg id="eada75zyjctg1" xmlns="http://www.w3.org/2000/svg" xmlns:xlink="http://www.w3.org/1999/xlink" viewBox="0 0 609.800000 223.700000" shape-rendering="geometricPrecision" text-rendering="geometricPrecision"><style><![CDATA[#eada75zyjctg24_ts {animation-play-state: paused; animation: eada75zyjctg24_ts__ts 3000ms linear 1 normal forwards}@keyframes eada75zyjctg24_ts__ts { 0% {transform: translate(69.649128px,9.650020px) scale(1,1)} 16.666667% {transform: translate(69.649128px,9.650020px) scale(0.600000,0.600000)} 100% {transform: translate(69.649128px,9.650020px) scale(1,1)} }#eada75zyjctg25_ts {animation-play-state: paused; animation: eada75zyjctg25_ts__ts 3000ms linear 1 normal forwards}@keyframes eada75zyjctg25_ts__ts { 0% {transform: translate(99.449123px,9.650020px) scale(1,1)} 16.666667% {transform: translate(99.449123px,9.650020px) scale(0.600000,0.600000)} 100% {transform: translate(99.449123px,9.650020px) scale(1,1)} }#eada75zyjctg26_ts {animation-play-state: paused; animation: eada75zyjctg26_ts__ts 3000ms linear 1 normal forwards}@keyframes eada75zyjctg26_ts__ts { 0% {transform: translate(129.249119px,9.650020px) scale(1,1)} 16.666667% {transform: translate(129.249119px,9.650020px) scale(0.600000,0.600000)} 100% {transform: translate(129.249119px,9.650020px) scale(1,1)} }#eada75zyjctg27_ts {animation-play-state: paused; animation: eada75zyjctg27_ts__ts 3000ms linear 1 normal forwards}@keyframes eada75zyjctg27_ts__ts { 0% {transform: translate(159.049126px,9.650020px) scale(1,1)} 16.666667% {transform: translate(159.049126px,9.650020px) scale(0.600000,0.600000)} 100% {transform: translate(159.049126px,9.650020px) scale(1,1)} }#eada75zyjctg32_ts {animation-play-state: paused; animation: eada75zyjctg32_ts__ts 3000ms linear 1 normal forwards}@keyframes eada75zyjctg32_ts__ts { 0% {transform: translate(69.649128px,214.150017px) scale(1,1)} 46.666667% {transform: translate(69.649128px,214.150017px) scale(0.600000,0.600000)} 100% {transform: translate(69.649128px,214.150017px) scale(1,1)} }#eada75zyjctg33_ts {animation-play-state: paused; animation: eada75zyjctg33_ts__ts 3000ms linear 1 normal forwards}@keyframes eada75zyjctg33_ts__ts { 0% {transform: translate(99.449123px,214.150017px) scale(1,1)} 60% {transform: translate(99.449123px,214.150017px) scale(0.600000,0.600000)} 100% {transform: translate(99.449123px,214.150017px) scale(1,1)} }#eada75zyjctg34_ts {animation-play-state: paused; animation: eada75zyjctg34_ts__ts 3000ms linear 1 normal forwards}@keyframes eada75zyjctg34_ts__ts { 0% {transform: translate(129.249119px,214.150017px) scale(1,1)} 70% {transform: translate(129.249119px,214.150017px) scale(0.600000,0.600000)} 100% {transform: translate(129.249119px,214.150017px) scale(1,1)} }#eada75zyjctg35_ts {animation-play-state: paused; animation: eada75zyjctg35_ts__ts 3000ms linear 1 normal forwards}@keyframes eada75zyjctg35_ts__ts { 0% {transform: translate(159.049126px,214.150017px) scale(1,1)} 76.666667% {transform: translate(159.049126px,214.150017px) scale(0.600000,0.600000)} 100% {transform: translate(159.049126px,214.150017px) scale(1,1)} }#eada75zyjctg39_ts {animation-play-state: paused; animation: eada75zyjctg39_ts__ts 3000ms linear 1 normal forwards}@keyframes eada75zyjctg39_ts__ts { 0% {transform: translate(39.849126px,184.950020px) scale(1,1)} 40% {transform: translate(39.849126px,184.950020px) scale(0.600000,0.600000)} 100% {transform: translate(39.849126px,184.950020px) scale(1,1)} }#eada75zyjctg40_ts {animation-play-state: paused; animation: eada75zyjctg40_ts__ts 3000ms linear 1 normal forwards}@keyframes eada75zyjctg40_ts__ts { 0% {transform: translate(69.649128px,184.950020px) scale(1,1)} 16.666667% {transform: translate(69.649128px,184.950020px) scale(0.600000,0.600000)} 100% {transform: translate(69.649128px,184.950020px) scale(1,1)} }#eada75zyjctg41_ts {animation-play-state: paused; animation: eada75zyjctg41_ts__ts 3000ms linear 1 normal forwards}@keyframes eada75zyjctg41_ts__ts { 0% {transform: translate(99.449123px,184.950020px) scale(1,1)} 53.333333% {transform: translate(99.449123px,184.950020px) scale(0.600000,0.600000)} 100% {transform: translate(99.449123px,184.950020px) scale(1,1)} }#eada75zyjctg42_ts {animation-play-state: paused; animation: eada75zyjctg42_ts__ts 3000ms linear 1 normal forwards}@keyframes eada75zyjctg42_ts__ts { 0% {transform: translate(129.249119px,184.950020px) scale(1,1)} 73.333333% {transform: translate(129.249119px,184.950020px) scale(0.600000,0.600000)} 100% {transform: translate(129.249119px,184.950020px) scale(1,1)} }#eada75zyjctg43_ts {animation-play-state: paused; animation: eada75zyjctg43_ts__ts 3000ms linear 1 normal forwards}@keyframes eada75zyjctg43_ts__ts { 0% {transform: translate(159.049126px,184.950020px) scale(1,1)} 73.333333% {transform: translate(159.049126px,184.950020px) scale(0.600000,0.600000)} 100% {transform: translate(159.049126px,184.950020px) scale(1,1)} }#eada75zyjctg44_ts {animation-play-state: paused; animation: eada75zyjctg44_ts__ts 3000ms linear 1 normal forwards}@keyframes eada75zyjctg44_ts__ts { 0% {transform: translate(188.849129px,184.950020px) scale(1,1)} 70% {transform: translate(188.849129px,184.950020px) scale(0.600000,0.600000)} 100% {transform: translate(188.849129px,184.950020px) scale(1,1)} }#eada75zyjctg46_ts {animation-play-state: paused; animation: eada75zyjctg46_ts__ts 3000ms linear 1 normal forwards}@keyframes eada75zyjctg46_ts__ts { 0% {transform: translate(9.900000px,155.699989px) scale(1,1)} 23.333333% {transform: translate(9.900000px,155.699989px) scale(0.600000,0.600000)} 100% {transform: translate(9.900000px,155.699989px) scale(1,1)} }#eada75zyjctg47_ts {animation-play-state: paused; animation: eada75zyjctg47_ts__ts 3000ms linear 1 normal forwards}@keyframes eada75zyjctg47_ts__ts { 0% {transform: translate(39.849126px,155.750023px) scale(1,1)} 40% {transform: translate(39.849126px,155.750023px) scale(0.600000,0.600000)} 100% {transform: translate(39.849126px,155.750023px) scale(1,1)} }#eada75zyjctg48_ts {animation-play-state: paused; animation: eada75zyjctg48_ts__ts 3000ms linear 1 normal forwards}@keyframes eada75zyjctg48_ts__ts { 0% {transform: translate(69.649128px,155.750023px) scale(1,1)} 43.333333% {transform: translate(69.649128px,155.750023px) scale(0.600000,0.600000)} 100% {transform: translate(69.649128px,155.750023px) scale(1,1)} }#eada75zyjctg51_ts {animation-play-state: paused; animation: eada75zyjctg51_ts__ts 3000ms linear 1 normal forwards}@keyframes eada75zyjctg51_ts__ts { 0% {transform: translate(188.849129px,155.750023px) scale(1,1)} 76.666667% {transform: translate(188.849129px,155.750023px) scale(0.600000,0.600000)} 100% {transform: translate(188.849129px,155.750023px) scale(1,1)} }#eada75zyjctg52_ts {animation-play-state: paused; animation: eada75zyjctg52_ts__ts 3000ms linear 1 normal forwards}@keyframes eada75zyjctg52_ts__ts { 0% {transform: translate(218.649117px,155.750023px) scale(1,1)} 76.666667% {transform: translate(218.649117px,155.750023px) scale(0.600000,0.600000)} 100% {transform: translate(218.649117px,155.750023px) scale(1,1)} }#eada75zyjctg53_ts {animation-play-state: paused; animation: eada75zyjctg53_ts__ts 3000ms linear 1 normal forwards}@keyframes eada75zyjctg53_ts__ts { 0% {transform: translate(9.900000px,126.500004px) scale(1,1)} 16.666667% {transform: translate(9.900000px,126.500004px) scale(0.600000,0.600000)} 100% {transform: translate(9.900000px,126.500004px) scale(1,1)} }#eada75zyjctg54_ts {animation-play-state: paused; animation: eada75zyjctg54_ts__ts 3000ms linear 1 normal forwards}@keyframes eada75zyjctg54_ts__ts { 0% {transform: translate(39.849126px,126.450882px) scale(1,1)} 23.333333% {transform: translate(39.849126px,126.450882px) scale(0.600000,0.600000)} 100% {transform: translate(39.849126px,126.450882px) scale(1,1)} }#eada75zyjctg61_ts {animation-play-state: paused; animation: eada75zyjctg61_ts__ts 3000ms linear 1 normal forwards}@keyframes eada75zyjctg61_ts__ts { 0% {transform: translate(9.900000px,97.200001px) scale(1,1)} 16.666667% {transform: translate(9.900000px,97.200001px) scale(0.600000,0.600000)} 100% {transform: translate(9.900000px,97.200001px) scale(1,1)} }#eada75zyjctg62_ts {animation-play-state: paused; animation: eada75zyjctg62_ts__ts 3000ms linear 1 normal forwards}@keyframes eada75zyjctg62_ts__ts { 0% {transform: translate(39.849126px,97.250874px) scale(1,1)} 16.666667% {transform: translate(39.849126px,97.250874px) scale(0.600000,0.600000)} 100% {transform: translate(39.849126px,97.250874px) scale(1,1)} }#eada75zyjctg69_ts {animation-play-state: paused; animation: eada75zyjctg69_ts__ts 3000ms linear 1 normal forwards}@keyframes eada75zyjctg69_ts__ts { 0% {transform: translate(9.900000px,68.000004px) scale(1,1)} 16.666667% {transform: translate(9.900000px,68.000004px) scale(0.600000,0.600000)} 100% {transform: translate(9.900000px,68.000004px) scale(1,1)} }#eada75zyjctg70_ts {animation-play-state: paused; animation: eada75zyjctg70_ts__ts 3000ms linear 1 normal forwards}@keyframes eada75zyjctg70_ts__ts { 0% {transform: translate(39.849126px,68.050877px) scale(1,1)} 16.666667% {transform: translate(39.849126px,68.050877px) scale(0.600000,0.600000)} 100% {transform: translate(39.849126px,68.050877px) scale(1,1)} }#eada75zyjctg71_ts {animation-play-state: paused; animation: eada75zyjctg71_ts__ts 3000ms linear 1 normal forwards}@keyframes eada75zyjctg71_ts__ts { 0% {transform: translate(69.649128px,68.050877px) scale(1,1)} 16.666667% {transform: translate(69.649128px,68.050877px) scale(0.600000,0.600000)} 100% {transform: translate(69.649128px,68.050877px) scale(1,1)} }#eada75zyjctg74_ts {animation-play-state: paused; animation: eada75zyjctg74_ts__ts 3000ms linear 1 normal forwards}@keyframes eada75zyjctg74_ts__ts { 0% {transform: translate(188.849129px,68.050877px) scale(1,1)} 16.666667% {transform: translate(188.849129px,68.050877px) scale(0.600000,0.600000)} 100% {transform: translate(188.849129px,68.050877px) scale(1,1)} }#eada75zyjctg75_ts {animation-play-state: paused; animation: eada75zyjctg75_ts__ts 3000ms linear 1 normal forwards}@keyframes eada75zyjctg75_ts__ts { 0% {transform: translate(218.200867px,67.999977px) scale(1,1)} 16.666667% {transform: translate(218.200867px,67.999977px) scale(0.600000,0.600000)} 100% {transform: translate(218.200867px,67.999977px) scale(1,1)} }#eada75zyjctg77_ts {animation-play-state: paused; animation: eada75zyjctg77_ts__ts 3000ms linear 1 normal forwards}@keyframes eada75zyjctg77_ts__ts { 0% {transform: translate(39.849126px,38.850018px) scale(1,1)} 16.666667% {transform: translate(39.849126px,38.850018px) scale(0.600000,0.600000)} 100% {transform: translate(39.849126px,38.850018px) scale(1,1)} }#eada75zyjctg78_ts {animation-play-state: paused; animation: eada75zyjctg78_ts__ts 3000ms linear 1 normal forwards}@keyframes eada75zyjctg78_ts__ts { 0% {transform: translate(69.649128px,38.850018px) scale(1,1)} 16.666667% {transform: translate(69.649128px,38.850018px) scale(0.600000,0.600000)} 100% {transform: translate(69.649128px,38.850018px) scale(1,1)} }#eada75zyjctg79_ts {animation-play-state: paused; animation: eada75zyjctg79_ts__ts 3000ms linear 1 normal forwards}@keyframes eada75zyjctg79_ts__ts { 0% {transform: translate(99.449123px,38.850018px) scale(1,1)} 16.666667% {transform: translate(99.449123px,38.850018px) scale(0.600000,0.600000)} 100% {transform: translate(99.449123px,38.850018px) scale(1,1)} }#eada75zyjctg80_ts {animation-play-state: paused; animation: eada75zyjctg80_ts__ts 3000ms linear 1 normal forwards}@keyframes eada75zyjctg80_ts__ts { 0% {transform: translate(129.249119px,38.850018px) scale(1,1)} 16.666667% {transform: translate(129.249119px,38.850018px) scale(0.600000,0.600000)} 100% {transform: translate(129.249119px,38.850018px) scale(1,1)} }#eada75zyjctg81_ts {animation-play-state: paused; animation: eada75zyjctg81_ts__ts 3000ms linear 1 normal forwards}@keyframes eada75zyjctg81_ts__ts { 0% {transform: translate(159.049126px,38.850018px) scale(1,1)} 16.666667% {transform: translate(159.049126px,38.850018px) scale(0.600000,0.600000)} 100% {transform: translate(159.049126px,38.850018px) scale(1,1)} }#eada75zyjctg82_ts {animation-play-state: paused; animation: eada75zyjctg82_ts__ts 3000ms linear 1 normal forwards}@keyframes eada75zyjctg82_ts__ts { 0% {transform: translate(188.849129px,38.850018px) scale(1,1)} 16.666667% {transform: translate(188.849129px,38.850018px) scale(0.600000,0.600000)} 100% {transform: translate(188.849129px,38.850018px) scale(1,1)} }#eada75zyjctg84_ts {animation-play-state: paused; animation: eada75zyjctg84_ts__ts 3000ms linear 1 normal forwards}@keyframes eada75zyjctg84_ts__ts { 0% {transform: translate(159.049126px,68.050877px) scale(1,1)} 16.666667% {transform: translate(159.049126px,68.050877px) scale(0.600000,0.600000)} 100% {transform: translate(159.049126px,68.050877px) scale(1,1)} }#eada75zyjctg85_ts {animation-play-state: paused; animation: eada75zyjctg85_ts__ts 3000ms linear 1 normal forwards}@keyframes eada75zyjctg85_ts__ts { 0% {transform: translate(159.049126px,155.750023px) scale(1,1)} 76.666667% {transform: translate(159.049126px,155.750023px) scale(0.600000,0.600000)} 100% {transform: translate(159.049126px,155.750023px) scale(1,1)} }]]></style><g id="eada75zyjctg2"><path id="eada75zyjctg3" d="M280.700000,52.600000C280.700000,38,290.500000,28,306.300000,28C319.300000,28,327.400000,34.600000,329.500000,44.900000L320.100000,46.300000C318.800000,39.400000,313.900000,35.300000,306.100000,35.300000C296.200000,35.300000,290.200000,42.100000,290.200000,52.600000C290.200000,62.800000,296.200000,69.900000,306.300000,69.900000C313.700000,69.900000,318.700000,66,320.400000,59.300000L329.500000,61.100000C326.700000,70.900000,318.900000,77.200000,306,77.200000C289.700000,77.200000,280.700000,67.100000,280.700000,52.600000Z" fill="rgb(255,255,255)" stroke="none" stroke-width="1"/><path id="eada75zyjctg4" d="M334.700000,67.100000C334.600000,64.100000,336.100000,61.300000,338.700000,59.700000C341.100000,58.200000,344.300000,57.300000,350.500000,56.700000L362.300000,55.700000L362.300000,55C362.300000,50.200000,359.300000,48,353.800000,48C348.300000,48,345.100000,50.100000,344.600000,54L335.700000,54C336.500000,46.900000,343.400000,42.200000,353.700000,42.200000C365.300000,42.200000,370.700000,46.700000,370.700000,56.200000L370.700000,65.500000C370.600000,69,370.900000,72.600000,371.500000,76.100000L363,76.100000C362.700000,74.100000,362.500000,72.100000,362.500000,70.100000C360.300000,74.500000,355.100000,77.100000,347.900000,77.100000C339.900000,76.900000,334.700000,73.200000,334.700000,67.100000ZM362.400000,62.100000L362.400000,60.400000L351.300000,61.500000C345.600000,62.100000,343.500000,63.600000,343.500000,66.600000C343.500000,69.600000,346.200000,71.300000,350.800000,71.300000C357.600000,71.300000,362.400000,67.700000,362.400000,62.100000Z" fill="rgb(255,255,255)" stroke="none" stroke-width="1"/><path id="eada75zyjctg5" d="M381.200000,43.100000L389.400000,43.100000L389.400000,50.100000C392,44.800000,396.700000,42,403.300000,42C412.500000,42,417.400000,47.300000,417.400000,57.400000L417.400000,75.800000L409,75.800000L409,58.600000C409,52,406.100000,48.800000,400.100000,48.800000C393.700000,48.800000,389.700000,52.900000,389.700000,60L389.700000,76L381.200000,76L381.200000,43.100000Z" fill="rgb(255,255,255)" stroke="none" stroke-width="1"/><path id="eada75zyjctg6" d="M424.900000,67.100000C424.800000,64.100000,426.300000,61.300000,428.900000,59.700000C431.300000,58.200000,434.500000,57.300000,440.700000,56.700000L452.500000,55.700000L452.500000,55C452.500000,50.200000,449.500000,48,444,48C438.500000,48,435.300000,50.100000,434.800000,54L426,54C426.800000,46.900000,433.700000,42.200000,444,42.200000C455.600000,42.200000,461,46.700000,461,56.200000L461,65.500000C460.900000,69,461.200000,72.600000,461.800000,76.100000L453.300000,76.100000C453,74.100000,452.800000,72.100000,452.800000,70.100000C450.600000,74.500000,445.500000,77.100000,438.200000,77.100000C430.100000,76.900000,424.900000,73.200000,424.900000,67.100000ZM452.600000,62.100000L452.600000,60.400000L441.500000,61.500000C435.800000,62.100000,433.700000,63.600000,433.700000,66.600000C433.700000,69.600000,436.400000,71.300000,441,71.300000C447.900000,71.300000,452.600000,67.700000,452.600000,62.100000Z" fill="rgb(255,255,255)" stroke="none" stroke-width="1"/><path id="eada75zyjctg7" d="M468.100000,59.500000C468.100000,49.200000,475.100000,42.100000,485.200000,42.100000C491,42.100000,495.300000,44.100000,498.100000,48.100000L498.100000,28.400000L506.600000,28.400000L506.600000,76L498.500000,76L498.500000,69.800000C495.900000,74.300000,491.200000,76.900000,484.700000,76.900000C474.900000,76.900000,468.100000,69.900000,468.100000,59.500000ZM498.300000,60.400000L498.300000,58.800000C498.300000,52.400000,493.900000,48.400000,487.400000,48.400000C480.900000,48.400000,477,52.500000,477,59.500000C477,66.500000,481.100000,70.700000,487.600000,70.700000C494.100000,70.700000,498.300000,66.600000,498.300000,60.400000Z" fill="rgb(255,255,255)" stroke="none" stroke-width="1"/><path id="eada75zyjctg8" d="M515.400000,67.100000C515.300000,64.100000,516.800000,61.300000,519.400000,59.700000C521.800000,58.200000,525,57.300000,531.200000,56.700000L543,55.700000L543,55C543,50.200000,540,48,534.500000,48C529,48,525.800000,50.100000,525.300000,54L516.500000,54C517.300000,46.900000,524.200000,42.200000,534.500000,42.200000C546.100000,42.200000,551.500000,46.700000,551.500000,56.200000L551.500000,65.500000C551.400000,69,551.700000,72.600000,552.300000,76.100000L543.800000,76.100000C543.500000,74.100000,543.300000,72.100000,543.300000,70.100000C541.100000,74.500000,536,77.100000,528.700000,77.100000C520.500000,76.900000,515.400000,73.200000,515.400000,67.100000ZM543,62.100000L543,60.400000L532,61.500000C526.300000,62.100000,524.200000,63.600000,524.200000,66.600000C524.200000,69.600000,526.900000,71.300000,531.500000,71.300000C538.300000,71.300000,543,67.700000,543,62.100000Z" fill="rgb(255,255,255)" stroke="none" stroke-width="1"/><path id="eada75zyjctg9" d="M560.300000,44.900000C564,43.800000,565,42,565,39.100000L565,38.900000L559.900000,38.900000L559.900000,29.400000L569.900000,29.400000L569.900000,38.200000C569.900000,43.700000,567.900000,47.100000,562,48.800000L560.300000,44.900000Z" fill="rgb(255,255,255)" stroke="none" stroke-width="1"/><path id="eada75zyjctg10" d="M574.600000,67.500000L580.400000,64.300000C582.800000,68.600000,587.200000,71,594.200000,71C599.400000,71,602,69.600000,602,66.800000C602,64.300000,600.600000,63.200000,596.800000,62.900000L587.700000,62.100000C580.100000,61.300000,576.400000,57.900000,576.400000,52.400000C576.400000,45.900000,582.300000,42.200000,592.500000,42.200000C601,42.200000,607.200000,45.200000,609.800000,50.200000L604.400000,53.600000C602,50,598.200000,48,592,48C587,48,584.300000,49.400000,584.300000,52C584.300000,54.200000,585.900000,55.400000,589.600000,55.800000L599.100000,56.700000C606.800000,57.400000,609.900000,60.800000,609.900000,66.300000C609.900000,73,604.500000,77.100000,593.700000,77.100000C584.100000,76.900000,577.800000,73.600000,574.600000,67.500000Z" fill="rgb(255,255,255)" stroke="none" stroke-width="1"/><path id="eada75zyjctg11" d="M293.900000,98.700000L293.900000,111.300000L320.300000,111.300000L320.300000,118.300000L293.900000,118.300000L293.900000,138.300000L284.800000,138.300000L284.800000,91.700000L321.400000,91.700000L321.400000,98.700000L293.900000,98.700000Z" fill="rgb(255,255,255)" stroke="none" stroke-width="1"/><path id="eada75zyjctg12" d="M325.400000,121.900000C325.400000,111.100000,333.300000,104.500000,345,104.500000C356.700000,104.500000,364.600000,111.100000,364.600000,121.900000C364.600000,132.700000,356.600000,139.300000,345,139.300000C333.400000,139.300000,325.400000,132.600000,325.400000,121.900000ZM355.700000,121.900000C355.700000,114.700000,351.600000,110.700000,344.900000,110.700000C338.200000,110.700000,334.100000,114.600000,334.100000,121.900000C334.100000,129.100000,338.200000,133.100000,344.900000,133.100000C351.700000,133.100000,355.700000,129,355.700000,121.900000Z" fill="rgb(255,255,255)" stroke="none" stroke-width="1"/><path id="eada75zyjctg13" d="M392.400000,104.600000C393.200000,104.600000,394,104.700000,394.800000,104.800000L394.800000,112.600000C394,112.500000,393.100000,112.400000,392.200000,112.400000C388.400000,112.400000,385.900000,113.400000,384.100000,115.200000C381.500000,117.800000,380.900000,121.600000,380.900000,125.500000L380.900000,138.300000L372.400000,138.300000L372.400000,105.500000L380.100000,105.500000L380.100000,114.100000C381.900000,108.400000,386.300000,104.600000,392.400000,104.600000Z" fill="rgb(255,255,255)" stroke="none" stroke-width="1"/><path id="eada75zyjctg14" d="M435,124L405.700000,124C406,129.500000,410.300000,133.100000,417.100000,133.100000C422.100000,133.100000,425.800000,131.100000,427.900000,127.400000L434.500000,130.400000C431.200000,136.200000,425.100000,139.300000,416.800000,139.300000C404.800000,139.300000,397.400000,133.100000,397.400000,122.200000C397.400000,111,404.800000,104.500000,416.400000,104.500000C428,104.500000,435,110.500000,435,121L435,124ZM426.500000,118.300000C426.400000,112.900000,422.300000,109.800000,416.200000,109.800000C409.800000,109.800000,405.900000,113.200000,405.600000,118.600000L426.500000,118.600000L426.500000,118.300000Z" fill="rgb(255,255,255)" stroke="none" stroke-width="1"/><path id="eada75zyjctg15" d="M439.500000,129.900000L445.300000,126.700000C447.700000,131,452.100000,133.400000,459.100000,133.400000C464.300000,133.400000,466.800000,132,466.800000,129.200000C466.800000,126.700000,465.400000,125.700000,461.600000,125.300000L452.500000,124.500000C444.900000,123.700000,441.200000,120.300000,441.200000,114.800000C441.200000,108.300000,447.100000,104.600000,457.300000,104.600000C465.800000,104.600000,472,107.600000,474.600000,112.600000L469.200000,116C466.800000,112.400000,463,110.400000,456.800000,110.400000C451.800000,110.400000,449.100000,111.800000,449.100000,114.400000C449.100000,116.600000,450.700000,117.800000,454.400000,118.200000L463.900000,119.100000C471.700000,119.800000,474.700000,123.200000,474.700000,128.700000C474.700000,135.400000,469.300000,139.500000,458.500000,139.500000C449,139.300000,442.600000,136,439.500000,129.900000Z" fill="rgb(255,255,255)" stroke="none" stroke-width="1"/><path id="eada75zyjctg16" d="M477.700000,105.500000L485.300000,105.500000L485.300000,97.300000L493.800000,94L493.800000,105.500000L505,105.500000L505,111.500000L493.800000,111.500000L493.800000,125.900000C493.800000,130.100000,495.800000,132,500.100000,132C501.700000,132,503.400000,131.800000,505,131.400000L505,138.100000C502.700000,138.700000,500.400000,139,498,139C488.600000,139,485.300000,134.300000,485.300000,127.100000L485.300000,111.400000L477.700000,111.400000L477.700000,105.500000Z" fill="rgb(255,255,255)" stroke="none" stroke-width="1"/><path id="eada75zyjctg17" d="M321.900000,161.300000L305,161.300000L305,200.600000L296,200.600000L296,161.300000L279.100000,161.300000L279.100000,154.100000L321.900000,154.100000L321.900000,161.300000Z" fill="rgb(255,255,255)" stroke="none" stroke-width="1"/><path id="eada75zyjctg18" d="M344.100000,167C344.900000,167,345.700000,167.100000,346.500000,167.200000L346.500000,175C345.700000,174.900000,344.800000,174.800000,343.900000,174.800000C340.100000,174.800000,337.600000,175.800000,335.800000,177.600000C333.200000,180.200000,332.600000,184,332.600000,187.900000L332.600000,200.700000L324.200000,200.700000L324.200000,167.900000L332,167.900000L332,176.500000C333.600000,170.800000,338,167,344.100000,167Z" fill="rgb(255,255,255)" stroke="none" stroke-width="1"/><path id="eada75zyjctg19" d="M352.300000,187.300000L352.300000,167.800000L360.800000,167.800000L360.800000,185.800000C360.800000,192.500000,364.400000,195,369.100000,195C376.100000,195,379.500000,190,379.500000,184.200000L379.500000,167.800000L388,167.800000L388,200.600000L379.800000,200.600000L379.800000,193.600000C377.700000,198.600000,372.500000,201.500000,366.400000,201.500000C356.800000,201.600000,352.300000,196.400000,352.300000,187.300000Z" fill="rgb(255,255,255)" stroke="none" stroke-width="1"/><path id="eada75zyjctg20" d="M395.600000,192.200000L401.400000,189C403.800000,193.300000,408.200000,195.700000,415.200000,195.700000C420.400000,195.700000,423,194.300000,423,191.500000C423,189,421.600000,188,417.800000,187.600000L408.700000,186.800000C401.100000,186,397.400000,182.600000,397.400000,177.100000C397.400000,170.600000,403.300000,166.900000,413.500000,166.900000C422,166.900000,428.200000,169.900000,430.800000,174.900000L425.400000,178.300000C423,174.700000,419.200000,172.700000,413,172.700000C408,172.700000,405.300000,174.100000,405.300000,176.700000C405.300000,178.900000,406.900000,180.100000,410.600000,180.500000L420.100000,181.400000C427.800000,182.100000,430.900000,185.500000,430.900000,191C430.900000,197.700000,425.500000,201.800000,414.700000,201.800000C405.100000,201.600000,398.700000,198.300000,395.600000,192.200000Z" fill="rgb(255,255,255)" stroke="none" stroke-width="1"/><path id="eada75zyjctg21" d="M433.800000,167.800000L441.400000,167.800000L441.400000,159.600000L449.900000,156.300000L449.900000,167.800000L461.100000,167.800000L461.100000,173.800000L450,173.800000L450,188.200000C450,192.400000,452,194.300000,456.300000,194.300000C457.900000,194.300000,459.600000,194.100000,461.200000,193.700000L461.200000,200.500000C458.900000,201.100000,456.600000,201.400000,454.200000,201.400000C444.800000,201.400000,441.500000,196.700000,441.500000,189.500000L441.500000,173.800000L433.900000,173.800000L433.800000,167.800000Z" fill="rgb(255,255,255)" stroke="none" stroke-width="1"/><ellipse id="eada75zyjctg22" rx="5.700000" ry="5.600000" transform="matrix(1 0 0 1 9.90000000000000 9.60000000000000)" fill="rgb(255,255,255)" stroke="none" stroke-width="1"/><path id="eada75zyjctg23" d="M39.600000,15.200000C42.700000,15.100000,45.100000,12.600000,45,9.500000C45,6.400000,42.400000,4,39.400000,4.100000C36.400000,4.200000,34,6.600000,34,9.600000C34,12.700000,36.500000,15.200000,39.600000,15.200000Z" fill="rgb(255,255,255)" stroke="none" stroke-width="1"/><g id="eada75zyjctg24_ts" transform="translate(69.649128,9.650020) scale(1,1)"><path id="eada75zyjctg24" d="M69.400000,0C64.100000,0.100000,59.900000,4.600000,60,9.900000C60.100000,15.200000,64.600000,19.400000,69.900000,19.300000C75.100000,19.200000,79.300000,14.900000,79.300000,9.700000C79.200000,4.200000,74.800000,-0.100000,69.400000,0Z" transform="translate(-69.649128,-9.650020)" fill="rgb(255,255,255)" stroke="none" stroke-width="1"/></g><g id="eada75zyjctg25_ts" transform="translate(99.449123,9.650020) scale(1,1)"><path id="eada75zyjctg25" d="M99.200000,0C93.900000,0.100000,89.700000,4.600000,89.800000,9.900000C89.900000,15.200000,94.400000,19.400000,99.700000,19.300000C104.900000,19.200000,109.100000,14.900000,109.100000,9.700000C109,4.200000,104.600000,-0.100000,99.200000,0Z" transform="translate(-99.449123,-9.650020)" fill="rgb(255,255,255)" stroke="none" stroke-width="1"/></g><g id="eada75zyjctg26_ts" transform="translate(129.249119,9.650020) scale(1,1)"><path id="eada75zyjctg26" d="M129,0C123.700000,0.100000,119.500000,4.600000,119.600000,9.900000C119.700000,15.200000,124.200000,19.400000,129.500000,19.300000C134.700000,19.200000,138.900000,14.900000,138.900000,9.700000C138.800000,4.200000,134.400000,-0.100000,129,0Z" transform="translate(-129.249119,-9.650020)" fill="rgb(255,255,255)" stroke="none" stroke-width="1"/></g><g id="eada75zyjctg27_ts" transform="translate(159.049126,9.650020) scale(1,1)"><path id="eada75zyjctg27" d="M158.800000,0C153.500000,0.100000,149.300000,4.600000,149.400000,9.900000C149.500000,15.200000,154,19.400000,159.300000,19.300000C164.500000,19.200000,168.700000,14.900000,168.700000,9.700000C168.600000,4.200000,164.200000,-0.100000,158.800000,0Z" transform="translate(-159.049126,-9.650020)" fill="rgb(255,255,255)" stroke="none" stroke-width="1"/></g><path id="eada75zyjctg28" d="M188.600000,15.200000C191.700000,15.100000,194.100000,12.600000,194,9.500000C193.900000,6.400000,191.400000,4,188.300000,4.100000C185.300000,4.200000,182.900000,6.600000,182.900000,9.600000C182.900000,12.700000,185.500000,15.200000,188.600000,15.200000Z" fill="rgb(255,255,255)" stroke="none" stroke-width="1"/><path id="eada75zyjctg29" d="M218.400000,15.200000C221.500000,15.100000,223.900000,12.600000,223.800000,9.500000C223.700000,6.400000,221.200000,4,218.100000,4.100000C215.100000,4.200000,212.700000,6.600000,212.700000,9.600000C212.700000,12.700000,215.300000,15.200000,218.400000,15.200000Z" fill="rgb(255,255,255)" stroke="none" stroke-width="1"/><ellipse id="eada75zyjctg30" rx="5.700000" ry="5.500000" transform="matrix(1 0 0 1 9.90000000000000 214.09999999999999)" fill="rgb(255,255,255)" stroke="none" stroke-width="1"/><path id="eada75zyjctg31" d="M39.600000,208.500000C36.500000,208.600000,34.100000,211.100000,34.200000,214.200000C34.300000,217.300000,36.800000,219.700000,39.900000,219.600000C42.900000,219.500000,45.300000,217.100000,45.300000,214.100000C45.300000,211,42.700000,208.500000,39.600000,208.500000Z" fill="rgb(255,255,255)" stroke="none" stroke-width="1"/><g id="eada75zyjctg32_ts" transform="translate(69.649128,214.150017) scale(1,1)"><path id="eada75zyjctg32" d="M69.400000,204.500000C64.100000,204.600000,59.900000,209,60,214.400000C60.100000,219.700000,64.500000,223.900000,69.900000,223.800000C75.100000,223.700000,79.300000,219.400000,79.300000,214.200000C79.200000,208.700000,74.800000,204.400000,69.400000,204.500000Z" transform="translate(-69.649128,-214.150017)" fill="rgb(255,255,255)" stroke="none" stroke-width="1"/></g><g id="eada75zyjctg33_ts" transform="translate(99.449123,214.150017) scale(1,1)"><path id="eada75zyjctg33" d="M99.200000,204.500000C93.900000,204.600000,89.700000,209,89.800000,214.400000C89.900000,219.700000,94.300000,223.900000,99.700000,223.800000C104.900000,223.700000,109.100000,219.400000,109.100000,214.200000C109,208.700000,104.600000,204.400000,99.200000,204.500000Z" transform="translate(-99.449123,-214.150017)" fill="rgb(255,255,255)" stroke="none" stroke-width="1"/></g><g id="eada75zyjctg34_ts" transform="translate(129.249119,214.150017) scale(1,1)"><path id="eada75zyjctg34" d="M129,204.500000C123.700000,204.600000,119.500000,209,119.600000,214.400000C119.700000,219.700000,124.100000,223.900000,129.500000,223.800000C134.700000,223.700000,138.900000,219.400000,138.900000,214.200000C138.800000,208.700000,134.400000,204.400000,129,204.500000Z" transform="translate(-129.249119,-214.150017)" fill="rgb(255,255,255)" stroke="none" stroke-width="1"/></g><g id="eada75zyjctg35_ts" transform="translate(159.049126,214.150017) scale(1,1)"><path id="eada75zyjctg35" d="M158.800000,204.500000C153.500000,204.600000,149.300000,209,149.400000,214.400000C149.500000,219.700000,153.900000,223.900000,159.300000,223.800000C164.500000,223.700000,168.700000,219.400000,168.700000,214.200000C168.600000,208.700000,164.200000,204.400000,158.800000,204.500000Z" transform="translate(-159.049126,-214.150017)" fill="rgb(255,255,255)" stroke="none" stroke-width="1"/></g><path id="eada75zyjctg36" d="M188.600000,208.500000C185.500000,208.600000,183.100000,211.100000,183.200000,214.200000C183.300000,217.300000,185.800000,219.700000,188.900000,219.600000C191.900000,219.500000,194.300000,217.100000,194.300000,214.100000C194.200000,211,191.700000,208.500000,188.600000,208.500000Z" fill="rgb(255,255,255)" stroke="none" stroke-width="1"/><path id="eada75zyjctg37" d="M218.400000,208.500000C215.300000,208.600000,212.900000,211.100000,213,214.200000C213.100000,217.300000,215.600000,219.700000,218.700000,219.600000C221.700000,219.500000,224.100000,217.100000,224.100000,214.100000C224,211,221.500000,208.500000,218.400000,208.500000Z" fill="rgb(255,255,255)" stroke="none" stroke-width="1"/><ellipse id="eada75zyjctg38" rx="5.700000" ry="5.500000" transform="matrix(1 0 0 1 9.90000000000000 184.90000000000001)" fill="rgb(255,255,255)" stroke="none" stroke-width="1"/><g id="eada75zyjctg39_ts" transform="translate(39.849126,184.950020) scale(1,1)"><path id="eada75zyjctg39" d="M39.600000,175.300000C34.300000,175.400000,30.100000,179.900000,30.200000,185.200000C30.300000,190.500000,34.800000,194.700000,40.100000,194.600000C45.300000,194.500000,49.500000,190.200000,49.500000,185C49.400000,179.500000,45,175.200000,39.600000,175.300000Z" transform="translate(-39.849126,-184.950020)" fill="rgb(255,255,255)" stroke="none" stroke-width="1"/></g><g id="eada75zyjctg40_ts" transform="translate(69.649128,184.950020) scale(1,1)"><path id="eada75zyjctg40" d="M69.400000,175.300000C64.100000,175.400000,59.900000,179.900000,60,185.200000C60.100000,190.500000,64.600000,194.700000,69.900000,194.600000C75.100000,194.500000,79.300000,190.200000,79.300000,185C79.200000,179.500000,74.800000,175.200000,69.400000,175.300000Z" transform="translate(-69.649128,-184.950020)" fill="rgb(255,255,255)" stroke="none" stroke-width="1"/></g><g id="eada75zyjctg41_ts" transform="translate(99.449123,184.950020) scale(1,1)"><path id="eada75zyjctg41" d="M99.200000,175.300000C93.900000,175.400000,89.700000,179.900000,89.800000,185.200000C89.900000,190.500000,94.400000,194.700000,99.700000,194.600000C104.900000,194.500000,109.100000,190.200000,109.100000,185C109,179.500000,104.600000,175.200000,99.200000,175.300000Z" transform="translate(-99.449123,-184.950020)" fill="rgb(255,255,255)" stroke="none" stroke-width="1"/></g><g id="eada75zyjctg42_ts" transform="translate(129.249119,184.950020) scale(1,1)"><path id="eada75zyjctg42" d="M129,175.300000C123.700000,175.400000,119.500000,179.900000,119.600000,185.200000C119.700000,190.500000,124.200000,194.700000,129.500000,194.600000C134.700000,194.500000,138.900000,190.200000,138.900000,185C138.800000,179.500000,134.400000,175.200000,129,175.300000Z" transform="translate(-129.249119,-184.950020)" fill="rgb(255,255,255)" stroke="none" stroke-width="1"/></g><g id="eada75zyjctg43_ts" transform="translate(159.049126,184.950020) scale(1,1)"><path id="eada75zyjctg43" d="M158.800000,175.300000C153.500000,175.400000,149.300000,179.900000,149.400000,185.200000C149.500000,190.500000,154,194.700000,159.300000,194.600000C164.500000,194.500000,168.700000,190.200000,168.700000,185C168.600000,179.500000,164.200000,175.200000,158.800000,175.300000Z" transform="translate(-159.049126,-184.950020)" fill="rgb(255,255,255)" stroke="none" stroke-width="1"/></g><g id="eada75zyjctg44_ts" transform="translate(188.849129,184.950020) scale(1,1)"><path id="eada75zyjctg44" d="M188.600000,175.300000C183.300000,175.400000,179.100000,179.900000,179.200000,185.200000C179.300000,190.500000,183.800000,194.700000,189.100000,194.600000C194.300000,194.500000,198.500000,190.200000,198.500000,185C198.400000,179.500000,194,175.200000,188.600000,175.300000Z" transform="translate(-188.849129,-184.950020)" fill="rgb(255,255,255)" stroke="none" stroke-width="1"/></g><path id="eada75zyjctg45" d="M218.400000,179.300000C215.300000,179.400000,212.900000,181.900000,213,185C213.100000,188.100000,215.600000,190.500000,218.700000,190.400000C221.700000,190.300000,224.100000,187.900000,224.100000,184.900000C224,181.800000,221.500000,179.300000,218.400000,179.300000Z" fill="rgb(255,255,255)" stroke="none" stroke-width="1"/><g id="eada75zyjctg46_ts" transform="translate(9.900000,155.699989) scale(1,1)"><ellipse id="eada75zyjctg46" rx="9.900000" ry="9.600000" transform="translate(0,0.000011)" fill="rgb(255,255,255)" stroke="none" stroke-width="1"/></g><g id="eada75zyjctg47_ts" transform="translate(39.849126,155.750023) scale(1,1)"><path id="eada75zyjctg47" d="M39.600000,146.100000C34.300000,146.200000,30.100000,150.700000,30.200000,156C30.300000,161.300000,34.800000,165.500000,40.100000,165.400000C45.300000,165.300000,49.500000,161,49.500000,155.800000C49.400000,150.300000,45,146,39.600000,146.100000Z" transform="translate(-39.849126,-155.750023)" fill="rgb(255,255,255)" stroke="none" stroke-width="1"/></g><g id="eada75zyjctg48_ts" transform="translate(69.649128,155.750023) scale(1,1)"><path id="eada75zyjctg48" d="M69.400000,146.100000C64.100000,146.200000,59.900000,150.700000,60,156C60.100000,161.300000,64.600000,165.500000,69.900000,165.400000C75.100000,165.300000,79.300000,161,79.300000,155.800000C79.200000,150.300000,74.800000,146,69.400000,146.100000Z" transform="translate(-69.649128,-155.750023)" fill="rgb(255,255,255)" stroke="none" stroke-width="1"/></g><ellipse id="eada75zyjctg49" rx="5.700000" ry="5.500000" transform="matrix(1 0 0 1 99.20000000000000 155.69999999999999)" fill="rgb(255,255,255)" stroke="none" stroke-width="1"/><path id="eada75zyjctg50" d="M129,161.200000C132.100000,161.100000,134.500000,158.600000,134.400000,155.500000C134.300000,152.400000,131.800000,150,128.700000,150.100000C125.700000,150.200000,123.300000,152.600000,123.300000,155.600000C123.400000,158.800000,125.900000,161.200000,129,161.200000Z" fill="rgb(255,255,255)" stroke="none" stroke-width="1"/><g id="eada75zyjctg51_ts" transform="translate(188.849129,155.750023) scale(1,1)"><path id="eada75zyjctg51" d="M188.600000,146.100000C183.300000,146.200000,179.100000,150.700000,179.200000,156C179.300000,161.300000,183.800000,165.500000,189.100000,165.400000C194.300000,165.300000,198.500000,161,198.500000,155.800000C198.400000,150.300000,194,146,188.600000,146.100000Z" transform="translate(-188.849129,-155.750023)" fill="rgb(255,255,255)" stroke="none" stroke-width="1"/></g><g id="eada75zyjctg52_ts" transform="translate(218.649117,155.750023) scale(1,1)"><path id="eada75zyjctg52" d="M218.400000,146.100000C213.100000,146.200000,208.900000,150.700000,209,156C209.100000,161.300000,213.600000,165.500000,218.900000,165.400000C224.100000,165.300000,228.300000,161,228.300000,155.800000C228.200000,150.300000,223.700000,146,218.400000,146.100000Z" transform="translate(-218.649117,-155.750023)" fill="rgb(255,255,255)" stroke="none" stroke-width="1"/></g><g id="eada75zyjctg53_ts" transform="translate(9.900000,126.500004) scale(1,1)"><ellipse id="eada75zyjctg53" rx="9.900000" ry="9.600000" transform="translate(0,-0.000004)" fill="rgb(255,255,255)" stroke="none" stroke-width="1"/></g><g id="eada75zyjctg54_ts" transform="translate(39.849126,126.450882) scale(1,1)"><path id="eada75zyjctg54" d="M39.600000,116.800000C34.300000,116.900000,30.100000,121.400000,30.200000,126.700000C30.300000,132,34.800000,136.200000,40.100000,136.100000C45.300000,136,49.500000,131.700000,49.500000,126.500000C49.400000,121.100000,45,116.800000,39.600000,116.800000Z" transform="translate(-39.849126,-126.450882)" fill="rgb(255,255,255)" stroke="none" stroke-width="1"/></g><ellipse id="eada75zyjctg55" rx="5.700000" ry="5.500000" transform="matrix(1 0 0 1 69.40000000000001 126.50000000000000)" fill="rgb(255,255,255)" stroke="none" stroke-width="1"/><ellipse id="eada75zyjctg56" rx="5.700000" ry="5.500000" transform="matrix(1 0 0 1 99.20000000000000 126.50000000000000)" fill="rgb(255,255,255)" stroke="none" stroke-width="1"/><path id="eada75zyjctg57" d="M129,132C132.100000,131.900000,134.500000,129.400000,134.400000,126.300000C134.300000,123.200000,131.800000,120.800000,128.700000,120.900000C125.700000,121,123.300000,123.400000,123.300000,126.400000C123.400000,129.600000,125.900000,132,129,132Z" fill="rgb(255,255,255)" stroke="none" stroke-width="1"/><ellipse id="eada75zyjctg58" rx="5.700000" ry="5.500000" transform="matrix(1 0 0 1 158.80000000000001 126.50000000000000)" fill="rgb(255,255,255)" stroke="none" stroke-width="1"/><path id="eada75zyjctg59" d="M188.600000,132C191.700000,131.900000,194.100000,129.400000,194,126.300000C193.900000,123.200000,191.400000,120.800000,188.300000,120.900000C185.300000,121,182.900000,123.400000,182.900000,126.400000C182.900000,129.600000,185.500000,132,188.600000,132Z" fill="rgb(255,255,255)" stroke="none" stroke-width="1"/><path id="eada75zyjctg60" d="M218.400000,120.900000C215.300000,121,212.900000,123.500000,213,126.600000C213.100000,129.700000,215.600000,132.100000,218.700000,132C221.700000,131.900000,224.100000,129.500000,224.100000,126.500000C224,123.300000,221.500000,120.900000,218.400000,120.900000Z" fill="rgb(255,255,255)" stroke="none" stroke-width="1"/><g id="eada75zyjctg61_ts" transform="translate(9.900000,97.200001) scale(1,1)"><ellipse id="eada75zyjctg61" rx="9.900000" ry="9.600000" transform="translate(0,-0.000001)" fill="rgb(255,255,255)" stroke="none" stroke-width="1"/></g><g id="eada75zyjctg62_ts" transform="translate(39.849126,97.250874) scale(1,1)"><path id="eada75zyjctg62" d="M39.600000,87.600000C34.300000,87.700000,30.100000,92.200000,30.200000,97.500000C30.300000,102.800000,34.800000,107,40.100000,106.900000C45.300000,106.800000,49.500000,102.500000,49.500000,97.300000C49.400000,91.900000,45,87.600000,39.600000,87.600000Z" transform="translate(-39.849126,-97.250874)" fill="rgb(255,255,255)" stroke="none" stroke-width="1"/></g><ellipse id="eada75zyjctg63" rx="5.700000" ry="5.600000" transform="matrix(1 0 0 1 69.40000000000001 97.20000000000000)" fill="rgb(255,255,255)" stroke="none" stroke-width="1"/><ellipse id="eada75zyjctg64" rx="5.700000" ry="5.600000" transform="matrix(1 0 0 1 99.20000000000000 97.20000000000000)" fill="rgb(255,255,255)" stroke="none" stroke-width="1"/><path id="eada75zyjctg65" d="M129,102.800000C132.100000,102.700000,134.500000,100.200000,134.400000,97.100000C134.300000,94,131.800000,91.600000,128.700000,91.700000C125.700000,91.800000,123.300000,94.200000,123.300000,97.200000C123.400000,100.300000,125.900000,102.800000,129,102.800000Z" fill="rgb(255,255,255)" stroke="none" stroke-width="1"/><ellipse id="eada75zyjctg66" rx="5.700000" ry="5.600000" transform="matrix(1 0 0 1 158.80000000000001 97.20000000000000)" fill="rgb(255,255,255)" stroke="none" stroke-width="1"/><path id="eada75zyjctg67" d="M188.600000,102.800000C191.700000,102.700000,194.100000,100.200000,194,97.100000C193.900000,94,191.400000,91.600000,188.300000,91.700000C185.300000,91.800000,182.900000,94.200000,182.900000,97.200000C182.900000,100.300000,185.500000,102.800000,188.600000,102.800000Z" fill="rgb(255,255,255)" stroke="none" stroke-width="1"/><path id="eada75zyjctg68" d="M218.400000,91.700000C215.300000,91.800000,212.900000,94.300000,213,97.400000C213.100000,100.500000,215.600000,102.900000,218.700000,102.800000C221.700000,102.700000,224.100000,100.300000,224.100000,97.300000C224,94.100000,221.500000,91.700000,218.400000,91.700000Z" fill="rgb(255,255,255)" stroke="none" stroke-width="1"/><g id="eada75zyjctg69_ts" transform="translate(9.900000,68.000004) scale(1,1)"><ellipse id="eada75zyjctg69" rx="9.900000" ry="9.600000" transform="translate(0,-0.000004)" fill="rgb(255,255,255)" stroke="none" stroke-width="1"/></g><g id="eada75zyjctg70_ts" transform="translate(39.849126,68.050877) scale(1,1)"><path id="eada75zyjctg70" d="M39.600000,58.400000C34.300000,58.500000,30.100000,63,30.200000,68.300000C30.300000,73.600000,34.800000,77.800000,40.100000,77.700000C45.300000,77.600000,49.500000,73.300000,49.500000,68.100000C49.400000,62.700000,45,58.400000,39.600000,58.400000Z" transform="translate(-39.849126,-68.050877)" fill="rgb(255,255,255)" stroke="none" stroke-width="1"/></g><g id="eada75zyjctg71_ts" transform="translate(69.649128,68.050877) scale(1,1)"><path id="eada75zyjctg71" d="M69.400000,58.400000C64.100000,58.500000,59.900000,63,60,68.300000C60.100000,73.600000,64.600000,77.800000,69.900000,77.700000C75.100000,77.600000,79.300000,73.300000,79.300000,68.100000C79.200000,62.700000,74.800000,58.400000,69.400000,58.400000Z" transform="translate(-69.649128,-68.050877)" fill="rgb(255,255,255)" stroke="none" stroke-width="1"/></g><ellipse id="eada75zyjctg72" rx="5.700000" ry="5.600000" transform="matrix(1 0 0 1 99.20000000000000 68)" fill="rgb(255,255,255)" stroke="none" stroke-width="1"/><path id="eada75zyjctg73" d="M129,73.600000C132.100000,73.500000,134.500000,71,134.400000,67.900000C134.300000,64.800000,131.800000,62.400000,128.700000,62.500000C125.700000,62.600000,123.300000,65,123.300000,68C123.400000,71.100000,125.900000,73.600000,129,73.600000Z" fill="rgb(255,255,255)" stroke="none" stroke-width="1"/><g id="eada75zyjctg74_ts" transform="translate(188.849129,68.050877) scale(1,1)"><path id="eada75zyjctg74" d="M188.600000,58.400000C183.300000,58.500000,179.100000,63,179.200000,68.300000C179.300000,73.600000,183.800000,77.800000,189.100000,77.700000C194.300000,77.600000,198.500000,73.300000,198.500000,68.100000C198.400000,62.700000,194,58.400000,188.600000,58.400000Z" transform="translate(-188.849129,-68.050877)" fill="rgb(255,255,255)" stroke="none" stroke-width="1"/></g><g id="eada75zyjctg75_ts" transform="translate(218.200867,67.999977) scale(1,1)"><path id="eada75zyjctg75" d="M218.400000,77.600000C223.700000,77.500000,227.900000,73.100000,227.800000,67.800000C227.700000,62.500000,223.300000,58.300000,218,58.400000C212.800000,58.500000,208.600000,62.800000,208.600000,68C208.600000,73.400000,213,77.700000,218.400000,77.600000Z" transform="translate(-218.200867,-67.999977)" fill="rgb(255,255,255)" stroke="none" stroke-width="1"/></g><ellipse id="eada75zyjctg76" rx="5.700000" ry="5.600000" transform="matrix(1 0 0 1 9.90000000000000 38.80000000000000)" fill="rgb(255,255,255)" stroke="none" stroke-width="1"/><g id="eada75zyjctg77_ts" transform="translate(39.849126,38.850018) scale(1,1)"><path id="eada75zyjctg77" d="M39.600000,29.200000C34.300000,29.300000,30.100000,33.800000,30.200000,39.100000C30.300000,44.400000,34.800000,48.600000,40.100000,48.500000C45.300000,48.400000,49.500000,44.100000,49.500000,38.900000C49.400000,33.400000,45,29.100000,39.600000,29.200000Z" transform="translate(-39.849126,-38.850018)" fill="rgb(255,255,255)" stroke="none" stroke-width="1"/></g><g id="eada75zyjctg78_ts" transform="translate(69.649128,38.850018) scale(1,1)"><path id="eada75zyjctg78" d="M69.400000,29.200000C64.100000,29.300000,59.900000,33.800000,60,39.100000C60.100000,44.400000,64.600000,48.600000,69.900000,48.500000C75.100000,48.400000,79.300000,44.100000,79.300000,38.900000C79.200000,33.400000,74.800000,29.100000,69.400000,29.200000Z" transform="translate(-69.649128,-38.850018)" fill="rgb(255,255,255)" stroke="none" stroke-width="1"/></g><g id="eada75zyjctg79_ts" transform="translate(99.449123,38.850018) scale(1,1)"><path id="eada75zyjctg79" d="M99.200000,29.200000C93.900000,29.300000,89.700000,33.800000,89.800000,39.100000C89.900000,44.400000,94.400000,48.600000,99.700000,48.500000C104.900000,48.400000,109.100000,44.100000,109.100000,38.900000C109,33.400000,104.600000,29.100000,99.200000,29.200000Z" transform="translate(-99.449123,-38.850018)" fill="rgb(255,255,255)" stroke="none" stroke-width="1"/></g><g id="eada75zyjctg80_ts" transform="translate(129.249119,38.850018) scale(1,1)"><path id="eada75zyjctg80" d="M129,29.200000C123.700000,29.300000,119.500000,33.800000,119.600000,39.100000C119.700000,44.400000,124.200000,48.600000,129.500000,48.500000C134.700000,48.400000,138.900000,44.100000,138.900000,38.900000C138.800000,33.400000,134.400000,29.100000,129,29.200000Z" transform="translate(-129.249119,-38.850018)" fill="rgb(255,255,255)" stroke="none" stroke-width="1"/></g><g id="eada75zyjctg81_ts" transform="translate(159.049126,38.850018) scale(1,1)"><path id="eada75zyjctg81" d="M158.800000,29.200000C153.500000,29.300000,149.300000,33.800000,149.400000,39.100000C149.500000,44.400000,154,48.600000,159.300000,48.500000C164.500000,48.400000,168.700000,44.100000,168.700000,38.900000C168.600000,33.400000,164.200000,29.100000,158.800000,29.200000Z" transform="translate(-159.049126,-38.850018)" fill="rgb(255,255,255)" stroke="none" stroke-width="1"/></g><g id="eada75zyjctg82_ts" transform="translate(188.849129,38.850018) scale(1,1)"><path id="eada75zyjctg82" d="M188.600000,29.200000C183.300000,29.300000,179.100000,33.800000,179.200000,39.100000C179.300000,44.400000,183.800000,48.600000,189.100000,48.500000C194.300000,48.400000,198.500000,44.100000,198.500000,38.900000C198.400000,33.400000,194,29.100000,188.600000,29.200000Z" transform="translate(-188.849129,-38.850018)" fill="rgb(255,255,255)" stroke="none" stroke-width="1"/></g><path id="eada75zyjctg83" d="M218.400000,44.400000C221.500000,44.300000,223.900000,41.800000,223.800000,38.700000C223.700000,35.600000,221.200000,33.200000,218.100000,33.300000C215.100000,33.400000,212.700000,35.800000,212.700000,38.800000C212.700000,41.900000,215.300000,44.400000,218.400000,44.400000Z" fill="rgb(255,255,255)" stroke="none" stroke-width="1"/><g id="eada75zyjctg84_ts" transform="translate(159.049126,68.050877) scale(1,1)"><path id="eada75zyjctg84" d="M158.800000,58.400000C153.500000,58.500000,149.300000,63,149.400000,68.300000C149.500000,73.600000,154,77.800000,159.300000,77.700000C164.500000,77.600000,168.700000,73.300000,168.700000,68.100000C168.600000,62.700000,164.200000,58.400000,158.800000,58.400000Z" transform="translate(-159.049126,-68.050877)" fill="rgb(255,255,255)" stroke="none" stroke-width="1"/></g><g id="eada75zyjctg85_ts" transform="translate(159.049126,155.750023) scale(1,1)"><path id="eada75zyjctg85" d="M158.800000,146.100000C153.500000,146.200000,149.300000,150.700000,149.400000,156C149.500000,161.300000,154,165.500000,159.300000,165.400000C164.500000,165.300000,168.700000,161,168.700000,155.800000C168.600000,150.300000,164.200000,146,158.800000,146.100000Z" transform="translate(-159.049126,-155.750023)" fill="rgb(255,255,255)" stroke="none" stroke-width="1"/></g></g></svg>