<svg width="164" height="60" viewBox="0 0 164 60" fill="none" xmlns="http://www.w3.org/2000/svg">
<path d="M75.189 14.1175C75.189 10.1918 77.8081 7.51636 82.0456 7.51636C85.5268 7.51636 87.7065 9.27667 88.2519 12.0581L85.7376 12.4282C85.386 10.5799 84.0675 9.47068 81.9747 9.47068C79.3196 9.47068 77.7202 11.284 77.7202 14.1005C77.7202 16.829 79.3205 18.7483 82.0276 18.7483C84.0145 18.7483 85.3501 17.7101 85.8076 15.9138L88.2519 16.3889C87.5137 19.0293 85.404 20.7196 81.9577 20.7196C77.6154 20.7196 75.189 17.9902 75.189 14.1175Z" fill="white"/>
<path d="M89.6572 17.9902C89.6572 17.1451 90.0268 16.4409 90.7291 16.0009C91.3624 15.5958 92.2414 15.3497 93.8936 15.1907L97.0403 14.9267V14.7327C97.0403 13.4475 96.2491 12.8493 94.7727 12.8493C93.3313 12.8493 92.4522 13.4124 92.3114 14.4516H89.938C90.1487 12.5323 91.9947 11.301 94.7727 11.301C97.8843 11.301 99.3258 12.4982 99.3258 15.0507V17.5331C99.3258 18.8353 99.3957 19.6634 99.5545 20.3676H97.269C97.1811 19.9095 97.1461 19.3294 97.1281 18.7653C96.5307 19.9445 95.1593 20.6316 93.2254 20.6316C91.0467 20.6316 89.6572 19.6275 89.6572 17.9902ZM97.0771 16.6529V16.1949L94.1064 16.4939C92.577 16.652 92.0145 17.057 92.0145 17.8672C92.0145 18.6593 92.7349 19.1174 93.9835 19.1174C95.8115 19.1174 97.0771 18.1492 97.0771 16.6529Z" fill="white"/>
<path d="M102.123 11.565H104.32V13.4483C105.024 12.0221 106.289 11.283 108.047 11.283C110.527 11.283 111.827 12.7092 111.827 15.4197V20.3665H109.559V15.7197C109.559 13.9594 108.786 13.0792 107.167 13.0792C105.444 13.0792 104.389 14.1884 104.389 16.0897V20.3675H102.121V11.565H102.123Z" fill="white"/>
<path d="M113.831 17.9902C113.831 17.1451 114.201 16.4409 114.904 16.0009C115.537 15.5958 116.416 15.3497 118.068 15.1907L121.215 14.9267V14.7327C121.215 13.4475 120.424 12.8493 118.948 12.8493C117.506 12.8493 116.627 13.4124 116.486 14.4516H114.113C114.324 12.5323 116.17 11.301 118.948 11.301C122.059 11.301 123.501 12.4982 123.501 15.0507V17.5331C123.501 18.8353 123.571 19.6634 123.729 20.3676H121.444C121.356 19.9095 121.321 19.3294 121.303 18.7653C120.706 19.9445 119.334 20.6316 117.4 20.6316C115.221 20.6316 113.831 19.6275 113.831 17.9902ZM121.251 16.6529V16.1949L118.28 16.4939C116.751 16.652 116.188 17.057 116.188 17.8672C116.188 18.6593 116.909 19.1174 118.157 19.1174C119.985 19.1174 121.251 18.1492 121.251 16.6529Z" fill="white"/>
<path d="M125.4 15.966C125.4 13.2025 127.264 11.3011 129.971 11.3011C131.535 11.3011 132.678 11.8292 133.434 12.9204V7.60449H135.701V20.3667H133.522V18.7124C132.819 19.9267 131.553 20.6308 129.83 20.6308C127.228 20.6317 125.4 18.7474 125.4 15.966ZM133.487 16.195V15.7729C133.487 14.0656 132.309 12.9734 130.568 12.9734C128.81 12.9734 127.773 14.0826 127.773 15.948C127.773 17.8133 128.863 18.9585 130.603 18.9585C132.326 18.9594 133.487 17.8673 133.487 16.195Z" fill="white"/>
<path d="M138.058 17.9902C138.058 17.1451 138.428 16.4409 139.13 16.0009C139.763 15.5958 140.642 15.3497 142.294 15.1907L145.441 14.9267V14.7327C145.441 13.4475 144.65 12.8493 143.174 12.8493C141.732 12.8493 140.853 13.4124 140.712 14.4516H138.339C138.549 12.5323 140.396 11.301 143.174 11.301C146.285 11.301 147.727 12.4982 147.727 15.0507V17.5331C147.727 18.8353 147.797 19.6634 147.955 20.3676H145.67C145.582 19.9095 145.547 19.3294 145.529 18.7653C144.932 19.9445 143.56 20.6316 141.626 20.6316C139.447 20.6316 138.058 19.6275 138.058 17.9902ZM145.477 16.6529V16.1949L142.506 16.4939C140.977 16.652 140.414 17.057 140.414 17.8672C140.414 18.6593 141.136 19.1174 142.383 19.1174C144.211 19.1174 145.477 18.1492 145.477 16.6529Z" fill="white"/>
<path d="M150.101 12.0411C151.086 11.742 151.349 11.2669 151.349 10.4748V10.4218H149.977V7.86841H152.649V10.2268C152.649 11.7051 152.104 12.6212 150.522 13.0613L150.101 12.0411Z" fill="white"/>
<path d="M153.934 18.1142L155.481 17.252C156.114 18.4142 157.309 19.0474 159.173 19.0474C160.562 19.0474 161.248 18.6603 161.248 17.9211C161.248 17.252 160.878 16.971 159.841 16.865L157.398 16.6539C155.359 16.4429 154.374 15.5277 154.374 14.0485C154.374 12.3061 155.957 11.302 158.682 11.302C160.967 11.302 162.619 12.1121 163.324 13.4494L161.882 14.3646C161.232 13.3964 160.212 12.8513 158.56 12.8513C157.223 12.8513 156.503 13.2213 156.503 13.9254C156.503 14.5236 156.942 14.8406 157.926 14.9466L160.476 15.1756C162.55 15.3696 163.358 16.2668 163.358 17.7461C163.358 19.5414 161.917 20.6326 159.016 20.6326C156.483 20.6316 154.778 19.7515 153.934 18.1142Z" fill="white"/>
<path d="M78.722 26.4756V29.8552H85.7895V31.7215H78.722V37.0904H76.2777V24.5913H86.0882V26.4747H78.722V26.4756Z" fill="white"/>
<path d="M87.161 32.6887C87.161 29.7842 89.2887 28.0239 92.4183 28.0239C95.5299 28.0239 97.6576 29.7842 97.6576 32.6887C97.6576 35.5753 95.5309 37.3536 92.4183 37.3536C89.2887 37.3545 87.161 35.5762 87.161 32.6887ZM95.3011 32.6887C95.3011 30.7524 94.1934 29.6962 92.4183 29.6962C90.6252 29.6962 89.5174 30.7524 89.5174 32.6887C89.5174 34.608 90.6252 35.6813 92.4183 35.6813C94.1934 35.6822 95.3011 34.608 95.3011 32.6887Z" fill="white"/>
<path d="M105.129 28.0598C105.375 28.0598 105.551 28.0778 105.762 28.1128V30.2072C105.533 30.1722 105.322 30.1542 105.077 30.1542C104.057 30.1542 103.389 30.4183 102.914 30.8933C102.211 31.5975 102.053 32.6007 102.053 33.6568V37.0894H99.7844V28.2879H101.859V30.5943C102.317 29.08 103.477 28.0598 105.129 28.0598Z" fill="white"/>
<path d="M116.521 33.2529H108.663C108.75 34.7321 109.893 35.6823 111.721 35.6823C113.057 35.6823 114.06 35.1362 114.604 34.151L116.38 34.9611C115.501 36.5104 113.866 37.3555 111.633 37.3555C108.416 37.3555 106.447 35.6832 106.447 32.7787C106.447 29.7862 108.434 28.0259 111.546 28.0259C114.692 28.0259 116.521 29.6281 116.521 32.4446V33.2529ZM114.271 31.7386C114.253 30.2953 113.145 29.4682 111.511 29.4682C109.805 29.4682 108.75 30.3663 108.663 31.8276H114.271V31.7386Z" fill="white"/>
<path d="M117.734 34.8371L119.281 33.9749C119.915 35.1371 121.109 35.7703 122.973 35.7703C124.362 35.7703 125.048 35.3832 125.048 34.644C125.048 33.9749 124.679 33.6939 123.642 33.5879L121.198 33.3768C119.16 33.1658 118.175 32.2506 118.175 30.7714C118.175 29.029 119.757 28.0249 122.482 28.0249C124.767 28.0249 126.42 28.835 127.124 30.1723L125.682 31.0875C125.032 30.1193 124.012 29.5742 122.36 29.5742C121.024 29.5742 120.303 29.9442 120.303 30.6483C120.303 31.2465 120.743 31.5635 121.727 31.6695L124.276 31.8985C126.351 32.0925 127.159 32.9897 127.159 34.469C127.159 36.2643 125.717 37.3564 122.816 37.3564C120.283 37.3545 118.578 36.4744 117.734 34.8371Z" fill="white"/>
<path d="M127.984 28.2881H130.024V26.0877L132.291 25.2075V28.2881H135.28V29.8903H132.291V33.745C132.291 34.8712 132.837 35.3823 133.979 35.3823C134.489 35.3823 134.911 35.3123 135.28 35.2242V37.0375C134.788 37.1786 134.172 37.2836 133.416 37.2836C130.902 37.2836 130.023 36.0334 130.023 34.0971V29.8903H127.983V28.2881H127.984Z" fill="white"/>
<path d="M86.2469 43.2685H81.7288V53.8133H79.2854V43.2685H74.7673V41.3142H86.2478V43.2685H86.2469Z" fill="white"/>
<path d="M92.1894 44.7827C92.4352 44.7827 92.611 44.8007 92.8228 44.8357V46.9301C92.594 46.8951 92.3833 46.8771 92.1375 46.8771C91.1176 46.8771 90.4493 47.1411 89.9748 47.6162C89.2716 48.3204 89.1137 49.3236 89.1137 50.3797V53.8123H86.8452V45.0108H88.92V47.3172C89.3765 45.8039 90.5363 44.7827 92.1894 44.7827Z" fill="white"/>
<path d="M94.3693 50.2399V45.012H96.6369V49.8528C96.6369 51.6481 97.6038 52.3352 98.8695 52.3352C100.733 52.3352 101.665 50.997 101.665 49.4307V45.012H103.933V53.8135H101.735V51.9472C101.173 53.2854 99.7845 54.0776 98.1492 54.0776C95.582 54.0776 94.3693 52.6863 94.3693 50.2399Z" fill="white"/>
<path d="M105.973 51.56L107.52 50.6978C108.152 51.86 109.348 52.4932 111.212 52.4932C112.6 52.4932 113.287 52.1061 113.287 51.3669C113.287 50.6978 112.917 50.4167 111.88 50.3108L109.437 50.0997C107.398 49.8887 106.413 48.9735 106.413 47.4943C106.413 45.7519 107.995 44.7478 110.72 44.7478C113.006 44.7478 114.658 45.5579 115.362 46.8952L113.921 47.8104C113.271 46.8422 112.251 46.2971 110.599 46.2971C109.262 46.2971 108.542 46.6671 108.542 47.3712C108.542 47.9694 108.981 48.2864 109.965 48.3924L112.514 48.6214C114.589 48.8154 115.397 49.7126 115.397 51.1919C115.397 52.9872 113.956 54.0784 111.055 54.0784C108.522 54.0774 106.817 53.1973 105.973 51.56Z" fill="white"/>
<path d="M116.223 45.0119H118.262V42.8116L120.53 41.9314V45.0119H123.519V46.6142H120.53V50.4689C120.53 51.5951 121.075 52.1062 122.218 52.1062C122.727 52.1062 123.15 52.0361 123.519 51.9481V53.7614C123.027 53.9024 122.412 54.0075 121.656 54.0075C119.141 54.0075 118.262 52.7573 118.262 50.821V46.6142H116.223V45.0119Z" fill="white"/>
<path d="M2.64089 4.06674C3.48293 4.06674 4.16552 3.40023 4.16552 2.57805C4.16552 1.75586 3.48293 1.08936 2.64089 1.08936C1.79885 1.08936 1.11621 1.75586 1.11621 2.57805C1.11621 3.40023 1.79885 4.06674 2.64089 4.06674Z" fill="#00823B"/>
<path d="M10.6215 4.06674C11.4617 4.06674 12.1461 3.39952 12.1461 2.57805C12.1461 1.75657 11.4617 1.08936 10.6215 1.08936C9.78022 1.08936 9.0968 1.75657 9.0968 2.57805C9.0968 3.39952 9.78022 4.06674 10.6215 4.06674Z" fill="#00823B"/>
<path d="M18.6008 0C17.1442 0 15.9598 1.1565 15.9598 2.578C15.9598 3.9995 17.1442 5.156 18.6008 5.156C20.0574 5.156 21.2417 3.9995 21.2417 2.578C21.2427 1.1565 20.0574 0 18.6008 0Z" fill="#00823B"/>
<path d="M26.5813 0C25.1247 0 23.9403 1.1565 23.9403 2.578C23.9403 3.9995 25.1247 5.156 26.5813 5.156C28.0378 5.156 29.2222 3.9995 29.2222 2.578C29.2222 1.1565 28.0378 0 26.5813 0Z" fill="#00823B"/>
<path d="M34.5617 0C33.1051 0 31.9208 1.1565 31.9208 2.578C31.9208 3.9995 33.1051 5.156 34.5617 5.156C36.0183 5.156 37.2026 3.9995 37.2026 2.578C37.2026 1.1565 36.0173 0 34.5617 0Z" fill="#00823B"/>
<path d="M42.5413 0C41.0847 0 39.9004 1.1565 39.9004 2.578C39.9004 3.9995 41.0847 5.156 42.5413 5.156C43.9979 5.156 45.1822 3.9995 45.1822 2.578C45.1831 1.1565 43.9979 0 42.5413 0Z" fill="#00823B"/>
<path d="M50.5216 4.06674C51.3619 4.06674 52.0463 3.39952 52.0463 2.57805C52.0463 1.75657 51.3619 1.08936 50.5216 1.08936C49.6804 1.08936 48.9969 1.75657 48.9969 2.57805C48.9969 3.39952 49.6804 4.06674 50.5216 4.06674Z" fill="#00823B"/>
<path d="M58.5022 4.06674C59.3434 4.06674 60.0267 3.39952 60.0267 2.57805C60.0267 1.75657 59.3424 1.08936 58.5022 1.08936C57.6619 1.08936 56.9775 1.75657 56.9775 2.57805C56.9775 3.39952 57.6609 4.06674 58.5022 4.06674Z" fill="#00823B"/>
<path d="M2.64089 58.9107C3.48293 58.9107 4.16552 58.2442 4.16552 57.422C4.16552 56.5999 3.48293 55.9333 2.64089 55.9333C1.79885 55.9333 1.11621 56.5999 1.11621 57.422C1.11621 58.2442 1.79885 58.9107 2.64089 58.9107Z" fill="#00823B"/>
<path d="M10.6215 55.9333C9.78022 55.9333 9.0968 56.6006 9.0968 57.422C9.0968 58.2435 9.78117 58.9107 10.6215 58.9107C11.4617 58.9107 12.1461 58.2435 12.1461 57.422C12.1461 56.6006 11.4617 55.9333 10.6215 55.9333Z" fill="#00823B"/>
<path d="M18.6008 54.844C17.1442 54.844 15.9598 56.0005 15.9598 57.422C15.9598 58.8435 17.1442 60 18.6008 60C20.0574 60 21.2417 58.8435 21.2417 57.422C21.2427 56.0005 20.0574 54.844 18.6008 54.844Z" fill="#00823B"/>
<path d="M26.5813 54.844C25.1247 54.844 23.9403 56.0005 23.9403 57.422C23.9403 58.8435 25.1247 60 26.5813 60C28.0378 60 29.2222 58.8435 29.2222 57.422C29.2222 56.0005 28.0378 54.844 26.5813 54.844Z" fill="#00823B"/>
<path d="M34.5617 54.844C33.1051 54.844 31.9208 56.0005 31.9208 57.422C31.9208 58.8435 33.1051 60 34.5617 60C36.0183 60 37.2026 58.8435 37.2026 57.422C37.2026 56.0005 36.0173 54.844 34.5617 54.844Z" fill="#00823B"/>
<path d="M42.5413 54.844C41.0847 54.844 39.9004 56.0005 39.9004 57.422C39.9004 58.8435 41.0847 60 42.5413 60C43.9979 60 45.1822 58.8435 45.1822 57.422C45.1831 56.0005 43.9979 54.844 42.5413 54.844Z" fill="#00823B"/>
<path d="M50.5216 55.9333C49.6804 55.9333 48.9969 56.6006 48.9969 57.422C48.9969 58.2435 49.6813 58.9107 50.5216 58.9107C51.3619 58.9107 52.0463 58.2435 52.0463 57.422C52.0463 56.6006 51.3619 55.9333 50.5216 55.9333Z" fill="#00823B"/>
<path d="M58.5022 55.9333C57.6619 55.9333 56.9775 56.6006 56.9775 57.422C56.9775 58.2435 57.6619 58.9107 58.5022 58.9107C59.3434 58.9107 60.0267 58.2435 60.0267 57.422C60.0267 56.6006 59.3424 55.9333 58.5022 55.9333Z" fill="#00823B"/>
<path d="M2.64089 51.0755C3.48293 51.0755 4.16552 50.409 4.16552 49.5868C4.16552 48.7647 3.48293 48.0981 2.64089 48.0981C1.79885 48.0981 1.11621 48.7647 1.11621 49.5868C1.11621 50.409 1.79885 51.0755 2.64089 51.0755Z" fill="#00823B"/>
<path d="M10.6214 47.0088C9.16483 47.0088 7.98047 48.1653 7.98047 49.5868C7.98047 51.0083 9.16483 52.1648 10.6214 52.1648C12.078 52.1648 13.2624 51.0083 13.2624 49.5868C13.2624 48.1653 12.078 47.0088 10.6214 47.0088Z" fill="#00823B"/>
<path d="M18.6008 47.0088C17.1442 47.0088 15.9598 48.1653 15.9598 49.5868C15.9598 51.0083 17.1442 52.1648 18.6008 52.1648C20.0574 52.1648 21.2417 51.0083 21.2417 49.5868C21.2427 48.1653 20.0574 47.0088 18.6008 47.0088Z" fill="#00823B"/>
<path d="M26.5813 47.0088C25.1247 47.0088 23.9403 48.1653 23.9403 49.5868C23.9403 51.0083 25.1247 52.1648 26.5813 52.1648C28.0378 52.1648 29.2222 51.0083 29.2222 49.5868C29.2222 48.1653 28.0378 47.0088 26.5813 47.0088Z" fill="#00823B"/>
<path d="M34.5617 47.0088C33.1051 47.0088 31.9208 48.1653 31.9208 49.5868C31.9208 51.0083 33.1051 52.1648 34.5617 52.1648C36.0183 52.1648 37.2026 51.0083 37.2026 49.5868C37.2026 48.1653 36.0173 47.0088 34.5617 47.0088Z" fill="#00823B"/>
<path d="M42.5413 47.0088C41.0847 47.0088 39.9004 48.1653 39.9004 49.5868C39.9004 51.0083 41.0847 52.1648 42.5413 52.1648C43.9979 52.1648 45.1822 51.0083 45.1822 49.5868C45.1831 48.1653 43.9979 47.0088 42.5413 47.0088Z" fill="#00823B"/>
<path d="M50.5218 47.0088C49.0652 47.0088 47.8809 48.1653 47.8809 49.5868C47.8809 51.0083 49.0652 52.1648 50.5218 52.1648C51.9783 52.1648 53.1627 51.0083 53.1627 49.5868C53.1627 48.1653 51.9783 47.0088 50.5218 47.0088Z" fill="#00823B"/>
<path d="M58.5022 48.0989C57.6619 48.0989 56.9775 48.7661 56.9775 49.5876C56.9775 50.409 57.6619 51.0763 58.5022 51.0763C59.3434 51.0763 60.0267 50.409 60.0267 49.5876C60.0267 48.7661 59.3424 48.0989 58.5022 48.0989Z" fill="#00823B"/>
<path d="M2.64092 44.3303C4.09946 44.3303 5.28184 43.1761 5.28184 41.7523C5.28184 40.3285 4.09946 39.1743 2.64092 39.1743C1.18238 39.1743 0 40.3285 0 41.7523C0 43.1761 1.18238 44.3303 2.64092 44.3303Z" fill="#00823B"/>
<path d="M10.6214 39.1743C9.16483 39.1743 7.98047 40.3308 7.98047 41.7523C7.98047 43.1738 9.16483 44.3303 10.6214 44.3303C12.078 44.3303 13.2624 43.1738 13.2624 41.7523C13.2624 40.3308 12.078 39.1743 10.6214 39.1743Z" fill="#00823B"/>
<path d="M18.6008 39.1743C17.1442 39.1743 15.9598 40.3308 15.9598 41.7523C15.9598 43.1738 17.1442 44.3303 18.6008 44.3303C20.0574 44.3303 21.2417 43.1738 21.2417 41.7523C21.2427 40.3308 20.0574 39.1743 18.6008 39.1743Z" fill="#00823B"/>
<path d="M26.5813 43.241C27.4234 43.241 28.1059 42.5745 28.1059 41.7524C28.1059 40.9302 27.4234 40.2637 26.5813 40.2637C25.7393 40.2637 25.0566 40.9302 25.0566 41.7524C25.0566 42.5745 25.7393 43.241 26.5813 43.241Z" fill="#00823B"/>
<path d="M34.5618 43.2401C35.403 43.2401 36.0864 42.5729 36.0864 41.7514C36.0864 40.9309 35.4021 40.2627 34.5618 40.2627C33.7215 40.2627 33.0371 40.9299 33.0371 41.7514C33.0362 42.5729 33.7205 43.2401 34.5618 43.2401Z" fill="#00823B"/>
<path d="M50.5218 39.1743C49.0652 39.1743 47.8809 40.3308 47.8809 41.7523C47.8809 43.1738 49.0652 44.3303 50.5218 44.3303C51.9783 44.3303 53.1627 43.1738 53.1627 41.7523C53.1627 40.3308 51.9783 39.1743 50.5218 39.1743Z" fill="#00823B"/>
<path d="M58.5022 39.1743C57.0456 39.1743 55.8612 40.3308 55.8612 41.7523C55.8612 43.1738 57.0456 44.3303 58.5022 44.3303C59.9588 44.3303 61.1432 43.1738 61.1432 41.7523C61.1432 40.3308 59.9578 39.1743 58.5022 39.1743Z" fill="#00823B"/>
<path d="M2.64092 36.4951C4.09946 36.4951 5.28184 35.3409 5.28184 33.9171C5.28184 32.4933 4.09946 31.3391 2.64092 31.3391C1.18238 31.3391 0 32.4933 0 33.9171C0 35.3409 1.18238 36.4951 2.64092 36.4951Z" fill="#00823B"/>
<path d="M10.6214 31.3391C9.16483 31.3391 7.98047 32.4956 7.98047 33.9171C7.98047 35.3386 9.16483 36.4951 10.6214 36.4951C12.078 36.4951 13.2624 35.3386 13.2624 33.9171C13.2624 32.4956 12.078 31.3391 10.6214 31.3391Z" fill="#00823B"/>
<path d="M18.6009 35.4058C19.4429 35.4058 20.1255 34.7393 20.1255 33.9172C20.1255 33.095 19.4429 32.4285 18.6009 32.4285C17.7588 32.4285 17.0762 33.095 17.0762 33.9172C17.0762 34.7393 17.7588 35.4058 18.6009 35.4058Z" fill="#00823B"/>
<path d="M26.5813 35.4058C27.4234 35.4058 28.1059 34.7393 28.1059 33.9172C28.1059 33.095 27.4234 32.4285 26.5813 32.4285C25.7393 32.4285 25.0566 33.095 25.0566 33.9172C25.0566 34.7393 25.7393 35.4058 26.5813 35.4058Z" fill="#00823B"/>
<path d="M34.5618 35.4058C35.403 35.4058 36.0864 34.7386 36.0864 33.9172C36.0864 33.0966 35.4021 32.4285 34.5618 32.4285C33.7215 32.4285 33.0371 33.0957 33.0371 33.9172C33.0362 34.7377 33.7205 35.4058 34.5618 35.4058Z" fill="#00823B"/>
<path d="M42.5414 35.4058C43.3834 35.4058 44.066 34.7393 44.066 33.9172C44.066 33.095 43.3834 32.4285 42.5414 32.4285C41.6994 32.4285 41.0167 33.095 41.0167 33.9172C41.0167 34.7393 41.6994 35.4058 42.5414 35.4058Z" fill="#00823B"/>
<path d="M50.5216 35.4058C51.3619 35.4058 52.0463 34.7386 52.0463 33.9172C52.0463 33.0966 51.3619 32.4285 50.5216 32.4285C49.6804 32.4285 48.9969 33.0957 48.9969 33.9172C48.9969 34.7377 49.6804 35.4058 50.5216 35.4058Z" fill="#00823B"/>
<path d="M58.5022 32.4294C57.6619 32.4294 56.9775 33.0967 56.9775 33.9181C56.9775 34.7387 57.6619 35.4068 58.5022 35.4068C59.3434 35.4068 60.0267 34.7396 60.0267 33.9181C60.0267 33.0967 59.3424 32.4294 58.5022 32.4294Z" fill="#00823B"/>
<path d="M2.64092 28.6609C4.09946 28.6609 5.28184 27.5067 5.28184 26.0829C5.28184 24.6591 4.09946 23.5049 2.64092 23.5049C1.18238 23.5049 0 24.6591 0 26.0829C0 27.5067 1.18238 28.6609 2.64092 28.6609Z" fill="#00823B"/>
<path d="M10.6214 23.5049C9.16483 23.5049 7.98047 24.6614 7.98047 26.0829C7.98047 27.5044 9.16483 28.6609 10.6214 28.6609C12.078 28.6609 13.2624 27.5044 13.2624 26.0829C13.2624 24.6614 12.078 23.5049 10.6214 23.5049Z" fill="#00823B"/>
<path d="M18.6009 27.5716C19.4429 27.5716 20.1255 26.9051 20.1255 26.0829C20.1255 25.2607 19.4429 24.5942 18.6009 24.5942C17.7588 24.5942 17.0762 25.2607 17.0762 26.0829C17.0762 26.9051 17.7588 27.5716 18.6009 27.5716Z" fill="#00823B"/>
<path d="M26.5813 27.5716C27.4234 27.5716 28.1059 26.9051 28.1059 26.0829C28.1059 25.2607 27.4234 24.5942 26.5813 24.5942C25.7393 24.5942 25.0566 25.2607 25.0566 26.0829C25.0566 26.9051 25.7393 27.5716 26.5813 27.5716Z" fill="#00823B"/>
<path d="M34.5618 27.5706C35.403 27.5706 36.0864 26.9034 36.0864 26.082C36.0864 25.2614 35.4021 24.5933 34.5618 24.5933C33.7215 24.5933 33.0371 25.2605 33.0371 26.082C33.0362 26.9034 33.7205 27.5706 34.5618 27.5706Z" fill="#00823B"/>
<path d="M42.5414 27.5716C43.3834 27.5716 44.066 26.9051 44.066 26.0829C44.066 25.2607 43.3834 24.5942 42.5414 24.5942C41.6994 24.5942 41.0167 25.2607 41.0167 26.0829C41.0167 26.9051 41.6994 27.5716 42.5414 27.5716Z" fill="#00823B"/>
<path d="M50.5216 27.5706C51.3619 27.5706 52.0463 26.9034 52.0463 26.082C52.0463 25.2614 51.3619 24.5933 50.5216 24.5933C49.6804 24.5933 48.9969 25.2605 48.9969 26.082C48.9969 26.9034 49.6804 27.5706 50.5216 27.5706Z" fill="#00823B"/>
<path d="M58.5022 24.5942C57.6619 24.5942 56.9775 25.2615 56.9775 26.0829C56.9775 26.9035 57.6619 27.5716 58.5022 27.5716C59.3434 27.5716 60.0267 26.9044 60.0267 26.0829C60.0267 25.2615 59.3424 24.5942 58.5022 24.5942Z" fill="#00823B"/>
<path d="M2.64092 20.8257C4.09946 20.8257 5.28184 19.6715 5.28184 18.2477C5.28184 16.8239 4.09946 15.6697 2.64092 15.6697C1.18238 15.6697 0 16.8239 0 18.2477C0 19.6715 1.18238 20.8257 2.64092 20.8257Z" fill="#00823B"/>
<path d="M10.6214 15.6697C9.16483 15.6697 7.98047 16.8262 7.98047 18.2477C7.98047 19.6692 9.16483 20.8257 10.6214 20.8257C12.078 20.8257 13.2624 19.6692 13.2624 18.2477C13.2624 16.8262 12.078 15.6697 10.6214 15.6697Z" fill="#00823B"/>
<path d="M18.6008 15.6697C17.1442 15.6697 15.9598 16.8262 15.9598 18.2477C15.9598 19.6692 17.1442 20.8257 18.6008 20.8257C20.0574 20.8257 21.2417 19.6692 21.2417 18.2477C21.2417 16.8262 20.0574 15.6697 18.6008 15.6697Z" fill="#00823B"/>
<path d="M26.5813 19.7362C27.4234 19.7362 28.1059 19.0697 28.1059 18.2475C28.1059 17.4253 27.4234 16.7588 26.5813 16.7588C25.7393 16.7588 25.0566 17.4253 25.0566 18.2475C25.0566 19.0697 25.7393 19.7362 26.5813 19.7362Z" fill="#00823B"/>
<path d="M34.5618 19.7362C35.403 19.7362 36.0864 19.069 36.0864 18.2475C36.0864 17.4269 35.4021 16.7588 34.5618 16.7588C33.7215 16.7588 33.0371 17.426 33.0371 18.2475C33.0362 19.068 33.7205 19.7362 34.5618 19.7362Z" fill="#00823B"/>
<path d="M50.5218 15.6697C49.0652 15.6697 47.8809 16.8262 47.8809 18.2477C47.8809 19.6692 49.0652 20.8257 50.5218 20.8257C51.9783 20.8257 53.1627 19.6692 53.1627 18.2477C53.1627 16.8262 51.9783 15.6697 50.5218 15.6697Z" fill="#00823B"/>
<path d="M58.5022 20.8257C59.9588 20.8257 61.1432 19.6692 61.1432 18.2477C61.1432 16.8262 59.9588 15.6697 58.5022 15.6697C57.0456 15.6697 55.8612 16.8262 55.8612 18.2477C55.8612 19.6692 57.0456 20.8257 58.5022 20.8257Z" fill="#00823B"/>
<path d="M2.64089 11.901C3.48293 11.901 4.16552 11.2345 4.16552 10.4123C4.16552 9.59009 3.48293 8.92358 2.64089 8.92358C1.79885 8.92358 1.11621 9.59009 1.11621 10.4123C1.11621 11.2345 1.79885 11.901 2.64089 11.901Z" fill="#00823B"/>
<path d="M10.6214 7.83521C9.16483 7.83521 7.98047 8.99171 7.98047 10.4132C7.98047 11.8347 9.16483 12.9912 10.6214 12.9912C12.078 12.9912 13.2624 11.8347 13.2624 10.4132C13.2624 8.99171 12.078 7.83521 10.6214 7.83521Z" fill="#00823B"/>
<path d="M18.6008 7.83521C17.1442 7.83521 15.9598 8.99171 15.9598 10.4132C15.9598 11.8347 17.1442 12.9912 18.6008 12.9912C20.0574 12.9912 21.2417 11.8347 21.2417 10.4132C21.2427 8.99171 20.0574 7.83521 18.6008 7.83521Z" fill="#00823B"/>
<path d="M26.5813 7.83521C25.1247 7.83521 23.9403 8.99171 23.9403 10.4132C23.9403 11.8347 25.1247 12.9912 26.5813 12.9912C28.0378 12.9912 29.2222 11.8347 29.2222 10.4132C29.2222 8.99171 28.0378 7.83521 26.5813 7.83521Z" fill="#00823B"/>
<path d="M34.5617 7.83521C33.1051 7.83521 31.9208 8.99171 31.9208 10.4132C31.9208 11.8347 33.1051 12.9912 34.5617 12.9912C36.0183 12.9912 37.2026 11.8347 37.2026 10.4132C37.2026 8.99171 36.0173 7.83521 34.5617 7.83521Z" fill="#00823B"/>
<path d="M42.5413 7.83521C41.0847 7.83521 39.9004 8.99171 39.9004 10.4132C39.9004 11.8347 41.0847 12.9912 42.5413 12.9912C43.9979 12.9912 45.1822 11.8347 45.1822 10.4132C45.1831 8.99171 43.9979 7.83521 42.5413 7.83521Z" fill="#00823B"/>
<path d="M50.5218 7.83521C49.0652 7.83521 47.8809 8.99171 47.8809 10.4132C47.8809 11.8347 49.0652 12.9912 50.5218 12.9912C51.9783 12.9912 53.1627 11.8347 53.1627 10.4132C53.1627 8.99171 51.9783 7.83521 50.5218 7.83521Z" fill="#00823B"/>
<path d="M58.5022 11.901C59.3434 11.901 60.0267 11.2338 60.0267 10.4123C60.0267 9.5908 59.3424 8.92358 58.5022 8.92358C57.6619 8.92358 56.9775 9.5908 56.9775 10.4123C56.9775 11.2338 57.6609 11.901 58.5022 11.901Z" fill="#00823B"/>
<path d="M42.5413 15.6697C41.0847 15.6697 39.9004 16.8262 39.9004 18.2477C39.9004 19.6692 41.0847 20.8257 42.5413 20.8257C43.9979 20.8257 45.1822 19.6692 45.1822 18.2477C45.1831 16.8262 43.9979 15.6697 42.5413 15.6697Z" fill="#00823B"/>
<path d="M42.5413 39.1743C41.0847 39.1743 39.9004 40.3308 39.9004 41.7523C39.9004 43.1738 41.0847 44.3303 42.5413 44.3303C43.9979 44.3303 45.1822 43.1738 45.1822 41.7523C45.1831 40.3308 43.9979 39.1743 42.5413 39.1743Z" fill="#00823B"/>
</svg>
