<svg id="Layer_1" data-name="Layer 1" xmlns="http://www.w3.org/2000/svg" viewBox="0 0 228.3 223.7"><ellipse cx="9.9" cy="9.6" rx="5.7" ry="5.6" style="fill:#00823b"/><path d="M39.6,15.2A5.51,5.51,0,0,0,45,9.5a5.42,5.42,0,0,0-5.6-5.4A5.53,5.53,0,0,0,34,9.6,5.59,5.59,0,0,0,39.6,15.2Z" style="fill:#00823b"/><path d="M69.4,0a9.65,9.65,0,1,0,9.9,9.7A9.69,9.69,0,0,0,69.4,0Z" style="fill:#00823b"/><path d="M99.2,0a9.65,9.65,0,1,0,9.9,9.7A9.69,9.69,0,0,0,99.2,0Z" style="fill:#00823b"/><path d="M129,0a9.65,9.65,0,1,0,9.9,9.7A9.69,9.69,0,0,0,129,0Z" style="fill:#00823b"/><path d="M158.8,0a9.65,9.65,0,1,0,9.9,9.7A9.69,9.69,0,0,0,158.8,0Z" style="fill:#00823b"/><path d="M188.6,15.2a5.55,5.55,0,1,0-5.7-5.6A5.68,5.68,0,0,0,188.6,15.2Z" style="fill:#00823b"/><path d="M218.4,15.2a5.55,5.55,0,1,0-5.7-5.6A5.68,5.68,0,0,0,218.4,15.2Z" style="fill:#00823b"/><ellipse cx="9.9" cy="214.1" rx="5.7" ry="5.5" style="fill:#00823b"/><path d="M39.6,208.5a5.55,5.55,0,1,0,5.7,5.6A5.68,5.68,0,0,0,39.6,208.5Z" style="fill:#00823b"/><path d="M69.4,204.5a9.65,9.65,0,1,0,9.9,9.7A9.75,9.75,0,0,0,69.4,204.5Z" style="fill:#00823b"/><path d="M99.2,204.5a9.65,9.65,0,1,0,9.9,9.7A9.75,9.75,0,0,0,99.2,204.5Z" style="fill:#00823b"/><path d="M129,204.5a9.65,9.65,0,1,0,9.9,9.7A9.75,9.75,0,0,0,129,204.5Z" style="fill:#00823b"/><path d="M158.8,204.5a9.65,9.65,0,1,0,9.9,9.7A9.75,9.75,0,0,0,158.8,204.5Z" style="fill:#00823b"/><path d="M188.6,208.5a5.55,5.55,0,1,0,5.7,5.6A5.74,5.74,0,0,0,188.6,208.5Z" style="fill:#00823b"/><path d="M218.4,208.5a5.55,5.55,0,1,0,5.7,5.6A5.74,5.74,0,0,0,218.4,208.5Z" style="fill:#00823b"/><ellipse cx="9.9" cy="184.9" rx="5.7" ry="5.5" style="fill:#00823b"/><path d="M39.6,175.3a9.65,9.65,0,1,0,9.9,9.7A9.69,9.69,0,0,0,39.6,175.3Z" style="fill:#00823b"/><path d="M69.4,175.3a9.65,9.65,0,1,0,9.9,9.7A9.69,9.69,0,0,0,69.4,175.3Z" style="fill:#00823b"/><path d="M99.2,175.3a9.65,9.65,0,1,0,9.9,9.7A9.69,9.69,0,0,0,99.2,175.3Z" style="fill:#00823b"/><path d="M129,175.3a9.65,9.65,0,1,0,9.9,9.7A9.69,9.69,0,0,0,129,175.3Z" style="fill:#00823b"/><path d="M158.8,175.3a9.65,9.65,0,1,0,9.9,9.7A9.69,9.69,0,0,0,158.8,175.3Z" style="fill:#00823b"/><path d="M188.6,175.3a9.65,9.65,0,1,0,9.9,9.7A9.69,9.69,0,0,0,188.6,175.3Z" style="fill:#00823b"/><path d="M218.4,179.3a5.55,5.55,0,1,0,5.7,5.6A5.74,5.74,0,0,0,218.4,179.3Z" style="fill:#00823b"/><ellipse cx="9.9" cy="155.7" rx="9.9" ry="9.6" style="fill:#00823b"/><path d="M39.6,146.1a9.65,9.65,0,1,0,9.9,9.7A9.69,9.69,0,0,0,39.6,146.1Z" style="fill:#00823b"/><path d="M69.4,146.1a9.65,9.65,0,1,0,9.9,9.7A9.69,9.69,0,0,0,69.4,146.1Z" style="fill:#00823b"/><ellipse cx="99.2" cy="155.7" rx="5.7" ry="5.5" style="fill:#00823b"/><path d="M129,161.2a5.55,5.55,0,1,0-5.7-5.6A5.68,5.68,0,0,0,129,161.2Z" style="fill:#00823b"/><path d="M188.6,146.1a9.65,9.65,0,1,0,9.9,9.7A9.69,9.69,0,0,0,188.6,146.1Z" style="fill:#00823b"/><path d="M218.4,146.1a9.65,9.65,0,1,0,9.9,9.7A9.81,9.81,0,0,0,218.4,146.1Z" style="fill:#00823b"/><ellipse cx="9.9" cy="126.5" rx="9.9" ry="9.6" style="fill:#00823b"/><path d="M39.6,116.8a9.65,9.65,0,1,0,9.9,9.7A9.88,9.88,0,0,0,39.6,116.8Z" style="fill:#00823b"/><ellipse cx="69.4" cy="126.5" rx="5.7" ry="5.5" style="fill:#00823b"/><ellipse cx="99.2" cy="126.5" rx="5.7" ry="5.5" style="fill:#00823b"/><path d="M129,132a5.55,5.55,0,1,0-5.7-5.6A5.68,5.68,0,0,0,129,132Z" style="fill:#00823b"/><ellipse cx="158.8" cy="126.5" rx="5.7" ry="5.5" style="fill:#00823b"/><path d="M188.6,132a5.55,5.55,0,1,0-5.7-5.6A5.61,5.61,0,0,0,188.6,132Z" style="fill:#00823b"/><path d="M218.4,120.9a5.55,5.55,0,1,0,5.7,5.6A5.68,5.68,0,0,0,218.4,120.9Z" style="fill:#00823b"/><ellipse cx="9.9" cy="97.2" rx="9.9" ry="9.6" style="fill:#00823b"/><path d="M39.6,87.6a9.65,9.65,0,1,0,9.9,9.7A9.88,9.88,0,0,0,39.6,87.6Z" style="fill:#00823b"/><ellipse cx="69.4" cy="97.2" rx="5.7" ry="5.6" style="fill:#00823b"/><ellipse cx="99.2" cy="97.2" rx="5.7" ry="5.6" style="fill:#00823b"/><path d="M129,102.8a5.55,5.55,0,1,0-5.7-5.6A5.74,5.74,0,0,0,129,102.8Z" style="fill:#00823b"/><ellipse cx="158.8" cy="97.2" rx="5.7" ry="5.6" style="fill:#00823b"/><path d="M188.6,102.8a5.55,5.55,0,1,0-5.7-5.6A5.68,5.68,0,0,0,188.6,102.8Z" style="fill:#00823b"/><path d="M218.4,91.7a5.55,5.55,0,1,0,5.7,5.6A5.68,5.68,0,0,0,218.4,91.7Z" style="fill:#00823b"/><ellipse cx="9.9" cy="68" rx="9.9" ry="9.6" style="fill:#00823b"/><path d="M39.6,58.4a9.65,9.65,0,1,0,9.9,9.7A9.88,9.88,0,0,0,39.6,58.4Z" style="fill:#00823b"/><path d="M69.4,58.4a9.65,9.65,0,1,0,9.9,9.7A9.88,9.88,0,0,0,69.4,58.4Z" style="fill:#00823b"/><ellipse cx="99.2" cy="68" rx="5.7" ry="5.6" style="fill:#00823b"/><path d="M129,73.6a5.55,5.55,0,1,0-5.7-5.6A5.74,5.74,0,0,0,129,73.6Z" style="fill:#00823b"/><path d="M188.6,58.4a9.65,9.65,0,1,0,9.9,9.7A9.88,9.88,0,0,0,188.6,58.4Z" style="fill:#00823b"/><path d="M218.4,77.6a9.6,9.6,0,1,0-9.8-9.6A9.6,9.6,0,0,0,218.4,77.6Z" style="fill:#00823b"/><ellipse cx="9.9" cy="38.8" rx="5.7" ry="5.6" style="fill:#00823b"/><path d="M39.6,29.2a9.65,9.65,0,1,0,9.9,9.7A9.69,9.69,0,0,0,39.6,29.2Z" style="fill:#00823b"/><path d="M69.4,29.2a9.65,9.65,0,1,0,9.9,9.7A9.69,9.69,0,0,0,69.4,29.2Z" style="fill:#00823b"/><path d="M99.2,29.2a9.65,9.65,0,1,0,9.9,9.7A9.69,9.69,0,0,0,99.2,29.2Z" style="fill:#00823b"/><path d="M129,29.2a9.65,9.65,0,1,0,9.9,9.7A9.69,9.69,0,0,0,129,29.2Z" style="fill:#00823b"/><path d="M158.8,29.2a9.65,9.65,0,1,0,9.9,9.7A9.69,9.69,0,0,0,158.8,29.2Z" style="fill:#00823b"/><path d="M188.6,29.2a9.65,9.65,0,1,0,9.9,9.7A9.69,9.69,0,0,0,188.6,29.2Z" style="fill:#00823b"/><path d="M218.4,44.4a5.55,5.55,0,1,0-5.7-5.6A5.68,5.68,0,0,0,218.4,44.4Z" style="fill:#00823b"/><path d="M158.8,58.4a9.65,9.65,0,1,0,9.9,9.7A9.88,9.88,0,0,0,158.8,58.4Z" style="fill:#00823b"/><path d="M158.8,146.1a9.65,9.65,0,1,0,9.9,9.7A9.69,9.69,0,0,0,158.8,146.1Z" style="fill:#00823b"/></svg>