<?xml version="1.0" encoding="utf-8"?>
<!-- Generator: Adobe Illustrator 25.1.0, SVG Export Plug-In . SVG Version: 6.00 Build 0)  -->
<svg version="1.1" id="Layer_1" xmlns="http://www.w3.org/2000/svg" xmlns:xlink="http://www.w3.org/1999/xlink" x="0px" y="0px"
	 viewBox="0 0 609.8 223.7" style="enable-background:new 0 0 609.8 223.7;" xml:space="preserve">
<style type="text/css">
	.st0{fill:#FFFFFF;}
</style>
<g>
	<path class="st0" d="M280.7,52.6c0-14.6,9.8-24.6,25.6-24.6c13,0,21.1,6.6,23.2,16.9l-9.4,1.4c-1.3-6.9-6.2-11-14-11
		c-9.9,0-15.9,6.8-15.9,17.3c0,10.2,6,17.3,16.1,17.3c7.4,0,12.4-3.9,14.1-10.6l9.1,1.8c-2.8,9.8-10.6,16.1-23.5,16.1
		C289.7,77.2,280.7,67.1,280.7,52.6z"/>
	<path class="st0" d="M334.7,67.1c-0.1-3,1.4-5.8,4-7.4c2.4-1.5,5.6-2.4,11.8-3l11.8-1v-0.7c0-4.8-3-7-8.5-7c-5.5,0-8.7,2.1-9.2,6
		h-8.9c0.8-7.1,7.7-11.8,18-11.8c11.6,0,17,4.5,17,14v9.3c-0.1,3.5,0.2,7.1,0.8,10.6h-8.5c-0.3-2-0.5-4-0.5-6c-2.2,4.4-7.4,7-14.6,7
		C339.9,76.9,334.7,73.2,334.7,67.1z M362.4,62.1v-1.7l-11.1,1.1c-5.7,0.6-7.8,2.1-7.8,5.1c0,3,2.7,4.7,7.3,4.7
		C357.6,71.3,362.4,67.7,362.4,62.1z"/>
	<path class="st0" d="M381.2,43.1h8.2v7c2.6-5.3,7.3-8.1,13.9-8.1c9.2,0,14.1,5.3,14.1,15.4v18.4H409V58.6c0-6.6-2.9-9.8-8.9-9.8
		c-6.4,0-10.4,4.1-10.4,11.2v16h-8.5V43.1z"/>
	<path class="st0" d="M424.9,67.1c-0.1-3,1.4-5.8,4-7.4c2.4-1.5,5.6-2.4,11.8-3l11.8-1v-0.7c0-4.8-3-7-8.5-7s-8.7,2.1-9.2,6H426
		c0.8-7.1,7.7-11.8,18-11.8c11.6,0,17,4.5,17,14v9.3c-0.1,3.5,0.2,7.1,0.8,10.6h-8.5c-0.3-2-0.5-4-0.5-6c-2.2,4.4-7.3,7-14.6,7
		C430.1,76.9,424.9,73.2,424.9,67.1z M452.6,62.1v-1.7l-11.1,1.1c-5.7,0.6-7.8,2.1-7.8,5.1c0,3,2.7,4.7,7.3,4.7
		C447.9,71.3,452.6,67.7,452.6,62.1z"/>
	<path class="st0" d="M468.1,59.5c0-10.3,7-17.4,17.1-17.4c5.8,0,10.1,2,12.9,6V28.4h8.5v47.6h-8.1v-6.2c-2.6,4.5-7.3,7.1-13.8,7.1
		C474.9,76.9,468.1,69.9,468.1,59.5z M498.3,60.4v-1.6c0-6.4-4.4-10.4-10.9-10.4S477,52.5,477,59.5s4.1,11.2,10.6,11.2
		S498.3,66.6,498.3,60.4z"/>
	<path class="st0" d="M515.4,67.1c-0.1-3,1.4-5.8,4-7.4c2.4-1.5,5.6-2.4,11.8-3l11.8-1v-0.7c0-4.8-3-7-8.5-7s-8.7,2.1-9.2,6h-8.8
		c0.8-7.1,7.7-11.8,18-11.8c11.6,0,17,4.5,17,14v9.3c-0.1,3.5,0.2,7.1,0.8,10.6h-8.5c-0.3-2-0.5-4-0.5-6c-2.2,4.4-7.3,7-14.6,7
		C520.5,76.9,515.4,73.2,515.4,67.1z M543,62.1v-1.7L532,61.5c-5.7,0.6-7.8,2.1-7.8,5.1c0,3,2.7,4.7,7.3,4.7
		C538.3,71.3,543,67.7,543,62.1z"/>
	<path class="st0" d="M560.3,44.9c3.7-1.1,4.7-2.9,4.7-5.8v-0.2h-5.1v-9.5h10v8.8c0,5.5-2,8.9-7.9,10.6L560.3,44.9z"/>
	<path class="st0" d="M574.6,67.5l5.8-3.2c2.4,4.3,6.8,6.7,13.8,6.7c5.2,0,7.8-1.4,7.8-4.2c0-2.5-1.4-3.6-5.2-3.9l-9.1-0.8
		c-7.6-0.8-11.3-4.2-11.3-9.7c0-6.5,5.9-10.2,16.1-10.2c8.5,0,14.7,3,17.3,8l-5.4,3.4c-2.4-3.6-6.2-5.6-12.4-5.6c-5,0-7.7,1.4-7.7,4
		c0,2.2,1.6,3.4,5.3,3.8l9.5,0.9c7.7,0.7,10.8,4.1,10.8,9.6c0,6.7-5.4,10.8-16.2,10.8C584.1,76.9,577.8,73.6,574.6,67.5z"/>
	<path class="st0" d="M293.9,98.7v12.6h26.4v7h-26.4v20h-9.1V91.7h36.6v7L293.9,98.7z"/>
	<path class="st0" d="M325.4,121.9c0-10.8,7.9-17.4,19.6-17.4s19.6,6.6,19.6,17.4s-8,17.4-19.6,17.4S325.4,132.6,325.4,121.9z
		 M355.7,121.9c0-7.2-4.1-11.2-10.8-11.2s-10.8,3.9-10.8,11.2c0,7.2,4.1,11.2,10.8,11.2C351.7,133.1,355.7,129,355.7,121.9z"/>
	<path class="st0" d="M392.4,104.6c0.8,0,1.6,0.1,2.4,0.2v7.8c-0.8-0.1-1.7-0.2-2.6-0.2c-3.8,0-6.3,1-8.1,2.8
		c-2.6,2.6-3.2,6.4-3.2,10.3v12.8h-8.5v-32.8h7.7v8.6C381.9,108.4,386.3,104.6,392.4,104.6z"/>
	<path class="st0" d="M435,124h-29.3c0.3,5.5,4.6,9.1,11.4,9.1c5,0,8.7-2,10.8-5.7l6.6,3c-3.3,5.8-9.4,8.9-17.7,8.9
		c-12,0-19.4-6.2-19.4-17.1c0-11.2,7.4-17.7,19-17.7s18.6,6,18.6,16.5L435,124z M426.5,118.3c-0.1-5.4-4.2-8.5-10.3-8.5
		c-6.4,0-10.3,3.4-10.6,8.8h20.9V118.3z"/>
	<path class="st0" d="M439.5,129.9l5.8-3.2c2.4,4.3,6.8,6.7,13.8,6.7c5.2,0,7.7-1.4,7.7-4.2c0-2.5-1.4-3.5-5.2-3.9l-9.1-0.8
		c-7.6-0.8-11.3-4.2-11.3-9.7c0-6.5,5.9-10.2,16.1-10.2c8.5,0,14.7,3,17.3,8l-5.4,3.4c-2.4-3.6-6.2-5.6-12.4-5.6c-5,0-7.7,1.4-7.7,4
		c0,2.2,1.6,3.4,5.3,3.8l9.5,0.9c7.8,0.7,10.8,4.1,10.8,9.6c0,6.7-5.4,10.8-16.2,10.8C449,139.3,442.6,136,439.5,129.9z"/>
	<path class="st0" d="M477.7,105.5h7.6v-8.2l8.5-3.3v11.5H505v6h-11.2v14.4c0,4.2,2,6.1,6.3,6.1c1.6,0,3.3-0.2,4.9-0.6v6.7
		c-2.3,0.6-4.6,0.9-7,0.9c-9.4,0-12.7-4.7-12.7-11.9v-15.7h-7.6L477.7,105.5z"/>
	<path class="st0" d="M321.9,161.3h-16.9v39.3H296v-39.3h-16.9v-7.2h42.8V161.3z"/>
	<path class="st0" d="M344.1,167c0.8,0,1.6,0.1,2.4,0.2v7.8c-0.8-0.1-1.7-0.2-2.6-0.2c-3.8,0-6.3,1-8.1,2.8
		c-2.6,2.6-3.2,6.4-3.2,10.3v12.8h-8.4v-32.8h7.8v8.6C333.6,170.8,338,167,344.1,167z"/>
	<path class="st0" d="M352.3,187.3v-19.5h8.5v18c0,6.7,3.6,9.2,8.3,9.2c7,0,10.4-5,10.4-10.8v-16.4h8.5v32.8h-8.2v-7
		c-2.1,5-7.3,7.9-13.4,7.9C356.8,201.6,352.3,196.4,352.3,187.3z"/>
	<path class="st0" d="M395.6,192.2l5.8-3.2c2.4,4.3,6.8,6.7,13.8,6.7c5.2,0,7.8-1.4,7.8-4.2c0-2.5-1.4-3.5-5.2-3.9l-9.1-0.8
		c-7.6-0.8-11.3-4.2-11.3-9.7c0-6.5,5.9-10.2,16.1-10.2c8.5,0,14.7,3,17.3,8l-5.4,3.4c-2.4-3.6-6.2-5.6-12.4-5.6c-5,0-7.7,1.4-7.7,4
		c0,2.2,1.6,3.4,5.3,3.8l9.5,0.9c7.7,0.7,10.8,4.1,10.8,9.6c0,6.7-5.4,10.8-16.2,10.8C405.1,201.6,398.7,198.3,395.6,192.2z"/>
	<path class="st0" d="M433.8,167.8h7.6v-8.2l8.5-3.3v11.5h11.2v6h-11.1v14.4c0,4.2,2,6.1,6.3,6.1c1.6,0,3.3-0.2,4.9-0.6v6.8
		c-2.3,0.6-4.6,0.9-7,0.9c-9.4,0-12.7-4.7-12.7-11.9v-15.7h-7.6L433.8,167.8z"/>
	<ellipse class="st0" cx="9.9" cy="9.6" rx="5.7" ry="5.6"/>
	<path class="st0" d="M39.6,15.2c3.1-0.1,5.5-2.6,5.4-5.7C45,6.4,42.4,4,39.4,4.1c-3,0.1-5.4,2.5-5.4,5.5
		C34,12.7,36.5,15.2,39.6,15.2z"/>
	<path class="st0" d="M69.4,0c-5.3,0.1-9.5,4.6-9.4,9.9c0.1,5.3,4.6,9.5,9.9,9.4c5.2-0.1,9.4-4.4,9.4-9.6C79.2,4.2,74.8-0.1,69.4,0z
		"/>
	<path class="st0" d="M99.2,0c-5.3,0.1-9.5,4.6-9.4,9.9c0.1,5.3,4.6,9.5,9.9,9.4c5.2-0.1,9.4-4.4,9.4-9.6C109,4.2,104.6-0.1,99.2,0z
		"/>
	<path class="st0" d="M129,0c-5.3,0.1-9.5,4.6-9.4,9.9s4.6,9.5,9.9,9.4c5.2-0.1,9.4-4.4,9.4-9.6C138.8,4.2,134.4-0.1,129,0z"/>
	<path class="st0" d="M158.8,0c-5.3,0.1-9.5,4.6-9.4,9.9s4.6,9.5,9.9,9.4c5.2-0.1,9.4-4.4,9.4-9.6C168.6,4.2,164.2-0.1,158.8,0z"/>
	<path class="st0" d="M188.6,15.2c3.1-0.1,5.5-2.6,5.4-5.7c-0.1-3.1-2.6-5.5-5.7-5.4c-3,0.1-5.4,2.5-5.4,5.5
		C182.9,12.7,185.5,15.2,188.6,15.2z"/>
	<path class="st0" d="M218.4,15.2c3.1-0.1,5.5-2.6,5.4-5.7c-0.1-3.1-2.6-5.5-5.7-5.4c-3,0.1-5.4,2.5-5.4,5.5
		C212.7,12.7,215.3,15.2,218.4,15.2z"/>
	<ellipse class="st0" cx="9.9" cy="214.1" rx="5.7" ry="5.5"/>
	<path class="st0" d="M39.6,208.5c-3.1,0.1-5.5,2.6-5.4,5.7s2.6,5.5,5.7,5.4c3-0.1,5.4-2.5,5.4-5.5C45.3,211,42.7,208.5,39.6,208.5z
		"/>
	<path class="st0" d="M69.4,204.5c-5.3,0.1-9.5,4.5-9.4,9.9c0.1,5.3,4.5,9.5,9.9,9.4c5.2-0.1,9.4-4.4,9.4-9.6
		C79.2,208.7,74.8,204.4,69.4,204.5z"/>
	<path class="st0" d="M99.2,204.5c-5.3,0.1-9.5,4.5-9.4,9.9c0.1,5.3,4.5,9.5,9.9,9.4c5.2-0.1,9.4-4.4,9.4-9.6
		C109,208.7,104.6,204.4,99.2,204.5z"/>
	<path class="st0" d="M129,204.5c-5.3,0.1-9.5,4.5-9.4,9.9c0.1,5.3,4.5,9.5,9.9,9.4c5.2-0.1,9.4-4.4,9.4-9.6
		C138.8,208.7,134.4,204.4,129,204.5z"/>
	<path class="st0" d="M158.8,204.5c-5.3,0.1-9.5,4.5-9.4,9.9c0.1,5.3,4.5,9.5,9.9,9.4c5.2-0.1,9.4-4.4,9.4-9.6
		C168.6,208.7,164.2,204.4,158.8,204.5z"/>
	<path class="st0" d="M188.6,208.5c-3.1,0.1-5.5,2.6-5.4,5.7s2.6,5.5,5.7,5.4c3-0.1,5.4-2.5,5.4-5.5
		C194.2,211,191.7,208.5,188.6,208.5z"/>
	<path class="st0" d="M218.4,208.5c-3.1,0.1-5.5,2.6-5.4,5.7c0.1,3.1,2.6,5.5,5.7,5.4c3-0.1,5.4-2.5,5.4-5.5
		C224,211,221.5,208.5,218.4,208.5z"/>
	<ellipse class="st0" cx="9.9" cy="184.9" rx="5.7" ry="5.5"/>
	<path class="st0" d="M39.6,175.3c-5.3,0.1-9.5,4.6-9.4,9.9c0.1,5.3,4.6,9.5,9.9,9.4c5.2-0.1,9.4-4.4,9.4-9.6
		C49.4,179.5,45,175.2,39.6,175.3z"/>
	<path class="st0" d="M69.4,175.3c-5.3,0.1-9.5,4.6-9.4,9.9c0.1,5.3,4.6,9.5,9.9,9.4c5.2-0.1,9.4-4.4,9.4-9.6
		C79.2,179.5,74.8,175.2,69.4,175.3z"/>
	<path class="st0" d="M99.2,175.3c-5.3,0.1-9.5,4.6-9.4,9.9c0.1,5.3,4.6,9.5,9.9,9.4c5.2-0.1,9.4-4.4,9.4-9.6
		C109,179.5,104.6,175.2,99.2,175.3z"/>
	<path class="st0" d="M129,175.3c-5.3,0.1-9.5,4.6-9.4,9.9c0.1,5.3,4.6,9.5,9.9,9.4c5.2-0.1,9.4-4.4,9.4-9.6
		C138.8,179.5,134.4,175.2,129,175.3z"/>
	<path class="st0" d="M158.8,175.3c-5.3,0.1-9.5,4.6-9.4,9.9c0.1,5.3,4.6,9.5,9.9,9.4c5.2-0.1,9.4-4.4,9.4-9.6
		C168.6,179.5,164.2,175.2,158.8,175.3z"/>
	<path class="st0" d="M188.6,175.3c-5.3,0.1-9.5,4.6-9.4,9.9c0.1,5.3,4.6,9.5,9.9,9.4c5.2-0.1,9.4-4.4,9.4-9.6
		C198.4,179.5,194,175.2,188.6,175.3z"/>
	<path class="st0" d="M218.4,179.3c-3.1,0.1-5.5,2.6-5.4,5.7c0.1,3.1,2.6,5.5,5.7,5.4c3-0.1,5.4-2.5,5.4-5.5
		C224,181.8,221.5,179.3,218.4,179.3z"/>
	<ellipse class="st0" cx="9.9" cy="155.7" rx="9.9" ry="9.6"/>
	<path class="st0" d="M39.6,146.1c-5.3,0.1-9.5,4.6-9.4,9.9c0.1,5.3,4.6,9.5,9.9,9.4c5.2-0.1,9.4-4.4,9.4-9.6
		C49.4,150.3,45,146,39.6,146.1z"/>
	<path class="st0" d="M69.4,146.1c-5.3,0.1-9.5,4.6-9.4,9.9c0.1,5.3,4.6,9.5,9.9,9.4c5.2-0.1,9.4-4.4,9.4-9.6
		C79.2,150.3,74.8,146,69.4,146.1z"/>
	<ellipse class="st0" cx="99.2" cy="155.7" rx="5.7" ry="5.5"/>
	<path class="st0" d="M129,161.2c3.1-0.1,5.5-2.6,5.4-5.7s-2.6-5.5-5.7-5.4c-3,0.1-5.4,2.5-5.4,5.5
		C123.4,158.8,125.9,161.2,129,161.2z"/>
	<path class="st0" d="M188.6,146.1c-5.3,0.1-9.5,4.6-9.4,9.9c0.1,5.3,4.6,9.5,9.9,9.4c5.2-0.1,9.4-4.4,9.4-9.6
		C198.4,150.3,194,146,188.6,146.1z"/>
	<path class="st0" d="M218.4,146.1c-5.3,0.1-9.5,4.6-9.4,9.9c0.1,5.3,4.6,9.5,9.9,9.4c5.2-0.1,9.4-4.4,9.4-9.6
		C228.2,150.3,223.7,146,218.4,146.1z"/>
	<ellipse class="st0" cx="9.9" cy="126.5" rx="9.9" ry="9.6"/>
	<path class="st0" d="M39.6,116.8c-5.3,0.1-9.5,4.6-9.4,9.9c0.1,5.3,4.6,9.5,9.9,9.4c5.2-0.1,9.4-4.4,9.4-9.6
		C49.4,121.1,45,116.8,39.6,116.8z"/>
	<ellipse class="st0" cx="69.4" cy="126.5" rx="5.7" ry="5.5"/>
	<ellipse class="st0" cx="99.2" cy="126.5" rx="5.7" ry="5.5"/>
	<path class="st0" d="M129,132c3.1-0.1,5.5-2.6,5.4-5.7c-0.1-3.1-2.6-5.5-5.7-5.4c-3,0.1-5.4,2.5-5.4,5.5
		C123.4,129.6,125.9,132,129,132z"/>
	<ellipse class="st0" cx="158.8" cy="126.5" rx="5.7" ry="5.5"/>
	<path class="st0" d="M188.6,132c3.1-0.1,5.5-2.6,5.4-5.7c-0.1-3.1-2.6-5.5-5.7-5.4c-3,0.1-5.4,2.5-5.4,5.5
		C182.9,129.6,185.5,132,188.6,132z"/>
	<path class="st0" d="M218.4,120.9c-3.1,0.1-5.5,2.6-5.4,5.7c0.1,3.1,2.6,5.5,5.7,5.4c3-0.1,5.4-2.5,5.4-5.5
		C224,123.3,221.5,120.9,218.4,120.9z"/>
	<ellipse class="st0" cx="9.9" cy="97.2" rx="9.9" ry="9.6"/>
	<path class="st0" d="M39.6,87.6c-5.3,0.1-9.5,4.6-9.4,9.9c0.1,5.3,4.6,9.5,9.9,9.4c5.2-0.1,9.4-4.4,9.4-9.6
		C49.4,91.9,45,87.6,39.6,87.6z"/>
	<ellipse class="st0" cx="69.4" cy="97.2" rx="5.7" ry="5.6"/>
	<ellipse class="st0" cx="99.2" cy="97.2" rx="5.7" ry="5.6"/>
	<path class="st0" d="M129,102.8c3.1-0.1,5.5-2.6,5.4-5.7c-0.1-3.1-2.6-5.5-5.7-5.4c-3,0.1-5.4,2.5-5.4,5.5
		C123.4,100.3,125.9,102.8,129,102.8z"/>
	<ellipse class="st0" cx="158.8" cy="97.2" rx="5.7" ry="5.6"/>
	<path class="st0" d="M188.6,102.8c3.1-0.1,5.5-2.6,5.4-5.7c-0.1-3.1-2.6-5.5-5.7-5.4c-3,0.1-5.4,2.5-5.4,5.5
		C182.9,100.3,185.5,102.8,188.6,102.8z"/>
	<path class="st0" d="M218.4,91.7c-3.1,0.1-5.5,2.6-5.4,5.7c0.1,3.1,2.6,5.5,5.7,5.4c3-0.1,5.4-2.5,5.4-5.5
		C224,94.1,221.5,91.7,218.4,91.7z"/>
	<ellipse class="st0" cx="9.9" cy="68" rx="9.9" ry="9.6"/>
	<path class="st0" d="M39.6,58.4c-5.3,0.1-9.5,4.6-9.4,9.9c0.1,5.3,4.6,9.5,9.9,9.4c5.2-0.1,9.4-4.4,9.4-9.6
		C49.4,62.7,45,58.4,39.6,58.4z"/>
	<path class="st0" d="M69.4,58.4c-5.3,0.1-9.5,4.6-9.4,9.9c0.1,5.3,4.6,9.5,9.9,9.4c5.2-0.1,9.4-4.4,9.4-9.6
		C79.2,62.7,74.8,58.4,69.4,58.4z"/>
	<ellipse class="st0" cx="99.2" cy="68" rx="5.7" ry="5.6"/>
	<path class="st0" d="M129,73.6c3.1-0.1,5.5-2.6,5.4-5.7c-0.1-3.1-2.6-5.5-5.7-5.4c-3,0.1-5.4,2.5-5.4,5.5
		C123.4,71.1,125.9,73.6,129,73.6z"/>
	<path class="st0" d="M188.6,58.4c-5.3,0.1-9.5,4.6-9.4,9.9s4.6,9.5,9.9,9.4c5.2-0.1,9.4-4.4,9.4-9.6
		C198.4,62.7,194,58.4,188.6,58.4z"/>
	<path class="st0" d="M218.4,77.6c5.3-0.1,9.5-4.5,9.4-9.8c-0.1-5.3-4.5-9.5-9.8-9.4c-5.2,0.1-9.4,4.4-9.4,9.6
		C208.6,73.4,213,77.7,218.4,77.6z"/>
	<ellipse class="st0" cx="9.9" cy="38.8" rx="5.7" ry="5.6"/>
	<path class="st0" d="M39.6,29.2c-5.3,0.1-9.5,4.6-9.4,9.9c0.1,5.3,4.6,9.5,9.9,9.4c5.2-0.1,9.4-4.4,9.4-9.6
		C49.4,33.4,45,29.1,39.6,29.2z"/>
	<path class="st0" d="M69.4,29.2c-5.3,0.1-9.5,4.6-9.4,9.9c0.1,5.3,4.6,9.5,9.9,9.4c5.2-0.1,9.4-4.4,9.4-9.6
		C79.2,33.4,74.8,29.1,69.4,29.2z"/>
	<path class="st0" d="M99.2,29.2c-5.3,0.1-9.5,4.6-9.4,9.9c0.1,5.3,4.6,9.5,9.9,9.4c5.2-0.1,9.4-4.4,9.4-9.6
		C109,33.4,104.6,29.1,99.2,29.2z"/>
	<path class="st0" d="M129,29.2c-5.3,0.1-9.5,4.6-9.4,9.9s4.6,9.5,9.9,9.4c5.2-0.1,9.4-4.4,9.4-9.6C138.8,33.4,134.4,29.1,129,29.2z
		"/>
	<path class="st0" d="M158.8,29.2c-5.3,0.1-9.5,4.6-9.4,9.9s4.6,9.5,9.9,9.4c5.2-0.1,9.4-4.4,9.4-9.6
		C168.6,33.4,164.2,29.1,158.8,29.2z"/>
	<path class="st0" d="M188.6,29.2c-5.3,0.1-9.5,4.6-9.4,9.9s4.6,9.5,9.9,9.4c5.2-0.1,9.4-4.4,9.4-9.6
		C198.4,33.4,194,29.1,188.6,29.2z"/>
	<path class="st0" d="M218.4,44.4c3.1-0.1,5.5-2.6,5.4-5.7c-0.1-3.1-2.6-5.5-5.7-5.4c-3,0.1-5.4,2.5-5.4,5.5
		C212.7,41.9,215.3,44.4,218.4,44.4z"/>
	<path class="st0" d="M158.8,58.4c-5.3,0.1-9.5,4.6-9.4,9.9s4.6,9.5,9.9,9.4c5.2-0.1,9.4-4.4,9.4-9.6
		C168.6,62.7,164.2,58.4,158.8,58.4z"/>
	<path class="st0" d="M158.8,146.1c-5.3,0.1-9.5,4.6-9.4,9.9c0.1,5.3,4.6,9.5,9.9,9.4c5.2-0.1,9.4-4.4,9.4-9.6
		C168.6,150.3,164.2,146,158.8,146.1z"/>
</g>
</svg>
