<svg width="338" height="327" viewBox="0 0 338 327" fill="none" xmlns="http://www.w3.org/2000/svg">
<path fill-rule="evenodd" clip-rule="evenodd" d="M102.865 0C94.8471 0 88.3274 6.30294 88.3274 14.0501C88.3274 21.7973 94.8471 28.1002 102.865 28.1002C110.884 28.1002 117.403 21.7973 117.403 14.0501C117.408 6.30294 110.884 0 102.865 0ZM23.4019 14.0502C23.4019 18.531 19.6444 22.1635 15.0092 22.1635C10.374 22.1635 6.61621 18.531 6.61621 14.0502C6.61621 9.56927 10.374 5.9368 15.0092 5.9368C19.6444 5.9368 23.4019 9.56927 23.4019 14.0502ZM67.3331 14.0502C67.3331 18.5272 63.5662 22.1635 58.9406 22.1635C54.3098 22.1635 50.5477 18.5272 50.5477 14.0502C50.5477 9.57311 54.3098 5.9368 58.9406 5.9368C63.5662 5.9368 67.3331 9.57311 67.3331 14.0502ZM132.258 14.0501C132.258 6.30294 138.777 0 146.796 0C154.814 0 161.333 6.30294 161.333 14.0501C161.333 21.7973 154.814 28.1002 146.796 28.1002C138.777 28.1002 132.258 21.7973 132.258 14.0501ZM190.727 0C182.709 0 176.189 6.30294 176.189 14.0501C176.189 21.7973 182.709 28.1002 190.727 28.1002C198.745 28.1002 205.265 21.7973 205.265 14.0501C205.265 6.30294 198.74 0 190.727 0ZM220.114 14.0501C220.114 6.30294 226.634 0 234.652 0C242.67 0 249.194 6.30294 249.189 14.0501C249.189 21.7973 242.67 28.1002 234.652 28.1002C226.634 28.1002 220.114 21.7973 220.114 14.0501ZM278.582 22.1635C283.208 22.1635 286.975 18.5272 286.975 14.0502C286.975 9.57311 283.208 5.9368 278.582 5.9368C273.951 5.9368 270.189 9.57311 270.189 14.0502C270.189 18.5272 273.951 22.1635 278.582 22.1635ZM330.906 14.0502C330.906 18.5272 327.144 22.1635 322.513 22.1635C317.883 22.1635 314.121 18.5272 314.121 14.0502C314.121 9.57311 317.888 5.9368 322.513 5.9368C327.139 5.9368 330.906 9.57311 330.906 14.0502ZM15.0092 321.063C19.6444 321.063 23.4019 317.431 23.4019 312.95C23.4019 308.469 19.6444 304.836 15.0092 304.836C10.374 304.836 6.61621 308.469 6.61621 312.95C6.61621 317.431 10.374 321.063 15.0092 321.063ZM50.5477 312.95C50.5477 308.473 54.3098 304.836 58.9406 304.836C63.5662 304.836 67.3331 308.473 67.3331 312.95C67.3331 317.427 63.5662 321.063 58.9406 321.063C54.315 321.063 50.5477 317.427 50.5477 312.95ZM102.865 298.9C94.8471 298.9 88.3274 305.203 88.3274 312.95C88.3274 320.697 94.8471 327 102.865 327C110.884 327 117.403 320.697 117.403 312.95C117.408 305.203 110.884 298.9 102.865 298.9ZM132.258 312.95C132.258 305.203 138.777 298.9 146.796 298.9C154.814 298.9 161.333 305.203 161.333 312.95C161.333 320.697 154.814 327 146.796 327C138.777 327 132.258 320.697 132.258 312.95ZM190.727 298.9C182.709 298.9 176.189 305.203 176.189 312.95C176.189 320.697 182.709 327 190.727 327C198.745 327 205.265 320.697 205.265 312.95C205.265 305.203 198.74 298.9 190.727 298.9ZM220.114 312.95C220.114 305.203 226.634 298.9 234.652 298.9C242.67 298.9 249.194 305.203 249.189 312.95C249.189 320.697 242.67 327 234.652 327C226.634 327 220.114 320.697 220.114 312.95ZM278.582 304.836C273.951 304.836 270.189 308.473 270.189 312.95C270.189 317.427 273.957 321.063 278.582 321.063C283.208 321.063 286.975 317.427 286.975 312.95C286.975 308.473 283.208 304.836 278.582 304.836ZM314.121 312.95C314.121 308.473 317.888 304.836 322.513 304.836C327.139 304.836 330.906 308.473 330.906 312.95C330.906 317.427 327.144 321.063 322.513 321.063C317.888 321.063 314.121 317.427 314.121 312.95ZM15.0092 278.361C19.6444 278.361 23.4019 274.729 23.4019 270.248C23.4019 265.767 19.6444 262.134 15.0092 262.134C10.374 262.134 6.61621 265.767 6.61621 270.248C6.61621 274.729 10.374 278.361 15.0092 278.361ZM44.4028 270.248C44.4028 262.5 50.9224 256.198 58.9406 256.198C66.9587 256.198 73.4783 262.5 73.4783 270.248C73.4783 277.995 66.9587 284.298 58.9406 284.298C50.9224 284.298 44.4028 277.995 44.4028 270.248ZM102.865 256.198C94.8471 256.198 88.3274 262.5 88.3274 270.248C88.3274 277.995 94.8471 284.298 102.865 284.298C110.884 284.298 117.403 277.995 117.403 270.248C117.408 262.5 110.884 256.198 102.865 256.198ZM132.258 270.248C132.258 262.5 138.777 256.198 146.796 256.198C154.814 256.198 161.333 262.5 161.333 270.248C161.333 277.995 154.814 284.298 146.796 284.298C138.777 284.298 132.258 277.995 132.258 270.248ZM190.727 256.198C182.709 256.198 176.189 262.5 176.189 270.248C176.189 277.995 182.709 284.298 190.727 284.298C198.745 284.298 205.265 277.995 205.265 270.248C205.265 262.5 198.74 256.198 190.727 256.198ZM220.114 270.248C220.114 262.5 226.634 256.198 234.652 256.198C242.67 256.198 249.194 262.5 249.189 270.248C249.189 277.995 242.67 284.298 234.652 284.298C226.634 284.298 220.114 277.995 220.114 270.248ZM278.583 256.198C270.565 256.198 264.045 262.5 264.045 270.248C264.045 277.995 270.565 284.298 278.583 284.298C286.601 284.298 293.121 277.995 293.121 270.248C293.121 262.5 286.601 256.198 278.583 256.198ZM314.121 270.253C314.121 265.776 317.888 262.139 322.513 262.139C327.139 262.139 330.906 265.776 330.906 270.253C330.906 274.73 327.144 278.366 322.513 278.366C317.888 278.366 314.121 274.73 314.121 270.253ZM15.01 241.601C23.0389 241.601 29.5477 235.31 29.5477 227.551C29.5477 219.791 23.0389 213.501 15.01 213.501C6.98115 213.501 0.472412 219.791 0.472412 227.551C0.472412 235.31 6.98115 241.601 15.01 241.601ZM44.4028 227.551C44.4028 219.804 50.9224 213.501 58.9406 213.501C66.9587 213.501 73.4783 219.804 73.4783 227.551C73.4783 235.298 66.9587 241.601 58.9406 241.601C50.9224 241.601 44.4028 235.298 44.4028 227.551ZM102.865 213.501C94.8471 213.501 88.3274 219.804 88.3274 227.551C88.3274 235.298 94.8471 241.601 102.865 241.601C110.884 241.601 117.403 235.298 117.403 227.551C117.408 219.804 110.884 213.501 102.865 213.501ZM155.19 227.551C155.19 232.032 151.432 235.664 146.797 235.664C142.162 235.664 138.404 232.032 138.404 227.551C138.404 223.07 142.162 219.437 146.797 219.437C151.432 219.437 155.19 223.07 155.19 227.551ZM190.727 235.659C195.358 235.659 199.12 232.023 199.12 227.546C199.12 223.074 195.353 219.432 190.727 219.432C186.102 219.432 182.334 223.069 182.334 227.546C182.329 232.023 186.096 235.659 190.727 235.659ZM264.045 227.551C264.045 219.804 270.565 213.501 278.583 213.501C286.601 213.501 293.121 219.804 293.121 227.551C293.121 235.298 286.601 241.601 278.583 241.601C270.565 241.601 264.045 235.298 264.045 227.551ZM322.513 213.501C314.494 213.501 307.975 219.804 307.975 227.551C307.975 235.298 314.494 241.601 322.513 241.601C330.531 241.601 337.051 235.298 337.051 227.551C337.051 219.804 330.526 213.501 322.513 213.501ZM29.5477 184.849C29.5477 192.608 23.0389 198.899 15.01 198.899C6.98115 198.899 0.472412 192.608 0.472412 184.849C0.472412 177.089 6.98115 170.799 15.01 170.799C23.0389 170.799 29.5477 177.089 29.5477 184.849ZM58.9406 170.799C50.9224 170.799 44.4028 177.102 44.4028 184.849C44.4028 192.596 50.9224 198.899 58.9406 198.899C66.9587 198.899 73.4783 192.596 73.4783 184.849C73.4783 177.102 66.9587 170.799 58.9406 170.799ZM111.258 184.849C111.258 189.33 107.501 192.962 102.865 192.962C98.2301 192.962 94.4724 189.33 94.4724 184.849C94.4724 180.368 98.2301 176.735 102.865 176.735C107.501 176.735 111.258 180.368 111.258 184.849ZM146.797 192.962C151.432 192.962 155.19 189.33 155.19 184.849C155.19 180.368 151.432 176.735 146.797 176.735C142.162 176.735 138.404 180.368 138.404 184.849C138.404 189.33 142.162 192.962 146.797 192.962ZM199.12 184.849C199.12 189.326 195.358 192.962 190.727 192.962C186.096 192.962 182.329 189.321 182.334 184.849C182.334 180.372 186.102 176.735 190.727 176.735C195.353 176.735 199.12 180.377 199.12 184.849ZM234.653 192.962C239.288 192.962 243.046 189.33 243.046 184.849C243.046 180.368 239.288 176.735 234.653 176.735C230.018 176.735 226.26 180.368 226.26 184.849C226.26 189.33 230.018 192.962 234.653 192.962ZM286.975 184.849C286.975 189.326 283.208 192.962 278.582 192.962C273.951 192.962 270.189 189.321 270.189 184.849C270.189 180.372 273.951 176.735 278.582 176.735C283.208 176.735 286.975 180.377 286.975 184.849ZM322.513 176.74C317.888 176.74 314.121 180.377 314.121 184.854C314.121 189.326 317.888 192.967 322.513 192.967C327.144 192.967 330.906 189.331 330.906 184.854C330.906 180.377 327.139 176.74 322.513 176.74ZM29.5477 142.152C29.5477 149.911 23.0389 156.202 15.01 156.202C6.98115 156.202 0.472412 149.911 0.472412 142.152C0.472412 134.392 6.98115 128.102 15.01 128.102C23.0389 128.102 29.5477 134.392 29.5477 142.152ZM58.9406 128.102C50.9224 128.102 44.4028 134.405 44.4028 142.152C44.4028 149.899 50.9224 156.202 58.9406 156.202C66.9587 156.202 73.4783 149.899 73.4783 142.152C73.4783 134.405 66.9587 128.102 58.9406 128.102ZM111.258 142.151C111.258 146.632 107.501 150.265 102.865 150.265C98.2301 150.265 94.4724 146.632 94.4724 142.151C94.4724 137.67 98.2301 134.038 102.865 134.038C107.501 134.038 111.258 137.67 111.258 142.151ZM146.797 150.265C151.432 150.265 155.19 146.632 155.19 142.151C155.19 137.67 151.432 134.038 146.797 134.038C142.162 134.038 138.404 137.67 138.404 142.151C138.404 146.632 142.162 150.265 146.797 150.265ZM199.12 142.146C199.12 146.623 195.358 150.259 190.727 150.259C186.096 150.259 182.329 146.623 182.334 142.146C182.334 137.669 186.102 134.033 190.727 134.033C195.353 134.033 199.12 137.674 199.12 142.146ZM234.653 150.265C239.288 150.265 243.046 146.632 243.046 142.151C243.046 137.67 239.288 134.038 234.653 134.038C230.018 134.038 226.26 137.67 226.26 142.151C226.26 146.632 230.018 150.265 234.653 150.265ZM286.975 142.146C286.975 146.623 283.208 150.259 278.582 150.259C273.951 150.259 270.189 146.623 270.189 142.146C270.189 137.669 273.951 134.033 278.582 134.033C283.208 134.033 286.975 137.674 286.975 142.146ZM322.513 134.038C317.888 134.038 314.121 137.674 314.121 142.151C314.121 146.623 317.888 150.265 322.513 150.265C327.144 150.265 330.906 146.628 330.906 142.151C330.906 137.674 327.139 134.038 322.513 134.038ZM29.5477 99.4491C29.5477 107.209 23.0389 113.499 15.01 113.499C6.98115 113.499 0.472412 107.209 0.472412 99.4491C0.472412 91.6894 6.98115 85.399 15.01 85.399C23.0389 85.399 29.5477 91.6894 29.5477 99.4491ZM58.9406 85.399C50.9224 85.399 44.4028 91.7019 44.4028 99.4491C44.4028 107.196 50.9224 113.499 58.9406 113.499C66.9587 113.499 73.4783 107.196 73.4783 99.4491C73.4783 91.7019 66.9587 85.399 58.9406 85.399ZM88.3274 99.4491C88.3274 91.7019 94.8471 85.399 102.865 85.399C110.884 85.399 117.403 91.7019 117.403 99.4491C117.403 107.196 110.884 113.499 102.865 113.499C94.8471 113.499 88.3274 107.196 88.3274 99.4491ZM146.797 107.563C151.432 107.563 155.19 103.93 155.19 99.4491C155.19 94.9683 151.432 91.3358 146.797 91.3358C142.162 91.3358 138.404 94.9683 138.404 99.4491C138.404 103.93 142.162 107.563 146.797 107.563ZM199.12 99.4491C199.12 103.926 195.358 107.563 190.727 107.563C186.096 107.563 182.329 103.921 182.334 99.4491C182.334 94.9721 186.102 91.3358 190.727 91.3358C195.353 91.3358 199.12 94.9772 199.12 99.4491ZM278.583 85.399C270.565 85.399 264.045 91.7019 264.045 99.4491C264.045 107.196 270.565 113.499 278.583 113.499C286.601 113.499 293.121 107.196 293.121 99.4491C293.121 91.7019 286.601 85.399 278.583 85.399ZM337.051 99.4491C337.051 107.196 330.531 113.499 322.513 113.499C314.494 113.499 307.975 107.196 307.975 99.4491C307.975 91.7019 314.494 85.399 322.513 85.399C330.531 85.399 337.051 91.7019 337.051 99.4491ZM15.0092 64.8605C19.6444 64.8605 23.4019 61.228 23.4019 56.7471C23.4019 52.2662 19.6444 48.6337 15.0092 48.6337C10.374 48.6337 6.61621 52.2662 6.61621 56.7471C6.61621 61.228 10.374 64.8605 15.0092 64.8605ZM44.4028 56.7522C44.4028 49.005 50.9224 42.7021 58.9406 42.7021C66.9587 42.7021 73.4783 49.005 73.4783 56.7522C73.4783 64.4993 66.9587 70.8023 58.9406 70.8023C50.9224 70.8023 44.4028 64.4993 44.4028 56.7522ZM102.865 42.7021C94.8471 42.7021 88.3274 49.005 88.3274 56.7522C88.3274 64.4993 94.8471 70.8023 102.865 70.8023C110.884 70.8023 117.403 64.4993 117.403 56.7522C117.408 49.005 110.884 42.7021 102.865 42.7021ZM132.258 56.7522C132.258 49.005 138.777 42.7021 146.796 42.7021C154.814 42.7021 161.333 49.005 161.333 56.7522C161.333 64.4993 154.814 70.8023 146.796 70.8023C138.777 70.8023 132.258 64.4993 132.258 56.7522ZM190.727 42.7021C182.709 42.7021 176.189 49.005 176.189 56.7522C176.189 64.4993 182.709 70.8023 190.727 70.8023C198.745 70.8023 205.265 64.4993 205.265 56.7522C205.265 49.005 198.74 42.7021 190.727 42.7021ZM220.114 56.7522C220.114 49.005 226.634 42.7021 234.652 42.7021C242.67 42.7021 249.194 49.005 249.189 56.7522C249.189 64.4993 242.67 70.8023 234.652 70.8023C226.634 70.8023 220.114 64.4993 220.114 56.7522ZM278.583 42.7021C270.565 42.7021 264.045 49.005 264.045 56.7522C264.045 64.4993 270.565 70.8023 278.583 70.8023C286.601 70.8023 293.121 64.4993 293.121 56.7522C293.121 49.005 286.601 42.7021 278.583 42.7021ZM330.906 56.7471C330.906 61.2241 327.144 64.8605 322.513 64.8605C317.883 64.8605 314.121 61.2241 314.121 56.7471C314.121 52.27 317.888 48.6337 322.513 48.6337C327.139 48.6337 330.906 52.27 330.906 56.7471ZM234.652 85.399C226.634 85.399 220.114 91.7019 220.114 99.4491C220.114 107.196 226.634 113.499 234.652 113.499C242.67 113.499 249.189 107.196 249.189 99.4491C249.194 91.7019 242.67 85.399 234.652 85.399ZM220.114 227.551C220.114 219.804 226.634 213.501 234.652 213.501C242.67 213.501 249.194 219.804 249.189 227.551C249.189 235.298 242.67 241.601 234.652 241.601C226.634 241.601 220.114 235.298 220.114 227.551Z" fill="white"/>
</svg>
