<?xml version="1.0" encoding="utf-8"?>
<!-- Generator: Adobe Illustrator 25.1.0, SVG Export Plug-In . SVG Version: 6.00 Build 0)  -->
<svg version="1.1" id="Layer_1" xmlns="http://www.w3.org/2000/svg" xmlns:xlink="http://www.w3.org/1999/xlink" x="0px" y="0px"
	 viewBox="0 0 228.3 223.7" style="enable-background:new 0 0 228.3 223.7;" xml:space="preserve">
<style type="text/css">
	.st0{fill:#fff;}
</style>
<ellipse class="st0" cx="9.9" cy="9.6" rx="5.7" ry="5.6"/>
<path class="st0" d="M39.6,15.2c3-0.1,5.5-2.6,5.4-5.6c0,0,0-0.1,0-0.1c0-3-2.4-5.4-5.4-5.4c-0.1,0-0.1,0-0.2,0
	c-3,0.1-5.4,2.5-5.4,5.5C34,12.7,36.5,15.2,39.6,15.2C39.6,15.2,39.6,15.2,39.6,15.2z"/>
<path class="st0" d="M69.4,0c-5.3,0.1-9.5,4.6-9.4,9.9s4.6,9.5,9.9,9.4c5.2-0.1,9.4-4.4,9.4-9.6C79.3,4.3,75,0,69.6,0
	C69.5,0,69.5,0,69.4,0z"/>
<path class="st0" d="M99.2,0c-5.3,0.1-9.5,4.6-9.4,9.9s4.6,9.5,9.9,9.4c5.2-0.1,9.4-4.4,9.4-9.6c0-5.4-4.3-9.7-9.7-9.7
	C99.3,0,99.3,0,99.2,0z"/>
<path class="st0" d="M129,0c-5.3,0.1-9.5,4.6-9.4,9.9c0.1,5.3,4.6,9.5,9.9,9.4c5.2-0.1,9.4-4.4,9.4-9.6c0-5.4-4.3-9.7-9.7-9.7
	C129.1,0,129.1,0,129,0z"/>
<path class="st0" d="M158.8,0c-5.3,0.1-9.5,4.6-9.4,9.9c0.1,5.3,4.6,9.5,9.9,9.4c5.2-0.1,9.4-4.4,9.4-9.6c0-5.4-4.3-9.7-9.7-9.7
	C158.9,0,158.9,0,158.8,0z"/>
<path class="st0" d="M188.6,15.2c3.1-0.1,5.5-2.6,5.4-5.7s-2.6-5.5-5.7-5.4c-3,0.1-5.4,2.5-5.4,5.5
	C182.9,12.7,185.5,15.2,188.6,15.2z"/>
<path class="st0" d="M218.4,15.2c3.1-0.1,5.5-2.6,5.4-5.7s-2.6-5.5-5.7-5.4c-3,0.1-5.4,2.5-5.4,5.5
	C212.7,12.7,215.3,15.2,218.4,15.2z"/>
<ellipse class="st0" cx="9.9" cy="214.1" rx="5.7" ry="5.5"/>
<path class="st0" d="M39.6,208.5c-3.1,0.1-5.5,2.6-5.4,5.7s2.6,5.5,5.7,5.4c3-0.1,5.4-2.5,5.4-5.5C45.3,211,42.7,208.5,39.6,208.5z"
	/>
<path class="st0" d="M69.4,204.5c-5.3,0.1-9.5,4.6-9.4,9.9c0.1,5.3,4.6,9.5,9.9,9.4c5.2-0.1,9.4-4.4,9.4-9.6c0-5.4-4.4-9.7-9.8-9.7
	C69.5,204.5,69.4,204.5,69.4,204.5z"/>
<path class="st0" d="M99.2,204.5c-5.3,0.1-9.5,4.6-9.4,9.9c0.1,5.3,4.6,9.5,9.9,9.4c5.2-0.1,9.4-4.4,9.4-9.6c0-5.4-4.4-9.7-9.8-9.7
	C99.3,204.5,99.2,204.5,99.2,204.5z"/>
<path class="st0" d="M129,204.5c-5.3,0.1-9.5,4.6-9.4,9.9c0.1,5.3,4.6,9.5,9.9,9.4c5.2-0.1,9.4-4.4,9.4-9.6c0-5.4-4.4-9.7-9.8-9.7
	C129.1,204.5,129,204.5,129,204.5z"/>
<path class="st0" d="M158.8,204.5c-5.3,0.1-9.5,4.6-9.4,9.9c0.1,5.3,4.6,9.5,9.9,9.4c5.2-0.1,9.4-4.4,9.4-9.6c0-5.4-4.4-9.7-9.8-9.7
	C158.9,204.5,158.8,204.5,158.8,204.5z"/>
<path class="st0" d="M188.6,208.5c-3.1,0.1-5.5,2.6-5.4,5.7s2.6,5.5,5.7,5.4c3-0.1,5.4-2.5,5.4-5.5
	C194.2,211,191.7,208.5,188.6,208.5z"/>
<path class="st0" d="M218.4,208.5c-3.1,0.1-5.5,2.6-5.4,5.7s2.6,5.5,5.7,5.4c3-0.1,5.4-2.5,5.4-5.5C224,211,221.5,208.5,218.4,208.5
	z"/>
<ellipse class="st0" cx="9.9" cy="184.9" rx="5.7" ry="5.5"/>
<path class="st0" d="M39.6,175.3c-5.3,0.1-9.5,4.6-9.4,9.9c0.1,5.3,4.6,9.5,9.9,9.4c5.2-0.1,9.4-4.4,9.4-9.6c0-5.4-4.3-9.7-9.7-9.7
	C39.7,175.3,39.7,175.3,39.6,175.3z"/>
<path class="st0" d="M69.4,175.3c-5.3,0.1-9.5,4.6-9.4,9.9c0.1,5.3,4.6,9.5,9.9,9.4c5.2-0.1,9.4-4.4,9.4-9.6c0-5.4-4.3-9.7-9.7-9.7
	C69.5,175.3,69.5,175.3,69.4,175.3z"/>
<path class="st0" d="M99.2,175.3c-5.3,0.1-9.5,4.6-9.4,9.9c0.1,5.3,4.6,9.5,9.9,9.4c5.2-0.1,9.4-4.4,9.4-9.6c0-5.4-4.3-9.7-9.7-9.7
	C99.3,175.3,99.3,175.3,99.2,175.3z"/>
<path class="st0" d="M129,175.3c-5.3,0.1-9.5,4.6-9.4,9.9c0.1,5.3,4.6,9.5,9.9,9.4c5.2-0.1,9.4-4.4,9.4-9.6c0-5.4-4.3-9.7-9.7-9.7
	C129.1,175.3,129.1,175.3,129,175.3z"/>
<path class="st0" d="M158.8,175.3c-5.3,0.1-9.5,4.6-9.4,9.9c0.1,5.3,4.6,9.5,9.9,9.4c5.2-0.1,9.4-4.4,9.4-9.6c0-5.4-4.3-9.7-9.7-9.7
	C158.9,175.3,158.9,175.3,158.8,175.3z"/>
<path class="st0" d="M188.6,175.3c-5.3,0.1-9.5,4.6-9.4,9.9c0.1,5.3,4.6,9.5,9.9,9.4c5.2-0.1,9.4-4.4,9.4-9.6c0-5.4-4.3-9.7-9.7-9.7
	C188.7,175.3,188.7,175.3,188.6,175.3z"/>
<path class="st0" d="M218.4,179.3c-3.1,0.1-5.5,2.6-5.4,5.7s2.6,5.5,5.7,5.4c3-0.1,5.4-2.5,5.4-5.5
	C224,181.8,221.5,179.3,218.4,179.3z"/>
<ellipse class="st0" cx="9.9" cy="155.7" rx="9.9" ry="9.6"/>
<path class="st0" d="M39.6,146.1c-5.3,0.1-9.5,4.6-9.4,9.9c0.1,5.3,4.6,9.5,9.9,9.4c5.2-0.1,9.4-4.4,9.4-9.6c0-5.4-4.3-9.7-9.7-9.7
	C39.7,146.1,39.7,146.1,39.6,146.1z"/>
<path class="st0" d="M69.4,146.1c-5.3,0.1-9.5,4.6-9.4,9.9c0.1,5.3,4.6,9.5,9.9,9.4c5.2-0.1,9.4-4.4,9.4-9.6c0-5.4-4.3-9.7-9.7-9.7
	C69.5,146.1,69.5,146.1,69.4,146.1z"/>
<ellipse class="st0" cx="99.2" cy="155.7" rx="5.7" ry="5.5"/>
<path class="st0" d="M129,161.2c3.1-0.1,5.5-2.6,5.4-5.7s-2.6-5.5-5.7-5.4c-3,0.1-5.4,2.5-5.4,5.5
	C123.3,158.7,125.9,161.2,129,161.2z"/>
<path class="st0" d="M188.6,146.1c-5.3,0.1-9.5,4.6-9.4,9.9c0.1,5.3,4.6,9.5,9.9,9.4c5.2-0.1,9.4-4.4,9.4-9.6c0-5.4-4.3-9.7-9.7-9.7
	C188.7,146.1,188.7,146.1,188.6,146.1z"/>
<path class="st0" d="M218.4,146.1c-5.3,0.1-9.5,4.6-9.4,9.9c0.1,5.3,4.6,9.5,9.9,9.4c5.2-0.1,9.4-4.4,9.4-9.6
	C228.2,150.4,223.8,146.1,218.4,146.1z"/>
<ellipse class="st0" cx="9.9" cy="126.5" rx="9.9" ry="9.6"/>
<path class="st0" d="M39.6,116.8c-5.3,0.1-9.5,4.6-9.4,9.9c0.1,5.3,4.6,9.5,9.9,9.4c5.2-0.1,9.4-4.4,9.4-9.6
	C49.4,121.1,45,116.8,39.6,116.8z"/>
<ellipse class="st0" cx="69.4" cy="126.5" rx="5.7" ry="5.5"/>
<ellipse class="st0" cx="99.2" cy="126.5" rx="5.7" ry="5.5"/>
<path class="st0" d="M129,132c3.1-0.1,5.5-2.6,5.4-5.7c-0.1-3.1-2.6-5.5-5.7-5.4c-3,0.1-5.4,2.5-5.4,5.5
	C123.3,129.5,125.9,132,129,132z"/>
<ellipse class="st0" cx="158.8" cy="126.5" rx="5.7" ry="5.5"/>
<path class="st0" d="M188.6,132c3.1-0.1,5.5-2.6,5.4-5.7c-0.1-3.1-2.6-5.5-5.7-5.4c-3,0.1-5.4,2.5-5.4,5.5
	C182.9,129.5,185.4,132,188.6,132C188.5,132,188.6,132,188.6,132z"/>
<path class="st0" d="M218.4,120.9c-3.1,0.1-5.5,2.6-5.4,5.7s2.6,5.5,5.7,5.4c3-0.1,5.4-2.5,5.4-5.5
	C224.1,123.4,221.5,120.9,218.4,120.9z"/>
<ellipse class="st0" cx="9.9" cy="97.2" rx="9.9" ry="9.6"/>
<path class="st0" d="M39.6,87.6c-5.3,0.1-9.5,4.6-9.4,9.9s4.6,9.5,9.9,9.4c5.2-0.1,9.4-4.4,9.4-9.6C49.4,91.9,45,87.6,39.6,87.6z"/>
<ellipse class="st0" cx="69.4" cy="97.2" rx="5.7" ry="5.6"/>
<ellipse class="st0" cx="99.2" cy="97.2" rx="5.7" ry="5.6"/>
<path class="st0" d="M129,102.8c3.1-0.1,5.5-2.6,5.4-5.7s-2.6-5.5-5.7-5.4c-3,0.1-5.4,2.5-5.4,5.5
	C123.4,100.3,125.9,102.8,129,102.8z"/>
<ellipse class="st0" cx="158.8" cy="97.2" rx="5.7" ry="5.6"/>
<path class="st0" d="M188.6,102.8c3.1-0.1,5.5-2.6,5.4-5.7s-2.6-5.5-5.7-5.4c-3,0.1-5.4,2.5-5.4,5.5
	C182.9,100.3,185.5,102.8,188.6,102.8z"/>
<path class="st0" d="M218.4,91.7c-3.1,0.1-5.5,2.6-5.4,5.7s2.6,5.5,5.7,5.4c3-0.1,5.4-2.5,5.4-5.5C224.1,94.2,221.5,91.7,218.4,91.7
	z"/>
<ellipse class="st0" cx="9.9" cy="68" rx="9.9" ry="9.6"/>
<path class="st0" d="M39.6,58.4c-5.3,0.1-9.5,4.6-9.4,9.9s4.6,9.5,9.9,9.4c5.2-0.1,9.4-4.4,9.4-9.6C49.4,62.7,45,58.4,39.6,58.4z"/>
<path class="st0" d="M69.4,58.4c-5.3,0.1-9.5,4.6-9.4,9.9s4.6,9.5,9.9,9.4c5.2-0.1,9.4-4.4,9.4-9.6C79.2,62.7,74.8,58.4,69.4,58.4z"
	/>
<ellipse class="st0" cx="99.2" cy="68" rx="5.7" ry="5.6"/>
<path class="st0" d="M129,73.6c3.1-0.1,5.5-2.6,5.4-5.7s-2.6-5.5-5.7-5.4c-3,0.1-5.4,2.5-5.4,5.5C123.4,71.1,125.9,73.6,129,73.6z"
	/>
<path class="st0" d="M188.6,58.4c-5.3,0.1-9.5,4.6-9.4,9.9c0.1,5.3,4.6,9.5,9.9,9.4c5.2-0.1,9.4-4.4,9.4-9.6
	C198.4,62.7,194,58.4,188.6,58.4z"/>
<path class="st0" d="M218.4,77.6c5.3-0.1,9.5-4.5,9.4-9.8s-4.5-9.5-9.8-9.4c-5.2,0.1-9.4,4.4-9.4,9.6c0,5.3,4.3,9.6,9.6,9.6
	C218.3,77.6,218.3,77.6,218.4,77.6z"/>
<ellipse class="st0" cx="9.9" cy="38.8" rx="5.7" ry="5.6"/>
<path class="st0" d="M39.6,29.2c-5.3,0.1-9.5,4.6-9.4,9.9s4.6,9.5,9.9,9.4c5.2-0.1,9.4-4.4,9.4-9.6c0-5.4-4.3-9.7-9.7-9.7
	C39.7,29.2,39.7,29.2,39.6,29.2z"/>
<path class="st0" d="M69.4,29.2c-5.3,0.1-9.5,4.6-9.4,9.9s4.6,9.5,9.9,9.4c5.2-0.1,9.4-4.4,9.4-9.6c0-5.4-4.3-9.7-9.7-9.7
	C69.5,29.2,69.5,29.2,69.4,29.2z"/>
<path class="st0" d="M99.2,29.2c-5.3,0.1-9.5,4.6-9.4,9.9s4.6,9.5,9.9,9.4c5.2-0.1,9.4-4.4,9.4-9.6c0-5.4-4.3-9.7-9.7-9.7
	C99.3,29.2,99.3,29.2,99.2,29.2z"/>
<path class="st0" d="M129,29.2c-5.3,0.1-9.5,4.6-9.4,9.9c0.1,5.3,4.6,9.5,9.9,9.4c5.2-0.1,9.4-4.4,9.4-9.6c0-5.4-4.3-9.7-9.7-9.7
	C129.1,29.2,129.1,29.2,129,29.2z"/>
<path class="st0" d="M158.8,29.2c-5.3,0.1-9.5,4.6-9.4,9.9c0.1,5.3,4.6,9.5,9.9,9.4c5.2-0.1,9.4-4.4,9.4-9.6c0-5.4-4.3-9.7-9.7-9.7
	C158.9,29.2,158.9,29.2,158.8,29.2z"/>
<path class="st0" d="M188.6,29.2c-5.3,0.1-9.5,4.6-9.4,9.9c0.1,5.3,4.6,9.5,9.9,9.4c5.2-0.1,9.4-4.4,9.4-9.6c0-5.4-4.3-9.7-9.7-9.7
	C188.7,29.2,188.7,29.2,188.6,29.2z"/>
<path class="st0" d="M218.4,44.4c3.1-0.1,5.5-2.6,5.4-5.7s-2.6-5.5-5.7-5.4c-3,0.1-5.4,2.5-5.4,5.5
	C212.7,41.9,215.3,44.4,218.4,44.4z"/>
<path class="st0" d="M158.8,58.4c-5.3,0.1-9.5,4.6-9.4,9.9c0.1,5.3,4.6,9.5,9.9,9.4c5.2-0.1,9.4-4.4,9.4-9.6
	C168.6,62.7,164.2,58.4,158.8,58.4z"/>
<path class="st0" d="M158.8,146.1c-5.3,0.1-9.5,4.6-9.4,9.9c0.1,5.3,4.6,9.5,9.9,9.4c5.2-0.1,9.4-4.4,9.4-9.6c0-5.4-4.3-9.7-9.7-9.7
	C158.9,146.1,158.9,146.1,158.8,146.1z"/>
</svg>
