<?xml version="1.0" encoding="utf-8"?>
<!-- Generator: Adobe Illustrator 25.1.0, SVG Export Plug-In . SVG Version: 6.00 Build 0)  -->
<svg version="1.1" id="Layer_1" xmlns="http://www.w3.org/2000/svg" xmlns:xlink="http://www.w3.org/1999/xlink" x="0px" y="0px"
	 viewBox="0 0 27 27" style="enable-background:new 0 0 27 27;" xml:space="preserve">
<style type="text/css">
	.st0{fill:#FFFFFF;}
</style>
<path class="st0" d="M17.8,13.5L24.3,7c0.8-0.8,0.8-2.1,0-2.9l-1.4-1.4c-0.8-0.8-2.1-0.8-2.9,0l-6.5,6.5L7,2.7
	c-0.8-0.8-2.1-0.8-2.9,0L2.7,4.1C1.9,4.9,1.9,6.2,2.7,7l6.5,6.5L2.7,20c-0.8,0.8-0.8,2.1,0,2.9l1.4,1.4c0.8,0.8,2.1,0.8,2.9,0
	l6.5-6.5l6.5,6.5c0.8,0.8,2.1,0.8,2.9,0l1.4-1.4c0.8-0.8,0.8-2.1,0-2.9L17.8,13.5z"/>
</svg>
