<svg width="345" height="764" viewBox="0 0 345 764" fill="none" xmlns="http://www.w3.org/2000/svg">
<rect width="345" height="763" transform="translate(0 1)" fill="white"/>
<path d="M11.088 113.64H2.144V115.32H5.584V125H7.648V115.32H11.088V113.64ZM12.1614 128.2C13.8734 128.2 14.9454 127.48 15.6654 125.448L18.6734 117H16.6734L15.0894 122.232C14.9614 122.648 14.8814 122.936 14.8494 123.176H14.8174C14.7694 122.904 14.7054 122.6 14.5774 122.232L12.8334 117H10.7214L13.8414 124.92L13.6814 125.4C13.3774 126.28 12.8814 126.664 11.9534 126.664C11.7614 126.664 11.5694 126.664 11.2814 126.6V128.12C11.6014 128.168 11.9214 128.2 12.1614 128.2ZM20.0613 128.12H21.9813V123.848C22.4133 124.632 23.2133 125.192 24.3493 125.192C26.3173 125.192 27.6613 123.56 27.6613 120.984C27.6613 118.456 26.3653 116.808 24.4453 116.808C23.3093 116.808 22.3813 117.352 21.8853 118.392V117H20.0613V128.12ZM23.7893 123.72C22.6533 123.72 21.9333 122.744 21.9333 121.208V120.808C21.9333 119.192 22.6533 118.28 23.8053 118.28C24.9733 118.28 25.6613 119.272 25.6613 120.984C25.6613 122.696 24.9413 123.72 23.7893 123.72ZM36.4081 120.6C36.4081 118.152 35.0801 116.808 32.7601 116.808C30.3761 116.808 28.9361 118.44 28.9361 121.08C28.9361 123.704 30.4081 125.192 32.8561 125.192C34.4881 125.192 35.7521 124.424 36.3441 123.032L34.8721 122.36C34.5041 123.224 33.8321 123.688 32.9201 123.688C31.6561 123.688 30.8081 122.824 30.7921 121.48H36.4081V120.6ZM34.5201 120.216H30.7921C30.8241 118.888 31.5121 118.088 32.7281 118.088C33.8641 118.088 34.5201 118.776 34.5201 120.088V120.216Z" fill="#362B26"/>
<path d="M10.784 192.272V190.64H3.408V202H5.472V197.056H10.512V195.424H5.472V192.272H10.784ZM15.778 202.192C18.082 202.192 19.698 200.672 19.698 197.984C19.698 195.312 18.082 193.808 15.778 193.808C13.474 193.808 11.858 195.312 11.858 197.984C11.858 200.672 13.474 202.192 15.778 202.192ZM15.778 200.736C14.546 200.736 13.81 199.808 13.81 197.984C13.81 196.16 14.546 195.264 15.778 195.264C17.01 195.264 17.73 196.16 17.73 197.984C17.73 199.808 17.01 200.736 15.778 200.736ZM23.3845 195.936V194H21.5925V202H23.5125V198.64C23.5125 197.76 23.5925 196.848 24.2325 196.224C24.6005 195.872 25.1285 195.648 25.8965 195.648C25.9925 195.648 26.0725 195.664 26.1525 195.664V193.824C26.0725 193.808 26.0085 193.808 25.9285 193.808C24.6325 193.808 23.7845 194.672 23.3845 195.936ZM34.455 197.6C34.455 195.152 33.127 193.808 30.807 193.808C28.423 193.808 26.983 195.44 26.983 198.08C26.983 200.704 28.455 202.192 30.903 202.192C32.535 202.192 33.799 201.424 34.391 200.032L32.919 199.36C32.551 200.224 31.879 200.688 30.967 200.688C29.703 200.688 28.855 199.824 28.839 198.48H34.455V197.6ZM32.567 197.216H28.839C28.871 195.888 29.559 195.088 30.775 195.088C31.911 195.088 32.567 195.776 32.567 197.088V197.216ZM39.3014 202.192C41.3814 202.192 42.5814 201.168 42.5814 199.664C42.5814 198.4 41.9094 197.632 40.3734 197.36L38.8054 197.072C38.1014 196.944 37.7334 196.704 37.7334 196.16C37.7334 195.536 38.2454 195.2 39.1414 195.2C40.1974 195.2 40.9014 195.648 41.2854 196.368L42.6134 195.648C42.2294 194.496 40.9494 193.808 39.2374 193.808C37.2054 193.808 35.9734 194.832 35.9734 196.272C35.9734 197.552 36.7734 198.336 38.2614 198.608L39.6854 198.864C40.4854 198.992 40.8374 199.216 40.8374 199.792C40.8374 200.368 40.3254 200.784 39.3334 200.784C38.1974 200.784 37.3974 200.272 37.0454 199.376L35.6054 200.016C36.1174 201.424 37.4774 202.192 39.3014 202.192ZM43.4729 195.392H44.9129V199.52C44.9129 201.136 45.5529 202.144 47.4729 202.144C47.9689 202.144 48.3209 202.096 48.7849 202V200.384C48.5289 200.432 48.3209 200.48 48.0009 200.48C47.2009 200.48 46.8329 200.064 46.8329 199.216V195.392H48.7849V194H46.8329V191.216L44.9129 191.984V194H43.4729V195.392ZM62.1921 202H64.2881L60.0641 190.64H57.8241L53.6001 202H55.6961L56.7201 199.008H61.1681L62.1921 202ZM57.2641 197.44L58.5921 193.6C58.7201 193.232 58.8321 192.832 58.9281 192.384H58.9601C59.0561 192.832 59.1681 193.232 59.2961 193.6L60.6241 197.44H57.2641ZM72.7173 194.064C72.9573 194.064 73.1653 194.096 73.3733 194.144V192.704C73.2133 192.672 73.0853 192.656 72.9253 192.656C71.7733 192.656 71.0853 193.248 70.8293 194.128C70.3493 193.92 69.7893 193.808 69.1333 193.808C67.1013 193.808 65.8533 194.912 65.8533 196.496C65.8533 197.328 66.2053 198.048 66.8293 198.544C66.0453 198.848 65.5653 199.408 65.5653 200.24C65.5653 200.864 65.8693 201.392 66.5733 201.68C65.7093 201.968 65.2453 202.544 65.2453 203.248C65.2453 204.384 66.2533 205.312 69.0052 205.312C71.8853 205.312 73.2773 204.24 73.2773 202.592C73.2773 201.104 72.3173 200.288 70.4453 200.288H68.3493C67.4693 200.288 67.1332 199.984 67.1332 199.552C67.1332 199.264 67.2933 199.072 67.5333 198.944C67.9813 199.136 68.5253 199.232 69.1333 199.232C71.1813 199.232 72.4293 198.08 72.4293 196.496C72.4293 195.712 72.1253 195.056 71.5813 194.576C71.8053 194.24 72.2053 194.064 72.7173 194.064ZM69.1333 198.064C68.2373 198.064 67.6613 197.408 67.6613 196.496C67.6613 195.6 68.2373 194.976 69.1333 194.976C70.0293 194.976 70.6053 195.6 70.6053 196.512C70.6053 197.408 70.0293 198.064 69.1333 198.064ZM70.1573 201.936C71.0693 201.936 71.5333 202.272 71.5333 202.912C71.5333 203.568 70.9573 204.064 69.1333 204.064C67.7573 204.064 66.8453 203.744 66.8453 202.896C66.8453 202.512 67.0213 202.144 67.4053 201.904C67.6133 201.92 67.8373 201.936 68.0773 201.936H70.1573ZM81.455 197.6C81.455 195.152 80.127 193.808 77.807 193.808C75.423 193.808 73.983 195.44 73.983 198.08C73.983 200.704 75.455 202.192 77.903 202.192C79.535 202.192 80.799 201.424 81.391 200.032L79.919 199.36C79.551 200.224 78.879 200.688 77.967 200.688C76.703 200.688 75.855 199.824 75.839 198.48H81.455V197.6ZM79.567 197.216H75.839C75.871 195.888 76.559 195.088 77.775 195.088C78.911 195.088 79.567 195.776 79.567 197.088V197.216Z" fill="#362B26"/>
<path d="M191.784 192.272V190.64H184.408V202H186.472V197.056H191.512V195.424H186.472V192.272H191.784ZM196.778 202.192C199.082 202.192 200.698 200.672 200.698 197.984C200.698 195.312 199.082 193.808 196.778 193.808C194.474 193.808 192.858 195.312 192.858 197.984C192.858 200.672 194.474 202.192 196.778 202.192ZM196.778 200.736C195.546 200.736 194.81 199.808 194.81 197.984C194.81 196.16 195.546 195.264 196.778 195.264C198.01 195.264 198.73 196.16 198.73 197.984C198.73 199.808 198.01 200.736 196.778 200.736ZM204.385 195.936V194H202.593V202H204.513V198.64C204.513 197.76 204.593 196.848 205.233 196.224C205.601 195.872 206.129 195.648 206.897 195.648C206.993 195.648 207.073 195.664 207.153 195.664V193.824C207.073 193.808 207.009 193.808 206.929 193.808C205.633 193.808 204.785 194.672 204.385 195.936ZM215.455 197.6C215.455 195.152 214.127 193.808 211.807 193.808C209.423 193.808 207.983 195.44 207.983 198.08C207.983 200.704 209.455 202.192 211.903 202.192C213.535 202.192 214.799 201.424 215.391 200.032L213.919 199.36C213.551 200.224 212.879 200.688 211.967 200.688C210.703 200.688 209.855 199.824 209.839 198.48H215.455V197.6ZM213.567 197.216H209.839C209.871 195.888 210.559 195.088 211.775 195.088C212.911 195.088 213.567 195.776 213.567 197.088V197.216ZM220.301 202.192C222.381 202.192 223.581 201.168 223.581 199.664C223.581 198.4 222.909 197.632 221.373 197.36L219.805 197.072C219.101 196.944 218.733 196.704 218.733 196.16C218.733 195.536 219.245 195.2 220.141 195.2C221.197 195.2 221.901 195.648 222.285 196.368L223.613 195.648C223.229 194.496 221.949 193.808 220.237 193.808C218.205 193.808 216.973 194.832 216.973 196.272C216.973 197.552 217.773 198.336 219.261 198.608L220.685 198.864C221.485 198.992 221.837 199.216 221.837 199.792C221.837 200.368 221.325 200.784 220.333 200.784C219.197 200.784 218.397 200.272 218.045 199.376L216.605 200.016C217.117 201.424 218.477 202.192 220.301 202.192ZM224.473 195.392H225.913V199.52C225.913 201.136 226.553 202.144 228.473 202.144C228.969 202.144 229.321 202.096 229.785 202V200.384C229.529 200.432 229.321 200.48 229.001 200.48C228.201 200.48 227.833 200.064 227.833 199.216V195.392H229.785V194H227.833V191.216L225.913 191.984V194H224.473V195.392ZM239.336 202.272C242.232 202.272 243.704 200.736 243.704 198.784C243.704 196.768 242.456 195.904 240.584 195.504L238.936 195.152C237.688 194.88 237.176 194.4 237.176 193.472C237.176 192.512 238.008 191.936 239.24 191.936C240.744 191.936 241.688 192.688 242.056 194L243.704 193.136C243.208 191.248 241.496 190.368 239.336 190.368C236.776 190.368 235.176 191.664 235.176 193.632C235.176 195.568 236.36 196.528 238.152 196.896L239.736 197.232C240.984 197.488 241.656 197.872 241.656 198.976C241.656 200.16 240.568 200.624 239.4 200.624C237.64 200.624 236.712 199.6 236.328 198.32L234.568 199.088C235.032 200.944 236.648 202.272 239.336 202.272ZM245.418 192.672H247.498V190.672H245.418V192.672ZM245.514 202H247.434V194H245.514V202ZM249.167 200.736V202H255.775V200.512H251.503L255.535 195.216V194H249.343V195.456H253.279L249.167 200.736ZM264.002 197.6C264.002 195.152 262.674 193.808 260.354 193.808C257.97 193.808 256.53 195.44 256.53 198.08C256.53 200.704 258.002 202.192 260.45 202.192C262.082 202.192 263.346 201.424 263.938 200.032L262.466 199.36C262.098 200.224 261.426 200.688 260.514 200.688C259.25 200.688 258.402 199.824 258.386 198.48H264.002V197.6ZM262.114 197.216H258.386C258.418 195.888 259.106 195.088 260.322 195.088C261.458 195.088 262.114 195.776 262.114 197.088V197.216Z" fill="#362B26"/>
<path d="M7.904 359.64H3.408V371H5.472V366.6H7.888C10.336 366.6 11.872 365.24 11.872 363.096C11.872 361 10.32 359.64 7.904 359.64ZM7.52 365.032H5.472V361.224H7.52C8.864 361.224 9.696 361.96 9.696 363.128C9.696 364.312 8.864 365.032 7.52 365.032ZM13.5006 371H15.4206V366.76C15.4206 365.224 16.0766 364.344 17.2286 364.344C18.2046 364.344 18.7166 364.968 18.7166 366.184V371H20.6366V366.024C20.6366 363.912 19.7246 362.808 17.9966 362.808C16.7806 362.808 15.9006 363.368 15.4206 364.472V359.4H13.5006V371ZM25.0151 371.192C26.2951 371.192 27.3031 370.6 27.6871 369.624C27.7031 370.12 27.7511 370.6 27.8151 371H29.7351C29.5751 370.44 29.4951 369.608 29.4951 368.52V366.136C29.4951 363.816 28.4391 362.808 26.0711 362.808C24.0071 362.808 22.6631 363.864 22.5351 365.576H24.5031C24.5671 364.664 25.1271 364.168 26.0711 364.168C27.0951 364.168 27.5591 364.68 27.5591 365.88V366.088L25.8631 366.296C24.5991 366.472 23.8311 366.68 23.2551 367.016C22.6151 367.416 22.2791 368.056 22.2791 368.824C22.2791 370.248 23.3671 371.192 25.0151 371.192ZM25.6231 369.832C24.7751 369.832 24.2631 369.4 24.2631 368.728C24.2631 368.04 24.7431 367.656 25.7991 367.48L27.6071 367.208V367.72C27.6071 368.984 26.8071 369.832 25.6231 369.832ZM34.7701 371.192C36.8501 371.192 38.0501 370.168 38.0501 368.664C38.0501 367.4 37.3781 366.632 35.8421 366.36L34.2741 366.072C33.5701 365.944 33.2021 365.704 33.2021 365.16C33.2021 364.536 33.7141 364.2 34.6101 364.2C35.6661 364.2 36.3701 364.648 36.7541 365.368L38.0821 364.648C37.6981 363.496 36.4181 362.808 34.7061 362.808C32.6741 362.808 31.4421 363.832 31.4421 365.272C31.4421 366.552 32.2421 367.336 33.7301 367.608L35.1541 367.864C35.9541 367.992 36.3061 368.216 36.3061 368.792C36.3061 369.368 35.7941 369.784 34.8021 369.784C33.6661 369.784 32.8661 369.272 32.5141 368.376L31.0741 369.016C31.5861 370.424 32.9461 371.192 34.7701 371.192ZM46.7987 366.6C46.7987 364.152 45.4708 362.808 43.1508 362.808C40.7668 362.808 39.3268 364.44 39.3268 367.08C39.3268 369.704 40.7988 371.192 43.2468 371.192C44.8788 371.192 46.1428 370.424 46.7348 369.032L45.2628 368.36C44.8948 369.224 44.2228 369.688 43.3108 369.688C42.0468 369.688 41.1988 368.824 41.1828 367.48H46.7987V366.6ZM44.9108 366.216H41.1828C41.2148 364.888 41.9028 364.088 43.1188 364.088C44.2548 364.088 44.9108 364.776 44.9108 366.088V366.216Z" fill="#362B26"/>
<path d="M17.21 148.406C19.446 147.86 20.538 146.196 20.538 144.324C20.538 141.906 18.874 139.54 14.298 139.54H4.47V158H14.61C19.29 158 21.032 155.53 21.032 152.852C21.032 150.434 19.706 148.796 17.21 148.406ZM13.622 142.192C16.17 142.192 16.872 143.466 16.872 144.714C16.872 145.962 16.3 147.314 13.622 147.314H8.084V142.192H13.622ZM13.934 155.348H8.084V149.862H14.038C16.378 149.862 17.366 151.006 17.366 152.566C17.366 154.126 16.43 155.348 13.934 155.348ZM30.9965 158.39C35.5985 158.39 38.7445 155.764 38.7445 151.5C38.7445 147.21 35.5985 144.61 30.9965 144.61C26.3685 144.61 23.2225 147.21 23.2225 151.5C23.2225 155.764 26.3685 158.39 30.9965 158.39ZM30.9965 155.92C28.3445 155.92 26.7065 154.334 26.7065 151.5C26.7065 148.64 28.3445 147.08 30.9965 147.08C33.6225 147.08 35.2605 148.64 35.2605 151.5C35.2605 154.334 33.6225 155.92 30.9965 155.92ZM44.9583 148.406V145H41.8903V158H45.2443V152.93C45.2443 151.37 45.4783 149.888 46.5183 148.848C47.2203 148.146 48.2083 147.756 49.7163 147.756C50.0803 147.756 50.3923 147.782 50.7303 147.834V144.74C50.4183 144.688 50.1583 144.662 49.7943 144.662C47.3503 144.662 45.6343 146.17 44.9583 148.406ZM66.6596 151.136C66.6596 146.976 63.9556 144.61 59.3016 144.61C54.6996 144.61 51.7616 147.21 51.7616 151.63C51.7616 155.92 54.6736 158.39 59.4316 158.39C62.7336 158.39 65.1516 157.142 66.4516 154.854L63.8256 153.658C63.0196 155.114 61.5376 155.92 59.5616 155.92C56.8576 155.92 55.1676 154.516 55.0376 152.332H66.6596V151.136ZM63.3316 150.226H55.0376C55.1676 148.068 56.7276 146.742 59.2496 146.742C61.6676 146.742 63.3056 147.964 63.3316 150.096V150.226ZM74.1831 158.39C77.0431 158.39 79.0711 157.376 79.9551 155.634C79.9811 156.466 80.0331 157.324 80.1631 158H83.5431C83.3091 156.96 83.2051 155.738 83.2051 153.814V150.148C83.2051 146.378 81.0731 144.61 76.4711 144.61C72.3631 144.61 69.6331 146.43 69.3211 149.264H72.8311C73.0391 147.73 74.3391 146.898 76.4711 146.898C78.6551 146.898 79.8251 147.782 79.8251 149.68V149.966L75.1711 150.356C72.7271 150.59 71.4271 150.954 70.4911 151.552C69.4511 152.202 68.9051 153.242 68.9051 154.49C68.9051 156.908 70.9591 158.39 74.1831 158.39ZM75.3011 156.154C73.4551 156.154 72.3891 155.478 72.3891 154.308C72.3891 153.112 73.2211 152.514 75.4831 152.28L79.8771 151.838V152.514C79.8771 154.724 78.0051 156.154 75.3011 156.154ZM90.8489 139.15H87.4949V158H90.8489V139.15Z" fill="#054217"/>
<path d="M3.408 35H10.432V33.304H5.472V23.64H3.408V35ZM15.2936 35.192C17.5976 35.192 19.2136 33.672 19.2136 30.984C19.2136 28.312 17.5976 26.808 15.2936 26.808C12.9896 26.808 11.3736 28.312 11.3736 30.984C11.3736 33.672 12.9896 35.192 15.2936 35.192ZM15.2936 33.736C14.0616 33.736 13.3256 32.808 13.3256 30.984C13.3256 29.16 14.0616 28.264 15.2936 28.264C16.5256 28.264 17.2456 29.16 17.2456 30.984C17.2456 32.808 16.5256 33.736 15.2936 33.736ZM24.403 35.192C26.307 35.192 27.651 34.104 27.939 32.328L26.131 31.96C25.955 33.08 25.363 33.672 24.403 33.672C23.171 33.672 22.451 32.68 22.451 30.952C22.451 29.304 23.187 28.312 24.371 28.312C25.315 28.312 25.939 28.904 26.067 29.992L27.939 29.688C27.699 27.864 26.403 26.808 24.419 26.808C21.987 26.808 20.483 28.392 20.483 31C20.483 33.544 22.019 35.192 24.403 35.192ZM31.8589 35.192C33.1389 35.192 34.1469 34.6 34.5309 33.624C34.5469 34.12 34.5949 34.6 34.6589 35H36.5789C36.4189 34.44 36.3389 33.608 36.3389 32.52V30.136C36.3389 27.816 35.2829 26.808 32.9149 26.808C30.8509 26.808 29.5069 27.864 29.3789 29.576H31.3469C31.4109 28.664 31.9709 28.168 32.9149 28.168C33.9389 28.168 34.4029 28.68 34.4029 29.88V30.088L32.7069 30.296C31.4429 30.472 30.6749 30.68 30.0989 31.016C29.4589 31.416 29.1229 32.056 29.1229 32.824C29.1229 34.248 30.2109 35.192 31.8589 35.192ZM32.4669 33.832C31.6189 33.832 31.1069 33.4 31.1069 32.728C31.1069 32.04 31.5869 31.656 32.6429 31.48L34.4509 31.208V31.72C34.4509 32.984 33.6509 33.832 32.4669 33.832ZM37.5198 28.392H38.9598V32.52C38.9598 34.136 39.5998 35.144 41.5198 35.144C42.0158 35.144 42.3678 35.096 42.8318 35V33.384C42.5758 33.432 42.3678 33.48 42.0477 33.48C41.2478 33.48 40.8798 33.064 40.8798 32.216V28.392H42.8318V27H40.8798V24.216L38.9598 24.984V27H37.5198V28.392ZM44.4965 25.672H46.5765V23.672H44.4965V25.672ZM44.5925 35H46.5125V27H44.5925V35ZM52.3093 35.192C54.6133 35.192 56.2292 33.672 56.2292 30.984C56.2292 28.312 54.6133 26.808 52.3093 26.808C50.0053 26.808 48.3893 28.312 48.3893 30.984C48.3893 33.672 50.0053 35.192 52.3093 35.192ZM52.3093 33.736C51.0773 33.736 50.3413 32.808 50.3413 30.984C50.3413 29.16 51.0773 28.264 52.3093 28.264C53.5413 28.264 54.2613 29.16 54.2613 30.984C54.2613 32.808 53.5413 33.736 52.3093 33.736ZM58.1238 35H60.0438V30.76C60.0438 29.24 60.7158 28.344 61.8358 28.344C62.8438 28.344 63.3398 28.968 63.3398 30.232V35H65.2598V30.04C65.2598 27.896 64.3478 26.808 62.6038 26.808C61.3718 26.808 60.4918 27.384 59.9478 28.552V27H58.1238V35Z" fill="#362B26"/>
<path d="M17.3 78.72C25.832 78.72 31.412 73.464 31.412 65.22C31.412 56.94 25.832 51.72 17.3 51.72C8.768 51.72 3.188 56.94 3.188 65.22C3.188 73.428 8.768 78.72 17.3 78.72ZM17.3 74.796C11.828 74.796 8.408 71.016 8.408 65.22C8.408 59.352 11.828 55.644 17.3 55.644C22.772 55.644 26.192 59.352 26.192 65.22C26.192 71.088 22.772 74.796 17.3 74.796ZM35.6819 78H40.3259V69.252C40.3259 65.364 42.4859 63.096 46.0139 63.096C49.3259 63.096 50.9099 64.896 50.9099 68.496V78H55.5539V67.884C55.5539 62.34 52.8899 59.424 47.8139 59.424C44.2139 59.424 41.6219 60.936 40.1819 63.852V60H35.6819V78ZM57.8726 63.276H62.0486V71.88C62.0486 75.84 63.8486 78.396 68.9966 78.396C70.5446 78.396 71.8046 78.18 72.8126 77.892V74.184C72.0566 74.364 71.1926 74.508 70.1486 74.508C67.8086 74.508 66.6926 73.464 66.6926 71.16V63.276H72.8126V60H66.6926V53.7L62.0486 55.5V60H57.8726V63.276ZM82.5748 78.54C86.5348 78.54 89.3428 77.136 90.5668 74.724C90.6028 75.876 90.6748 77.064 90.8548 78H95.5348C95.2108 76.56 95.0668 74.868 95.0668 72.204V67.128C95.0668 61.908 92.1148 59.46 85.7428 59.46C80.0548 59.46 76.2748 61.98 75.8428 65.904H80.7028C80.9908 63.78 82.7908 62.628 85.7428 62.628C88.7668 62.628 90.3868 63.852 90.3868 66.48V66.876L83.9428 67.416C80.5588 67.74 78.7588 68.244 77.4628 69.072C76.0228 69.972 75.2668 71.412 75.2668 73.14C75.2668 76.488 78.1108 78.54 82.5748 78.54ZM84.1228 75.444C81.5668 75.444 80.0908 74.508 80.0908 72.888C80.0908 71.232 81.2428 70.404 84.3748 70.08L90.4588 69.468V70.404C90.4588 73.464 87.8668 75.444 84.1228 75.444ZM105.039 64.716V60H100.791V78H105.435V70.98C105.435 68.82 105.759 66.768 107.199 65.328C108.171 64.356 109.539 63.816 111.627 63.816C112.131 63.816 112.563 63.852 113.031 63.924V59.64C112.599 59.568 112.239 59.532 111.735 59.532C108.351 59.532 105.975 61.62 105.039 64.716ZM116.571 57.012H121.647V52.368H116.571V57.012ZM116.787 78H121.431V60H116.787V78ZM136.544 78.54C142.916 78.54 147.272 74.904 147.272 69C147.272 63.06 142.916 59.46 136.544 59.46C130.136 59.46 125.78 63.06 125.78 69C125.78 74.904 130.136 78.54 136.544 78.54ZM136.544 75.12C132.872 75.12 130.604 72.924 130.604 69C130.604 65.04 132.872 62.88 136.544 62.88C140.18 62.88 142.448 65.04 142.448 69C142.448 72.924 140.18 75.12 136.544 75.12Z" fill="#054217"/>
<path d="M8.736 235.494C13.494 235.494 16.484 232.894 16.484 228.89C16.484 224.912 14.04 222.572 9.958 222.572C7.54 222.572 5.668 223.404 4.732 224.912L5.382 219.634H15.444V216.93H2.756L1.612 227.512L4.784 227.798C5.46 226.056 6.786 225.094 8.944 225.094C11.544 225.094 13 226.55 13 228.994C13 231.412 11.44 232.842 8.788 232.842C6.474 232.842 4.966 231.646 4.576 229.852L1.118 230.32C1.716 233.518 4.602 235.494 8.736 235.494ZM27.2181 235.494C32.5221 235.494 35.7461 231.828 35.7461 225.978C35.7461 220.102 32.5221 216.436 27.2181 216.436C21.9141 216.436 18.6641 220.102 18.6641 225.978C18.6641 231.828 21.9141 235.494 27.2181 235.494ZM27.2181 232.816C24.0461 232.816 22.2001 230.294 22.2001 225.978C22.2001 221.61 24.0461 219.114 27.2181 219.114C30.3901 219.114 32.2361 221.61 32.2361 225.978C32.2361 230.294 30.3901 232.816 27.2181 232.816ZM50.4489 235H54.0629V228.188L61.6549 216.54H57.6769L52.8149 224.262C52.5289 224.73 52.3729 225.042 52.2949 225.354H52.2429C52.1649 225.042 52.0089 224.73 51.7489 224.262L46.9389 216.54H42.8829L50.4489 228.188V235ZM74.6889 228.136C74.6889 223.976 71.9849 221.61 67.3309 221.61C62.7289 221.61 59.7909 224.21 59.7909 228.63C59.7909 232.92 62.7029 235.39 67.4609 235.39C70.7629 235.39 73.1809 234.142 74.4809 231.854L71.8549 230.658C71.0489 232.114 69.5669 232.92 67.5909 232.92C64.8869 232.92 63.1969 231.516 63.0669 229.332H74.6889V228.136ZM71.3609 227.226H63.0669C63.1969 225.068 64.7569 223.742 67.2789 223.742C69.6969 223.742 71.3349 224.964 71.3609 227.096V227.226ZM82.2124 235.39C85.0724 235.39 87.1004 234.376 87.9844 232.634C88.0104 233.466 88.0624 234.324 88.1924 235H91.5724C91.3384 233.96 91.2344 232.738 91.2344 230.814V227.148C91.2344 223.378 89.1024 221.61 84.5004 221.61C80.3924 221.61 77.6624 223.43 77.3504 226.264H80.8604C81.0684 224.73 82.3684 223.898 84.5004 223.898C86.6844 223.898 87.8544 224.782 87.8544 226.68V226.966L83.2004 227.356C80.7564 227.59 79.4564 227.954 78.5204 228.552C77.4804 229.202 76.9344 230.242 76.9344 231.49C76.9344 233.908 78.9884 235.39 82.2124 235.39ZM83.3304 233.154C81.4844 233.154 80.4184 232.478 80.4184 231.308C80.4184 230.112 81.2504 229.514 83.5124 229.28L87.9064 228.838V229.514C87.9064 231.724 86.0344 233.154 83.3304 233.154ZM98.4368 225.406V222H95.3688V235H98.7228V229.93C98.7228 228.37 98.9568 226.888 99.9968 225.848C100.699 225.146 101.687 224.756 103.195 224.756C103.559 224.756 103.871 224.782 104.209 224.834V221.74C103.897 221.688 103.637 221.662 103.273 221.662C100.829 221.662 99.1128 223.17 98.4368 225.406ZM112.548 235.39C116.838 235.39 118.97 233.778 118.97 231.126C118.97 228.942 117.774 227.616 114.706 227.33L110.936 226.992C109.48 226.836 108.83 226.368 108.83 225.484C108.83 224.444 109.896 223.898 111.872 223.898C114.316 223.898 115.824 224.704 116.786 226.134L118.918 224.782C117.878 222.806 115.434 221.61 112.054 221.61C108.024 221.61 105.684 223.092 105.684 225.666C105.684 227.85 107.14 229.202 110.156 229.514L113.77 229.826C115.304 229.982 115.85 230.398 115.85 231.386C115.85 232.478 114.836 233.05 112.782 233.05C110.026 233.05 108.258 232.114 107.322 230.398L105.034 231.672C106.282 234.09 108.804 235.39 112.548 235.39Z" fill="#054217"/>
<path d="M186.356 235H189.788V216.93H186.876C186.226 218.906 184.588 220.024 182.3 220.05H181.702V223.04H182.664C184.198 223.04 185.68 222.546 186.356 221.74V235ZM202.531 235.494C207.835 235.494 211.059 231.828 211.059 225.978C211.059 220.102 207.835 216.436 202.531 216.436C197.227 216.436 193.977 220.102 193.977 225.978C193.977 231.828 197.227 235.494 202.531 235.494ZM202.531 232.816C199.359 232.816 197.513 230.294 197.513 225.978C197.513 221.61 199.359 219.114 202.531 219.114C205.703 219.114 207.549 221.61 207.549 225.978C207.549 230.294 205.703 232.816 202.531 232.816ZM222.056 235.494C227.36 235.494 230.584 231.828 230.584 225.978C230.584 220.102 227.36 216.436 222.056 216.436C216.752 216.436 213.502 220.102 213.502 225.978C213.502 231.828 216.752 235.494 222.056 235.494ZM222.056 232.816C218.884 232.816 217.038 230.294 217.038 225.978C217.038 221.61 218.884 219.114 222.056 219.114C225.228 219.114 227.074 221.61 227.074 225.978C227.074 230.294 225.228 232.816 222.056 232.816ZM255.764 235H259.534L251.474 216.54H247.392L239.332 235H243.102L244.922 230.502H253.944L255.764 235ZM245.962 227.876L248.25 222.208C248.796 221.038 249.134 220.284 249.42 219.244H249.472C249.732 220.284 250.07 221.038 250.616 222.208L252.904 227.876H245.962ZM268.292 235.39C272.14 235.39 274.844 233.596 275.494 230.632L272.166 230.06C271.698 231.88 270.372 232.842 268.292 232.842C265.692 232.842 264.08 231.204 264.08 228.448C264.08 225.744 265.64 224.132 268.24 224.132C270.346 224.132 271.698 225.12 272.088 226.914L275.52 226.42C274.896 223.326 272.322 221.61 268.344 221.61C263.586 221.61 260.596 224.236 260.596 228.474C260.596 232.686 263.612 235.39 268.292 235.39ZM281.697 225.406V222H278.629V235H281.983V229.93C281.983 228.37 282.217 226.888 283.257 225.848C283.959 225.146 284.947 224.756 286.455 224.756C286.819 224.756 287.131 224.782 287.469 224.834V221.74C287.157 221.688 286.897 221.662 286.533 221.662C284.089 221.662 282.373 223.17 281.697 225.406ZM303.398 228.136C303.398 223.976 300.694 221.61 296.04 221.61C291.438 221.61 288.5 224.21 288.5 228.63C288.5 232.92 291.412 235.39 296.17 235.39C299.472 235.39 301.89 234.142 303.19 231.854L300.564 230.658C299.758 232.114 298.276 232.92 296.3 232.92C293.596 232.92 291.906 231.516 291.776 229.332H303.398V228.136ZM300.07 227.226H291.776C291.906 225.068 293.466 223.742 295.988 223.742C298.406 223.742 300.044 224.964 300.07 227.096V227.226ZM312.718 235.39C317.008 235.39 319.14 233.778 319.14 231.126C319.14 228.942 317.944 227.616 314.876 227.33L311.106 226.992C309.65 226.836 309 226.368 309 225.484C309 224.444 310.066 223.898 312.042 223.898C314.486 223.898 315.994 224.704 316.956 226.134L319.088 224.782C318.048 222.806 315.604 221.61 312.224 221.61C308.194 221.61 305.854 223.092 305.854 225.666C305.854 227.85 307.31 229.202 310.326 229.514L313.94 229.826C315.474 229.982 316.02 230.398 316.02 231.386C316.02 232.478 315.006 233.05 312.952 233.05C310.196 233.05 308.428 232.114 307.492 230.398L305.204 231.672C306.452 234.09 308.974 235.39 312.718 235.39Z" fill="#054217"/>
<path d="M188.008 125.272C190.904 125.272 192.376 123.736 192.376 121.784C192.376 119.768 191.128 118.904 189.256 118.504L187.608 118.152C186.36 117.88 185.848 117.4 185.848 116.472C185.848 115.512 186.68 114.936 187.912 114.936C189.416 114.936 190.36 115.688 190.728 117L192.376 116.136C191.88 114.248 190.168 113.368 188.008 113.368C185.448 113.368 183.848 114.664 183.848 116.632C183.848 118.568 185.032 119.528 186.824 119.896L188.408 120.232C189.656 120.488 190.328 120.872 190.328 121.976C190.328 123.16 189.24 123.624 188.072 123.624C186.312 123.624 185.384 122.6 185 121.32L183.24 122.088C183.704 123.944 185.32 125.272 188.008 125.272ZM201.033 120.6C201.033 118.152 199.705 116.808 197.385 116.808C195.001 116.808 193.561 118.44 193.561 121.08C193.561 123.704 195.033 125.192 197.481 125.192C199.113 125.192 200.377 124.424 200.969 123.032L199.497 122.36C199.129 123.224 198.457 123.688 197.545 123.688C196.281 123.688 195.433 122.824 195.417 121.48H201.033V120.6ZM199.145 120.216H195.417C195.449 118.888 196.137 118.088 197.353 118.088C198.489 118.088 199.145 118.776 199.145 120.088V120.216ZM209.846 120.6C209.846 118.152 208.518 116.808 206.198 116.808C203.814 116.808 202.374 118.44 202.374 121.08C202.374 123.704 203.846 125.192 206.294 125.192C207.926 125.192 209.19 124.424 209.782 123.032L208.31 122.36C207.942 123.224 207.27 123.688 206.358 123.688C205.094 123.688 204.246 122.824 204.23 121.48H209.846V120.6ZM207.958 120.216H204.23C204.262 118.888 204.95 118.088 206.166 118.088C207.302 118.088 207.958 118.776 207.958 120.088V120.216ZM214.434 125.192C215.634 125.192 216.546 124.584 216.994 123.56V125H218.802V113.4H216.882V118.136C216.434 117.24 215.634 116.808 214.578 116.808C212.578 116.808 211.202 118.504 211.202 121.016C211.202 123.512 212.498 125.192 214.434 125.192ZM215.09 123.72C213.922 123.72 213.202 122.696 213.202 120.984C213.202 119.272 213.906 118.28 215.074 118.28C216.226 118.28 216.93 119.192 216.93 120.76V121.272C216.93 122.776 216.21 123.72 215.09 123.72ZM223.436 113.4H221.516V125H223.436V113.4ZM225.965 115.672H228.045V113.672H225.965V115.672ZM226.061 125H227.981V117H226.061V125ZM230.53 125H232.45V120.76C232.45 119.24 233.122 118.344 234.242 118.344C235.25 118.344 235.746 118.968 235.746 120.232V125H237.666V120.04C237.666 117.896 236.754 116.808 235.01 116.808C233.778 116.808 232.898 117.384 232.354 118.552V117H230.53V125ZM246.67 117.064C246.91 117.064 247.118 117.096 247.326 117.144V115.704C247.166 115.672 247.038 115.656 246.878 115.656C245.726 115.656 245.038 116.248 244.782 117.128C244.302 116.92 243.742 116.808 243.086 116.808C241.054 116.808 239.806 117.912 239.806 119.496C239.806 120.328 240.158 121.048 240.782 121.544C239.998 121.848 239.518 122.408 239.518 123.24C239.518 123.864 239.822 124.392 240.526 124.68C239.662 124.968 239.198 125.544 239.198 126.248C239.198 127.384 240.206 128.312 242.958 128.312C245.838 128.312 247.23 127.24 247.23 125.592C247.23 124.104 246.27 123.288 244.398 123.288H242.302C241.422 123.288 241.086 122.984 241.086 122.552C241.086 122.264 241.246 122.072 241.486 121.944C241.934 122.136 242.478 122.232 243.086 122.232C245.134 122.232 246.382 121.08 246.382 119.496C246.382 118.712 246.078 118.056 245.534 117.576C245.758 117.24 246.158 117.064 246.67 117.064ZM243.086 121.064C242.19 121.064 241.614 120.408 241.614 119.496C241.614 118.6 242.19 117.976 243.086 117.976C243.982 117.976 244.558 118.6 244.558 119.512C244.558 120.408 243.982 121.064 243.086 121.064ZM244.11 124.936C245.022 124.936 245.486 125.272 245.486 125.912C245.486 126.568 244.91 127.064 243.086 127.064C241.71 127.064 240.798 126.744 240.798 125.896C240.798 125.512 240.974 125.144 241.358 124.904C241.566 124.92 241.79 124.936 242.03 124.936H244.11ZM251.645 125.192C253.725 125.192 254.925 124.168 254.925 122.664C254.925 121.4 254.253 120.632 252.717 120.36L251.149 120.072C250.445 119.944 250.077 119.704 250.077 119.16C250.077 118.536 250.589 118.2 251.485 118.2C252.541 118.2 253.245 118.648 253.629 119.368L254.957 118.648C254.573 117.496 253.293 116.808 251.581 116.808C249.549 116.808 248.317 117.832 248.317 119.272C248.317 120.552 249.117 121.336 250.605 121.608L252.029 121.864C252.829 121.992 253.181 122.216 253.181 122.792C253.181 123.368 252.669 123.784 251.677 123.784C250.541 123.784 249.741 123.272 249.389 122.376L247.949 123.016C248.461 124.424 249.821 125.192 251.645 125.192ZM265.513 113.64H261.017V125H263.081V120.6H265.497C267.945 120.6 269.481 119.24 269.481 117.096C269.481 115 267.929 113.64 265.513 113.64ZM265.129 119.032H263.081V115.224H265.129C266.473 115.224 267.305 115.96 267.305 117.128C267.305 118.312 266.473 119.032 265.129 119.032ZM273.03 113.4H271.11V125H273.03V113.4ZM277.687 125.192C278.967 125.192 279.975 124.6 280.359 123.624C280.375 124.12 280.423 124.6 280.487 125H282.407C282.247 124.44 282.167 123.608 282.167 122.52V120.136C282.167 117.816 281.111 116.808 278.743 116.808C276.679 116.808 275.335 117.864 275.207 119.576H277.175C277.239 118.664 277.799 118.168 278.743 118.168C279.767 118.168 280.231 118.68 280.231 119.88V120.088L278.535 120.296C277.271 120.472 276.503 120.68 275.927 121.016C275.287 121.416 274.951 122.056 274.951 122.824C274.951 124.248 276.039 125.192 277.687 125.192ZM278.295 123.832C277.447 123.832 276.935 123.4 276.935 122.728C276.935 122.04 277.415 121.656 278.471 121.48L280.279 121.208V121.72C280.279 122.984 279.479 123.832 278.295 123.832ZM284.53 125H286.45V120.76C286.45 119.24 287.122 118.344 288.242 118.344C289.25 118.344 289.746 118.968 289.746 120.232V125H291.666V120.04C291.666 117.896 290.754 116.808 289.01 116.808C287.778 116.808 286.898 117.384 286.354 118.552V117H284.53V125ZM292.754 118.392H294.194V122.52C294.194 124.136 294.834 125.144 296.754 125.144C297.25 125.144 297.602 125.096 298.066 125V123.384C297.81 123.432 297.602 123.48 297.282 123.48C296.482 123.48 296.114 123.064 296.114 122.216V118.392H298.066V117H296.114V114.216L294.194 114.984V117H292.754V118.392ZM306.549 120.6C306.549 118.152 305.221 116.808 302.901 116.808C300.517 116.808 299.077 118.44 299.077 121.08C299.077 123.704 300.549 125.192 302.997 125.192C304.629 125.192 305.893 124.424 306.485 123.032L305.013 122.36C304.645 123.224 303.973 123.688 303.061 123.688C301.797 123.688 300.949 122.824 300.933 121.48H306.549V120.6ZM304.661 120.216H300.933C300.965 118.888 301.653 118.088 302.869 118.088C304.005 118.088 304.661 118.776 304.661 120.088V120.216ZM311.137 125.192C312.337 125.192 313.249 124.584 313.697 123.56V125H315.505V113.4H313.585V118.136C313.137 117.24 312.337 116.808 311.281 116.808C309.281 116.808 307.905 118.504 307.905 121.016C307.905 123.512 309.201 125.192 311.137 125.192ZM311.793 123.72C310.625 123.72 309.905 122.696 309.905 120.984C309.905 119.272 310.609 118.28 311.777 118.28C312.929 118.28 313.633 119.192 313.633 120.76V121.272C313.633 122.776 312.913 123.72 311.793 123.72Z" fill="#362B26"/>
<path d="M186.356 158H189.788V139.93H186.876C186.226 141.906 184.588 143.024 182.3 143.05H181.702V146.04H182.664C184.198 146.04 185.68 145.546 186.356 144.74V158ZM202.531 158.494C207.835 158.494 211.059 154.828 211.059 148.978C211.059 143.102 207.835 139.436 202.531 139.436C197.227 139.436 193.977 143.102 193.977 148.978C193.977 154.828 197.227 158.494 202.531 158.494ZM202.531 155.816C199.359 155.816 197.513 153.294 197.513 148.978C197.513 144.61 199.359 142.114 202.531 142.114C205.703 142.114 207.549 144.61 207.549 148.978C207.549 153.294 205.703 155.816 202.531 155.816ZM222.056 158.494C227.36 158.494 230.584 154.828 230.584 148.978C230.584 143.102 227.36 139.436 222.056 139.436C216.752 139.436 213.502 143.102 213.502 148.978C213.502 154.828 216.752 158.494 222.056 158.494ZM222.056 155.816C218.884 155.816 217.038 153.294 217.038 148.978C217.038 144.61 218.884 142.114 222.056 142.114C225.228 142.114 227.074 144.61 227.074 148.978C227.074 153.294 225.228 155.816 222.056 155.816ZM233.798 161.9C236.138 161.25 236.944 159.898 236.944 157.714V154.23H232.992V158H235.02V158.078C235.02 159.248 234.63 159.95 233.174 160.392L233.798 161.9ZM247.853 158.494C253.157 158.494 256.381 154.828 256.381 148.978C256.381 143.102 253.157 139.436 247.853 139.436C242.549 139.436 239.299 143.102 239.299 148.978C239.299 154.828 242.549 158.494 247.853 158.494ZM247.853 155.816C244.681 155.816 242.835 153.294 242.835 148.978C242.835 144.61 244.681 142.114 247.853 142.114C251.025 142.114 252.871 144.61 252.871 148.978C252.871 153.294 251.025 155.816 247.853 155.816ZM267.378 158.494C272.682 158.494 275.906 154.828 275.906 148.978C275.906 143.102 272.682 139.436 267.378 139.436C262.074 139.436 258.824 143.102 258.824 148.978C258.824 154.828 262.074 158.494 267.378 158.494ZM267.378 155.816C264.206 155.816 262.36 153.294 262.36 148.978C262.36 144.61 264.206 142.114 267.378 142.114C270.55 142.114 272.396 144.61 272.396 148.978C272.396 153.294 270.55 155.816 267.378 155.816ZM286.904 158.494C292.208 158.494 295.432 154.828 295.432 148.978C295.432 143.102 292.208 139.436 286.904 139.436C281.6 139.436 278.35 143.102 278.35 148.978C278.35 154.828 281.6 158.494 286.904 158.494ZM286.904 155.816C283.732 155.816 281.886 153.294 281.886 148.978C281.886 144.61 283.732 142.114 286.904 142.114C290.076 142.114 291.922 144.61 291.922 148.978C291.922 153.294 290.076 155.816 286.904 155.816Z" fill="#054217"/>
<path d="M278 383H333C338.523 383 343 387.477 343 393V416C343 421.523 338.523 426 333 426H278V383Z" fill="#FF4D24"/>
<rect x="209" y="383" width="65" height="43" fill="#00823B"/>
<rect x="140" y="383" width="65" height="43" fill="#00823B"/>
<rect x="71" y="383" width="65" height="43" fill="#00823B"/>
<path d="M2 393C2 387.477 6.47715 383 12 383H67V426H12C6.47715 426 2 421.523 2 416V393Z" fill="#00823B"/>
<path d="M11.7945 436.9H7.92449V444H9.71449V441.55H11.7345C13.4345 441.55 14.5045 440.64 14.5045 439.18C14.5045 437.78 13.4545 436.9 11.7945 436.9ZM11.3545 440.31H9.71449V438.16H11.3545C12.1645 438.16 12.6145 438.55 12.6145 439.23C12.6145 439.92 12.1545 440.31 11.3545 440.31ZM20.2833 444H22.2633L20.5633 441.11C21.6133 440.78 22.0533 439.95 22.0533 439.1C22.0533 437.89 21.3033 436.9 19.3333 436.9H15.4733V444H17.2633V441.35H18.7833L20.2833 444ZM17.2633 438.14H18.9433C19.8333 438.14 20.1733 438.56 20.1733 439.12C20.1733 439.71 19.8333 440.15 18.9433 440.15H17.2633V438.14ZM26.707 444.2C29.157 444.2 30.747 442.74 30.747 440.45C30.747 438.16 29.157 436.7 26.707 436.7C24.257 436.7 22.667 438.16 22.667 440.45C22.667 442.74 24.257 444.2 26.707 444.2ZM26.707 442.82C25.377 442.82 24.537 441.9 24.537 440.45C24.537 438.99 25.377 438.08 26.707 438.08C28.037 438.08 28.877 438.99 28.877 440.45C28.877 441.91 28.037 442.82 26.707 442.82ZM35.4751 444.2C37.4551 444.2 38.7751 443.27 39.2251 441.71L37.3951 441.32C37.1851 442.26 36.5251 442.78 35.5151 442.78C34.1751 442.78 33.3551 441.86 33.3551 440.45C33.3551 439.01 34.1551 438.11 35.4751 438.11C36.5251 438.11 37.1851 438.66 37.3651 439.63L39.2051 439.31C38.8951 437.69 37.5351 436.7 35.5151 436.7C33.0851 436.7 31.4951 438.21 31.4951 440.47C31.4951 442.74 32.9751 444.2 35.4751 444.2ZM40.0978 436.9V441.21C40.0978 443.01 41.3778 444.2 43.5978 444.2C45.8178 444.2 47.0978 443.02 47.0978 441.22V436.9H45.2978V441.1C45.2978 442.09 44.6778 442.77 43.5978 442.77C42.5178 442.77 41.8978 442.09 41.8978 441.1V436.9H40.0978ZM53.3595 444H55.3395L53.6395 441.11C54.6895 440.78 55.1295 439.95 55.1295 439.1C55.1295 437.89 54.3795 436.9 52.4095 436.9H48.5495V444H50.3395V441.35H51.8595L53.3595 444ZM50.3395 438.14H52.0195C52.9095 438.14 53.2495 438.56 53.2495 439.12C53.2495 439.71 52.9095 440.15 52.0195 440.15H50.3395V438.14ZM58.2496 442.69V441.01H62.1096V439.75H58.2496V438.2H62.2796V436.9H56.4596V444H62.3496V442.69H58.2496Z" fill="#054217"/>
<path d="M81.73 436.9H77.86V444H79.65V441.55H81.67C83.37 441.55 84.44 440.64 84.44 439.18C84.44 437.78 83.39 436.9 81.73 436.9ZM81.29 440.31H79.65V438.16H81.29C82.1 438.16 82.55 438.55 82.55 439.23C82.55 439.92 82.09 440.31 81.29 440.31ZM90.2189 444H92.1989L90.4989 441.11C91.5489 440.78 91.9889 439.95 91.9889 439.1C91.9889 437.89 91.2389 436.9 89.2689 436.9H85.4089V444H87.1989V441.35H88.7189L90.2189 444ZM87.1989 438.14H88.8789C89.7689 438.14 90.1089 438.56 90.1089 439.12C90.1089 439.71 89.7689 440.15 88.8789 440.15H87.1989V438.14ZM95.109 442.69V441.01H98.969V439.75H95.109V438.2H99.139V436.9H93.319V444H99.209V442.69H95.109ZM104.445 436.9H100.575V444H102.365V441.55H104.385C106.085 441.55 107.155 440.64 107.155 439.18C107.155 437.78 106.105 436.9 104.445 436.9ZM104.005 440.31H102.365V438.16H104.005C104.815 438.16 105.265 438.55 105.265 439.23C105.265 439.92 104.805 440.31 104.005 440.31ZM112.806 444H114.666L111.656 436.9H109.526L106.506 444H108.366L108.966 442.45H112.216L112.806 444ZM109.436 441.23L110.116 439.45C110.336 438.94 110.476 438.61 110.576 438.13H110.596C110.706 438.61 110.846 438.94 111.066 439.45L111.746 441.23H109.436ZM120.424 444H122.404L120.704 441.11C121.754 440.78 122.194 439.95 122.194 439.1C122.194 437.89 121.444 436.9 119.474 436.9H115.614V444H117.404V441.35H118.924L120.424 444ZM117.404 438.14H119.084C119.974 438.14 120.314 438.56 120.314 439.12C120.314 439.71 119.974 440.15 119.084 440.15H117.404V438.14ZM125.314 442.69V441.01H129.174V439.75H125.314V438.2H129.344V436.9H123.524V444H129.414V442.69H125.314Z" fill="#054217"/>
<path d="M158.044 436.9H154.174V444H155.964V441.55H157.984C159.684 441.55 160.754 440.64 160.754 439.18C160.754 437.78 159.704 436.9 158.044 436.9ZM157.604 440.31H155.964V438.16H157.604C158.414 438.16 158.864 438.55 158.864 439.23C158.864 439.92 158.404 440.31 157.604 440.31ZM161.723 444H167.233V442.56H163.513V436.9H161.723V444ZM174.101 444H175.961L172.951 436.9H170.821L167.801 444H169.661L170.261 442.45H173.511L174.101 444ZM170.731 441.23L171.411 439.45C171.631 438.94 171.771 438.61 171.871 438.13H171.891C172.001 438.61 172.141 438.94 172.361 439.45L173.041 441.23H170.731ZM176.909 444H178.549V440C178.549 439.66 178.549 439.35 178.539 439.05H178.569C178.669 439.29 178.869 439.61 179.039 439.88L182.099 444H183.959V436.9H182.319V440.89V441.83H182.299C182.189 441.57 182.009 441.25 181.819 440.97L178.869 436.9H176.909V444ZM191.57 436.9H184.86V438.32H187.32V444H189.11V438.32H191.57V436.9Z" fill="#054217"/>
<path d="M216.185 436.9H212.315V444H214.105V441.55H216.125C217.825 441.55 218.895 440.64 218.895 439.18C218.895 437.78 217.845 436.9 216.185 436.9ZM215.745 440.31H214.105V438.16H215.745C216.555 438.16 217.005 438.55 217.005 439.23C217.005 439.92 216.545 440.31 215.745 440.31ZM224.674 444H226.654L224.954 441.11C226.004 440.78 226.444 439.95 226.444 439.1C226.444 437.89 225.694 436.9 223.724 436.9H219.864V444H221.654V441.35H223.174L224.674 444ZM221.654 438.14H223.334C224.224 438.14 224.564 438.56 224.564 439.12C224.564 439.71 224.224 440.15 223.334 440.15H221.654V438.14ZM229.564 442.69V441.01H233.424V439.75H229.564V438.2H233.594V436.9H227.774V444H233.664V442.69H229.564ZM237.871 444.2C240.021 444.2 241.241 443.31 241.241 441.86C241.241 440.61 240.521 440.01 238.961 439.76L237.531 439.55C236.681 439.41 236.391 439.21 236.391 438.75C236.391 438.27 236.901 438 237.771 438C238.821 438 239.631 438.41 240.071 439.12L241.241 438.14C240.571 437.17 239.391 436.7 237.871 436.7C235.871 436.7 234.681 437.51 234.681 438.86C234.681 440.09 235.431 440.76 236.891 440.99L238.361 441.21C239.161 441.33 239.471 441.53 239.471 442.02C239.471 442.59 238.911 442.85 237.951 442.85C236.781 442.85 235.961 442.35 235.501 441.55L234.181 442.47C234.771 443.55 236.091 444.2 237.871 444.2ZM244.144 442.69V441.01H248.004V439.75H244.144V438.2H248.174V436.9H242.354V444H248.244V442.69H244.144ZM254.42 444H256.4L254.7 441.11C255.75 440.78 256.19 439.95 256.19 439.1C256.19 437.89 255.44 436.9 253.47 436.9H249.61V444H251.4V441.35H252.92L254.42 444ZM251.4 438.14H253.08C253.97 438.14 254.31 438.56 254.31 439.12C254.31 439.71 253.97 440.15 253.08 440.15H251.4V438.14ZM259.258 444H261.378L264.248 436.9H262.288L260.558 441.58C260.438 441.94 260.378 442.18 260.338 442.44H260.298C260.258 442.18 260.188 441.94 260.068 441.58L258.348 436.9H256.388L259.258 444ZM266.859 442.69V441.01H270.719V439.75H266.859V438.2H270.889V436.9H265.069V444H270.959V442.69H266.859Z" fill="#054217"/>
<path d="M288.916 436.9H285.046V444H286.836V441.55H288.856C290.556 441.55 291.626 440.64 291.626 439.18C291.626 437.78 290.576 436.9 288.916 436.9ZM288.476 440.31H286.836V438.16H288.476C289.286 438.16 289.736 438.55 289.736 439.23C289.736 439.92 289.276 440.31 288.476 440.31ZM297.404 444H299.384L297.684 441.11C298.734 440.78 299.174 439.95 299.174 439.1C299.174 437.89 298.424 436.9 296.454 436.9H292.594V444H294.384V441.35H295.904L297.404 444ZM294.384 438.14H296.064C296.954 438.14 297.294 438.56 297.294 439.12C297.294 439.71 296.954 440.15 296.064 440.15H294.384V438.14ZM303.828 444.2C306.278 444.2 307.868 442.74 307.868 440.45C307.868 438.16 306.278 436.7 303.828 436.7C301.378 436.7 299.788 438.16 299.788 440.45C299.788 442.74 301.378 444.2 303.828 444.2ZM303.828 442.82C302.498 442.82 301.658 441.9 301.658 440.45C301.658 438.99 302.498 438.08 303.828 438.08C305.158 438.08 305.998 438.99 305.998 440.45C305.998 441.91 305.158 442.82 303.828 442.82ZM314.58 436.9H307.87V438.32H310.33V444H312.12V438.32H314.58V436.9ZM317.265 442.69V441.01H321.125V439.75H317.265V438.2H321.295V436.9H315.475V444H321.365V442.69H317.265ZM326.043 444.2C328.023 444.2 329.343 443.27 329.793 441.71L327.963 441.32C327.753 442.26 327.093 442.78 326.083 442.78C324.743 442.78 323.923 441.86 323.923 440.45C323.923 439.01 324.723 438.11 326.043 438.11C327.093 438.11 327.753 438.66 327.933 439.63L329.773 439.31C329.463 437.69 328.103 436.7 326.083 436.7C323.653 436.7 322.063 438.21 322.063 440.47C322.063 442.74 323.543 444.2 326.043 444.2ZM336.699 436.9H329.989V438.32H332.449V444H334.239V438.32H336.699V436.9Z" fill="#054217"/>
<path fill-rule="evenodd" clip-rule="evenodd" d="M312 403V396H308L308 403L301 403V407L308 407L308 414H312V407L319 407V403L312 403Z" fill="white"/>
<path fill-rule="evenodd" clip-rule="evenodd" d="M249.69 400.519L239.525 411.731L233 405.988L235.478 403.173L239.229 406.475L246.912 398L249.69 400.519Z" fill="white"/>
<path fill-rule="evenodd" clip-rule="evenodd" d="M180.69 400.519L170.525 411.731L164 405.988L166.478 403.173L170.229 406.475L177.912 398L180.69 400.519Z" fill="white"/>
<path fill-rule="evenodd" clip-rule="evenodd" d="M111.69 400.519L101.525 411.731L95 405.988L97.4777 403.173L101.229 406.475L108.912 398L111.69 400.519Z" fill="white"/>
<path fill-rule="evenodd" clip-rule="evenodd" d="M42.6905 400.519L32.5252 411.731L26 405.988L28.4777 403.173L32.229 406.475L39.9122 398L42.6905 400.519Z" fill="white"/>
<path d="M189.92 485.272C192.688 485.272 194.24 483.656 194.72 481.384L192.672 480.968C192.384 482.568 191.392 483.544 189.936 483.544C187.856 483.544 186.736 481.768 186.736 479.288C186.736 476.744 187.888 475.064 189.888 475.064C191.456 475.064 192.4 476.088 192.592 477.704L194.704 477.4C194.4 474.984 192.784 473.368 189.952 473.368C186.544 473.368 184.608 475.768 184.608 479.304C184.608 482.744 186.352 485.272 189.92 485.272ZM201.297 485.272C204.561 485.272 206.673 482.984 206.673 479.32C206.673 475.624 204.561 473.368 201.297 473.368C198.033 473.368 195.921 475.624 195.921 479.32C195.921 482.952 198.033 485.272 201.297 485.272ZM201.297 483.608C199.265 483.608 198.065 481.944 198.065 479.32C198.065 476.648 199.265 475.032 201.297 475.032C203.345 475.032 204.529 476.648 204.529 479.32C204.529 481.992 203.345 483.608 201.297 483.608ZM207.793 485H215.601V483.352H210.465C211.569 482.664 212.417 482.024 213.217 481.304C214.769 479.896 215.489 478.584 215.489 477.048C215.489 474.872 214.097 473.64 211.745 473.64C209.345 473.64 207.857 474.936 207.857 476.968C207.857 477.24 207.889 477.544 207.969 477.848L209.953 478.04C209.873 477.672 209.841 477.336 209.841 477.064C209.841 475.96 210.513 475.256 211.649 475.256C212.769 475.256 213.393 475.928 213.393 477.144C213.393 478.36 212.945 479.256 211.681 480.44C210.465 481.592 209.057 482.664 207.793 483.496V485ZM223.831 483.384V479.976H228.871V478.376H223.831V475.256H229.143V473.64H221.767V485H229.255V483.384H223.831ZM236.335 488.12H238.255V477H236.687L236.431 478.232C235.967 477.272 235.183 476.808 234.047 476.808C232.063 476.808 230.655 478.44 230.655 481.016C230.655 483.544 231.967 485.192 233.887 485.192C235.039 485.192 235.903 484.6 236.335 483.688V488.12ZM234.527 483.72C233.343 483.72 232.655 482.696 232.655 480.984C232.655 479.256 233.359 478.28 234.511 478.28C235.663 478.28 236.383 479.224 236.383 480.712V481.304C236.383 482.808 235.647 483.72 234.527 483.72ZM243.323 485.192C244.475 485.192 245.435 484.504 245.819 483.512V485H247.643V477H245.707V481.432C245.707 482.776 245.003 483.656 243.947 483.656C243.019 483.656 242.539 483.016 242.539 481.848V477H240.619V482.136C240.619 484.008 241.371 485.192 243.323 485.192ZM250.09 475.672H252.17V473.672H250.09V475.672ZM250.186 485H252.106V477H250.186V485ZM256.335 485H258.415L261.263 477H259.247L257.695 482.072C257.567 482.488 257.471 482.888 257.407 483.256H257.359C257.295 482.888 257.199 482.488 257.071 482.072L255.503 477H253.487L256.335 485ZM264.562 485.192C265.842 485.192 266.85 484.6 267.234 483.624C267.25 484.12 267.298 484.6 267.362 485H269.282C269.122 484.44 269.042 483.608 269.042 482.52V480.136C269.042 477.816 267.986 476.808 265.618 476.808C263.554 476.808 262.21 477.864 262.082 479.576H264.05C264.114 478.664 264.674 478.168 265.618 478.168C266.642 478.168 267.106 478.68 267.106 479.88V480.088L265.41 480.296C264.146 480.472 263.378 480.68 262.802 481.016C262.162 481.416 261.826 482.056 261.826 482.824C261.826 484.248 262.914 485.192 264.562 485.192ZM265.17 483.832C264.322 483.832 263.81 483.4 263.81 482.728C263.81 482.04 264.29 481.656 265.346 481.48L267.154 481.208V481.72C267.154 482.984 266.354 483.832 265.17 483.832ZM273.405 473.4H271.485V485H273.405V473.4ZM282.83 480.6C282.83 478.152 281.502 476.808 279.182 476.808C276.798 476.808 275.358 478.44 275.358 481.08C275.358 483.704 276.83 485.192 279.278 485.192C280.91 485.192 282.174 484.424 282.766 483.032L281.294 482.36C280.926 483.224 280.254 483.688 279.342 483.688C278.078 483.688 277.23 482.824 277.214 481.48H282.83V480.6ZM280.942 480.216H277.214C277.246 478.888 277.934 478.088 279.15 478.088C280.286 478.088 280.942 478.776 280.942 480.088V480.216ZM284.796 485H286.716V480.76C286.716 479.24 287.388 478.344 288.508 478.344C289.516 478.344 290.012 478.968 290.012 480.232V485H291.932V480.04C291.932 477.896 291.02 476.808 289.276 476.808C288.044 476.808 287.164 477.384 286.62 478.552V477H284.796V485ZM297.528 485.192C299.432 485.192 300.776 484.104 301.064 482.328L299.256 481.96C299.08 483.08 298.488 483.672 297.528 483.672C296.296 483.672 295.576 482.68 295.576 480.952C295.576 479.304 296.312 478.312 297.496 478.312C298.44 478.312 299.064 478.904 299.192 479.992L301.064 479.688C300.824 477.864 299.528 476.808 297.544 476.808C295.112 476.808 293.608 478.392 293.608 481C293.608 483.544 295.144 485.192 297.528 485.192ZM309.767 480.6C309.767 478.152 308.44 476.808 306.12 476.808C303.736 476.808 302.296 478.44 302.296 481.08C302.296 483.704 303.768 485.192 306.216 485.192C307.848 485.192 309.112 484.424 309.704 483.032L308.232 482.36C307.864 483.224 307.192 483.688 306.28 483.688C305.016 483.688 304.168 482.824 304.152 481.48H309.767V480.6ZM307.88 480.216H304.152C304.184 478.888 304.872 478.088 306.088 478.088C307.224 478.088 307.88 478.776 307.88 480.088V480.216Z" fill="#362B26"/>
<path d="M189.356 518H192.788V499.93H189.876C189.226 501.906 187.588 503.024 185.3 503.05H184.702V506.04H185.664C187.198 506.04 188.68 505.546 189.356 504.74V518ZM208.755 508.198C211.043 507.6 212.291 506.222 212.291 504.194C212.291 501.308 209.405 499.436 204.881 499.436C200.331 499.436 197.393 501.386 197.393 504.376C197.393 506.508 198.459 507.886 200.929 508.77C198.225 509.446 196.795 510.98 196.795 513.32C196.795 516.518 199.915 518.494 204.959 518.494C209.899 518.494 212.967 516.388 212.967 513.06C212.967 510.642 211.719 509.134 208.755 508.198ZM204.855 501.776C207.377 501.776 208.859 502.764 208.859 504.506C208.859 505.91 208.079 506.794 206.051 507.522L204.387 507.158C201.917 506.612 200.851 505.78 200.851 504.376C200.851 502.738 202.333 501.776 204.855 501.776ZM204.985 515.972C202.073 515.972 200.331 514.802 200.331 512.904C200.331 511.24 201.319 510.2 203.633 509.498L205.583 509.94C208.339 510.564 209.457 511.448 209.457 513.008C209.457 514.854 207.767 515.972 204.985 515.972ZM231.405 513.71V511.214H228.051V499.93H224.177L214.323 511.448V513.71H224.697V518H228.051V513.71H231.405ZM224.749 505.26V511.214H217.807C218.379 510.694 218.821 510.2 219.549 509.29L223.293 504.87C224.073 503.934 224.437 503.414 224.749 502.764H224.827C224.749 503.44 224.749 503.882 224.749 505.26ZM255.294 499.54H238.316V502.426H244.998V518H248.612V502.426H255.294V499.54ZM261.975 518.39C266.577 518.39 269.723 515.764 269.723 511.5C269.723 507.21 266.577 504.61 261.975 504.61C257.347 504.61 254.201 507.21 254.201 511.5C254.201 515.764 257.347 518.39 261.975 518.39ZM261.975 515.92C259.323 515.92 257.685 514.334 257.685 511.5C257.685 508.64 259.323 507.08 261.975 507.08C264.601 507.08 266.239 508.64 266.239 511.5C266.239 514.334 264.601 515.92 261.975 515.92ZM272.869 518H276.223V511.682C276.223 508.874 277.783 507.236 280.331 507.236C282.723 507.236 283.867 508.536 283.867 511.136V518H287.221V510.694C287.221 506.69 285.297 504.584 281.631 504.584C279.031 504.584 277.159 505.676 276.119 507.782V505H272.869V518ZM291.302 518H294.656V511.682C294.656 508.874 296.216 507.236 298.764 507.236C301.156 507.236 302.3 508.536 302.3 511.136V518H305.654V510.694C305.654 506.69 303.73 504.584 300.064 504.584C297.464 504.584 295.592 505.676 294.552 507.782V505H291.302V518ZM323.41 511.136C323.41 506.976 320.706 504.61 316.052 504.61C311.45 504.61 308.512 507.21 308.512 511.63C308.512 515.92 311.424 518.39 316.182 518.39C319.484 518.39 321.902 517.142 323.202 514.854L320.576 513.658C319.77 515.114 318.288 515.92 316.312 515.92C313.608 515.92 311.918 514.516 311.788 512.332H323.41V511.136ZM320.082 510.226H311.788C311.918 508.068 313.478 506.742 316 506.742C318.418 506.742 320.056 507.964 320.082 510.096V510.226ZM332.73 518.39C337.02 518.39 339.152 516.778 339.152 514.126C339.152 511.942 337.956 510.616 334.888 510.33L331.118 509.992C329.662 509.836 329.012 509.368 329.012 508.484C329.012 507.444 330.078 506.898 332.054 506.898C334.498 506.898 336.006 507.704 336.968 509.134L339.1 507.782C338.06 505.806 335.616 504.61 332.236 504.61C328.206 504.61 325.866 506.092 325.866 508.666C325.866 510.85 327.322 512.202 330.338 512.514L333.952 512.826C335.486 512.982 336.032 513.398 336.032 514.386C336.032 515.478 335.018 516.05 332.964 516.05C330.208 516.05 328.44 515.114 327.504 513.398L325.216 514.672C326.464 517.09 328.986 518.39 332.73 518.39Z" fill="#054217"/>
<path d="M189.016 541.24C191.368 541.24 192.808 540.088 193.312 538.288L191.644 537.964C191.332 539.188 190.42 539.896 189.064 539.896C187.216 539.896 186.124 538.588 186.124 536.728C186.124 534.808 187.216 533.572 189.028 533.572C190.456 533.572 191.356 534.328 191.596 535.588L193.312 535.336C192.94 533.44 191.452 532.24 189.076 532.24C186.184 532.24 184.396 534.064 184.396 536.74C184.396 539.38 186.052 541.24 189.016 541.24ZM199.544 541.24C202.388 541.24 204.248 539.488 204.248 536.74C204.248 533.98 202.388 532.24 199.544 532.24C196.7 532.24 194.84 533.98 194.84 536.74C194.84 539.476 196.7 541.24 199.544 541.24ZM199.544 539.932C197.72 539.932 196.58 538.672 196.58 536.74C196.58 534.784 197.72 533.548 199.544 533.548C201.368 533.548 202.508 534.784 202.508 536.74C202.508 538.696 201.368 539.932 199.544 539.932ZM205.659 541H212.739V539.704H207.975C209.163 539.2 210.015 538.708 210.759 538.168C211.923 537.28 212.595 536.356 212.595 535.132C212.595 533.476 211.395 532.432 209.211 532.432C207.099 532.432 205.743 533.512 205.743 535.12C205.743 535.336 205.767 535.516 205.815 535.72L207.435 535.876C207.387 535.648 207.363 535.432 207.363 535.264C207.363 534.28 208.047 533.68 209.163 533.68C210.339 533.68 210.903 534.316 210.903 535.216C210.903 536.08 210.567 536.704 209.535 537.52C208.491 538.336 207.135 539.116 205.659 539.8V541ZM214.208 537.028V538.3H218.936V537.028H214.208ZM222.946 539.728V537.268H227.77V536.032H222.946V533.752H227.974V532.48H221.278V541H228.058V539.728H222.946ZM236.361 540.904C238.053 540.28 239.085 538.78 239.085 536.74C239.085 533.98 237.225 532.24 234.381 532.24C231.537 532.24 229.677 533.98 229.677 536.74C229.677 539.476 231.537 541.24 234.381 541.24C234.609 541.24 234.825 541.228 235.041 541.204C235.557 542.236 236.541 542.812 237.873 542.812C238.221 542.812 238.449 542.788 238.749 542.74V541.396C238.485 541.444 238.293 541.48 237.981 541.48C237.525 541.48 236.889 541.42 236.361 540.904ZM231.417 536.74C231.417 534.784 232.557 533.548 234.381 533.548C236.205 533.548 237.345 534.784 237.345 536.74C237.345 538.696 236.205 539.932 234.381 539.932C232.557 539.932 231.417 538.672 231.417 536.74ZM249.956 532.48H245.66V541H247.328V537.856H249.884C251.84 537.856 253.088 536.8 253.088 535.132C253.088 533.512 251.876 532.48 249.956 532.48ZM249.62 536.632H247.328V533.716H249.62C250.7 533.716 251.348 534.268 251.348 535.168C251.348 536.068 250.688 536.632 249.62 536.632ZM256.729 539.728V537.268H261.553V536.032H256.729V533.752H261.757V532.48H255.061V541H261.841V539.728H256.729ZM270.201 541H272.073L269.877 537.448C271.269 537.088 271.785 536.032 271.785 535.06C271.785 533.74 271.053 532.48 268.701 532.48H264.345V541H266.013V537.664H268.161L270.201 541ZM266.013 533.716H268.389C269.637 533.716 270.045 534.328 270.045 535.072C270.045 535.828 269.625 536.464 268.389 536.464H266.013V533.716ZM279.966 541H281.634V537.856L285.138 532.48H283.302L281.058 536.044C280.926 536.26 280.854 536.404 280.818 536.548H280.794C280.758 536.404 280.686 536.26 280.566 536.044L278.346 532.48H276.474L279.966 537.856V541ZM288.508 539.728V537.268H293.332V536.032H288.508V533.752H293.536V532.48H286.84V541H293.62V539.728H288.508ZM302.9 541H304.64L300.92 532.48H299.036L295.316 541H297.056L297.896 538.924H302.06L302.9 541ZM298.376 537.712L299.432 535.096C299.684 534.556 299.84 534.208 299.972 533.728H299.996C300.116 534.208 300.272 534.556 300.524 535.096L301.58 537.712H298.376ZM312.423 541H314.295L312.099 537.448C313.491 537.088 314.007 536.032 314.007 535.06C314.007 533.74 313.275 532.48 310.923 532.48H306.567V541H308.235V537.664H310.383L312.423 541ZM308.235 533.716H310.611C311.859 533.716 312.267 534.328 312.267 535.072C312.267 535.828 311.847 536.464 310.611 536.464H308.235V533.716Z" fill="#054217"/>
<path d="M5.184 479.384C6.912 479.384 8.096 478.232 8.096 476.44C8.096 474.648 6.912 473.464 5.168 473.464C3.408 473.464 2.24 474.632 2.256 476.408C2.24 478.232 3.408 479.384 5.184 479.384ZM4.208 485.24H5.712L12.912 473.544H11.44L4.208 485.24ZM5.184 478.168C4.304 478.168 3.728 477.576 3.728 476.408C3.728 475.288 4.304 474.696 5.168 474.696C6.032 474.696 6.592 475.304 6.592 476.44C6.592 477.576 6.032 478.168 5.184 478.168ZM12 485.24C13.728 485.24 14.928 484.088 14.912 482.296C14.928 480.488 13.728 479.32 12 479.32C10.224 479.32 9.056 480.472 9.072 482.264C9.056 484.088 10.224 485.24 12 485.24ZM12 484.024C11.12 484.024 10.544 483.416 10.544 482.264C10.544 481.144 11.12 480.536 12 480.536C12.848 480.536 13.408 481.16 13.408 482.296C13.408 483.416 12.848 484.024 12 484.024ZM28.3224 473.64H19.3784V475.32H22.8184V485H24.8824V475.32H28.3224V473.64ZM31.9343 485.192C34.2383 485.192 35.8542 483.672 35.8542 480.984C35.8542 478.312 34.2383 476.808 31.9343 476.808C29.6303 476.808 28.0143 478.312 28.0143 480.984C28.0143 483.672 29.6303 485.192 31.9343 485.192ZM31.9343 483.736C30.7023 483.736 29.9663 482.808 29.9663 480.984C29.9663 479.16 30.7023 478.264 31.9343 478.264C33.1663 478.264 33.8863 479.16 33.8863 480.984C33.8863 482.808 33.1663 483.736 31.9343 483.736ZM41.9393 485H43.8113V477.608C43.8113 476.984 43.8113 476.536 43.7793 476.104H43.8113C43.9873 476.568 44.1953 476.984 44.4993 477.528L48.8353 485H51.1553V473.64H49.2833V481.064C49.2833 481.672 49.2993 482.12 49.3153 482.536H49.2833C49.1233 482.088 48.8833 481.592 48.5793 481.08L44.3073 473.64H41.9393V485ZM60.6425 480.6C60.6425 478.152 59.3145 476.808 56.9945 476.808C54.6105 476.808 53.1705 478.44 53.1705 481.08C53.1705 483.704 54.6425 485.192 57.0905 485.192C58.7225 485.192 59.9865 484.424 60.5785 483.032L59.1065 482.36C58.7385 483.224 58.0665 483.688 57.1545 483.688C55.8905 483.688 55.0425 482.824 55.0265 481.48H60.6425V480.6ZM58.7545 480.216H55.0265C55.0585 478.888 55.7465 478.088 56.9625 478.088C58.0985 478.088 58.7545 478.776 58.7545 480.088V480.216ZM61.4729 478.392H62.9129V482.52C62.9129 484.136 63.5529 485.144 65.4729 485.144C65.9689 485.144 66.3209 485.096 66.7849 485V483.384C66.5289 483.432 66.3209 483.48 66.0009 483.48C65.2009 483.48 64.8329 483.064 64.8329 482.216V478.392H66.7849V477H64.8329V474.216L62.9129 474.984V477H61.4729V478.392ZM67.5645 479.704V481.4H72.4765V479.704H67.5645ZM73.2319 483.336V485H81.7279V483.352H75.5359L81.4879 475.304V473.64H73.4559V475.304H79.1839L73.2319 483.336ZM90.0331 480.6C90.0331 478.152 88.7051 476.808 86.3851 476.808C84.0011 476.808 82.5611 478.44 82.5611 481.08C82.5611 483.704 84.0331 485.192 86.4811 485.192C88.1131 485.192 89.3771 484.424 89.9691 483.032L88.4971 482.36C88.1291 483.224 87.4571 483.688 86.5451 483.688C85.2811 483.688 84.4331 482.824 84.4171 481.48H90.0331V480.6ZM88.1451 480.216H84.4171C84.4491 478.888 85.1371 478.088 86.3531 478.088C87.4891 478.088 88.1451 478.776 88.1451 480.088V480.216ZM93.7908 478.936V477H91.9988V485H93.9188V481.64C93.9188 480.76 93.9988 479.848 94.6388 479.224C95.0068 478.872 95.5348 478.648 96.3028 478.648C96.3988 478.648 96.4788 478.664 96.5588 478.664V476.824C96.4788 476.808 96.4148 476.808 96.3348 476.808C95.0388 476.808 94.1908 477.672 93.7908 478.936ZM101.309 485.192C103.613 485.192 105.229 483.672 105.229 480.984C105.229 478.312 103.613 476.808 101.309 476.808C99.0053 476.808 97.3893 478.312 97.3893 480.984C97.3893 483.672 99.0053 485.192 101.309 485.192ZM101.309 483.736C100.077 483.736 99.3413 482.808 99.3413 480.984C99.3413 479.16 100.077 478.264 101.309 478.264C102.541 478.264 103.261 479.16 103.261 480.984C103.261 482.808 102.541 483.736 101.309 483.736Z" fill="#362B26"/>
<path d="M7.356 518H10.788V499.93H7.876C7.226 501.906 5.588 503.024 3.3 503.05H2.702V506.04H3.664C5.198 506.04 6.68 505.546 7.356 504.74V518ZM23.5306 518.494C28.8346 518.494 32.0586 514.828 32.0586 508.978C32.0586 503.102 28.8346 499.436 23.5306 499.436C18.2266 499.436 14.9766 503.102 14.9766 508.978C14.9766 514.828 18.2266 518.494 23.5306 518.494ZM23.5306 515.816C20.3586 515.816 18.5126 513.294 18.5126 508.978C18.5126 504.61 20.3586 502.114 23.5306 502.114C26.7026 502.114 28.5486 504.61 28.5486 508.978C28.5486 513.294 26.7026 515.816 23.5306 515.816ZM43.056 518.494C48.36 518.494 51.584 514.828 51.584 508.978C51.584 503.102 48.36 499.436 43.056 499.436C37.752 499.436 34.502 503.102 34.502 508.978C34.502 514.828 37.752 518.494 43.056 518.494ZM43.056 515.816C39.884 515.816 38.038 513.294 38.038 508.978C38.038 504.61 39.884 502.114 43.056 502.114C46.228 502.114 48.074 504.61 48.074 508.978C48.074 513.294 46.228 515.816 43.056 515.816ZM58.6833 508.978C61.8293 508.978 64.0393 507.08 64.0393 504.168C64.0393 501.23 61.8293 499.306 58.6573 499.306C55.4333 499.306 53.2753 501.204 53.3013 504.09C53.2753 507.08 55.4333 508.978 58.6833 508.978ZM56.4993 518.442H59.2812L73.5813 499.332H70.8253L56.4993 518.442ZM58.6833 506.924C57.0193 506.924 55.9273 505.91 55.9273 504.09C55.9273 502.374 57.0193 501.36 58.6573 501.36C60.2953 501.36 61.3613 502.4 61.3613 504.168C61.3613 505.91 60.2953 506.924 58.6833 506.924ZM71.4493 518.442C74.5953 518.442 76.8053 516.544 76.8053 513.632C76.8053 510.694 74.5953 508.77 71.4233 508.77C68.1993 508.77 66.0413 510.668 66.0673 513.554C66.0413 516.544 68.1993 518.442 71.4493 518.442ZM71.4493 516.388C69.7853 516.388 68.6933 515.374 68.6933 513.554C68.6933 511.838 69.7853 510.824 71.4233 510.824C73.0613 510.824 74.1273 511.864 74.1273 513.632C74.1273 515.374 73.0613 516.388 71.4493 516.388Z" fill="#054217"/>
<path d="M8.008 275.272C10.904 275.272 12.376 273.736 12.376 271.784C12.376 269.768 11.128 268.904 9.256 268.504L7.608 268.152C6.36 267.88 5.848 267.4 5.848 266.472C5.848 265.512 6.68 264.936 7.912 264.936C9.416 264.936 10.36 265.688 10.728 267L12.376 266.136C11.88 264.248 10.168 263.368 8.008 263.368C5.448 263.368 3.848 264.664 3.848 266.632C3.848 268.568 5.032 269.528 6.824 269.896L8.408 270.232C9.656 270.488 10.328 270.872 10.328 271.976C10.328 273.16 9.24 273.624 8.072 273.624C6.312 273.624 5.384 272.6 5 271.32L3.24 272.088C3.704 273.944 5.32 275.272 8.008 275.272ZM14.1863 278.12H16.1063V273.848C16.5383 274.632 17.3383 275.192 18.4743 275.192C20.4423 275.192 21.7863 273.56 21.7863 270.984C21.7863 268.456 20.4903 266.808 18.5703 266.808C17.4343 266.808 16.5063 267.352 16.0103 268.392V267H14.1863V278.12ZM17.9143 273.72C16.7783 273.72 16.0583 272.744 16.0583 271.208V270.808C16.0583 269.192 16.7783 268.28 17.9303 268.28C19.0983 268.28 19.7863 269.272 19.7863 270.984C19.7863 272.696 19.0663 273.72 17.9143 273.72ZM30.5331 270.6C30.5331 268.152 29.2051 266.808 26.8851 266.808C24.5011 266.808 23.0611 268.44 23.0611 271.08C23.0611 273.704 24.5331 275.192 26.9811 275.192C28.6131 275.192 29.8771 274.424 30.4691 273.032L28.9971 272.36C28.6291 273.224 27.9571 273.688 27.0451 273.688C25.7811 273.688 24.9331 272.824 24.9171 271.48H30.5331V270.6ZM28.6451 270.216H24.9171C24.9491 268.888 25.6371 268.088 26.8531 268.088C27.9891 268.088 28.6451 268.776 28.6451 270.088V270.216ZM35.7936 275.192C37.6976 275.192 39.0416 274.104 39.3296 272.328L37.5216 271.96C37.3456 273.08 36.7536 273.672 35.7936 273.672C34.5616 273.672 33.8416 272.68 33.8416 270.952C33.8416 269.304 34.5776 268.312 35.7616 268.312C36.7056 268.312 37.3296 268.904 37.4576 269.992L39.3296 269.688C39.0896 267.864 37.7936 266.808 35.8096 266.808C33.3776 266.808 31.8736 268.392 31.8736 271C31.8736 273.544 33.4096 275.192 35.7936 275.192ZM41.0903 265.672H43.1703V263.672H41.0903V265.672ZM41.1863 275H43.1063V267H41.1863V275ZM52.455 270.6C52.455 268.152 51.127 266.808 48.807 266.808C46.423 266.808 44.983 268.44 44.983 271.08C44.983 273.704 46.455 275.192 48.903 275.192C50.535 275.192 51.799 274.424 52.391 273.032L50.919 272.36C50.551 273.224 49.879 273.688 48.967 273.688C47.703 273.688 46.855 272.824 46.839 271.48H52.455V270.6ZM50.567 270.216H46.839C46.871 268.888 47.559 268.088 48.775 268.088C49.911 268.088 50.567 268.776 50.567 270.088V270.216ZM57.3014 275.192C59.3814 275.192 60.5814 274.168 60.5814 272.664C60.5814 271.4 59.9094 270.632 58.3734 270.36L56.8054 270.072C56.1014 269.944 55.7334 269.704 55.7334 269.16C55.7334 268.536 56.2454 268.2 57.1414 268.2C58.1974 268.2 58.9014 268.648 59.2854 269.368L60.6134 268.648C60.2294 267.496 58.9494 266.808 57.2374 266.808C55.2054 266.808 53.9734 267.832 53.9734 269.272C53.9734 270.552 54.7734 271.336 56.2614 271.608L57.6854 271.864C58.4854 271.992 58.8374 272.216 58.8374 272.792C58.8374 273.368 58.3254 273.784 57.3334 273.784C56.1974 273.784 55.3974 273.272 55.0454 272.376L53.6054 273.016C54.1174 274.424 55.4774 275.192 57.3014 275.192Z" fill="#362B26"/>
<path d="M6.704 306H10.106L13.256 295.206C13.361 294.87 13.445 294.534 13.445 294.219H13.55C13.571 294.534 13.655 294.87 13.76 295.206L16.91 306H20.291L24.533 291.09H21.572L18.8 302.01C18.695 302.43 18.611 302.766 18.59 303.102H18.527C18.485 302.787 18.38 302.43 18.254 302.01L14.978 291.09H12.017L8.741 302.01C8.615 302.43 8.51 302.787 8.489 303.102H8.426C8.384 302.766 8.321 302.43 8.216 302.01L5.423 291.09H2.462L6.704 306ZM26.9003 306H29.6093V300.876C29.6093 298.629 30.8483 297.285 32.8853 297.285C34.7963 297.285 35.7833 298.398 35.7833 300.54V306H38.4923V300.267C38.4923 296.928 36.9173 295.164 33.9353 295.164C31.9403 295.164 30.4073 296.025 29.6093 297.621V290.775H26.9003V306ZM41.6605 293.757H44.6215V291.048H41.6605V293.757ZM41.7865 306H44.4955V295.5H41.7865V306ZM46.5279 297.411H48.9639V302.43C48.9639 304.74 50.0139 306.231 53.0169 306.231C53.9199 306.231 54.6549 306.105 55.2429 305.937V303.774C54.8019 303.879 54.2979 303.963 53.6889 303.963C52.3239 303.963 51.6729 303.354 51.6729 302.01V297.411H55.2429V295.5H51.6729V291.825L48.9639 292.875V295.5H46.5279V297.411ZM68.3959 300.456C68.3959 297.096 66.2119 295.185 62.4529 295.185C58.7359 295.185 56.3629 297.285 56.3629 300.855C56.3629 304.32 58.7149 306.315 62.5579 306.315C65.2249 306.315 67.1779 305.307 68.2279 303.459L66.1069 302.493C65.4559 303.669 64.2589 304.32 62.6629 304.32C60.4789 304.32 59.1139 303.186 59.0089 301.422H68.3959V300.456ZM65.7079 299.721H59.0089C59.1139 297.978 60.3739 296.907 62.4109 296.907C64.3639 296.907 65.6869 297.894 65.7079 299.616V299.721ZM83.8462 306.42C88.2352 306.42 90.5452 304.509 90.5452 301.716C90.5452 299.049 88.8652 297.894 85.7782 297.432L82.7122 296.97C80.8222 296.676 80.1082 296.109 80.1082 294.87C80.1082 293.589 81.3682 292.833 83.4892 292.833C85.9882 292.833 87.5422 293.841 88.2142 295.626L90.4822 294.408C89.4952 291.867 86.9962 290.67 83.6152 290.67C79.6042 290.67 77.2102 292.35 77.2102 295.08C77.2102 297.642 78.8482 298.923 81.6622 299.364L84.8542 299.805C86.7232 300.099 87.6052 300.603 87.6052 301.989C87.6052 303.543 86.1562 304.194 83.9512 304.194C81.1372 304.194 79.4992 302.871 78.7852 301.002L76.3492 302.094C77.2102 304.74 79.7722 306.42 83.8462 306.42ZM93.138 310.095H95.847V304.362C96.603 305.496 98.136 306.315 100.047 306.315C103.218 306.315 105.444 304.11 105.444 300.729C105.444 297.39 103.344 295.185 100.152 295.185C98.241 295.185 96.624 295.962 95.763 297.411V295.5H93.138V310.095ZM99.207 304.32C97.149 304.32 95.784 302.997 95.784 300.96V300.519C95.784 298.461 97.191 297.18 99.27 297.18C101.37 297.18 102.609 298.503 102.609 300.729C102.609 302.955 101.307 304.32 99.207 304.32ZM110.484 298.251V295.5H108.006V306H110.715V301.905C110.715 300.645 110.904 299.448 111.744 298.608C112.311 298.041 113.109 297.726 114.327 297.726C114.621 297.726 114.873 297.747 115.146 297.789V295.29C114.894 295.248 114.684 295.227 114.39 295.227C112.416 295.227 111.03 296.445 110.484 298.251ZM121.516 306.315C123.469 306.315 125.128 305.37 125.8 303.774V306H128.425V295.5H125.716V300.771C125.716 302.64 124.603 304.236 122.377 304.236C120.865 304.236 119.71 303.417 119.71 301.275V295.5H117.001V301.737C117.001 304.656 118.45 306.315 121.516 306.315ZM137.186 306.315C140.294 306.315 142.478 304.866 143.003 302.472L140.315 302.01C139.937 303.48 138.866 304.257 137.186 304.257C135.086 304.257 133.784 302.934 133.784 300.708C133.784 298.524 135.044 297.222 137.144 297.222C138.845 297.222 139.937 298.02 140.252 299.469L143.024 299.07C142.52 296.571 140.441 295.185 137.228 295.185C133.385 295.185 130.97 297.306 130.97 300.729C130.97 304.131 133.406 306.315 137.186 306.315ZM156.785 300.456C156.785 297.096 154.601 295.185 150.842 295.185C147.125 295.185 144.752 297.285 144.752 300.855C144.752 304.32 147.104 306.315 150.947 306.315C153.614 306.315 155.567 305.307 156.617 303.459L154.496 302.493C153.845 303.669 152.648 304.32 151.052 304.32C148.868 304.32 147.503 303.186 147.398 301.422H156.785V300.456ZM154.097 299.721H147.398C147.503 297.978 148.763 296.907 150.8 296.907C152.753 296.907 154.076 297.894 154.097 299.616V299.721ZM159.468 309.15C161.358 308.625 162.009 307.533 162.009 305.769V302.955H158.817V306H160.455V306.063C160.455 307.008 160.14 307.575 158.964 307.932L159.468 309.15ZM182.49 298.251C184.296 297.81 185.178 296.466 185.178 294.954C185.178 293.001 183.834 291.09 180.138 291.09H172.2V306H180.39C184.17 306 185.577 304.005 185.577 301.842C185.577 299.889 184.506 298.566 182.49 298.251ZM179.592 293.232C181.65 293.232 182.217 294.261 182.217 295.269C182.217 296.277 181.755 297.369 179.592 297.369H175.119V293.232H179.592ZM179.844 303.858H175.119V299.427H179.928C181.818 299.427 182.616 300.351 182.616 301.611C182.616 302.871 181.86 303.858 179.844 303.858ZM191.231 290.775H188.522V306H191.231V290.775ZM198.299 306.315C200.609 306.315 202.247 305.496 202.961 304.089C202.982 304.761 203.024 305.454 203.129 306H205.859C205.67 305.16 205.586 304.173 205.586 302.619V299.658C205.586 296.613 203.864 295.185 200.147 295.185C196.829 295.185 194.624 296.655 194.372 298.944H197.207C197.375 297.705 198.425 297.033 200.147 297.033C201.911 297.033 202.856 297.747 202.856 299.28V299.511L199.097 299.826C197.123 300.015 196.073 300.309 195.317 300.792C194.477 301.317 194.036 302.157 194.036 303.165C194.036 305.118 195.695 306.315 198.299 306.315ZM199.202 304.509C197.711 304.509 196.85 303.963 196.85 303.018C196.85 302.052 197.522 301.569 199.349 301.38L202.898 301.023V301.569C202.898 303.354 201.386 304.509 199.202 304.509ZM214.05 306.315C217.158 306.315 219.342 304.866 219.867 302.472L217.179 302.01C216.801 303.48 215.73 304.257 214.05 304.257C211.95 304.257 210.648 302.934 210.648 300.708C210.648 298.524 211.908 297.222 214.008 297.222C215.709 297.222 216.801 298.02 217.116 299.469L219.888 299.07C219.384 296.571 217.305 295.185 214.092 295.185C210.249 295.185 207.834 297.306 207.834 300.729C207.834 304.131 210.27 306.315 214.05 306.315ZM231.072 306H234.243L229.665 299.427L234.033 295.5H230.526L225.213 300.309V290.775H222.504V306H225.213V302.997L227.649 301.002L231.072 306ZM248.278 306.42C252.667 306.42 254.977 304.509 254.977 301.716C254.977 299.049 253.297 297.894 250.21 297.432L247.144 296.97C245.254 296.676 244.54 296.109 244.54 294.87C244.54 293.589 245.8 292.833 247.921 292.833C250.42 292.833 251.974 293.841 252.646 295.626L254.914 294.408C253.927 291.867 251.428 290.67 248.047 290.67C244.036 290.67 241.642 292.35 241.642 295.08C241.642 297.642 243.28 298.923 246.094 299.364L249.286 299.805C251.155 300.099 252.037 300.603 252.037 301.989C252.037 303.543 250.588 304.194 248.383 304.194C245.569 304.194 243.931 302.871 243.217 301.002L240.781 302.094C241.642 304.74 244.204 306.42 248.278 306.42ZM257.57 310.095H260.279V304.362C261.035 305.496 262.568 306.315 264.479 306.315C267.65 306.315 269.876 304.11 269.876 300.729C269.876 297.39 267.776 295.185 264.584 295.185C262.673 295.185 261.056 295.962 260.195 297.411V295.5H257.57V310.095ZM263.639 304.32C261.581 304.32 260.216 302.997 260.216 300.96V300.519C260.216 298.461 261.623 297.18 263.702 297.18C265.802 297.18 267.041 298.503 267.041 300.729C267.041 302.955 265.739 304.32 263.639 304.32ZM274.916 298.251V295.5H272.438V306H275.147V301.905C275.147 300.645 275.336 299.448 276.176 298.608C276.743 298.041 277.541 297.726 278.759 297.726C279.053 297.726 279.305 297.747 279.578 297.789V295.29C279.326 295.248 279.116 295.227 278.822 295.227C276.848 295.227 275.462 296.445 274.916 298.251ZM285.948 306.315C287.901 306.315 289.56 305.37 290.232 303.774V306H292.857V295.5H290.148V300.771C290.148 302.64 289.035 304.236 286.809 304.236C285.297 304.236 284.142 303.417 284.142 301.275V295.5H281.433V301.737C281.433 304.656 282.882 306.315 285.948 306.315ZM301.618 306.315C304.726 306.315 306.91 304.866 307.435 302.472L304.747 302.01C304.369 303.48 303.298 304.257 301.618 304.257C299.518 304.257 298.216 302.934 298.216 300.708C298.216 298.524 299.476 297.222 301.576 297.222C303.277 297.222 304.369 298.02 304.684 299.469L307.456 299.07C306.952 296.571 304.873 295.185 301.66 295.185C297.817 295.185 295.402 297.306 295.402 300.729C295.402 304.131 297.838 306.315 301.618 306.315ZM321.216 300.456C321.216 297.096 319.032 295.185 315.273 295.185C311.556 295.185 309.183 297.285 309.183 300.855C309.183 304.32 311.535 306.315 315.378 306.315C318.045 306.315 319.998 305.307 321.048 303.459L318.927 302.493C318.276 303.669 317.079 304.32 315.483 304.32C313.299 304.32 311.934 303.186 311.829 301.422H321.216V300.456ZM318.528 299.721H311.829C311.934 297.978 313.194 296.907 315.231 296.907C317.184 296.907 318.507 297.894 318.528 299.616V299.721ZM323.9 309.15C325.79 308.625 326.441 307.533 326.441 305.769V302.955H323.249V306H324.887V306.063C324.887 307.008 324.572 307.575 323.396 307.932L323.9 309.15ZM9.875 326.317V316.09H6.977V325.918C6.977 328.207 5.843 328.816 4.268 328.816C3.617 328.816 2.966 328.774 2.378 328.69V331.126C2.987 331.273 3.785 331.315 4.667 331.315C7.67 331.315 9.875 330.034 9.875 326.317ZM16.4971 331.315C18.8071 331.315 20.4451 330.496 21.1591 329.089C21.1801 329.761 21.2221 330.454 21.3271 331H24.0571C23.8681 330.16 23.7841 329.173 23.7841 327.619V324.658C23.7841 321.613 22.0621 320.185 18.3451 320.185C15.0271 320.185 12.8221 321.655 12.5701 323.944H15.4051C15.5731 322.705 16.6231 322.033 18.3451 322.033C20.1091 322.033 21.0541 322.747 21.0541 324.28V324.511L17.2951 324.826C15.3211 325.015 14.2711 325.309 13.5151 325.792C12.6751 326.317 12.2341 327.157 12.2341 328.165C12.2341 330.118 13.8931 331.315 16.4971 331.315ZM17.4001 329.509C15.9091 329.509 15.0481 328.963 15.0481 328.018C15.0481 327.052 15.7201 326.569 17.5471 326.38L21.0961 326.023V326.569C21.0961 328.354 19.5841 329.509 17.4001 329.509ZM32.2479 331.315C35.3559 331.315 37.5399 329.866 38.0649 327.472L35.3769 327.01C34.9989 328.48 33.9279 329.257 32.2479 329.257C30.1479 329.257 28.8459 327.934 28.8459 325.708C28.8459 323.524 30.1059 322.222 32.2059 322.222C33.9069 322.222 34.9989 323.02 35.3139 324.469L38.0859 324.07C37.5819 321.571 35.5029 320.185 32.2899 320.185C28.4469 320.185 26.0319 322.306 26.0319 325.729C26.0319 329.131 28.4679 331.315 32.2479 331.315ZM49.27 331H52.441L47.863 324.427L52.231 320.5H48.724L43.411 325.309V315.775H40.702V331H43.411V327.997L45.847 326.002L49.27 331ZM68.1351 316.09H60.6171V331H63.5361V325.498H68.0091C71.4321 325.498 73.6161 323.65 73.6161 320.731C73.6161 317.896 71.4951 316.09 68.1351 316.09ZM67.5471 323.356H63.5361V318.253H67.5471C69.4371 318.253 70.5711 319.219 70.5711 320.794C70.5711 322.369 69.4161 323.356 67.5471 323.356ZM75.7034 318.757H78.6644V316.048H75.7034V318.757ZM75.8294 331H78.5384V320.5H75.8294V331ZM82.1458 331H84.8548V325.897C84.8548 323.629 86.1148 322.306 88.1728 322.306C90.1048 322.306 91.0288 323.356 91.0288 325.456V331H93.7378V325.099C93.7378 321.865 92.1838 320.164 89.2228 320.164C87.1228 320.164 85.6108 321.046 84.7708 322.747V320.5H82.1458V331ZM108.079 325.456C108.079 322.096 105.895 320.185 102.136 320.185C98.4185 320.185 96.0455 322.285 96.0455 325.855C96.0455 329.32 98.3975 331.315 102.241 331.315C104.908 331.315 106.861 330.307 107.911 328.459L105.79 327.493C105.139 328.669 103.942 329.32 102.346 329.32C100.162 329.32 98.7965 328.186 98.6915 326.422H108.079V325.456ZM105.391 324.721H98.6915C98.7965 322.978 100.057 321.907 102.094 321.907C104.047 321.907 105.37 322.894 105.391 324.616V324.721Z" fill="#054217"/>
<line y1="0.875" x2="345" y2="0.875" stroke="black" stroke-opacity="0.5" stroke-width="0.25"/>
</svg>
