<?xml version="1.0" encoding="utf-8"?>
<!-- Generator: Adobe Illustrator 25.1.0, SVG Export Plug-In . SVG Version: 6.00 Build 0)  -->
<svg version="1.1" id="Layer_1" xmlns="http://www.w3.org/2000/svg" xmlns:xlink="http://www.w3.org/1999/xlink" x="0px" y="0px"
	 viewBox="0 0 36 36" style="enable-background:new 0 0 36 36;" xml:space="preserve">
<style type="text/css">
	.st0{fill:#FFFFFF;}
</style>
<path class="st0" d="M18,0C8.1,0,0,8.1,0,18s8.1,18,18,18s18-8.1,18-18S27.9,0,18,0z M22.8,14.5l-0.3,3.3h-2.9v10.1h-4V17.8h-2.1
	v-3.3h2.1v-2c0-2.8,1.3-4.4,4.6-4.4c1.1,0,2,0.2,3.1,0.4l-0.5,3.2c-0.6-0.1-1.3-0.2-1.8-0.2c-1.3,0-1.4,0.6-1.4,1.5v1.6H22.8z"/>
</svg>
