<?xml version="1.0" encoding="utf-8"?>
<!-- Generator: Adobe Illustrator 25.1.0, SVG Export Plug-In . SVG Version: 6.00 Build 0)  -->
<svg version="1.1" id="Layer_1" xmlns="http://www.w3.org/2000/svg" xmlns:xlink="http://www.w3.org/1999/xlink" x="0px" y="0px"
	 viewBox="0 0 36 36" style="enable-background:new 0 0 36 36;" xml:space="preserve">
<style type="text/css">
	.st0{fill:#FFFFFF;}
</style>
<g>
	<path class="st0" d="M26.4,11.6c-0.2-0.5-0.4-0.9-0.8-1.2c-0.4-0.4-0.7-0.6-1.2-0.8c-0.4-0.1-1-0.3-2-0.4c-1.1-0.1-1.5-0.1-4.4-0.1
		c-2.9,0-3.2,0-4.4,0.1c-1.1,0-1.6,0.2-2,0.4c-0.5,0.2-0.9,0.4-1.2,0.8c-0.4,0.4-0.6,0.7-0.8,1.2c-0.1,0.4-0.3,1-0.4,2
		c-0.1,1.1-0.1,1.5-0.1,4.4c0,2.9,0,3.2,0.1,4.4c0,1.1,0.2,1.6,0.4,2c0.2,0.5,0.4,0.9,0.8,1.2c0.4,0.4,0.7,0.6,1.2,0.8
		c0.4,0.1,1,0.3,2,0.4c1.1,0.1,1.5,0.1,4.4,0.1s3.2,0,4.4-0.1c1.1,0,1.6-0.2,2-0.4c0.5-0.2,0.9-0.4,1.2-0.8c0.4-0.4,0.6-0.7,0.8-1.2
		c0.1-0.4,0.3-1,0.4-2c0.1-1.1,0.1-1.5,0.1-4.4c0-2.9,0-3.2-0.1-4.4C26.7,12.6,26.6,12,26.4,11.6z M18,23.6c-3.1,0-5.5-2.5-5.5-5.5
		c0-3.1,2.5-5.5,5.5-5.5c3.1,0,5.5,2.5,5.5,5.5C23.6,21.1,21.1,23.6,18,23.6z M23.8,13.5c-0.7,0-1.3-0.6-1.3-1.3
		c0-0.7,0.6-1.3,1.3-1.3c0.7,0,1.3,0.6,1.3,1.3C25.1,13,24.5,13.5,23.8,13.5z"/>
	<path class="st0" d="M18,14.4c-2,0-3.6,1.6-3.6,3.6c0,2,1.6,3.6,3.6,3.6c2,0,3.6-1.6,3.6-3.6C21.6,16,20,14.4,18,14.4z"/>
	<path class="st0" d="M18,0C8.1,0,0,8.1,0,18s8.1,18,18,18s18-8.1,18-18S27.9,0,18,0z M28.7,22.5c-0.1,1.1-0.2,1.9-0.5,2.6
		C28,25.8,27.6,26.4,27,27s-1.2,1-1.9,1.2c-0.7,0.3-1.5,0.4-2.6,0.5c-1.2,0.1-1.5,0.1-4.5,0.1s-3.3,0-4.5-0.1
		c-1.1-0.1-1.9-0.2-2.6-0.5C10.2,28,9.6,27.6,9,27s-1-1.2-1.2-1.9c-0.3-0.7-0.4-1.5-0.5-2.6c-0.1-1.2-0.1-1.5-0.1-4.5s0-3.3,0.1-4.5
		c0.1-1.1,0.2-1.9,0.5-2.6C8,10.2,8.4,9.6,9,9c0.6-0.6,1.2-1,1.9-1.2c0.7-0.3,1.5-0.4,2.6-0.5c1.2-0.1,1.5-0.1,4.5-0.1
		s3.3,0,4.5,0.1c1.1,0.1,1.9,0.2,2.6,0.5C25.8,8,26.4,8.4,27,9c0.6,0.6,1,1.2,1.2,1.9c0.3,0.7,0.4,1.5,0.5,2.6
		c0.1,1.2,0.1,1.5,0.1,4.5S28.8,21.3,28.7,22.5z"/>
</g>
</svg>
