<svg id="e4hYAG6L5vC1" xmlns="http://www.w3.org/2000/svg" xmlns:xlink="http://www.w3.org/1999/xlink" viewBox="125 0 1220 500" shape-rendering="geometricPrecision" text-rendering="geometricPrecision"><g id="e4hYAG6L5vC2" transform="matrix(1.24958236101700 0 0 1.24958236101700 242.75513761401993 29.05182341335083)"><path id="e4hYAG6L5vC3" d="M344.658000,78.231700C346.144000,78.231700,347.348000,77.055400,347.348000,75.604400C347.348000,74.153400,346.144000,72.977100,344.658000,72.977100C343.173000,72.977100,341.969000,74.153400,341.969000,75.604400C341.969000,77.055400,343.173000,78.231700,344.658000,78.231700Z" fill="rgb(255,255,255)" stroke="none" stroke-width="1"/><path id="e4hYAG6L5vC4" d="M358.736000,78.231700C360.218000,78.231700,361.425000,77.054200,361.425000,75.604400C361.425000,74.154600,360.218000,72.977100,358.736000,72.977100C357.252000,72.977100,356.047000,74.154600,356.047000,75.604400C356.047000,77.054200,357.252000,78.231700,358.736000,78.231700Z" fill="rgb(255,255,255)" stroke="none" stroke-width="1"/><path id="e4hYAG6L5vC5" d="M372.812000,71.054700C370.242000,71.054700,368.153000,73.095700,368.153000,75.604400C368.153000,78.113100,370.242000,80.154200,372.812000,80.154200C375.381000,80.154200,377.470000,78.113100,377.470000,75.604400C377.472000,73.095700,375.381000,71.054700,372.812000,71.054700Z" fill="rgb(255,255,255)" stroke="none" stroke-width="1"/><path id="e4hYAG6L5vC6" d="M386.889000,71.054700C384.320000,71.054700,382.230000,73.095700,382.230000,75.604400C382.230000,78.113100,384.320000,80.154200,386.889000,80.154200C389.458000,80.154200,391.547000,78.113100,391.547000,75.604400C391.547000,73.095700,389.458000,71.054700,386.889000,71.054700Z" fill="rgb(255,255,255)" stroke="none" stroke-width="1"/><path id="e4hYAG6L5vC7" d="M400.966000,71.054700C398.397000,71.054700,396.308000,73.095700,396.308000,75.604400C396.308000,78.113100,398.397000,80.154200,400.966000,80.154200C403.536000,80.154200,405.625000,78.113100,405.625000,75.604400C405.625000,73.095700,403.534000,71.054700,400.966000,71.054700Z" fill="rgb(255,255,255)" stroke="none" stroke-width="1"/><path id="e4hYAG6L5vC8" d="M415.042000,71.054700C412.473000,71.054700,410.384000,73.095700,410.384000,75.604400C410.384000,78.113100,412.473000,80.154200,415.042000,80.154200C417.611000,80.154200,419.701000,78.113100,419.701000,75.604400C419.702000,73.095700,417.611000,71.054700,415.042000,71.054700Z" fill="rgb(255,255,255)" stroke="none" stroke-width="1"/><path id="e4hYAG6L5vC9" d="M429.119000,78.231700C430.602000,78.231700,431.809000,77.054200,431.809000,75.604400C431.809000,74.154600,430.602000,72.977100,429.119000,72.977100C427.635000,72.977100,426.430000,74.154600,426.430000,75.604400C426.430000,77.054200,427.635000,78.231700,429.119000,78.231700Z" fill="rgb(255,255,255)" stroke="none" stroke-width="1"/><path id="e4hYAG6L5vC10" d="M443.197000,78.231700C444.681000,78.231700,445.886000,77.054200,445.886000,75.604400C445.886000,74.154600,444.679000,72.977100,443.197000,72.977100C441.715000,72.977100,440.507000,74.154600,440.507000,75.604400C440.507000,77.054200,441.713000,78.231700,443.197000,78.231700Z" fill="rgb(255,255,255)" stroke="none" stroke-width="1"/><path id="e4hYAG6L5vC11" d="M344.658000,175.023000C346.144000,175.023000,347.348000,173.847000,347.348000,172.396000C347.348000,170.945000,346.144000,169.768000,344.658000,169.768000C343.173000,169.768000,341.969000,170.945000,341.969000,172.396000C341.969000,173.847000,343.173000,175.023000,344.658000,175.023000Z" fill="rgb(255,255,255)" stroke="none" stroke-width="1"/><path id="e4hYAG6L5vC12" d="M358.736000,169.768000C357.252000,169.768000,356.047000,170.946000,356.047000,172.396000C356.047000,173.845000,357.254000,175.023000,358.736000,175.023000C360.218000,175.023000,361.425000,173.845000,361.425000,172.396000C361.425000,170.946000,360.218000,169.768000,358.736000,169.768000Z" fill="rgb(255,255,255)" stroke="none" stroke-width="1"/><path id="e4hYAG6L5vC13" d="M372.812000,167.846000C370.242000,167.846000,368.153000,169.887000,368.153000,172.396000C368.153000,174.904000,370.242000,176.945000,372.812000,176.945000C375.381000,176.945000,377.470000,174.904000,377.470000,172.396000C377.472000,169.887000,375.381000,167.846000,372.812000,167.846000Z" fill="rgb(255,255,255)" stroke="none" stroke-width="1"/><path id="e4hYAG6L5vC14" d="M386.889000,167.846000C384.320000,167.846000,382.230000,169.887000,382.230000,172.396000C382.230000,174.904000,384.320000,176.945000,386.889000,176.945000C389.458000,176.945000,391.547000,174.904000,391.547000,172.396000C391.547000,169.887000,389.458000,167.846000,386.889000,167.846000Z" fill="rgb(255,255,255)" stroke="none" stroke-width="1"/><path id="e4hYAG6L5vC15" d="M400.966000,167.846000C398.397000,167.846000,396.308000,169.887000,396.308000,172.396000C396.308000,174.904000,398.397000,176.945000,400.966000,176.945000C403.536000,176.945000,405.625000,174.904000,405.625000,172.396000C405.625000,169.887000,403.534000,167.846000,400.966000,167.846000Z" fill="rgb(255,255,255)" stroke="none" stroke-width="1"/><path id="e4hYAG6L5vC16" d="M415.042000,167.846000C412.473000,167.846000,410.384000,169.887000,410.384000,172.396000C410.384000,174.904000,412.473000,176.945000,415.042000,176.945000C417.611000,176.945000,419.701000,174.904000,419.701000,172.396000C419.702000,169.887000,417.611000,167.846000,415.042000,167.846000Z" fill="rgb(255,255,255)" stroke="none" stroke-width="1"/><path id="e4hYAG6L5vC17" d="M429.119000,169.768000C427.635000,169.768000,426.430000,170.946000,426.430000,172.396000C426.430000,173.845000,427.637000,175.023000,429.119000,175.023000C430.602000,175.023000,431.809000,173.845000,431.809000,172.396000C431.809000,170.946000,430.602000,169.768000,429.119000,169.768000Z" fill="rgb(255,255,255)" stroke="none" stroke-width="1"/><path id="e4hYAG6L5vC18" d="M443.197000,169.768000C441.715000,169.768000,440.507000,170.946000,440.507000,172.396000C440.507000,173.845000,441.715000,175.023000,443.197000,175.023000C444.681000,175.023000,445.886000,173.845000,445.886000,172.396000C445.886000,170.946000,444.679000,169.768000,443.197000,169.768000Z" fill="rgb(255,255,255)" stroke="none" stroke-width="1"/><path id="e4hYAG6L5vC19" d="M344.658000,161.195000C346.144000,161.195000,347.348000,160.019000,347.348000,158.568000C347.348000,157.117000,346.144000,155.940000,344.658000,155.940000C343.173000,155.940000,341.969000,157.117000,341.969000,158.568000C341.969000,160.019000,343.173000,161.195000,344.658000,161.195000Z" fill="rgb(255,255,255)" stroke="none" stroke-width="1"/><path id="e4hYAG6L5vC20" d="M358.736000,154.018000C356.167000,154.018000,354.077000,156.059000,354.077000,158.568000C354.077000,161.076000,356.167000,163.117000,358.736000,163.117000C361.305000,163.117000,363.395000,161.076000,363.395000,158.568000C363.395000,156.059000,361.305000,154.018000,358.736000,154.018000Z" fill="rgb(255,255,255)" stroke="none" stroke-width="1"/><path id="e4hYAG6L5vC21" d="M372.812000,154.018000C370.242000,154.018000,368.153000,156.059000,368.153000,158.568000C368.153000,161.076000,370.242000,163.117000,372.812000,163.117000C375.381000,163.117000,377.470000,161.076000,377.470000,158.568000C377.472000,156.059000,375.381000,154.018000,372.812000,154.018000Z" fill="rgb(255,255,255)" stroke="none" stroke-width="1"/><path id="e4hYAG6L5vC22" d="M386.889000,154.018000C384.320000,154.018000,382.230000,156.059000,382.230000,158.568000C382.230000,161.076000,384.320000,163.117000,386.889000,163.117000C389.458000,163.117000,391.547000,161.076000,391.547000,158.568000C391.547000,156.059000,389.458000,154.018000,386.889000,154.018000Z" fill="rgb(255,255,255)" stroke="none" stroke-width="1"/><path id="e4hYAG6L5vC23" d="M400.966000,154.018000C398.397000,154.018000,396.308000,156.059000,396.308000,158.568000C396.308000,161.076000,398.397000,163.117000,400.966000,163.117000C403.536000,163.117000,405.625000,161.076000,405.625000,158.568000C405.625000,156.059000,403.534000,154.018000,400.966000,154.018000Z" fill="rgb(255,255,255)" stroke="none" stroke-width="1"/><path id="e4hYAG6L5vC24" d="M415.042000,154.018000C412.473000,154.018000,410.384000,156.059000,410.384000,158.568000C410.384000,161.076000,412.473000,163.117000,415.042000,163.117000C417.611000,163.117000,419.701000,161.076000,419.701000,158.568000C419.702000,156.059000,417.611000,154.018000,415.042000,154.018000Z" fill="rgb(255,255,255)" stroke="none" stroke-width="1"/><path id="e4hYAG6L5vC25" d="M429.119000,154.018000C426.550000,154.018000,424.461000,156.059000,424.461000,158.568000C424.461000,161.076000,426.550000,163.117000,429.119000,163.117000C431.689000,163.117000,433.778000,161.076000,433.778000,158.568000C433.778000,156.059000,431.689000,154.018000,429.119000,154.018000Z" fill="rgb(255,255,255)" stroke="none" stroke-width="1"/><path id="e4hYAG6L5vC26" d="M443.197000,155.942000C441.715000,155.942000,440.507000,157.119000,440.507000,158.569000C440.507000,160.019000,441.715000,161.197000,443.197000,161.197000C444.681000,161.197000,445.886000,160.019000,445.886000,158.569000C445.886000,157.119000,444.679000,155.942000,443.197000,155.942000Z" fill="rgb(255,255,255)" stroke="none" stroke-width="1"/><path id="e4hYAG6L5vC27" d="M344.659000,149.291000C347.231000,149.291000,349.317000,147.254000,349.317000,144.741000C349.317000,142.228000,347.231000,140.191000,344.659000,140.191000C342.086000,140.191000,340,142.228000,340,144.741000C340,147.254000,342.086000,149.291000,344.659000,149.291000Z" fill="rgb(255,255,255)" stroke="none" stroke-width="1"/><path id="e4hYAG6L5vC28" d="M358.736000,140.191000C356.167000,140.191000,354.077000,142.233000,354.077000,144.741000C354.077000,147.250000,356.167000,149.291000,358.736000,149.291000C361.305000,149.291000,363.395000,147.250000,363.395000,144.741000C363.395000,142.233000,361.305000,140.191000,358.736000,140.191000Z" fill="rgb(255,255,255)" stroke="none" stroke-width="1"/><path id="e4hYAG6L5vC29" d="M372.812000,140.191000C370.242000,140.191000,368.153000,142.233000,368.153000,144.741000C368.153000,147.250000,370.242000,149.291000,372.812000,149.291000C375.381000,149.291000,377.470000,147.250000,377.470000,144.741000C377.472000,142.233000,375.381000,140.191000,372.812000,140.191000Z" fill="rgb(255,255,255)" stroke="none" stroke-width="1"/><path id="e4hYAG6L5vC30" d="M386.889000,147.369000C388.374000,147.369000,389.578000,146.192000,389.578000,144.741000C389.578000,143.290000,388.374000,142.114000,386.889000,142.114000C385.404000,142.114000,384.199000,143.290000,384.199000,144.741000C384.199000,146.192000,385.404000,147.369000,386.889000,147.369000Z" fill="rgb(255,255,255)" stroke="none" stroke-width="1"/><path id="e4hYAG6L5vC31" d="M400.966000,147.367000C402.450000,147.367000,403.656000,146.189000,403.656000,144.740000C403.656000,143.291000,402.449000,142.112000,400.966000,142.112000C399.484000,142.112000,398.277000,143.290000,398.277000,144.740000C398.275000,146.189000,399.482000,147.367000,400.966000,147.367000Z" fill="rgb(255,255,255)" stroke="none" stroke-width="1"/><path id="e4hYAG6L5vC32" d="M429.119000,140.191000C426.550000,140.191000,424.461000,142.233000,424.461000,144.741000C424.461000,147.250000,426.550000,149.291000,429.119000,149.291000C431.689000,149.291000,433.778000,147.250000,433.778000,144.741000C433.778000,142.233000,431.689000,140.191000,429.119000,140.191000Z" fill="rgb(255,255,255)" stroke="none" stroke-width="1"/><path id="e4hYAG6L5vC33" d="M443.197000,140.191000C440.627000,140.191000,438.538000,142.233000,438.538000,144.741000C438.538000,147.250000,440.627000,149.291000,443.197000,149.291000C445.766000,149.291000,447.855000,147.250000,447.855000,144.741000C447.855000,142.233000,445.765000,140.191000,443.197000,140.191000Z" fill="rgb(255,255,255)" stroke="none" stroke-width="1"/><path id="e4hYAG6L5vC34" d="M344.659000,135.463000C347.231000,135.463000,349.317000,133.426000,349.317000,130.913000C349.317000,128.400000,347.231000,126.363000,344.659000,126.363000C342.086000,126.363000,340,128.400000,340,130.913000C340,133.426000,342.086000,135.463000,344.659000,135.463000Z" fill="rgb(255,255,255)" stroke="none" stroke-width="1"/><path id="e4hYAG6L5vC35" d="M358.736000,126.363000C356.167000,126.363000,354.077000,128.404000,354.077000,130.913000C354.077000,133.422000,356.167000,135.463000,358.736000,135.463000C361.305000,135.463000,363.395000,133.422000,363.395000,130.913000C363.395000,128.404000,361.305000,126.363000,358.736000,126.363000Z" fill="rgb(255,255,255)" stroke="none" stroke-width="1"/><path id="e4hYAG6L5vC36" d="M372.812000,133.541000C374.297000,133.541000,375.501000,132.364000,375.501000,130.913000C375.501000,129.462000,374.297000,128.286000,372.812000,128.286000C371.326000,128.286000,370.122000,129.462000,370.122000,130.913000C370.122000,132.364000,371.326000,133.541000,372.812000,133.541000Z" fill="rgb(255,255,255)" stroke="none" stroke-width="1"/><path id="e4hYAG6L5vC37" d="M386.889000,133.541000C388.374000,133.541000,389.578000,132.364000,389.578000,130.913000C389.578000,129.462000,388.374000,128.286000,386.889000,128.286000C385.404000,128.286000,384.199000,129.462000,384.199000,130.913000C384.199000,132.364000,385.404000,133.541000,386.889000,133.541000Z" fill="rgb(255,255,255)" stroke="none" stroke-width="1"/><path id="e4hYAG6L5vC38" d="M400.966000,133.541000C402.450000,133.541000,403.656000,132.363000,403.656000,130.913000C403.656000,129.465000,402.449000,128.286000,400.966000,128.286000C399.484000,128.286000,398.277000,129.463000,398.277000,130.913000C398.275000,132.361000,399.482000,133.541000,400.966000,133.541000Z" fill="rgb(255,255,255)" stroke="none" stroke-width="1"/><path id="e4hYAG6L5vC39" d="M415.042000,133.541000C416.528000,133.541000,417.732000,132.364000,417.732000,130.913000C417.732000,129.462000,416.528000,128.286000,415.042000,128.286000C413.557000,128.286000,412.353000,129.462000,412.353000,130.913000C412.353000,132.364000,413.557000,133.541000,415.042000,133.541000Z" fill="rgb(255,255,255)" stroke="none" stroke-width="1"/><path id="e4hYAG6L5vC40" d="M429.119000,133.541000C430.602000,133.541000,431.809000,132.363000,431.809000,130.913000C431.809000,129.465000,430.602000,128.286000,429.119000,128.286000C427.635000,128.286000,426.430000,129.463000,426.430000,130.913000C426.430000,132.361000,427.635000,133.541000,429.119000,133.541000Z" fill="rgb(255,255,255)" stroke="none" stroke-width="1"/><path id="e4hYAG6L5vC41" d="M443.197000,128.288000C441.715000,128.288000,440.507000,129.465000,440.507000,130.915000C440.507000,132.363000,441.715000,133.542000,443.197000,133.542000C444.681000,133.542000,445.886000,132.365000,445.886000,130.915000C445.886000,129.465000,444.679000,128.288000,443.197000,128.288000Z" fill="rgb(255,255,255)" stroke="none" stroke-width="1"/><path id="e4hYAG6L5vC42" d="M344.659000,121.637000C347.231000,121.637000,349.317000,119.600000,349.317000,117.087000C349.317000,114.574000,347.231000,112.537000,344.659000,112.537000C342.086000,112.537000,340,114.574000,340,117.087000C340,119.600000,342.086000,121.637000,344.659000,121.637000Z" fill="rgb(255,255,255)" stroke="none" stroke-width="1"/><path id="e4hYAG6L5vC43" d="M358.736000,112.537000C356.167000,112.537000,354.077000,114.578000,354.077000,117.087000C354.077000,119.596000,356.167000,121.637000,358.736000,121.637000C361.305000,121.637000,363.395000,119.596000,363.395000,117.087000C363.395000,114.578000,361.305000,112.537000,358.736000,112.537000Z" fill="rgb(255,255,255)" stroke="none" stroke-width="1"/><path id="e4hYAG6L5vC44" d="M372.812000,119.714000C374.297000,119.714000,375.501000,118.538000,375.501000,117.087000C375.501000,115.636000,374.297000,114.460000,372.812000,114.460000C371.326000,114.460000,370.122000,115.636000,370.122000,117.087000C370.122000,118.538000,371.326000,119.714000,372.812000,119.714000Z" fill="rgb(255,255,255)" stroke="none" stroke-width="1"/><path id="e4hYAG6L5vC45" d="M386.889000,119.714000C388.374000,119.714000,389.578000,118.538000,389.578000,117.087000C389.578000,115.636000,388.374000,114.460000,386.889000,114.460000C385.404000,114.460000,384.199000,115.636000,384.199000,117.087000C384.199000,118.538000,385.404000,119.714000,386.889000,119.714000Z" fill="rgb(255,255,255)" stroke="none" stroke-width="1"/><path id="e4hYAG6L5vC46" d="M400.966000,119.712000C402.450000,119.712000,403.656000,118.535000,403.656000,117.085000C403.656000,115.637000,402.449000,114.458000,400.966000,114.458000C399.484000,114.458000,398.277000,115.635000,398.277000,117.085000C398.275000,118.535000,399.482000,119.712000,400.966000,119.712000Z" fill="rgb(255,255,255)" stroke="none" stroke-width="1"/><path id="e4hYAG6L5vC47" d="M415.042000,119.714000C416.528000,119.714000,417.732000,118.538000,417.732000,117.087000C417.732000,115.636000,416.528000,114.460000,415.042000,114.460000C413.557000,114.460000,412.353000,115.636000,412.353000,117.087000C412.353000,118.538000,413.557000,119.714000,415.042000,119.714000Z" fill="rgb(255,255,255)" stroke="none" stroke-width="1"/><path id="e4hYAG6L5vC48" d="M429.119000,119.712000C430.602000,119.712000,431.809000,118.535000,431.809000,117.085000C431.809000,115.637000,430.602000,114.458000,429.119000,114.458000C427.635000,114.458000,426.430000,115.635000,426.430000,117.085000C426.430000,118.535000,427.635000,119.712000,429.119000,119.712000Z" fill="rgb(255,255,255)" stroke="none" stroke-width="1"/><path id="e4hYAG6L5vC49" d="M443.197000,114.460000C441.715000,114.460000,440.507000,115.637000,440.507000,117.087000C440.507000,118.535000,441.715000,119.714000,443.197000,119.714000C444.681000,119.714000,445.886000,118.537000,445.886000,117.087000C445.886000,115.637000,444.679000,114.460000,443.197000,114.460000Z" fill="rgb(255,255,255)" stroke="none" stroke-width="1"/><path id="e4hYAG6L5vC50" d="M344.659000,107.809000C347.231000,107.809000,349.317000,105.772000,349.317000,103.259000C349.317000,100.746000,347.231000,98.709000,344.659000,98.709000C342.086000,98.709000,340,100.746000,340,103.259000C340,105.772000,342.086000,107.809000,344.659000,107.809000Z" fill="rgb(255,255,255)" stroke="none" stroke-width="1"/><path id="e4hYAG6L5vC51" d="M358.736000,98.709000C356.167000,98.709000,354.077000,100.750000,354.077000,103.259000C354.077000,105.768000,356.167000,107.809000,358.736000,107.809000C361.305000,107.809000,363.395000,105.768000,363.395000,103.259000C363.395000,100.750000,361.305000,98.709000,358.736000,98.709000Z" fill="rgb(255,255,255)" stroke="none" stroke-width="1"/><path id="e4hYAG6L5vC52" d="M372.812000,98.709000C370.242000,98.709000,368.153000,100.750000,368.153000,103.259000C368.153000,105.768000,370.242000,107.809000,372.812000,107.809000C375.381000,107.809000,377.470000,105.768000,377.470000,103.259000C377.470000,100.750000,375.381000,98.709000,372.812000,98.709000Z" fill="rgb(255,255,255)" stroke="none" stroke-width="1"/><path id="e4hYAG6L5vC53" d="M386.889000,105.886000C388.374000,105.886000,389.578000,104.710000,389.578000,103.259000C389.578000,101.808000,388.374000,100.632000,386.889000,100.632000C385.404000,100.632000,384.199000,101.808000,384.199000,103.259000C384.199000,104.710000,385.404000,105.886000,386.889000,105.886000Z" fill="rgb(255,255,255)" stroke="none" stroke-width="1"/><path id="e4hYAG6L5vC54" d="M400.966000,105.886000C402.450000,105.886000,403.656000,104.709000,403.656000,103.259000C403.656000,101.811000,402.449000,100.632000,400.966000,100.632000C399.484000,100.632000,398.277000,101.809000,398.277000,103.259000C398.275000,104.707000,399.482000,105.886000,400.966000,105.886000Z" fill="rgb(255,255,255)" stroke="none" stroke-width="1"/><path id="e4hYAG6L5vC55" d="M429.119000,98.709000C426.550000,98.709000,424.461000,100.750000,424.461000,103.259000C424.461000,105.768000,426.550000,107.809000,429.119000,107.809000C431.689000,107.809000,433.778000,105.768000,433.778000,103.259000C433.778000,100.750000,431.689000,98.709000,429.119000,98.709000Z" fill="rgb(255,255,255)" stroke="none" stroke-width="1"/><path id="e4hYAG6L5vC56" d="M443.197000,107.809000C445.766000,107.809000,447.855000,105.768000,447.855000,103.259000C447.855000,100.750000,445.766000,98.709000,443.197000,98.709000C440.627000,98.709000,438.538000,100.750000,438.538000,103.259000C438.538000,105.768000,440.627000,107.809000,443.197000,107.809000Z" fill="rgb(255,255,255)" stroke="none" stroke-width="1"/><path id="e4hYAG6L5vC57" d="M344.658000,92.058100C346.144000,92.058100,347.348000,90.881800,347.348000,89.430800C347.348000,87.979800,346.144000,86.803500,344.658000,86.803500C343.173000,86.803500,341.969000,87.979800,341.969000,89.430800C341.969000,90.881800,343.173000,92.058100,344.658000,92.058100Z" fill="rgb(255,255,255)" stroke="none" stroke-width="1"/><path id="e4hYAG6L5vC58" d="M358.736000,84.882700C356.167000,84.882700,354.077000,86.923700,354.077000,89.432500C354.077000,91.941200,356.167000,93.982200,358.736000,93.982200C361.305000,93.982200,363.395000,91.941200,363.395000,89.432500C363.395000,86.923700,361.305000,84.882700,358.736000,84.882700Z" fill="rgb(255,255,255)" stroke="none" stroke-width="1"/><path id="e4hYAG6L5vC59" d="M372.812000,84.882700C370.242000,84.882700,368.153000,86.923700,368.153000,89.432500C368.153000,91.941200,370.242000,93.982200,372.812000,93.982200C375.381000,93.982200,377.470000,91.941200,377.470000,89.432500C377.472000,86.923700,375.381000,84.882700,372.812000,84.882700Z" fill="rgb(255,255,255)" stroke="none" stroke-width="1"/><path id="e4hYAG6L5vC60" d="M386.889000,84.882700C384.320000,84.882700,382.230000,86.923700,382.230000,89.432500C382.230000,91.941200,384.320000,93.982200,386.889000,93.982200C389.458000,93.982200,391.547000,91.941200,391.547000,89.432500C391.547000,86.923700,389.458000,84.882700,386.889000,84.882700Z" fill="rgb(255,255,255)" stroke="none" stroke-width="1"/><path id="e4hYAG6L5vC61" d="M400.966000,84.882700C398.397000,84.882700,396.308000,86.923700,396.308000,89.432500C396.308000,91.941200,398.397000,93.982200,400.966000,93.982200C403.536000,93.982200,405.625000,91.941200,405.625000,89.432500C405.625000,86.923700,403.534000,84.882700,400.966000,84.882700Z" fill="rgb(255,255,255)" stroke="none" stroke-width="1"/><path id="e4hYAG6L5vC62" d="M415.042000,84.882700C412.473000,84.882700,410.384000,86.923700,410.384000,89.432500C410.384000,91.941200,412.473000,93.982200,415.042000,93.982200C417.611000,93.982200,419.701000,91.941200,419.701000,89.432500C419.702000,86.923700,417.611000,84.882700,415.042000,84.882700Z" fill="rgb(255,255,255)" stroke="none" stroke-width="1"/><path id="e4hYAG6L5vC63" d="M429.119000,84.882700C426.550000,84.882700,424.461000,86.923700,424.461000,89.432500C424.461000,91.941200,426.550000,93.982200,429.119000,93.982200C431.689000,93.982200,433.778000,91.941200,433.778000,89.432500C433.778000,86.923700,431.689000,84.882700,429.119000,84.882700Z" fill="rgb(255,255,255)" stroke="none" stroke-width="1"/><path id="e4hYAG6L5vC64" d="M443.197000,92.058100C444.681000,92.058100,445.886000,90.880600,445.886000,89.430800C445.886000,87.981000,444.679000,86.803500,443.197000,86.803500C441.715000,86.803500,440.507000,87.981000,440.507000,89.430800C440.507000,90.880600,441.713000,92.058100,443.197000,92.058100Z" fill="rgb(255,255,255)" stroke="none" stroke-width="1"/><path id="e4hYAG6L5vC65" d="M415.042000,98.709000C412.473000,98.709000,410.384000,100.750000,410.384000,103.259000C410.384000,105.768000,412.473000,107.809000,415.042000,107.809000C417.611000,107.809000,419.701000,105.768000,419.701000,103.259000C419.702000,100.750000,417.611000,98.709000,415.042000,98.709000Z" fill="rgb(255,255,255)" stroke="none" stroke-width="1"/><path id="e4hYAG6L5vC66" d="M415.042000,140.191000C412.473000,140.191000,410.384000,142.233000,410.384000,144.741000C410.384000,147.250000,412.473000,149.291000,415.042000,149.291000C417.611000,149.291000,419.701000,147.250000,419.701000,144.741000C419.702000,142.233000,417.611000,140.191000,415.042000,140.191000Z" fill="rgb(255,255,255)" stroke="none" stroke-width="1"/></g><g id="e4hYAG6L5vC67" transform="matrix(1 0 0 1 -40 58.59999847500001)" opacity="0"><path id="e4hYAG6L5vC68" d="M541.240000,171L560.090000,171L519.790000,78.700000L499.380000,78.700000L459.080000,171L477.930000,171L487.030000,148.510000L532.140000,148.510000L541.240000,171ZM492.230000,135.380000L503.670000,107.040000C506.400000,101.190000,508.090000,97.420000,509.520000,92.220000L509.780000,92.220000C511.080000,97.420000,512.770000,101.190000,515.500000,107.040000L526.940000,135.380000L492.230000,135.380000Z" fill="rgb(255,255,255)" stroke="none" stroke-width="1"/><path id="e4hYAG6L5vC69" d="M570.567000,171L586.947000,171L586.947000,110.810000C586.947000,106.130000,586.817000,102.490000,586.687000,98.850000L587.077000,98.850000C588.377000,102.230000,590.717000,105.870000,593.187000,109.640000L638.427000,171L657.797000,171L657.797000,78.700000L641.547000,78.700000L641.547000,138.370000C641.547000,143.050000,641.547000,146.820000,641.677000,150.460000L641.417000,150.460000C639.987000,146.950000,637.907000,143.440000,635.177000,139.540000L590.977000,78.700000L570.567000,78.700000L570.567000,171Z" fill="rgb(255,255,255)" stroke="none" stroke-width="1"/><path id="e4hYAG6L5vC70" d="M750.530000,171L769.380000,171L729.080000,78.700000L708.670000,78.700000L668.370000,171L687.220000,171L696.320000,148.510000L741.430000,148.510000L750.530000,171ZM701.520000,135.380000L712.960000,107.040000C715.690000,101.190000,717.380000,97.420000,718.810000,92.220000L719.070000,92.220000C720.370000,97.420000,722.060000,101.190000,724.790000,107.040000L736.230000,135.380000L701.520000,135.380000Z" fill="rgb(255,255,255)" stroke="none" stroke-width="1"/><path id="e4hYAG6L5vC71" d="M779.857000,171L822.237000,171C851.747000,171,871.637000,152.150000,871.637000,124.070000C871.637000,95.860000,852.137000,78.700000,822.367000,78.700000L779.857000,78.700000L779.857000,171ZM797.927000,157.480000L797.927000,92.220000L820.807000,92.220000C840.697000,92.220000,852.787000,104.570000,852.787000,124.200000C852.787000,143.700000,841.087000,157.480000,821.067000,157.480000L797.927000,157.480000Z" fill="rgb(255,255,255)" stroke="none" stroke-width="1"/><path id="e4hYAG6L5vC72" d="M902.445000,171L902.445000,78.700000L884.375000,78.700000L884.375000,171L902.445000,171Z" fill="rgb(255,255,255)" stroke="none" stroke-width="1"/><path id="e4hYAG6L5vC73" d="M995.148000,171L1014,171L973.698000,78.700000L953.288000,78.700000L912.988000,171L931.838000,171L940.938000,148.510000L986.048000,148.510000L995.148000,171ZM946.138000,135.380000L957.578000,107.040000C960.308000,101.190000,961.998000,97.420000,963.428000,92.220000L963.688000,92.220000C964.988000,97.420000,966.678000,101.190000,969.408000,107.040000L980.848000,135.380000L946.138000,135.380000Z" fill="rgb(255,255,255)" stroke="none" stroke-width="1"/><path id="e4hYAG6L5vC74" d="M1024.480000,171L1040.860000,171L1040.860000,110.810000C1040.860000,106.130000,1040.730000,102.490000,1040.600000,98.850000L1040.990000,98.850000C1042.290000,102.230000,1044.630000,105.870000,1047.100000,109.640000L1092.340000,171L1111.710000,171L1111.710000,78.700000L1095.460000,78.700000L1095.460000,138.370000C1095.460000,143.050000,1095.460000,146.820000,1095.590000,150.460000L1095.330000,150.460000C1093.900000,146.950000,1091.820000,143.440000,1089.090000,139.540000L1044.890000,78.700000L1024.480000,78.700000L1024.480000,171Z" fill="rgb(255,255,255)" stroke="none" stroke-width="1"/></g><g id="e4hYAG6L5vC75" transform="matrix(1 0 0 1 -50.27001953000001 -683.40000915499991)" opacity="0"><path id="e4hYAG6L5vC76" d="M487.420000,899.220000L487.420000,872.570000L539.680000,872.570000L539.680000,859.180000L487.420000,859.180000L487.420000,834.480000L541.890000,834.480000L541.890000,820.700000L469.350000,820.700000L469.350000,913L542.800000,913L542.800000,899.220000L487.420000,899.220000Z" fill="rgb(255,255,255)" stroke="none" stroke-width="1"/><path id="e4hYAG6L5vC77" d="M622.962000,913L643.242000,913L619.452000,874.520000C634.532000,870.620000,640.122000,859.180000,640.122000,848.650000C640.122000,834.350000,632.192000,820.700000,606.712000,820.700000L559.522000,820.700000L559.522000,913L577.592000,913L577.592000,876.860000L600.862000,876.860000L622.962000,913ZM577.592000,834.090000L603.332000,834.090000C616.852000,834.090000,621.272000,840.720000,621.272000,848.780000C621.272000,856.970000,616.722000,863.860000,603.332000,863.860000L577.592000,863.860000L577.592000,834.090000Z" fill="rgb(255,255,255)" stroke="none" stroke-width="1"/><path id="e4hYAG6L5vC78" d="M726.705000,820.700000L641.815000,820.700000L641.815000,835.130000L675.225000,835.130000L675.225000,913L693.295000,913L693.295000,835.130000L726.705000,835.130000L726.705000,820.700000Z" fill="rgb(255,255,255)" stroke="none" stroke-width="1"/><path id="e4hYAG6L5vC79" d="M754.382000,913L754.382000,820.700000L736.312000,820.700000L736.312000,913L754.382000,913Z" fill="rgb(255,255,255)" stroke="none" stroke-width="1"/><path id="e4hYAG6L5vC80" d="M847.735000,834.610000L847.735000,820.700000L775.195000,820.700000L775.195000,913L793.265000,913L793.265000,873.350000L845.525000,873.350000L845.525000,859.570000L793.265000,859.570000L793.265000,834.610000L847.735000,834.610000Z" fill="rgb(255,255,255)" stroke="none" stroke-width="1"/><path id="e4hYAG6L5vC81" d="M879.375000,913L879.375000,820.700000L861.305000,820.700000L861.305000,913L879.375000,913Z" fill="rgb(255,255,255)" stroke="none" stroke-width="1"/><path id="e4hYAG6L5vC82" d="M918.258000,899.220000L918.258000,872.570000L970.518000,872.570000L970.518000,859.180000L918.258000,859.180000L918.258000,834.480000L972.728000,834.480000L972.728000,820.700000L900.188000,820.700000L900.188000,913L973.638000,913L973.638000,899.220000L918.258000,899.220000Z" fill="rgb(255,255,255)" stroke="none" stroke-width="1"/><path id="e4hYAG6L5vC83" d="M990.361000,913L1032.740000,913C1062.250000,913,1082.140000,894.150000,1082.140000,866.070000C1082.140000,837.860000,1062.640000,820.700000,1032.870000,820.700000L990.361000,820.700000L990.361000,913ZM1008.430000,899.480000L1008.430000,834.220000L1031.310000,834.220000C1051.200000,834.220000,1063.290000,846.570000,1063.290000,866.200000C1063.290000,885.700000,1051.590000,899.480000,1031.570000,899.480000L1008.430000,899.480000Z" fill="rgb(255,255,255)" stroke="none" stroke-width="1"/></g><g id="e4hYAG6L5vC84" transform="matrix(1 0 0 1 -50.27001952999990 -59.40000152499999)" opacity="0"><path id="e4hYAG6L5vC85" d="M469.350000,289L538.640000,289L538.640000,274.310000L487.420000,274.310000L487.420000,196.700000L469.350000,196.700000L469.350000,289Z" fill="rgb(255,255,255)" stroke="none" stroke-width="1"/><path id="e4hYAG6L5vC86" d="M568.452000,289L568.452000,196.700000L550.382000,196.700000L550.382000,289L568.452000,289Z" fill="rgb(255,255,255)" stroke="none" stroke-width="1"/><path id="e4hYAG6L5vC87" d="M589.265000,289L605.255000,289L605.255000,222.180000C605.255000,218.020000,604.995000,214.250000,604.605000,211L605.125000,211C605.645000,213.470000,606.945000,218.280000,608.245000,221.790000L634.505000,289L651.145000,289L677.405000,221.790000C678.835000,218.280000,680.395000,213.080000,680.785000,211L681.305000,211C680.915000,214.380000,680.655000,218.410000,680.655000,222.180000L680.655000,289L697.165000,289L697.165000,196.700000L670.775000,196.700000L645.945000,261.050000C644.515000,264.950000,643.735000,267.290000,643.215000,270.410000L642.955000,270.410000C642.435000,267.290000,641.655000,265.080000,640.355000,261.050000L615.395000,196.700000L589.265000,196.700000L589.265000,289Z" fill="rgb(255,255,255)" stroke="none" stroke-width="1"/><path id="e4hYAG6L5vC88" d="M789.794000,289L808.644000,289L768.344000,196.700000L747.934000,196.700000L707.634000,289L726.484000,289L735.584000,266.510000L780.694000,266.510000L789.794000,289ZM740.784000,253.380000L752.224000,225.040000C754.954000,219.190000,756.644000,215.420000,758.074000,210.220000L758.334000,210.220000C759.634000,215.420000,761.324000,219.190000,764.054000,225.040000L775.494000,253.380000L740.784000,253.380000Z" fill="rgb(255,255,255)" stroke="none" stroke-width="1"/><path id="e4hYAG6L5vC89" d="M878.866000,196.700000L793.976000,196.700000L793.976000,211.130000L827.386000,211.130000L827.386000,289L845.456000,289L845.456000,211.130000L878.866000,211.130000L878.866000,196.700000Z" fill="rgb(255,255,255)" stroke="none" stroke-width="1"/><path id="e4hYAG6L5vC90" d="M906.543000,275.220000L906.543000,248.570000L958.803000,248.570000L958.803000,235.180000L906.543000,235.180000L906.543000,210.480000L961.013000,210.480000L961.013000,196.700000L888.473000,196.700000L888.473000,289L961.923000,289L961.923000,275.220000L906.543000,275.220000Z" fill="rgb(255,255,255)" stroke="none" stroke-width="1"/></g><g id="e4hYAG6L5vC91" transform="matrix(1 0 0 1 -50.27001952999990 -175.40000914999996)" opacity="0"><path id="e4hYAG6L5vC92" d="M556.970000,312.700000L538.900000,312.700000L538.900000,351.050000L487.420000,351.050000L487.420000,312.700000L469.350000,312.700000L469.350000,405L487.420000,405L487.420000,364.960000L538.900000,364.960000L538.900000,405L556.970000,405L556.970000,312.700000Z" fill="rgb(255,255,255)" stroke="none" stroke-width="1"/><path id="e4hYAG6L5vC93" d="M649.694000,405L668.544000,405L628.244000,312.700000L607.834000,312.700000L567.534000,405L586.384000,405L595.484000,382.510000L640.594000,382.510000L649.694000,405ZM600.684000,369.380000L612.124000,341.040000C614.854000,335.190000,616.544000,331.420000,617.974000,326.220000L618.234000,326.220000C619.534000,331.420000,621.224000,335.190000,623.954000,341.040000L635.394000,369.380000L600.684000,369.380000Z" fill="rgb(255,255,255)" stroke="none" stroke-width="1"/><path id="e4hYAG6L5vC94" d="M679.021000,405L695.401000,405L695.401000,344.810000C695.401000,340.130000,695.271000,336.490000,695.141000,332.850000L695.531000,332.850000C696.831000,336.230000,699.171000,339.870000,701.641000,343.640000L746.881000,405L766.251000,405L766.251000,312.700000L750.001000,312.700000L750.001000,372.370000C750.001000,377.050000,750.001000,380.820000,750.131000,384.460000L749.871000,384.460000C748.441000,380.950000,746.361000,377.440000,743.631000,373.540000L699.431000,312.700000L679.021000,312.700000L679.021000,405Z" fill="rgb(255,255,255)" stroke="none" stroke-width="1"/><path id="e4hYAG6L5vC95" d="M825.963000,407.600000C843.383000,407.600000,855.473000,400.190000,860.933000,389.920000L862.233000,405L875.493000,405L875.493000,355.210000L828.303000,355.210000L828.303000,368.340000L859.113000,368.340000L859.113000,369.510000C858.853000,379.910000,850.403000,393.690000,829.603000,393.690000C808.933000,393.690000,797.623000,379.390000,797.623000,359.110000C797.623000,337.920000,809.453000,324.010000,829.473000,324.010000C845.593000,324.010000,853.913000,332.850000,856.253000,342.210000L874.843000,339.090000C871.203000,324.140000,856.513000,310.100000,829.993000,310.100000C798.273000,310.100000,779.033000,330.250000,779.033000,359.110000C779.033000,387.580000,796.843000,407.600000,825.963000,407.600000Z" fill="rgb(255,255,255)" stroke="none" stroke-width="1"/><path id="e4hYAG6L5vC96" d="M910.062000,391.220000L910.062000,364.570000L962.322000,364.570000L962.322000,351.180000L910.062000,351.180000L910.062000,326.480000L964.532000,326.480000L964.532000,312.700000L891.992000,312.700000L891.992000,405L965.442000,405L965.442000,391.220000L910.062000,391.220000Z" fill="rgb(255,255,255)" stroke="none" stroke-width="1"/></g><g id="e4hYAG6L5vC97" transform="matrix(1 0 0 1 -40 -301.39999389499997)" opacity="0"><path id="e4hYAG6L5vC98" d="M541.240000,531L560.090000,531L519.790000,438.700000L499.380000,438.700000L459.080000,531L477.930000,531L487.030000,508.510000L532.140000,508.510000L541.240000,531ZM492.230000,495.380000L503.670000,467.040000C506.400000,461.190000,508.090000,457.420000,509.520000,452.220000L509.780000,452.220000C511.080000,457.420000,512.770000,461.190000,515.500000,467.040000L526.940000,495.380000L492.230000,495.380000Z" fill="rgb(255,255,255)" stroke="none" stroke-width="1"/><path id="e4hYAG6L5vC99" d="M634.007000,531L654.287000,531L630.497000,492.520000C645.577000,488.620000,651.167000,477.180000,651.167000,466.650000C651.167000,452.350000,643.237000,438.700000,617.757000,438.700000L570.567000,438.700000L570.567000,531L588.637000,531L588.637000,494.860000L611.907000,494.860000L634.007000,531ZM588.637000,452.090000L614.377000,452.090000C627.897000,452.090000,632.317000,458.720000,632.317000,466.780000C632.317000,474.970000,627.767000,481.860000,614.377000,481.860000L588.637000,481.860000L588.637000,452.090000Z" fill="rgb(255,255,255)" stroke="none" stroke-width="1"/><path id="e4hYAG6L5vC100" d="M731.422000,483.030000C742.602000,480.300000,748.062000,471.980000,748.062000,462.620000C748.062000,450.530000,739.742000,438.700000,716.862000,438.700000L667.722000,438.700000L667.722000,531L718.422000,531C741.822000,531,750.532000,518.650000,750.532000,505.260000C750.532000,493.170000,743.902000,484.980000,731.422000,483.030000ZM713.482000,451.960000C726.222000,451.960000,729.732000,458.330000,729.732000,464.570000C729.732000,470.810000,726.872000,477.570000,713.482000,477.570000L685.792000,477.570000L685.792000,451.960000L713.482000,451.960000ZM715.042000,517.740000L685.792000,517.740000L685.792000,490.310000L715.562000,490.310000C727.262000,490.310000,732.202000,496.030000,732.202000,503.830000C732.202000,511.630000,727.522000,517.740000,715.042000,517.740000Z" fill="rgb(255,255,255)" stroke="none" stroke-width="1"/><path id="e4hYAG6L5vC101" d="M807.650000,533.600000C838.460000,533.600000,858.610000,514.620000,858.610000,484.850000C858.610000,454.950000,838.460000,436.100000,807.650000,436.100000C776.840000,436.100000,756.690000,454.950000,756.690000,484.850000C756.690000,514.490000,776.840000,533.600000,807.650000,533.600000ZM807.650000,519.430000C787.890000,519.430000,775.540000,505.780000,775.540000,484.850000C775.540000,463.660000,787.890000,450.270000,807.650000,450.270000C827.410000,450.270000,839.760000,463.660000,839.760000,484.850000C839.760000,506.040000,827.410000,519.430000,807.650000,519.430000Z" fill="rgb(255,255,255)" stroke="none" stroke-width="1"/><path id="e4hYAG6L5vC102" d="M871.299000,531L887.679000,531L887.679000,470.810000C887.679000,466.130000,887.549000,462.490000,887.419000,458.850000L887.809000,458.850000C889.109000,462.230000,891.449000,465.870000,893.919000,469.640000L939.159000,531L958.529000,531L958.529000,438.700000L942.279000,438.700000L942.279000,498.370000C942.279000,503.050000,942.279000,506.820000,942.409000,510.460000L942.149000,510.460000C940.719000,506.950000,938.639000,503.440000,935.909000,499.540000L891.709000,438.700000L871.299000,438.700000L871.299000,531Z" fill="rgb(255,255,255)" stroke="none" stroke-width="1"/></g><g id="e4hYAG6L5vC103" transform="matrix(1 0 0 1 -42.21002196999996 -429.39997863999997)" opacity="0"><path id="e4hYAG6L5vC104" d="M512.250000,661.600000C543.060000,661.600000,563.210000,642.620000,563.210000,612.850000C563.210000,582.950000,543.060000,564.100000,512.250000,564.100000C481.440000,564.100000,461.290000,582.950000,461.290000,612.850000C461.290000,642.490000,481.440000,661.600000,512.250000,661.600000ZM512.250000,647.430000C492.490000,647.430000,480.140000,633.780000,480.140000,612.850000C480.140000,591.660000,492.490000,578.270000,512.250000,578.270000C532.010000,578.270000,544.360000,591.660000,544.360000,612.850000C544.360000,634.040000,532.010000,647.430000,512.250000,647.430000Z" fill="rgb(255,255,255)" stroke="none" stroke-width="1"/><path id="e4hYAG6L5vC105" d="M573.299000,659L589.289000,659L589.289000,592.180000C589.289000,588.020000,589.029000,584.250000,588.639000,581L589.159000,581C589.679000,583.470000,590.979000,588.280000,592.279000,591.790000L618.539000,659L635.179000,659L661.439000,591.790000C662.869000,588.280000,664.429000,583.080000,664.819000,581L665.339000,581C664.949000,584.380000,664.689000,588.410000,664.689000,592.180000L664.689000,659L681.199000,659L681.199000,566.700000L654.809000,566.700000L629.979000,631.050000C628.549000,634.950000,627.769000,637.290000,627.249000,640.410000L626.989000,640.410000C626.469000,637.290000,625.689000,635.080000,624.389000,631.050000L599.429000,566.700000L573.299000,566.700000L573.299000,659Z" fill="rgb(255,255,255)" stroke="none" stroke-width="1"/><path id="e4hYAG6L5vC106" d="M699.338000,659L715.328000,659L715.328000,592.180000C715.328000,588.020000,715.068000,584.250000,714.678000,581L715.198000,581C715.718000,583.470000,717.018000,588.280000,718.318000,591.790000L744.578000,659L761.218000,659L787.478000,591.790000C788.908000,588.280000,790.468000,583.080000,790.858000,581L791.378000,581C790.988000,584.380000,790.728000,588.410000,790.728000,592.180000L790.728000,659L807.238000,659L807.238000,566.700000L780.848000,566.700000L756.018000,631.050000C754.588000,634.950000,753.808000,637.290000,753.288000,640.410000L753.028000,640.410000C752.508000,637.290000,751.728000,635.080000,750.428000,631.050000L725.468000,566.700000L699.338000,566.700000L699.338000,659Z" fill="rgb(255,255,255)" stroke="none" stroke-width="1"/><path id="e4hYAG6L5vC107" d="M822.777000,566.700000L822.777000,622.730000C822.777000,645.870000,838.507000,661.600000,866.587000,661.600000C894.537000,661.600000,910.267000,645.870000,910.267000,622.730000L910.267000,566.700000L892.197000,566.700000L892.197000,621.560000C892.197000,636.380000,882.837000,646.780000,866.587000,646.780000C850.077000,646.780000,840.847000,636.380000,840.847000,621.560000L840.847000,566.700000L822.777000,566.700000Z" fill="rgb(255,255,255)" stroke="none" stroke-width="1"/><path id="e4hYAG6L5vC108" d="M925.899000,659L942.279000,659L942.279000,598.810000C942.279000,594.130000,942.149000,590.490000,942.019000,586.850000L942.409000,586.850000C943.709000,590.230000,946.049000,593.870000,948.519000,597.640000L993.759000,659L1013.130000,659L1013.130000,566.700000L996.879000,566.700000L996.879000,626.370000C996.879000,631.050000,996.879000,634.820000,997.009000,638.460000L996.749000,638.460000C995.319000,634.950000,993.239000,631.440000,990.509000,627.540000L946.309000,566.700000L925.899000,566.700000L925.899000,659Z" fill="rgb(255,255,255)" stroke="none" stroke-width="1"/><path id="e4hYAG6L5vC109" d="M1049.440000,659L1049.440000,566.700000L1031.370000,566.700000L1031.370000,659L1049.440000,659Z" fill="rgb(255,255,255)" stroke="none" stroke-width="1"/><path id="e4hYAG6L5vC110" d="M1141.360000,566.700000L1056.470000,566.700000L1056.470000,581.130000L1089.880000,581.130000L1089.880000,659L1107.950000,659L1107.950000,581.130000L1141.360000,581.130000L1141.360000,566.700000Z" fill="rgb(255,255,255)" stroke="none" stroke-width="1"/><path id="e4hYAG6L5vC111" d="M1178.410000,659L1196.480000,659L1196.480000,624.940000L1234.440000,566.700000L1214.550000,566.700000L1190.240000,605.310000C1188.810000,607.650000,1188.030000,609.210000,1187.640000,610.770000L1187.380000,610.770000C1186.990000,609.210000,1186.210000,607.650000,1184.910000,605.310000L1160.860000,566.700000L1140.580000,566.700000L1178.410000,624.940000L1178.410000,659Z" fill="rgb(255,255,255)" stroke="none" stroke-width="1"/></g><g id="e4hYAG6L5vC112" transform="matrix(1 0 0 1 -42.21002196999996 -555.39997863999997)" opacity="0"><path id="e4hYAG6L5vC113" d="M512.250000,787.600000C543.060000,787.600000,563.210000,768.620000,563.210000,738.850000C563.210000,708.950000,543.060000,690.100000,512.250000,690.100000C481.440000,690.100000,461.290000,708.950000,461.290000,738.850000C461.290000,768.490000,481.440000,787.600000,512.250000,787.600000ZM512.250000,773.430000C492.490000,773.430000,480.140000,759.780000,480.140000,738.850000C480.140000,717.660000,492.490000,704.270000,512.250000,704.270000C532.010000,704.270000,544.360000,717.660000,544.360000,738.850000C544.360000,760.040000,532.010000,773.430000,512.250000,773.430000Z" fill="rgb(255,255,255)" stroke="none" stroke-width="1"/><path id="e4hYAG6L5vC114" d="M573.299000,785L589.679000,785L589.679000,724.810000C589.679000,720.130000,589.549000,716.490000,589.419000,712.850000L589.809000,712.850000C591.109000,716.230000,593.449000,719.870000,595.919000,723.640000L641.159000,785L660.529000,785L660.529000,692.700000L644.279000,692.700000L644.279000,752.370000C644.279000,757.050000,644.279000,760.820000,644.409000,764.460000L644.149000,764.460000C642.719000,760.950000,640.639000,757.440000,637.909000,753.540000L593.709000,692.700000L573.299000,692.700000L573.299000,785Z" fill="rgb(255,255,255)" stroke="none" stroke-width="1"/><path id="e4hYAG6L5vC115" d="M678.772000,785L695.152000,785L695.152000,724.810000C695.152000,720.130000,695.022000,716.490000,694.892000,712.850000L695.282000,712.850000C696.582000,716.230000,698.922000,719.870000,701.392000,723.640000L746.632000,785L766.002000,785L766.002000,692.700000L749.752000,692.700000L749.752000,752.370000C749.752000,757.050000,749.752000,760.820000,749.882000,764.460000L749.622000,764.460000C748.192000,760.950000,746.112000,757.440000,743.382000,753.540000L699.182000,692.700000L678.772000,692.700000L678.772000,785Z" fill="rgb(255,255,255)" stroke="none" stroke-width="1"/><path id="e4hYAG6L5vC116" d="M802.315000,771.220000L802.315000,744.570000L854.575000,744.570000L854.575000,731.180000L802.315000,731.180000L802.315000,706.480000L856.785000,706.480000L856.785000,692.700000L784.245000,692.700000L784.245000,785L857.695000,785L857.695000,771.220000L802.315000,771.220000Z" fill="rgb(255,255,255)" stroke="none" stroke-width="1"/><path id="e4hYAG6L5vC117" d="M912.283000,787.600000C937.763000,787.600000,953.363000,775.120000,958.823000,755.620000L940.753000,752.110000C937.373000,765.370000,927.493000,773.040000,912.803000,773.040000C892.783000,773.040000,880.953000,758.870000,880.953000,738.720000C880.953000,717.920000,892.783000,704.530000,912.413000,704.530000C927.883000,704.530000,937.633000,712.720000,940.233000,726.370000L958.823000,723.640000C954.793000,703.100000,938.673000,690.100000,912.933000,690.100000C881.603000,690.100000,862.233000,709.860000,862.233000,738.850000C862.233000,767.450000,880.173000,787.600000,912.283000,787.600000Z" fill="rgb(255,255,255)" stroke="none" stroke-width="1"/><path id="e4hYAG6L5vC118" d="M1039.830000,692.700000L954.938000,692.700000L954.938000,707.130000L988.348000,707.130000L988.348000,785L1006.420000,785L1006.420000,707.130000L1039.830000,707.130000L1039.830000,692.700000Z" fill="rgb(255,255,255)" stroke="none" stroke-width="1"/><path id="e4hYAG6L5vC119" d="M1064.900000,771.220000L1064.900000,744.570000L1117.160000,744.570000L1117.160000,731.180000L1064.900000,731.180000L1064.900000,706.480000L1119.370000,706.480000L1119.370000,692.700000L1046.830000,692.700000L1046.830000,785L1120.280000,785L1120.280000,771.220000L1064.900000,771.220000Z" fill="rgb(255,255,255)" stroke="none" stroke-width="1"/><path id="e4hYAG6L5vC120" d="M1134.410000,785L1176.790000,785C1206.300000,785,1226.190000,766.150000,1226.190000,738.070000C1226.190000,709.860000,1206.690000,692.700000,1176.920000,692.700000L1134.410000,692.700000L1134.410000,785ZM1152.480000,771.480000L1152.480000,706.220000L1175.360000,706.220000C1195.250000,706.220000,1207.340000,718.570000,1207.340000,738.200000C1207.340000,757.700000,1195.640000,771.480000,1175.620000,771.480000L1152.480000,771.480000Z" fill="rgb(255,255,255)" stroke="none" stroke-width="1"/></g><g id="e4hYAG6L5vC121" transform="matrix(1.33950265670476 0 0 1.33950265670476 -709.93248698178968 -235.89453263786868)" opacity="0"><path id="e4hYAG6L5vC122" d="M1053.480000,304.177000C1053.480000,290.394000,1062.670000,281,1077.540000,281C1089.760000,281,1097.410000,287.181000,1099.320000,296.947000L1090.500000,298.246000C1089.270000,291.756000,1084.640000,287.862000,1077.290000,287.862000C1067.980000,287.862000,1062.360000,294.229000,1062.360000,304.118000C1062.360000,313.698000,1067.980000,320.437000,1077.480000,320.437000C1084.450000,320.437000,1089.140000,316.791000,1090.740000,310.484000L1099.320000,312.152000C1096.730000,321.423000,1089.330000,327.358000,1077.230000,327.358000C1061.990000,327.358000,1053.480000,317.775000,1053.480000,304.177000Z" fill="rgb(255,255,255)" stroke="none" stroke-width="1"/><path id="e4hYAG6L5vC123" d="M1104.250000,317.775000C1104.250000,314.807000,1105.550000,312.335000,1108.020000,310.790000C1110.240000,309.368000,1113.320000,308.504000,1119.120000,307.946000L1130.160000,307.019000L1130.160000,306.337000C1130.160000,301.825000,1127.390000,299.725000,1122.210000,299.725000C1117.150000,299.725000,1114.060000,301.702000,1113.570000,305.350000L1105.240000,305.350000C1105.980000,298.612000,1112.460000,294.288000,1122.210000,294.288000C1133.130000,294.288000,1138.190000,298.492000,1138.190000,307.454000L1138.190000,316.170000C1138.190000,320.742000,1138.430000,323.650000,1138.990000,326.122000L1130.970000,326.122000C1130.660000,324.514000,1130.540000,322.477000,1130.470000,320.496000C1128.380000,324.637000,1123.560000,327.049000,1116.780000,327.049000C1109.130000,327.049000,1104.250000,323.524000,1104.250000,317.775000ZM1130.290000,313.080000L1130.290000,311.471000L1119.870000,312.521000C1114.500000,313.076000,1112.530000,314.498000,1112.530000,317.343000C1112.530000,320.124000,1115.060000,321.732000,1119.440000,321.732000C1125.850000,321.732000,1130.290000,318.333000,1130.290000,313.080000Z" fill="rgb(255,255,255)" stroke="none" stroke-width="1"/><path id="e4hYAG6L5vC124" d="M1148,295.216000L1155.710000,295.216000L1155.710000,301.828000C1158.180000,296.820000,1162.620000,294.225000,1168.790000,294.225000C1177.490000,294.225000,1182.060000,299.233000,1182.060000,308.750000L1182.060000,326.119000L1174.100000,326.119000L1174.100000,309.803000C1174.100000,303.623000,1171.380000,300.532000,1165.700000,300.532000C1159.660000,300.532000,1155.960000,304.427000,1155.960000,311.102000L1155.960000,326.122000L1147.990000,326.122000L1147.990000,295.216000L1148,295.216000Z" fill="rgb(255,255,255)" stroke="none" stroke-width="1"/><path id="e4hYAG6L5vC125" d="M1189.090000,317.775000C1189.090000,314.807000,1190.390000,312.335000,1192.860000,310.790000C1195.080000,309.368000,1198.160000,308.504000,1203.960000,307.946000L1215,307.019000L1215,306.337000C1215,301.825000,1212.230000,299.725000,1207.050000,299.725000C1201.990000,299.725000,1198.900000,301.702000,1198.410000,305.350000L1190.080000,305.350000C1190.820000,298.612000,1197.300000,294.288000,1207.050000,294.288000C1217.970000,294.288000,1223.020000,298.492000,1223.020000,307.454000L1223.020000,316.170000C1223.020000,320.742000,1223.270000,323.650000,1223.830000,326.122000L1215.810000,326.122000C1215.500000,324.514000,1215.380000,322.477000,1215.310000,320.496000C1213.220000,324.637000,1208.400000,327.049000,1201.620000,327.049000C1193.970000,327.049000,1189.090000,323.524000,1189.090000,317.775000ZM1215.130000,313.080000L1215.130000,311.471000L1204.700000,312.521000C1199.340000,313.076000,1197.360000,314.498000,1197.360000,317.343000C1197.360000,320.124000,1199.890000,321.732000,1204.270000,321.732000C1210.690000,321.732000,1215.130000,318.333000,1215.130000,313.080000Z" fill="rgb(255,255,255)" stroke="none" stroke-width="1"/><path id="e4hYAG6L5vC126" d="M1229.690000,310.667000C1229.690000,300.964000,1236.230000,294.288000,1245.730000,294.288000C1251.220000,294.288000,1255.230000,296.143000,1257.880000,299.974000L1257.880000,281.309000L1265.840000,281.309000L1265.840000,326.119000L1258.190000,326.119000L1258.190000,320.310000C1255.720000,324.574000,1251.280000,327.046000,1245.240000,327.046000C1236.100000,327.049000,1229.690000,320.433000,1229.690000,310.667000ZM1258.070000,311.471000L1258.070000,309.989000C1258.070000,303.995000,1253.940000,300.160000,1247.830000,300.160000C1241.660000,300.160000,1238.020000,304.054000,1238.020000,310.604000C1238.020000,317.153000,1241.840000,321.174000,1247.950000,321.174000C1254,321.178000,1258.070000,317.343000,1258.070000,311.471000Z" fill="rgb(255,255,255)" stroke="none" stroke-width="1"/><path id="e4hYAG6L5vC127" d="M1274.110000,317.775000C1274.110000,314.807000,1275.410000,312.335000,1277.870000,310.790000C1280.100000,309.368000,1283.180000,308.504000,1288.980000,307.946000L1300.020000,307.019000L1300.020000,306.337000C1300.020000,301.825000,1297.250000,299.725000,1292.060000,299.725000C1287.010000,299.725000,1283.920000,301.702000,1283.430000,305.350000L1275.100000,305.350000C1275.840000,298.612000,1282.320000,294.288000,1292.060000,294.288000C1302.980000,294.288000,1308.040000,298.492000,1308.040000,307.454000L1308.040000,316.170000C1308.040000,320.742000,1308.290000,323.650000,1308.850000,326.122000L1300.830000,326.122000C1300.520000,324.514000,1300.390000,322.477000,1300.330000,320.496000C1298.230000,324.637000,1293.420000,327.049000,1286.630000,327.049000C1278.990000,327.049000,1274.110000,323.524000,1274.110000,317.775000ZM1300.150000,313.080000L1300.150000,311.471000L1289.720000,312.521000C1284.360000,313.076000,1282.380000,314.498000,1282.380000,317.343000C1282.380000,320.124000,1284.910000,321.732000,1289.290000,321.732000C1295.710000,321.732000,1300.150000,318.333000,1300.150000,313.080000Z" fill="rgb(255,255,255)" stroke="none" stroke-width="1"/><path id="e4hYAG6L5vC128" d="M1316.380000,296.887000C1319.830000,295.837000,1320.750000,294.169000,1320.750000,291.387000L1320.750000,291.201000L1315.940000,291.201000L1315.940000,282.236000L1325.320000,282.236000L1325.320000,290.517000C1325.320000,295.707000,1323.410000,298.924000,1317.860000,300.469000L1316.380000,296.887000Z" fill="rgb(255,255,255)" stroke="none" stroke-width="1"/><path id="e4hYAG6L5vC129" d="M1329.830000,318.210000L1335.260000,315.183000C1337.480000,319.264000,1341.670000,321.487000,1348.210000,321.487000C1353.090000,321.487000,1355.490000,320.128000,1355.490000,317.532000C1355.490000,315.183000,1354.200000,314.196000,1350.560000,313.824000L1341.980000,313.083000C1334.830000,312.342000,1331.370000,309.129000,1331.370000,303.935000C1331.370000,297.817000,1336.930000,294.292000,1346.490000,294.292000C1354.510000,294.292000,1360.310000,297.136000,1362.780000,301.831000L1357.720000,305.045000C1355.440000,301.645000,1351.860000,299.731000,1346.060000,299.731000C1341.370000,299.731000,1338.840000,301.031000,1338.840000,303.503000C1338.840000,305.603000,1340.380000,306.716000,1343.840000,307.088000L1352.780000,307.893000C1360.070000,308.574000,1362.900000,311.724000,1362.900000,316.918000C1362.900000,323.221000,1357.840000,327.053000,1347.660000,327.053000C1338.770000,327.049000,1332.790000,323.959000,1329.830000,318.210000Z" fill="rgb(255,255,255)" stroke="none" stroke-width="1"/><path id="e4hYAG6L5vC130" d="M1065.880000,347.568000L1065.880000,359.434000L1090.680000,359.434000L1090.680000,365.987000L1065.880000,365.987000L1065.880000,384.838000L1057.300000,384.838000L1057.300000,340.952000L1091.730000,340.952000L1091.730000,347.565000L1065.880000,347.565000L1065.880000,347.568000Z" fill="rgb(255,255,255)" stroke="none" stroke-width="1"/><path id="e4hYAG6L5vC131" d="M1095.490000,369.383000C1095.490000,359.185000,1102.960000,353.005000,1113.940000,353.005000C1124.860000,353.005000,1132.330000,359.185000,1132.330000,369.383000C1132.330000,379.518000,1124.870000,385.762000,1113.940000,385.762000C1102.960000,385.765000,1095.490000,379.522000,1095.490000,369.383000ZM1124.060000,369.383000C1124.060000,362.585000,1120.170000,358.876000,1113.940000,358.876000C1107.650000,358.876000,1103.760000,362.585000,1103.760000,369.383000C1103.760000,376.122000,1107.650000,379.890000,1113.940000,379.890000C1120.170000,379.894000,1124.060000,376.122000,1124.060000,369.383000Z" fill="rgb(255,255,255)" stroke="none" stroke-width="1"/><path id="e4hYAG6L5vC132" d="M1158.550000,353.131000C1159.410000,353.131000,1160.030000,353.194000,1160.770000,353.317000L1160.770000,360.671000C1159.970000,360.548000,1159.230000,360.485000,1158.370000,360.485000C1154.790000,360.485000,1152.440000,361.412000,1150.780000,363.080000C1148.310000,365.552000,1147.760000,369.074000,1147.760000,372.783000L1147.760000,384.835000L1139.790000,384.835000L1139.790000,353.932000L1147.080000,353.932000L1147.080000,362.030000C1148.680000,356.713000,1152.750000,353.131000,1158.550000,353.131000Z" fill="rgb(255,255,255)" stroke="none" stroke-width="1"/><path id="e4hYAG6L5vC133" d="M1198.530000,371.364000L1170.950000,371.364000C1171.260000,376.558000,1175.270000,379.894000,1181.690000,379.894000C1186.370000,379.894000,1189.890000,377.976000,1191.800000,374.517000L1198.040000,377.362000C1194.950000,382.801000,1189.210000,385.769000,1181.380000,385.769000C1170.090000,385.769000,1163.180000,379.897000,1163.180000,369.699000C1163.180000,359.192000,1170.150000,353.011000,1181.070000,353.011000C1192.110000,353.011000,1198.530000,358.637000,1198.530000,368.526000L1198.530000,371.364000L1198.530000,371.364000ZM1190.630000,366.047000C1190.570000,360.980000,1186.680000,358.075000,1180.950000,358.075000C1174.960000,358.075000,1171.260000,361.229000,1170.950000,366.360000L1190.630000,366.360000L1190.630000,366.047000Z" fill="rgb(255,255,255)" stroke="none" stroke-width="1"/><path id="e4hYAG6L5vC134" d="M1202.790000,376.926000L1208.220000,373.899000C1210.440000,377.980000,1214.630000,380.203000,1221.170000,380.203000C1226.050000,380.203000,1228.460000,378.844000,1228.460000,376.249000C1228.460000,373.899000,1227.160000,372.912000,1223.520000,372.540000L1214.940000,371.799000C1207.790000,371.058000,1204.330000,367.845000,1204.330000,362.651000C1204.330000,356.534000,1209.890000,353.008000,1219.450000,353.008000C1227.470000,353.008000,1233.270000,355.852000,1235.740000,360.548000L1230.680000,363.761000C1228.400000,360.362000,1224.820000,358.448000,1219.020000,358.448000C1214.330000,358.448000,1211.800000,359.747000,1211.800000,362.219000C1211.800000,364.319000,1213.350000,365.432000,1216.800000,365.805000L1225.750000,366.609000C1233.030000,367.290000,1235.860000,370.440000,1235.860000,375.634000C1235.860000,381.937000,1230.800000,385.772000,1220.620000,385.772000C1211.730000,385.765000,1205.750000,382.675000,1202.790000,376.926000Z" fill="rgb(255,255,255)" stroke="none" stroke-width="1"/><path id="e4hYAG6L5vC135" d="M1238.760000,353.932000L1245.920000,353.932000L1245.920000,346.206000L1253.870000,343.116000L1253.870000,353.932000L1264.360000,353.932000L1264.360000,359.557000L1253.870000,359.557000L1253.870000,373.092000C1253.870000,377.046000,1255.790000,378.840000,1259.800000,378.840000C1261.590000,378.840000,1263.070000,378.595000,1264.360000,378.285000L1264.360000,384.652000C1262.630000,385.147000,1260.480000,385.516000,1257.820000,385.516000C1249,385.516000,1245.910000,381.127000,1245.910000,374.328000L1245.910000,359.557000L1238.760000,359.557000L1238.760000,353.932000L1238.760000,353.932000Z" fill="rgb(255,255,255)" stroke="none" stroke-width="1"/><path id="e4hYAG6L5vC136" d="M1092.290000,406.530000L1076.430000,406.530000L1076.430000,443.554000L1067.860000,443.554000L1067.860000,406.530000L1052,406.530000L1052,399.668000L1092.290000,399.668000L1092.290000,406.530000L1092.290000,406.530000Z" fill="rgb(255,255,255)" stroke="none" stroke-width="1"/><path id="e4hYAG6L5vC137" d="M1113.140000,411.847000C1114,411.847000,1114.620000,411.910000,1115.360000,412.033000L1115.360000,419.387000C1114.560000,419.264000,1113.820000,419.201000,1112.960000,419.201000C1109.380000,419.201000,1107.030000,420.128000,1105.370000,421.796000C1102.900000,424.268000,1102.350000,427.790000,1102.350000,431.499000L1102.350000,443.551000L1094.390000,443.551000L1094.390000,412.648000L1101.670000,412.648000L1101.670000,420.746000C1103.270000,415.432000,1107.340000,411.847000,1113.140000,411.847000Z" fill="rgb(255,255,255)" stroke="none" stroke-width="1"/><path id="e4hYAG6L5vC138" d="M1120.790000,431.007000L1120.790000,412.651000L1128.750000,412.651000L1128.750000,429.648000C1128.750000,435.952000,1132.140000,438.364000,1136.580000,438.364000C1143.130000,438.364000,1146.400000,433.665000,1146.400000,428.166000L1146.400000,412.651000L1154.350000,412.651000L1154.350000,443.555000L1146.640000,443.555000L1146.640000,437.002000C1144.670000,441.700000,1139.800000,444.482000,1134.060000,444.482000C1125.050000,444.482000,1120.790000,439.597000,1120.790000,431.007000Z" fill="rgb(255,255,255)" stroke="none" stroke-width="1"/><path id="e4hYAG6L5vC139" d="M1161.510000,435.643000L1166.940000,432.615000C1169.160000,436.696000,1173.360000,438.919000,1179.900000,438.919000C1184.770000,438.919000,1187.180000,437.560000,1187.180000,434.965000C1187.180000,432.615000,1185.880000,431.628000,1182.240000,431.256000L1173.670000,430.515000C1166.510000,429.774000,1163.060000,426.561000,1163.060000,421.367000C1163.060000,415.250000,1168.610000,411.724000,1178.170000,411.724000C1186.190000,411.724000,1191.990000,414.569000,1194.460000,419.264000L1189.410000,422.477000C1187.120000,419.078000,1183.540000,417.164000,1177.750000,417.164000C1173.060000,417.164000,1170.530000,418.463000,1170.530000,420.935000C1170.530000,423.035000,1172.070000,424.149000,1175.520000,424.521000L1184.470000,425.325000C1191.750000,426.006000,1194.590000,429.156000,1194.590000,434.350000C1194.590000,440.654000,1189.530000,444.485000,1179.350000,444.485000C1170.460000,444.482000,1164.470000,441.391000,1161.510000,435.643000Z" fill="rgb(255,255,255)" stroke="none" stroke-width="1"/><path id="e4hYAG6L5vC140" d="M1197.480000,412.651000L1204.640000,412.651000L1204.640000,404.925000L1212.600000,401.835000L1212.600000,412.651000L1223.090000,412.651000L1223.090000,418.277000L1212.600000,418.277000L1212.600000,431.811000C1212.600000,435.765000,1214.510000,437.560000,1218.520000,437.560000C1220.310000,437.560000,1221.790000,437.314000,1223.090000,437.005000L1223.090000,443.372000C1221.360000,443.867000,1219.200000,444.236000,1216.550000,444.236000C1207.730000,444.236000,1204.640000,439.846000,1204.640000,433.047000L1204.640000,418.277000L1197.480000,418.277000L1197.480000,412.651000Z" fill="rgb(255,255,255)" stroke="none" stroke-width="1"/></g><script><![CDATA[!function(t,n){"object"==typeof exports&&"undefined"!=typeof module?module.exports=n():"function"==typeof define&&define.amd?define(n):(t="undefined"!=typeof globalThis?globalThis:t||self).__SVGATOR_PLAYER__=n()}(this,(function(){"use strict";function t(n){return(t="function"==typeof Symbol&&"symbol"==typeof Symbol.iterator?function(t){return typeof t}:function(t){return t&&"function"==typeof Symbol&&t.constructor===Symbol&&t!==Symbol.prototype?"symbol":typeof t})(n)}function n(t,n){if(!(t instanceof n))throw new TypeError("Cannot call a class as a function")}function e(t,n){for(var e=0;e<n.length;e++){var r=n[e];r.enumerable=r.enumerable||!1,r.configurable=!0,"value"in r&&(r.writable=!0),Object.defineProperty(t,r.key,r)}}function r(t,n,r){return n&&e(t.prototype,n),r&&e(t,r),t}function i(t){return(i=Object.setPrototypeOf?Object.getPrototypeOf:function(t){return t.__proto__||Object.getPrototypeOf(t)})(t)}function u(t,n){return(u=Object.setPrototypeOf||function(t,n){return t.__proto__=n,t})(t,n)}function o(t,n){return!n||"object"!=typeof n&&"function"!=typeof n?function(t){if(void 0===t)throw new ReferenceError("this hasn't been initialised - super() hasn't been called");return t}(t):n}function a(t){var n=function(){if("undefined"==typeof Reflect||!Reflect.construct)return!1;if(Reflect.construct.sham)return!1;if("function"==typeof Proxy)return!0;try{return Boolean.prototype.valueOf.call(Reflect.construct(Boolean,[],(function(){}))),!0}catch(t){return!1}}();return function(){var e,r=i(t);if(n){var u=i(this).constructor;e=Reflect.construct(r,arguments,u)}else e=r.apply(this,arguments);return o(this,e)}}function l(t,n,e){return(l="undefined"!=typeof Reflect&&Reflect.get?Reflect.get:function(t,n,e){var r=function(t,n){for(;!Object.prototype.hasOwnProperty.call(t,n)&&null!==(t=i(t)););return t}(t,n);if(r){var u=Object.getOwnPropertyDescriptor(r,n);return u.get?u.get.call(e):u.value}})(t,n,e||t)}var s=Math.abs;function f(t){return t}function c(t,n,e){var r=1-e;return 3*e*r*(t*r+n*e)+e*e*e}function h(){var t=arguments.length>0&&void 0!==arguments[0]?arguments[0]:0,n=arguments.length>1&&void 0!==arguments[1]?arguments[1]:0,e=arguments.length>2&&void 0!==arguments[2]?arguments[2]:1,r=arguments.length>3&&void 0!==arguments[3]?arguments[3]:1;return t<0||t>1||e<0||e>1?null:s(t-n)<=1e-5&&s(e-r)<=1e-5?f:function(i){if(i<=0)return t>0?i*n/t:0===n&&e>0?i*r/e:0;if(i>=1)return e<1?1+(i-1)*(r-1)/(e-1):1===e&&t<1?1+(i-1)*(n-1)/(t-1):1;for(var u,o=0,a=1;o<a;){var l=c(t,e,u=(o+a)/2);if(s(i-l)<1e-5)break;l<i?o=u:a=u}return c(n,r,u)}}function v(){return 1}function d(t){return 1===t?1:0}function y(){var t=arguments.length>0&&void 0!==arguments[0]?arguments[0]:1,n=arguments.length>1&&void 0!==arguments[1]?arguments[1]:0;if(1===t){if(0===n)return d;if(1===n)return v}var e=1/t;return function(t){return t>=1?1:(t+=n*e)-t%e}}function g(t){var n=arguments.length>1&&void 0!==arguments[1]?arguments[1]:2;if(Number.isInteger(t))return t;var e=Math.pow(10,n);return Math.round(t*e)/e}var p=Math.PI/180;function m(t,n,e){return t>=.5?e:n}function b(t,n,e){return 0===t||n===e?n:t*(e-n)+n}function w(t,n,e){var r=b(t,n,e);return r<=0?0:r}function x(t,n,e){return 0===t?n:1===t?e:{x:b(t,n.x,e.x),y:b(t,n.y,e.y)}}function A(t,n,e){return 0===t?n:1===t?e:{x:w(t,n.x,e.x),y:w(t,n.y,e.y)}}function k(t,n,e){var r=function(t,n,e){return Math.round(b(t,n,e))}(t,n,e);return r<=0?0:r>=255?255:r}function _(t,n,e){return 0===t?n:1===t?e:{r:k(t,n.r,e.r),g:k(t,n.g,e.g),b:k(t,n.b,e.b),a:b(t,null==n.a?1:n.a,null==e.a?1:e.a)}}function S(t,n,e){if(0===t)return n;if(1===t)return e;var r=n.length;if(r!==e.length)return m(t,n,e);for(var i=[],u=0;u<r;u++)i.push(_(t,n[u],e[u]));return i}function M(t,n,e){var r=n.length;if(r!==e.length)return m(t,n,e);for(var i=new Array(r),u=0;u<r;u++)i[u]=b(t,n[u],e[u]);return i}function O(t,n){for(var e=[],r=0;r<t;r++)e.push(n);return e}function E(t,n){if(--n<=0)return t;var e=(t=Object.assign([],t)).length;do{for(var r=0;r<e;r++)t.push(t[r])}while(--n>0);return t}var B,I=function(){function t(e){n(this,t),this.list=e,this.length=e.length}return r(t,[{key:"setAttribute",value:function(t,n){for(var e=this.list,r=0;r<this.length;r++)e[r].setAttribute(t,n)}},{key:"removeAttribute",value:function(t){for(var n=this.list,e=0;e<this.length;e++)n[e].removeAttribute(t)}},{key:"style",value:function(t,n){for(var e=this.list,r=0;r<this.length;r++)e[r].style[t]=n}}]),t}(),j=/-./g,P=function(t,n){return n.toUpperCase()};function T(t){return"function"==typeof t?t:m}function F(t){return t?"function"==typeof t?t:Array.isArray(t)?function(t){var n=arguments.length>1&&void 0!==arguments[1]?arguments[1]:f;if(!Array.isArray(t))return n;switch(t.length){case 1:return y(t[0])||n;case 2:return y(t[0],t[1])||n;case 4:return h(t[0],t[1],t[2],t[3])||n}return n}(t,null):function(t,n){var e=arguments.length>2&&void 0!==arguments[2]?arguments[2]:f;switch(t){case"linear":return f;case"steps":return y(n.steps||1,n.jump||0)||e;case"bezier":case"cubic-bezier":return h(n.x1||0,n.y1||0,n.x2||0,n.y2||0)||e}return e}(t.type,t.value,null):null}function R(t,n,e){var r=arguments.length>3&&void 0!==arguments[3]&&arguments[3],i=n.length-1;if(t<=n[0].t)return r?[0,0,n[0].v]:n[0].v;if(t>=n[i].t)return r?[i,1,n[i].v]:n[i].v;var u,o=n[0],a=null;for(u=1;u<=i;u++){if(!(t>n[u].t)){a=n[u];break}o=n[u]}return null==a?r?[i,1,n[i].v]:n[i].v:o.t===a.t?r?[u,1,a.v]:a.v:(t=(t-o.t)/(a.t-o.t),o.e&&(t=o.e(t)),r?[u,t,e(t,o.v,a.v)]:e(t,o.v,a.v))}function C(t,n){var e=arguments.length>2&&void 0!==arguments[2]?arguments[2]:null;return t&&t.length?"function"!=typeof n?null:("function"!=typeof e&&(e=null),function(r){var i=R(r,t,n);return null!=i&&e&&(i=e(i)),i}):null}function N(t,n){return t.t-n.t}function q(n,e,r,i,u){var o,a="@"===r[0],l="#"===r[0],s=B[r],f=m;switch(a?(o=r.substr(1),r=o.replace(j,P)):l&&(r=r.substr(1)),t(s)){case"function":if(f=s(i,u,R,F,r,a,e,n),l)return f;break;case"string":f=C(i,T(s));break;case"object":if((f=C(i,T(s.i),s.f))&&"function"==typeof s.u)return s.u(e,f,r,a,n)}return f?function(t,n,e){var r=arguments.length>3&&void 0!==arguments[3]&&arguments[3];if(r)return t instanceof I?function(r){return t.style(n,e(r))}:function(r){return t.style[n]=e(r)};if(Array.isArray(n)){var i=n.length;return function(r){var u=e(r);if(null==u)for(var o=0;o<i;o++)t[o].removeAttribute(n);else for(var a=0;a<i;a++)t[a].setAttribute(n,u)}}return function(r){var i=e(r);null==i?t.removeAttribute(n):t.setAttribute(n,i)}}(e,r,f,a):null}function V(n,e,r,i){if(!i||"object"!==t(i))return null;var u=null,o=null;return Array.isArray(i)?o=function(t){if(!t||!t.length)return null;for(var n=0;n<t.length;n++)t[n].e&&(t[n].e=F(t[n].e));return t.sort(N)}(i):(o=i.keys,u=i.data||null),o?q(n,e,r,o,u):null}function L(t,n,e){if(!e)return null;var r=[];for(var i in e)if(e.hasOwnProperty(i)){var u=V(t,n,i,e[i]);u&&r.push(u)}return r.length?r:null}function z(t,n){if(!n.duration||n.duration<0)return null;var e=function(t,n){if(!n)return null;var e=[];if(Array.isArray(n))for(var r=n.length,i=0;i<r;i++){var u=n[i];if(2===u.length){var o=null;if("string"==typeof u[0])o=t.getElementById(u[0]);else if(Array.isArray(u[0])){o=[];for(var a=0;a<u[0].length;a++)if("string"==typeof u[0][a]){var l=t.getElementById(u[0][a]);l&&o.push(l)}o=o.length?1===o.length?o[0]:new I(o):null}if(o){var s=L(t,o,u[1]);s&&(e=e.concat(s))}}}else for(var f in n)if(n.hasOwnProperty(f)){var c=t.getElementById(f);if(c){var h=L(t,c,n[f]);h&&(e=e.concat(h))}}return e.length?e:null}(t,n.elements);return e?function(t,n){var e=arguments.length>2&&void 0!==arguments[2]?arguments[2]:1/0,r=arguments.length>3&&void 0!==arguments[3]?arguments[3]:1,i=arguments.length>4&&void 0!==arguments[4]&&arguments[4],u=arguments.length>5&&void 0!==arguments[5]?arguments[5]:1,o=t.length,a=r>0?n:0;i&&e%2==0&&(a=n-a);var l=null;return function(s,f){var c=s%n,h=1+(s-c)/n;f*=r,i&&h%2==0&&(f=-f);var v=!1;if(h>e)c=a,v=!0,-1===u&&(c=r>0?0:n);else if(f<0&&(c=n-c),c===l)return!1;l=c;for(var d=0;d<o;d++)t[d](c);return v}}(e,n.duration,n.iterations||1/0,n.direction||1,!!n.alternate,n.fill||1):null}var D=function(){function t(e,r){var i=arguments.length>2&&void 0!==arguments[2]?arguments[2]:{};n(this,t),this._id=0,this._running=!1,this._rollingBack=!1,this._animations=e,this.duration=r.duration,this.alternate=r.alternate,this.fill=r.fill,this.iterations=r.iterations,this.direction=i.direction||1,this.speed=i.speed||1,this.fps=i.fps||100,this.offset=i.offset||0,this.rollbackStartOffset=0}return r(t,[{key:"_rollback",value:function(){var t=this,n=1/0,e=null;this.rollbackStartOffset=this.offset,this._rollingBack||(this._rollingBack=!0,this._running=!0);this._id=window.requestAnimationFrame((function r(i){if(t._rollingBack){null==e&&(e=i);var u=i-e,o=t.rollbackStartOffset-u,a=Math.round(o*t.speed);if(a>t.duration&&n!=1/0){var l=!!t.alternate&&a/t.duration%2>1,s=a%t.duration;a=(s+=l?t.duration:0)||t.duration}var f=t.fps?1e3/t.fps:0,c=Math.max(0,a);if(c<n-f){t.offset=c,n=c;for(var h=t._animations,v=h.length,d=0;d<v;d++)h[d](c,t.direction)}var y=!1;if(t.iterations>0&&-1===t.fill){var g=t.iterations*t.duration,p=g==a;a=p?0:a,t.offset=p?0:t.offset,y=a>g}a>0&&t.offset>=a&&!y?t._id=window.requestAnimationFrame(r):t.stop()}}))}},{key:"_start",value:function(){var t=this,n=arguments.length>0&&void 0!==arguments[0]?arguments[0]:0,e=-1/0,r=null,i={},u=function u(o){t._running=!0,null==r&&(r=o);var a=Math.round((o-r+n)*t.speed),l=t.fps?1e3/t.fps:0;if(a>e+l&&!t._rollingBack){t.offset=a,e=a;for(var s=t._animations,f=s.length,c=0,h=0;h<f;h++)i[h]?c++:(i[h]=s[h](a,t.direction),i[h]&&c++);if(c===f)return void t._stop()}t._id=window.requestAnimationFrame(u)};this._id=window.requestAnimationFrame(u)}},{key:"_stop",value:function(){this._id&&window.cancelAnimationFrame(this._id),this._running=!1,this._rollingBack=!1}},{key:"play",value:function(){!this._rollingBack&&this._running||(this._rollingBack=!1,this.rollbackStartOffset>this.duration&&(this.offset=this.rollbackStartOffset-(this.rollbackStartOffset-this.offset)%this.duration,this.rollbackStartOffset=0),this._start(this.offset))}},{key:"stop",value:function(){this._stop(),this.offset=0,this.rollbackStartOffset=0;var t=this.direction,n=this._animations;window.requestAnimationFrame((function(){for(var e=0;e<n.length;e++)n[e](0,t)}))}},{key:"reachedToEnd",value:function(){return this.iterations>0&&this.offset>=this.iterations*this.duration}},{key:"restart",value:function(){this._stop(),this.offset=0,this._start()}},{key:"pause",value:function(){this._stop()}},{key:"reverse",value:function(){this.direction=-this.direction}}],[{key:"build",value:function(n,e){return(n=function(t,n){if(B=n,!t||!t.root||!Array.isArray(t.animations))return null;for(var e=document.getElementsByTagName("svg"),r=!1,i=0;i<e.length;i++)if(e[i].id===t.root&&!e[i].svgatorAnimation){(r=e[i]).svgatorAnimation=!0;break}if(!r)return null;var u=t.animations.map((function(t){return z(r,t)})).filter((function(t){return!!t}));return u.length?{element:r,animations:u,animationSettings:t.animationSettings,options:t.options||void 0}:null}(n,e))?{el:n.element,options:n.options||{},player:new t(n.animations,n.animationSettings,n.options)}:null}}]),t}();!function(){for(var t=0,n=["ms","moz","webkit","o"],e=0;e<n.length&&!window.requestAnimationFrame;++e)window.requestAnimationFrame=window[n[e]+"RequestAnimationFrame"],window.cancelAnimationFrame=window[n[e]+"CancelAnimationFrame"]||window[n[e]+"CancelRequestAnimationFrame"];window.requestAnimationFrame||(window.requestAnimationFrame=function(n){var e=Date.now(),r=Math.max(0,16-(e-t)),i=window.setTimeout((function(){n(e+r)}),r);return t=e+r,i},window.cancelAnimationFrame=window.clearTimeout)}();var U=function(t,n){var e=!1,r=null;return function(i){e&&clearTimeout(e),e=setTimeout((function(){return function(){for(var i=0,u=window.innerHeight,o=0,a=window.innerWidth,l=t.parentNode;l instanceof Element;){var s=window.getComputedStyle(l);if("visible"!==s.overflowY||"visible"!==s.overflowX){var f=l.getBoundingClientRect();"visible"!==s.overflowY&&(i=Math.max(i,f.top),u=Math.min(u,f.bottom)),"visible"!==s.overflowX&&(o=Math.max(o,f.left),a=Math.min(a,f.right))}if(l===l.parentNode)break;l=l.parentNode}e=!1;var c=t.getBoundingClientRect(),h=Math.min(c.height,Math.max(0,i-c.top)),v=Math.min(c.height,Math.max(0,c.bottom-u)),d=Math.min(c.width,Math.max(0,o-c.left)),y=Math.min(c.width,Math.max(0,c.right-a)),g=(c.height-h-v)/c.height,p=(c.width-d-y)/c.width,m=Math.round(g*p*100);null!==r&&r===m||(r=m,n(m))}()}),100)}},W=function(){function t(e,r,i){n(this,t),r=Math.max(1,r||1),r=Math.min(r,100),this.el=e,this.onTresholdChange=i&&i.call?i:function(){},this.tresholdPercent=r||1,this.currentVisibility=null,this.visibilityCalculator=U(e,this.onVisibilityUpdate.bind(this)),this.bindScrollWatchers(),this.visibilityCalculator()}return r(t,[{key:"bindScrollWatchers",value:function(){for(var t=this.el.parentNode;t&&(t.addEventListener("scroll",this.visibilityCalculator),t!==t.parentNode&&t!==document);)t=t.parentNode}},{key:"onVisibilityUpdate",value:function(t){var n=this.currentVisibility>=this.tresholdPercent,e=t>=this.tresholdPercent;if(null===this.currentVisibility||n!==e)return this.currentVisibility=t,void this.onTresholdChange(e);this.currentVisibility=t}}]),t}(),Y=/\.0+$/g;function G(t){return Number.isInteger(t)?t+"":t.toFixed(6).replace(Y,"")}function H(t){var n=arguments.length>1&&void 0!==arguments[1]?arguments[1]:" ";return t&&t.length?t.map(G).join(n):""}function Q(t){return G(t.x)+","+G(t.y)}function X(t){return t?null==t.a||t.a>=1?"rgb("+t.r+","+t.g+","+t.b+")":"rgba("+t.r+","+t.g+","+t.b+","+t.a+")":"transparent"}var $={f:null,i:A,u:function(t,n){return function(e){var r=n(e);t.setAttribute("rx",G(r.x)),t.setAttribute("ry",G(r.y))}}},Z={f:null,i:function(t,n,e){return 0===t?n:1===t?e:{width:w(t,n.width,e.width),height:w(t,n.height,e.height)}},u:function(t,n){return function(e){var r=n(e);t.setAttribute("width",G(r.width)),t.setAttribute("height",G(r.height))}}},J=Math.sin,K=Math.cos,tt=Math.acos,nt=Math.asin,et=Math.tan,rt=Math.atan2,it=Math.PI/180,ut=180/Math.PI,ot=Math.sqrt,at=function(){function t(){var e=arguments.length>0&&void 0!==arguments[0]?arguments[0]:1,r=arguments.length>1&&void 0!==arguments[1]?arguments[1]:0,i=arguments.length>2&&void 0!==arguments[2]?arguments[2]:0,u=arguments.length>3&&void 0!==arguments[3]?arguments[3]:1,o=arguments.length>4&&void 0!==arguments[4]?arguments[4]:0,a=arguments.length>5&&void 0!==arguments[5]?arguments[5]:0;n(this,t),this.m=[e,r,i,u,o,a],this.i=null,this.w=null,this.s=null}return r(t,[{key:"determinant",get:function(){var t=this.m;return t[0]*t[3]-t[1]*t[2]}},{key:"isIdentity",get:function(){if(null===this.i){var t=this.m;this.i=1===t[0]&&0===t[1]&&0===t[2]&&1===t[3]&&0===t[4]&&0===t[5]}return this.i}},{key:"point",value:function(t,n){var e=this.m;return{x:e[0]*t+e[2]*n+e[4],y:e[1]*t+e[3]*n+e[5]}}},{key:"translateSelf",value:function(){var t=arguments.length>0&&void 0!==arguments[0]?arguments[0]:0,n=arguments.length>1&&void 0!==arguments[1]?arguments[1]:0;if(!t&&!n)return this;var e=this.m;return e[4]+=e[0]*t+e[2]*n,e[5]+=e[1]*t+e[3]*n,this.w=this.s=this.i=null,this}},{key:"rotateSelf",value:function(){var t=arguments.length>0&&void 0!==arguments[0]?arguments[0]:0;if(t%=360){var n=J(t*=it),e=K(t),r=this.m,i=r[0],u=r[1];r[0]=i*e+r[2]*n,r[1]=u*e+r[3]*n,r[2]=r[2]*e-i*n,r[3]=r[3]*e-u*n,this.w=this.s=this.i=null}return this}},{key:"scaleSelf",value:function(){var t=arguments.length>0&&void 0!==arguments[0]?arguments[0]:1,n=arguments.length>1&&void 0!==arguments[1]?arguments[1]:1;if(1!==t||1!==n){var e=this.m;e[0]*=t,e[1]*=t,e[2]*=n,e[3]*=n,this.w=this.s=this.i=null}return this}},{key:"skewSelf",value:function(t,n){if(n%=360,(t%=360)||n){var e=this.m,r=e[0],i=e[1],u=e[2],o=e[3];t&&(t=et(t*it),e[2]+=r*t,e[3]+=i*t),n&&(n=et(n*it),e[0]+=u*n,e[1]+=o*n),this.w=this.s=this.i=null}return this}},{key:"resetSelf",value:function(){var t=arguments.length>0&&void 0!==arguments[0]?arguments[0]:1,n=arguments.length>1&&void 0!==arguments[1]?arguments[1]:0,e=arguments.length>2&&void 0!==arguments[2]?arguments[2]:0,r=arguments.length>3&&void 0!==arguments[3]?arguments[3]:1,i=arguments.length>4&&void 0!==arguments[4]?arguments[4]:0,u=arguments.length>5&&void 0!==arguments[5]?arguments[5]:0,o=this.m;return o[0]=t,o[1]=n,o[2]=e,o[3]=r,o[4]=i,o[5]=u,this.w=this.s=this.i=null,this}},{key:"recomposeSelf",value:function(){var t=arguments.length>0&&void 0!==arguments[0]?arguments[0]:null,n=arguments.length>1&&void 0!==arguments[1]?arguments[1]:null,e=arguments.length>2&&void 0!==arguments[2]?arguments[2]:null,r=arguments.length>3&&void 0!==arguments[3]?arguments[3]:null,i=arguments.length>4&&void 0!==arguments[4]?arguments[4]:null;return this.isIdentity||this.resetSelf(),t&&(t.x||t.y)&&this.translateSelf(t.x,t.y),n&&this.rotateSelf(n),e&&(e.x&&this.skewSelf(e.x,0),e.y&&this.skewSelf(0,e.y)),!r||1===r.x&&1===r.y||this.scaleSelf(r.x,r.y),i&&(i.x||i.y)&&this.translateSelf(i.x,i.y),this}},{key:"decompose",value:function(){var t=arguments.length>0&&void 0!==arguments[0]?arguments[0]:0,n=arguments.length>1&&void 0!==arguments[1]?arguments[1]:0,e=this.m,r=e[0]*e[0]+e[1]*e[1],i=[[e[0],e[1]],[e[2],e[3]]],u=ot(r);if(0===u)return{origin:{x:e[4],y:e[5]},translate:{x:t,y:n},scale:{x:0,y:0},skew:{x:0,y:0},rotate:0};i[0][0]/=u,i[0][1]/=u;var o=e[0]*e[3]-e[1]*e[2]<0;o&&(u=-u);var a=i[0][0]*i[1][0]+i[0][1]*i[1][1];i[1][0]-=i[0][0]*a,i[1][1]-=i[0][1]*a;var l=ot(i[1][0]*i[1][0]+i[1][1]*i[1][1]);if(0===l)return{origin:{x:e[4],y:e[5]},translate:{x:t,y:n},scale:{x:u,y:0},skew:{x:0,y:0},rotate:0};i[1][0]/=l,i[1][1]/=l,a/=l;var s=0;return i[1][1]<0?(s=tt(i[1][1])*ut,i[0][1]<0&&(s=360-s)):s=nt(i[0][1])*ut,o&&(s=-s),a=rt(a,ot(i[0][0]*i[0][0]+i[0][1]*i[0][1]))*ut,o&&(a=-a),{origin:{x:e[4],y:e[5]},translate:{x:t,y:n},scale:{x:u,y:l},skew:{x:a,y:0},rotate:s}}},{key:"toString",value:function(){return null===this.s&&(this.s="matrix("+this.m.map(st).join(" ")+")"),this.s}}]),t}(),lt=/\.0+$/;function st(t){return Number.isInteger(t)?t:t.toFixed(14).replace(lt,"")}Object.freeze({M:2,L:2,Z:0,H:1,V:1,C:6,Q:4,T:2,S:4,A:7});var ft={},ct=null;function ht(n){var e=function(){if(ct)return ct;if("object"!==("undefined"==typeof document?"undefined":t(document)))return{};var n=document.createElementNS("http://www.w3.org/2000/svg","svg");return n.style.position="absolute",n.style.opacity="0.01",n.style.zIndex="-9999",n.style.left="-9999px",n.style.width="1px",n.style.height="1px",ct={svg:n}}().svg;if(!e)return function(t){return null};var r=document.createElementNS(e.namespaceURI,"path");r.setAttributeNS(null,"d",n),r.setAttributeNS(null,"fill","none"),r.setAttributeNS(null,"stroke","none"),e.appendChild(r);var i=r.getTotalLength();return function(t){var n=r.getPointAtLength(i*t);return{x:n.x,y:n.y}}}function vt(t){return ft[t]?ft[t]:ft[t]=ht(t)}function dt(t,n,e,r){if(!t||!r)return!1;var i=["M",t.x,t.y];if(n&&e&&(i.push("C"),i.push(n.x),i.push(n.y),i.push(e.x),i.push(e.y)),n?!e:e){var u=n||e;i.push("Q"),i.push(u.x),i.push(u.y)}return n||e||i.push("L"),i.push(r.x),i.push(r.y),i.join(" ")}function yt(t,n,e,r){var i=arguments.length>4&&void 0!==arguments[4]?arguments[4]:1,u=dt(t,n,e,r),o=vt(u);try{return o(i)}catch(t){return null}}function gt(t,n,e,r){var i=1-r;return i*i*t+2*i*r*n+r*r*e}function pt(t,n,e,r){return 2*(1-r)*(n-t)+2*r*(e-n)}function mt(t,n,e,r){var i=arguments.length>4&&void 0!==arguments[4]&&arguments[4],u=yt(t,n,null,e,r);return u||(u={x:gt(t.x,n.x,e.x,r),y:gt(t.y,n.y,e.y,r)}),i&&(u.a=bt(t,n,e,r)),u}function bt(t,n,e,r){return Math.atan2(pt(t.y,n.y,e.y,r),pt(t.x,n.x,e.x,r))}function wt(t,n,e,r,i){var u=i*i;return i*u*(r-t+3*(n-e))+3*u*(t+e-2*n)+3*i*(n-t)+t}function xt(t,n,e,r,i){var u=1-i;return 3*(u*u*(n-t)+2*u*i*(e-n)+i*i*(r-e))}function At(t,n,e,r,i){var u=arguments.length>5&&void 0!==arguments[5]&&arguments[5],o=yt(t,n,e,r,i);return o||(o={x:wt(t.x,n.x,e.x,r.x,i),y:wt(t.y,n.y,e.y,r.y,i)}),u&&(o.a=kt(t,n,e,r,i)),o}function kt(t,n,e,r,i){return Math.atan2(xt(t.y,n.y,e.y,r.y,i),xt(t.x,n.x,e.x,r.x,i))}function _t(t,n,e){return t+(n-t)*e}function St(t,n,e){var r=arguments.length>3&&void 0!==arguments[3]&&arguments[3],i={x:_t(t.x,n.x,e),y:_t(t.y,n.y,e)};return r&&(i.a=Mt(t,n)),i}function Mt(t,n){return Math.atan2(n.y-t.y,n.x-t.x)}function Ot(t,n,e){var r=arguments.length>3&&void 0!==arguments[3]&&arguments[3];if(Bt(n)){if(It(e))return mt(n,e.start,e,t,r)}else if(Bt(e)){if(n.end)return mt(n,n.end,e,t,r)}else{if(n.end)return e.start?At(n,n.end,e.start,e,t,r):mt(n,n.end,e,t,r);if(e.start)return mt(n,e.start,e,t,r)}return St(n,e,t,r)}function Et(t,n,e){var r=Ot(t,n,e,!0);return r.a=function(t){var n=arguments.length>1&&void 0!==arguments[1]&&arguments[1];return n?t+Math.PI:t}(r.a)/p,r}function Bt(t){return!t.type||"corner"===t.type}function It(t){return null!=t.start&&!Bt(t)}var jt=new at;var Pt={f:function(t){return t?t.join(" "):""},i:function(n,e,r){if(0===n)return e;if(1===n)return r;var i=e.length;if(i!==r.length)return m(n,e,r);for(var u,o=new Array(i),a=0;a<i;a++){if((u=t(e[a]))!==t(r[a]))return m(n,e,r);if("number"===u)o[a]=b(n,e[a],r[a]);else{if(e[a]!==r[a])return m(n,e,r);o[a]=e[a]}}return o}},Tt={f:null,i:M,u:function(t,n){return function(e){var r=n(e);t.setAttribute("x1",G(r[0])),t.setAttribute("y1",G(r[1])),t.setAttribute("x2",G(r[2])),t.setAttribute("y2",G(r[3]))}}},Ft={f:G,i:b},Rt={f:G,i:function(t,n,e){var r=b(t,n,e);return r<=0?0:r>=1?1:r}},Ct={f:function(t){var n=arguments.length>1&&void 0!==arguments[1]?arguments[1]:" ";return t&&t.length>0&&(t=t.map((function(t){return Math.floor(1e4*t)/1e4}))),H(t,n)},i:function(t,n,e){var r,i,u,o=n.length,a=e.length;if(o!==a)if(0===o)n=O(o=a,0);else if(0===a)a=o,e=O(o,0);else{var l=(u=(r=o)*(i=a)/function(t,n){for(var e;n;)e=n,n=t%n,t=e;return t||1}(r,i))<0?-u:u;n=E(n,Math.floor(l/o)),e=E(e,Math.floor(l/a)),o=a=l}for(var s=[],f=0;f<o;f++)s.push(g(w(t,n[f],e[f]),6));return s}};function Nt(t,n,e,r,i,u,o,a){return n=function(t,n,e){for(var r,i,u,o=t.length-1,a={},l=0;l<=o;l++)(r=t[l]).e&&(r.e=n(r.e)),r.v&&"g"===(i=r.v).t&&i.r&&(u=e.getElementById(i.r))&&(a[i.r]=u.querySelectorAll("stop"));return a}(t,r,a),function(r){var i,u=e(r,t,qt);return u?"c"===u.t?X(u.v):"g"===u.t?(n[u.r]&&function(t,n){for(var e=0,r=t.length;e<r;e++)t[e].setAttribute("stop-color",X(n[e]))}(n[u.r],u.v),(i=u.r)?"url(#"+i+")":"none"):"none":"none"}}function qt(t,n,e){if(0===t)return n;if(1===t)return e;if(n&&e){var r=n.t;if(r===e.t)switch(n.t){case"c":return{t:r,v:_(t,n.v,e.v)};case"g":if(n.r===e.r)return{t:r,v:S(t,n.v,e.v),r:n.r}}}return m(t,n,e)}var Vt={blur:A,brightness:w,contrast:w,"drop-shadow":function(t,n,e){return 0===t?n:1===t?e:{blur:A(t,n.blur,e.blur),offset:x(t,n.offset,e.offset),color:_(t,n.color,e.color)}},grayscale:w,"hue-rotate":b,invert:w,opacity:w,saturate:w,sepia:w};function Lt(t,n,e){if(0===t)return n;if(1===t)return e;var r=n.length;if(r!==e.length)return m(t,n,e);for(var i,u=[],o=0;o<r;o++){if(n[o].type!==e[o].type)return n;if(!(i=Vt[n[o].type]))return m(t,n,e);u.push({type:n.type,value:i(t,n[o].value,e[o].value)})}return u}var zt={blur:function(t){return t?function(n){t.setAttribute("stdDeviation",Q(n))}:null},brightness:function(t,n,e){return(t=Ut(e,n))?function(n){n=G(n),t.map((function(t){return t.setAttribute("slope",n)}))}:null},contrast:function(t,n,e){return(t=Ut(e,n))?function(n){var e=G((1-n)/2);n=G(n),t.map((function(t){t.setAttribute("slope",n),t.setAttribute("intercept",e)}))}:null},"drop-shadow":function(t,n,e){var r=e.getElementById(n+"-blur");if(!r)return null;var i=e.getElementById(n+"-offset");if(!i)return null;var u=e.getElementById(n+"-flood");return u?function(t){r.setAttribute("stdDeviation",Q(t.blur)),i.setAttribute("dx",G(t.offset.x)),i.setAttribute("dy",G(t.offset.y)),u.setAttribute("flood-color",X(t.color))}:null},grayscale:function(t){return t?function(n){t.setAttribute("values",H(function(t){return[.2126+.7874*(t=1-t),.7152-.7152*t,.0722-.0722*t,0,0,.2126-.2126*t,.7152+.2848*t,.0722-.0722*t,0,0,.2126-.2126*t,.7152-.7152*t,.0722+.9278*t,0,0,0,0,0,1,0]}(n)))}:null},"hue-rotate":function(t){return t?function(n){return t.setAttribute("values",G(n))}:null},invert:function(t,n,e){return(t=Ut(e,n))?function(n){n=G(n)+" "+G(1-n),t.map((function(t){return t.setAttribute("tableValues",n)}))}:null},opacity:function(t,n,e){return(t=e.getElementById(n+"-A"))?function(n){return t.setAttribute("tableValues","0 "+G(n))}:null},saturate:function(t){return t?function(n){return t.setAttribute("values",G(n))}:null},sepia:function(t){return t?function(n){return t.setAttribute("values",H(function(t){return[.393+.607*(t=1-t),.769-.769*t,.189-.189*t,0,0,.349-.349*t,.686+.314*t,.168-.168*t,0,0,.272-.272*t,.534-.534*t,.131+.869*t,0,0,0,0,0,1,0]}(n)))}:null}};var Dt=["R","G","B"];function Ut(t,n){var e=Dt.map((function(e){return t.getElementById(n+"-"+e)||null}));return-1!==e.indexOf(null)?null:e}var Wt={fill:Nt,"fill-opacity":Rt,stroke:Nt,"stroke-opacity":Rt,"stroke-width":Ft,"stroke-dashoffset":{f:G,i:b},"stroke-dasharray":Ct,opacity:Rt,transform:function(n,e,r,i){if(!(n=function(n,e){if(!n||"object"!==t(n))return null;var r=!1;for(var i in n)n.hasOwnProperty(i)&&(n[i]&&n[i].length?(n[i].forEach((function(t){t.e&&(t.e=e(t.e))})),r=!0):delete n[i]);return r?n:null}(n,i)))return null;var u=function(t,i,u){var o=arguments.length>3&&void 0!==arguments[3]?arguments[3]:null;return n[t]?r(i,n[t],u):e&&e[t]?e[t]:o};return e&&e.a&&n.o?function(t){var e=r(t,n.o,Et);return jt.recomposeSelf(e,u("r",t,b,0)+e.a,u("k",t,x),u("s",t,x),u("t",t,x)).toString()}:function(t){return jt.recomposeSelf(u("o",t,Ot,null),u("r",t,b,0),u("k",t,x),u("s",t,x),u("t",t,x)).toString()}},"#filter":function(t,n,e,r,i,u,o,a){if(!n.items||!t||!t.length)return null;var l=function(t,n){var e=(t=t.map((function(t){return t&&zt[t[0]]?(n.getElementById(t[1]),zt[t[0]](n.getElementById(t[1]),t[1],n)):null}))).length;return function(n){for(var r=0;r<e;r++)t[r]&&t[r](n[r].value)}}(n.items,a);return l?(t=function(t,n){return t.map((function(t){return t.e=n(t.e),t}))}(t,r),function(n){l(e(n,t,Lt))}):null},"#line":Tt,points:{f:H,i:M},d:Pt,r:Ft,"#size":Z,"#radius":$,_:function(t,n){if(Array.isArray(t))for(var e=0;e<t.length;e++)this[t[e]]=n;else this[t]=n}};return function(t){!function(t,n){if("function"!=typeof n&&null!==n)throw new TypeError("Super expression must either be null or a function");t.prototype=Object.create(n&&n.prototype,{constructor:{value:t,writable:!0,configurable:!0}}),n&&u(t,n)}(o,t);var e=a(o);function o(){return n(this,o),e.apply(this,arguments)}return r(o,null,[{key:"build",value:function(t){var n=l(i(o),"build",this).call(this,t,Wt),e=n.el,r=n.options,u=n.player;return function(t,n,e){if("click"===e.start){return void n.addEventListener("click",(function(){switch(e.click){case"freeze":return!t._running&&t.reachedToEnd()&&(t.offset=0),t._running?t.pause():t.play();case"restart":return t.offset>0?t.restart():t.play();case"reverse":var n=!t._rollingBack&&t._running,r=t.reachedToEnd();return n||r&&1===t.fill?(t.pause(),r&&(t.offset=t.duration-1),t._rollback()):r?t.restart():t.play();case"none":default:return!t._running&&t.offset?t.restart():t.play()}}))}if("hover"===e.start)return n.addEventListener("mouseenter",(function(){return t.reachedToEnd()?t.restart():t.play()})),void n.addEventListener("mouseleave",(function(){switch(e.hover){case"freeze":return t.pause();case"reset":return t.stop();case"reverse":return t.pause(),t._rollback();case"none":default:return}}));if("scroll"===e.start)return void new W(n,e.scroll||25,(function(n){n?t.reachedToEnd()?t.restart():t.play():t.pause()}));t.play()}(u,e,r),u}}]),o}(D)}));
__SVGATOR_PLAYER__.build({"root":"e4hYAG6L5vC1","animations":[{"duration":8235.29411764706,"direction":1,"iterations":1,"fill":1,"alternate":false,"speed":0.85,"elements":{"e4hYAG6L5vC2":{"transform":{"data":{"t":{"x":-393.927505495,"y":-123.99985504}},"keys":{"o":[{"t":0,"v":{"x":735,"y":183.99985504,"type":"corner"},"e":[0.42,0,0.58,1]},{"t":1058.8235294117646,"v":{"x":735.0000000040897,"y":183.99985504,"type":"corner"}},{"t":2235.294117647059,"v":{"x":335.82605100000006,"y":183.99985504,"type":"corner"},"e":[0.42,0,0.58,1]},{"t":6117.64705882353,"v":{"x":335.82605100000006,"y":183.99985504,"type":"corner"},"e":[0.42,0,0.58,1]},{"t":8117.64705882353,"v":{"x":504.04014035999984,"y":249.9999999999999,"type":"corner"}}],"s":[{"t":6117.64705882353,"v":{"x":1.2495823610170018,"y":1.2495823610170018},"e":[0.42,0,0.58,1]},{"t":8117.64705882353,"v":{"x":2.5650407213238915,"y":2.5650407213238915}}]}}},"e4hYAG6L5vC67":{"opacity":[{"t":0,"v":0,"e":[0.42,0,0.58,1]},{"t":2000,"v":0},{"t":2588.2352941176473,"v":1,"e":[0.42,0,0.58,1]},{"t":3176.470588235294,"v":0}]},"e4hYAG6L5vC75":{"opacity":[{"t":0,"v":0,"e":[0.42,0,0.58,1]},{"t":5529.411764705883,"v":0,"e":[0.42,0,0.58,1]},{"t":6117.64705882353,"v":1,"e":[0.42,0,0.58,1]},{"t":6235.2941176470595,"v":1},{"t":6705.882352941177,"v":0}]},"e4hYAG6L5vC84":{"opacity":[{"t":0,"v":0,"e":[0.42,0,0.58,1]},{"t":2588.2352941176473,"v":0,"e":[0.42,0,0.58,1]},{"t":3176.470588235294,"v":1,"e":[0.42,0,0.58,1]},{"t":3764.7058823529414,"v":0}]},"e4hYAG6L5vC91":{"opacity":[{"t":0,"v":0,"e":[0.42,0,0.58,1]},{"t":3176.470588235294,"v":0,"e":[0.42,0,0.58,1]},{"t":3764.7058823529414,"v":1,"e":[0.42,0,0.58,1]},{"t":4352.941176470588,"v":0}]},"e4hYAG6L5vC97":{"opacity":[{"t":0,"v":0,"e":[0.42,0,0.58,1]},{"t":3764.7058823529414,"v":0,"e":[0.42,0,0.58,1]},{"t":4352.941176470588,"v":1,"e":[0.42,0,0.58,1]},{"t":4941.176470588235,"v":0}]},"e4hYAG6L5vC103":{"opacity":[{"t":0,"v":0,"e":[0.42,0,0.58,1]},{"t":4352.941176470588,"v":0,"e":[0.42,0,0.58,1]},{"t":4941.176470588235,"v":1,"e":[0.42,0,0.58,1]},{"t":5529.411764705883,"v":0}]},"e4hYAG6L5vC112":{"opacity":[{"t":0,"v":0,"e":[0.42,0,0.58,1]},{"t":4941.176470588235,"v":0,"e":[0.42,0,0.58,1]},{"t":5529.411764705883,"v":1,"e":[0.42,0,0.58,1]},{"t":6117.64705882353,"v":0}]},"e4hYAG6L5vC121":{"opacity":[{"t":7411.764705882353,"v":0,"e":[0.42,0,0.58,1]},{"t":8235.29411764706,"v":1}]}}}],"options":{"start":"load","hover":"freeze","click":"freeze","scroll":25,"font":"embed","exportedIds":"unique","svgFormat":"animated","title":"INTRO-ASSETS"},"animationSettings":{"duration":7000,"direction":1,"iterations":1,"fill":1,"alternate":false,"speed":0.85}})]]></script></svg>