<?xml version="1.0" encoding="utf-8"?>
<!-- Generator: Adobe Illustrator 25.1.0, SVG Export Plug-In . SVG Version: 6.00 Build 0)  -->
<svg version="1.1" id="Layer_1" xmlns="http://www.w3.org/2000/svg" xmlns:xlink="http://www.w3.org/1999/xlink" x="0px" y="0px"
	 viewBox="0 0 36 36" style="enable-background:new 0 0 36 36;" xml:space="preserve">
<style type="text/css">
	.st0{fill:#FFFFFF;}
</style>
<path class="st0" d="M18,0C8.1,0,0,8.1,0,18s8.1,18,18,18s18-8.1,18-18S27.9,0,18,0z M13.7,26.9H9.8V14.2h3.9V26.9z M11.8,12.4
	c-1.3,0-2.3-1-2.3-2.3c0-1.3,1-2.3,2.3-2.3c1.3,0,2.3,1,2.3,2.3C14.1,11.4,13,12.4,11.8,12.4z M28.5,26.9L28.5,26.9h-3.9v-6.2
	c0-1.5,0-3.4-2.1-3.4c-2.1,0-2.4,1.6-2.4,3.3v6.3h-3.9V14.2H20v1.7h0.1c0.5-1,1.8-2.1,3.7-2.1c4,0,4.7,2.6,4.7,6V26.9z"/>
</svg>
