<svg width="99" height="117" viewBox="0 0 99 117" fill="none" xmlns="http://www.w3.org/2000/svg">
<g filter="url(#filter0_d)">
<path d="M73 47.5959C73 70.7466 49.5 89 49.5 89C49.5 89 26 68.9658 26 47.5959C26 34.5642 36.5213 24 49.5 24C62.4787 24 73 34.5642 73 47.5959Z" fill="#FF4D24"/>
<path d="M70.5 47.5959C70.5 58.3502 65.0189 68.1558 59.2862 75.4323C56.4428 79.0415 53.5948 81.9555 51.4587 83.9655C50.7347 84.6467 50.0943 85.2223 49.5659 85.6843C49.0221 85.173 48.356 84.5312 47.5995 83.7716C45.4522 81.6156 42.5913 78.5256 39.7356 74.7927C33.9567 67.2384 28.5 57.439 28.5 47.5959C28.5 35.9353 37.9116 26.5 49.5 26.5C61.0884 26.5 70.5 35.9353 70.5 47.5959Z" stroke="white" stroke-width="5"/>
</g>
<defs>
<filter id="filter0_d" x="0" y="0" width="99" height="117" filterUnits="userSpaceOnUse" color-interpolation-filters="sRGB">
<feFlood flood-opacity="0" result="BackgroundImageFix"/>
<feColorMatrix in="SourceAlpha" type="matrix" values="0 0 0 0 0 0 0 0 0 0 0 0 0 0 0 0 0 0 127 0"/>
<feMorphology radius="6" operator="dilate" in="SourceAlpha" result="effect1_dropShadow"/>
<feOffset dy="2"/>
<feGaussianBlur stdDeviation="10"/>
<feColorMatrix type="matrix" values="0 0 0 0 0.211765 0 0 0 0 0.168627 0 0 0 0 0.14902 0 0 0 0.3 0"/>
<feBlend mode="multiply" in2="BackgroundImageFix" result="effect1_dropShadow"/>
<feBlend mode="normal" in="SourceGraphic" in2="effect1_dropShadow" result="shape"/>
</filter>
</defs>
</svg>
