<svg width="312" height="604" viewBox="0 0 312 604" fill="none" xmlns="http://www.w3.org/2000/svg">
<rect width="312" height="604" fill="white"/>
<path d="M44.52 100.33C57.33 100.33 65.38 93.33 65.38 82.55C65.38 71.84 58.8 65.54 47.81 65.54C41.3 65.54 36.26 67.78 33.74 71.84L35.49 57.63H62.58V50.35H28.42L25.34 78.84L33.88 79.61C35.7 74.92 39.27 72.33 45.08 72.33C52.08 72.33 56 76.25 56 82.83C56 89.34 51.8 93.19 44.66 93.19C38.43 93.19 34.37 89.97 33.32 85.14L24.01 86.4C25.62 95.01 33.39 100.33 44.52 100.33ZM94.2796 100.33C108.56 100.33 117.24 90.46 117.24 74.71C117.24 58.89 108.56 49.02 94.2796 49.02C79.9996 49.02 71.2496 58.89 71.2496 74.71C71.2496 90.46 79.9996 100.33 94.2796 100.33ZM94.2796 93.12C85.7396 93.12 80.7696 86.33 80.7696 74.71C80.7696 62.95 85.7396 56.23 94.2796 56.23C102.82 56.23 107.79 62.95 107.79 74.71C107.79 86.33 102.82 93.12 94.2796 93.12Z" fill="#054217"/>
<path d="M23.45 331H64.75V323.44H36.96C43.89 320.5 48.86 317.63 53.2 314.48C59.99 309.3 63.91 303.91 63.91 296.77C63.91 287.11 56.91 281.02 44.17 281.02C31.85 281.02 23.94 287.32 23.94 296.7C23.94 297.96 24.08 299.01 24.36 300.2L33.81 301.11C33.53 299.78 33.39 298.52 33.39 297.54C33.39 291.8 37.38 288.3 43.89 288.3C50.75 288.3 54.04 292.01 54.04 297.26C54.04 302.3 52.08 305.94 46.06 310.7C39.97 315.46 32.06 320.01 23.45 324V331ZM84.3981 321.27H73.5481V331H84.3981V321.27ZM112.333 332.33C125.143 332.33 133.193 325.33 133.193 314.55C133.193 303.84 126.613 297.54 115.623 297.54C109.113 297.54 104.073 299.78 101.553 303.84L103.303 289.63H130.393V282.35H96.2325L93.1525 310.84L101.693 311.61C103.513 306.92 107.083 304.33 112.893 304.33C119.893 304.33 123.812 308.25 123.812 314.83C123.812 321.34 119.613 325.19 112.473 325.19C106.243 325.19 102.183 321.97 101.133 317.14L91.8225 318.4C93.4325 327.01 101.203 332.33 112.333 332.33ZM179.029 331H190.439L169.089 300.69L188.899 281.3H176.929L152.429 305.45V281.3H142.699V331H152.429V316.3L162.089 307.06L179.029 331Z" fill="#054217"/>
<path d="M69.16 554.42C69.16 545.81 63.91 541.54 52.64 539.72L48.58 539.23V525.02C54.95 525.72 58.87 528.52 60.9 533.35L68.25 529.36C64.89 522.43 58.31 518.72 48.58 518.16V512.07H44.1V518.16C32.13 518.65 24.92 523.83 24.92 531.81C24.92 539.65 29.89 544.06 40.32 545.81L44.1 546.3V562.12C37.31 561.42 32.55 558.41 30.03 552.67L22.19 556.17C25.2 564.15 33.04 568.63 44.1 569.26V575.35H48.58V569.33C61.39 568.84 69.16 563.1 69.16 554.42ZM43.96 538.6C36.75 537.41 33.95 535.38 33.95 531.46C33.95 527.26 37.52 525.16 44.1 524.88V538.6H43.96ZM48.58 562.26V546.86L49.63 547C56.98 548.26 59.99 550.22 59.99 554.77C59.99 559.46 55.93 561.98 48.58 562.26ZM85.9376 568H95.1776V519.35H87.3376C85.5876 524.67 81.1776 527.68 75.0176 527.75H73.4076V535.8H75.9976C80.1276 535.8 84.1176 534.47 85.9376 532.3V568ZM119.125 558.27H108.275V568H119.125V558.27ZM147.059 569.33C159.869 569.33 167.919 562.33 167.919 551.55C167.919 540.84 161.339 534.54 150.349 534.54C143.839 534.54 138.799 536.78 136.279 540.84L138.029 526.63H165.119V519.35H130.959L127.879 547.84L136.419 548.61C138.239 543.92 141.809 541.33 147.619 541.33C154.619 541.33 158.539 545.25 158.539 551.83C158.539 558.34 154.339 562.19 147.199 562.19C140.969 562.19 136.909 558.97 135.859 554.14L126.549 555.4C128.159 564.01 135.929 569.33 147.059 569.33ZM194.295 569.33C207.105 569.33 215.155 562.33 215.155 551.55C215.155 540.84 208.575 534.54 197.585 534.54C191.075 534.54 186.035 536.78 183.515 540.84L185.265 526.63H212.355V519.35H178.195L175.115 547.84L183.655 548.61C185.475 543.92 189.045 541.33 194.855 541.33C201.855 541.33 205.775 545.25 205.775 551.83C205.775 558.34 201.575 562.19 194.435 562.19C188.205 562.19 184.145 558.97 183.095 554.14L173.785 555.4C175.395 564.01 183.165 569.33 194.295 569.33ZM224.662 568H233.272V532.02C233.272 529.78 233.132 527.75 232.922 526H233.202C233.482 527.33 234.182 529.92 234.882 531.81L249.022 568H257.982L272.122 531.81C272.892 529.92 273.732 527.12 273.942 526H274.222C274.012 527.82 273.872 529.99 273.872 532.02V568H282.762V518.3H268.552L255.182 552.95C254.412 555.05 253.992 556.31 253.712 557.99H253.572C253.292 556.31 252.872 555.12 252.172 552.95L238.732 518.3H224.662V568Z" fill="#054217"/>
<path d="M44.52 448.33C57.33 448.33 65.38 441.33 65.38 430.55C65.38 419.84 58.8 413.54 47.81 413.54C41.3 413.54 36.26 415.78 33.74 419.84L35.49 405.63H62.58V398.35H28.42L25.34 426.84L33.88 427.61C35.7 422.92 39.27 420.33 45.08 420.33C52.08 420.33 56 424.25 56 430.83C56 437.34 51.8 441.19 44.66 441.19C38.43 441.19 34.37 437.97 33.32 433.14L24.01 434.4C25.62 443.01 33.39 448.33 44.52 448.33ZM77.4473 447H87.7373V445.18C87.7373 429.57 95.0873 416.13 107.267 405.28V398.35H67.9273V406.05H97.3273C84.7973 417.67 77.4473 431.46 77.4473 446.09V447Z" fill="#054217"/>
<path d="M35.92 215H46.21V213.18C46.21 197.57 53.56 184.13 65.74 173.28V166.35H26.4V174.05H55.8C43.27 185.67 35.92 199.46 35.92 214.09V215Z" fill="#054217"/>
<path d="M34.5316 37H36.549L32.4834 26.066H30.3274L26.2618 37H28.2792L29.2648 34.1202H33.546L34.5316 37ZM29.7884 32.611L31.0666 28.915C31.1898 28.5608 31.2976 28.1758 31.39 27.7446H31.4208C31.5132 28.1758 31.621 28.5608 31.7442 28.915L33.0224 32.611H29.7884ZM44.662 29.3616C44.893 29.3616 45.0932 29.3924 45.2934 29.4386V28.0526C45.1394 28.0218 45.0162 28.0064 44.8622 28.0064C43.7534 28.0064 43.0912 28.5762 42.8448 29.4232C42.3828 29.223 41.8438 29.1152 41.2124 29.1152C39.2566 29.1152 38.0554 30.1778 38.0554 31.7024C38.0554 32.5032 38.3942 33.1962 38.9948 33.6736C38.2402 33.9662 37.7782 34.5052 37.7782 35.306C37.7782 35.9066 38.0708 36.4148 38.7484 36.692C37.9168 36.9692 37.4702 37.5236 37.4702 38.2012C37.4702 39.2946 38.4404 40.1878 41.0892 40.1878C43.8612 40.1878 45.201 39.156 45.201 37.5698C45.201 36.1376 44.277 35.3522 42.4752 35.3522H40.4578C39.6108 35.3522 39.2874 35.0596 39.2874 34.6438C39.2874 34.3666 39.4414 34.1818 39.6724 34.0586C40.1036 34.2434 40.6272 34.3358 41.2124 34.3358C43.1836 34.3358 44.3848 33.227 44.3848 31.7024C44.3848 30.9478 44.0922 30.3164 43.5686 29.8544C43.7842 29.531 44.1692 29.3616 44.662 29.3616ZM41.2124 33.2116C40.35 33.2116 39.7956 32.5802 39.7956 31.7024C39.7956 30.84 40.35 30.2394 41.2124 30.2394C42.0748 30.2394 42.6292 30.84 42.6292 31.7178C42.6292 32.5802 42.0748 33.2116 41.2124 33.2116ZM42.198 36.9384C43.0758 36.9384 43.5224 37.2618 43.5224 37.8778C43.5224 38.5092 42.968 38.9866 41.2124 38.9866C39.888 38.9866 39.0102 38.6786 39.0102 37.8624C39.0102 37.4928 39.1796 37.1386 39.5492 36.9076C39.7494 36.923 39.965 36.9384 40.196 36.9384H42.198ZM53.0721 32.765C53.0721 30.4088 51.7939 29.1152 49.5609 29.1152C47.2663 29.1152 45.8803 30.686 45.8803 33.227C45.8803 35.7526 47.2971 37.1848 49.6533 37.1848C51.2241 37.1848 52.4407 36.4456 53.0105 35.1058L51.5937 34.459C51.2395 35.2906 50.5927 35.7372 49.7149 35.7372C48.4983 35.7372 47.6821 34.9056 47.6667 33.612H53.0721V32.765ZM51.2549 32.3954H47.6667C47.6975 31.1172 48.3597 30.3472 49.5301 30.3472C50.6235 30.3472 51.2549 31.0094 51.2549 32.2722V32.3954Z" fill="#362B26"/>
<path d="M34.7472 258.066H26.1386V259.683H29.4496V269H31.4362V259.683H34.7472V258.066ZM38.2236 269.185C40.4412 269.185 41.9966 267.722 41.9966 265.135C41.9966 262.563 40.4412 261.115 38.2236 261.115C36.006 261.115 34.4506 262.563 34.4506 265.135C34.4506 267.722 36.006 269.185 38.2236 269.185ZM38.2236 267.783C37.0378 267.783 36.3294 266.89 36.3294 265.135C36.3294 263.379 37.0378 262.517 38.2236 262.517C39.4094 262.517 40.1024 263.379 40.1024 265.135C40.1024 266.89 39.4094 267.783 38.2236 267.783ZM42.7274 262.64H44.1134V266.613C44.1134 268.168 44.7294 269.139 46.5774 269.139C47.0548 269.139 47.3936 269.092 47.8402 269V267.445C47.5938 267.491 47.3936 267.537 47.0856 267.537C46.3156 267.537 45.9614 267.137 45.9614 266.32V262.64H47.8402V261.3H45.9614V258.62L44.1134 259.36V261.3H42.7274V262.64ZM51.4757 269.185C52.7077 269.185 53.6779 268.615 54.0475 267.676C54.0629 268.153 54.1091 268.615 54.1707 269H56.0187C55.8647 268.461 55.7877 267.66 55.7877 266.613V264.318C55.7877 262.085 54.7713 261.115 52.4921 261.115C50.5055 261.115 49.2119 262.132 49.0887 263.779H50.9829C51.0445 262.902 51.5835 262.424 52.4921 262.424C53.4777 262.424 53.9243 262.917 53.9243 264.072V264.272L52.2919 264.472C51.0753 264.642 50.3361 264.842 49.7817 265.165C49.1657 265.55 48.8423 266.166 48.8423 266.906C48.8423 268.276 49.8895 269.185 51.4757 269.185ZM52.0609 267.876C51.2447 267.876 50.7519 267.46 50.7519 266.813C50.7519 266.151 51.2139 265.781 52.2303 265.612L53.9705 265.35V265.843C53.9705 267.06 53.2005 267.876 52.0609 267.876ZM59.9871 257.835H58.1391V269H59.9871V257.835ZM70.8898 269.262C73.554 269.262 75.0478 267.706 75.5098 265.52L73.5386 265.119C73.2614 266.659 72.3066 267.599 70.9052 267.599C68.9032 267.599 67.8252 265.889 67.8252 263.502C67.8252 261.054 68.934 259.437 70.859 259.437C72.3682 259.437 73.2768 260.422 73.4616 261.978L75.4944 261.685C75.2018 259.36 73.6464 257.804 70.9206 257.804C67.6404 257.804 65.777 260.114 65.777 263.518C65.777 266.829 67.4556 269.262 70.8898 269.262ZM79.4032 269.185C80.6352 269.185 81.6054 268.615 81.975 267.676C81.9904 268.153 82.0366 268.615 82.0982 269H83.9462C83.7922 268.461 83.7152 267.66 83.7152 266.613V264.318C83.7152 262.085 82.6988 261.115 80.4196 261.115C78.433 261.115 77.1394 262.132 77.0162 263.779H78.9104C78.972 262.902 79.511 262.424 80.4196 262.424C81.4052 262.424 81.8518 262.917 81.8518 264.072V264.272L80.2194 264.472C79.0028 264.642 78.2636 264.842 77.7092 265.165C77.0932 265.55 76.7698 266.166 76.7698 266.906C76.7698 268.276 77.817 269.185 79.4032 269.185ZM79.9884 267.876C79.1722 267.876 78.6794 267.46 78.6794 266.813C78.6794 266.151 79.1414 265.781 80.1578 265.612L81.898 265.35V265.843C81.898 267.06 81.128 267.876 79.9884 267.876ZM87.7144 263.163V261.3H85.9896V269H87.8376V265.766C87.8376 264.919 87.9146 264.041 88.5306 263.441C88.8848 263.102 89.393 262.886 90.1322 262.886C90.2246 262.886 90.3016 262.902 90.3786 262.902V261.131C90.3016 261.115 90.24 261.115 90.163 261.115C88.9156 261.115 88.0994 261.947 87.7144 263.163ZM96.1196 269.185C98.0446 269.185 99.292 267.568 99.292 265.15C99.292 262.763 98.0754 261.115 96.1966 261.115C95.057 261.115 94.2254 261.7 93.825 262.501V257.835H91.977V269H93.5324L93.7172 267.753C94.1176 268.615 94.98 269.185 96.1196 269.185ZM95.5344 267.768C94.4256 267.768 93.7788 266.859 93.7788 265.427V264.904C93.7788 263.441 94.441 262.532 95.5344 262.532C96.7202 262.532 97.367 263.548 97.367 265.15C97.367 266.782 96.6894 267.768 95.5344 267.768ZM104.29 269.185C106.508 269.185 108.063 267.722 108.063 265.135C108.063 262.563 106.508 261.115 104.29 261.115C102.073 261.115 100.517 262.563 100.517 265.135C100.517 267.722 102.073 269.185 104.29 269.185ZM104.29 267.783C103.104 267.783 102.396 266.89 102.396 265.135C102.396 263.379 103.104 262.517 104.29 262.517C105.476 262.517 106.169 263.379 106.169 265.135C106.169 266.89 105.476 267.783 104.29 267.783ZM109.887 269H111.735V264.919C111.735 263.456 112.381 262.594 113.459 262.594C114.43 262.594 114.907 263.194 114.907 264.411V269H116.755V264.226C116.755 262.162 115.877 261.115 114.199 261.115C113.013 261.115 112.166 261.67 111.642 262.794V261.3H109.887V269ZM126.514 269.262C129.301 269.262 130.718 267.783 130.718 265.905C130.718 263.964 129.517 263.133 127.715 262.748L126.129 262.409C124.928 262.147 124.435 261.685 124.435 260.792C124.435 259.868 125.236 259.313 126.421 259.313C127.869 259.313 128.778 260.037 129.132 261.3L130.718 260.468C130.241 258.651 128.593 257.804 126.514 257.804C124.05 257.804 122.51 259.052 122.51 260.946C122.51 262.809 123.649 263.733 125.374 264.087L126.899 264.411C128.1 264.657 128.747 265.027 128.747 266.089C128.747 267.229 127.7 267.676 126.575 267.676C124.881 267.676 123.988 266.69 123.619 265.458L121.925 266.197C122.371 267.984 123.927 269.262 126.514 269.262ZM131.353 262.64H132.739V266.613C132.739 268.168 133.355 269.139 135.203 269.139C135.68 269.139 136.019 269.092 136.465 269V267.445C136.219 267.491 136.019 267.537 135.711 267.537C134.941 267.537 134.587 267.137 134.587 266.32V262.64H136.465V261.3H134.587V258.62L132.739 259.36V261.3H131.353V262.64ZM141.211 269.185C143.429 269.185 144.984 267.722 144.984 265.135C144.984 262.563 143.429 261.115 141.211 261.115C138.994 261.115 137.438 262.563 137.438 265.135C137.438 267.722 138.994 269.185 141.211 269.185ZM141.211 267.783C140.025 267.783 139.317 266.89 139.317 265.135C139.317 263.379 140.025 262.517 141.211 262.517C142.397 262.517 143.09 263.379 143.09 265.135C143.09 266.89 142.397 267.783 141.211 267.783ZM148.532 263.163V261.3H146.808V269H148.656V265.766C148.656 264.919 148.733 264.041 149.349 263.441C149.703 263.102 150.211 262.886 150.95 262.886C151.043 262.886 151.12 262.902 151.197 262.902V261.131C151.12 261.115 151.058 261.115 150.981 261.115C149.734 261.115 148.917 261.947 148.532 263.163ZM159.188 264.765C159.188 262.409 157.91 261.115 155.677 261.115C153.382 261.115 151.996 262.686 151.996 265.227C151.996 267.753 153.413 269.185 155.769 269.185C157.34 269.185 158.556 268.446 159.126 267.106L157.709 266.459C157.355 267.291 156.708 267.737 155.831 267.737C154.614 267.737 153.798 266.906 153.782 265.612H159.188V264.765ZM157.371 264.395H153.782C153.813 263.117 154.475 262.347 155.646 262.347C156.739 262.347 157.371 263.009 157.371 264.272V264.395ZM163.604 269.185C164.759 269.185 165.637 268.6 166.068 267.614V269H167.808V257.835H165.96V262.393C165.529 261.531 164.759 261.115 163.743 261.115C161.818 261.115 160.493 262.748 160.493 265.165C160.493 267.568 161.741 269.185 163.604 269.185ZM164.236 267.768C163.111 267.768 162.418 266.782 162.418 265.135C162.418 263.487 163.096 262.532 164.22 262.532C165.329 262.532 166.007 263.41 166.007 264.919V265.412C166.007 266.859 165.314 267.768 164.236 267.768Z" fill="#362B26"/>
<path d="M34.5316 503H36.549L32.4834 492.066H30.3274L26.2618 503H28.2792L29.2648 500.12H33.546L34.5316 503ZM29.7884 498.611L31.0666 494.915C31.1898 494.561 31.2976 494.176 31.39 493.745H31.4208C31.5132 494.176 31.621 494.561 31.7442 494.915L33.0224 498.611H29.7884ZM41.0209 503.185C42.8535 503.185 44.1471 502.138 44.4243 500.428L42.6841 500.074C42.5147 501.152 41.9449 501.722 41.0209 501.722C39.8351 501.722 39.1421 500.767 39.1421 499.104C39.1421 497.518 39.8505 496.563 40.9901 496.563C41.8987 496.563 42.4993 497.133 42.6225 498.18L44.4243 497.887C44.1933 496.132 42.9459 495.115 41.0363 495.115C38.6955 495.115 37.2479 496.64 37.2479 499.15C37.2479 501.599 38.7263 503.185 41.0209 503.185ZM49.3826 503.185C51.2152 503.185 52.5088 502.138 52.786 500.428L51.0458 500.074C50.8764 501.152 50.3066 501.722 49.3826 501.722C48.1968 501.722 47.5038 500.767 47.5038 499.104C47.5038 497.518 48.2122 496.563 49.3518 496.563C50.2604 496.563 50.861 497.133 50.9842 498.18L52.786 497.887C52.555 496.132 51.3076 495.115 49.398 495.115C47.0572 495.115 45.6096 496.64 45.6096 499.15C45.6096 501.599 47.088 503.185 49.3826 503.185ZM56.9908 503.185C58.0996 503.185 59.0236 502.523 59.3932 501.568V503H61.1488V495.3H59.2854V499.566C59.2854 500.859 58.6078 501.706 57.5914 501.706C56.6982 501.706 56.2362 501.09 56.2362 499.966V495.3H54.3882V500.243C54.3882 502.045 55.112 503.185 56.9908 503.185ZM63.5965 495.3V503H65.4445V498.549C65.4445 497.317 65.9835 496.594 66.9075 496.594C67.7237 496.594 68.1549 497.148 68.1549 498.211V503H70.0029V498.503C70.0029 497.271 70.5265 496.594 71.4659 496.594C72.3129 496.594 72.7287 497.133 72.7287 498.257V503H74.5767V497.964C74.5767 496.162 73.6989 495.115 72.2205 495.115C71.1425 495.115 70.3417 495.623 69.8181 496.671C69.4485 495.639 68.7093 495.115 67.6313 495.115C66.5533 495.115 65.8141 495.623 65.3521 496.655V495.3H63.5965ZM79.2637 503.185C80.3725 503.185 81.2965 502.523 81.6661 501.568V503H83.4217V495.3H81.5583V499.566C81.5583 500.859 80.8807 501.706 79.8643 501.706C78.9711 501.706 78.5091 501.09 78.5091 499.966V495.3H76.6611V500.243C76.6611 502.045 77.3849 503.185 79.2637 503.185ZM87.7943 491.835H85.9463V503H87.7943V491.835ZM92.2767 503.185C93.5087 503.185 94.4789 502.615 94.8485 501.676C94.8639 502.153 94.9101 502.615 94.9717 503H96.8197C96.6657 502.461 96.5887 501.66 96.5887 500.613V498.318C96.5887 496.085 95.5723 495.115 93.2931 495.115C91.3065 495.115 90.0129 496.132 89.8897 497.779H91.7839C91.8455 496.902 92.3845 496.424 93.2931 496.424C94.2787 496.424 94.7253 496.917 94.7253 498.072V498.272L93.0929 498.472C91.8763 498.642 91.1371 498.842 90.5827 499.165C89.9667 499.55 89.6433 500.166 89.6433 500.906C89.6433 502.276 90.6905 503.185 92.2767 503.185ZM92.8619 501.876C92.0457 501.876 91.5529 501.46 91.5529 500.813C91.5529 500.151 92.0149 499.781 93.0313 499.612L94.7715 499.35V499.843C94.7715 501.06 94.0015 501.876 92.8619 501.876ZM97.7253 496.64H99.1113V500.613C99.1113 502.168 99.7273 503.139 101.575 503.139C102.053 503.139 102.391 503.092 102.838 503V501.445C102.592 501.491 102.391 501.537 102.083 501.537C101.313 501.537 100.959 501.137 100.959 500.32V496.64H102.838V495.3H100.959V492.62L99.1113 493.36V495.3H97.7253V496.64ZM104.44 494.022H106.442V492.097H104.44V494.022ZM104.533 503H106.381V495.3H104.533V503ZM110.451 503H112.453L115.194 495.3H113.254L111.76 500.182C111.637 500.582 111.544 500.967 111.483 501.321H111.437C111.375 500.967 111.283 500.582 111.159 500.182L109.65 495.3H107.71L110.451 503ZM122.929 498.765C122.929 496.409 121.65 495.115 119.417 495.115C117.123 495.115 115.737 496.686 115.737 499.227C115.737 501.753 117.154 503.185 119.51 503.185C121.081 503.185 122.297 502.446 122.867 501.106L121.45 500.459C121.096 501.291 120.449 501.737 119.571 501.737C118.355 501.737 117.539 500.906 117.523 499.612H122.929V498.765ZM121.111 498.395H117.523C117.554 497.117 118.216 496.347 119.387 496.347C120.48 496.347 121.111 497.009 121.111 498.272V498.395ZM133.197 503.262C135.861 503.262 137.355 501.706 137.817 499.52L135.845 499.119C135.568 500.659 134.613 501.599 133.212 501.599C131.21 501.599 130.132 499.889 130.132 497.502C130.132 495.054 131.241 493.437 133.166 493.437C134.675 493.437 135.584 494.422 135.768 495.978L137.801 495.685C137.509 493.36 135.953 491.804 133.227 491.804C129.947 491.804 128.084 494.114 128.084 497.518C128.084 500.829 129.762 503.262 133.197 503.262ZM141.71 503.185C142.942 503.185 143.912 502.615 144.282 501.676C144.297 502.153 144.343 502.615 144.405 503H146.253C146.099 502.461 146.022 501.66 146.022 500.613V498.318C146.022 496.085 145.006 495.115 142.726 495.115C140.74 495.115 139.446 496.132 139.323 497.779H141.217C141.279 496.902 141.818 496.424 142.726 496.424C143.712 496.424 144.159 496.917 144.159 498.072V498.272L142.526 498.472C141.31 498.642 140.57 498.842 140.016 499.165C139.4 499.55 139.077 500.166 139.077 500.906C139.077 502.276 140.124 503.185 141.71 503.185ZM142.295 501.876C141.479 501.876 140.986 501.46 140.986 500.813C140.986 500.151 141.448 499.781 142.465 499.612L144.205 499.35V499.843C144.205 501.06 143.435 501.876 142.295 501.876ZM150.021 497.163V495.3H148.296V503H150.144V499.766C150.144 498.919 150.221 498.041 150.837 497.441C151.192 497.102 151.7 496.886 152.439 496.886C152.531 496.886 152.608 496.902 152.685 496.902V495.131C152.608 495.115 152.547 495.115 152.47 495.115C151.222 495.115 150.406 495.947 150.021 497.163ZM158.426 503.185C160.351 503.185 161.599 501.568 161.599 499.15C161.599 496.763 160.382 495.115 158.503 495.115C157.364 495.115 156.532 495.7 156.132 496.501V491.835H154.284V503H155.839L156.024 501.753C156.424 502.615 157.287 503.185 158.426 503.185ZM157.841 501.768C156.732 501.768 156.086 500.859 156.086 499.427V498.904C156.086 497.441 156.748 496.532 157.841 496.532C159.027 496.532 159.674 497.548 159.674 499.15C159.674 500.782 158.996 501.768 157.841 501.768ZM166.597 503.185C168.815 503.185 170.37 501.722 170.37 499.135C170.37 496.563 168.815 495.115 166.597 495.115C164.379 495.115 162.824 496.563 162.824 499.135C162.824 501.722 164.379 503.185 166.597 503.185ZM166.597 501.783C165.411 501.783 164.703 500.89 164.703 499.135C164.703 497.379 165.411 496.517 166.597 496.517C167.783 496.517 168.476 497.379 168.476 499.135C168.476 500.89 167.783 501.783 166.597 501.783ZM172.194 503H174.042V498.919C174.042 497.456 174.688 496.594 175.766 496.594C176.737 496.594 177.214 497.194 177.214 498.411V503H179.062V498.226C179.062 496.162 178.184 495.115 176.506 495.115C175.32 495.115 174.473 495.67 173.949 496.794V495.3H172.194V503ZM188.821 503.262C191.608 503.262 193.025 501.783 193.025 499.905C193.025 497.964 191.824 497.133 190.022 496.748L188.436 496.409C187.234 496.147 186.742 495.685 186.742 494.792C186.742 493.868 187.542 493.313 188.728 493.313C190.176 493.313 191.084 494.037 191.439 495.3L193.025 494.468C192.547 492.651 190.9 491.804 188.821 491.804C186.357 491.804 184.817 493.052 184.817 494.946C184.817 496.809 185.956 497.733 187.681 498.087L189.206 498.411C190.407 498.657 191.054 499.027 191.054 500.089C191.054 501.229 190.006 501.676 188.882 501.676C187.188 501.676 186.295 500.69 185.925 499.458L184.231 500.197C184.678 501.984 186.233 503.262 188.821 503.262ZM193.659 496.64H195.045V500.613C195.045 502.168 195.661 503.139 197.509 503.139C197.987 503.139 198.326 503.092 198.772 503V501.445C198.526 501.491 198.326 501.537 198.018 501.537C197.248 501.537 196.893 501.137 196.893 500.32V496.64H198.772V495.3H196.893V492.62L195.045 493.36V495.3H193.659V496.64ZM203.518 503.185C205.736 503.185 207.291 501.722 207.291 499.135C207.291 496.563 205.736 495.115 203.518 495.115C201.3 495.115 199.745 496.563 199.745 499.135C199.745 501.722 201.3 503.185 203.518 503.185ZM203.518 501.783C202.332 501.783 201.624 500.89 201.624 499.135C201.624 497.379 202.332 496.517 203.518 496.517C204.704 496.517 205.397 497.379 205.397 499.135C205.397 500.89 204.704 501.783 203.518 501.783ZM210.839 497.163V495.3H209.114V503H210.962V499.766C210.962 498.919 211.039 498.041 211.655 497.441C212.01 497.102 212.518 496.886 213.257 496.886C213.349 496.886 213.426 496.902 213.503 496.902V495.131C213.426 495.115 213.365 495.115 213.288 495.115C212.04 495.115 211.224 495.947 210.839 497.163ZM216.905 503.185C218.137 503.185 219.108 502.615 219.477 501.676C219.493 502.153 219.539 502.615 219.6 503H221.448C221.294 502.461 221.217 501.66 221.217 500.613V498.318C221.217 496.085 220.201 495.115 217.922 495.115C215.935 495.115 214.642 496.132 214.518 497.779H216.413C216.474 496.902 217.013 496.424 217.922 496.424C218.907 496.424 219.354 496.917 219.354 498.072V498.272L217.722 498.472C216.505 498.642 215.766 498.842 215.211 499.165C214.595 499.55 214.272 500.166 214.272 500.906C214.272 502.276 215.319 503.185 216.905 503.185ZM217.491 501.876C216.674 501.876 216.182 501.46 216.182 500.813C216.182 500.151 216.644 499.781 217.66 499.612L219.4 499.35V499.843C219.4 501.06 218.63 501.876 217.491 501.876ZM229.748 495.362C229.979 495.362 230.179 495.392 230.379 495.439V494.053C230.225 494.022 230.102 494.006 229.948 494.006C228.839 494.006 228.177 494.576 227.931 495.423C227.469 495.223 226.93 495.115 226.298 495.115C224.342 495.115 223.141 496.178 223.141 497.702C223.141 498.503 223.48 499.196 224.081 499.674C223.326 499.966 222.864 500.505 222.864 501.306C222.864 501.907 223.157 502.415 223.834 502.692C223.003 502.969 222.556 503.524 222.556 504.201C222.556 505.295 223.526 506.188 226.175 506.188C228.947 506.188 230.287 505.156 230.287 503.57C230.287 502.138 229.363 501.352 227.561 501.352H225.544C224.697 501.352 224.373 501.06 224.373 500.644C224.373 500.367 224.527 500.182 224.758 500.059C225.189 500.243 225.713 500.336 226.298 500.336C228.269 500.336 229.471 499.227 229.471 497.702C229.471 496.948 229.178 496.316 228.654 495.854C228.87 495.531 229.255 495.362 229.748 495.362ZM226.298 499.212C225.436 499.212 224.881 498.58 224.881 497.702C224.881 496.84 225.436 496.239 226.298 496.239C227.161 496.239 227.715 496.84 227.715 497.718C227.715 498.58 227.161 499.212 226.298 499.212ZM227.284 502.938C228.162 502.938 228.608 503.262 228.608 503.878C228.608 504.509 228.054 504.987 226.298 504.987C224.974 504.987 224.096 504.679 224.096 503.862C224.096 503.493 224.265 503.139 224.635 502.908C224.835 502.923 225.051 502.938 225.282 502.938H227.284ZM238.158 498.765C238.158 496.409 236.88 495.115 234.647 495.115C232.352 495.115 230.966 496.686 230.966 499.227C230.966 501.753 232.383 503.185 234.739 503.185C236.31 503.185 237.526 502.446 238.096 501.106L236.679 500.459C236.325 501.291 235.678 501.737 234.801 501.737C233.584 501.737 232.768 500.906 232.752 499.612H238.158V498.765ZM236.341 498.395H232.752C232.783 497.117 233.445 496.347 234.616 496.347C235.709 496.347 236.341 497.009 236.341 498.272V498.395ZM246.516 503H248.78L252.522 492.066H250.397L248.056 499.643C247.856 500.29 247.748 500.721 247.687 501.137H247.625C247.548 500.721 247.44 500.29 247.24 499.643L244.899 492.066H242.79L246.516 503ZM255.345 503.185C256.577 503.185 257.547 502.615 257.917 501.676C257.932 502.153 257.979 502.615 258.04 503H259.888C259.734 502.461 259.657 501.66 259.657 500.613V498.318C259.657 496.085 258.641 495.115 256.362 495.115C254.375 495.115 253.081 496.132 252.958 497.779H254.852C254.914 496.902 255.453 496.424 256.362 496.424C257.347 496.424 257.794 496.917 257.794 498.072V498.272L256.161 498.472C254.945 498.642 254.206 498.842 253.651 499.165C253.035 499.55 252.712 500.166 252.712 500.906C252.712 502.276 253.759 503.185 255.345 503.185ZM255.93 501.876C255.114 501.876 254.621 501.46 254.621 500.813C254.621 500.151 255.083 499.781 256.1 499.612L257.84 499.35V499.843C257.84 501.06 257.07 501.876 255.93 501.876ZM263.857 491.835H262.009V503H263.857V491.835ZM268.801 503.185C269.91 503.185 270.834 502.523 271.203 501.568V503H272.959V495.3H271.096V499.566C271.096 500.859 270.418 501.706 269.402 501.706C268.508 501.706 268.046 501.09 268.046 499.966V495.3H266.198V500.243C266.198 502.045 266.922 503.185 268.801 503.185ZM281.952 498.765C281.952 496.409 280.673 495.115 278.44 495.115C276.146 495.115 274.76 496.686 274.76 499.227C274.76 501.753 276.177 503.185 278.533 503.185C280.104 503.185 281.32 502.446 281.89 501.106L280.473 500.459C280.119 501.291 279.472 501.737 278.594 501.737C277.378 501.737 276.562 500.906 276.546 499.612H281.952V498.765ZM280.134 498.395H276.546C276.577 497.117 277.239 496.347 278.41 496.347C279.503 496.347 280.134 497.009 280.134 498.272V498.395Z" fill="#362B26"/>
<path d="M29.7884 385H32.0522L35.7944 374.066H33.6692L31.3284 381.643C31.1282 382.29 31.0204 382.721 30.9588 383.137H30.8972C30.8202 382.721 30.7124 382.29 30.5122 381.643L28.1714 374.066H26.0616L29.7884 385ZM39.6975 385.185C41.9151 385.185 43.4705 383.722 43.4705 381.135C43.4705 378.563 41.9151 377.115 39.6975 377.115C37.4799 377.115 35.9245 378.563 35.9245 381.135C35.9245 383.722 37.4799 385.185 39.6975 385.185ZM39.6975 383.783C38.5117 383.783 37.8033 382.89 37.8033 381.135C37.8033 379.379 38.5117 378.517 39.6975 378.517C40.8833 378.517 41.5763 379.379 41.5763 381.135C41.5763 382.89 40.8833 383.783 39.6975 383.783ZM47.2189 373.835H45.3709V385H47.2189V373.835ZM52.1633 385.185C53.2721 385.185 54.1961 384.523 54.5657 383.568V385H56.3213V377.3H54.4579V381.566C54.4579 382.859 53.7803 383.706 52.7639 383.706C51.8707 383.706 51.4087 383.09 51.4087 381.966V377.3H49.5607V382.243C49.5607 384.045 50.2845 385.185 52.1633 385.185ZM58.7689 377.3V385H60.6169V380.549C60.6169 379.317 61.1559 378.594 62.0799 378.594C62.8961 378.594 63.3273 379.148 63.3273 380.211V385H65.1753V380.503C65.1753 379.271 65.6989 378.594 66.6383 378.594C67.4853 378.594 67.9011 379.133 67.9011 380.257V385H69.7491V379.964C69.7491 378.162 68.8713 377.115 67.3929 377.115C66.3149 377.115 65.5141 377.623 64.9905 378.671C64.6209 377.639 63.8817 377.115 62.8037 377.115C61.7257 377.115 60.9865 377.623 60.5245 378.655V377.3H58.7689ZM78.5633 380.765C78.5633 378.409 77.2851 377.115 75.0521 377.115C72.7575 377.115 71.3715 378.686 71.3715 381.227C71.3715 383.753 72.7883 385.185 75.1445 385.185C76.7153 385.185 77.9319 384.446 78.5017 383.106L77.0849 382.459C76.7307 383.291 76.0839 383.737 75.2061 383.737C73.9895 383.737 73.1733 382.906 73.1579 381.612H78.5633V380.765ZM76.7461 380.395H73.1579C73.1887 379.117 73.8509 378.347 75.0213 378.347C76.1147 378.347 76.7461 379.009 76.7461 380.272V380.395Z" fill="#362B26"/>
<path d="M34.5316 153H36.549L32.4834 142.066H30.3274L26.2618 153H28.2792L29.2648 150.12H33.546L34.5316 153ZM29.7884 148.611L31.0666 144.915C31.1898 144.561 31.2976 144.176 31.39 143.745H31.4208C31.5132 144.176 31.621 144.561 31.7442 144.915L33.0224 148.611H29.7884ZM39.3763 153H41.3783L44.1195 145.3H42.1791L40.6853 150.182C40.5621 150.582 40.4697 150.967 40.4081 151.321H40.3619C40.3003 150.967 40.2079 150.582 40.0847 150.182L38.5755 145.3H36.6351L39.3763 153ZM51.854 148.765C51.854 146.409 50.5758 145.115 48.3428 145.115C46.0482 145.115 44.6622 146.686 44.6622 149.227C44.6622 151.753 46.079 153.185 48.4352 153.185C50.006 153.185 51.2226 152.446 51.7924 151.106L50.3756 150.459C50.0214 151.291 49.3746 151.737 48.4968 151.737C47.2802 151.737 46.464 150.906 46.4486 149.612H51.854V148.765ZM50.0368 148.395H46.4486C46.4794 147.117 47.1416 146.347 48.312 146.347C49.4054 146.347 50.0368 147.009 50.0368 148.272V148.395ZM55.4707 147.163V145.3H53.7459V153H55.5939V149.766C55.5939 148.919 55.6709 148.041 56.2869 147.441C56.6411 147.102 57.1493 146.886 57.8885 146.886C57.9809 146.886 58.0579 146.902 58.1349 146.902V145.131C58.0579 145.115 57.9963 145.115 57.9193 145.115C56.6719 145.115 55.8557 145.947 55.4707 147.163ZM61.5368 153.185C62.7688 153.185 63.739 152.615 64.1086 151.676C64.124 152.153 64.1702 152.615 64.2318 153H66.0798C65.9258 152.461 65.8488 151.66 65.8488 150.613V148.318C65.8488 146.085 64.8324 145.115 62.5532 145.115C60.5666 145.115 59.273 146.132 59.1498 147.779H61.044C61.1056 146.902 61.6446 146.424 62.5532 146.424C63.5388 146.424 63.9854 146.917 63.9854 148.072V148.272L62.353 148.472C61.1364 148.642 60.3972 148.842 59.8428 149.165C59.2268 149.55 58.9034 150.166 58.9034 150.906C58.9034 152.276 59.9506 153.185 61.5368 153.185ZM62.122 151.876C61.3058 151.876 60.813 151.46 60.813 150.813C60.813 150.151 61.275 149.781 62.2914 149.612L64.0316 149.35V149.843C64.0316 151.06 63.2616 151.876 62.122 151.876ZM74.3792 145.362C74.6102 145.362 74.8104 145.392 75.0106 145.439V144.053C74.8566 144.022 74.7334 144.006 74.5794 144.006C73.4706 144.006 72.8084 144.576 72.562 145.423C72.1 145.223 71.561 145.115 70.9296 145.115C68.9738 145.115 67.7726 146.178 67.7726 147.702C67.7726 148.503 68.1114 149.196 68.712 149.674C67.9574 149.966 67.4954 150.505 67.4954 151.306C67.4954 151.907 67.788 152.415 68.4656 152.692C67.634 152.969 67.1874 153.524 67.1874 154.201C67.1874 155.295 68.1576 156.188 70.8064 156.188C73.5784 156.188 74.9182 155.156 74.9182 153.57C74.9182 152.138 73.9942 151.352 72.1924 151.352H70.175C69.328 151.352 69.0046 151.06 69.0046 150.644C69.0046 150.367 69.1586 150.182 69.3896 150.059C69.8208 150.243 70.3444 150.336 70.9296 150.336C72.9008 150.336 74.102 149.227 74.102 147.702C74.102 146.948 73.8094 146.316 73.2858 145.854C73.5014 145.531 73.8864 145.362 74.3792 145.362ZM70.9296 149.212C70.0672 149.212 69.5128 148.58 69.5128 147.702C69.5128 146.84 70.0672 146.239 70.9296 146.239C71.792 146.239 72.3464 146.84 72.3464 147.718C72.3464 148.58 71.792 149.212 70.9296 149.212ZM71.9152 152.938C72.793 152.938 73.2396 153.262 73.2396 153.878C73.2396 154.509 72.6852 154.987 70.9296 154.987C69.6052 154.987 68.7274 154.679 68.7274 153.862C68.7274 153.493 68.8968 153.139 69.2664 152.908C69.4666 152.923 69.6822 152.938 69.9132 152.938H71.9152ZM82.7893 148.765C82.7893 146.409 81.5111 145.115 79.2781 145.115C76.9835 145.115 75.5975 146.686 75.5975 149.227C75.5975 151.753 77.0143 153.185 79.3705 153.185C80.9413 153.185 82.1579 152.446 82.7277 151.106L81.3109 150.459C80.9567 151.291 80.3099 151.737 79.4321 151.737C78.2155 151.737 77.3993 150.906 77.3839 149.612H82.7893V148.765ZM80.9721 148.395H77.3839C77.4147 147.117 78.0769 146.347 79.2473 146.347C80.3407 146.347 80.9721 147.009 80.9721 148.272V148.395ZM97.6004 142.066H95.6138V146.64H90.7012V142.066H88.7146V153H90.7012V148.226H95.6138V153H97.6004V142.066ZM106.731 148.765C106.731 146.409 105.453 145.115 103.22 145.115C100.926 145.115 99.5397 146.686 99.5397 149.227C99.5397 151.753 100.956 153.185 103.313 153.185C104.883 153.185 106.1 152.446 106.67 151.106L105.253 150.459C104.899 151.291 104.252 151.737 103.374 151.737C102.158 151.737 101.341 150.906 101.326 149.612H106.731V148.765ZM104.914 148.395H101.326C101.357 147.117 102.019 146.347 103.189 146.347C104.283 146.347 104.914 147.009 104.914 148.272V148.395ZM108.531 144.022H110.533V142.097H108.531V144.022ZM108.623 153H110.471V145.3H108.623V153ZM119.331 145.362C119.562 145.362 119.762 145.392 119.962 145.439V144.053C119.808 144.022 119.685 144.006 119.531 144.006C118.422 144.006 117.76 144.576 117.514 145.423C117.052 145.223 116.513 145.115 115.881 145.115C113.926 145.115 112.724 146.178 112.724 147.702C112.724 148.503 113.063 149.196 113.664 149.674C112.909 149.966 112.447 150.505 112.447 151.306C112.447 151.907 112.74 152.415 113.417 152.692C112.586 152.969 112.139 153.524 112.139 154.201C112.139 155.295 113.109 156.188 115.758 156.188C118.53 156.188 119.87 155.156 119.87 153.57C119.87 152.138 118.946 151.352 117.144 151.352H115.127C114.28 151.352 113.956 151.06 113.956 150.644C113.956 150.367 114.11 150.182 114.341 150.059C114.773 150.243 115.296 150.336 115.881 150.336C117.853 150.336 119.054 149.227 119.054 147.702C119.054 146.948 118.761 146.316 118.238 145.854C118.453 145.531 118.838 145.362 119.331 145.362ZM115.881 149.212C115.019 149.212 114.465 148.58 114.465 147.702C114.465 146.84 115.019 146.239 115.881 146.239C116.744 146.239 117.298 146.84 117.298 147.718C117.298 148.58 116.744 149.212 115.881 149.212ZM116.867 152.938C117.745 152.938 118.191 153.262 118.191 153.878C118.191 154.509 117.637 154.987 115.881 154.987C114.557 154.987 113.679 154.679 113.679 153.862C113.679 153.493 113.849 153.139 114.218 152.908C114.418 152.923 114.634 152.938 114.865 152.938H116.867ZM121.529 153H123.377V148.919C123.377 147.441 124.008 146.594 125.117 146.594C126.056 146.594 126.549 147.194 126.549 148.365V153H128.397V148.211C128.397 146.178 127.519 145.115 125.856 145.115C124.686 145.115 123.839 145.654 123.377 146.717V141.835H121.529V153ZM129.443 146.64H130.829V150.613C130.829 152.168 131.445 153.139 133.293 153.139C133.77 153.139 134.109 153.092 134.555 153V151.445C134.309 151.491 134.109 151.537 133.801 151.537C133.031 151.537 132.677 151.137 132.677 150.32V146.64H134.555V145.3H132.677V142.62L130.829 143.36V145.3H129.443V146.64Z" fill="#362B26"/>
<path d="M126.538 98H128.158V95.759L130.75 91.61H129.022L127.537 94.085C127.447 94.247 127.393 94.373 127.366 94.508H127.348C127.321 94.373 127.267 94.247 127.177 94.085L125.728 91.61H123.955L126.538 95.759V98ZM133.145 96.821V95.309H136.619V94.175H133.145V92.78H136.772V91.61H131.534V98H136.835V96.821H133.145ZM143.282 98H144.956L142.247 91.61H140.33L137.612 98H139.286L139.826 96.605H142.751L143.282 98ZM140.249 95.507L140.861 93.905C141.059 93.446 141.185 93.149 141.275 92.717H141.293C141.392 93.149 141.518 93.446 141.716 93.905L142.328 95.507H140.249ZM150.229 98H152.011L150.481 95.399C151.426 95.102 151.822 94.355 151.822 93.59C151.822 92.501 151.147 91.61 149.374 91.61H145.9V98H147.511V95.615H148.879L150.229 98ZM147.511 92.726H149.023C149.824 92.726 150.13 93.104 150.13 93.608C150.13 94.139 149.824 94.535 149.023 94.535H147.511V92.726ZM155.551 98.18C157.486 98.18 158.584 97.379 158.584 96.074C158.584 94.949 157.936 94.409 156.532 94.184L155.245 93.995C154.48 93.869 154.219 93.689 154.219 93.275C154.219 92.843 154.678 92.6 155.461 92.6C156.406 92.6 157.135 92.969 157.531 93.608L158.584 92.726C157.981 91.853 156.919 91.43 155.551 91.43C153.751 91.43 152.68 92.159 152.68 93.374C152.68 94.481 153.355 95.084 154.669 95.291L155.992 95.489C156.712 95.597 156.991 95.777 156.991 96.218C156.991 96.731 156.487 96.965 155.623 96.965C154.57 96.965 153.832 96.515 153.418 95.795L152.23 96.623C152.761 97.595 153.949 98.18 155.551 98.18Z" fill="#00823B"/>
<path d="M202.111 323.61H196.072V324.888H198.286V330H199.897V324.888H202.111V323.61ZM205.831 330.18C208.036 330.18 209.467 328.866 209.467 326.805C209.467 324.744 208.036 323.43 205.831 323.43C203.626 323.43 202.195 324.744 202.195 326.805C202.195 328.866 203.626 330.18 205.831 330.18ZM205.831 328.938C204.634 328.938 203.878 328.11 203.878 326.805C203.878 325.491 204.634 324.672 205.831 324.672C207.028 324.672 207.784 325.491 207.784 326.805C207.784 328.119 207.028 328.938 205.831 328.938ZM210.523 330H211.999V326.4C211.999 326.094 211.999 325.815 211.99 325.545H212.017C212.107 325.761 212.287 326.049 212.44 326.292L215.194 330H216.868V323.61H215.392V327.201V328.047H215.374C215.275 327.813 215.113 327.525 214.942 327.273L212.287 323.61H210.523V330ZM218.436 330H219.912V326.4C219.912 326.094 219.912 325.815 219.903 325.545H219.93C220.02 325.761 220.2 326.049 220.353 326.292L223.107 330H224.781V323.61H223.305V327.201V328.047H223.287C223.188 327.813 223.026 327.525 222.855 327.273L220.2 323.61H218.436V330ZM227.959 328.821V327.309H231.433V326.175H227.959V324.78H231.586V323.61H226.348V330H231.649V328.821H227.959ZM235.525 330.18C237.46 330.18 238.558 329.379 238.558 328.074C238.558 326.949 237.91 326.409 236.506 326.184L235.219 325.995C234.454 325.869 234.193 325.689 234.193 325.275C234.193 324.843 234.652 324.6 235.435 324.6C236.38 324.6 237.109 324.969 237.505 325.608L238.558 324.726C237.955 323.853 236.893 323.43 235.525 323.43C233.725 323.43 232.654 324.159 232.654 325.374C232.654 326.481 233.329 327.084 234.643 327.291L235.966 327.489C236.686 327.597 236.965 327.777 236.965 328.218C236.965 328.731 236.461 328.965 235.597 328.965C234.544 328.965 233.806 328.515 233.392 327.795L232.204 328.623C232.735 329.595 233.923 330.18 235.525 330.18ZM240.571 331.053L243.793 323.16H242.389L239.167 331.053H240.571ZM250.234 324.816V323.61H244.996V330H246.607V327.417H250.072V326.238H246.607V324.816H250.234ZM254.467 330.18C256.672 330.18 258.103 328.866 258.103 326.805C258.103 324.744 256.672 323.43 254.467 323.43C252.262 323.43 250.831 324.744 250.831 326.805C250.831 328.866 252.262 330.18 254.467 330.18ZM254.467 328.938C253.27 328.938 252.514 328.11 252.514 326.805C252.514 325.491 253.27 324.672 254.467 324.672C255.664 324.672 256.42 325.491 256.42 326.805C256.42 328.119 255.664 328.938 254.467 328.938ZM263.488 330H265.27L263.74 327.399C264.685 327.102 265.081 326.355 265.081 325.59C265.081 324.501 264.406 323.61 262.633 323.61H259.159V330H260.77V327.615H262.138L263.488 330ZM260.77 324.726H262.282C263.083 324.726 263.389 325.104 263.389 325.608C263.389 326.139 263.083 326.535 262.282 326.535H260.77V324.726ZM267.979 328.821V327.309H271.453V326.175H267.979V324.78H271.606V323.61H266.368V330H271.669V328.821H267.979ZM275.545 330.18C277.48 330.18 278.578 329.379 278.578 328.074C278.578 326.949 277.93 326.409 276.526 326.184L275.239 325.995C274.474 325.869 274.213 325.689 274.213 325.275C274.213 324.843 274.672 324.6 275.455 324.6C276.4 324.6 277.129 324.969 277.525 325.608L278.578 324.726C277.975 323.853 276.913 323.43 275.545 323.43C273.745 323.43 272.674 324.159 272.674 325.374C272.674 326.481 273.349 327.084 274.663 327.291L275.986 327.489C276.706 327.597 276.985 327.777 276.985 328.218C276.985 328.731 276.481 328.965 275.617 328.965C274.564 328.965 273.826 328.515 273.412 327.795L272.224 328.623C272.755 329.595 273.943 330.18 275.545 330.18ZM284.973 323.61H278.934V324.888H281.148V330H282.759V324.888H284.973V323.61Z" fill="#00823B"/>
<path d="M60.738 214H62.124V209.725C62.124 209.428 62.115 209.131 62.079 208.897H62.115C62.151 209.095 62.232 209.392 62.322 209.626L63.897 214H65.319L66.885 209.626C66.975 209.392 67.074 209.059 67.11 208.888H67.137C67.11 209.158 67.092 209.455 67.092 209.725V214H68.568V207.61H66.228L64.842 211.516C64.752 211.795 64.68 212.047 64.653 212.263H64.635C64.608 212.047 64.545 211.804 64.455 211.525L63.042 207.61H60.738V214ZM71.7466 212.821V211.309H75.2206V210.175H71.7466V208.78H75.3736V207.61H70.1356V214H75.4366V212.821H71.7466ZM82.1816 207.61H76.1426V208.888H78.3566V214H79.9676V208.888H82.1816V207.61ZM84.6883 212.821V211.309H88.1623V210.175H84.6883V208.78H88.3153V207.61H83.0773V214H88.3783V212.821H84.6883ZM94.0266 214H95.8086L94.2786 211.399C95.2236 211.102 95.6196 210.355 95.6196 209.59C95.6196 208.501 94.9446 207.61 93.1716 207.61H89.6976V214H91.3086V211.615H92.6766L94.0266 214ZM91.3086 208.726H92.8206C93.6216 208.726 93.9276 209.104 93.9276 209.608C93.9276 210.139 93.6216 210.535 92.8206 210.535H91.3086V208.726ZM99.3491 214.18C101.284 214.18 102.382 213.379 102.382 212.074C102.382 210.949 101.734 210.409 100.33 210.184L99.0431 209.995C98.2781 209.869 98.0171 209.689 98.0171 209.275C98.0171 208.843 98.4761 208.6 99.2591 208.6C100.204 208.6 100.933 208.969 101.329 209.608L102.382 208.726C101.779 207.853 100.717 207.43 99.3491 207.43C97.5491 207.43 96.4781 208.159 96.4781 209.374C96.4781 210.481 97.1531 211.084 98.4671 211.291L99.7901 211.489C100.51 211.597 100.789 211.777 100.789 212.218C100.789 212.731 100.285 212.965 99.4211 212.965C98.3681 212.965 97.6301 212.515 97.2161 211.795L96.0281 212.623C96.5591 213.595 97.7471 214.18 99.3491 214.18ZM104.395 215.053L107.617 207.16H106.213L102.991 215.053H104.395ZM114.501 207.61H108.462V208.888H110.676V214H112.287V208.888H114.501V207.61ZM119.725 214H121.507L119.977 211.399C120.922 211.102 121.318 210.355 121.318 209.59C121.318 208.501 120.643 207.61 118.87 207.61H115.396V214H117.007V211.615H118.375L119.725 214ZM117.007 208.726H118.519C119.32 208.726 119.626 209.104 119.626 209.608C119.626 210.139 119.32 210.535 118.519 210.535H117.007V208.726ZM124.217 212.821V211.309H127.691V210.175H124.217V208.78H127.844V207.61H122.606V214H127.907V212.821H124.217ZM130.837 212.821V211.309H134.311V210.175H130.837V208.78H134.464V207.61H129.226V214H134.527V212.821H130.837Z" fill="#00823B"/>
<path d="M105.738 446H107.124V441.725C107.124 441.428 107.115 441.131 107.079 440.897H107.115C107.151 441.095 107.232 441.392 107.322 441.626L108.897 446H110.319L111.885 441.626C111.975 441.392 112.074 441.059 112.11 440.888H112.137C112.11 441.158 112.092 441.455 112.092 441.725V446H113.568V439.61H111.228L109.842 443.516C109.752 443.795 109.68 444.047 109.653 444.263H109.635C109.608 444.047 109.545 443.804 109.455 443.525L108.042 439.61H105.738V446ZM116.747 444.821V443.309H120.221V442.175H116.747V440.78H120.374V439.61H115.136V446H120.437V444.821H116.747ZM127.182 439.61H121.143V440.888H123.357V446H124.968V440.888H127.182V439.61ZM129.688 444.821V443.309H133.162V442.175H129.688V440.78H133.315V439.61H128.077V446H133.378V444.821H129.688ZM139.027 446H140.809L139.279 443.399C140.224 443.102 140.62 442.355 140.62 441.59C140.62 440.501 139.945 439.61 138.172 439.61H134.698V446H136.309V443.615H137.677L139.027 446ZM136.309 440.726H137.821C138.622 440.726 138.928 441.104 138.928 441.608C138.928 442.139 138.622 442.535 137.821 442.535H136.309V440.726ZM142.825 438.323C143.191 438.323 143.494 438.416 143.734 438.602C143.974 438.782 144.094 439.028 144.094 439.34C144.094 439.544 144.034 439.721 143.914 439.871C143.8 440.015 143.611 440.129 143.347 440.213V440.267C143.647 440.327 143.866 440.444 144.004 440.618C144.148 440.786 144.22 440.975 144.22 441.185C144.22 441.539 144.091 441.818 143.833 442.022C143.575 442.226 143.173 442.328 142.627 442.328C142.201 442.328 141.802 442.226 141.43 442.022V441.185C141.622 441.299 141.814 441.395 142.006 441.473C142.204 441.545 142.408 441.581 142.618 441.581C143.038 441.581 143.248 441.425 143.248 441.113C143.248 440.993 143.197 440.885 143.095 440.789C142.993 440.693 142.801 440.645 142.519 440.645H142.024V439.943H142.429C142.735 439.943 142.93 439.895 143.014 439.799C143.104 439.697 143.149 439.586 143.149 439.466C143.149 439.352 143.113 439.259 143.041 439.187C142.969 439.115 142.858 439.079 142.708 439.079C142.57 439.079 142.438 439.106 142.312 439.16C142.192 439.214 142.048 439.301 141.88 439.421L141.439 438.8C141.619 438.662 141.82 438.548 142.042 438.458C142.264 438.368 142.525 438.323 142.825 438.323Z" fill="#00823B"/>
</svg>
