<svg width="312" height="604" viewBox="0 0 312 604" fill="none" xmlns="http://www.w3.org/2000/svg">
<rect width="312" height="604" fill="white"/>
<path d="M44.52 96.33C57.33 96.33 65.38 89.33 65.38 78.55C65.38 67.84 58.8 61.54 47.81 61.54C41.3 61.54 36.26 63.78 33.74 67.84L35.49 53.63H62.58V46.35H28.42L25.34 74.84L33.88 75.61C35.7 70.92 39.27 68.33 45.08 68.33C52.08 68.33 56 72.25 56 78.83C56 85.34 51.8 89.19 44.66 89.19C38.43 89.19 34.37 85.97 33.32 81.14L24.01 82.4C25.62 91.01 33.39 96.33 44.52 96.33ZM94.2796 96.33C108.56 96.33 117.24 86.46 117.24 70.71C117.24 54.89 108.56 45.02 94.2796 45.02C79.9996 45.02 71.2496 54.89 71.2496 70.71C71.2496 86.46 79.9996 96.33 94.2796 96.33ZM94.2796 89.12C85.7396 89.12 80.7696 82.33 80.7696 70.71C80.7696 58.95 85.7396 52.23 94.2796 52.23C102.82 52.23 107.79 58.95 107.79 70.71C107.79 82.33 102.82 89.12 94.2796 89.12Z" fill="#054217"/>
<path d="M23.45 335H64.75V327.44H36.96C43.89 324.5 48.86 321.63 53.2 318.48C59.99 313.3 63.91 307.91 63.91 300.77C63.91 291.11 56.91 285.02 44.17 285.02C31.85 285.02 23.94 291.32 23.94 300.7C23.94 301.96 24.08 303.01 24.36 304.2L33.81 305.11C33.53 303.78 33.39 302.52 33.39 301.54C33.39 295.8 37.38 292.3 43.89 292.3C50.75 292.3 54.04 296.01 54.04 301.26C54.04 306.3 52.08 309.94 46.06 314.7C39.97 319.46 32.06 324.01 23.45 328V335ZM84.3981 325.27H73.5481V335H84.3981V325.27ZM112.333 336.33C125.143 336.33 133.193 329.33 133.193 318.55C133.193 307.84 126.613 301.54 115.623 301.54C109.113 301.54 104.073 303.78 101.553 307.84L103.303 293.63H130.393V286.35H96.2325L93.1525 314.84L101.693 315.61C103.513 310.92 107.083 308.33 112.893 308.33C119.893 308.33 123.812 312.25 123.812 318.83C123.812 325.34 119.613 329.19 112.473 329.19C106.243 329.19 102.183 325.97 101.133 321.14L91.8225 322.4C93.4325 331.01 101.203 336.33 112.333 336.33ZM179.029 335H190.439L169.089 304.69L188.899 285.3H176.929L152.429 309.45V285.3H142.699V335H152.429V320.3L162.089 311.06L179.029 335Z" fill="#054217"/>
<path d="M69.16 566.42C69.16 557.81 63.91 553.54 52.64 551.72L48.58 551.23V537.02C54.95 537.72 58.87 540.52 60.9 545.35L68.25 541.36C64.89 534.43 58.31 530.72 48.58 530.16V524.07H44.1V530.16C32.13 530.65 24.92 535.83 24.92 543.81C24.92 551.65 29.89 556.06 40.32 557.81L44.1 558.3V574.12C37.31 573.42 32.55 570.41 30.03 564.67L22.19 568.17C25.2 576.15 33.04 580.63 44.1 581.26V587.35H48.58V581.33C61.39 580.84 69.16 575.1 69.16 566.42ZM43.96 550.6C36.75 549.41 33.95 547.38 33.95 543.46C33.95 539.26 37.52 537.16 44.1 536.88V550.6H43.96ZM48.58 574.26V558.86L49.63 559C56.98 560.26 59.99 562.22 59.99 566.77C59.99 571.46 55.93 573.98 48.58 574.26ZM85.9376 580H95.1776V531.35H87.3376C85.5876 536.67 81.1776 539.68 75.0176 539.75H73.4076V547.8H75.9976C80.1276 547.8 84.1176 546.47 85.9376 544.3V580ZM119.125 570.27H108.275V580H119.125V570.27ZM147.059 581.33C159.869 581.33 167.919 574.33 167.919 563.55C167.919 552.84 161.339 546.54 150.349 546.54C143.839 546.54 138.799 548.78 136.279 552.84L138.029 538.63H165.119V531.35H130.959L127.879 559.84L136.419 560.61C138.239 555.92 141.809 553.33 147.619 553.33C154.619 553.33 158.539 557.25 158.539 563.83C158.539 570.34 154.339 574.19 147.199 574.19C140.969 574.19 136.909 570.97 135.859 566.14L126.549 567.4C128.159 576.01 135.929 581.33 147.059 581.33ZM194.295 581.33C207.105 581.33 215.155 574.33 215.155 563.55C215.155 552.84 208.575 546.54 197.585 546.54C191.075 546.54 186.035 548.78 183.515 552.84L185.265 538.63H212.355V531.35H178.195L175.115 559.84L183.655 560.61C185.475 555.92 189.045 553.33 194.855 553.33C201.855 553.33 205.775 557.25 205.775 563.83C205.775 570.34 201.575 574.19 194.435 574.19C188.205 574.19 184.145 570.97 183.095 566.14L173.785 567.4C175.395 576.01 183.165 581.33 194.295 581.33ZM224.662 580H233.272V544.02C233.272 541.78 233.132 539.75 232.922 538H233.202C233.482 539.33 234.182 541.92 234.882 543.81L249.022 580H257.982L272.122 543.81C272.892 541.92 273.732 539.12 273.942 538H274.222C274.012 539.82 273.872 541.99 273.872 544.02V580H282.762V530.3H268.552L255.182 564.95C254.412 567.05 253.992 568.31 253.712 569.99H253.572C253.292 568.31 252.872 567.12 252.172 564.95L238.732 530.3H224.662V580Z" fill="#054217"/>
<path d="M44.52 455.33C57.33 455.33 65.38 448.33 65.38 437.55C65.38 426.84 58.8 420.54 47.81 420.54C41.3 420.54 36.26 422.78 33.74 426.84L35.49 412.63H62.58V405.35H28.42L25.34 433.84L33.88 434.61C35.7 429.92 39.27 427.33 45.08 427.33C52.08 427.33 56 431.25 56 437.83C56 444.34 51.8 448.19 44.66 448.19C38.43 448.19 34.37 444.97 33.32 440.14L24.01 441.4C25.62 450.01 33.39 455.33 44.52 455.33ZM77.4473 454H87.7373V452.18C87.7373 436.57 95.0873 423.13 107.267 412.28V405.35H67.9273V413.05H97.3273C84.7973 424.67 77.4473 438.46 77.4473 453.09V454Z" fill="#054217"/>
<path d="M35.92 215H46.21V213.18C46.21 197.57 53.56 184.13 65.74 173.28V166.35H26.4V174.05H55.8C43.27 185.67 35.92 199.46 35.92 214.09V215ZM74.863 205.27H64.013V215H74.863V205.27ZM104.227 216.33C118.507 216.33 127.187 206.46 127.187 190.71C127.187 174.89 118.507 165.02 104.227 165.02C89.9469 165.02 81.1969 174.89 81.1969 190.71C81.1969 206.46 89.9469 216.33 104.227 216.33ZM104.227 209.12C95.6869 209.12 90.7169 202.33 90.7169 190.71C90.7169 178.95 95.6869 172.23 104.227 172.23C112.767 172.23 117.737 178.95 117.737 190.71C117.737 202.33 112.767 209.12 104.227 209.12Z" fill="#054217"/>
<path d="M34.5316 35H36.549L32.4834 24.066H30.3274L26.2618 35H28.2792L29.2648 32.1202H33.546L34.5316 35ZM29.7884 30.611L31.0666 26.915C31.1898 26.5608 31.2976 26.1758 31.39 25.7446H31.4208C31.5132 26.1758 31.621 26.5608 31.7442 26.915L33.0224 30.611H29.7884ZM44.662 27.3616C44.893 27.3616 45.0932 27.3924 45.2934 27.4386V26.0526C45.1394 26.0218 45.0162 26.0064 44.8622 26.0064C43.7534 26.0064 43.0912 26.5762 42.8448 27.4232C42.3828 27.223 41.8438 27.1152 41.2124 27.1152C39.2566 27.1152 38.0554 28.1778 38.0554 29.7024C38.0554 30.5032 38.3942 31.1962 38.9948 31.6736C38.2402 31.9662 37.7782 32.5052 37.7782 33.306C37.7782 33.9066 38.0708 34.4148 38.7484 34.692C37.9168 34.9692 37.4702 35.5236 37.4702 36.2012C37.4702 37.2946 38.4404 38.1878 41.0892 38.1878C43.8612 38.1878 45.201 37.156 45.201 35.5698C45.201 34.1376 44.277 33.3522 42.4752 33.3522H40.4578C39.6108 33.3522 39.2874 33.0596 39.2874 32.6438C39.2874 32.3666 39.4414 32.1818 39.6724 32.0586C40.1036 32.2434 40.6272 32.3358 41.2124 32.3358C43.1836 32.3358 44.3848 31.227 44.3848 29.7024C44.3848 28.9478 44.0922 28.3164 43.5686 27.8544C43.7842 27.531 44.1692 27.3616 44.662 27.3616ZM41.2124 31.2116C40.35 31.2116 39.7956 30.5802 39.7956 29.7024C39.7956 28.84 40.35 28.2394 41.2124 28.2394C42.0748 28.2394 42.6292 28.84 42.6292 29.7178C42.6292 30.5802 42.0748 31.2116 41.2124 31.2116ZM42.198 34.9384C43.0758 34.9384 43.5224 35.2618 43.5224 35.8778C43.5224 36.5092 42.968 36.9866 41.2124 36.9866C39.888 36.9866 39.0102 36.6786 39.0102 35.8624C39.0102 35.4928 39.1796 35.1386 39.5492 34.9076C39.7494 34.923 39.965 34.9384 40.196 34.9384H42.198ZM53.0721 30.765C53.0721 28.4088 51.7939 27.1152 49.5609 27.1152C47.2663 27.1152 45.8803 28.686 45.8803 31.227C45.8803 33.7526 47.2971 35.1848 49.6533 35.1848C51.2241 35.1848 52.4407 34.4456 53.0105 33.1058L51.5937 32.459C51.2395 33.2906 50.5927 33.7372 49.7149 33.7372C48.4983 33.7372 47.6821 32.9056 47.6667 31.612H53.0721V30.765ZM51.2549 30.3954H47.6667C47.6975 29.1172 48.3597 28.3472 49.5301 28.3472C50.6235 28.3472 51.2549 29.0094 51.2549 30.2722V30.3954Z" fill="#362B26"/>
<path d="M34.7472 264.066H26.1386V265.683H29.4496V275H31.4362V265.683H34.7472V264.066ZM38.2236 275.185C40.4412 275.185 41.9966 273.722 41.9966 271.135C41.9966 268.563 40.4412 267.115 38.2236 267.115C36.006 267.115 34.4506 268.563 34.4506 271.135C34.4506 273.722 36.006 275.185 38.2236 275.185ZM38.2236 273.783C37.0378 273.783 36.3294 272.89 36.3294 271.135C36.3294 269.379 37.0378 268.517 38.2236 268.517C39.4094 268.517 40.1024 269.379 40.1024 271.135C40.1024 272.89 39.4094 273.783 38.2236 273.783ZM42.7274 268.64H44.1134V272.613C44.1134 274.168 44.7294 275.139 46.5774 275.139C47.0548 275.139 47.3936 275.092 47.8402 275V273.445C47.5938 273.491 47.3936 273.537 47.0856 273.537C46.3156 273.537 45.9614 273.137 45.9614 272.32V268.64H47.8402V267.3H45.9614V264.62L44.1134 265.36V267.3H42.7274V268.64ZM51.4757 275.185C52.7077 275.185 53.6779 274.615 54.0475 273.676C54.0629 274.153 54.1091 274.615 54.1707 275H56.0187C55.8647 274.461 55.7877 273.66 55.7877 272.613V270.318C55.7877 268.085 54.7713 267.115 52.4921 267.115C50.5055 267.115 49.2119 268.132 49.0887 269.779H50.9829C51.0445 268.902 51.5835 268.424 52.4921 268.424C53.4777 268.424 53.9243 268.917 53.9243 270.072V270.272L52.2919 270.472C51.0753 270.642 50.3361 270.842 49.7817 271.165C49.1657 271.55 48.8423 272.166 48.8423 272.906C48.8423 274.276 49.8895 275.185 51.4757 275.185ZM52.0609 273.876C51.2447 273.876 50.7519 273.46 50.7519 272.813C50.7519 272.151 51.2139 271.781 52.2303 271.612L53.9705 271.35V271.843C53.9705 273.06 53.2005 273.876 52.0609 273.876ZM59.9871 263.835H58.1391V275H59.9871V263.835ZM70.8898 275.262C73.554 275.262 75.0478 273.706 75.5098 271.52L73.5386 271.119C73.2614 272.659 72.3066 273.599 70.9052 273.599C68.9032 273.599 67.8252 271.889 67.8252 269.502C67.8252 267.054 68.934 265.437 70.859 265.437C72.3682 265.437 73.2768 266.422 73.4616 267.978L75.4944 267.685C75.2018 265.36 73.6464 263.804 70.9206 263.804C67.6404 263.804 65.777 266.114 65.777 269.518C65.777 272.829 67.4556 275.262 70.8898 275.262ZM79.4032 275.185C80.6352 275.185 81.6054 274.615 81.975 273.676C81.9904 274.153 82.0366 274.615 82.0982 275H83.9462C83.7922 274.461 83.7152 273.66 83.7152 272.613V270.318C83.7152 268.085 82.6988 267.115 80.4196 267.115C78.433 267.115 77.1394 268.132 77.0162 269.779H78.9104C78.972 268.902 79.511 268.424 80.4196 268.424C81.4052 268.424 81.8518 268.917 81.8518 270.072V270.272L80.2194 270.472C79.0028 270.642 78.2636 270.842 77.7092 271.165C77.0932 271.55 76.7698 272.166 76.7698 272.906C76.7698 274.276 77.817 275.185 79.4032 275.185ZM79.9884 273.876C79.1722 273.876 78.6794 273.46 78.6794 272.813C78.6794 272.151 79.1414 271.781 80.1578 271.612L81.898 271.35V271.843C81.898 273.06 81.128 273.876 79.9884 273.876ZM87.7144 269.163V267.3H85.9896V275H87.8376V271.766C87.8376 270.919 87.9146 270.041 88.5306 269.441C88.8848 269.102 89.393 268.886 90.1322 268.886C90.2246 268.886 90.3016 268.902 90.3786 268.902V267.131C90.3016 267.115 90.24 267.115 90.163 267.115C88.9156 267.115 88.0994 267.947 87.7144 269.163ZM96.1196 275.185C98.0446 275.185 99.292 273.568 99.292 271.15C99.292 268.763 98.0754 267.115 96.1966 267.115C95.057 267.115 94.2254 267.7 93.825 268.501V263.835H91.977V275H93.5324L93.7172 273.753C94.1176 274.615 94.98 275.185 96.1196 275.185ZM95.5344 273.768C94.4256 273.768 93.7788 272.859 93.7788 271.427V270.904C93.7788 269.441 94.441 268.532 95.5344 268.532C96.7202 268.532 97.367 269.548 97.367 271.15C97.367 272.782 96.6894 273.768 95.5344 273.768ZM104.29 275.185C106.508 275.185 108.063 273.722 108.063 271.135C108.063 268.563 106.508 267.115 104.29 267.115C102.073 267.115 100.517 268.563 100.517 271.135C100.517 273.722 102.073 275.185 104.29 275.185ZM104.29 273.783C103.104 273.783 102.396 272.89 102.396 271.135C102.396 269.379 103.104 268.517 104.29 268.517C105.476 268.517 106.169 269.379 106.169 271.135C106.169 272.89 105.476 273.783 104.29 273.783ZM109.887 275H111.735V270.919C111.735 269.456 112.381 268.594 113.459 268.594C114.43 268.594 114.907 269.194 114.907 270.411V275H116.755V270.226C116.755 268.162 115.877 267.115 114.199 267.115C113.013 267.115 112.166 267.67 111.642 268.794V267.3H109.887V275ZM126.514 275.262C129.301 275.262 130.718 273.783 130.718 271.905C130.718 269.964 129.517 269.133 127.715 268.748L126.129 268.409C124.928 268.147 124.435 267.685 124.435 266.792C124.435 265.868 125.236 265.313 126.421 265.313C127.869 265.313 128.778 266.037 129.132 267.3L130.718 266.468C130.241 264.651 128.593 263.804 126.514 263.804C124.05 263.804 122.51 265.052 122.51 266.946C122.51 268.809 123.649 269.733 125.374 270.087L126.899 270.411C128.1 270.657 128.747 271.027 128.747 272.089C128.747 273.229 127.7 273.676 126.575 273.676C124.881 273.676 123.988 272.69 123.619 271.458L121.925 272.197C122.371 273.984 123.927 275.262 126.514 275.262ZM131.353 268.64H132.739V272.613C132.739 274.168 133.355 275.139 135.203 275.139C135.68 275.139 136.019 275.092 136.465 275V273.445C136.219 273.491 136.019 273.537 135.711 273.537C134.941 273.537 134.587 273.137 134.587 272.32V268.64H136.465V267.3H134.587V264.62L132.739 265.36V267.3H131.353V268.64ZM141.211 275.185C143.429 275.185 144.984 273.722 144.984 271.135C144.984 268.563 143.429 267.115 141.211 267.115C138.994 267.115 137.438 268.563 137.438 271.135C137.438 273.722 138.994 275.185 141.211 275.185ZM141.211 273.783C140.025 273.783 139.317 272.89 139.317 271.135C139.317 269.379 140.025 268.517 141.211 268.517C142.397 268.517 143.09 269.379 143.09 271.135C143.09 272.89 142.397 273.783 141.211 273.783ZM148.532 269.163V267.3H146.808V275H148.656V271.766C148.656 270.919 148.733 270.041 149.349 269.441C149.703 269.102 150.211 268.886 150.95 268.886C151.043 268.886 151.12 268.902 151.197 268.902V267.131C151.12 267.115 151.058 267.115 150.981 267.115C149.734 267.115 148.917 267.947 148.532 269.163ZM159.188 270.765C159.188 268.409 157.91 267.115 155.677 267.115C153.382 267.115 151.996 268.686 151.996 271.227C151.996 273.753 153.413 275.185 155.769 275.185C157.34 275.185 158.556 274.446 159.126 273.106L157.709 272.459C157.355 273.291 156.708 273.737 155.831 273.737C154.614 273.737 153.798 272.906 153.782 271.612H159.188V270.765ZM157.371 270.395H153.782C153.813 269.117 154.475 268.347 155.646 268.347C156.739 268.347 157.371 269.009 157.371 270.272V270.395ZM163.604 275.185C164.759 275.185 165.637 274.6 166.068 273.614V275H167.808V263.835H165.96V268.393C165.529 267.531 164.759 267.115 163.743 267.115C161.818 267.115 160.493 268.748 160.493 271.165C160.493 273.568 161.741 275.185 163.604 275.185ZM164.236 273.768C163.111 273.768 162.418 272.782 162.418 271.135C162.418 269.487 163.096 268.532 164.22 268.532C165.329 268.532 166.007 269.41 166.007 270.919V271.412C166.007 272.859 165.314 273.768 164.236 273.768Z" fill="#362B26"/>
<path d="M34.5316 517H36.549L32.4834 506.066H30.3274L26.2618 517H28.2792L29.2648 514.12H33.546L34.5316 517ZM29.7884 512.611L31.0666 508.915C31.1898 508.561 31.2976 508.176 31.39 507.745H31.4208C31.5132 508.176 31.621 508.561 31.7442 508.915L33.0224 512.611H29.7884ZM41.0209 517.185C42.8535 517.185 44.1471 516.138 44.4243 514.428L42.6841 514.074C42.5147 515.152 41.9449 515.722 41.0209 515.722C39.8351 515.722 39.1421 514.767 39.1421 513.104C39.1421 511.518 39.8505 510.563 40.9901 510.563C41.8987 510.563 42.4993 511.133 42.6225 512.18L44.4243 511.887C44.1933 510.132 42.9459 509.115 41.0363 509.115C38.6955 509.115 37.2479 510.64 37.2479 513.15C37.2479 515.599 38.7263 517.185 41.0209 517.185ZM49.3826 517.185C51.2152 517.185 52.5088 516.138 52.786 514.428L51.0458 514.074C50.8764 515.152 50.3066 515.722 49.3826 515.722C48.1968 515.722 47.5038 514.767 47.5038 513.104C47.5038 511.518 48.2122 510.563 49.3518 510.563C50.2604 510.563 50.861 511.133 50.9842 512.18L52.786 511.887C52.555 510.132 51.3076 509.115 49.398 509.115C47.0572 509.115 45.6096 510.64 45.6096 513.15C45.6096 515.599 47.088 517.185 49.3826 517.185ZM56.9908 517.185C58.0996 517.185 59.0236 516.523 59.3932 515.568V517H61.1488V509.3H59.2854V513.566C59.2854 514.859 58.6078 515.706 57.5914 515.706C56.6982 515.706 56.2362 515.09 56.2362 513.966V509.3H54.3882V514.243C54.3882 516.045 55.112 517.185 56.9908 517.185ZM63.5965 509.3V517H65.4445V512.549C65.4445 511.317 65.9835 510.594 66.9075 510.594C67.7237 510.594 68.1549 511.148 68.1549 512.211V517H70.0029V512.503C70.0029 511.271 70.5265 510.594 71.4659 510.594C72.3129 510.594 72.7287 511.133 72.7287 512.257V517H74.5767V511.964C74.5767 510.162 73.6989 509.115 72.2205 509.115C71.1425 509.115 70.3417 509.623 69.8181 510.671C69.4485 509.639 68.7093 509.115 67.6313 509.115C66.5533 509.115 65.8141 509.623 65.3521 510.655V509.3H63.5965ZM79.2637 517.185C80.3725 517.185 81.2965 516.523 81.6661 515.568V517H83.4217V509.3H81.5583V513.566C81.5583 514.859 80.8807 515.706 79.8643 515.706C78.9711 515.706 78.5091 515.09 78.5091 513.966V509.3H76.6611V514.243C76.6611 516.045 77.3849 517.185 79.2637 517.185ZM87.7943 505.835H85.9463V517H87.7943V505.835ZM92.2767 517.185C93.5087 517.185 94.4789 516.615 94.8485 515.676C94.8639 516.153 94.9101 516.615 94.9717 517H96.8197C96.6657 516.461 96.5887 515.66 96.5887 514.613V512.318C96.5887 510.085 95.5723 509.115 93.2931 509.115C91.3065 509.115 90.0129 510.132 89.8897 511.779H91.7839C91.8455 510.902 92.3845 510.424 93.2931 510.424C94.2787 510.424 94.7253 510.917 94.7253 512.072V512.272L93.0929 512.472C91.8763 512.642 91.1371 512.842 90.5827 513.165C89.9667 513.55 89.6433 514.166 89.6433 514.906C89.6433 516.276 90.6905 517.185 92.2767 517.185ZM92.8619 515.876C92.0457 515.876 91.5529 515.46 91.5529 514.813C91.5529 514.151 92.0149 513.781 93.0313 513.612L94.7715 513.35V513.843C94.7715 515.06 94.0015 515.876 92.8619 515.876ZM97.7253 510.64H99.1113V514.613C99.1113 516.168 99.7273 517.139 101.575 517.139C102.053 517.139 102.391 517.092 102.838 517V515.445C102.592 515.491 102.391 515.537 102.083 515.537C101.313 515.537 100.959 515.137 100.959 514.32V510.64H102.838V509.3H100.959V506.62L99.1113 507.36V509.3H97.7253V510.64ZM104.44 508.022H106.442V506.097H104.44V508.022ZM104.533 517H106.381V509.3H104.533V517ZM110.451 517H112.453L115.194 509.3H113.254L111.76 514.182C111.637 514.582 111.544 514.967 111.483 515.321H111.437C111.375 514.967 111.283 514.582 111.159 514.182L109.65 509.3H107.71L110.451 517ZM122.929 512.765C122.929 510.409 121.65 509.115 119.417 509.115C117.123 509.115 115.737 510.686 115.737 513.227C115.737 515.753 117.154 517.185 119.51 517.185C121.081 517.185 122.297 516.446 122.867 515.106L121.45 514.459C121.096 515.291 120.449 515.737 119.571 515.737C118.355 515.737 117.539 514.906 117.523 513.612H122.929V512.765ZM121.111 512.395H117.523C117.554 511.117 118.216 510.347 119.387 510.347C120.48 510.347 121.111 511.009 121.111 512.272V512.395ZM133.197 517.262C135.861 517.262 137.355 515.706 137.817 513.52L135.845 513.119C135.568 514.659 134.613 515.599 133.212 515.599C131.21 515.599 130.132 513.889 130.132 511.502C130.132 509.054 131.241 507.437 133.166 507.437C134.675 507.437 135.584 508.422 135.768 509.978L137.801 509.685C137.509 507.36 135.953 505.804 133.227 505.804C129.947 505.804 128.084 508.114 128.084 511.518C128.084 514.829 129.762 517.262 133.197 517.262ZM141.71 517.185C142.942 517.185 143.912 516.615 144.282 515.676C144.297 516.153 144.343 516.615 144.405 517H146.253C146.099 516.461 146.022 515.66 146.022 514.613V512.318C146.022 510.085 145.006 509.115 142.726 509.115C140.74 509.115 139.446 510.132 139.323 511.779H141.217C141.279 510.902 141.818 510.424 142.726 510.424C143.712 510.424 144.159 510.917 144.159 512.072V512.272L142.526 512.472C141.31 512.642 140.57 512.842 140.016 513.165C139.4 513.55 139.077 514.166 139.077 514.906C139.077 516.276 140.124 517.185 141.71 517.185ZM142.295 515.876C141.479 515.876 140.986 515.46 140.986 514.813C140.986 514.151 141.448 513.781 142.465 513.612L144.205 513.35V513.843C144.205 515.06 143.435 515.876 142.295 515.876ZM150.021 511.163V509.3H148.296V517H150.144V513.766C150.144 512.919 150.221 512.041 150.837 511.441C151.192 511.102 151.7 510.886 152.439 510.886C152.531 510.886 152.608 510.902 152.685 510.902V509.131C152.608 509.115 152.547 509.115 152.47 509.115C151.222 509.115 150.406 509.947 150.021 511.163ZM158.426 517.185C160.351 517.185 161.599 515.568 161.599 513.15C161.599 510.763 160.382 509.115 158.503 509.115C157.364 509.115 156.532 509.7 156.132 510.501V505.835H154.284V517H155.839L156.024 515.753C156.424 516.615 157.287 517.185 158.426 517.185ZM157.841 515.768C156.732 515.768 156.086 514.859 156.086 513.427V512.904C156.086 511.441 156.748 510.532 157.841 510.532C159.027 510.532 159.674 511.548 159.674 513.15C159.674 514.782 158.996 515.768 157.841 515.768ZM166.597 517.185C168.815 517.185 170.37 515.722 170.37 513.135C170.37 510.563 168.815 509.115 166.597 509.115C164.379 509.115 162.824 510.563 162.824 513.135C162.824 515.722 164.379 517.185 166.597 517.185ZM166.597 515.783C165.411 515.783 164.703 514.89 164.703 513.135C164.703 511.379 165.411 510.517 166.597 510.517C167.783 510.517 168.476 511.379 168.476 513.135C168.476 514.89 167.783 515.783 166.597 515.783ZM172.194 517H174.042V512.919C174.042 511.456 174.688 510.594 175.766 510.594C176.737 510.594 177.214 511.194 177.214 512.411V517H179.062V512.226C179.062 510.162 178.184 509.115 176.506 509.115C175.32 509.115 174.473 509.67 173.949 510.794V509.3H172.194V517ZM188.821 517.262C191.608 517.262 193.025 515.783 193.025 513.905C193.025 511.964 191.824 511.133 190.022 510.748L188.436 510.409C187.234 510.147 186.742 509.685 186.742 508.792C186.742 507.868 187.542 507.313 188.728 507.313C190.176 507.313 191.084 508.037 191.439 509.3L193.025 508.468C192.547 506.651 190.9 505.804 188.821 505.804C186.357 505.804 184.817 507.052 184.817 508.946C184.817 510.809 185.956 511.733 187.681 512.087L189.206 512.411C190.407 512.657 191.054 513.027 191.054 514.089C191.054 515.229 190.006 515.676 188.882 515.676C187.188 515.676 186.295 514.69 185.925 513.458L184.231 514.197C184.678 515.984 186.233 517.262 188.821 517.262ZM193.659 510.64H195.045V514.613C195.045 516.168 195.661 517.139 197.509 517.139C197.987 517.139 198.326 517.092 198.772 517V515.445C198.526 515.491 198.326 515.537 198.018 515.537C197.248 515.537 196.893 515.137 196.893 514.32V510.64H198.772V509.3H196.893V506.62L195.045 507.36V509.3H193.659V510.64ZM203.518 517.185C205.736 517.185 207.291 515.722 207.291 513.135C207.291 510.563 205.736 509.115 203.518 509.115C201.3 509.115 199.745 510.563 199.745 513.135C199.745 515.722 201.3 517.185 203.518 517.185ZM203.518 515.783C202.332 515.783 201.624 514.89 201.624 513.135C201.624 511.379 202.332 510.517 203.518 510.517C204.704 510.517 205.397 511.379 205.397 513.135C205.397 514.89 204.704 515.783 203.518 515.783ZM210.839 511.163V509.3H209.114V517H210.962V513.766C210.962 512.919 211.039 512.041 211.655 511.441C212.01 511.102 212.518 510.886 213.257 510.886C213.349 510.886 213.426 510.902 213.503 510.902V509.131C213.426 509.115 213.365 509.115 213.288 509.115C212.04 509.115 211.224 509.947 210.839 511.163ZM216.905 517.185C218.137 517.185 219.108 516.615 219.477 515.676C219.493 516.153 219.539 516.615 219.6 517H221.448C221.294 516.461 221.217 515.66 221.217 514.613V512.318C221.217 510.085 220.201 509.115 217.922 509.115C215.935 509.115 214.642 510.132 214.518 511.779H216.413C216.474 510.902 217.013 510.424 217.922 510.424C218.907 510.424 219.354 510.917 219.354 512.072V512.272L217.722 512.472C216.505 512.642 215.766 512.842 215.211 513.165C214.595 513.55 214.272 514.166 214.272 514.906C214.272 516.276 215.319 517.185 216.905 517.185ZM217.491 515.876C216.674 515.876 216.182 515.46 216.182 514.813C216.182 514.151 216.644 513.781 217.66 513.612L219.4 513.35V513.843C219.4 515.06 218.63 515.876 217.491 515.876ZM229.748 509.362C229.979 509.362 230.179 509.392 230.379 509.439V508.053C230.225 508.022 230.102 508.006 229.948 508.006C228.839 508.006 228.177 508.576 227.931 509.423C227.469 509.223 226.93 509.115 226.298 509.115C224.342 509.115 223.141 510.178 223.141 511.702C223.141 512.503 223.48 513.196 224.081 513.674C223.326 513.966 222.864 514.505 222.864 515.306C222.864 515.907 223.157 516.415 223.834 516.692C223.003 516.969 222.556 517.524 222.556 518.201C222.556 519.295 223.526 520.188 226.175 520.188C228.947 520.188 230.287 519.156 230.287 517.57C230.287 516.138 229.363 515.352 227.561 515.352H225.544C224.697 515.352 224.373 515.06 224.373 514.644C224.373 514.367 224.527 514.182 224.758 514.059C225.189 514.243 225.713 514.336 226.298 514.336C228.269 514.336 229.471 513.227 229.471 511.702C229.471 510.948 229.178 510.316 228.654 509.854C228.87 509.531 229.255 509.362 229.748 509.362ZM226.298 513.212C225.436 513.212 224.881 512.58 224.881 511.702C224.881 510.84 225.436 510.239 226.298 510.239C227.161 510.239 227.715 510.84 227.715 511.718C227.715 512.58 227.161 513.212 226.298 513.212ZM227.284 516.938C228.162 516.938 228.608 517.262 228.608 517.878C228.608 518.509 228.054 518.987 226.298 518.987C224.974 518.987 224.096 518.679 224.096 517.862C224.096 517.493 224.265 517.139 224.635 516.908C224.835 516.923 225.051 516.938 225.282 516.938H227.284ZM238.158 512.765C238.158 510.409 236.88 509.115 234.647 509.115C232.352 509.115 230.966 510.686 230.966 513.227C230.966 515.753 232.383 517.185 234.739 517.185C236.31 517.185 237.526 516.446 238.096 515.106L236.679 514.459C236.325 515.291 235.678 515.737 234.801 515.737C233.584 515.737 232.768 514.906 232.752 513.612H238.158V512.765ZM236.341 512.395H232.752C232.783 511.117 233.445 510.347 234.616 510.347C235.709 510.347 236.341 511.009 236.341 512.272V512.395ZM246.516 517H248.78L252.522 506.066H250.397L248.056 513.643C247.856 514.29 247.748 514.721 247.687 515.137H247.625C247.548 514.721 247.44 514.29 247.24 513.643L244.899 506.066H242.79L246.516 517ZM255.345 517.185C256.577 517.185 257.547 516.615 257.917 515.676C257.932 516.153 257.979 516.615 258.04 517H259.888C259.734 516.461 259.657 515.66 259.657 514.613V512.318C259.657 510.085 258.641 509.115 256.362 509.115C254.375 509.115 253.081 510.132 252.958 511.779H254.852C254.914 510.902 255.453 510.424 256.362 510.424C257.347 510.424 257.794 510.917 257.794 512.072V512.272L256.161 512.472C254.945 512.642 254.206 512.842 253.651 513.165C253.035 513.55 252.712 514.166 252.712 514.906C252.712 516.276 253.759 517.185 255.345 517.185ZM255.93 515.876C255.114 515.876 254.621 515.46 254.621 514.813C254.621 514.151 255.083 513.781 256.1 513.612L257.84 513.35V513.843C257.84 515.06 257.07 515.876 255.93 515.876ZM263.857 505.835H262.009V517H263.857V505.835ZM268.801 517.185C269.91 517.185 270.834 516.523 271.203 515.568V517H272.959V509.3H271.096V513.566C271.096 514.859 270.418 515.706 269.402 515.706C268.508 515.706 268.046 515.09 268.046 513.966V509.3H266.198V514.243C266.198 516.045 266.922 517.185 268.801 517.185ZM281.952 512.765C281.952 510.409 280.673 509.115 278.44 509.115C276.146 509.115 274.76 510.686 274.76 513.227C274.76 515.753 276.177 517.185 278.533 517.185C280.104 517.185 281.32 516.446 281.89 515.106L280.473 514.459C280.119 515.291 279.472 515.737 278.594 515.737C277.378 515.737 276.562 514.906 276.546 513.612H281.952V512.765ZM280.134 512.395H276.546C276.577 511.117 277.239 510.347 278.41 510.347C279.503 510.347 280.134 511.009 280.134 512.272V512.395Z" fill="#362B26"/>
<path d="M29.7884 395H32.0522L35.7944 384.066H33.6692L31.3284 391.643C31.1282 392.29 31.0204 392.721 30.9588 393.137H30.8972C30.8202 392.721 30.7124 392.29 30.5122 391.643L28.1714 384.066H26.0616L29.7884 395ZM39.6975 395.185C41.9151 395.185 43.4705 393.722 43.4705 391.135C43.4705 388.563 41.9151 387.115 39.6975 387.115C37.4799 387.115 35.9245 388.563 35.9245 391.135C35.9245 393.722 37.4799 395.185 39.6975 395.185ZM39.6975 393.783C38.5117 393.783 37.8033 392.89 37.8033 391.135C37.8033 389.379 38.5117 388.517 39.6975 388.517C40.8833 388.517 41.5763 389.379 41.5763 391.135C41.5763 392.89 40.8833 393.783 39.6975 393.783ZM47.2189 383.835H45.3709V395H47.2189V383.835ZM52.1633 395.185C53.2721 395.185 54.1961 394.523 54.5657 393.568V395H56.3213V387.3H54.4579V391.566C54.4579 392.859 53.7803 393.706 52.7639 393.706C51.8707 393.706 51.4087 393.09 51.4087 391.966V387.3H49.5607V392.243C49.5607 394.045 50.2845 395.185 52.1633 395.185ZM58.7689 387.3V395H60.6169V390.549C60.6169 389.317 61.1559 388.594 62.0799 388.594C62.8961 388.594 63.3273 389.148 63.3273 390.211V395H65.1753V390.503C65.1753 389.271 65.6989 388.594 66.6383 388.594C67.4853 388.594 67.9011 389.133 67.9011 390.257V395H69.7491V389.964C69.7491 388.162 68.8713 387.115 67.3929 387.115C66.3149 387.115 65.5141 387.623 64.9905 388.671C64.6209 387.639 63.8817 387.115 62.8037 387.115C61.7257 387.115 60.9865 387.623 60.5245 388.655V387.3H58.7689ZM78.5633 390.765C78.5633 388.409 77.2851 387.115 75.0521 387.115C72.7575 387.115 71.3715 388.686 71.3715 391.227C71.3715 393.753 72.7883 395.185 75.1445 395.185C76.7153 395.185 77.9319 394.446 78.5017 393.106L77.0849 392.459C76.7307 393.291 76.0839 393.737 75.2061 393.737C73.9895 393.737 73.1733 392.906 73.1579 391.612H78.5633V390.765ZM76.7461 390.395H73.1579C73.1887 389.117 73.8509 388.347 75.0213 388.347C76.1147 388.347 76.7461 389.009 76.7461 390.272V390.395Z" fill="#362B26"/>
<path d="M34.5316 155H36.549L32.4834 144.066H30.3274L26.2618 155H28.2792L29.2648 152.12H33.546L34.5316 155ZM29.7884 150.611L31.0666 146.915C31.1898 146.561 31.2976 146.176 31.39 145.745H31.4208C31.5132 146.176 31.621 146.561 31.7442 146.915L33.0224 150.611H29.7884ZM39.3763 155H41.3783L44.1195 147.3H42.1791L40.6853 152.182C40.5621 152.582 40.4697 152.967 40.4081 153.321H40.3619C40.3003 152.967 40.2079 152.582 40.0847 152.182L38.5755 147.3H36.6351L39.3763 155ZM51.854 150.765C51.854 148.409 50.5758 147.115 48.3428 147.115C46.0482 147.115 44.6622 148.686 44.6622 151.227C44.6622 153.753 46.079 155.185 48.4352 155.185C50.006 155.185 51.2226 154.446 51.7924 153.106L50.3756 152.459C50.0214 153.291 49.3746 153.737 48.4968 153.737C47.2802 153.737 46.464 152.906 46.4486 151.612H51.854V150.765ZM50.0368 150.395H46.4486C46.4794 149.117 47.1416 148.347 48.312 148.347C49.4054 148.347 50.0368 149.009 50.0368 150.272V150.395ZM55.4707 149.163V147.3H53.7459V155H55.5939V151.766C55.5939 150.919 55.6709 150.041 56.2869 149.441C56.6411 149.102 57.1493 148.886 57.8885 148.886C57.9809 148.886 58.0579 148.902 58.1349 148.902V147.131C58.0579 147.115 57.9963 147.115 57.9193 147.115C56.6719 147.115 55.8557 147.947 55.4707 149.163ZM61.5368 155.185C62.7688 155.185 63.739 154.615 64.1086 153.676C64.124 154.153 64.1702 154.615 64.2318 155H66.0798C65.9258 154.461 65.8488 153.66 65.8488 152.613V150.318C65.8488 148.085 64.8324 147.115 62.5532 147.115C60.5666 147.115 59.273 148.132 59.1498 149.779H61.044C61.1056 148.902 61.6446 148.424 62.5532 148.424C63.5388 148.424 63.9854 148.917 63.9854 150.072V150.272L62.353 150.472C61.1364 150.642 60.3972 150.842 59.8428 151.165C59.2268 151.55 58.9034 152.166 58.9034 152.906C58.9034 154.276 59.9506 155.185 61.5368 155.185ZM62.122 153.876C61.3058 153.876 60.813 153.46 60.813 152.813C60.813 152.151 61.275 151.781 62.2914 151.612L64.0316 151.35V151.843C64.0316 153.06 63.2616 153.876 62.122 153.876ZM74.3792 147.362C74.6102 147.362 74.8104 147.392 75.0106 147.439V146.053C74.8566 146.022 74.7334 146.006 74.5794 146.006C73.4706 146.006 72.8084 146.576 72.562 147.423C72.1 147.223 71.561 147.115 70.9296 147.115C68.9738 147.115 67.7726 148.178 67.7726 149.702C67.7726 150.503 68.1114 151.196 68.712 151.674C67.9574 151.966 67.4954 152.505 67.4954 153.306C67.4954 153.907 67.788 154.415 68.4656 154.692C67.634 154.969 67.1874 155.524 67.1874 156.201C67.1874 157.295 68.1576 158.188 70.8064 158.188C73.5784 158.188 74.9182 157.156 74.9182 155.57C74.9182 154.138 73.9942 153.352 72.1924 153.352H70.175C69.328 153.352 69.0046 153.06 69.0046 152.644C69.0046 152.367 69.1586 152.182 69.3896 152.059C69.8208 152.243 70.3444 152.336 70.9296 152.336C72.9008 152.336 74.102 151.227 74.102 149.702C74.102 148.948 73.8094 148.316 73.2858 147.854C73.5014 147.531 73.8864 147.362 74.3792 147.362ZM70.9296 151.212C70.0672 151.212 69.5128 150.58 69.5128 149.702C69.5128 148.84 70.0672 148.239 70.9296 148.239C71.792 148.239 72.3464 148.84 72.3464 149.718C72.3464 150.58 71.792 151.212 70.9296 151.212ZM71.9152 154.938C72.793 154.938 73.2396 155.262 73.2396 155.878C73.2396 156.509 72.6852 156.987 70.9296 156.987C69.6052 156.987 68.7274 156.679 68.7274 155.862C68.7274 155.493 68.8968 155.139 69.2664 154.908C69.4666 154.923 69.6822 154.938 69.9132 154.938H71.9152ZM82.7893 150.765C82.7893 148.409 81.5111 147.115 79.2781 147.115C76.9835 147.115 75.5975 148.686 75.5975 151.227C75.5975 153.753 77.0143 155.185 79.3705 155.185C80.9413 155.185 82.1579 154.446 82.7277 153.106L81.3109 152.459C80.9567 153.291 80.3099 153.737 79.4321 153.737C78.2155 153.737 77.3993 152.906 77.3839 151.612H82.7893V150.765ZM80.9721 150.395H77.3839C77.4147 149.117 78.0769 148.347 79.2473 148.347C80.3407 148.347 80.9721 149.009 80.9721 150.272V150.395ZM97.6004 144.066H95.6138V148.64H90.7012V144.066H88.7146V155H90.7012V150.226H95.6138V155H97.6004V144.066ZM106.731 150.765C106.731 148.409 105.453 147.115 103.22 147.115C100.926 147.115 99.5397 148.686 99.5397 151.227C99.5397 153.753 100.956 155.185 103.313 155.185C104.883 155.185 106.1 154.446 106.67 153.106L105.253 152.459C104.899 153.291 104.252 153.737 103.374 153.737C102.158 153.737 101.341 152.906 101.326 151.612H106.731V150.765ZM104.914 150.395H101.326C101.357 149.117 102.019 148.347 103.189 148.347C104.283 148.347 104.914 149.009 104.914 150.272V150.395ZM108.531 146.022H110.533V144.097H108.531V146.022ZM108.623 155H110.471V147.3H108.623V155ZM119.331 147.362C119.562 147.362 119.762 147.392 119.962 147.439V146.053C119.808 146.022 119.685 146.006 119.531 146.006C118.422 146.006 117.76 146.576 117.514 147.423C117.052 147.223 116.513 147.115 115.881 147.115C113.926 147.115 112.724 148.178 112.724 149.702C112.724 150.503 113.063 151.196 113.664 151.674C112.909 151.966 112.447 152.505 112.447 153.306C112.447 153.907 112.74 154.415 113.417 154.692C112.586 154.969 112.139 155.524 112.139 156.201C112.139 157.295 113.109 158.188 115.758 158.188C118.53 158.188 119.87 157.156 119.87 155.57C119.87 154.138 118.946 153.352 117.144 153.352H115.127C114.28 153.352 113.956 153.06 113.956 152.644C113.956 152.367 114.11 152.182 114.341 152.059C114.773 152.243 115.296 152.336 115.881 152.336C117.853 152.336 119.054 151.227 119.054 149.702C119.054 148.948 118.761 148.316 118.238 147.854C118.453 147.531 118.838 147.362 119.331 147.362ZM115.881 151.212C115.019 151.212 114.465 150.58 114.465 149.702C114.465 148.84 115.019 148.239 115.881 148.239C116.744 148.239 117.298 148.84 117.298 149.718C117.298 150.58 116.744 151.212 115.881 151.212ZM116.867 154.938C117.745 154.938 118.191 155.262 118.191 155.878C118.191 156.509 117.637 156.987 115.881 156.987C114.557 156.987 113.679 156.679 113.679 155.862C113.679 155.493 113.849 155.139 114.218 154.908C114.418 154.923 114.634 154.938 114.865 154.938H116.867ZM121.529 155H123.377V150.919C123.377 149.441 124.008 148.594 125.117 148.594C126.056 148.594 126.549 149.194 126.549 150.365V155H128.397V150.211C128.397 148.178 127.519 147.115 125.856 147.115C124.686 147.115 123.839 147.654 123.377 148.717V143.835H121.529V155ZM129.443 148.64H130.829V152.613C130.829 154.168 131.445 155.139 133.293 155.139C133.77 155.139 134.109 155.092 134.555 155V153.445C134.309 153.491 134.109 153.537 133.801 153.537C133.031 153.537 132.677 153.137 132.677 152.32V148.64H134.555V147.3H132.677V144.62L130.829 145.36V147.3H129.443V148.64Z" fill="#362B26"/>
<path d="M29.384 112H31.544V109.012L35 103.48H32.696L30.716 106.78C30.596 106.996 30.524 107.164 30.488 107.344H30.464C30.428 107.164 30.356 106.996 30.236 106.78L28.304 103.48H25.94L29.384 109.012V112ZM38.6734 110.428V108.412H43.3054V106.9H38.6734V105.04H43.5094V103.48H36.5254V112H43.5934V110.428H38.6734ZM52.6696 112H54.9016L51.2896 103.48H48.7336L45.1096 112H47.3416L48.0616 110.14H51.9616L52.6696 112ZM48.6256 108.676L49.4416 106.54C49.7056 105.928 49.8736 105.532 49.9936 104.956H50.0176C50.1496 105.532 50.3176 105.928 50.5816 106.54L51.3976 108.676H48.6256ZM62.4115 112H64.7875L62.7475 108.532C64.0075 108.136 64.5355 107.14 64.5355 106.12C64.5355 104.668 63.6355 103.48 61.2715 103.48H56.6395V112H58.7875V108.82H60.6115L62.4115 112ZM58.7875 104.968H60.8035C61.8715 104.968 62.2795 105.472 62.2795 106.144C62.2795 106.852 61.8715 107.38 60.8035 107.38H58.7875V104.968ZM69.9882 112.24C72.5682 112.24 74.0322 111.172 74.0322 109.432C74.0322 107.932 73.1682 107.212 71.2962 106.912L69.5802 106.66C68.5602 106.492 68.2122 106.252 68.2122 105.7C68.2122 105.124 68.8242 104.8 69.8682 104.8C71.1282 104.8 72.1002 105.292 72.6282 106.144L74.0322 104.968C73.2282 103.804 71.8122 103.24 69.9882 103.24C67.5882 103.24 66.1602 104.212 66.1602 105.832C66.1602 107.308 67.0602 108.112 68.8122 108.388L70.5762 108.652C71.5362 108.796 71.9082 109.036 71.9082 109.624C71.9082 110.308 71.2362 110.62 70.0842 110.62C68.6802 110.62 67.6962 110.02 67.1442 109.06L65.5602 110.164C66.2682 111.46 67.8522 112.24 69.9882 112.24Z" fill="#054217"/>
<path d="M34.148 343.48H26.096V345.184H29.048V352H31.196V345.184H34.148V343.48ZM39.5878 352.24C42.5278 352.24 44.4358 350.488 44.4358 347.74C44.4358 344.992 42.5278 343.24 39.5878 343.24C36.6478 343.24 34.7398 344.992 34.7398 347.74C34.7398 350.488 36.6478 352.24 39.5878 352.24ZM39.5878 350.584C37.9918 350.584 36.9838 349.48 36.9838 347.74C36.9838 345.988 37.9918 344.896 39.5878 344.896C41.1838 344.896 42.1918 345.988 42.1918 347.74C42.1918 349.492 41.1838 350.584 39.5878 350.584ZM46.3246 352H48.2926V347.2C48.2926 346.792 48.2926 346.42 48.2806 346.06H48.3166C48.4366 346.348 48.6766 346.732 48.8806 347.056L52.5526 352H54.7846V343.48H52.8166V348.268V349.396H52.7926C52.6606 349.084 52.4446 348.7 52.2166 348.364L48.6766 343.48H46.3246V352ZM57.3543 352H59.3223V347.2C59.3223 346.792 59.3223 346.42 59.3103 346.06H59.3463C59.4663 346.348 59.7063 346.732 59.9103 347.056L63.5823 352H65.8143V343.48H63.8463V348.268V349.396H63.8223C63.6903 349.084 63.4743 348.7 63.2463 348.364L59.7063 343.48H57.3543V352ZM70.532 350.428V348.412H75.164V346.9H70.532V345.04H75.368V343.48H68.384V352H75.452V350.428H70.532ZM81.0999 352.24C83.6799 352.24 85.1439 351.172 85.1439 349.432C85.1439 347.932 84.2799 347.212 82.4079 346.912L80.6919 346.66C79.6719 346.492 79.3239 346.252 79.3239 345.7C79.3239 345.124 79.9359 344.8 80.9799 344.8C82.2399 344.8 83.2119 345.292 83.7399 346.144L85.1439 344.968C84.3399 343.804 82.9239 343.24 81.0999 343.24C78.6999 343.24 77.2719 344.212 77.2719 345.832C77.2719 347.308 78.1719 348.112 79.9239 348.388L81.6879 348.652C82.6479 348.796 83.0199 349.036 83.0199 349.624C83.0199 350.308 82.3479 350.62 81.1959 350.62C79.7919 350.62 78.8079 350.02 78.2559 349.06L76.6719 350.164C77.3799 351.46 78.9639 352.24 81.0999 352.24ZM96.0624 343.48H91.4184V352H93.5664V349.06H95.9904C98.0304 349.06 99.3144 347.968 99.3144 346.216C99.3144 344.536 98.0544 343.48 96.0624 343.48ZM95.5344 347.572H93.5664V344.992H95.5344C96.5064 344.992 97.0464 345.46 97.0464 346.276C97.0464 347.104 96.4944 347.572 95.5344 347.572ZM103.225 350.428V348.412H107.857V346.9H103.225V345.04H108.061V343.48H101.077V352H108.145V350.428H103.225ZM116.156 352H118.532L116.492 348.532C117.752 348.136 118.28 347.14 118.28 346.12C118.28 344.668 117.38 343.48 115.016 343.48H110.384V352H112.532V348.82H114.356L116.156 352ZM112.532 344.968H114.548C115.616 344.968 116.024 345.472 116.024 346.144C116.024 346.852 115.616 347.38 114.548 347.38H112.532V344.968ZM131.798 345.088V343.48H124.814V352H126.962V348.556H131.582V346.984H126.962V345.088H131.798ZM137.922 352.24C140.862 352.24 142.77 350.488 142.77 347.74C142.77 344.992 140.862 343.24 137.922 343.24C134.982 343.24 133.074 344.992 133.074 347.74C133.074 350.488 134.982 352.24 137.922 352.24ZM137.922 350.584C136.326 350.584 135.318 349.48 135.318 347.74C135.318 345.988 136.326 344.896 137.922 344.896C139.518 344.896 140.526 345.988 140.526 347.74C140.526 349.492 139.518 350.584 137.922 350.584ZM150.431 352H152.807L150.767 348.532C152.027 348.136 152.555 347.14 152.555 346.12C152.555 344.668 151.655 343.48 149.291 343.48H144.659V352H146.807V348.82H148.631L150.431 352ZM146.807 344.968H148.823C149.891 344.968 150.299 345.472 150.299 346.144C150.299 346.852 149.891 347.38 148.823 347.38H146.807V344.968ZM156.899 350.428V348.412H161.531V346.9H156.899V345.04H161.735V343.48H154.751V352H161.819V350.428H156.899ZM167.467 352.24C170.047 352.24 171.511 351.172 171.511 349.432C171.511 347.932 170.647 347.212 168.775 346.912L167.059 346.66C166.039 346.492 165.691 346.252 165.691 345.7C165.691 345.124 166.303 344.8 167.347 344.8C168.607 344.8 169.579 345.292 170.107 346.144L171.511 344.968C170.707 343.804 169.291 343.24 167.467 343.24C165.067 343.24 163.639 344.212 163.639 345.832C163.639 347.308 164.539 348.112 166.291 348.388L168.055 348.652C169.015 348.796 169.387 349.036 169.387 349.624C169.387 350.308 168.715 350.62 167.563 350.62C166.159 350.62 165.175 350.02 164.623 349.06L163.039 350.164C163.747 351.46 165.331 352.24 167.467 352.24ZM180.518 343.48H172.466V345.184H175.418V352H177.566V345.184H180.518V343.48Z" fill="#054217"/>
<path d="M26.984 232H28.832V226.3C28.832 225.904 28.82 225.508 28.772 225.196H28.82C28.868 225.46 28.976 225.856 29.096 226.168L31.196 232H33.092L35.18 226.168C35.3 225.856 35.432 225.412 35.48 225.184H35.516C35.48 225.544 35.456 225.94 35.456 226.3V232H37.424V223.48H34.304L32.456 228.688C32.336 229.06 32.24 229.396 32.204 229.684H32.18C32.144 229.396 32.06 229.072 31.94 228.7L30.056 223.48H26.984V232ZM42.1422 230.428V228.412H46.7742V226.9H42.1422V225.04H46.9782V223.48H39.9942V232H47.0622V230.428H42.1422ZM56.5355 223.48H48.4835V225.184H51.4355V232H53.5835V225.184H56.5355V223.48ZM60.3578 230.428V228.412H64.9898V226.9H60.3578V225.04H65.1938V223.48H58.2098V232H65.2778V230.428H60.3578ZM73.2888 232H75.6648L73.6248 228.532C74.8848 228.136 75.4128 227.14 75.4128 226.12C75.4128 224.668 74.5128 223.48 72.1488 223.48H67.5168V232H69.6648V228.82H71.4888L73.2888 232ZM69.6648 224.968H71.6808C72.7488 224.968 73.1568 225.472 73.1568 226.144C73.1568 226.852 72.7488 227.38 71.6808 227.38H69.6648V224.968ZM80.8655 232.24C83.4455 232.24 84.9095 231.172 84.9095 229.432C84.9095 227.932 84.0455 227.212 82.1735 226.912L80.4575 226.66C79.4375 226.492 79.0895 226.252 79.0895 225.7C79.0895 225.124 79.7015 224.8 80.7455 224.8C82.0055 224.8 82.9775 225.292 83.5055 226.144L84.9095 224.968C84.1055 223.804 82.6895 223.24 80.8655 223.24C78.4655 223.24 77.0375 224.212 77.0375 225.832C77.0375 227.308 77.9375 228.112 79.6895 228.388L81.4535 228.652C82.4135 228.796 82.7855 229.036 82.7855 229.624C82.7855 230.308 82.1135 230.62 80.9615 230.62C79.5575 230.62 78.5735 230.02 78.0215 229.06L76.4375 230.164C77.1455 231.46 78.7295 232.24 80.8655 232.24ZM95.828 223.48H91.184V232H93.332V229.06H95.756C97.796 229.06 99.08 227.968 99.08 226.216C99.08 224.536 97.82 223.48 95.828 223.48ZM95.3 227.572H93.332V224.992H95.3C96.272 224.992 96.812 225.46 96.812 226.276C96.812 227.104 96.26 227.572 95.3 227.572ZM102.991 230.428V228.412H107.623V226.9H102.991V225.04H107.827V223.48H100.843V232H107.911V230.428H102.991ZM115.922 232H118.298L116.258 228.532C117.518 228.136 118.046 227.14 118.046 226.12C118.046 224.668 117.146 223.48 114.782 223.48H110.15V232H112.298V228.82H114.122L115.922 232ZM112.298 224.968H114.314C115.382 224.968 115.79 225.472 115.79 226.144C115.79 226.852 115.382 227.38 114.314 227.38H112.298V224.968ZM130.76 223.48H122.708V225.184H125.66V232H127.808V225.184H130.76V223.48ZM138.206 232H140.582L138.542 228.532C139.802 228.136 140.33 227.14 140.33 226.12C140.33 224.668 139.43 223.48 137.066 223.48H132.434V232H134.582V228.82H136.406L138.206 232ZM134.582 224.968H136.598C137.666 224.968 138.074 225.472 138.074 226.144C138.074 226.852 137.666 227.38 136.598 227.38H134.582V224.968ZM144.674 230.428V228.412H149.306V226.9H144.674V225.04H149.51V223.48H142.526V232H149.594V230.428H144.674ZM153.981 230.428V228.412H158.613V226.9H153.981V225.04H158.817V223.48H151.833V232H158.901V230.428H153.981Z" fill="#054217"/>
<path d="M26.984 472H28.832V466.3C28.832 465.904 28.82 465.508 28.772 465.196H28.82C28.868 465.46 28.976 465.856 29.096 466.168L31.196 472H33.092L35.18 466.168C35.3 465.856 35.432 465.412 35.48 465.184H35.516C35.48 465.544 35.456 465.94 35.456 466.3V472H37.424V463.48H34.304L32.456 468.688C32.336 469.06 32.24 469.396 32.204 469.684H32.18C32.144 469.396 32.06 469.072 31.94 468.7L30.056 463.48H26.984V472ZM42.1422 470.428V468.412H46.7742V466.9H42.1422V465.04H46.9782V463.48H39.9942V472H47.0622V470.428H42.1422ZM56.5355 463.48H48.4835V465.184H51.4355V472H53.5835V465.184H56.5355V463.48ZM60.3578 470.428V468.412H64.9898V466.9H60.3578V465.04H65.1938V463.48H58.2098V472H65.2778V470.428H60.3578ZM73.2888 472H75.6648L73.6248 468.532C74.8848 468.136 75.4128 467.14 75.4128 466.12C75.4128 464.668 74.5128 463.48 72.1488 463.48H67.5168V472H69.6648V468.82H71.4888L73.2888 472ZM69.6648 464.968H71.6808C72.7488 464.968 73.1568 465.472 73.1568 466.144C73.1568 466.852 72.7488 467.38 71.6808 467.38H69.6648V464.968ZM78.833 461.764C79.321 461.764 79.725 461.888 80.045 462.136C80.365 462.376 80.525 462.704 80.525 463.12C80.525 463.392 80.445 463.628 80.285 463.828C80.133 464.02 79.881 464.172 79.529 464.284V464.356C79.929 464.436 80.221 464.592 80.405 464.824C80.597 465.048 80.693 465.3 80.693 465.58C80.693 466.052 80.521 466.424 80.177 466.696C79.833 466.968 79.297 467.104 78.569 467.104C78.001 467.104 77.469 466.968 76.973 466.696V465.58C77.229 465.732 77.485 465.86 77.741 465.964C78.005 466.06 78.277 466.108 78.557 466.108C79.117 466.108 79.397 465.9 79.397 465.484C79.397 465.324 79.329 465.18 79.193 465.052C79.057 464.924 78.801 464.86 78.425 464.86H77.765V463.924H78.305C78.713 463.924 78.973 463.86 79.085 463.732C79.205 463.596 79.265 463.448 79.265 463.288C79.265 463.136 79.217 463.012 79.121 462.916C79.025 462.82 78.877 462.772 78.677 462.772C78.493 462.772 78.317 462.808 78.149 462.88C77.989 462.952 77.797 463.068 77.573 463.228L76.985 462.4C77.225 462.216 77.493 462.064 77.789 461.944C78.085 461.824 78.433 461.764 78.833 461.764Z" fill="#054217"/>
</svg>
