<svg width="312" height="604" viewBox="0 0 312 604" fill="none" xmlns="http://www.w3.org/2000/svg">
<rect width="312" height="604" fill="white"/>
<path d="M44.52 100.33C57.33 100.33 65.38 93.33 65.38 82.55C65.38 71.84 58.8 65.54 47.81 65.54C41.3 65.54 36.26 67.78 33.74 71.84L35.49 57.63H62.58V50.35H28.42L25.34 78.84L33.88 79.61C35.7 74.92 39.27 72.33 45.08 72.33C52.08 72.33 56 76.25 56 82.83C56 89.34 51.8 93.19 44.66 93.19C38.43 93.19 34.37 89.97 33.32 85.14L24.01 86.4C25.62 95.01 33.39 100.33 44.52 100.33ZM94.2796 100.33C108.56 100.33 117.24 90.46 117.24 74.71C117.24 58.89 108.56 49.02 94.2796 49.02C79.9996 49.02 71.2496 58.89 71.2496 74.71C71.2496 90.46 79.9996 100.33 94.2796 100.33ZM94.2796 93.12C85.7396 93.12 80.7696 86.33 80.7696 74.71C80.7696 62.95 85.7396 56.23 94.2796 56.23C102.82 56.23 107.79 62.95 107.79 74.71C107.79 86.33 102.82 93.12 94.2796 93.12Z" fill="#054217"/>
<path d="M23.45 331H64.75V323.44H36.96C43.89 320.5 48.86 317.63 53.2 314.48C59.99 309.3 63.91 303.91 63.91 296.77C63.91 287.11 56.91 281.02 44.17 281.02C31.85 281.02 23.94 287.32 23.94 296.7C23.94 297.96 24.08 299.01 24.36 300.2L33.81 301.11C33.53 299.78 33.39 298.52 33.39 297.54C33.39 291.8 37.38 288.3 43.89 288.3C50.75 288.3 54.04 292.01 54.04 297.26C54.04 302.3 52.08 305.94 46.06 310.7C39.97 315.46 32.06 320.01 23.45 324V331ZM84.3981 321.27H73.5481V331H84.3981V321.27ZM112.333 332.33C125.143 332.33 133.193 325.33 133.193 314.55C133.193 303.84 126.613 297.54 115.623 297.54C109.113 297.54 104.073 299.78 101.553 303.84L103.303 289.63H130.393V282.35H96.2325L93.1525 310.84L101.693 311.61C103.513 306.92 107.083 304.33 112.893 304.33C119.893 304.33 123.812 308.25 123.812 314.83C123.812 321.34 119.613 325.19 112.473 325.19C106.243 325.19 102.183 321.97 101.133 317.14L91.8225 318.4C93.4325 327.01 101.203 332.33 112.333 332.33ZM179.029 331H190.439L169.089 300.69L188.899 281.3H176.929L152.429 305.45V281.3H142.699V331H152.429V316.3L162.089 307.06L179.029 331Z" fill="#054217"/>
<path d="M69.16 554.42C69.16 545.81 63.91 541.54 52.64 539.72L48.58 539.23V525.02C54.95 525.72 58.87 528.52 60.9 533.35L68.25 529.36C64.89 522.43 58.31 518.72 48.58 518.16V512.07H44.1V518.16C32.13 518.65 24.92 523.83 24.92 531.81C24.92 539.65 29.89 544.06 40.32 545.81L44.1 546.3V562.12C37.31 561.42 32.55 558.41 30.03 552.67L22.19 556.17C25.2 564.15 33.04 568.63 44.1 569.26V575.35H48.58V569.33C61.39 568.84 69.16 563.1 69.16 554.42ZM43.96 538.6C36.75 537.41 33.95 535.38 33.95 531.46C33.95 527.26 37.52 525.16 44.1 524.88V538.6H43.96ZM48.58 562.26V546.86L49.63 547C56.98 548.26 59.99 550.22 59.99 554.77C59.99 559.46 55.93 561.98 48.58 562.26ZM85.9376 568H95.1776V519.35H87.3376C85.5876 524.67 81.1776 527.68 75.0176 527.75H73.4076V535.8H75.9976C80.1276 535.8 84.1176 534.47 85.9376 532.3V568ZM119.125 558.27H108.275V568H119.125V558.27ZM147.059 569.33C159.869 569.33 167.919 562.33 167.919 551.55C167.919 540.84 161.339 534.54 150.349 534.54C143.839 534.54 138.799 536.78 136.279 540.84L138.029 526.63H165.119V519.35H130.959L127.879 547.84L136.419 548.61C138.239 543.92 141.809 541.33 147.619 541.33C154.619 541.33 158.539 545.25 158.539 551.83C158.539 558.34 154.339 562.19 147.199 562.19C140.969 562.19 136.909 558.97 135.859 554.14L126.549 555.4C128.159 564.01 135.929 569.33 147.059 569.33ZM194.295 569.33C207.105 569.33 215.155 562.33 215.155 551.55C215.155 540.84 208.575 534.54 197.585 534.54C191.075 534.54 186.035 536.78 183.515 540.84L185.265 526.63H212.355V519.35H178.195L175.115 547.84L183.655 548.61C185.475 543.92 189.045 541.33 194.855 541.33C201.855 541.33 205.775 545.25 205.775 551.83C205.775 558.34 201.575 562.19 194.435 562.19C188.205 562.19 184.145 558.97 183.095 554.14L173.785 555.4C175.395 564.01 183.165 569.33 194.295 569.33ZM224.662 568H233.272V532.02C233.272 529.78 233.132 527.75 232.922 526H233.202C233.482 527.33 234.182 529.92 234.882 531.81L249.022 568H257.982L272.122 531.81C272.892 529.92 273.732 527.12 273.942 526H274.222C274.012 527.82 273.872 529.99 273.872 532.02V568H282.762V518.3H268.552L255.182 552.95C254.412 555.05 253.992 556.31 253.712 557.99H253.572C253.292 556.31 252.872 555.12 252.172 552.95L238.732 518.3H224.662V568Z" fill="#054217"/>
<path d="M44.52 448.33C57.33 448.33 65.38 441.33 65.38 430.55C65.38 419.84 58.8 413.54 47.81 413.54C41.3 413.54 36.26 415.78 33.74 419.84L35.49 405.63H62.58V398.35H28.42L25.34 426.84L33.88 427.61C35.7 422.92 39.27 420.33 45.08 420.33C52.08 420.33 56 424.25 56 430.83C56 437.34 51.8 441.19 44.66 441.19C38.43 441.19 34.37 437.97 33.32 433.14L24.01 434.4C25.62 443.01 33.39 448.33 44.52 448.33ZM77.4473 447H87.7373V445.18C87.7373 429.57 95.0873 416.13 107.267 405.28V398.35H67.9273V406.05H97.3273C84.7973 417.67 77.4473 431.46 77.4473 446.09V447Z" fill="#054217"/>
<path d="M35.92 215H46.21V213.18C46.21 197.57 53.56 184.13 65.74 173.28V166.35H26.4V174.05H55.8C43.27 185.67 35.92 199.46 35.92 214.09V215Z" fill="#054217"/>
<path d="M34.5316 38H36.549L32.4834 27.066H30.3274L26.2618 38H28.2792L29.2648 35.1202H33.546L34.5316 38ZM29.7884 33.611L31.0666 29.915C31.1898 29.5608 31.2976 29.1758 31.39 28.7446H31.4208C31.5132 29.1758 31.621 29.5608 31.7442 29.915L33.0224 33.611H29.7884ZM44.662 30.3616C44.893 30.3616 45.0932 30.3924 45.2934 30.4386V29.0526C45.1394 29.0218 45.0162 29.0064 44.8622 29.0064C43.7534 29.0064 43.0912 29.5762 42.8448 30.4232C42.3828 30.223 41.8438 30.1152 41.2124 30.1152C39.2566 30.1152 38.0554 31.1778 38.0554 32.7024C38.0554 33.5032 38.3942 34.1962 38.9948 34.6736C38.2402 34.9662 37.7782 35.5052 37.7782 36.306C37.7782 36.9066 38.0708 37.4148 38.7484 37.692C37.9168 37.9692 37.4702 38.5236 37.4702 39.2012C37.4702 40.2946 38.4404 41.1878 41.0892 41.1878C43.8612 41.1878 45.201 40.156 45.201 38.5698C45.201 37.1376 44.277 36.3522 42.4752 36.3522H40.4578C39.6108 36.3522 39.2874 36.0596 39.2874 35.6438C39.2874 35.3666 39.4414 35.1818 39.6724 35.0586C40.1036 35.2434 40.6272 35.3358 41.2124 35.3358C43.1836 35.3358 44.3848 34.227 44.3848 32.7024C44.3848 31.9478 44.0922 31.3164 43.5686 30.8544C43.7842 30.531 44.1692 30.3616 44.662 30.3616ZM41.2124 34.2116C40.35 34.2116 39.7956 33.5802 39.7956 32.7024C39.7956 31.84 40.35 31.2394 41.2124 31.2394C42.0748 31.2394 42.6292 31.84 42.6292 32.7178C42.6292 33.5802 42.0748 34.2116 41.2124 34.2116ZM42.198 37.9384C43.0758 37.9384 43.5224 38.2618 43.5224 38.8778C43.5224 39.5092 42.968 39.9866 41.2124 39.9866C39.888 39.9866 39.0102 39.6786 39.0102 38.8624C39.0102 38.4928 39.1796 38.1386 39.5492 37.9076C39.7494 37.923 39.965 37.9384 40.196 37.9384H42.198ZM53.0721 33.765C53.0721 31.4088 51.7939 30.1152 49.5609 30.1152C47.2663 30.1152 45.8803 31.686 45.8803 34.227C45.8803 36.7526 47.2971 38.1848 49.6533 38.1848C51.2241 38.1848 52.4407 37.4456 53.0105 36.1058L51.5937 35.459C51.2395 36.2906 50.5927 36.7372 49.7149 36.7372C48.4983 36.7372 47.6821 35.9056 47.6667 34.612H53.0721V33.765ZM51.2549 33.3954H47.6667C47.6975 32.1172 48.3597 31.3472 49.5301 31.3472C50.6235 31.3472 51.2549 32.0094 51.2549 33.2722V33.3954Z" fill="#362B26"/>
<path d="M34.7472 259.066H26.1386V260.683H29.4496V270H31.4362V260.683H34.7472V259.066ZM38.2236 270.185C40.4412 270.185 41.9966 268.722 41.9966 266.135C41.9966 263.563 40.4412 262.115 38.2236 262.115C36.006 262.115 34.4506 263.563 34.4506 266.135C34.4506 268.722 36.006 270.185 38.2236 270.185ZM38.2236 268.783C37.0378 268.783 36.3294 267.89 36.3294 266.135C36.3294 264.379 37.0378 263.517 38.2236 263.517C39.4094 263.517 40.1024 264.379 40.1024 266.135C40.1024 267.89 39.4094 268.783 38.2236 268.783ZM42.7274 263.64H44.1134V267.613C44.1134 269.168 44.7294 270.139 46.5774 270.139C47.0548 270.139 47.3936 270.092 47.8402 270V268.445C47.5938 268.491 47.3936 268.537 47.0856 268.537C46.3156 268.537 45.9614 268.137 45.9614 267.32V263.64H47.8402V262.3H45.9614V259.62L44.1134 260.36V262.3H42.7274V263.64ZM51.4757 270.185C52.7077 270.185 53.6779 269.615 54.0475 268.676C54.0629 269.153 54.1091 269.615 54.1707 270H56.0187C55.8647 269.461 55.7877 268.66 55.7877 267.613V265.318C55.7877 263.085 54.7713 262.115 52.4921 262.115C50.5055 262.115 49.2119 263.132 49.0887 264.779H50.9829C51.0445 263.902 51.5835 263.424 52.4921 263.424C53.4777 263.424 53.9243 263.917 53.9243 265.072V265.272L52.2919 265.472C51.0753 265.642 50.3361 265.842 49.7817 266.165C49.1657 266.55 48.8423 267.166 48.8423 267.906C48.8423 269.276 49.8895 270.185 51.4757 270.185ZM52.0609 268.876C51.2447 268.876 50.7519 268.46 50.7519 267.813C50.7519 267.151 51.2139 266.781 52.2303 266.612L53.9705 266.35V266.843C53.9705 268.06 53.2005 268.876 52.0609 268.876ZM59.9871 258.835H58.1391V270H59.9871V258.835ZM70.8898 270.262C73.554 270.262 75.0478 268.706 75.5098 266.52L73.5386 266.119C73.2614 267.659 72.3066 268.599 70.9052 268.599C68.9032 268.599 67.8252 266.889 67.8252 264.502C67.8252 262.054 68.934 260.437 70.859 260.437C72.3682 260.437 73.2768 261.422 73.4616 262.978L75.4944 262.685C75.2018 260.36 73.6464 258.804 70.9206 258.804C67.6404 258.804 65.777 261.114 65.777 264.518C65.777 267.829 67.4556 270.262 70.8898 270.262ZM79.4032 270.185C80.6352 270.185 81.6054 269.615 81.975 268.676C81.9904 269.153 82.0366 269.615 82.0982 270H83.9462C83.7922 269.461 83.7152 268.66 83.7152 267.613V265.318C83.7152 263.085 82.6988 262.115 80.4196 262.115C78.433 262.115 77.1394 263.132 77.0162 264.779H78.9104C78.972 263.902 79.511 263.424 80.4196 263.424C81.4052 263.424 81.8518 263.917 81.8518 265.072V265.272L80.2194 265.472C79.0028 265.642 78.2636 265.842 77.7092 266.165C77.0932 266.55 76.7698 267.166 76.7698 267.906C76.7698 269.276 77.817 270.185 79.4032 270.185ZM79.9884 268.876C79.1722 268.876 78.6794 268.46 78.6794 267.813C78.6794 267.151 79.1414 266.781 80.1578 266.612L81.898 266.35V266.843C81.898 268.06 81.128 268.876 79.9884 268.876ZM87.7144 264.163V262.3H85.9896V270H87.8376V266.766C87.8376 265.919 87.9146 265.041 88.5306 264.441C88.8848 264.102 89.393 263.886 90.1322 263.886C90.2246 263.886 90.3016 263.902 90.3786 263.902V262.131C90.3016 262.115 90.24 262.115 90.163 262.115C88.9156 262.115 88.0994 262.947 87.7144 264.163ZM96.1196 270.185C98.0446 270.185 99.292 268.568 99.292 266.15C99.292 263.763 98.0754 262.115 96.1966 262.115C95.057 262.115 94.2254 262.7 93.825 263.501V258.835H91.977V270H93.5324L93.7172 268.753C94.1176 269.615 94.98 270.185 96.1196 270.185ZM95.5344 268.768C94.4256 268.768 93.7788 267.859 93.7788 266.427V265.904C93.7788 264.441 94.441 263.532 95.5344 263.532C96.7202 263.532 97.367 264.548 97.367 266.15C97.367 267.782 96.6894 268.768 95.5344 268.768ZM104.29 270.185C106.508 270.185 108.063 268.722 108.063 266.135C108.063 263.563 106.508 262.115 104.29 262.115C102.073 262.115 100.517 263.563 100.517 266.135C100.517 268.722 102.073 270.185 104.29 270.185ZM104.29 268.783C103.104 268.783 102.396 267.89 102.396 266.135C102.396 264.379 103.104 263.517 104.29 263.517C105.476 263.517 106.169 264.379 106.169 266.135C106.169 267.89 105.476 268.783 104.29 268.783ZM109.887 270H111.735V265.919C111.735 264.456 112.381 263.594 113.459 263.594C114.43 263.594 114.907 264.194 114.907 265.411V270H116.755V265.226C116.755 263.162 115.877 262.115 114.199 262.115C113.013 262.115 112.166 262.67 111.642 263.794V262.3H109.887V270ZM126.514 270.262C129.301 270.262 130.718 268.783 130.718 266.905C130.718 264.964 129.517 264.133 127.715 263.748L126.129 263.409C124.928 263.147 124.435 262.685 124.435 261.792C124.435 260.868 125.236 260.313 126.421 260.313C127.869 260.313 128.778 261.037 129.132 262.3L130.718 261.468C130.241 259.651 128.593 258.804 126.514 258.804C124.05 258.804 122.51 260.052 122.51 261.946C122.51 263.809 123.649 264.733 125.374 265.087L126.899 265.411C128.1 265.657 128.747 266.027 128.747 267.089C128.747 268.229 127.7 268.676 126.575 268.676C124.881 268.676 123.988 267.69 123.619 266.458L121.925 267.197C122.371 268.984 123.927 270.262 126.514 270.262ZM131.353 263.64H132.739V267.613C132.739 269.168 133.355 270.139 135.203 270.139C135.68 270.139 136.019 270.092 136.465 270V268.445C136.219 268.491 136.019 268.537 135.711 268.537C134.941 268.537 134.587 268.137 134.587 267.32V263.64H136.465V262.3H134.587V259.62L132.739 260.36V262.3H131.353V263.64ZM141.211 270.185C143.429 270.185 144.984 268.722 144.984 266.135C144.984 263.563 143.429 262.115 141.211 262.115C138.994 262.115 137.438 263.563 137.438 266.135C137.438 268.722 138.994 270.185 141.211 270.185ZM141.211 268.783C140.025 268.783 139.317 267.89 139.317 266.135C139.317 264.379 140.025 263.517 141.211 263.517C142.397 263.517 143.09 264.379 143.09 266.135C143.09 267.89 142.397 268.783 141.211 268.783ZM148.532 264.163V262.3H146.808V270H148.656V266.766C148.656 265.919 148.733 265.041 149.349 264.441C149.703 264.102 150.211 263.886 150.95 263.886C151.043 263.886 151.12 263.902 151.197 263.902V262.131C151.12 262.115 151.058 262.115 150.981 262.115C149.734 262.115 148.917 262.947 148.532 264.163ZM159.188 265.765C159.188 263.409 157.91 262.115 155.677 262.115C153.382 262.115 151.996 263.686 151.996 266.227C151.996 268.753 153.413 270.185 155.769 270.185C157.34 270.185 158.556 269.446 159.126 268.106L157.709 267.459C157.355 268.291 156.708 268.737 155.831 268.737C154.614 268.737 153.798 267.906 153.782 266.612H159.188V265.765ZM157.371 265.395H153.782C153.813 264.117 154.475 263.347 155.646 263.347C156.739 263.347 157.371 264.009 157.371 265.272V265.395ZM163.604 270.185C164.759 270.185 165.637 269.6 166.068 268.614V270H167.808V258.835H165.96V263.393C165.529 262.531 164.759 262.115 163.743 262.115C161.818 262.115 160.493 263.748 160.493 266.165C160.493 268.568 161.741 270.185 163.604 270.185ZM164.236 268.768C163.111 268.768 162.418 267.782 162.418 266.135C162.418 264.487 163.096 263.532 164.22 263.532C165.329 263.532 166.007 264.41 166.007 265.919V266.412C166.007 267.859 165.314 268.768 164.236 268.768Z" fill="#362B26"/>
<path d="M34.5316 504H36.549L32.4834 493.066H30.3274L26.2618 504H28.2792L29.2648 501.12H33.546L34.5316 504ZM29.7884 499.611L31.0666 495.915C31.1898 495.561 31.2976 495.176 31.39 494.745H31.4208C31.5132 495.176 31.621 495.561 31.7442 495.915L33.0224 499.611H29.7884ZM41.0209 504.185C42.8535 504.185 44.1471 503.138 44.4243 501.428L42.6841 501.074C42.5147 502.152 41.9449 502.722 41.0209 502.722C39.8351 502.722 39.1421 501.767 39.1421 500.104C39.1421 498.518 39.8505 497.563 40.9901 497.563C41.8987 497.563 42.4993 498.133 42.6225 499.18L44.4243 498.887C44.1933 497.132 42.9459 496.115 41.0363 496.115C38.6955 496.115 37.2479 497.64 37.2479 500.15C37.2479 502.599 38.7263 504.185 41.0209 504.185ZM49.3826 504.185C51.2152 504.185 52.5088 503.138 52.786 501.428L51.0458 501.074C50.8764 502.152 50.3066 502.722 49.3826 502.722C48.1968 502.722 47.5038 501.767 47.5038 500.104C47.5038 498.518 48.2122 497.563 49.3518 497.563C50.2604 497.563 50.861 498.133 50.9842 499.18L52.786 498.887C52.555 497.132 51.3076 496.115 49.398 496.115C47.0572 496.115 45.6096 497.64 45.6096 500.15C45.6096 502.599 47.088 504.185 49.3826 504.185ZM56.9908 504.185C58.0996 504.185 59.0236 503.523 59.3932 502.568V504H61.1488V496.3H59.2854V500.566C59.2854 501.859 58.6078 502.706 57.5914 502.706C56.6982 502.706 56.2362 502.09 56.2362 500.966V496.3H54.3882V501.243C54.3882 503.045 55.112 504.185 56.9908 504.185ZM63.5965 496.3V504H65.4445V499.549C65.4445 498.317 65.9835 497.594 66.9075 497.594C67.7237 497.594 68.1549 498.148 68.1549 499.211V504H70.0029V499.503C70.0029 498.271 70.5265 497.594 71.4659 497.594C72.3129 497.594 72.7287 498.133 72.7287 499.257V504H74.5767V498.964C74.5767 497.162 73.6989 496.115 72.2205 496.115C71.1425 496.115 70.3417 496.623 69.8181 497.671C69.4485 496.639 68.7093 496.115 67.6313 496.115C66.5533 496.115 65.8141 496.623 65.3521 497.655V496.3H63.5965ZM79.2637 504.185C80.3725 504.185 81.2965 503.523 81.6661 502.568V504H83.4217V496.3H81.5583V500.566C81.5583 501.859 80.8807 502.706 79.8643 502.706C78.9711 502.706 78.5091 502.09 78.5091 500.966V496.3H76.6611V501.243C76.6611 503.045 77.3849 504.185 79.2637 504.185ZM87.7943 492.835H85.9463V504H87.7943V492.835ZM92.2767 504.185C93.5087 504.185 94.4789 503.615 94.8485 502.676C94.8639 503.153 94.9101 503.615 94.9717 504H96.8197C96.6657 503.461 96.5887 502.66 96.5887 501.613V499.318C96.5887 497.085 95.5723 496.115 93.2931 496.115C91.3065 496.115 90.0129 497.132 89.8897 498.779H91.7839C91.8455 497.902 92.3845 497.424 93.2931 497.424C94.2787 497.424 94.7253 497.917 94.7253 499.072V499.272L93.0929 499.472C91.8763 499.642 91.1371 499.842 90.5827 500.165C89.9667 500.55 89.6433 501.166 89.6433 501.906C89.6433 503.276 90.6905 504.185 92.2767 504.185ZM92.8619 502.876C92.0457 502.876 91.5529 502.46 91.5529 501.813C91.5529 501.151 92.0149 500.781 93.0313 500.612L94.7715 500.35V500.843C94.7715 502.06 94.0015 502.876 92.8619 502.876ZM97.7253 497.64H99.1113V501.613C99.1113 503.168 99.7273 504.139 101.575 504.139C102.053 504.139 102.391 504.092 102.838 504V502.445C102.592 502.491 102.391 502.537 102.083 502.537C101.313 502.537 100.959 502.137 100.959 501.32V497.64H102.838V496.3H100.959V493.62L99.1113 494.36V496.3H97.7253V497.64ZM104.44 495.022H106.442V493.097H104.44V495.022ZM104.533 504H106.381V496.3H104.533V504ZM110.451 504H112.453L115.194 496.3H113.254L111.76 501.182C111.637 501.582 111.544 501.967 111.483 502.321H111.437C111.375 501.967 111.283 501.582 111.159 501.182L109.65 496.3H107.71L110.451 504ZM122.929 499.765C122.929 497.409 121.65 496.115 119.417 496.115C117.123 496.115 115.737 497.686 115.737 500.227C115.737 502.753 117.154 504.185 119.51 504.185C121.081 504.185 122.297 503.446 122.867 502.106L121.45 501.459C121.096 502.291 120.449 502.737 119.571 502.737C118.355 502.737 117.539 501.906 117.523 500.612H122.929V499.765ZM121.111 499.395H117.523C117.554 498.117 118.216 497.347 119.387 497.347C120.48 497.347 121.111 498.009 121.111 499.272V499.395ZM133.197 504.262C135.861 504.262 137.355 502.706 137.817 500.52L135.845 500.119C135.568 501.659 134.613 502.599 133.212 502.599C131.21 502.599 130.132 500.889 130.132 498.502C130.132 496.054 131.241 494.437 133.166 494.437C134.675 494.437 135.584 495.422 135.768 496.978L137.801 496.685C137.509 494.36 135.953 492.804 133.227 492.804C129.947 492.804 128.084 495.114 128.084 498.518C128.084 501.829 129.762 504.262 133.197 504.262ZM141.71 504.185C142.942 504.185 143.912 503.615 144.282 502.676C144.297 503.153 144.343 503.615 144.405 504H146.253C146.099 503.461 146.022 502.66 146.022 501.613V499.318C146.022 497.085 145.006 496.115 142.726 496.115C140.74 496.115 139.446 497.132 139.323 498.779H141.217C141.279 497.902 141.818 497.424 142.726 497.424C143.712 497.424 144.159 497.917 144.159 499.072V499.272L142.526 499.472C141.31 499.642 140.57 499.842 140.016 500.165C139.4 500.55 139.077 501.166 139.077 501.906C139.077 503.276 140.124 504.185 141.71 504.185ZM142.295 502.876C141.479 502.876 140.986 502.46 140.986 501.813C140.986 501.151 141.448 500.781 142.465 500.612L144.205 500.35V500.843C144.205 502.06 143.435 502.876 142.295 502.876ZM150.021 498.163V496.3H148.296V504H150.144V500.766C150.144 499.919 150.221 499.041 150.837 498.441C151.192 498.102 151.7 497.886 152.439 497.886C152.531 497.886 152.608 497.902 152.685 497.902V496.131C152.608 496.115 152.547 496.115 152.47 496.115C151.222 496.115 150.406 496.947 150.021 498.163ZM158.426 504.185C160.351 504.185 161.599 502.568 161.599 500.15C161.599 497.763 160.382 496.115 158.503 496.115C157.364 496.115 156.532 496.7 156.132 497.501V492.835H154.284V504H155.839L156.024 502.753C156.424 503.615 157.287 504.185 158.426 504.185ZM157.841 502.768C156.732 502.768 156.086 501.859 156.086 500.427V499.904C156.086 498.441 156.748 497.532 157.841 497.532C159.027 497.532 159.674 498.548 159.674 500.15C159.674 501.782 158.996 502.768 157.841 502.768ZM166.597 504.185C168.815 504.185 170.37 502.722 170.37 500.135C170.37 497.563 168.815 496.115 166.597 496.115C164.379 496.115 162.824 497.563 162.824 500.135C162.824 502.722 164.379 504.185 166.597 504.185ZM166.597 502.783C165.411 502.783 164.703 501.89 164.703 500.135C164.703 498.379 165.411 497.517 166.597 497.517C167.783 497.517 168.476 498.379 168.476 500.135C168.476 501.89 167.783 502.783 166.597 502.783ZM172.194 504H174.042V499.919C174.042 498.456 174.688 497.594 175.766 497.594C176.737 497.594 177.214 498.194 177.214 499.411V504H179.062V499.226C179.062 497.162 178.184 496.115 176.506 496.115C175.32 496.115 174.473 496.67 173.949 497.794V496.3H172.194V504ZM188.821 504.262C191.608 504.262 193.025 502.783 193.025 500.905C193.025 498.964 191.824 498.133 190.022 497.748L188.436 497.409C187.234 497.147 186.742 496.685 186.742 495.792C186.742 494.868 187.542 494.313 188.728 494.313C190.176 494.313 191.084 495.037 191.439 496.3L193.025 495.468C192.547 493.651 190.9 492.804 188.821 492.804C186.357 492.804 184.817 494.052 184.817 495.946C184.817 497.809 185.956 498.733 187.681 499.087L189.206 499.411C190.407 499.657 191.054 500.027 191.054 501.089C191.054 502.229 190.006 502.676 188.882 502.676C187.188 502.676 186.295 501.69 185.925 500.458L184.231 501.197C184.678 502.984 186.233 504.262 188.821 504.262ZM193.659 497.64H195.045V501.613C195.045 503.168 195.661 504.139 197.509 504.139C197.987 504.139 198.326 504.092 198.772 504V502.445C198.526 502.491 198.326 502.537 198.018 502.537C197.248 502.537 196.893 502.137 196.893 501.32V497.64H198.772V496.3H196.893V493.62L195.045 494.36V496.3H193.659V497.64ZM203.518 504.185C205.736 504.185 207.291 502.722 207.291 500.135C207.291 497.563 205.736 496.115 203.518 496.115C201.3 496.115 199.745 497.563 199.745 500.135C199.745 502.722 201.3 504.185 203.518 504.185ZM203.518 502.783C202.332 502.783 201.624 501.89 201.624 500.135C201.624 498.379 202.332 497.517 203.518 497.517C204.704 497.517 205.397 498.379 205.397 500.135C205.397 501.89 204.704 502.783 203.518 502.783ZM210.839 498.163V496.3H209.114V504H210.962V500.766C210.962 499.919 211.039 499.041 211.655 498.441C212.01 498.102 212.518 497.886 213.257 497.886C213.349 497.886 213.426 497.902 213.503 497.902V496.131C213.426 496.115 213.365 496.115 213.288 496.115C212.04 496.115 211.224 496.947 210.839 498.163ZM216.905 504.185C218.137 504.185 219.108 503.615 219.477 502.676C219.493 503.153 219.539 503.615 219.6 504H221.448C221.294 503.461 221.217 502.66 221.217 501.613V499.318C221.217 497.085 220.201 496.115 217.922 496.115C215.935 496.115 214.642 497.132 214.518 498.779H216.413C216.474 497.902 217.013 497.424 217.922 497.424C218.907 497.424 219.354 497.917 219.354 499.072V499.272L217.722 499.472C216.505 499.642 215.766 499.842 215.211 500.165C214.595 500.55 214.272 501.166 214.272 501.906C214.272 503.276 215.319 504.185 216.905 504.185ZM217.491 502.876C216.674 502.876 216.182 502.46 216.182 501.813C216.182 501.151 216.644 500.781 217.66 500.612L219.4 500.35V500.843C219.4 502.06 218.63 502.876 217.491 502.876ZM229.748 496.362C229.979 496.362 230.179 496.392 230.379 496.439V495.053C230.225 495.022 230.102 495.006 229.948 495.006C228.839 495.006 228.177 495.576 227.931 496.423C227.469 496.223 226.93 496.115 226.298 496.115C224.342 496.115 223.141 497.178 223.141 498.702C223.141 499.503 223.48 500.196 224.081 500.674C223.326 500.966 222.864 501.505 222.864 502.306C222.864 502.907 223.157 503.415 223.834 503.692C223.003 503.969 222.556 504.524 222.556 505.201C222.556 506.295 223.526 507.188 226.175 507.188C228.947 507.188 230.287 506.156 230.287 504.57C230.287 503.138 229.363 502.352 227.561 502.352H225.544C224.697 502.352 224.373 502.06 224.373 501.644C224.373 501.367 224.527 501.182 224.758 501.059C225.189 501.243 225.713 501.336 226.298 501.336C228.269 501.336 229.471 500.227 229.471 498.702C229.471 497.948 229.178 497.316 228.654 496.854C228.87 496.531 229.255 496.362 229.748 496.362ZM226.298 500.212C225.436 500.212 224.881 499.58 224.881 498.702C224.881 497.84 225.436 497.239 226.298 497.239C227.161 497.239 227.715 497.84 227.715 498.718C227.715 499.58 227.161 500.212 226.298 500.212ZM227.284 503.938C228.162 503.938 228.608 504.262 228.608 504.878C228.608 505.509 228.054 505.987 226.298 505.987C224.974 505.987 224.096 505.679 224.096 504.862C224.096 504.493 224.265 504.139 224.635 503.908C224.835 503.923 225.051 503.938 225.282 503.938H227.284ZM238.158 499.765C238.158 497.409 236.88 496.115 234.647 496.115C232.352 496.115 230.966 497.686 230.966 500.227C230.966 502.753 232.383 504.185 234.739 504.185C236.31 504.185 237.526 503.446 238.096 502.106L236.679 501.459C236.325 502.291 235.678 502.737 234.801 502.737C233.584 502.737 232.768 501.906 232.752 500.612H238.158V499.765ZM236.341 499.395H232.752C232.783 498.117 233.445 497.347 234.616 497.347C235.709 497.347 236.341 498.009 236.341 499.272V499.395ZM246.516 504H248.78L252.522 493.066H250.397L248.056 500.643C247.856 501.29 247.748 501.721 247.687 502.137H247.625C247.548 501.721 247.44 501.29 247.24 500.643L244.899 493.066H242.79L246.516 504ZM255.345 504.185C256.577 504.185 257.547 503.615 257.917 502.676C257.932 503.153 257.979 503.615 258.04 504H259.888C259.734 503.461 259.657 502.66 259.657 501.613V499.318C259.657 497.085 258.641 496.115 256.362 496.115C254.375 496.115 253.081 497.132 252.958 498.779H254.852C254.914 497.902 255.453 497.424 256.362 497.424C257.347 497.424 257.794 497.917 257.794 499.072V499.272L256.161 499.472C254.945 499.642 254.206 499.842 253.651 500.165C253.035 500.55 252.712 501.166 252.712 501.906C252.712 503.276 253.759 504.185 255.345 504.185ZM255.93 502.876C255.114 502.876 254.621 502.46 254.621 501.813C254.621 501.151 255.083 500.781 256.1 500.612L257.84 500.35V500.843C257.84 502.06 257.07 502.876 255.93 502.876ZM263.857 492.835H262.009V504H263.857V492.835ZM268.801 504.185C269.91 504.185 270.834 503.523 271.203 502.568V504H272.959V496.3H271.096V500.566C271.096 501.859 270.418 502.706 269.402 502.706C268.508 502.706 268.046 502.09 268.046 500.966V496.3H266.198V501.243C266.198 503.045 266.922 504.185 268.801 504.185ZM281.952 499.765C281.952 497.409 280.673 496.115 278.44 496.115C276.146 496.115 274.76 497.686 274.76 500.227C274.76 502.753 276.177 504.185 278.533 504.185C280.104 504.185 281.32 503.446 281.89 502.106L280.473 501.459C280.119 502.291 279.472 502.737 278.594 502.737C277.378 502.737 276.562 501.906 276.546 500.612H281.952V499.765ZM280.134 499.395H276.546C276.577 498.117 277.239 497.347 278.41 497.347C279.503 497.347 280.134 498.009 280.134 499.272V499.395Z" fill="#362B26"/>
<path d="M29.7884 386H32.0522L35.7944 375.066H33.6692L31.3284 382.643C31.1282 383.29 31.0204 383.721 30.9588 384.137H30.8972C30.8202 383.721 30.7124 383.29 30.5122 382.643L28.1714 375.066H26.0616L29.7884 386ZM39.6975 386.185C41.9151 386.185 43.4705 384.722 43.4705 382.135C43.4705 379.563 41.9151 378.115 39.6975 378.115C37.4799 378.115 35.9245 379.563 35.9245 382.135C35.9245 384.722 37.4799 386.185 39.6975 386.185ZM39.6975 384.783C38.5117 384.783 37.8033 383.89 37.8033 382.135C37.8033 380.379 38.5117 379.517 39.6975 379.517C40.8833 379.517 41.5763 380.379 41.5763 382.135C41.5763 383.89 40.8833 384.783 39.6975 384.783ZM47.2189 374.835H45.3709V386H47.2189V374.835ZM52.1633 386.185C53.2721 386.185 54.1961 385.523 54.5657 384.568V386H56.3213V378.3H54.4579V382.566C54.4579 383.859 53.7803 384.706 52.7639 384.706C51.8707 384.706 51.4087 384.09 51.4087 382.966V378.3H49.5607V383.243C49.5607 385.045 50.2845 386.185 52.1633 386.185ZM58.7689 378.3V386H60.6169V381.549C60.6169 380.317 61.1559 379.594 62.0799 379.594C62.8961 379.594 63.3273 380.148 63.3273 381.211V386H65.1753V381.503C65.1753 380.271 65.6989 379.594 66.6383 379.594C67.4853 379.594 67.9011 380.133 67.9011 381.257V386H69.7491V380.964C69.7491 379.162 68.8713 378.115 67.3929 378.115C66.3149 378.115 65.5141 378.623 64.9905 379.671C64.6209 378.639 63.8817 378.115 62.8037 378.115C61.7257 378.115 60.9865 378.623 60.5245 379.655V378.3H58.7689ZM78.5633 381.765C78.5633 379.409 77.2851 378.115 75.0521 378.115C72.7575 378.115 71.3715 379.686 71.3715 382.227C71.3715 384.753 72.7883 386.185 75.1445 386.185C76.7153 386.185 77.9319 385.446 78.5017 384.106L77.0849 383.459C76.7307 384.291 76.0839 384.737 75.2061 384.737C73.9895 384.737 73.1733 383.906 73.1579 382.612H78.5633V381.765ZM76.7461 381.395H73.1579C73.1887 380.117 73.8509 379.347 75.0213 379.347C76.1147 379.347 76.7461 380.009 76.7461 381.272V381.395Z" fill="#362B26"/>
<path d="M34.5316 154H36.549L32.4834 143.066H30.3274L26.2618 154H28.2792L29.2648 151.12H33.546L34.5316 154ZM29.7884 149.611L31.0666 145.915C31.1898 145.561 31.2976 145.176 31.39 144.745H31.4208C31.5132 145.176 31.621 145.561 31.7442 145.915L33.0224 149.611H29.7884ZM39.3763 154H41.3783L44.1195 146.3H42.1791L40.6853 151.182C40.5621 151.582 40.4697 151.967 40.4081 152.321H40.3619C40.3003 151.967 40.2079 151.582 40.0847 151.182L38.5755 146.3H36.6351L39.3763 154ZM51.854 149.765C51.854 147.409 50.5758 146.115 48.3428 146.115C46.0482 146.115 44.6622 147.686 44.6622 150.227C44.6622 152.753 46.079 154.185 48.4352 154.185C50.006 154.185 51.2226 153.446 51.7924 152.106L50.3756 151.459C50.0214 152.291 49.3746 152.737 48.4968 152.737C47.2802 152.737 46.464 151.906 46.4486 150.612H51.854V149.765ZM50.0368 149.395H46.4486C46.4794 148.117 47.1416 147.347 48.312 147.347C49.4054 147.347 50.0368 148.009 50.0368 149.272V149.395ZM55.4707 148.163V146.3H53.7459V154H55.5939V150.766C55.5939 149.919 55.6709 149.041 56.2869 148.441C56.6411 148.102 57.1493 147.886 57.8885 147.886C57.9809 147.886 58.0579 147.902 58.1349 147.902V146.131C58.0579 146.115 57.9963 146.115 57.9193 146.115C56.6719 146.115 55.8557 146.947 55.4707 148.163ZM61.5368 154.185C62.7688 154.185 63.739 153.615 64.1086 152.676C64.124 153.153 64.1702 153.615 64.2318 154H66.0798C65.9258 153.461 65.8488 152.66 65.8488 151.613V149.318C65.8488 147.085 64.8324 146.115 62.5532 146.115C60.5666 146.115 59.273 147.132 59.1498 148.779H61.044C61.1056 147.902 61.6446 147.424 62.5532 147.424C63.5388 147.424 63.9854 147.917 63.9854 149.072V149.272L62.353 149.472C61.1364 149.642 60.3972 149.842 59.8428 150.165C59.2268 150.55 58.9034 151.166 58.9034 151.906C58.9034 153.276 59.9506 154.185 61.5368 154.185ZM62.122 152.876C61.3058 152.876 60.813 152.46 60.813 151.813C60.813 151.151 61.275 150.781 62.2914 150.612L64.0316 150.35V150.843C64.0316 152.06 63.2616 152.876 62.122 152.876ZM74.3792 146.362C74.6102 146.362 74.8104 146.392 75.0106 146.439V145.053C74.8566 145.022 74.7334 145.006 74.5794 145.006C73.4706 145.006 72.8084 145.576 72.562 146.423C72.1 146.223 71.561 146.115 70.9296 146.115C68.9738 146.115 67.7726 147.178 67.7726 148.702C67.7726 149.503 68.1114 150.196 68.712 150.674C67.9574 150.966 67.4954 151.505 67.4954 152.306C67.4954 152.907 67.788 153.415 68.4656 153.692C67.634 153.969 67.1874 154.524 67.1874 155.201C67.1874 156.295 68.1576 157.188 70.8064 157.188C73.5784 157.188 74.9182 156.156 74.9182 154.57C74.9182 153.138 73.9942 152.352 72.1924 152.352H70.175C69.328 152.352 69.0046 152.06 69.0046 151.644C69.0046 151.367 69.1586 151.182 69.3896 151.059C69.8208 151.243 70.3444 151.336 70.9296 151.336C72.9008 151.336 74.102 150.227 74.102 148.702C74.102 147.948 73.8094 147.316 73.2858 146.854C73.5014 146.531 73.8864 146.362 74.3792 146.362ZM70.9296 150.212C70.0672 150.212 69.5128 149.58 69.5128 148.702C69.5128 147.84 70.0672 147.239 70.9296 147.239C71.792 147.239 72.3464 147.84 72.3464 148.718C72.3464 149.58 71.792 150.212 70.9296 150.212ZM71.9152 153.938C72.793 153.938 73.2396 154.262 73.2396 154.878C73.2396 155.509 72.6852 155.987 70.9296 155.987C69.6052 155.987 68.7274 155.679 68.7274 154.862C68.7274 154.493 68.8968 154.139 69.2664 153.908C69.4666 153.923 69.6822 153.938 69.9132 153.938H71.9152ZM82.7893 149.765C82.7893 147.409 81.5111 146.115 79.2781 146.115C76.9835 146.115 75.5975 147.686 75.5975 150.227C75.5975 152.753 77.0143 154.185 79.3705 154.185C80.9413 154.185 82.1579 153.446 82.7277 152.106L81.3109 151.459C80.9567 152.291 80.3099 152.737 79.4321 152.737C78.2155 152.737 77.3993 151.906 77.3839 150.612H82.7893V149.765ZM80.9721 149.395H77.3839C77.4147 148.117 78.0769 147.347 79.2473 147.347C80.3407 147.347 80.9721 148.009 80.9721 149.272V149.395ZM97.6004 143.066H95.6138V147.64H90.7012V143.066H88.7146V154H90.7012V149.226H95.6138V154H97.6004V143.066ZM106.731 149.765C106.731 147.409 105.453 146.115 103.22 146.115C100.926 146.115 99.5397 147.686 99.5397 150.227C99.5397 152.753 100.956 154.185 103.313 154.185C104.883 154.185 106.1 153.446 106.67 152.106L105.253 151.459C104.899 152.291 104.252 152.737 103.374 152.737C102.158 152.737 101.341 151.906 101.326 150.612H106.731V149.765ZM104.914 149.395H101.326C101.357 148.117 102.019 147.347 103.189 147.347C104.283 147.347 104.914 148.009 104.914 149.272V149.395ZM108.531 145.022H110.533V143.097H108.531V145.022ZM108.623 154H110.471V146.3H108.623V154ZM119.331 146.362C119.562 146.362 119.762 146.392 119.962 146.439V145.053C119.808 145.022 119.685 145.006 119.531 145.006C118.422 145.006 117.76 145.576 117.514 146.423C117.052 146.223 116.513 146.115 115.881 146.115C113.926 146.115 112.724 147.178 112.724 148.702C112.724 149.503 113.063 150.196 113.664 150.674C112.909 150.966 112.447 151.505 112.447 152.306C112.447 152.907 112.74 153.415 113.417 153.692C112.586 153.969 112.139 154.524 112.139 155.201C112.139 156.295 113.109 157.188 115.758 157.188C118.53 157.188 119.87 156.156 119.87 154.57C119.87 153.138 118.946 152.352 117.144 152.352H115.127C114.28 152.352 113.956 152.06 113.956 151.644C113.956 151.367 114.11 151.182 114.341 151.059C114.773 151.243 115.296 151.336 115.881 151.336C117.853 151.336 119.054 150.227 119.054 148.702C119.054 147.948 118.761 147.316 118.238 146.854C118.453 146.531 118.838 146.362 119.331 146.362ZM115.881 150.212C115.019 150.212 114.465 149.58 114.465 148.702C114.465 147.84 115.019 147.239 115.881 147.239C116.744 147.239 117.298 147.84 117.298 148.718C117.298 149.58 116.744 150.212 115.881 150.212ZM116.867 153.938C117.745 153.938 118.191 154.262 118.191 154.878C118.191 155.509 117.637 155.987 115.881 155.987C114.557 155.987 113.679 155.679 113.679 154.862C113.679 154.493 113.849 154.139 114.218 153.908C114.418 153.923 114.634 153.938 114.865 153.938H116.867ZM121.529 154H123.377V149.919C123.377 148.441 124.008 147.594 125.117 147.594C126.056 147.594 126.549 148.194 126.549 149.365V154H128.397V149.211C128.397 147.178 127.519 146.115 125.856 146.115C124.686 146.115 123.839 146.654 123.377 147.717V142.835H121.529V154ZM129.443 147.64H130.829V151.613C130.829 153.168 131.445 154.139 133.293 154.139C133.77 154.139 134.109 154.092 134.555 154V152.445C134.309 152.491 134.109 152.537 133.801 152.537C133.031 152.537 132.677 152.137 132.677 151.32V147.64H134.555V146.3H132.677V143.62L130.829 144.36V146.3H129.443V147.64Z" fill="#362B26"/>
<path d="M29.456 118H31.124V114.856L34.628 109.48H32.792L30.548 113.044C30.416 113.26 30.344 113.404 30.308 113.548H30.284C30.248 113.404 30.176 113.26 30.056 113.044L27.836 109.48H25.964L29.456 114.856V118ZM37.9978 116.728V114.268H42.8218V113.032H37.9978V110.752H43.0258V109.48H36.3298V118H43.1098V116.728H37.9978ZM52.3901 118H54.1301L50.4101 109.48H48.5261L44.8061 118H46.5461L47.3861 115.924H51.5501L52.3901 118ZM47.8661 114.712L48.9221 112.096C49.1741 111.556 49.3301 111.208 49.4621 110.728H49.4861C49.6061 111.208 49.7621 111.556 50.0141 112.096L51.0701 114.712H47.8661ZM61.9132 118H63.7852L61.5892 114.448C62.9812 114.088 63.4972 113.032 63.4972 112.06C63.4972 110.74 62.7652 109.48 60.4132 109.48H56.0572V118H57.7252V114.664H59.8732L61.9132 118ZM57.7252 110.716H60.1012C61.3492 110.716 61.7572 111.328 61.7572 112.072C61.7572 112.828 61.3372 113.464 60.1012 113.464H57.7252V110.716ZM69.0638 118.24C71.5718 118.24 72.8918 117.148 72.8918 115.552C72.8918 114.028 71.9318 113.368 70.1678 113.104L68.4158 112.84C67.3358 112.672 66.9278 112.348 66.9278 111.64C66.9278 110.908 67.6478 110.476 68.8598 110.476C70.2878 110.476 71.1758 111.052 71.5598 112.072L72.8558 111.376C72.2918 109.924 70.8638 109.24 68.9318 109.24C66.6398 109.24 65.2718 110.2 65.2718 111.76C65.2718 113.224 66.2078 113.956 67.8158 114.208L69.6398 114.46C70.7078 114.628 71.2118 114.916 71.2118 115.708C71.2118 116.596 70.3838 116.968 69.1238 116.968C67.5158 116.968 66.5798 116.212 66.1718 115.144L64.7798 115.768C65.2718 117.28 66.7358 118.24 69.0638 118.24Z" fill="#054217"/>
<path d="M33.944 341.48H26.108V342.812H29.192V350H30.86V342.812H33.944V341.48ZM39.2586 350.24C42.1026 350.24 43.9626 348.488 43.9626 345.74C43.9626 342.98 42.1026 341.24 39.2586 341.24C36.4146 341.24 34.5546 342.98 34.5546 345.74C34.5546 348.476 36.4146 350.24 39.2586 350.24ZM39.2586 348.932C37.4346 348.932 36.2946 347.672 36.2946 345.74C36.2946 343.784 37.4346 342.548 39.2586 342.548C41.0826 342.548 42.2226 343.784 42.2226 345.74C42.2226 347.696 41.0826 348.932 39.2586 348.932ZM46.0939 350H47.6059V344.444C47.6059 344.012 47.5939 343.676 47.5819 343.34H47.6179C47.7379 343.652 47.9539 343.988 48.1819 344.336L52.3579 350H54.1459V341.48H52.6459V346.988C52.6459 347.42 52.6459 347.768 52.6579 348.104H52.6339C52.5019 347.78 52.3099 347.456 52.0579 347.096L47.9779 341.48H46.0939V350ZM57.0298 350H58.5418V344.444C58.5418 344.012 58.5298 343.676 58.5178 343.34H58.5538C58.6738 343.652 58.8898 343.988 59.1178 344.336L63.2938 350H65.0818V341.48H63.5818V346.988C63.5818 347.42 63.5818 347.768 63.5938 348.104H63.5698C63.4378 347.78 63.2458 347.456 62.9938 347.096L58.9138 341.48H57.0298V350ZM69.6338 348.728V346.268H74.4578V345.032H69.6338V342.752H74.6618V341.48H67.9658V350H74.7458V348.728H69.6338ZM80.4685 350.24C82.9765 350.24 84.2965 349.148 84.2965 347.552C84.2965 346.028 83.3365 345.368 81.5725 345.104L79.8205 344.84C78.7405 344.672 78.3325 344.348 78.3325 343.64C78.3325 342.908 79.0525 342.476 80.2645 342.476C81.6925 342.476 82.5805 343.052 82.9645 344.072L84.2605 343.376C83.6965 341.924 82.2685 341.24 80.3365 341.24C78.0445 341.24 76.6765 342.2 76.6765 343.76C76.6765 345.224 77.6125 345.956 79.2205 346.208L81.0445 346.46C82.1125 346.628 82.6165 346.916 82.6165 347.708C82.6165 348.596 81.7885 348.968 80.5285 348.968C78.9205 348.968 77.9845 348.212 77.5765 347.144L76.1845 347.768C76.6765 349.28 78.1405 350.24 80.4685 350.24ZM87.2089 351.404L91.5049 340.88H90.0529L85.7449 351.404H87.2089ZM100.473 342.764V341.48H93.7775V350H95.4455V346.34H100.269V345.068H95.4455V342.764H100.473ZM106.588 350.24C109.432 350.24 111.292 348.488 111.292 345.74C111.292 342.98 109.432 341.24 106.588 341.24C103.744 341.24 101.884 342.98 101.884 345.74C101.884 348.476 103.744 350.24 106.588 350.24ZM106.588 348.932C104.764 348.932 103.624 347.672 103.624 345.74C103.624 343.784 104.764 342.548 106.588 342.548C108.412 342.548 109.552 343.784 109.552 345.74C109.552 347.696 108.412 348.932 106.588 348.932ZM119.279 350H121.151L118.955 346.448C120.347 346.088 120.863 345.032 120.863 344.06C120.863 342.74 120.131 341.48 117.779 341.48H113.423V350H115.091V346.664H117.239L119.279 350ZM115.091 342.716H117.467C118.715 342.716 119.123 343.328 119.123 344.072C119.123 344.828 118.703 345.464 117.467 345.464H115.091V342.716ZM125.019 348.728V346.268H129.843V345.032H125.019V342.752H130.047V341.48H123.351V350H130.131V348.728H125.019ZM135.854 350.24C138.362 350.24 139.682 349.148 139.682 347.552C139.682 346.028 138.722 345.368 136.958 345.104L135.206 344.84C134.126 344.672 133.718 344.348 133.718 343.64C133.718 342.908 134.438 342.476 135.65 342.476C137.078 342.476 137.966 343.052 138.35 344.072L139.646 343.376C139.082 341.924 137.654 341.24 135.722 341.24C133.43 341.24 132.062 342.2 132.062 343.76C132.062 345.224 132.998 345.956 134.606 346.208L136.43 346.46C137.498 346.628 138.002 346.916 138.002 347.708C138.002 348.596 137.174 348.968 135.914 348.968C134.306 348.968 133.37 348.212 132.962 347.144L131.57 347.768C132.062 349.28 133.526 350.24 135.854 350.24ZM148.441 341.48H140.605V342.812H143.689V350H145.357V342.812H148.441V341.48Z" fill="#054217"/>
<path d="M27.14 234H28.616V227.832C28.616 227.448 28.592 227.1 28.556 226.8H28.604C28.652 227.028 28.772 227.472 28.892 227.796L31.316 234H32.852L35.276 227.796C35.408 227.472 35.552 226.992 35.588 226.8H35.636C35.6 227.112 35.576 227.484 35.576 227.832V234H37.1V225.48H34.664L32.372 231.42C32.24 231.78 32.168 231.996 32.12 232.284H32.096C32.048 231.996 31.976 231.792 31.856 231.42L29.552 225.48H27.14V234ZM41.6424 232.728V230.268H46.4664V229.032H41.6424V226.752H46.6704V225.48H39.9744V234H46.7544V232.728H41.6424ZM56.1674 225.48H48.3314V226.812H51.4154V234H53.0834V226.812H56.1674V225.48ZM59.6822 232.728V230.268H64.5062V229.032H59.6822V226.752H64.7102V225.48H58.0142V234H64.7942V232.728H59.6822ZM73.1538 234H75.0258L72.8298 230.448C74.2218 230.088 74.7378 229.032 74.7378 228.06C74.7378 226.74 74.0058 225.48 71.6538 225.48H67.2978V234H68.9658V230.664H71.1138L73.1538 234ZM68.9658 226.716H71.3418C72.5898 226.716 72.9978 227.328 72.9978 228.072C72.9978 228.828 72.5778 229.464 71.3418 229.464H68.9658V226.716ZM80.3044 234.24C82.8124 234.24 84.1324 233.148 84.1324 231.552C84.1324 230.028 83.1724 229.368 81.4084 229.104L79.6564 228.84C78.5764 228.672 78.1684 228.348 78.1684 227.64C78.1684 226.908 78.8884 226.476 80.1004 226.476C81.5284 226.476 82.4164 227.052 82.8004 228.072L84.0964 227.376C83.5324 225.924 82.1044 225.24 80.1724 225.24C77.8804 225.24 76.5124 226.2 76.5124 227.76C76.5124 229.224 77.4484 229.956 79.0564 230.208L80.8804 230.46C81.9484 230.628 82.4524 230.916 82.4524 231.708C82.4524 232.596 81.6244 232.968 80.3644 232.968C78.7564 232.968 77.8204 232.212 77.4124 231.144L76.0204 231.768C76.5124 233.28 77.9764 234.24 80.3044 234.24ZM87.0448 235.404L91.3408 224.88H89.8888L85.5808 235.404H87.0448ZM100.874 225.48H93.0385V226.812H96.1225V234H97.7905V226.812H100.874V225.48ZM108.577 234H110.449L108.253 230.448C109.645 230.088 110.161 229.032 110.161 228.06C110.161 226.74 109.429 225.48 107.077 225.48H102.721V234H104.389V230.664H106.537L108.577 234ZM104.389 226.716H106.765C108.013 226.716 108.421 227.328 108.421 228.072C108.421 228.828 108.001 229.464 106.765 229.464H104.389V226.716ZM114.317 232.728V230.268H119.141V229.032H114.317V226.752H119.345V225.48H112.649V234H119.429V232.728H114.317ZM123.601 232.728V230.268H128.425V229.032H123.601V226.752H128.629V225.48H121.933V234H128.713V232.728H123.601Z" fill="#054217"/>
<path d="M27.14 466H28.616V459.832C28.616 459.448 28.592 459.1 28.556 458.8H28.604C28.652 459.028 28.772 459.472 28.892 459.796L31.316 466H32.852L35.276 459.796C35.408 459.472 35.552 458.992 35.588 458.8H35.636C35.6 459.112 35.576 459.484 35.576 459.832V466H37.1V457.48H34.664L32.372 463.42C32.24 463.78 32.168 463.996 32.12 464.284H32.096C32.048 463.996 31.976 463.792 31.856 463.42L29.552 457.48H27.14V466ZM41.6424 464.728V462.268H46.4664V461.032H41.6424V458.752H46.6704V457.48H39.9744V466H46.7544V464.728H41.6424ZM56.1674 457.48H48.3314V458.812H51.4154V466H53.0834V458.812H56.1674V457.48ZM59.6822 464.728V462.268H64.5062V461.032H59.6822V458.752H64.7102V457.48H58.0142V466H64.7942V464.728H59.6822ZM73.1538 466H75.0258L72.8298 462.448C74.2218 462.088 74.7378 461.032 74.7378 460.06C74.7378 458.74 74.0058 457.48 71.6538 457.48H67.2978V466H68.9658V462.664H71.1138L73.1538 466ZM68.9658 458.716H71.3418C72.5898 458.716 72.9978 459.328 72.9978 460.072C72.9978 460.828 72.5778 461.464 71.3418 461.464H68.9658V458.716ZM78.0659 455.764C78.6339 455.764 79.0619 455.888 79.3499 456.136C79.6379 456.384 79.7819 456.7 79.7819 457.084C79.7819 457.404 79.6939 457.668 79.5179 457.876C79.3499 458.084 79.1459 458.228 78.9059 458.308V458.344C79.2179 458.4 79.4659 458.532 79.6499 458.74C79.8419 458.94 79.9379 459.204 79.9379 459.532C79.9379 459.996 79.7699 460.376 79.4339 460.672C79.0979 460.96 78.5739 461.104 77.8619 461.104C77.5659 461.104 77.2899 461.08 77.0339 461.032C76.7779 460.976 76.5299 460.888 76.2899 460.768V460.012C76.8499 460.284 77.3779 460.42 77.8739 460.42C78.2899 460.42 78.5939 460.34 78.7859 460.18C78.9779 460.012 79.0739 459.788 79.0739 459.508C79.0739 459.22 78.9579 459.012 78.7259 458.884C78.4939 458.748 78.1699 458.68 77.7539 458.68H77.0699V458.02H77.7539C78.1539 458.02 78.4459 457.944 78.6299 457.792C78.8219 457.632 78.9179 457.428 78.9179 457.18C78.9179 456.924 78.8339 456.74 78.6659 456.628C78.5059 456.508 78.3099 456.448 78.0779 456.448C77.8299 456.448 77.5979 456.492 77.3819 456.58C77.1739 456.66 76.9619 456.768 76.7459 456.904L76.3139 456.352C76.5619 456.168 76.8219 456.024 77.0939 455.92C77.3739 455.816 77.6979 455.764 78.0659 455.764Z" fill="#054217"/>
</svg>
