<svg width="312" height="604" viewBox="0 0 312 604" fill="none" xmlns="http://www.w3.org/2000/svg">
<rect width="312" height="604" fill="white"/>
<path d="M44.52 98.33C57.33 98.33 65.38 91.33 65.38 80.55C65.38 69.84 58.8 63.54 47.81 63.54C41.3 63.54 36.26 65.78 33.74 69.84L35.49 55.63H62.58V48.35H28.42L25.34 76.84L33.88 77.61C35.7 72.92 39.27 70.33 45.08 70.33C52.08 70.33 56 74.25 56 80.83C56 87.34 51.8 91.19 44.66 91.19C38.43 91.19 34.37 87.97 33.32 83.14L24.01 84.4C25.62 93.01 33.39 98.33 44.52 98.33ZM94.2796 98.33C108.56 98.33 117.24 88.46 117.24 72.71C117.24 56.89 108.56 47.02 94.2796 47.02C79.9996 47.02 71.2496 56.89 71.2496 72.71C71.2496 88.46 79.9996 98.33 94.2796 98.33ZM94.2796 91.12C85.7396 91.12 80.7696 84.33 80.7696 72.71C80.7696 60.95 85.7396 54.23 94.2796 54.23C102.82 54.23 107.79 60.95 107.79 72.71C107.79 84.33 102.82 91.12 94.2796 91.12Z" fill="#054217"/>
<path d="M23.45 337H64.75V329.44H36.96C43.89 326.5 48.86 323.63 53.2 320.48C59.99 315.3 63.91 309.91 63.91 302.77C63.91 293.11 56.91 287.02 44.17 287.02C31.85 287.02 23.94 293.32 23.94 302.7C23.94 303.96 24.08 305.01 24.36 306.2L33.81 307.11C33.53 305.78 33.39 304.52 33.39 303.54C33.39 297.8 37.38 294.3 43.89 294.3C50.75 294.3 54.04 298.01 54.04 303.26C54.04 308.3 52.08 311.94 46.06 316.7C39.97 321.46 32.06 326.01 23.45 330V337ZM84.3981 327.27H73.5481V337H84.3981V327.27ZM112.333 338.33C125.143 338.33 133.193 331.33 133.193 320.55C133.193 309.84 126.613 303.54 115.623 303.54C109.113 303.54 104.073 305.78 101.553 309.84L103.303 295.63H130.393V288.35H96.2325L93.1525 316.84L101.693 317.61C103.513 312.92 107.083 310.33 112.893 310.33C119.893 310.33 123.812 314.25 123.812 320.83C123.812 327.34 119.613 331.19 112.473 331.19C106.243 331.19 102.183 327.97 101.133 323.14L91.8225 324.4C93.4325 333.01 101.203 338.33 112.333 338.33ZM179.029 337H190.439L169.089 306.69L188.899 287.3H176.929L152.429 311.45V287.3H142.699V337H152.429V322.3L162.089 313.06L179.029 337Z" fill="#054217"/>
<path d="M69.16 568.42C69.16 559.81 63.91 555.54 52.64 553.72L48.58 553.23V539.02C54.95 539.72 58.87 542.52 60.9 547.35L68.25 543.36C64.89 536.43 58.31 532.72 48.58 532.16V526.07H44.1V532.16C32.13 532.65 24.92 537.83 24.92 545.81C24.92 553.65 29.89 558.06 40.32 559.81L44.1 560.3V576.12C37.31 575.42 32.55 572.41 30.03 566.67L22.19 570.17C25.2 578.15 33.04 582.63 44.1 583.26V589.35H48.58V583.33C61.39 582.84 69.16 577.1 69.16 568.42ZM43.96 552.6C36.75 551.41 33.95 549.38 33.95 545.46C33.95 541.26 37.52 539.16 44.1 538.88V552.6H43.96ZM48.58 576.26V560.86L49.63 561C56.98 562.26 59.99 564.22 59.99 568.77C59.99 573.46 55.93 575.98 48.58 576.26ZM85.9376 582H95.1776V533.35H87.3376C85.5876 538.67 81.1776 541.68 75.0176 541.75H73.4076V549.8H75.9976C80.1276 549.8 84.1176 548.47 85.9376 546.3V582ZM119.125 572.27H108.275V582H119.125V572.27ZM147.059 583.33C159.869 583.33 167.919 576.33 167.919 565.55C167.919 554.84 161.339 548.54 150.349 548.54C143.839 548.54 138.799 550.78 136.279 554.84L138.029 540.63H165.119V533.35H130.959L127.879 561.84L136.419 562.61C138.239 557.92 141.809 555.33 147.619 555.33C154.619 555.33 158.539 559.25 158.539 565.83C158.539 572.34 154.339 576.19 147.199 576.19C140.969 576.19 136.909 572.97 135.859 568.14L126.549 569.4C128.159 578.01 135.929 583.33 147.059 583.33ZM194.295 583.33C207.105 583.33 215.155 576.33 215.155 565.55C215.155 554.84 208.575 548.54 197.585 548.54C191.075 548.54 186.035 550.78 183.515 554.84L185.265 540.63H212.355V533.35H178.195L175.115 561.84L183.655 562.61C185.475 557.92 189.045 555.33 194.855 555.33C201.855 555.33 205.775 559.25 205.775 565.83C205.775 572.34 201.575 576.19 194.435 576.19C188.205 576.19 184.145 572.97 183.095 568.14L173.785 569.4C175.395 578.01 183.165 583.33 194.295 583.33ZM224.662 582H233.272V546.02C233.272 543.78 233.132 541.75 232.922 540H233.202C233.482 541.33 234.182 543.92 234.882 545.81L249.022 582H257.982L272.122 545.81C272.892 543.92 273.732 541.12 273.942 540H274.222C274.012 541.82 273.872 543.99 273.872 546.02V582H282.762V532.3H268.552L255.182 566.95C254.412 569.05 253.992 570.31 253.712 571.99H253.572C253.292 570.31 252.872 569.12 252.172 566.95L238.732 532.3H224.662V582Z" fill="#054217"/>
<path d="M44.52 458.33C57.33 458.33 65.38 451.33 65.38 440.55C65.38 429.84 58.8 423.54 47.81 423.54C41.3 423.54 36.26 425.78 33.74 429.84L35.49 415.63H62.58V408.35H28.42L25.34 436.84L33.88 437.61C35.7 432.92 39.27 430.33 45.08 430.33C52.08 430.33 56 434.25 56 440.83C56 447.34 51.8 451.19 44.66 451.19C38.43 451.19 34.37 447.97 33.32 443.14L24.01 444.4C25.62 453.01 33.39 458.33 44.52 458.33ZM77.4473 457H87.7373V455.18C87.7373 439.57 95.0873 426.13 107.267 415.28V408.35H67.9273V416.05H97.3273C84.7973 427.67 77.4473 441.46 77.4473 456.09V457Z" fill="#054217"/>
<path d="M35.92 217H46.21V215.18C46.21 199.57 53.56 186.13 65.74 175.28V168.35H26.4V176.05H55.8C43.27 187.67 35.92 201.46 35.92 216.09V217ZM74.863 207.27H64.013V217H74.863V207.27ZM104.227 218.33C118.507 218.33 127.187 208.46 127.187 192.71C127.187 176.89 118.507 167.02 104.227 167.02C89.9469 167.02 81.1969 176.89 81.1969 192.71C81.1969 208.46 89.9469 218.33 104.227 218.33ZM104.227 211.12C95.6869 211.12 90.7169 204.33 90.7169 192.71C90.7169 180.95 95.6869 174.23 104.227 174.23C112.767 174.23 117.737 180.95 117.737 192.71C117.737 204.33 112.767 211.12 104.227 211.12Z" fill="#054217"/>
<path d="M34.5316 36H36.549L32.4834 25.066H30.3274L26.2618 36H28.2792L29.2648 33.1202H33.546L34.5316 36ZM29.7884 31.611L31.0666 27.915C31.1898 27.5608 31.2976 27.1758 31.39 26.7446H31.4208C31.5132 27.1758 31.621 27.5608 31.7442 27.915L33.0224 31.611H29.7884ZM44.662 28.3616C44.893 28.3616 45.0932 28.3924 45.2934 28.4386V27.0526C45.1394 27.0218 45.0162 27.0064 44.8622 27.0064C43.7534 27.0064 43.0912 27.5762 42.8448 28.4232C42.3828 28.223 41.8438 28.1152 41.2124 28.1152C39.2566 28.1152 38.0554 29.1778 38.0554 30.7024C38.0554 31.5032 38.3942 32.1962 38.9948 32.6736C38.2402 32.9662 37.7782 33.5052 37.7782 34.306C37.7782 34.9066 38.0708 35.4148 38.7484 35.692C37.9168 35.9692 37.4702 36.5236 37.4702 37.2012C37.4702 38.2946 38.4404 39.1878 41.0892 39.1878C43.8612 39.1878 45.201 38.156 45.201 36.5698C45.201 35.1376 44.277 34.3522 42.4752 34.3522H40.4578C39.6108 34.3522 39.2874 34.0596 39.2874 33.6438C39.2874 33.3666 39.4414 33.1818 39.6724 33.0586C40.1036 33.2434 40.6272 33.3358 41.2124 33.3358C43.1836 33.3358 44.3848 32.227 44.3848 30.7024C44.3848 29.9478 44.0922 29.3164 43.5686 28.8544C43.7842 28.531 44.1692 28.3616 44.662 28.3616ZM41.2124 32.2116C40.35 32.2116 39.7956 31.5802 39.7956 30.7024C39.7956 29.84 40.35 29.2394 41.2124 29.2394C42.0748 29.2394 42.6292 29.84 42.6292 30.7178C42.6292 31.5802 42.0748 32.2116 41.2124 32.2116ZM42.198 35.9384C43.0758 35.9384 43.5224 36.2618 43.5224 36.8778C43.5224 37.5092 42.968 37.9866 41.2124 37.9866C39.888 37.9866 39.0102 37.6786 39.0102 36.8624C39.0102 36.4928 39.1796 36.1386 39.5492 35.9076C39.7494 35.923 39.965 35.9384 40.196 35.9384H42.198ZM53.0721 31.765C53.0721 29.4088 51.7939 28.1152 49.5609 28.1152C47.2663 28.1152 45.8803 29.686 45.8803 32.227C45.8803 34.7526 47.2971 36.1848 49.6533 36.1848C51.2241 36.1848 52.4407 35.4456 53.0105 34.1058L51.5937 33.459C51.2395 34.2906 50.5927 34.7372 49.7149 34.7372C48.4983 34.7372 47.6821 33.9056 47.6667 32.612H53.0721V31.765ZM51.2549 31.3954H47.6667C47.6975 30.1172 48.3597 29.3472 49.5301 29.3472C50.6235 29.3472 51.2549 30.0094 51.2549 31.2722V31.3954Z" fill="#362B26"/>
<path d="M34.7472 265.066H26.1386V266.683H29.4496V276H31.4362V266.683H34.7472V265.066ZM38.2236 276.185C40.4412 276.185 41.9966 274.722 41.9966 272.135C41.9966 269.563 40.4412 268.115 38.2236 268.115C36.006 268.115 34.4506 269.563 34.4506 272.135C34.4506 274.722 36.006 276.185 38.2236 276.185ZM38.2236 274.783C37.0378 274.783 36.3294 273.89 36.3294 272.135C36.3294 270.379 37.0378 269.517 38.2236 269.517C39.4094 269.517 40.1024 270.379 40.1024 272.135C40.1024 273.89 39.4094 274.783 38.2236 274.783ZM42.7274 269.64H44.1134V273.613C44.1134 275.168 44.7294 276.139 46.5774 276.139C47.0548 276.139 47.3936 276.092 47.8402 276V274.445C47.5938 274.491 47.3936 274.537 47.0856 274.537C46.3156 274.537 45.9614 274.137 45.9614 273.32V269.64H47.8402V268.3H45.9614V265.62L44.1134 266.36V268.3H42.7274V269.64ZM51.4757 276.185C52.7077 276.185 53.6779 275.615 54.0475 274.676C54.0629 275.153 54.1091 275.615 54.1707 276H56.0187C55.8647 275.461 55.7877 274.66 55.7877 273.613V271.318C55.7877 269.085 54.7713 268.115 52.4921 268.115C50.5055 268.115 49.2119 269.132 49.0887 270.779H50.9829C51.0445 269.902 51.5835 269.424 52.4921 269.424C53.4777 269.424 53.9243 269.917 53.9243 271.072V271.272L52.2919 271.472C51.0753 271.642 50.3361 271.842 49.7817 272.165C49.1657 272.55 48.8423 273.166 48.8423 273.906C48.8423 275.276 49.8895 276.185 51.4757 276.185ZM52.0609 274.876C51.2447 274.876 50.7519 274.46 50.7519 273.813C50.7519 273.151 51.2139 272.781 52.2303 272.612L53.9705 272.35V272.843C53.9705 274.06 53.2005 274.876 52.0609 274.876ZM59.9871 264.835H58.1391V276H59.9871V264.835ZM70.8898 276.262C73.554 276.262 75.0478 274.706 75.5098 272.52L73.5386 272.119C73.2614 273.659 72.3066 274.599 70.9052 274.599C68.9032 274.599 67.8252 272.889 67.8252 270.502C67.8252 268.054 68.934 266.437 70.859 266.437C72.3682 266.437 73.2768 267.422 73.4616 268.978L75.4944 268.685C75.2018 266.36 73.6464 264.804 70.9206 264.804C67.6404 264.804 65.777 267.114 65.777 270.518C65.777 273.829 67.4556 276.262 70.8898 276.262ZM79.4032 276.185C80.6352 276.185 81.6054 275.615 81.975 274.676C81.9904 275.153 82.0366 275.615 82.0982 276H83.9462C83.7922 275.461 83.7152 274.66 83.7152 273.613V271.318C83.7152 269.085 82.6988 268.115 80.4196 268.115C78.433 268.115 77.1394 269.132 77.0162 270.779H78.9104C78.972 269.902 79.511 269.424 80.4196 269.424C81.4052 269.424 81.8518 269.917 81.8518 271.072V271.272L80.2194 271.472C79.0028 271.642 78.2636 271.842 77.7092 272.165C77.0932 272.55 76.7698 273.166 76.7698 273.906C76.7698 275.276 77.817 276.185 79.4032 276.185ZM79.9884 274.876C79.1722 274.876 78.6794 274.46 78.6794 273.813C78.6794 273.151 79.1414 272.781 80.1578 272.612L81.898 272.35V272.843C81.898 274.06 81.128 274.876 79.9884 274.876ZM87.7144 270.163V268.3H85.9896V276H87.8376V272.766C87.8376 271.919 87.9146 271.041 88.5306 270.441C88.8848 270.102 89.393 269.886 90.1322 269.886C90.2246 269.886 90.3016 269.902 90.3786 269.902V268.131C90.3016 268.115 90.24 268.115 90.163 268.115C88.9156 268.115 88.0994 268.947 87.7144 270.163ZM96.1196 276.185C98.0446 276.185 99.292 274.568 99.292 272.15C99.292 269.763 98.0754 268.115 96.1966 268.115C95.057 268.115 94.2254 268.7 93.825 269.501V264.835H91.977V276H93.5324L93.7172 274.753C94.1176 275.615 94.98 276.185 96.1196 276.185ZM95.5344 274.768C94.4256 274.768 93.7788 273.859 93.7788 272.427V271.904C93.7788 270.441 94.441 269.532 95.5344 269.532C96.7202 269.532 97.367 270.548 97.367 272.15C97.367 273.782 96.6894 274.768 95.5344 274.768ZM104.29 276.185C106.508 276.185 108.063 274.722 108.063 272.135C108.063 269.563 106.508 268.115 104.29 268.115C102.073 268.115 100.517 269.563 100.517 272.135C100.517 274.722 102.073 276.185 104.29 276.185ZM104.29 274.783C103.104 274.783 102.396 273.89 102.396 272.135C102.396 270.379 103.104 269.517 104.29 269.517C105.476 269.517 106.169 270.379 106.169 272.135C106.169 273.89 105.476 274.783 104.29 274.783ZM109.887 276H111.735V271.919C111.735 270.456 112.381 269.594 113.459 269.594C114.43 269.594 114.907 270.194 114.907 271.411V276H116.755V271.226C116.755 269.162 115.877 268.115 114.199 268.115C113.013 268.115 112.166 268.67 111.642 269.794V268.3H109.887V276ZM126.514 276.262C129.301 276.262 130.718 274.783 130.718 272.905C130.718 270.964 129.517 270.133 127.715 269.748L126.129 269.409C124.928 269.147 124.435 268.685 124.435 267.792C124.435 266.868 125.236 266.313 126.421 266.313C127.869 266.313 128.778 267.037 129.132 268.3L130.718 267.468C130.241 265.651 128.593 264.804 126.514 264.804C124.05 264.804 122.51 266.052 122.51 267.946C122.51 269.809 123.649 270.733 125.374 271.087L126.899 271.411C128.1 271.657 128.747 272.027 128.747 273.089C128.747 274.229 127.7 274.676 126.575 274.676C124.881 274.676 123.988 273.69 123.619 272.458L121.925 273.197C122.371 274.984 123.927 276.262 126.514 276.262ZM131.353 269.64H132.739V273.613C132.739 275.168 133.355 276.139 135.203 276.139C135.68 276.139 136.019 276.092 136.465 276V274.445C136.219 274.491 136.019 274.537 135.711 274.537C134.941 274.537 134.587 274.137 134.587 273.32V269.64H136.465V268.3H134.587V265.62L132.739 266.36V268.3H131.353V269.64ZM141.211 276.185C143.429 276.185 144.984 274.722 144.984 272.135C144.984 269.563 143.429 268.115 141.211 268.115C138.994 268.115 137.438 269.563 137.438 272.135C137.438 274.722 138.994 276.185 141.211 276.185ZM141.211 274.783C140.025 274.783 139.317 273.89 139.317 272.135C139.317 270.379 140.025 269.517 141.211 269.517C142.397 269.517 143.09 270.379 143.09 272.135C143.09 273.89 142.397 274.783 141.211 274.783ZM148.532 270.163V268.3H146.808V276H148.656V272.766C148.656 271.919 148.733 271.041 149.349 270.441C149.703 270.102 150.211 269.886 150.95 269.886C151.043 269.886 151.12 269.902 151.197 269.902V268.131C151.12 268.115 151.058 268.115 150.981 268.115C149.734 268.115 148.917 268.947 148.532 270.163ZM159.188 271.765C159.188 269.409 157.91 268.115 155.677 268.115C153.382 268.115 151.996 269.686 151.996 272.227C151.996 274.753 153.413 276.185 155.769 276.185C157.34 276.185 158.556 275.446 159.126 274.106L157.709 273.459C157.355 274.291 156.708 274.737 155.831 274.737C154.614 274.737 153.798 273.906 153.782 272.612H159.188V271.765ZM157.371 271.395H153.782C153.813 270.117 154.475 269.347 155.646 269.347C156.739 269.347 157.371 270.009 157.371 271.272V271.395ZM163.604 276.185C164.759 276.185 165.637 275.6 166.068 274.614V276H167.808V264.835H165.96V269.393C165.529 268.531 164.759 268.115 163.743 268.115C161.818 268.115 160.493 269.748 160.493 272.165C160.493 274.568 161.741 276.185 163.604 276.185ZM164.236 274.768C163.111 274.768 162.418 273.782 162.418 272.135C162.418 270.487 163.096 269.532 164.22 269.532C165.329 269.532 166.007 270.41 166.007 271.919V272.412C166.007 273.859 165.314 274.768 164.236 274.768Z" fill="#362B26"/>
<path d="M34.5316 518H36.549L32.4834 507.066H30.3274L26.2618 518H28.2792L29.2648 515.12H33.546L34.5316 518ZM29.7884 513.611L31.0666 509.915C31.1898 509.561 31.2976 509.176 31.39 508.745H31.4208C31.5132 509.176 31.621 509.561 31.7442 509.915L33.0224 513.611H29.7884ZM41.0209 518.185C42.8535 518.185 44.1471 517.138 44.4243 515.428L42.6841 515.074C42.5147 516.152 41.9449 516.722 41.0209 516.722C39.8351 516.722 39.1421 515.767 39.1421 514.104C39.1421 512.518 39.8505 511.563 40.9901 511.563C41.8987 511.563 42.4993 512.133 42.6225 513.18L44.4243 512.887C44.1933 511.132 42.9459 510.115 41.0363 510.115C38.6955 510.115 37.2479 511.64 37.2479 514.15C37.2479 516.599 38.7263 518.185 41.0209 518.185ZM49.3826 518.185C51.2152 518.185 52.5088 517.138 52.786 515.428L51.0458 515.074C50.8764 516.152 50.3066 516.722 49.3826 516.722C48.1968 516.722 47.5038 515.767 47.5038 514.104C47.5038 512.518 48.2122 511.563 49.3518 511.563C50.2604 511.563 50.861 512.133 50.9842 513.18L52.786 512.887C52.555 511.132 51.3076 510.115 49.398 510.115C47.0572 510.115 45.6096 511.64 45.6096 514.15C45.6096 516.599 47.088 518.185 49.3826 518.185ZM56.9908 518.185C58.0996 518.185 59.0236 517.523 59.3932 516.568V518H61.1488V510.3H59.2854V514.566C59.2854 515.859 58.6078 516.706 57.5914 516.706C56.6982 516.706 56.2362 516.09 56.2362 514.966V510.3H54.3882V515.243C54.3882 517.045 55.112 518.185 56.9908 518.185ZM63.5965 510.3V518H65.4445V513.549C65.4445 512.317 65.9835 511.594 66.9075 511.594C67.7237 511.594 68.1549 512.148 68.1549 513.211V518H70.0029V513.503C70.0029 512.271 70.5265 511.594 71.4659 511.594C72.3129 511.594 72.7287 512.133 72.7287 513.257V518H74.5767V512.964C74.5767 511.162 73.6989 510.115 72.2205 510.115C71.1425 510.115 70.3417 510.623 69.8181 511.671C69.4485 510.639 68.7093 510.115 67.6313 510.115C66.5533 510.115 65.8141 510.623 65.3521 511.655V510.3H63.5965ZM79.2637 518.185C80.3725 518.185 81.2965 517.523 81.6661 516.568V518H83.4217V510.3H81.5583V514.566C81.5583 515.859 80.8807 516.706 79.8643 516.706C78.9711 516.706 78.5091 516.09 78.5091 514.966V510.3H76.6611V515.243C76.6611 517.045 77.3849 518.185 79.2637 518.185ZM87.7943 506.835H85.9463V518H87.7943V506.835ZM92.2767 518.185C93.5087 518.185 94.4789 517.615 94.8485 516.676C94.8639 517.153 94.9101 517.615 94.9717 518H96.8197C96.6657 517.461 96.5887 516.66 96.5887 515.613V513.318C96.5887 511.085 95.5723 510.115 93.2931 510.115C91.3065 510.115 90.0129 511.132 89.8897 512.779H91.7839C91.8455 511.902 92.3845 511.424 93.2931 511.424C94.2787 511.424 94.7253 511.917 94.7253 513.072V513.272L93.0929 513.472C91.8763 513.642 91.1371 513.842 90.5827 514.165C89.9667 514.55 89.6433 515.166 89.6433 515.906C89.6433 517.276 90.6905 518.185 92.2767 518.185ZM92.8619 516.876C92.0457 516.876 91.5529 516.46 91.5529 515.813C91.5529 515.151 92.0149 514.781 93.0313 514.612L94.7715 514.35V514.843C94.7715 516.06 94.0015 516.876 92.8619 516.876ZM97.7253 511.64H99.1113V515.613C99.1113 517.168 99.7273 518.139 101.575 518.139C102.053 518.139 102.391 518.092 102.838 518V516.445C102.592 516.491 102.391 516.537 102.083 516.537C101.313 516.537 100.959 516.137 100.959 515.32V511.64H102.838V510.3H100.959V507.62L99.1113 508.36V510.3H97.7253V511.64ZM104.44 509.022H106.442V507.097H104.44V509.022ZM104.533 518H106.381V510.3H104.533V518ZM110.451 518H112.453L115.194 510.3H113.254L111.76 515.182C111.637 515.582 111.544 515.967 111.483 516.321H111.437C111.375 515.967 111.283 515.582 111.159 515.182L109.65 510.3H107.71L110.451 518ZM122.929 513.765C122.929 511.409 121.65 510.115 119.417 510.115C117.123 510.115 115.737 511.686 115.737 514.227C115.737 516.753 117.154 518.185 119.51 518.185C121.081 518.185 122.297 517.446 122.867 516.106L121.45 515.459C121.096 516.291 120.449 516.737 119.571 516.737C118.355 516.737 117.539 515.906 117.523 514.612H122.929V513.765ZM121.111 513.395H117.523C117.554 512.117 118.216 511.347 119.387 511.347C120.48 511.347 121.111 512.009 121.111 513.272V513.395ZM133.197 518.262C135.861 518.262 137.355 516.706 137.817 514.52L135.845 514.119C135.568 515.659 134.613 516.599 133.212 516.599C131.21 516.599 130.132 514.889 130.132 512.502C130.132 510.054 131.241 508.437 133.166 508.437C134.675 508.437 135.584 509.422 135.768 510.978L137.801 510.685C137.509 508.36 135.953 506.804 133.227 506.804C129.947 506.804 128.084 509.114 128.084 512.518C128.084 515.829 129.762 518.262 133.197 518.262ZM141.71 518.185C142.942 518.185 143.912 517.615 144.282 516.676C144.297 517.153 144.343 517.615 144.405 518H146.253C146.099 517.461 146.022 516.66 146.022 515.613V513.318C146.022 511.085 145.006 510.115 142.726 510.115C140.74 510.115 139.446 511.132 139.323 512.779H141.217C141.279 511.902 141.818 511.424 142.726 511.424C143.712 511.424 144.159 511.917 144.159 513.072V513.272L142.526 513.472C141.31 513.642 140.57 513.842 140.016 514.165C139.4 514.55 139.077 515.166 139.077 515.906C139.077 517.276 140.124 518.185 141.71 518.185ZM142.295 516.876C141.479 516.876 140.986 516.46 140.986 515.813C140.986 515.151 141.448 514.781 142.465 514.612L144.205 514.35V514.843C144.205 516.06 143.435 516.876 142.295 516.876ZM150.021 512.163V510.3H148.296V518H150.144V514.766C150.144 513.919 150.221 513.041 150.837 512.441C151.192 512.102 151.7 511.886 152.439 511.886C152.531 511.886 152.608 511.902 152.685 511.902V510.131C152.608 510.115 152.547 510.115 152.47 510.115C151.222 510.115 150.406 510.947 150.021 512.163ZM158.426 518.185C160.351 518.185 161.599 516.568 161.599 514.15C161.599 511.763 160.382 510.115 158.503 510.115C157.364 510.115 156.532 510.7 156.132 511.501V506.835H154.284V518H155.839L156.024 516.753C156.424 517.615 157.287 518.185 158.426 518.185ZM157.841 516.768C156.732 516.768 156.086 515.859 156.086 514.427V513.904C156.086 512.441 156.748 511.532 157.841 511.532C159.027 511.532 159.674 512.548 159.674 514.15C159.674 515.782 158.996 516.768 157.841 516.768ZM166.597 518.185C168.815 518.185 170.37 516.722 170.37 514.135C170.37 511.563 168.815 510.115 166.597 510.115C164.379 510.115 162.824 511.563 162.824 514.135C162.824 516.722 164.379 518.185 166.597 518.185ZM166.597 516.783C165.411 516.783 164.703 515.89 164.703 514.135C164.703 512.379 165.411 511.517 166.597 511.517C167.783 511.517 168.476 512.379 168.476 514.135C168.476 515.89 167.783 516.783 166.597 516.783ZM172.194 518H174.042V513.919C174.042 512.456 174.688 511.594 175.766 511.594C176.737 511.594 177.214 512.194 177.214 513.411V518H179.062V513.226C179.062 511.162 178.184 510.115 176.506 510.115C175.32 510.115 174.473 510.67 173.949 511.794V510.3H172.194V518ZM188.821 518.262C191.608 518.262 193.025 516.783 193.025 514.905C193.025 512.964 191.824 512.133 190.022 511.748L188.436 511.409C187.234 511.147 186.742 510.685 186.742 509.792C186.742 508.868 187.542 508.313 188.728 508.313C190.176 508.313 191.084 509.037 191.439 510.3L193.025 509.468C192.547 507.651 190.9 506.804 188.821 506.804C186.357 506.804 184.817 508.052 184.817 509.946C184.817 511.809 185.956 512.733 187.681 513.087L189.206 513.411C190.407 513.657 191.054 514.027 191.054 515.089C191.054 516.229 190.006 516.676 188.882 516.676C187.188 516.676 186.295 515.69 185.925 514.458L184.231 515.197C184.678 516.984 186.233 518.262 188.821 518.262ZM193.659 511.64H195.045V515.613C195.045 517.168 195.661 518.139 197.509 518.139C197.987 518.139 198.326 518.092 198.772 518V516.445C198.526 516.491 198.326 516.537 198.018 516.537C197.248 516.537 196.893 516.137 196.893 515.32V511.64H198.772V510.3H196.893V507.62L195.045 508.36V510.3H193.659V511.64ZM203.518 518.185C205.736 518.185 207.291 516.722 207.291 514.135C207.291 511.563 205.736 510.115 203.518 510.115C201.3 510.115 199.745 511.563 199.745 514.135C199.745 516.722 201.3 518.185 203.518 518.185ZM203.518 516.783C202.332 516.783 201.624 515.89 201.624 514.135C201.624 512.379 202.332 511.517 203.518 511.517C204.704 511.517 205.397 512.379 205.397 514.135C205.397 515.89 204.704 516.783 203.518 516.783ZM210.839 512.163V510.3H209.114V518H210.962V514.766C210.962 513.919 211.039 513.041 211.655 512.441C212.01 512.102 212.518 511.886 213.257 511.886C213.349 511.886 213.426 511.902 213.503 511.902V510.131C213.426 510.115 213.365 510.115 213.288 510.115C212.04 510.115 211.224 510.947 210.839 512.163ZM216.905 518.185C218.137 518.185 219.108 517.615 219.477 516.676C219.493 517.153 219.539 517.615 219.6 518H221.448C221.294 517.461 221.217 516.66 221.217 515.613V513.318C221.217 511.085 220.201 510.115 217.922 510.115C215.935 510.115 214.642 511.132 214.518 512.779H216.413C216.474 511.902 217.013 511.424 217.922 511.424C218.907 511.424 219.354 511.917 219.354 513.072V513.272L217.722 513.472C216.505 513.642 215.766 513.842 215.211 514.165C214.595 514.55 214.272 515.166 214.272 515.906C214.272 517.276 215.319 518.185 216.905 518.185ZM217.491 516.876C216.674 516.876 216.182 516.46 216.182 515.813C216.182 515.151 216.644 514.781 217.66 514.612L219.4 514.35V514.843C219.4 516.06 218.63 516.876 217.491 516.876ZM229.748 510.362C229.979 510.362 230.179 510.392 230.379 510.439V509.053C230.225 509.022 230.102 509.006 229.948 509.006C228.839 509.006 228.177 509.576 227.931 510.423C227.469 510.223 226.93 510.115 226.298 510.115C224.342 510.115 223.141 511.178 223.141 512.702C223.141 513.503 223.48 514.196 224.081 514.674C223.326 514.966 222.864 515.505 222.864 516.306C222.864 516.907 223.157 517.415 223.834 517.692C223.003 517.969 222.556 518.524 222.556 519.201C222.556 520.295 223.526 521.188 226.175 521.188C228.947 521.188 230.287 520.156 230.287 518.57C230.287 517.138 229.363 516.352 227.561 516.352H225.544C224.697 516.352 224.373 516.06 224.373 515.644C224.373 515.367 224.527 515.182 224.758 515.059C225.189 515.243 225.713 515.336 226.298 515.336C228.269 515.336 229.471 514.227 229.471 512.702C229.471 511.948 229.178 511.316 228.654 510.854C228.87 510.531 229.255 510.362 229.748 510.362ZM226.298 514.212C225.436 514.212 224.881 513.58 224.881 512.702C224.881 511.84 225.436 511.239 226.298 511.239C227.161 511.239 227.715 511.84 227.715 512.718C227.715 513.58 227.161 514.212 226.298 514.212ZM227.284 517.938C228.162 517.938 228.608 518.262 228.608 518.878C228.608 519.509 228.054 519.987 226.298 519.987C224.974 519.987 224.096 519.679 224.096 518.862C224.096 518.493 224.265 518.139 224.635 517.908C224.835 517.923 225.051 517.938 225.282 517.938H227.284ZM238.158 513.765C238.158 511.409 236.88 510.115 234.647 510.115C232.352 510.115 230.966 511.686 230.966 514.227C230.966 516.753 232.383 518.185 234.739 518.185C236.31 518.185 237.526 517.446 238.096 516.106L236.679 515.459C236.325 516.291 235.678 516.737 234.801 516.737C233.584 516.737 232.768 515.906 232.752 514.612H238.158V513.765ZM236.341 513.395H232.752C232.783 512.117 233.445 511.347 234.616 511.347C235.709 511.347 236.341 512.009 236.341 513.272V513.395ZM246.516 518H248.78L252.522 507.066H250.397L248.056 514.643C247.856 515.29 247.748 515.721 247.687 516.137H247.625C247.548 515.721 247.44 515.29 247.24 514.643L244.899 507.066H242.79L246.516 518ZM255.345 518.185C256.577 518.185 257.547 517.615 257.917 516.676C257.932 517.153 257.979 517.615 258.04 518H259.888C259.734 517.461 259.657 516.66 259.657 515.613V513.318C259.657 511.085 258.641 510.115 256.362 510.115C254.375 510.115 253.081 511.132 252.958 512.779H254.852C254.914 511.902 255.453 511.424 256.362 511.424C257.347 511.424 257.794 511.917 257.794 513.072V513.272L256.161 513.472C254.945 513.642 254.206 513.842 253.651 514.165C253.035 514.55 252.712 515.166 252.712 515.906C252.712 517.276 253.759 518.185 255.345 518.185ZM255.93 516.876C255.114 516.876 254.621 516.46 254.621 515.813C254.621 515.151 255.083 514.781 256.1 514.612L257.84 514.35V514.843C257.84 516.06 257.07 516.876 255.93 516.876ZM263.857 506.835H262.009V518H263.857V506.835ZM268.801 518.185C269.91 518.185 270.834 517.523 271.203 516.568V518H272.959V510.3H271.096V514.566C271.096 515.859 270.418 516.706 269.402 516.706C268.508 516.706 268.046 516.09 268.046 514.966V510.3H266.198V515.243C266.198 517.045 266.922 518.185 268.801 518.185ZM281.952 513.765C281.952 511.409 280.673 510.115 278.44 510.115C276.146 510.115 274.76 511.686 274.76 514.227C274.76 516.753 276.177 518.185 278.533 518.185C280.104 518.185 281.32 517.446 281.89 516.106L280.473 515.459C280.119 516.291 279.472 516.737 278.594 516.737C277.378 516.737 276.562 515.906 276.546 514.612H281.952V513.765ZM280.134 513.395H276.546C276.577 512.117 277.239 511.347 278.41 511.347C279.503 511.347 280.134 512.009 280.134 513.272V513.395Z" fill="#362B26"/>
<path d="M29.7884 396H32.0522L35.7944 385.066H33.6692L31.3284 392.643C31.1282 393.29 31.0204 393.721 30.9588 394.137H30.8972C30.8202 393.721 30.7124 393.29 30.5122 392.643L28.1714 385.066H26.0616L29.7884 396ZM39.6975 396.185C41.9151 396.185 43.4705 394.722 43.4705 392.135C43.4705 389.563 41.9151 388.115 39.6975 388.115C37.4799 388.115 35.9245 389.563 35.9245 392.135C35.9245 394.722 37.4799 396.185 39.6975 396.185ZM39.6975 394.783C38.5117 394.783 37.8033 393.89 37.8033 392.135C37.8033 390.379 38.5117 389.517 39.6975 389.517C40.8833 389.517 41.5763 390.379 41.5763 392.135C41.5763 393.89 40.8833 394.783 39.6975 394.783ZM47.2189 384.835H45.3709V396H47.2189V384.835ZM52.1633 396.185C53.2721 396.185 54.1961 395.523 54.5657 394.568V396H56.3213V388.3H54.4579V392.566C54.4579 393.859 53.7803 394.706 52.7639 394.706C51.8707 394.706 51.4087 394.09 51.4087 392.966V388.3H49.5607V393.243C49.5607 395.045 50.2845 396.185 52.1633 396.185ZM58.7689 388.3V396H60.6169V391.549C60.6169 390.317 61.1559 389.594 62.0799 389.594C62.8961 389.594 63.3273 390.148 63.3273 391.211V396H65.1753V391.503C65.1753 390.271 65.6989 389.594 66.6383 389.594C67.4853 389.594 67.9011 390.133 67.9011 391.257V396H69.7491V390.964C69.7491 389.162 68.8713 388.115 67.3929 388.115C66.3149 388.115 65.5141 388.623 64.9905 389.671C64.6209 388.639 63.8817 388.115 62.8037 388.115C61.7257 388.115 60.9865 388.623 60.5245 389.655V388.3H58.7689ZM78.5633 391.765C78.5633 389.409 77.2851 388.115 75.0521 388.115C72.7575 388.115 71.3715 389.686 71.3715 392.227C71.3715 394.753 72.7883 396.185 75.1445 396.185C76.7153 396.185 77.9319 395.446 78.5017 394.106L77.0849 393.459C76.7307 394.291 76.0839 394.737 75.2061 394.737C73.9895 394.737 73.1733 393.906 73.1579 392.612H78.5633V391.765ZM76.7461 391.395H73.1579C73.1887 390.117 73.8509 389.347 75.0213 389.347C76.1147 389.347 76.7461 390.009 76.7461 391.272V391.395Z" fill="#362B26"/>
<path d="M34.5316 156H36.549L32.4834 145.066H30.3274L26.2618 156H28.2792L29.2648 153.12H33.546L34.5316 156ZM29.7884 151.611L31.0666 147.915C31.1898 147.561 31.2976 147.176 31.39 146.745H31.4208C31.5132 147.176 31.621 147.561 31.7442 147.915L33.0224 151.611H29.7884ZM39.3763 156H41.3783L44.1195 148.3H42.1791L40.6853 153.182C40.5621 153.582 40.4697 153.967 40.4081 154.321H40.3619C40.3003 153.967 40.2079 153.582 40.0847 153.182L38.5755 148.3H36.6351L39.3763 156ZM51.854 151.765C51.854 149.409 50.5758 148.115 48.3428 148.115C46.0482 148.115 44.6622 149.686 44.6622 152.227C44.6622 154.753 46.079 156.185 48.4352 156.185C50.006 156.185 51.2226 155.446 51.7924 154.106L50.3756 153.459C50.0214 154.291 49.3746 154.737 48.4968 154.737C47.2802 154.737 46.464 153.906 46.4486 152.612H51.854V151.765ZM50.0368 151.395H46.4486C46.4794 150.117 47.1416 149.347 48.312 149.347C49.4054 149.347 50.0368 150.009 50.0368 151.272V151.395ZM55.4707 150.163V148.3H53.7459V156H55.5939V152.766C55.5939 151.919 55.6709 151.041 56.2869 150.441C56.6411 150.102 57.1493 149.886 57.8885 149.886C57.9809 149.886 58.0579 149.902 58.1349 149.902V148.131C58.0579 148.115 57.9963 148.115 57.9193 148.115C56.6719 148.115 55.8557 148.947 55.4707 150.163ZM61.5368 156.185C62.7688 156.185 63.739 155.615 64.1086 154.676C64.124 155.153 64.1702 155.615 64.2318 156H66.0798C65.9258 155.461 65.8488 154.66 65.8488 153.613V151.318C65.8488 149.085 64.8324 148.115 62.5532 148.115C60.5666 148.115 59.273 149.132 59.1498 150.779H61.044C61.1056 149.902 61.6446 149.424 62.5532 149.424C63.5388 149.424 63.9854 149.917 63.9854 151.072V151.272L62.353 151.472C61.1364 151.642 60.3972 151.842 59.8428 152.165C59.2268 152.55 58.9034 153.166 58.9034 153.906C58.9034 155.276 59.9506 156.185 61.5368 156.185ZM62.122 154.876C61.3058 154.876 60.813 154.46 60.813 153.813C60.813 153.151 61.275 152.781 62.2914 152.612L64.0316 152.35V152.843C64.0316 154.06 63.2616 154.876 62.122 154.876ZM74.3792 148.362C74.6102 148.362 74.8104 148.392 75.0106 148.439V147.053C74.8566 147.022 74.7334 147.006 74.5794 147.006C73.4706 147.006 72.8084 147.576 72.562 148.423C72.1 148.223 71.561 148.115 70.9296 148.115C68.9738 148.115 67.7726 149.178 67.7726 150.702C67.7726 151.503 68.1114 152.196 68.712 152.674C67.9574 152.966 67.4954 153.505 67.4954 154.306C67.4954 154.907 67.788 155.415 68.4656 155.692C67.634 155.969 67.1874 156.524 67.1874 157.201C67.1874 158.295 68.1576 159.188 70.8064 159.188C73.5784 159.188 74.9182 158.156 74.9182 156.57C74.9182 155.138 73.9942 154.352 72.1924 154.352H70.175C69.328 154.352 69.0046 154.06 69.0046 153.644C69.0046 153.367 69.1586 153.182 69.3896 153.059C69.8208 153.243 70.3444 153.336 70.9296 153.336C72.9008 153.336 74.102 152.227 74.102 150.702C74.102 149.948 73.8094 149.316 73.2858 148.854C73.5014 148.531 73.8864 148.362 74.3792 148.362ZM70.9296 152.212C70.0672 152.212 69.5128 151.58 69.5128 150.702C69.5128 149.84 70.0672 149.239 70.9296 149.239C71.792 149.239 72.3464 149.84 72.3464 150.718C72.3464 151.58 71.792 152.212 70.9296 152.212ZM71.9152 155.938C72.793 155.938 73.2396 156.262 73.2396 156.878C73.2396 157.509 72.6852 157.987 70.9296 157.987C69.6052 157.987 68.7274 157.679 68.7274 156.862C68.7274 156.493 68.8968 156.139 69.2664 155.908C69.4666 155.923 69.6822 155.938 69.9132 155.938H71.9152ZM82.7893 151.765C82.7893 149.409 81.5111 148.115 79.2781 148.115C76.9835 148.115 75.5975 149.686 75.5975 152.227C75.5975 154.753 77.0143 156.185 79.3705 156.185C80.9413 156.185 82.1579 155.446 82.7277 154.106L81.3109 153.459C80.9567 154.291 80.3099 154.737 79.4321 154.737C78.2155 154.737 77.3993 153.906 77.3839 152.612H82.7893V151.765ZM80.9721 151.395H77.3839C77.4147 150.117 78.0769 149.347 79.2473 149.347C80.3407 149.347 80.9721 150.009 80.9721 151.272V151.395ZM97.6004 145.066H95.6138V149.64H90.7012V145.066H88.7146V156H90.7012V151.226H95.6138V156H97.6004V145.066ZM106.731 151.765C106.731 149.409 105.453 148.115 103.22 148.115C100.926 148.115 99.5397 149.686 99.5397 152.227C99.5397 154.753 100.956 156.185 103.313 156.185C104.883 156.185 106.1 155.446 106.67 154.106L105.253 153.459C104.899 154.291 104.252 154.737 103.374 154.737C102.158 154.737 101.341 153.906 101.326 152.612H106.731V151.765ZM104.914 151.395H101.326C101.357 150.117 102.019 149.347 103.189 149.347C104.283 149.347 104.914 150.009 104.914 151.272V151.395ZM108.531 147.022H110.533V145.097H108.531V147.022ZM108.623 156H110.471V148.3H108.623V156ZM119.331 148.362C119.562 148.362 119.762 148.392 119.962 148.439V147.053C119.808 147.022 119.685 147.006 119.531 147.006C118.422 147.006 117.76 147.576 117.514 148.423C117.052 148.223 116.513 148.115 115.881 148.115C113.926 148.115 112.724 149.178 112.724 150.702C112.724 151.503 113.063 152.196 113.664 152.674C112.909 152.966 112.447 153.505 112.447 154.306C112.447 154.907 112.74 155.415 113.417 155.692C112.586 155.969 112.139 156.524 112.139 157.201C112.139 158.295 113.109 159.188 115.758 159.188C118.53 159.188 119.87 158.156 119.87 156.57C119.87 155.138 118.946 154.352 117.144 154.352H115.127C114.28 154.352 113.956 154.06 113.956 153.644C113.956 153.367 114.11 153.182 114.341 153.059C114.773 153.243 115.296 153.336 115.881 153.336C117.853 153.336 119.054 152.227 119.054 150.702C119.054 149.948 118.761 149.316 118.238 148.854C118.453 148.531 118.838 148.362 119.331 148.362ZM115.881 152.212C115.019 152.212 114.465 151.58 114.465 150.702C114.465 149.84 115.019 149.239 115.881 149.239C116.744 149.239 117.298 149.84 117.298 150.718C117.298 151.58 116.744 152.212 115.881 152.212ZM116.867 155.938C117.745 155.938 118.191 156.262 118.191 156.878C118.191 157.509 117.637 157.987 115.881 157.987C114.557 157.987 113.679 157.679 113.679 156.862C113.679 156.493 113.849 156.139 114.218 155.908C114.418 155.923 114.634 155.938 114.865 155.938H116.867ZM121.529 156H123.377V151.919C123.377 150.441 124.008 149.594 125.117 149.594C126.056 149.594 126.549 150.194 126.549 151.365V156H128.397V151.211C128.397 149.178 127.519 148.115 125.856 148.115C124.686 148.115 123.839 148.654 123.377 149.717V144.835H121.529V156ZM129.443 149.64H130.829V153.613C130.829 155.168 131.445 156.139 133.293 156.139C133.77 156.139 134.109 156.092 134.555 156V154.445C134.309 154.491 134.109 154.537 133.801 154.537C133.031 154.537 132.677 154.137 132.677 153.32V149.64H134.555V148.3H132.677V145.62L130.829 146.36V148.3H129.443V149.64Z" fill="#362B26"/>
<path d="M29.456 116H31.124V112.856L34.628 107.48H32.792L30.548 111.044C30.416 111.26 30.344 111.404 30.308 111.548H30.284C30.248 111.404 30.176 111.26 30.056 111.044L27.836 107.48H25.964L29.456 112.856V116ZM37.9978 114.728V112.268H42.8218V111.032H37.9978V108.752H43.0258V107.48H36.3298V116H43.1098V114.728H37.9978ZM52.3901 116H54.1301L50.4101 107.48H48.5261L44.8061 116H46.5461L47.3861 113.924H51.5501L52.3901 116ZM47.8661 112.712L48.9221 110.096C49.1741 109.556 49.3301 109.208 49.4621 108.728H49.4861C49.6061 109.208 49.7621 109.556 50.0141 110.096L51.0701 112.712H47.8661ZM61.9132 116H63.7852L61.5892 112.448C62.9812 112.088 63.4972 111.032 63.4972 110.06C63.4972 108.74 62.7652 107.48 60.4132 107.48H56.0572V116H57.7252V112.664H59.8732L61.9132 116ZM57.7252 108.716H60.1012C61.3492 108.716 61.7572 109.328 61.7572 110.072C61.7572 110.828 61.3372 111.464 60.1012 111.464H57.7252V108.716ZM69.0638 116.24C71.5718 116.24 72.8918 115.148 72.8918 113.552C72.8918 112.028 71.9318 111.368 70.1678 111.104L68.4158 110.84C67.3358 110.672 66.9278 110.348 66.9278 109.64C66.9278 108.908 67.6478 108.476 68.8598 108.476C70.2878 108.476 71.1758 109.052 71.5598 110.072L72.8558 109.376C72.2918 107.924 70.8638 107.24 68.9318 107.24C66.6398 107.24 65.2718 108.2 65.2718 109.76C65.2718 111.224 66.2078 111.956 67.8158 112.208L69.6398 112.46C70.7078 112.628 71.2118 112.916 71.2118 113.708C71.2118 114.596 70.3838 114.968 69.1238 114.968C67.5158 114.968 66.5798 114.212 66.1718 113.144L64.7798 113.768C65.2718 115.28 66.7358 116.24 69.0638 116.24Z" fill="#054217"/>
<path d="M33.944 347.48H26.108V348.812H29.192V356H30.86V348.812H33.944V347.48ZM39.2586 356.24C42.1026 356.24 43.9626 354.488 43.9626 351.74C43.9626 348.98 42.1026 347.24 39.2586 347.24C36.4146 347.24 34.5546 348.98 34.5546 351.74C34.5546 354.476 36.4146 356.24 39.2586 356.24ZM39.2586 354.932C37.4346 354.932 36.2946 353.672 36.2946 351.74C36.2946 349.784 37.4346 348.548 39.2586 348.548C41.0826 348.548 42.2226 349.784 42.2226 351.74C42.2226 353.696 41.0826 354.932 39.2586 354.932ZM46.0939 356H47.6059V350.444C47.6059 350.012 47.5939 349.676 47.5819 349.34H47.6179C47.7379 349.652 47.9539 349.988 48.1819 350.336L52.3579 356H54.1459V347.48H52.6459V352.988C52.6459 353.42 52.6459 353.768 52.6579 354.104H52.6339C52.5019 353.78 52.3099 353.456 52.0579 353.096L47.9779 347.48H46.0939V356ZM57.0298 356H58.5418V350.444C58.5418 350.012 58.5298 349.676 58.5178 349.34H58.5538C58.6738 349.652 58.8898 349.988 59.1178 350.336L63.2938 356H65.0818V347.48H63.5818V352.988C63.5818 353.42 63.5818 353.768 63.5938 354.104H63.5698C63.4378 353.78 63.2458 353.456 62.9938 353.096L58.9138 347.48H57.0298V356ZM69.6338 354.728V352.268H74.4578V351.032H69.6338V348.752H74.6618V347.48H67.9658V356H74.7458V354.728H69.6338ZM80.4685 356.24C82.9765 356.24 84.2965 355.148 84.2965 353.552C84.2965 352.028 83.3365 351.368 81.5725 351.104L79.8205 350.84C78.7405 350.672 78.3325 350.348 78.3325 349.64C78.3325 348.908 79.0525 348.476 80.2645 348.476C81.6925 348.476 82.5805 349.052 82.9645 350.072L84.2605 349.376C83.6965 347.924 82.2685 347.24 80.3365 347.24C78.0445 347.24 76.6765 348.2 76.6765 349.76C76.6765 351.224 77.6125 351.956 79.2205 352.208L81.0445 352.46C82.1125 352.628 82.6165 352.916 82.6165 353.708C82.6165 354.596 81.7885 354.968 80.5285 354.968C78.9205 354.968 77.9845 354.212 77.5765 353.144L76.1845 353.768C76.6765 355.28 78.1405 356.24 80.4685 356.24ZM95.2258 347.48H90.9298V356H92.5978V352.856H95.1538C97.1098 352.856 98.3578 351.8 98.3578 350.132C98.3578 348.512 97.1458 347.48 95.2258 347.48ZM94.8898 351.632H92.5978V348.716H94.8898C95.9698 348.716 96.6178 349.268 96.6178 350.168C96.6178 351.068 95.9578 351.632 94.8898 351.632ZM101.999 354.728V352.268H106.823V351.032H101.999V348.752H107.027V347.48H100.331V356H107.111V354.728H101.999ZM115.47 356H117.342L115.146 352.448C116.538 352.088 117.054 351.032 117.054 350.06C117.054 348.74 116.322 347.48 113.97 347.48H109.614V356H111.282V352.664H113.43L115.47 356ZM111.282 348.716H113.658C114.906 348.716 115.314 349.328 115.314 350.072C115.314 350.828 114.894 351.464 113.658 351.464H111.282V348.716ZM130.682 348.764V347.48H123.986V356H125.654V352.34H130.478V351.068H125.654V348.764H130.682ZM136.796 356.24C139.64 356.24 141.5 354.488 141.5 351.74C141.5 348.98 139.64 347.24 136.796 347.24C133.952 347.24 132.092 348.98 132.092 351.74C132.092 354.476 133.952 356.24 136.796 356.24ZM136.796 354.932C134.972 354.932 133.832 353.672 133.832 351.74C133.832 349.784 134.972 348.548 136.796 348.548C138.62 348.548 139.76 349.784 139.76 351.74C139.76 353.696 138.62 354.932 136.796 354.932ZM149.487 356H151.359L149.163 352.448C150.555 352.088 151.071 351.032 151.071 350.06C151.071 348.74 150.339 347.48 147.987 347.48H143.631V356H145.299V352.664H147.447L149.487 356ZM145.299 348.716H147.675C148.923 348.716 149.331 349.328 149.331 350.072C149.331 350.828 148.911 351.464 147.675 351.464H145.299V348.716ZM155.228 354.728V352.268H160.052V351.032H155.228V348.752H160.256V347.48H153.56V356H160.34V354.728H155.228ZM166.062 356.24C168.57 356.24 169.89 355.148 169.89 353.552C169.89 352.028 168.93 351.368 167.166 351.104L165.414 350.84C164.334 350.672 163.926 350.348 163.926 349.64C163.926 348.908 164.646 348.476 165.858 348.476C167.286 348.476 168.174 349.052 168.558 350.072L169.854 349.376C169.29 347.924 167.862 347.24 165.93 347.24C163.638 347.24 162.27 348.2 162.27 349.76C162.27 351.224 163.206 351.956 164.814 352.208L166.638 352.46C167.706 352.628 168.21 352.916 168.21 353.708C168.21 354.596 167.382 354.968 166.122 354.968C164.514 354.968 163.578 354.212 163.17 353.144L161.778 353.768C162.27 355.28 163.734 356.24 166.062 356.24ZM178.649 347.48H170.813V348.812H173.897V356H175.565V348.812H178.649V347.48Z" fill="#054217"/>
<path d="M27.14 236H28.616V229.832C28.616 229.448 28.592 229.1 28.556 228.8H28.604C28.652 229.028 28.772 229.472 28.892 229.796L31.316 236H32.852L35.276 229.796C35.408 229.472 35.552 228.992 35.588 228.8H35.636C35.6 229.112 35.576 229.484 35.576 229.832V236H37.1V227.48H34.664L32.372 233.42C32.24 233.78 32.168 233.996 32.12 234.284H32.096C32.048 233.996 31.976 233.792 31.856 233.42L29.552 227.48H27.14V236ZM41.6424 234.728V232.268H46.4664V231.032H41.6424V228.752H46.6704V227.48H39.9744V236H46.7544V234.728H41.6424ZM56.1674 227.48H48.3314V228.812H51.4154V236H53.0834V228.812H56.1674V227.48ZM59.6822 234.728V232.268H64.5062V231.032H59.6822V228.752H64.7102V227.48H58.0142V236H64.7942V234.728H59.6822ZM73.1538 236H75.0258L72.8298 232.448C74.2218 232.088 74.7378 231.032 74.7378 230.06C74.7378 228.74 74.0058 227.48 71.6538 227.48H67.2978V236H68.9658V232.664H71.1138L73.1538 236ZM68.9658 228.716H71.3418C72.5898 228.716 72.9978 229.328 72.9978 230.072C72.9978 230.828 72.5778 231.464 71.3418 231.464H68.9658V228.716ZM80.3044 236.24C82.8124 236.24 84.1324 235.148 84.1324 233.552C84.1324 232.028 83.1724 231.368 81.4084 231.104L79.6564 230.84C78.5764 230.672 78.1684 230.348 78.1684 229.64C78.1684 228.908 78.8884 228.476 80.1004 228.476C81.5284 228.476 82.4164 229.052 82.8004 230.072L84.0964 229.376C83.5324 227.924 82.1044 227.24 80.1724 227.24C77.8804 227.24 76.5124 228.2 76.5124 229.76C76.5124 231.224 77.4484 231.956 79.0564 232.208L80.8804 232.46C81.9484 232.628 82.4524 232.916 82.4524 233.708C82.4524 234.596 81.6244 234.968 80.3644 234.968C78.7564 234.968 77.8204 234.212 77.4124 233.144L76.0204 233.768C76.5124 235.28 77.9764 236.24 80.3044 236.24ZM95.0618 227.48H90.7658V236H92.4338V232.856H94.9898C96.9458 232.856 98.1938 231.8 98.1938 230.132C98.1938 228.512 96.9818 227.48 95.0618 227.48ZM94.7258 231.632H92.4338V228.716H94.7258C95.8058 228.716 96.4538 229.268 96.4538 230.168C96.4538 231.068 95.7938 231.632 94.7258 231.632ZM101.835 234.728V232.268H106.659V231.032H101.835V228.752H106.863V227.48H100.167V236H106.947V234.728H101.835ZM115.306 236H117.178L114.982 232.448C116.374 232.088 116.89 231.032 116.89 230.06C116.89 228.74 116.158 227.48 113.806 227.48H109.45V236H111.118V232.664H113.266L115.306 236ZM111.118 228.716H113.494C114.742 228.716 115.15 229.328 115.15 230.072C115.15 230.828 114.73 231.464 113.494 231.464H111.118V228.716ZM129.724 227.48H121.888V228.812H124.972V236H126.64V228.812H129.724V227.48ZM137.426 236H139.298L137.102 232.448C138.494 232.088 139.01 231.032 139.01 230.06C139.01 228.74 138.278 227.48 135.926 227.48H131.57V236H133.238V232.664H135.386L137.426 236ZM133.238 228.716H135.614C136.862 228.716 137.27 229.328 137.27 230.072C137.27 230.828 136.85 231.464 135.614 231.464H133.238V228.716ZM143.167 234.728V232.268H147.991V231.032H143.167V228.752H148.195V227.48H141.499V236H148.279V234.728H143.167ZM152.45 234.728V232.268H157.274V231.032H152.45V228.752H157.478V227.48H150.782V236H157.562V234.728H152.45Z" fill="#054217"/>
<path d="M27.14 476H28.616V469.832C28.616 469.448 28.592 469.1 28.556 468.8H28.604C28.652 469.028 28.772 469.472 28.892 469.796L31.316 476H32.852L35.276 469.796C35.408 469.472 35.552 468.992 35.588 468.8H35.636C35.6 469.112 35.576 469.484 35.576 469.832V476H37.1V467.48H34.664L32.372 473.42C32.24 473.78 32.168 473.996 32.12 474.284H32.096C32.048 473.996 31.976 473.792 31.856 473.42L29.552 467.48H27.14V476ZM41.6424 474.728V472.268H46.4664V471.032H41.6424V468.752H46.6704V467.48H39.9744V476H46.7544V474.728H41.6424ZM56.1674 467.48H48.3314V468.812H51.4154V476H53.0834V468.812H56.1674V467.48ZM59.6822 474.728V472.268H64.5062V471.032H59.6822V468.752H64.7102V467.48H58.0142V476H64.7942V474.728H59.6822ZM73.1538 476H75.0258L72.8298 472.448C74.2218 472.088 74.7378 471.032 74.7378 470.06C74.7378 468.74 74.0058 467.48 71.6538 467.48H67.2978V476H68.9658V472.664H71.1138L73.1538 476ZM68.9658 468.716H71.3418C72.5898 468.716 72.9978 469.328 72.9978 470.072C72.9978 470.828 72.5778 471.464 71.3418 471.464H68.9658V468.716ZM78.0659 465.764C78.6339 465.764 79.0619 465.888 79.3499 466.136C79.6379 466.384 79.7819 466.7 79.7819 467.084C79.7819 467.404 79.6939 467.668 79.5179 467.876C79.3499 468.084 79.1459 468.228 78.9059 468.308V468.344C79.2179 468.4 79.4659 468.532 79.6499 468.74C79.8419 468.94 79.9379 469.204 79.9379 469.532C79.9379 469.996 79.7699 470.376 79.4339 470.672C79.0979 470.96 78.5739 471.104 77.8619 471.104C77.5659 471.104 77.2899 471.08 77.0339 471.032C76.7779 470.976 76.5299 470.888 76.2899 470.768V470.012C76.8499 470.284 77.3779 470.42 77.8739 470.42C78.2899 470.42 78.5939 470.34 78.7859 470.18C78.9779 470.012 79.0739 469.788 79.0739 469.508C79.0739 469.22 78.9579 469.012 78.7259 468.884C78.4939 468.748 78.1699 468.68 77.7539 468.68H77.0699V468.02H77.7539C78.1539 468.02 78.4459 467.944 78.6299 467.792C78.8219 467.632 78.9179 467.428 78.9179 467.18C78.9179 466.924 78.8339 466.74 78.6659 466.628C78.5059 466.508 78.3099 466.448 78.0779 466.448C77.8299 466.448 77.5979 466.492 77.3819 466.58C77.1739 466.66 76.9619 466.768 76.7459 466.904L76.3139 466.352C76.5619 466.168 76.8219 466.024 77.0939 465.92C77.3739 465.816 77.6979 465.764 78.0659 465.764Z" fill="#054217"/>
</svg>
