<svg id="eJnAae0zrLx1" xmlns="http://www.w3.org/2000/svg" xmlns:xlink="http://www.w3.org/1999/xlink" viewBox="0 0 353 345" shape-rendering="geometricPrecision" text-rendering="geometricPrecision"><style><![CDATA[#eJnAae0zrLx2 {animation: eJnAae0zrLx2_c_o 2272.7272727272725ms linear infinite normal forwards}@keyframes eJnAae0zrLx2_c_o { 0% {opacity: 0.150000;animation-timing-function: cubic-bezier(0.785000,0.135000,0.150000,0.860000)} 13.333333% {opacity: 0.650000;animation-timing-function: cubic-bezier(0.785000,0.135000,0.150000,0.860000)} 26.666667% {opacity: 0.850000;animation-timing-function: cubic-bezier(0.785000,0.135000,0.150000,0.860000)} 40% {opacity: 0.650000;animation-timing-function: cubic-bezier(0.785000,0.135000,0.150000,0.860000)} 53.333333% {opacity: 0.500000;animation-timing-function: cubic-bezier(0.785000,0.135000,0.150000,0.860000)} 66.666667% {opacity: 0.650000;animation-timing-function: cubic-bezier(0.785000,0.135000,0.150000,0.860000)} 80% {opacity: 0.500000} 100% {opacity: 0.300000}} #eJnAae0zrLx68 {animation: eJnAae0zrLx68_c_o 2272.7272727272725ms linear infinite normal forwards}@keyframes eJnAae0zrLx68_c_o { 0% {opacity: 0;animation-timing-function: cubic-bezier(0,0,0.580000,1)} 33.333333% {opacity: 0.250000;animation-timing-function: cubic-bezier(0,0,0.580000,1)} 66.666667% {opacity: 0.500000;animation-timing-function: cubic-bezier(0,0,0.580000,1)} 100% {opacity: 0}} #eJnAae0zrLx134 {animation: eJnAae0zrLx134_c_o 2272.7272727272725ms linear infinite normal forwards}@keyframes eJnAae0zrLx134_c_o { 0% {opacity: 0;animation-timing-function: cubic-bezier(0,0,0.580000,1)} 46.666667% {opacity: 0.300000;animation-timing-function: cubic-bezier(0,0,0.580000,1)} 100% {opacity: 0}}]]></style><defs><filter id="eJnAae0zrLx2-filter" x="-400%" width="600%" y="-400%" height="600%"><feGaussianBlur id="eJnAae0zrLx2-filter-blur-0" stdDeviation="1,1" result="result"/></filter><filter id="eJnAae0zrLx68-filter" x="-400%" width="600%" y="-400%" height="600%"><feGaussianBlur id="eJnAae0zrLx68-filter-blur-0" stdDeviation="2,2" result="result"/></filter><filter id="eJnAae0zrLx134-filter" x="-400%" width="600%" y="-400%" height="600%"><feGaussianBlur id="eJnAae0zrLx134-filter-blur-0" stdDeviation="3,3" result="result"/></filter></defs><g id="eJnAae0zrLx2" transform="matrix(0.72346580805008 0 0 0.72346580805008 48.79514511667401 47.59775999835054)" opacity="0.15" filter="url(#eJnAae0zrLx2-filter)"><path id="eJnAae0zrLx3" d="M15.242600,23.332400C20.102700,23.332400,24.042400,19.508400,24.042400,14.791200C24.042400,10.074000,20.102700,6.249940,15.242600,6.249940C10.382500,6.249940,6.442470,10.074000,6.442470,14.791200C6.442470,19.508400,10.382500,23.332400,15.242600,23.332400Z" fill="rgb(255,255,255)" stroke="none" stroke-width="1"/><path id="eJnAae0zrLx4" d="M61.304600,23.332400C66.154600,23.332400,70.104300,19.504300,70.104300,14.791200C70.104300,10.078000,66.154600,6.249940,61.304600,6.249940C56.449200,6.249940,52.504700,10.078000,52.504700,14.791200C52.504700,19.504300,56.449200,23.332400,61.304600,23.332400Z" fill="rgb(255,255,255)" stroke="none" stroke-width="1"/><path id="eJnAae0zrLx5" d="M107.360000,0.000031C98.952500,0.000031,92.116500,6.635360,92.116500,14.791100C92.116500,22.946800,98.952500,29.582100,107.360000,29.582100C115.767000,29.582100,122.602000,22.946800,122.602000,14.791100C122.608000,6.635360,115.767000,0.000031,107.360000,0.000031Z" fill="rgb(255,255,255)" stroke="none" stroke-width="1"/><path id="eJnAae0zrLx6" d="M153.421000,0.000031C145.014000,0.000031,138.178000,6.635360,138.178000,14.791100C138.178000,22.946800,145.014000,29.582100,153.421000,29.582100C161.828000,29.582100,168.664000,22.946800,168.664000,14.791100C168.664000,6.635360,161.828000,0.000031,153.421000,0.000031Z" fill="rgb(255,255,255)" stroke="none" stroke-width="1"/><path id="eJnAae0zrLx7" d="M199.482000,0.000031C191.075000,0.000031,184.240000,6.635360,184.240000,14.791100C184.240000,22.946800,191.075000,29.582100,199.482000,29.582100C207.889000,29.582100,214.725000,22.946800,214.725000,14.791100C214.725000,6.635360,207.884000,0.000031,199.482000,0.000031Z" fill="rgb(255,255,255)" stroke="none" stroke-width="1"/><path id="eJnAae0zrLx8" d="M245.539000,0.000031C237.132000,0.000031,230.296000,6.635360,230.296000,14.791100C230.296000,22.946800,237.132000,29.582100,245.539000,29.582100C253.946000,29.582100,260.782000,22.946800,260.782000,14.791100C260.787000,6.635360,253.946000,0.000031,245.539000,0.000031Z" fill="rgb(255,255,255)" stroke="none" stroke-width="1"/><path id="eJnAae0zrLx9" d="M291.600000,23.332400C296.450000,23.332400,300.400000,19.504300,300.400000,14.791200C300.400000,10.078000,296.450000,6.249940,291.600000,6.249940C286.744000,6.249940,282.800000,10.078000,282.800000,14.791200C282.800000,19.504300,286.744000,23.332400,291.600000,23.332400Z" fill="rgb(255,255,255)" stroke="none" stroke-width="1"/><path id="eJnAae0zrLx10" d="M337.662000,23.332400C342.517000,23.332400,346.461000,19.504300,346.461000,14.791200C346.461000,10.078000,342.511000,6.249940,337.662000,6.249940C332.812000,6.249940,328.862000,10.078000,328.862000,14.791200C328.862000,19.504300,332.806000,23.332400,337.662000,23.332400Z" fill="rgb(255,255,255)" stroke="none" stroke-width="1"/><path id="eJnAae0zrLx11" d="M15.242600,337.995000C20.102700,337.995000,24.042400,334.171000,24.042400,329.453000C24.042400,324.736000,20.102700,320.912000,15.242600,320.912000C10.382600,320.912000,6.442490,324.736000,6.442490,329.453000C6.442490,334.171000,10.382600,337.995000,15.242600,337.995000Z" fill="rgb(255,255,255)" stroke="none" stroke-width="1"/><path id="eJnAae0zrLx12" d="M61.304600,320.912000C56.449200,320.912000,52.504700,324.740000,52.504700,329.453000C52.504700,334.167000,56.454700,337.995000,61.304600,337.995000C66.154600,337.995000,70.104300,334.167000,70.104300,329.453000C70.104300,324.740000,66.154600,320.912000,61.304600,320.912000Z" fill="rgb(255,255,255)" stroke="none" stroke-width="1"/><path id="eJnAae0zrLx13" d="M107.360000,314.663000C98.952500,314.663000,92.116500,321.298000,92.116500,329.454000C92.116500,337.609000,98.952500,344.245000,107.360000,344.245000C115.767000,344.245000,122.602000,337.609000,122.602000,329.454000C122.608000,321.298000,115.767000,314.663000,107.360000,314.663000Z" fill="rgb(255,255,255)" stroke="none" stroke-width="1"/><path id="eJnAae0zrLx14" d="M153.421000,314.663000C145.014000,314.663000,138.178000,321.298000,138.178000,329.454000C138.178000,337.609000,145.014000,344.245000,153.421000,344.245000C161.828000,344.245000,168.664000,337.609000,168.664000,329.454000C168.664000,321.298000,161.828000,314.663000,153.421000,314.663000Z" fill="rgb(255,255,255)" stroke="none" stroke-width="1"/><path id="eJnAae0zrLx15" d="M199.482000,314.662000C191.075000,314.662000,184.240000,321.298000,184.240000,329.454000C184.240000,337.609000,191.075000,344.245000,199.482000,344.245000C207.889000,344.245000,214.725000,337.609000,214.725000,329.454000C214.725000,321.298000,207.884000,314.662000,199.482000,314.662000Z" fill="rgb(255,255,255)" stroke="none" stroke-width="1"/><path id="eJnAae0zrLx16" d="M245.539000,314.662000C237.132000,314.662000,230.296000,321.298000,230.296000,329.454000C230.296000,337.609000,237.132000,344.245000,245.539000,344.245000C253.946000,344.245000,260.782000,337.609000,260.782000,329.454000C260.787000,321.298000,253.946000,314.662000,245.539000,314.662000Z" fill="rgb(255,255,255)" stroke="none" stroke-width="1"/><path id="eJnAae0zrLx17" d="M291.600000,320.912000C286.744000,320.912000,282.800000,324.740000,282.800000,329.453000C282.800000,334.167000,286.750000,337.995000,291.600000,337.995000C296.450000,337.995000,300.400000,334.167000,300.400000,329.453000C300.400000,324.740000,296.450000,320.912000,291.600000,320.912000Z" fill="rgb(255,255,255)" stroke="none" stroke-width="1"/><path id="eJnAae0zrLx18" d="M337.662000,320.912000C332.812000,320.912000,328.862000,324.740000,328.862000,329.453000C328.862000,334.167000,332.812000,337.995000,337.662000,337.995000C342.517000,337.995000,346.461000,334.167000,346.461000,329.453000C346.461000,324.740000,342.511000,320.912000,337.662000,320.912000Z" fill="rgb(255,255,255)" stroke="none" stroke-width="1"/><path id="eJnAae0zrLx19" d="M15.242600,293.041000C20.102700,293.041000,24.042400,289.217000,24.042400,284.499000C24.042400,279.782000,20.102700,275.958000,15.242600,275.958000C10.382600,275.958000,6.442490,279.782000,6.442490,284.499000C6.442490,289.217000,10.382600,293.041000,15.242600,293.041000Z" fill="rgb(255,255,255)" stroke="none" stroke-width="1"/><path id="eJnAae0zrLx20" d="M61.304400,269.708000C52.897400,269.708000,46.061500,276.344000,46.061500,284.499000C46.061500,292.655000,52.897400,299.290000,61.304400,299.290000C69.711500,299.290000,76.547400,292.655000,76.547400,284.499000C76.547400,276.344000,69.711500,269.708000,61.304400,269.708000Z" fill="rgb(255,255,255)" stroke="none" stroke-width="1"/><path id="eJnAae0zrLx21" d="M107.360000,269.708000C98.952500,269.708000,92.116500,276.344000,92.116500,284.499000C92.116500,292.655000,98.952500,299.290000,107.360000,299.290000C115.767000,299.290000,122.602000,292.655000,122.602000,284.499000C122.608000,276.344000,115.767000,269.708000,107.360000,269.708000Z" fill="rgb(255,255,255)" stroke="none" stroke-width="1"/><path id="eJnAae0zrLx22" d="M153.421000,269.708000C145.014000,269.708000,138.178000,276.344000,138.178000,284.499000C138.178000,292.655000,145.014000,299.290000,153.421000,299.290000C161.828000,299.290000,168.664000,292.655000,168.664000,284.499000C168.664000,276.344000,161.828000,269.708000,153.421000,269.708000Z" fill="rgb(255,255,255)" stroke="none" stroke-width="1"/><path id="eJnAae0zrLx23" d="M199.482000,269.708000C191.075000,269.708000,184.240000,276.344000,184.240000,284.499000C184.240000,292.655000,191.075000,299.290000,199.482000,299.290000C207.889000,299.290000,214.725000,292.655000,214.725000,284.499000C214.725000,276.344000,207.884000,269.708000,199.482000,269.708000Z" fill="rgb(255,255,255)" stroke="none" stroke-width="1"/><path id="eJnAae0zrLx24" d="M245.539000,269.708000C237.132000,269.708000,230.296000,276.344000,230.296000,284.499000C230.296000,292.655000,237.132000,299.290000,245.539000,299.290000C253.946000,299.290000,260.782000,292.655000,260.782000,284.499000C260.787000,276.344000,253.946000,269.708000,245.539000,269.708000Z" fill="rgb(255,255,255)" stroke="none" stroke-width="1"/><path id="eJnAae0zrLx25" d="M291.601000,269.708000C283.194000,269.708000,276.358000,276.344000,276.358000,284.499000C276.358000,292.655000,283.194000,299.290000,291.601000,299.290000C300.008000,299.290000,306.843000,292.655000,306.843000,284.499000C306.843000,276.344000,300.008000,269.708000,291.601000,269.708000Z" fill="rgb(255,255,255)" stroke="none" stroke-width="1"/><path id="eJnAae0zrLx26" d="M337.662000,275.964000C332.812000,275.964000,328.862000,279.792000,328.862000,284.505000C328.862000,289.218000,332.812000,293.046000,337.662000,293.046000C342.517000,293.046000,346.461000,289.218000,346.461000,284.505000C346.461000,279.792000,342.511000,275.964000,337.662000,275.964000Z" fill="rgb(255,255,255)" stroke="none" stroke-width="1"/><path id="eJnAae0zrLx27" d="M15.242800,254.342000C23.661100,254.342000,30.485600,247.720000,30.485600,239.551000C30.485600,231.382000,23.661100,224.760000,15.242800,224.760000C6.824410,224.760000,-0.000046,231.382000,-0.000046,239.551000C-0.000046,247.720000,6.824410,254.342000,15.242800,254.342000Z" fill="rgb(255,255,255)" stroke="none" stroke-width="1"/><path id="eJnAae0zrLx28" d="M61.304400,224.760000C52.897400,224.760000,46.061500,231.395000,46.061500,239.551000C46.061500,247.707000,52.897400,254.342000,61.304400,254.342000C69.711500,254.342000,76.547400,247.707000,76.547400,239.551000C76.547400,231.395000,69.711500,224.760000,61.304400,224.760000Z" fill="rgb(255,255,255)" stroke="none" stroke-width="1"/><path id="eJnAae0zrLx29" d="M107.360000,224.760000C98.952500,224.760000,92.116500,231.395000,92.116500,239.551000C92.116500,247.707000,98.952500,254.342000,107.360000,254.342000C115.767000,254.342000,122.602000,247.707000,122.602000,239.551000C122.608000,231.395000,115.767000,224.760000,107.360000,224.760000Z" fill="rgb(255,255,255)" stroke="none" stroke-width="1"/><path id="eJnAae0zrLx30" d="M153.421000,248.092000C158.281000,248.092000,162.221000,244.268000,162.221000,239.551000C162.221000,234.834000,158.281000,231.010000,153.421000,231.010000C148.561000,231.010000,144.621000,234.834000,144.621000,239.551000C144.621000,244.268000,148.561000,248.092000,153.421000,248.092000Z" fill="rgb(255,255,255)" stroke="none" stroke-width="1"/><path id="eJnAae0zrLx31" d="M239.230000,292.800000C244.086000,292.800000,248.030000,288.972000,248.030000,284.259000C248.030000,279.551000,244.080000,275.718000,239.230000,275.718000C234.380000,275.718000,230.430000,279.546000,230.430000,284.259000C230.425000,288.972000,234.375000,292.800000,239.230000,292.800000Z" fill="rgb(255,255,255)" stroke="none" stroke-width="1"/><path id="eJnAae0zrLx32" d="M291.601000,224.760000C283.194000,224.760000,276.358000,231.395000,276.358000,239.551000C276.358000,247.707000,283.194000,254.342000,291.601000,254.342000C300.008000,254.342000,306.843000,247.707000,306.843000,239.551000C306.843000,231.395000,300.008000,224.760000,291.601000,224.760000Z" fill="rgb(255,255,255)" stroke="none" stroke-width="1"/><path id="eJnAae0zrLx33" d="M337.662000,224.760000C329.254000,224.760000,322.418000,231.395000,322.418000,239.551000C322.418000,247.707000,329.254000,254.342000,337.662000,254.342000C346.069000,254.342000,352.905000,247.707000,352.905000,239.551000C352.905000,231.395000,346.063000,224.760000,337.662000,224.760000Z" fill="rgb(255,255,255)" stroke="none" stroke-width="1"/><path id="eJnAae0zrLx34" d="M15.242800,209.388000C23.661100,209.388000,30.485600,202.766000,30.485600,194.597000C30.485600,186.428000,23.661100,179.806000,15.242800,179.806000C6.824410,179.806000,-0.000046,186.428000,-0.000046,194.597000C-0.000046,202.766000,6.824410,209.388000,15.242800,209.388000Z" fill="rgb(255,255,255)" stroke="none" stroke-width="1"/><path id="eJnAae0zrLx35" d="M61.304400,179.806000C52.897400,179.806000,46.061500,186.441000,46.061500,194.597000C46.061500,202.753000,52.897400,209.388000,61.304400,209.388000C69.711500,209.388000,76.547400,202.753000,76.547400,194.597000C76.547400,186.441000,69.711500,179.806000,61.304400,179.806000Z" fill="rgb(255,255,255)" stroke="none" stroke-width="1"/><path id="eJnAae0zrLx36" d="M107.360000,203.138000C112.220000,203.138000,116.160000,199.314000,116.160000,194.597000C116.160000,189.880000,112.220000,186.056000,107.360000,186.056000C102.500000,186.056000,98.559700,189.880000,98.559700,194.597000C98.559700,199.314000,102.500000,203.138000,107.360000,203.138000Z" fill="rgb(255,255,255)" stroke="none" stroke-width="1"/><path id="eJnAae0zrLx37" d="M153.421000,203.138000C158.281000,203.138000,162.221000,199.314000,162.221000,194.597000C162.221000,189.880000,158.281000,186.056000,153.421000,186.056000C148.561000,186.056000,144.621000,189.880000,144.621000,194.597000C144.621000,199.314000,148.561000,203.138000,153.421000,203.138000Z" fill="rgb(255,255,255)" stroke="none" stroke-width="1"/><path id="eJnAae0zrLx38" d="M199.483000,203.138000C204.338000,203.138000,208.283000,199.310000,208.283000,194.597000C208.283000,189.889000,204.333000,186.056000,199.483000,186.056000C194.633000,186.056000,190.683000,189.884000,190.683000,194.597000C190.678000,199.304000,194.628000,203.138000,199.483000,203.138000Z" fill="rgb(255,255,255)" stroke="none" stroke-width="1"/><path id="eJnAae0zrLx39" d="M199.483000,248.279000C204.338000,248.279000,208.283000,244.451000,208.283000,239.738000C208.283000,235.030000,204.333000,231.197000,199.483000,231.197000C194.633000,231.197000,190.683000,235.025000,190.683000,239.738000C190.678000,244.445000,194.628000,248.279000,199.483000,248.279000Z" fill="rgb(255,255,255)" stroke="none" stroke-width="1"/><path id="eJnAae0zrLx40" d="M245.540000,203.138000C250.400000,203.138000,254.339000,199.314000,254.339000,194.597000C254.339000,189.880000,250.400000,186.056000,245.540000,186.056000C240.680000,186.056000,236.739000,189.880000,236.739000,194.597000C236.739000,199.314000,240.680000,203.138000,245.540000,203.138000Z" fill="rgb(255,255,255)" stroke="none" stroke-width="1"/><path id="eJnAae0zrLx41" d="M291.600000,203.138000C296.450000,203.138000,300.400000,199.310000,300.400000,194.597000C300.400000,189.889000,296.450000,186.056000,291.600000,186.056000C286.744000,186.056000,282.800000,189.884000,282.800000,194.597000C282.800000,199.304000,286.744000,203.138000,291.600000,203.138000Z" fill="rgb(255,255,255)" stroke="none" stroke-width="1"/><path id="eJnAae0zrLx42" d="M337.662000,186.061000C332.812000,186.061000,328.862000,189.889000,328.862000,194.602000C328.862000,199.310000,332.812000,203.143000,337.662000,203.143000C342.517000,203.143000,346.461000,199.315000,346.461000,194.602000C346.461000,189.889000,342.511000,186.061000,337.662000,186.061000Z" fill="rgb(255,255,255)" stroke="none" stroke-width="1"/><path id="eJnAae0zrLx43" d="M15.242800,164.439000C23.661100,164.439000,30.485600,157.817000,30.485600,149.648000C30.485600,141.479000,23.661100,134.857000,15.242800,134.857000C6.824410,134.857000,-0.000046,141.479000,-0.000046,149.648000C-0.000046,157.817000,6.824410,164.439000,15.242800,164.439000Z" fill="rgb(255,255,255)" stroke="none" stroke-width="1"/><path id="eJnAae0zrLx44" d="M61.304400,134.857000C52.897400,134.857000,46.061500,141.492000,46.061500,149.648000C46.061500,157.804000,52.897400,164.439000,61.304400,164.439000C69.711500,164.439000,76.547400,157.804000,76.547400,149.648000C76.547400,141.492000,69.711500,134.857000,61.304400,134.857000Z" fill="rgb(255,255,255)" stroke="none" stroke-width="1"/><path id="eJnAae0zrLx45" d="M107.360000,158.189000C112.220000,158.189000,116.160000,154.365000,116.160000,149.648000C116.160000,144.931000,112.220000,141.107000,107.360000,141.107000C102.500000,141.107000,98.559700,144.931000,98.559700,149.648000C98.559700,154.365000,102.500000,158.189000,107.360000,158.189000Z" fill="rgb(255,255,255)" stroke="none" stroke-width="1"/><path id="eJnAae0zrLx46" d="M153.421000,158.189000C158.281000,158.189000,162.221000,154.365000,162.221000,149.648000C162.221000,144.931000,158.281000,141.107000,153.421000,141.107000C148.561000,141.107000,144.621000,144.931000,144.621000,149.648000C144.621000,154.365000,148.561000,158.189000,153.421000,158.189000Z" fill="rgb(255,255,255)" stroke="none" stroke-width="1"/><path id="eJnAae0zrLx47" d="M199.483000,158.184000C204.338000,158.184000,208.283000,154.356000,208.283000,149.643000C208.283000,144.935000,204.333000,141.101000,199.483000,141.101000C194.633000,141.101000,190.683000,144.929000,190.683000,149.643000C190.678000,154.356000,194.628000,158.184000,199.483000,158.184000Z" fill="rgb(255,255,255)" stroke="none" stroke-width="1"/><path id="eJnAae0zrLx48" d="M245.540000,158.189000C250.400000,158.189000,254.339000,154.365000,254.339000,149.648000C254.339000,144.931000,250.400000,141.107000,245.540000,141.107000C240.680000,141.107000,236.739000,144.931000,236.739000,149.648000C236.739000,154.365000,240.680000,158.189000,245.540000,158.189000Z" fill="rgb(255,255,255)" stroke="none" stroke-width="1"/><path id="eJnAae0zrLx49" d="M291.600000,158.184000C296.450000,158.184000,300.399000,154.356000,300.399000,149.643000C300.399000,144.935000,296.450000,141.101000,291.600000,141.101000C286.744000,141.101000,282.799000,144.929000,282.799000,149.643000C282.799000,154.356000,286.744000,158.184000,291.600000,158.184000Z" fill="rgb(255,255,255)" stroke="none" stroke-width="1"/><path id="eJnAae0zrLx50" d="M337.662000,141.107000C332.812000,141.107000,328.862000,144.935000,328.862000,149.648000C328.862000,154.356000,332.812000,158.189000,337.662000,158.189000C342.517000,158.189000,346.461000,154.361000,346.461000,149.648000C346.461000,144.935000,342.511000,141.107000,337.662000,141.107000Z" fill="rgb(255,255,255)" stroke="none" stroke-width="1"/><path id="eJnAae0zrLx51" d="M15.242800,119.485000C23.661100,119.485000,30.485600,112.863000,30.485600,104.694000C30.485600,96.525000,23.661100,89.902800,15.242800,89.902800C6.824410,89.902800,-0.000046,96.525000,-0.000046,104.694000C-0.000046,112.863000,6.824410,119.485000,15.242800,119.485000Z" fill="rgb(255,255,255)" stroke="none" stroke-width="1"/><path id="eJnAae0zrLx52" d="M61.304400,89.902800C52.897400,89.902800,46.061500,96.538100,46.061500,104.694000C46.061500,112.850000,52.897400,119.485000,61.304400,119.485000C69.711500,119.485000,76.547400,112.850000,76.547400,104.694000C76.547400,96.538100,69.711500,89.902800,61.304400,89.902800Z" fill="rgb(255,255,255)" stroke="none" stroke-width="1"/><path id="eJnAae0zrLx53" d="M107.360000,89.902600C98.952500,89.902600,92.116500,96.538000,92.116500,104.694000C92.116500,112.849000,98.952500,119.485000,107.360000,119.485000C115.767000,119.485000,122.602000,112.849000,122.602000,104.694000C122.602000,96.538000,115.767000,89.902600,107.360000,89.902600Z" fill="rgb(255,255,255)" stroke="none" stroke-width="1"/><path id="eJnAae0zrLx54" d="M153.421000,113.235000C158.281000,113.235000,162.221000,109.411000,162.221000,104.694000C162.221000,99.976900,158.281000,96.152900,153.421000,96.152900C148.561000,96.152900,144.621000,99.976900,144.621000,104.694000C144.621000,109.411000,148.561000,113.235000,153.421000,113.235000Z" fill="rgb(255,255,255)" stroke="none" stroke-width="1"/><path id="eJnAae0zrLx55" d="M199.483000,113.235000C204.338000,113.235000,208.283000,109.407000,208.283000,104.694000C208.283000,99.986400,204.333000,96.152900,199.483000,96.152900C194.633000,96.152900,190.683000,99.981000,190.683000,104.694000C190.678000,109.402000,194.628000,113.235000,199.483000,113.235000Z" fill="rgb(255,255,255)" stroke="none" stroke-width="1"/><path id="eJnAae0zrLx56" d="M291.601000,89.902600C283.194000,89.902600,276.358000,96.538000,276.358000,104.694000C276.358000,112.849000,283.194000,119.485000,291.601000,119.485000C300.008000,119.485000,306.843000,112.849000,306.843000,104.694000C306.843000,96.538000,300.008000,89.902600,291.601000,89.902600Z" fill="rgb(255,255,255)" stroke="none" stroke-width="1"/><path id="eJnAae0zrLx57" d="M337.662000,119.485000C346.069000,119.485000,352.905000,112.850000,352.905000,104.694000C352.905000,96.538100,346.069000,89.902800,337.662000,89.902800C329.254000,89.902800,322.418000,96.538100,322.418000,104.694000C322.418000,112.850000,329.254000,119.485000,337.662000,119.485000Z" fill="rgb(255,255,255)" stroke="none" stroke-width="1"/><path id="eJnAae0zrLx58" d="M15.242600,68.281000C20.102700,68.281000,24.042400,64.456900,24.042400,59.739700C24.042400,55.022600,20.102700,51.198500,15.242600,51.198500C10.382500,51.198500,6.442470,55.022600,6.442470,59.739700C6.442470,64.456900,10.382500,68.281000,15.242600,68.281000Z" fill="rgb(255,255,255)" stroke="none" stroke-width="1"/><path id="eJnAae0zrLx59" d="M61.304400,44.954300C52.897400,44.954300,46.061500,51.589600,46.061500,59.745300C46.061500,67.901100,52.897400,74.536400,61.304400,74.536400C69.711500,74.536400,76.547400,67.901100,76.547400,59.745300C76.547400,51.589600,69.711500,44.954300,61.304400,44.954300Z" fill="rgb(255,255,255)" stroke="none" stroke-width="1"/><path id="eJnAae0zrLx60" d="M107.360000,44.954300C98.952500,44.954300,92.116500,51.589600,92.116500,59.745300C92.116500,67.901100,98.952500,74.536400,107.360000,74.536400C115.767000,74.536400,122.602000,67.901100,122.602000,59.745300C122.608000,51.589600,115.767000,44.954300,107.360000,44.954300Z" fill="rgb(255,255,255)" stroke="none" stroke-width="1"/><path id="eJnAae0zrLx61" d="M153.421000,44.954300C145.014000,44.954300,138.178000,51.589700,138.178000,59.745400C138.178000,67.901100,145.014000,74.536400,153.421000,74.536400C161.828000,74.536400,168.664000,67.901100,168.664000,59.745400C168.664000,51.589700,161.828000,44.954300,153.421000,44.954300Z" fill="rgb(255,255,255)" stroke="none" stroke-width="1"/><path id="eJnAae0zrLx62" d="M199.482000,44.954300C191.075000,44.954300,184.240000,51.589700,184.240000,59.745400C184.240000,67.901100,191.075000,74.536400,199.482000,74.536400C207.889000,74.536400,214.725000,67.901100,214.725000,59.745400C214.725000,51.589700,207.884000,44.954300,199.482000,44.954300Z" fill="rgb(255,255,255)" stroke="none" stroke-width="1"/><path id="eJnAae0zrLx63" d="M245.539000,44.954300C237.132000,44.954300,230.296000,51.589700,230.296000,59.745400C230.296000,67.901100,237.132000,74.536400,245.539000,74.536400C253.946000,74.536400,260.782000,67.901100,260.782000,59.745400C260.787000,51.589700,253.946000,44.954300,245.539000,44.954300Z" fill="rgb(255,255,255)" stroke="none" stroke-width="1"/><path id="eJnAae0zrLx64" d="M291.601000,44.954300C283.194000,44.954300,276.358000,51.589700,276.358000,59.745400C276.358000,67.901100,283.194000,74.536400,291.601000,74.536400C300.008000,74.536400,306.843000,67.901100,306.843000,59.745400C306.843000,51.589700,300.008000,44.954300,291.601000,44.954300Z" fill="rgb(255,255,255)" stroke="none" stroke-width="1"/><path id="eJnAae0zrLx65" d="M337.662000,68.281000C342.517000,68.281000,346.461000,64.452900,346.461000,59.739700C346.461000,55.026600,342.511000,51.198500,337.662000,51.198500C332.812000,51.198500,328.862000,55.026600,328.862000,59.739700C328.862000,64.452900,332.806000,68.281000,337.662000,68.281000Z" fill="rgb(255,255,255)" stroke="none" stroke-width="1"/><path id="eJnAae0zrLx66" d="M245.539000,89.902600C237.132000,89.902600,230.296000,96.538000,230.296000,104.694000C230.296000,112.849000,237.132000,119.485000,245.539000,119.485000C253.946000,119.485000,260.782000,112.849000,260.782000,104.694000C260.787000,96.538000,253.946000,89.902600,245.539000,89.902600Z" fill="rgb(255,255,255)" stroke="none" stroke-width="1"/><path id="eJnAae0zrLx67" d="M245.539000,224.760000C237.132000,224.760000,230.296000,231.395000,230.296000,239.551000C230.296000,247.707000,237.132000,254.342000,245.539000,254.342000C253.946000,254.342000,260.782000,247.707000,260.782000,239.551000C260.787000,231.395000,253.946000,224.760000,245.539000,224.760000Z" fill="rgb(255,255,255)" stroke="none" stroke-width="1"/></g><g id="eJnAae0zrLx68" transform="matrix(0.80189303100394 0 0 0.80189303100394 34.95646680298390 34.09866931024195)" opacity="0" filter="url(#eJnAae0zrLx68-filter)"><path id="eJnAae0zrLx69" d="M15.242600,23.332400C20.102700,23.332400,24.042400,19.508400,24.042400,14.791200C24.042400,10.074000,20.102700,6.249940,15.242600,6.249940C10.382500,6.249940,6.442470,10.074000,6.442470,14.791200C6.442470,19.508400,10.382500,23.332400,15.242600,23.332400Z" fill="rgb(255,255,255)" stroke="none" stroke-width="1"/><path id="eJnAae0zrLx70" d="M61.304600,23.332400C66.154600,23.332400,70.104300,19.504300,70.104300,14.791200C70.104300,10.078000,66.154600,6.249940,61.304600,6.249940C56.449200,6.249940,52.504700,10.078000,52.504700,14.791200C52.504700,19.504300,56.449200,23.332400,61.304600,23.332400Z" fill="rgb(255,255,255)" stroke="none" stroke-width="1"/><path id="eJnAae0zrLx71" d="M107.360000,0.000031C98.952500,0.000031,92.116500,6.635360,92.116500,14.791100C92.116500,22.946800,98.952500,29.582100,107.360000,29.582100C115.767000,29.582100,122.602000,22.946800,122.602000,14.791100C122.608000,6.635360,115.767000,0.000031,107.360000,0.000031Z" fill="rgb(255,255,255)" stroke="none" stroke-width="1"/><path id="eJnAae0zrLx72" d="M153.421000,0.000031C145.014000,0.000031,138.178000,6.635360,138.178000,14.791100C138.178000,22.946800,145.014000,29.582100,153.421000,29.582100C161.828000,29.582100,168.664000,22.946800,168.664000,14.791100C168.664000,6.635360,161.828000,0.000031,153.421000,0.000031Z" fill="rgb(255,255,255)" stroke="none" stroke-width="1"/><path id="eJnAae0zrLx73" d="M199.482000,0.000031C191.075000,0.000031,184.240000,6.635360,184.240000,14.791100C184.240000,22.946800,191.075000,29.582100,199.482000,29.582100C207.889000,29.582100,214.725000,22.946800,214.725000,14.791100C214.725000,6.635360,207.884000,0.000031,199.482000,0.000031Z" fill="rgb(255,255,255)" stroke="none" stroke-width="1"/><path id="eJnAae0zrLx74" d="M245.539000,0.000031C237.132000,0.000031,230.296000,6.635360,230.296000,14.791100C230.296000,22.946800,237.132000,29.582100,245.539000,29.582100C253.946000,29.582100,260.782000,22.946800,260.782000,14.791100C260.787000,6.635360,253.946000,0.000031,245.539000,0.000031Z" fill="rgb(255,255,255)" stroke="none" stroke-width="1"/><path id="eJnAae0zrLx75" d="M291.600000,23.332400C296.450000,23.332400,300.400000,19.504300,300.400000,14.791200C300.400000,10.078000,296.450000,6.249940,291.600000,6.249940C286.744000,6.249940,282.800000,10.078000,282.800000,14.791200C282.800000,19.504300,286.744000,23.332400,291.600000,23.332400Z" fill="rgb(255,255,255)" stroke="none" stroke-width="1"/><path id="eJnAae0zrLx76" d="M337.662000,23.332400C342.517000,23.332400,346.461000,19.504300,346.461000,14.791200C346.461000,10.078000,342.511000,6.249940,337.662000,6.249940C332.812000,6.249940,328.862000,10.078000,328.862000,14.791200C328.862000,19.504300,332.806000,23.332400,337.662000,23.332400Z" fill="rgb(255,255,255)" stroke="none" stroke-width="1"/><path id="eJnAae0zrLx77" d="M15.242600,337.995000C20.102700,337.995000,24.042400,334.171000,24.042400,329.453000C24.042400,324.736000,20.102700,320.912000,15.242600,320.912000C10.382600,320.912000,6.442490,324.736000,6.442490,329.453000C6.442490,334.171000,10.382600,337.995000,15.242600,337.995000Z" fill="rgb(255,255,255)" stroke="none" stroke-width="1"/><path id="eJnAae0zrLx78" d="M61.304600,320.912000C56.449200,320.912000,52.504700,324.740000,52.504700,329.453000C52.504700,334.167000,56.454700,337.995000,61.304600,337.995000C66.154600,337.995000,70.104300,334.167000,70.104300,329.453000C70.104300,324.740000,66.154600,320.912000,61.304600,320.912000Z" fill="rgb(255,255,255)" stroke="none" stroke-width="1"/><path id="eJnAae0zrLx79" d="M107.360000,314.663000C98.952500,314.663000,92.116500,321.298000,92.116500,329.454000C92.116500,337.609000,98.952500,344.245000,107.360000,344.245000C115.767000,344.245000,122.602000,337.609000,122.602000,329.454000C122.608000,321.298000,115.767000,314.663000,107.360000,314.663000Z" fill="rgb(255,255,255)" stroke="none" stroke-width="1"/><path id="eJnAae0zrLx80" d="M153.421000,314.663000C145.014000,314.663000,138.178000,321.298000,138.178000,329.454000C138.178000,337.609000,145.014000,344.245000,153.421000,344.245000C161.828000,344.245000,168.664000,337.609000,168.664000,329.454000C168.664000,321.298000,161.828000,314.663000,153.421000,314.663000Z" fill="rgb(255,255,255)" stroke="none" stroke-width="1"/><path id="eJnAae0zrLx81" d="M199.482000,314.662000C191.075000,314.662000,184.240000,321.298000,184.240000,329.454000C184.240000,337.609000,191.075000,344.245000,199.482000,344.245000C207.889000,344.245000,214.725000,337.609000,214.725000,329.454000C214.725000,321.298000,207.884000,314.662000,199.482000,314.662000Z" fill="rgb(255,255,255)" stroke="none" stroke-width="1"/><path id="eJnAae0zrLx82" d="M245.539000,314.662000C237.132000,314.662000,230.296000,321.298000,230.296000,329.454000C230.296000,337.609000,237.132000,344.245000,245.539000,344.245000C253.946000,344.245000,260.782000,337.609000,260.782000,329.454000C260.787000,321.298000,253.946000,314.662000,245.539000,314.662000Z" fill="rgb(255,255,255)" stroke="none" stroke-width="1"/><path id="eJnAae0zrLx83" d="M291.600000,320.912000C286.744000,320.912000,282.800000,324.740000,282.800000,329.453000C282.800000,334.167000,286.750000,337.995000,291.600000,337.995000C296.450000,337.995000,300.400000,334.167000,300.400000,329.453000C300.400000,324.740000,296.450000,320.912000,291.600000,320.912000Z" fill="rgb(255,255,255)" stroke="none" stroke-width="1"/><path id="eJnAae0zrLx84" d="M337.662000,320.912000C332.812000,320.912000,328.862000,324.740000,328.862000,329.453000C328.862000,334.167000,332.812000,337.995000,337.662000,337.995000C342.517000,337.995000,346.461000,334.167000,346.461000,329.453000C346.461000,324.740000,342.511000,320.912000,337.662000,320.912000Z" fill="rgb(255,255,255)" stroke="none" stroke-width="1"/><path id="eJnAae0zrLx85" d="M15.242600,293.041000C20.102700,293.041000,24.042400,289.217000,24.042400,284.499000C24.042400,279.782000,20.102700,275.958000,15.242600,275.958000C10.382600,275.958000,6.442490,279.782000,6.442490,284.499000C6.442490,289.217000,10.382600,293.041000,15.242600,293.041000Z" fill="rgb(255,255,255)" stroke="none" stroke-width="1"/><path id="eJnAae0zrLx86" d="M61.304400,269.708000C52.897400,269.708000,46.061500,276.344000,46.061500,284.499000C46.061500,292.655000,52.897400,299.290000,61.304400,299.290000C69.711500,299.290000,76.547400,292.655000,76.547400,284.499000C76.547400,276.344000,69.711500,269.708000,61.304400,269.708000Z" fill="rgb(255,255,255)" stroke="none" stroke-width="1"/><path id="eJnAae0zrLx87" d="M107.360000,269.708000C98.952500,269.708000,92.116500,276.344000,92.116500,284.499000C92.116500,292.655000,98.952500,299.290000,107.360000,299.290000C115.767000,299.290000,122.602000,292.655000,122.602000,284.499000C122.608000,276.344000,115.767000,269.708000,107.360000,269.708000Z" fill="rgb(255,255,255)" stroke="none" stroke-width="1"/><path id="eJnAae0zrLx88" d="M153.421000,269.708000C145.014000,269.708000,138.178000,276.344000,138.178000,284.499000C138.178000,292.655000,145.014000,299.290000,153.421000,299.290000C161.828000,299.290000,168.664000,292.655000,168.664000,284.499000C168.664000,276.344000,161.828000,269.708000,153.421000,269.708000Z" fill="rgb(255,255,255)" stroke="none" stroke-width="1"/><path id="eJnAae0zrLx89" d="M199.482000,269.708000C191.075000,269.708000,184.240000,276.344000,184.240000,284.499000C184.240000,292.655000,191.075000,299.290000,199.482000,299.290000C207.889000,299.290000,214.725000,292.655000,214.725000,284.499000C214.725000,276.344000,207.884000,269.708000,199.482000,269.708000Z" fill="rgb(255,255,255)" stroke="none" stroke-width="1"/><path id="eJnAae0zrLx90" d="M245.539000,269.708000C237.132000,269.708000,230.296000,276.344000,230.296000,284.499000C230.296000,292.655000,237.132000,299.290000,245.539000,299.290000C253.946000,299.290000,260.782000,292.655000,260.782000,284.499000C260.787000,276.344000,253.946000,269.708000,245.539000,269.708000Z" fill="rgb(255,255,255)" stroke="none" stroke-width="1"/><path id="eJnAae0zrLx91" d="M291.601000,269.708000C283.194000,269.708000,276.358000,276.344000,276.358000,284.499000C276.358000,292.655000,283.194000,299.290000,291.601000,299.290000C300.008000,299.290000,306.843000,292.655000,306.843000,284.499000C306.843000,276.344000,300.008000,269.708000,291.601000,269.708000Z" fill="rgb(255,255,255)" stroke="none" stroke-width="1"/><path id="eJnAae0zrLx92" d="M337.662000,275.964000C332.812000,275.964000,328.862000,279.792000,328.862000,284.505000C328.862000,289.218000,332.812000,293.046000,337.662000,293.046000C342.517000,293.046000,346.461000,289.218000,346.461000,284.505000C346.461000,279.792000,342.511000,275.964000,337.662000,275.964000Z" fill="rgb(255,255,255)" stroke="none" stroke-width="1"/><path id="eJnAae0zrLx93" d="M15.242800,254.342000C23.661100,254.342000,30.485600,247.720000,30.485600,239.551000C30.485600,231.382000,23.661100,224.760000,15.242800,224.760000C6.824410,224.760000,-0.000046,231.382000,-0.000046,239.551000C-0.000046,247.720000,6.824410,254.342000,15.242800,254.342000Z" fill="rgb(255,255,255)" stroke="none" stroke-width="1"/><path id="eJnAae0zrLx94" d="M61.304400,224.760000C52.897400,224.760000,46.061500,231.395000,46.061500,239.551000C46.061500,247.707000,52.897400,254.342000,61.304400,254.342000C69.711500,254.342000,76.547400,247.707000,76.547400,239.551000C76.547400,231.395000,69.711500,224.760000,61.304400,224.760000Z" fill="rgb(255,255,255)" stroke="none" stroke-width="1"/><path id="eJnAae0zrLx95" d="M107.360000,224.760000C98.952500,224.760000,92.116500,231.395000,92.116500,239.551000C92.116500,247.707000,98.952500,254.342000,107.360000,254.342000C115.767000,254.342000,122.602000,247.707000,122.602000,239.551000C122.608000,231.395000,115.767000,224.760000,107.360000,224.760000Z" fill="rgb(255,255,255)" stroke="none" stroke-width="1"/><path id="eJnAae0zrLx96" d="M153.421000,248.092000C158.281000,248.092000,162.221000,244.268000,162.221000,239.551000C162.221000,234.834000,158.281000,231.010000,153.421000,231.010000C148.561000,231.010000,144.621000,234.834000,144.621000,239.551000C144.621000,244.268000,148.561000,248.092000,153.421000,248.092000Z" fill="rgb(255,255,255)" stroke="none" stroke-width="1"/><path id="eJnAae0zrLx97" d="M239.230000,292.800000C244.086000,292.800000,248.030000,288.972000,248.030000,284.259000C248.030000,279.551000,244.080000,275.718000,239.230000,275.718000C234.380000,275.718000,230.430000,279.546000,230.430000,284.259000C230.425000,288.972000,234.375000,292.800000,239.230000,292.800000Z" fill="rgb(255,255,255)" stroke="none" stroke-width="1"/><path id="eJnAae0zrLx98" d="M291.601000,224.760000C283.194000,224.760000,276.358000,231.395000,276.358000,239.551000C276.358000,247.707000,283.194000,254.342000,291.601000,254.342000C300.008000,254.342000,306.843000,247.707000,306.843000,239.551000C306.843000,231.395000,300.008000,224.760000,291.601000,224.760000Z" fill="rgb(255,255,255)" stroke="none" stroke-width="1"/><path id="eJnAae0zrLx99" d="M337.662000,224.760000C329.254000,224.760000,322.418000,231.395000,322.418000,239.551000C322.418000,247.707000,329.254000,254.342000,337.662000,254.342000C346.069000,254.342000,352.905000,247.707000,352.905000,239.551000C352.905000,231.395000,346.063000,224.760000,337.662000,224.760000Z" fill="rgb(255,255,255)" stroke="none" stroke-width="1"/><path id="eJnAae0zrLx100" d="M15.242800,209.388000C23.661100,209.388000,30.485600,202.766000,30.485600,194.597000C30.485600,186.428000,23.661100,179.806000,15.242800,179.806000C6.824410,179.806000,-0.000046,186.428000,-0.000046,194.597000C-0.000046,202.766000,6.824410,209.388000,15.242800,209.388000Z" fill="rgb(255,255,255)" stroke="none" stroke-width="1"/><path id="eJnAae0zrLx101" d="M61.304400,179.806000C52.897400,179.806000,46.061500,186.441000,46.061500,194.597000C46.061500,202.753000,52.897400,209.388000,61.304400,209.388000C69.711500,209.388000,76.547400,202.753000,76.547400,194.597000C76.547400,186.441000,69.711500,179.806000,61.304400,179.806000Z" fill="rgb(255,255,255)" stroke="none" stroke-width="1"/><path id="eJnAae0zrLx102" d="M107.360000,203.138000C112.220000,203.138000,116.160000,199.314000,116.160000,194.597000C116.160000,189.880000,112.220000,186.056000,107.360000,186.056000C102.500000,186.056000,98.559700,189.880000,98.559700,194.597000C98.559700,199.314000,102.500000,203.138000,107.360000,203.138000Z" fill="rgb(255,255,255)" stroke="none" stroke-width="1"/><path id="eJnAae0zrLx103" d="M153.421000,203.138000C158.281000,203.138000,162.221000,199.314000,162.221000,194.597000C162.221000,189.880000,158.281000,186.056000,153.421000,186.056000C148.561000,186.056000,144.621000,189.880000,144.621000,194.597000C144.621000,199.314000,148.561000,203.138000,153.421000,203.138000Z" fill="rgb(255,255,255)" stroke="none" stroke-width="1"/><path id="eJnAae0zrLx104" d="M199.483000,203.138000C204.338000,203.138000,208.283000,199.310000,208.283000,194.597000C208.283000,189.889000,204.333000,186.056000,199.483000,186.056000C194.633000,186.056000,190.683000,189.884000,190.683000,194.597000C190.678000,199.304000,194.628000,203.138000,199.483000,203.138000Z" fill="rgb(255,255,255)" stroke="none" stroke-width="1"/><path id="eJnAae0zrLx105" d="M199.483000,248.279000C204.338000,248.279000,208.283000,244.451000,208.283000,239.738000C208.283000,235.030000,204.333000,231.197000,199.483000,231.197000C194.633000,231.197000,190.683000,235.025000,190.683000,239.738000C190.678000,244.445000,194.628000,248.279000,199.483000,248.279000Z" fill="rgb(255,255,255)" stroke="none" stroke-width="1"/><path id="eJnAae0zrLx106" d="M245.540000,203.138000C250.400000,203.138000,254.339000,199.314000,254.339000,194.597000C254.339000,189.880000,250.400000,186.056000,245.540000,186.056000C240.680000,186.056000,236.739000,189.880000,236.739000,194.597000C236.739000,199.314000,240.680000,203.138000,245.540000,203.138000Z" fill="rgb(255,255,255)" stroke="none" stroke-width="1"/><path id="eJnAae0zrLx107" d="M291.600000,203.138000C296.450000,203.138000,300.400000,199.310000,300.400000,194.597000C300.400000,189.889000,296.450000,186.056000,291.600000,186.056000C286.744000,186.056000,282.800000,189.884000,282.800000,194.597000C282.800000,199.304000,286.744000,203.138000,291.600000,203.138000Z" fill="rgb(255,255,255)" stroke="none" stroke-width="1"/><path id="eJnAae0zrLx108" d="M337.662000,186.061000C332.812000,186.061000,328.862000,189.889000,328.862000,194.602000C328.862000,199.310000,332.812000,203.143000,337.662000,203.143000C342.517000,203.143000,346.461000,199.315000,346.461000,194.602000C346.461000,189.889000,342.511000,186.061000,337.662000,186.061000Z" fill="rgb(255,255,255)" stroke="none" stroke-width="1"/><path id="eJnAae0zrLx109" d="M15.242800,164.439000C23.661100,164.439000,30.485600,157.817000,30.485600,149.648000C30.485600,141.479000,23.661100,134.857000,15.242800,134.857000C6.824410,134.857000,-0.000046,141.479000,-0.000046,149.648000C-0.000046,157.817000,6.824410,164.439000,15.242800,164.439000Z" fill="rgb(255,255,255)" stroke="none" stroke-width="1"/><path id="eJnAae0zrLx110" d="M61.304400,134.857000C52.897400,134.857000,46.061500,141.492000,46.061500,149.648000C46.061500,157.804000,52.897400,164.439000,61.304400,164.439000C69.711500,164.439000,76.547400,157.804000,76.547400,149.648000C76.547400,141.492000,69.711500,134.857000,61.304400,134.857000Z" fill="rgb(255,255,255)" stroke="none" stroke-width="1"/><path id="eJnAae0zrLx111" d="M107.360000,158.189000C112.220000,158.189000,116.160000,154.365000,116.160000,149.648000C116.160000,144.931000,112.220000,141.107000,107.360000,141.107000C102.500000,141.107000,98.559700,144.931000,98.559700,149.648000C98.559700,154.365000,102.500000,158.189000,107.360000,158.189000Z" fill="rgb(255,255,255)" stroke="none" stroke-width="1"/><path id="eJnAae0zrLx112" d="M153.421000,158.189000C158.281000,158.189000,162.221000,154.365000,162.221000,149.648000C162.221000,144.931000,158.281000,141.107000,153.421000,141.107000C148.561000,141.107000,144.621000,144.931000,144.621000,149.648000C144.621000,154.365000,148.561000,158.189000,153.421000,158.189000Z" fill="rgb(255,255,255)" stroke="none" stroke-width="1"/><path id="eJnAae0zrLx113" d="M199.483000,158.184000C204.338000,158.184000,208.283000,154.356000,208.283000,149.643000C208.283000,144.935000,204.333000,141.101000,199.483000,141.101000C194.633000,141.101000,190.683000,144.929000,190.683000,149.643000C190.678000,154.356000,194.628000,158.184000,199.483000,158.184000Z" fill="rgb(255,255,255)" stroke="none" stroke-width="1"/><path id="eJnAae0zrLx114" d="M245.540000,158.189000C250.400000,158.189000,254.339000,154.365000,254.339000,149.648000C254.339000,144.931000,250.400000,141.107000,245.540000,141.107000C240.680000,141.107000,236.739000,144.931000,236.739000,149.648000C236.739000,154.365000,240.680000,158.189000,245.540000,158.189000Z" fill="rgb(255,255,255)" stroke="none" stroke-width="1"/><path id="eJnAae0zrLx115" d="M291.600000,158.184000C296.450000,158.184000,300.399000,154.356000,300.399000,149.643000C300.399000,144.935000,296.450000,141.101000,291.600000,141.101000C286.744000,141.101000,282.799000,144.929000,282.799000,149.643000C282.799000,154.356000,286.744000,158.184000,291.600000,158.184000Z" fill="rgb(255,255,255)" stroke="none" stroke-width="1"/><path id="eJnAae0zrLx116" d="M337.662000,141.107000C332.812000,141.107000,328.862000,144.935000,328.862000,149.648000C328.862000,154.356000,332.812000,158.189000,337.662000,158.189000C342.517000,158.189000,346.461000,154.361000,346.461000,149.648000C346.461000,144.935000,342.511000,141.107000,337.662000,141.107000Z" fill="rgb(255,255,255)" stroke="none" stroke-width="1"/><path id="eJnAae0zrLx117" d="M15.242800,119.485000C23.661100,119.485000,30.485600,112.863000,30.485600,104.694000C30.485600,96.525000,23.661100,89.902800,15.242800,89.902800C6.824410,89.902800,-0.000046,96.525000,-0.000046,104.694000C-0.000046,112.863000,6.824410,119.485000,15.242800,119.485000Z" fill="rgb(255,255,255)" stroke="none" stroke-width="1"/><path id="eJnAae0zrLx118" d="M61.304400,89.902800C52.897400,89.902800,46.061500,96.538100,46.061500,104.694000C46.061500,112.850000,52.897400,119.485000,61.304400,119.485000C69.711500,119.485000,76.547400,112.850000,76.547400,104.694000C76.547400,96.538100,69.711500,89.902800,61.304400,89.902800Z" fill="rgb(255,255,255)" stroke="none" stroke-width="1"/><path id="eJnAae0zrLx119" d="M107.360000,89.902600C98.952500,89.902600,92.116500,96.538000,92.116500,104.694000C92.116500,112.849000,98.952500,119.485000,107.360000,119.485000C115.767000,119.485000,122.602000,112.849000,122.602000,104.694000C122.602000,96.538000,115.767000,89.902600,107.360000,89.902600Z" fill="rgb(255,255,255)" stroke="none" stroke-width="1"/><path id="eJnAae0zrLx120" d="M153.421000,113.235000C158.281000,113.235000,162.221000,109.411000,162.221000,104.694000C162.221000,99.976900,158.281000,96.152900,153.421000,96.152900C148.561000,96.152900,144.621000,99.976900,144.621000,104.694000C144.621000,109.411000,148.561000,113.235000,153.421000,113.235000Z" fill="rgb(255,255,255)" stroke="none" stroke-width="1"/><path id="eJnAae0zrLx121" d="M199.483000,113.235000C204.338000,113.235000,208.283000,109.407000,208.283000,104.694000C208.283000,99.986400,204.333000,96.152900,199.483000,96.152900C194.633000,96.152900,190.683000,99.981000,190.683000,104.694000C190.678000,109.402000,194.628000,113.235000,199.483000,113.235000Z" fill="rgb(255,255,255)" stroke="none" stroke-width="1"/><path id="eJnAae0zrLx122" d="M291.601000,89.902600C283.194000,89.902600,276.358000,96.538000,276.358000,104.694000C276.358000,112.849000,283.194000,119.485000,291.601000,119.485000C300.008000,119.485000,306.843000,112.849000,306.843000,104.694000C306.843000,96.538000,300.008000,89.902600,291.601000,89.902600Z" fill="rgb(255,255,255)" stroke="none" stroke-width="1"/><path id="eJnAae0zrLx123" d="M337.662000,119.485000C346.069000,119.485000,352.905000,112.850000,352.905000,104.694000C352.905000,96.538100,346.069000,89.902800,337.662000,89.902800C329.254000,89.902800,322.418000,96.538100,322.418000,104.694000C322.418000,112.850000,329.254000,119.485000,337.662000,119.485000Z" fill="rgb(255,255,255)" stroke="none" stroke-width="1"/><path id="eJnAae0zrLx124" d="M15.242600,68.281000C20.102700,68.281000,24.042400,64.456900,24.042400,59.739700C24.042400,55.022600,20.102700,51.198500,15.242600,51.198500C10.382500,51.198500,6.442470,55.022600,6.442470,59.739700C6.442470,64.456900,10.382500,68.281000,15.242600,68.281000Z" fill="rgb(255,255,255)" stroke="none" stroke-width="1"/><path id="eJnAae0zrLx125" d="M61.304400,44.954300C52.897400,44.954300,46.061500,51.589600,46.061500,59.745300C46.061500,67.901100,52.897400,74.536400,61.304400,74.536400C69.711500,74.536400,76.547400,67.901100,76.547400,59.745300C76.547400,51.589600,69.711500,44.954300,61.304400,44.954300Z" fill="rgb(255,255,255)" stroke="none" stroke-width="1"/><path id="eJnAae0zrLx126" d="M107.360000,44.954300C98.952500,44.954300,92.116500,51.589600,92.116500,59.745300C92.116500,67.901100,98.952500,74.536400,107.360000,74.536400C115.767000,74.536400,122.602000,67.901100,122.602000,59.745300C122.608000,51.589600,115.767000,44.954300,107.360000,44.954300Z" fill="rgb(255,255,255)" stroke="none" stroke-width="1"/><path id="eJnAae0zrLx127" d="M153.421000,44.954300C145.014000,44.954300,138.178000,51.589700,138.178000,59.745400C138.178000,67.901100,145.014000,74.536400,153.421000,74.536400C161.828000,74.536400,168.664000,67.901100,168.664000,59.745400C168.664000,51.589700,161.828000,44.954300,153.421000,44.954300Z" fill="rgb(255,255,255)" stroke="none" stroke-width="1"/><path id="eJnAae0zrLx128" d="M199.482000,44.954300C191.075000,44.954300,184.240000,51.589700,184.240000,59.745400C184.240000,67.901100,191.075000,74.536400,199.482000,74.536400C207.889000,74.536400,214.725000,67.901100,214.725000,59.745400C214.725000,51.589700,207.884000,44.954300,199.482000,44.954300Z" fill="rgb(255,255,255)" stroke="none" stroke-width="1"/><path id="eJnAae0zrLx129" d="M245.539000,44.954300C237.132000,44.954300,230.296000,51.589700,230.296000,59.745400C230.296000,67.901100,237.132000,74.536400,245.539000,74.536400C253.946000,74.536400,260.782000,67.901100,260.782000,59.745400C260.787000,51.589700,253.946000,44.954300,245.539000,44.954300Z" fill="rgb(255,255,255)" stroke="none" stroke-width="1"/><path id="eJnAae0zrLx130" d="M291.601000,44.954300C283.194000,44.954300,276.358000,51.589700,276.358000,59.745400C276.358000,67.901100,283.194000,74.536400,291.601000,74.536400C300.008000,74.536400,306.843000,67.901100,306.843000,59.745400C306.843000,51.589700,300.008000,44.954300,291.601000,44.954300Z" fill="rgb(255,255,255)" stroke="none" stroke-width="1"/><path id="eJnAae0zrLx131" d="M337.662000,68.281000C342.517000,68.281000,346.461000,64.452900,346.461000,59.739700C346.461000,55.026600,342.511000,51.198500,337.662000,51.198500C332.812000,51.198500,328.862000,55.026600,328.862000,59.739700C328.862000,64.452900,332.806000,68.281000,337.662000,68.281000Z" fill="rgb(255,255,255)" stroke="none" stroke-width="1"/><path id="eJnAae0zrLx132" d="M245.539000,89.902600C237.132000,89.902600,230.296000,96.538000,230.296000,104.694000C230.296000,112.849000,237.132000,119.485000,245.539000,119.485000C253.946000,119.485000,260.782000,112.849000,260.782000,104.694000C260.787000,96.538000,253.946000,89.902600,245.539000,89.902600Z" fill="rgb(255,255,255)" stroke="none" stroke-width="1"/><path id="eJnAae0zrLx133" d="M245.539000,224.760000C237.132000,224.760000,230.296000,231.395000,230.296000,239.551000C230.296000,247.707000,237.132000,254.342000,245.539000,254.342000C253.946000,254.342000,260.782000,247.707000,260.782000,239.551000C260.787000,231.395000,253.946000,224.760000,245.539000,224.760000Z" fill="rgb(255,255,255)" stroke="none" stroke-width="1"/></g><g id="eJnAae0zrLx134" transform="matrix(0.85002531542708 0 0 0.85002531542708 26.46340564962856 25.81401956768832)" opacity="0" filter="url(#eJnAae0zrLx134-filter)"><path id="eJnAae0zrLx135" d="M15.242600,23.332400C20.102700,23.332400,24.042400,19.508400,24.042400,14.791200C24.042400,10.074000,20.102700,6.249940,15.242600,6.249940C10.382500,6.249940,6.442470,10.074000,6.442470,14.791200C6.442470,19.508400,10.382500,23.332400,15.242600,23.332400Z" fill="rgb(255,255,255)" stroke="none" stroke-width="1"/><path id="eJnAae0zrLx136" d="M61.304600,23.332400C66.154600,23.332400,70.104300,19.504300,70.104300,14.791200C70.104300,10.078000,66.154600,6.249940,61.304600,6.249940C56.449200,6.249940,52.504700,10.078000,52.504700,14.791200C52.504700,19.504300,56.449200,23.332400,61.304600,23.332400Z" fill="rgb(255,255,255)" stroke="none" stroke-width="1"/><path id="eJnAae0zrLx137" d="M107.360000,0.000031C98.952500,0.000031,92.116500,6.635360,92.116500,14.791100C92.116500,22.946800,98.952500,29.582100,107.360000,29.582100C115.767000,29.582100,122.602000,22.946800,122.602000,14.791100C122.608000,6.635360,115.767000,0.000031,107.360000,0.000031Z" fill="rgb(255,255,255)" stroke="none" stroke-width="1"/><path id="eJnAae0zrLx138" d="M153.421000,0.000031C145.014000,0.000031,138.178000,6.635360,138.178000,14.791100C138.178000,22.946800,145.014000,29.582100,153.421000,29.582100C161.828000,29.582100,168.664000,22.946800,168.664000,14.791100C168.664000,6.635360,161.828000,0.000031,153.421000,0.000031Z" fill="rgb(255,255,255)" stroke="none" stroke-width="1"/><path id="eJnAae0zrLx139" d="M199.482000,0.000031C191.075000,0.000031,184.240000,6.635360,184.240000,14.791100C184.240000,22.946800,191.075000,29.582100,199.482000,29.582100C207.889000,29.582100,214.725000,22.946800,214.725000,14.791100C214.725000,6.635360,207.884000,0.000031,199.482000,0.000031Z" fill="rgb(255,255,255)" stroke="none" stroke-width="1"/><path id="eJnAae0zrLx140" d="M245.539000,0.000031C237.132000,0.000031,230.296000,6.635360,230.296000,14.791100C230.296000,22.946800,237.132000,29.582100,245.539000,29.582100C253.946000,29.582100,260.782000,22.946800,260.782000,14.791100C260.787000,6.635360,253.946000,0.000031,245.539000,0.000031Z" fill="rgb(255,255,255)" stroke="none" stroke-width="1"/><path id="eJnAae0zrLx141" d="M291.600000,23.332400C296.450000,23.332400,300.400000,19.504300,300.400000,14.791200C300.400000,10.078000,296.450000,6.249940,291.600000,6.249940C286.744000,6.249940,282.800000,10.078000,282.800000,14.791200C282.800000,19.504300,286.744000,23.332400,291.600000,23.332400Z" fill="rgb(255,255,255)" stroke="none" stroke-width="1"/><path id="eJnAae0zrLx142" d="M337.662000,23.332400C342.517000,23.332400,346.461000,19.504300,346.461000,14.791200C346.461000,10.078000,342.511000,6.249940,337.662000,6.249940C332.812000,6.249940,328.862000,10.078000,328.862000,14.791200C328.862000,19.504300,332.806000,23.332400,337.662000,23.332400Z" fill="rgb(255,255,255)" stroke="none" stroke-width="1"/><path id="eJnAae0zrLx143" d="M15.242600,337.995000C20.102700,337.995000,24.042400,334.171000,24.042400,329.453000C24.042400,324.736000,20.102700,320.912000,15.242600,320.912000C10.382600,320.912000,6.442490,324.736000,6.442490,329.453000C6.442490,334.171000,10.382600,337.995000,15.242600,337.995000Z" fill="rgb(255,255,255)" stroke="none" stroke-width="1"/><path id="eJnAae0zrLx144" d="M61.304600,320.912000C56.449200,320.912000,52.504700,324.740000,52.504700,329.453000C52.504700,334.167000,56.454700,337.995000,61.304600,337.995000C66.154600,337.995000,70.104300,334.167000,70.104300,329.453000C70.104300,324.740000,66.154600,320.912000,61.304600,320.912000Z" fill="rgb(255,255,255)" stroke="none" stroke-width="1"/><path id="eJnAae0zrLx145" d="M107.360000,314.663000C98.952500,314.663000,92.116500,321.298000,92.116500,329.454000C92.116500,337.609000,98.952500,344.245000,107.360000,344.245000C115.767000,344.245000,122.602000,337.609000,122.602000,329.454000C122.608000,321.298000,115.767000,314.663000,107.360000,314.663000Z" fill="rgb(255,255,255)" stroke="none" stroke-width="1"/><path id="eJnAae0zrLx146" d="M153.421000,314.663000C145.014000,314.663000,138.178000,321.298000,138.178000,329.454000C138.178000,337.609000,145.014000,344.245000,153.421000,344.245000C161.828000,344.245000,168.664000,337.609000,168.664000,329.454000C168.664000,321.298000,161.828000,314.663000,153.421000,314.663000Z" fill="rgb(255,255,255)" stroke="none" stroke-width="1"/><path id="eJnAae0zrLx147" d="M199.482000,314.662000C191.075000,314.662000,184.240000,321.298000,184.240000,329.454000C184.240000,337.609000,191.075000,344.245000,199.482000,344.245000C207.889000,344.245000,214.725000,337.609000,214.725000,329.454000C214.725000,321.298000,207.884000,314.662000,199.482000,314.662000Z" fill="rgb(255,255,255)" stroke="none" stroke-width="1"/><path id="eJnAae0zrLx148" d="M245.539000,314.662000C237.132000,314.662000,230.296000,321.298000,230.296000,329.454000C230.296000,337.609000,237.132000,344.245000,245.539000,344.245000C253.946000,344.245000,260.782000,337.609000,260.782000,329.454000C260.787000,321.298000,253.946000,314.662000,245.539000,314.662000Z" fill="rgb(255,255,255)" stroke="none" stroke-width="1"/><path id="eJnAae0zrLx149" d="M291.600000,320.912000C286.744000,320.912000,282.800000,324.740000,282.800000,329.453000C282.800000,334.167000,286.750000,337.995000,291.600000,337.995000C296.450000,337.995000,300.400000,334.167000,300.400000,329.453000C300.400000,324.740000,296.450000,320.912000,291.600000,320.912000Z" fill="rgb(255,255,255)" stroke="none" stroke-width="1"/><path id="eJnAae0zrLx150" d="M337.662000,320.912000C332.812000,320.912000,328.862000,324.740000,328.862000,329.453000C328.862000,334.167000,332.812000,337.995000,337.662000,337.995000C342.517000,337.995000,346.461000,334.167000,346.461000,329.453000C346.461000,324.740000,342.511000,320.912000,337.662000,320.912000Z" fill="rgb(255,255,255)" stroke="none" stroke-width="1"/><path id="eJnAae0zrLx151" d="M15.242600,293.041000C20.102700,293.041000,24.042400,289.217000,24.042400,284.499000C24.042400,279.782000,20.102700,275.958000,15.242600,275.958000C10.382600,275.958000,6.442490,279.782000,6.442490,284.499000C6.442490,289.217000,10.382600,293.041000,15.242600,293.041000Z" fill="rgb(255,255,255)" stroke="none" stroke-width="1"/><path id="eJnAae0zrLx152" d="M61.304400,269.708000C52.897400,269.708000,46.061500,276.344000,46.061500,284.499000C46.061500,292.655000,52.897400,299.290000,61.304400,299.290000C69.711500,299.290000,76.547400,292.655000,76.547400,284.499000C76.547400,276.344000,69.711500,269.708000,61.304400,269.708000Z" fill="rgb(255,255,255)" stroke="none" stroke-width="1"/><path id="eJnAae0zrLx153" d="M107.360000,269.708000C98.952500,269.708000,92.116500,276.344000,92.116500,284.499000C92.116500,292.655000,98.952500,299.290000,107.360000,299.290000C115.767000,299.290000,122.602000,292.655000,122.602000,284.499000C122.608000,276.344000,115.767000,269.708000,107.360000,269.708000Z" fill="rgb(255,255,255)" stroke="none" stroke-width="1"/><path id="eJnAae0zrLx154" d="M153.421000,269.708000C145.014000,269.708000,138.178000,276.344000,138.178000,284.499000C138.178000,292.655000,145.014000,299.290000,153.421000,299.290000C161.828000,299.290000,168.664000,292.655000,168.664000,284.499000C168.664000,276.344000,161.828000,269.708000,153.421000,269.708000Z" fill="rgb(255,255,255)" stroke="none" stroke-width="1"/><path id="eJnAae0zrLx155" d="M199.482000,269.708000C191.075000,269.708000,184.240000,276.344000,184.240000,284.499000C184.240000,292.655000,191.075000,299.290000,199.482000,299.290000C207.889000,299.290000,214.725000,292.655000,214.725000,284.499000C214.725000,276.344000,207.884000,269.708000,199.482000,269.708000Z" fill="rgb(255,255,255)" stroke="none" stroke-width="1"/><path id="eJnAae0zrLx156" d="M245.539000,269.708000C237.132000,269.708000,230.296000,276.344000,230.296000,284.499000C230.296000,292.655000,237.132000,299.290000,245.539000,299.290000C253.946000,299.290000,260.782000,292.655000,260.782000,284.499000C260.787000,276.344000,253.946000,269.708000,245.539000,269.708000Z" fill="rgb(255,255,255)" stroke="none" stroke-width="1"/><path id="eJnAae0zrLx157" d="M291.601000,269.708000C283.194000,269.708000,276.358000,276.344000,276.358000,284.499000C276.358000,292.655000,283.194000,299.290000,291.601000,299.290000C300.008000,299.290000,306.843000,292.655000,306.843000,284.499000C306.843000,276.344000,300.008000,269.708000,291.601000,269.708000Z" fill="rgb(255,255,255)" stroke="none" stroke-width="1"/><path id="eJnAae0zrLx158" d="M337.662000,275.964000C332.812000,275.964000,328.862000,279.792000,328.862000,284.505000C328.862000,289.218000,332.812000,293.046000,337.662000,293.046000C342.517000,293.046000,346.461000,289.218000,346.461000,284.505000C346.461000,279.792000,342.511000,275.964000,337.662000,275.964000Z" fill="rgb(255,255,255)" stroke="none" stroke-width="1"/><path id="eJnAae0zrLx159" d="M15.242800,254.342000C23.661100,254.342000,30.485600,247.720000,30.485600,239.551000C30.485600,231.382000,23.661100,224.760000,15.242800,224.760000C6.824410,224.760000,-0.000046,231.382000,-0.000046,239.551000C-0.000046,247.720000,6.824410,254.342000,15.242800,254.342000Z" fill="rgb(255,255,255)" stroke="none" stroke-width="1"/><path id="eJnAae0zrLx160" d="M61.304400,224.760000C52.897400,224.760000,46.061500,231.395000,46.061500,239.551000C46.061500,247.707000,52.897400,254.342000,61.304400,254.342000C69.711500,254.342000,76.547400,247.707000,76.547400,239.551000C76.547400,231.395000,69.711500,224.760000,61.304400,224.760000Z" fill="rgb(255,255,255)" stroke="none" stroke-width="1"/><path id="eJnAae0zrLx161" d="M107.360000,224.760000C98.952500,224.760000,92.116500,231.395000,92.116500,239.551000C92.116500,247.707000,98.952500,254.342000,107.360000,254.342000C115.767000,254.342000,122.602000,247.707000,122.602000,239.551000C122.608000,231.395000,115.767000,224.760000,107.360000,224.760000Z" fill="rgb(255,255,255)" stroke="none" stroke-width="1"/><path id="eJnAae0zrLx162" d="M153.421000,248.092000C158.281000,248.092000,162.221000,244.268000,162.221000,239.551000C162.221000,234.834000,158.281000,231.010000,153.421000,231.010000C148.561000,231.010000,144.621000,234.834000,144.621000,239.551000C144.621000,244.268000,148.561000,248.092000,153.421000,248.092000Z" fill="rgb(255,255,255)" stroke="none" stroke-width="1"/><path id="eJnAae0zrLx163" d="M239.230000,292.800000C244.086000,292.800000,248.030000,288.972000,248.030000,284.259000C248.030000,279.551000,244.080000,275.718000,239.230000,275.718000C234.380000,275.718000,230.430000,279.546000,230.430000,284.259000C230.425000,288.972000,234.375000,292.800000,239.230000,292.800000Z" fill="rgb(255,255,255)" stroke="none" stroke-width="1"/><path id="eJnAae0zrLx164" d="M291.601000,224.760000C283.194000,224.760000,276.358000,231.395000,276.358000,239.551000C276.358000,247.707000,283.194000,254.342000,291.601000,254.342000C300.008000,254.342000,306.843000,247.707000,306.843000,239.551000C306.843000,231.395000,300.008000,224.760000,291.601000,224.760000Z" fill="rgb(255,255,255)" stroke="none" stroke-width="1"/><path id="eJnAae0zrLx165" d="M337.662000,224.760000C329.254000,224.760000,322.418000,231.395000,322.418000,239.551000C322.418000,247.707000,329.254000,254.342000,337.662000,254.342000C346.069000,254.342000,352.905000,247.707000,352.905000,239.551000C352.905000,231.395000,346.063000,224.760000,337.662000,224.760000Z" fill="rgb(255,255,255)" stroke="none" stroke-width="1"/><path id="eJnAae0zrLx166" d="M15.242800,209.388000C23.661100,209.388000,30.485600,202.766000,30.485600,194.597000C30.485600,186.428000,23.661100,179.806000,15.242800,179.806000C6.824410,179.806000,-0.000046,186.428000,-0.000046,194.597000C-0.000046,202.766000,6.824410,209.388000,15.242800,209.388000Z" fill="rgb(255,255,255)" stroke="none" stroke-width="1"/><path id="eJnAae0zrLx167" d="M61.304400,179.806000C52.897400,179.806000,46.061500,186.441000,46.061500,194.597000C46.061500,202.753000,52.897400,209.388000,61.304400,209.388000C69.711500,209.388000,76.547400,202.753000,76.547400,194.597000C76.547400,186.441000,69.711500,179.806000,61.304400,179.806000Z" fill="rgb(255,255,255)" stroke="none" stroke-width="1"/><path id="eJnAae0zrLx168" d="M107.360000,203.138000C112.220000,203.138000,116.160000,199.314000,116.160000,194.597000C116.160000,189.880000,112.220000,186.056000,107.360000,186.056000C102.500000,186.056000,98.559700,189.880000,98.559700,194.597000C98.559700,199.314000,102.500000,203.138000,107.360000,203.138000Z" fill="rgb(255,255,255)" stroke="none" stroke-width="1"/><path id="eJnAae0zrLx169" d="M153.421000,203.138000C158.281000,203.138000,162.221000,199.314000,162.221000,194.597000C162.221000,189.880000,158.281000,186.056000,153.421000,186.056000C148.561000,186.056000,144.621000,189.880000,144.621000,194.597000C144.621000,199.314000,148.561000,203.138000,153.421000,203.138000Z" fill="rgb(255,255,255)" stroke="none" stroke-width="1"/><path id="eJnAae0zrLx170" d="M199.483000,203.138000C204.338000,203.138000,208.283000,199.310000,208.283000,194.597000C208.283000,189.889000,204.333000,186.056000,199.483000,186.056000C194.633000,186.056000,190.683000,189.884000,190.683000,194.597000C190.678000,199.304000,194.628000,203.138000,199.483000,203.138000Z" fill="rgb(255,255,255)" stroke="none" stroke-width="1"/><path id="eJnAae0zrLx171" d="M199.483000,248.279000C204.338000,248.279000,208.283000,244.451000,208.283000,239.738000C208.283000,235.030000,204.333000,231.197000,199.483000,231.197000C194.633000,231.197000,190.683000,235.025000,190.683000,239.738000C190.678000,244.445000,194.628000,248.279000,199.483000,248.279000Z" fill="rgb(255,255,255)" stroke="none" stroke-width="1"/><path id="eJnAae0zrLx172" d="M245.540000,203.138000C250.400000,203.138000,254.339000,199.314000,254.339000,194.597000C254.339000,189.880000,250.400000,186.056000,245.540000,186.056000C240.680000,186.056000,236.739000,189.880000,236.739000,194.597000C236.739000,199.314000,240.680000,203.138000,245.540000,203.138000Z" fill="rgb(255,255,255)" stroke="none" stroke-width="1"/><path id="eJnAae0zrLx173" d="M291.600000,203.138000C296.450000,203.138000,300.400000,199.310000,300.400000,194.597000C300.400000,189.889000,296.450000,186.056000,291.600000,186.056000C286.744000,186.056000,282.800000,189.884000,282.800000,194.597000C282.800000,199.304000,286.744000,203.138000,291.600000,203.138000Z" fill="rgb(255,255,255)" stroke="none" stroke-width="1"/><path id="eJnAae0zrLx174" d="M337.662000,186.061000C332.812000,186.061000,328.862000,189.889000,328.862000,194.602000C328.862000,199.310000,332.812000,203.143000,337.662000,203.143000C342.517000,203.143000,346.461000,199.315000,346.461000,194.602000C346.461000,189.889000,342.511000,186.061000,337.662000,186.061000Z" fill="rgb(255,255,255)" stroke="none" stroke-width="1"/><path id="eJnAae0zrLx175" d="M15.242800,164.439000C23.661100,164.439000,30.485600,157.817000,30.485600,149.648000C30.485600,141.479000,23.661100,134.857000,15.242800,134.857000C6.824410,134.857000,-0.000046,141.479000,-0.000046,149.648000C-0.000046,157.817000,6.824410,164.439000,15.242800,164.439000Z" fill="rgb(255,255,255)" stroke="none" stroke-width="1"/><path id="eJnAae0zrLx176" d="M61.304400,134.857000C52.897400,134.857000,46.061500,141.492000,46.061500,149.648000C46.061500,157.804000,52.897400,164.439000,61.304400,164.439000C69.711500,164.439000,76.547400,157.804000,76.547400,149.648000C76.547400,141.492000,69.711500,134.857000,61.304400,134.857000Z" fill="rgb(255,255,255)" stroke="none" stroke-width="1"/><path id="eJnAae0zrLx177" d="M107.360000,158.189000C112.220000,158.189000,116.160000,154.365000,116.160000,149.648000C116.160000,144.931000,112.220000,141.107000,107.360000,141.107000C102.500000,141.107000,98.559700,144.931000,98.559700,149.648000C98.559700,154.365000,102.500000,158.189000,107.360000,158.189000Z" fill="rgb(255,255,255)" stroke="none" stroke-width="1"/><path id="eJnAae0zrLx178" d="M153.421000,158.189000C158.281000,158.189000,162.221000,154.365000,162.221000,149.648000C162.221000,144.931000,158.281000,141.107000,153.421000,141.107000C148.561000,141.107000,144.621000,144.931000,144.621000,149.648000C144.621000,154.365000,148.561000,158.189000,153.421000,158.189000Z" fill="rgb(255,255,255)" stroke="none" stroke-width="1"/><path id="eJnAae0zrLx179" d="M199.483000,158.184000C204.338000,158.184000,208.283000,154.356000,208.283000,149.643000C208.283000,144.935000,204.333000,141.101000,199.483000,141.101000C194.633000,141.101000,190.683000,144.929000,190.683000,149.643000C190.678000,154.356000,194.628000,158.184000,199.483000,158.184000Z" fill="rgb(255,255,255)" stroke="none" stroke-width="1"/><path id="eJnAae0zrLx180" d="M245.540000,158.189000C250.400000,158.189000,254.339000,154.365000,254.339000,149.648000C254.339000,144.931000,250.400000,141.107000,245.540000,141.107000C240.680000,141.107000,236.739000,144.931000,236.739000,149.648000C236.739000,154.365000,240.680000,158.189000,245.540000,158.189000Z" fill="rgb(255,255,255)" stroke="none" stroke-width="1"/><path id="eJnAae0zrLx181" d="M291.600000,158.184000C296.450000,158.184000,300.399000,154.356000,300.399000,149.643000C300.399000,144.935000,296.450000,141.101000,291.600000,141.101000C286.744000,141.101000,282.799000,144.929000,282.799000,149.643000C282.799000,154.356000,286.744000,158.184000,291.600000,158.184000Z" fill="rgb(255,255,255)" stroke="none" stroke-width="1"/><path id="eJnAae0zrLx182" d="M337.662000,141.107000C332.812000,141.107000,328.862000,144.935000,328.862000,149.648000C328.862000,154.356000,332.812000,158.189000,337.662000,158.189000C342.517000,158.189000,346.461000,154.361000,346.461000,149.648000C346.461000,144.935000,342.511000,141.107000,337.662000,141.107000Z" fill="rgb(255,255,255)" stroke="none" stroke-width="1"/><path id="eJnAae0zrLx183" d="M15.242800,119.485000C23.661100,119.485000,30.485600,112.863000,30.485600,104.694000C30.485600,96.525000,23.661100,89.902800,15.242800,89.902800C6.824410,89.902800,-0.000046,96.525000,-0.000046,104.694000C-0.000046,112.863000,6.824410,119.485000,15.242800,119.485000Z" fill="rgb(255,255,255)" stroke="none" stroke-width="1"/><path id="eJnAae0zrLx184" d="M61.304400,89.902800C52.897400,89.902800,46.061500,96.538100,46.061500,104.694000C46.061500,112.850000,52.897400,119.485000,61.304400,119.485000C69.711500,119.485000,76.547400,112.850000,76.547400,104.694000C76.547400,96.538100,69.711500,89.902800,61.304400,89.902800Z" fill="rgb(255,255,255)" stroke="none" stroke-width="1"/><path id="eJnAae0zrLx185" d="M107.360000,89.902600C98.952500,89.902600,92.116500,96.538000,92.116500,104.694000C92.116500,112.849000,98.952500,119.485000,107.360000,119.485000C115.767000,119.485000,122.602000,112.849000,122.602000,104.694000C122.602000,96.538000,115.767000,89.902600,107.360000,89.902600Z" fill="rgb(255,255,255)" stroke="none" stroke-width="1"/><path id="eJnAae0zrLx186" d="M153.421000,113.235000C158.281000,113.235000,162.221000,109.411000,162.221000,104.694000C162.221000,99.976900,158.281000,96.152900,153.421000,96.152900C148.561000,96.152900,144.621000,99.976900,144.621000,104.694000C144.621000,109.411000,148.561000,113.235000,153.421000,113.235000Z" fill="rgb(255,255,255)" stroke="none" stroke-width="1"/><path id="eJnAae0zrLx187" d="M199.483000,113.235000C204.338000,113.235000,208.283000,109.407000,208.283000,104.694000C208.283000,99.986400,204.333000,96.152900,199.483000,96.152900C194.633000,96.152900,190.683000,99.981000,190.683000,104.694000C190.678000,109.402000,194.628000,113.235000,199.483000,113.235000Z" fill="rgb(255,255,255)" stroke="none" stroke-width="1"/><path id="eJnAae0zrLx188" d="M291.601000,89.902600C283.194000,89.902600,276.358000,96.538000,276.358000,104.694000C276.358000,112.849000,283.194000,119.485000,291.601000,119.485000C300.008000,119.485000,306.843000,112.849000,306.843000,104.694000C306.843000,96.538000,300.008000,89.902600,291.601000,89.902600Z" fill="rgb(255,255,255)" stroke="none" stroke-width="1"/><path id="eJnAae0zrLx189" d="M337.662000,119.485000C346.069000,119.485000,352.905000,112.850000,352.905000,104.694000C352.905000,96.538100,346.069000,89.902800,337.662000,89.902800C329.254000,89.902800,322.418000,96.538100,322.418000,104.694000C322.418000,112.850000,329.254000,119.485000,337.662000,119.485000Z" fill="rgb(255,255,255)" stroke="none" stroke-width="1"/><path id="eJnAae0zrLx190" d="M15.242600,68.281000C20.102700,68.281000,24.042400,64.456900,24.042400,59.739700C24.042400,55.022600,20.102700,51.198500,15.242600,51.198500C10.382500,51.198500,6.442470,55.022600,6.442470,59.739700C6.442470,64.456900,10.382500,68.281000,15.242600,68.281000Z" fill="rgb(255,255,255)" stroke="none" stroke-width="1"/><path id="eJnAae0zrLx191" d="M61.304400,44.954300C52.897400,44.954300,46.061500,51.589600,46.061500,59.745300C46.061500,67.901100,52.897400,74.536400,61.304400,74.536400C69.711500,74.536400,76.547400,67.901100,76.547400,59.745300C76.547400,51.589600,69.711500,44.954300,61.304400,44.954300Z" fill="rgb(255,255,255)" stroke="none" stroke-width="1"/><path id="eJnAae0zrLx192" d="M107.360000,44.954300C98.952500,44.954300,92.116500,51.589600,92.116500,59.745300C92.116500,67.901100,98.952500,74.536400,107.360000,74.536400C115.767000,74.536400,122.602000,67.901100,122.602000,59.745300C122.608000,51.589600,115.767000,44.954300,107.360000,44.954300Z" fill="rgb(255,255,255)" stroke="none" stroke-width="1"/><path id="eJnAae0zrLx193" d="M153.421000,44.954300C145.014000,44.954300,138.178000,51.589700,138.178000,59.745400C138.178000,67.901100,145.014000,74.536400,153.421000,74.536400C161.828000,74.536400,168.664000,67.901100,168.664000,59.745400C168.664000,51.589700,161.828000,44.954300,153.421000,44.954300Z" fill="rgb(255,255,255)" stroke="none" stroke-width="1"/><path id="eJnAae0zrLx194" d="M199.482000,44.954300C191.075000,44.954300,184.240000,51.589700,184.240000,59.745400C184.240000,67.901100,191.075000,74.536400,199.482000,74.536400C207.889000,74.536400,214.725000,67.901100,214.725000,59.745400C214.725000,51.589700,207.884000,44.954300,199.482000,44.954300Z" fill="rgb(255,255,255)" stroke="none" stroke-width="1"/><path id="eJnAae0zrLx195" d="M245.539000,44.954300C237.132000,44.954300,230.296000,51.589700,230.296000,59.745400C230.296000,67.901100,237.132000,74.536400,245.539000,74.536400C253.946000,74.536400,260.782000,67.901100,260.782000,59.745400C260.787000,51.589700,253.946000,44.954300,245.539000,44.954300Z" fill="rgb(255,255,255)" stroke="none" stroke-width="1"/><path id="eJnAae0zrLx196" d="M291.601000,44.954300C283.194000,44.954300,276.358000,51.589700,276.358000,59.745400C276.358000,67.901100,283.194000,74.536400,291.601000,74.536400C300.008000,74.536400,306.843000,67.901100,306.843000,59.745400C306.843000,51.589700,300.008000,44.954300,291.601000,44.954300Z" fill="rgb(255,255,255)" stroke="none" stroke-width="1"/><path id="eJnAae0zrLx197" d="M337.662000,68.281000C342.517000,68.281000,346.461000,64.452900,346.461000,59.739700C346.461000,55.026600,342.511000,51.198500,337.662000,51.198500C332.812000,51.198500,328.862000,55.026600,328.862000,59.739700C328.862000,64.452900,332.806000,68.281000,337.662000,68.281000Z" fill="rgb(255,255,255)" stroke="none" stroke-width="1"/><path id="eJnAae0zrLx198" d="M245.539000,89.902600C237.132000,89.902600,230.296000,96.538000,230.296000,104.694000C230.296000,112.849000,237.132000,119.485000,245.539000,119.485000C253.946000,119.485000,260.782000,112.849000,260.782000,104.694000C260.787000,96.538000,253.946000,89.902600,245.539000,89.902600Z" fill="rgb(255,255,255)" stroke="none" stroke-width="1"/><path id="eJnAae0zrLx199" d="M245.539000,224.760000C237.132000,224.760000,230.296000,231.395000,230.296000,239.551000C230.296000,247.707000,237.132000,254.342000,245.539000,254.342000C253.946000,254.342000,260.782000,247.707000,260.782000,239.551000C260.787000,231.395000,253.946000,224.760000,245.539000,224.760000Z" fill="rgb(255,255,255)" stroke="none" stroke-width="1"/></g></svg>