<?xml version="1.0" encoding="utf-8"?>
<!-- Generator: Adobe Illustrator 25.1.0, SVG Export Plug-In . SVG Version: 6.00 Build 0)  -->
<svg version="1.1" id="Layer_1" xmlns="http://www.w3.org/2000/svg" xmlns:xlink="http://www.w3.org/1999/xlink" x="0px" y="0px"
	 viewBox="0 0 27 27" style="enable-background:new 0 0 27 27;" xml:space="preserve">
<style type="text/css">
	.st0{fill-rule:evenodd;clip-rule:evenodd;fill:#FFFFFF;}
</style>
<path class="st0" d="M26.1,24.9l-5-5C22.9,17.7,24,15,24,12c0-6.6-5.4-12-12-12C5.4,0,0,5.4,0,12c0,6.6,5.4,12,12,12
	c2.5,0,4.9-0.8,6.8-2.2L24,27L26.1,24.9z M3,12c0-5,4-9,9-9s9,4,9,9s-4,9-9,9S3,17,3,12z"/>
</svg>
