<svg width="28" height="25" viewBox="0 0 28 25" fill="none" xmlns="http://www.w3.org/2000/svg">
<path fill-rule="evenodd" clip-rule="evenodd" d="M21.6088 1.30626C27.5728 7.27024 27.5728 16.9398 21.6088 22.9038L22.915 24.21C29.6005 17.5246 29.6005 6.68541 22.915 0L21.6088 1.30626ZM0 18.735H7.45202L12.0547 23.6202L12.0547 0.653137L6.3446 6.68043H0V18.735ZM15.924 7.20708C18.629 9.91214 18.629 14.2979 15.924 17.003L17.2302 18.3092C20.6567 14.8827 20.6567 9.3273 17.2302 5.90082L15.924 7.20708ZM18.7123 20.0073C23.0766 15.643 23.0766 8.56703 18.7123 4.20271L20.0186 2.89645C25.1043 7.9822 25.1043 16.2278 20.0186 21.3136L18.7123 20.0073Z" fill="white"/>
</svg>
