<svg width="36" height="36" viewBox="0 0 36 36" fill="none" xmlns="http://www.w3.org/2000/svg">
<path fill-rule="evenodd" clip-rule="evenodd" d="M18 36C27.9411 36 36 27.9411 36 18C36 8.05887 27.9411 0 18 0C8.05887 0 0 8.05887 0 18C0 27.9411 8.05887 36 18 36ZM27.0127 15.2743C27.1856 15.2735 27.3584 15.2648 27.5305 15.2481H27.5335V11.7435C26.219 11.6474 24.9801 11.0923 24.0335 10.1753C23.0868 9.25822 22.4926 8.03759 22.3548 6.7268H19.338L19.3065 21.4309C19.3065 23.235 17.7133 24.6563 15.9093 24.6563C15.0431 24.6563 14.2124 24.3122 13.5999 23.6998C12.9875 23.0873 12.6434 22.2566 12.6434 21.3904C12.6434 20.5242 12.9875 19.6935 13.5999 19.0811C14.2124 18.4686 15.0431 18.1245 15.9093 18.1245C16.0097 18.1245 16.1069 18.1378 16.2041 18.1511C16.2376 18.1556 16.2711 18.1602 16.3048 18.1643V15.0109C16.2736 15.009 16.2424 15.0068 16.2113 15.0046C16.1112 14.9976 16.0111 14.9907 15.9093 14.9907C14.6437 14.9907 13.4065 15.3659 12.3542 16.0691C11.3019 16.7722 10.4817 17.7716 9.9974 18.9409C9.51308 20.1101 9.38636 21.3968 9.63327 22.638C9.88017 23.8793 10.4896 25.0195 11.3845 25.9144C12.2794 26.8093 13.4196 27.4188 14.6609 27.6657C15.9022 27.9126 17.1888 27.7859 18.358 27.3016C19.5273 26.8172 20.5267 25.9971 21.2298 24.9447C21.9329 23.8924 22.3082 22.6553 22.3082 21.3897V12.7318C22.8196 13.5129 23.5175 14.1543 24.3388 14.5982C25.1602 15.0421 26.0791 15.2744 27.0127 15.2743Z" fill="white"/>
</svg>
