<?xml version="1.0" encoding="utf-8"?>
<!-- Generator: Adobe Illustrator 25.1.0, SVG Export Plug-In . SVG Version: 6.00 Build 0)  -->
<svg version="1.1" id="Layer_1" xmlns="http://www.w3.org/2000/svg" xmlns:xlink="http://www.w3.org/1999/xlink" x="0px" y="0px"
	 viewBox="0 0 36 36" style="enable-background:new 0 0 36 36;" xml:space="preserve">
<style type="text/css">
	.st0{fill:#FFFFFF;}
</style>
<path class="st0" d="M18,0C8.1,0,0,8.1,0,18s8.1,18,18,18s18-8.1,18-18S27.9,0,18,0z M26.6,13.4c0,0.2,0,0.4,0,0.6
	c0,5.9-4.5,12.6-12.6,12.6c-2.5,0-4.8-0.7-6.8-2c0.3,0,0.7,0.1,1.1,0.1c2.1,0,4-0.7,5.5-1.9c-1.9,0-3.6-1.3-4.1-3.1
	c0.3,0.1,0.5,0.1,0.8,0.1c0.4,0,0.8-0.1,1.2-0.2c-2-0.4-3.6-2.2-3.6-4.3v-0.1c0.6,0.3,1.3,0.5,2,0.6c-1.2-0.8-2-2.2-2-3.7
	c0-0.8,0.2-1.6,0.6-2.2c2.2,2.7,5.5,4.4,9.1,4.6c-0.1-0.3-0.1-0.7-0.1-1c0-2.4,2-4.4,4.4-4.4c1.3,0,2.4,0.5,3.2,1.4
	c1-0.2,2-0.6,2.8-1.1c-0.3,1-1,1.9-1.9,2.5c0.9-0.1,1.8-0.3,2.5-0.7C28.2,12,27.5,12.7,26.6,13.4z"/>
</svg>
