<svg width="26" height="26" viewBox="0 0 26 26" fill="none" xmlns="http://www.w3.org/2000/svg">
<path fill-rule="evenodd" clip-rule="evenodd" d="M13 26C20.1797 26 26 20.1797 26 13C26 5.8203 20.1797 0 13 0C5.8203 0 0 5.8203 0 13C0 20.1797 5.8203 26 13 26ZM12.4697 5.46967L7.6967 10.2426C7.40381 10.5355 7.40381 11.0104 7.6967 11.3033C7.98959 11.5962 8.46447 11.5962 8.75736 11.3033L12.25 7.81066L12.25 21H13.75L13.75 7.81066L17.2426 11.3033C17.5355 11.5962 18.0104 11.5962 18.3033 11.3033C18.5962 11.0104 18.5962 10.5355 18.3033 10.2426L13.5303 5.46967C13.2374 5.17678 12.7626 5.17678 12.4697 5.46967Z" fill="white"/>
</svg>
