<?xml version="1.0" encoding="utf-8"?>
<!-- Generator: Adobe Illustrator 25.1.0, SVG Export Plug-In . SVG Version: 6.00 Build 0)  -->
<svg version="1.1" id="Layer_1" xmlns="http://www.w3.org/2000/svg" xmlns:xlink="http://www.w3.org/1999/xlink" x="0px" y="0px"
	 viewBox="0 0 36 36" style="enable-background:new 0 0 36 36;" xml:space="preserve">
<style type="text/css">
	.st0{fill:#FFFFFF;}
</style>
<g>
	<polygon class="st0" points="15.6,21.5 21.5,18 15.6,14.5 	"/>
	<path class="st0" d="M18,0C8.1,0,0,8.1,0,18s8.1,18,18,18s18-8.1,18-18S27.9,0,18,0z M28.9,23.6c-0.1,0.5-0.4,0.9-0.8,1.3
		c-0.4,0.4-0.8,0.6-1.3,0.8c-1.8,0.5-9,0.5-9,0.5s-7.2,0-9-0.5c-0.5-0.1-0.9-0.4-1.3-0.8c-0.4-0.4-0.6-0.8-0.8-1.3
		c-0.8-3.1-0.6-7.9,0-11.1c0.1-0.5,0.4-0.9,0.8-1.3s0.8-0.6,1.3-0.8c1.8-0.5,9-0.5,9-0.5s7.2,0,9,0.5c0.5,0.1,0.9,0.4,1.3,0.8
		c0.4,0.4,0.6,0.8,0.8,1.3C29.7,15.5,29.5,20.4,28.9,23.6z"/>
</g>
</svg>
